<svg width="280" height="80" viewBox="0 0 280 80" fill="none" xmlns="http://www.w3.org/2000/svg">
<path d="M0 44.2391V47.5221H20.1297L13.7366 59.0124L24.1146 65.4325C24.1146 65.4325 37.3328 48.5642 37.3328 40.9184V40.3784C37.3328 32.7272 24.1146 15.8643 24.1146 15.8643L13.7366 22.2844L20.1297 33.7747H0V44.2391Z" fill="#F5821F"/>
<path d="M65.7131 74.7677L68.5587 73.1262L58.4938 55.6963L71.6418 55.4857L72.0144 43.2881C72.0144 43.2881 50.794 40.2751 44.1741 44.098L43.7043 44.368C37.0844 48.1909 29.0876 68.0722 29.0876 68.0722L39.8382 73.8498L46.5931 62.57L56.6526 79.9999L59.4982 78.3584L65.7131 74.7677Z" fill="#F5821F"/>
<path d="M59.4063 1.64148L56.5607 0L46.4959 17.4299L39.741 6.15014L28.9904 11.9277C28.9904 11.9277 36.9926 31.809 43.6125 35.6319L44.0823 35.9019C50.7022 39.7248 71.9172 36.7118 71.9172 36.7118L71.5446 24.5142L58.402 24.3036L68.4668 6.87368L65.6213 5.23221L59.4063 1.64148Z" fill="#F5821F"/>
<path d="M89.4983 23.8945H105.918L109.682 41.6052H109.887L113.483 23.8945H129.866V56.2651H119.936V30.8276H119.687L113.98 56.2651H104.758L99.2175 30.8276H98.926V56.2651H89.4983V23.8945Z" fill="#F5821F"/>
<path d="M89.4983 23.8931H105.918L109.682 41.6038H109.887L113.483 23.8931H129.866V56.2637H119.936V30.8262H119.687L113.98 56.2637H104.758L99.2175 30.8262H98.926V56.2637H89.4983V23.8931Z" stroke="#F5821F" stroke-width="2"/>
<path d="M169.153 40.0757C169.153 50.3889 163.241 56.8198 153.025 56.8198C142.808 56.8198 136.891 50.3889 136.891 40.0757C136.891 29.7624 142.808 23.3369 153.025 23.3369C163.241 23.3369 169.153 29.7624 169.153 40.0757ZM148.559 40.0757C148.559 43.4504 148.845 49.0498 153.025 49.0498C157.198 49.0498 157.49 43.4504 157.49 40.0757C157.49 36.7009 157.198 31.1069 153.025 31.1069C148.845 31.1069 148.559 36.7009 148.559 40.0757Z" fill="#F5821F"/>
<path d="M169.153 40.0762C169.153 50.3894 163.241 56.8203 153.025 56.8203C142.808 56.8203 136.891 50.3894 136.891 40.0762C136.891 29.763 142.808 23.3374 153.025 23.3374C163.241 23.3374 169.153 29.763 169.153 40.0762ZM148.559 40.0762C148.559 43.4509 148.845 49.0503 153.025 49.0503C157.198 49.0503 157.49 43.4509 157.49 40.0762C157.49 36.7014 157.198 31.1075 153.025 31.1075C148.845 31.1075 148.559 36.7014 148.559 40.0762Z" stroke="#F5821F" stroke-width="2"/>
<path d="M203.181 23.8945V33.468H193.424V56.2651H182.339V33.468H172.582V23.8945H203.181Z" fill="#F5821F"/>
<path d="M203.181 23.8931V33.4666H193.424V56.2637H182.339V33.4666H172.582V23.8931H203.181Z" stroke="#F5821F" stroke-width="2"/>
<path d="M220.881 23.8945V42.3881H221.049L228.37 23.8945H241.313V56.2651H230.228V38.1387H230.066L222.744 56.2651H209.801V23.8945H220.881Z" fill="#F5821F"/>
<path d="M220.881 23.8931V42.3867H221.049L228.37 23.8931H241.313V56.2637H230.228V38.1372H230.066L222.744 56.2637H209.801V23.8931H220.881Z" stroke="#F5821F" stroke-width="2"/>
<path d="M266.994 23.8945C276.054 23.8945 277.707 29.3049 277.707 32.3071C277.707 36.0112 275.433 39.0134 271.832 39.7531V39.9421C274.731 40.4011 278.371 42.5285 278.371 47.6149C278.371 55.8007 270.098 56.2651 266.416 56.2651H249.585V23.8945H266.994ZM260.088 36.7024H262.696C266.502 36.7024 266.87 34.4831 266.87 33.5598C266.87 32.2153 266.006 30.4604 262.944 30.4604H260.088V36.7024ZM260.088 49.6992H262.901C266.459 49.6992 267.037 47.5232 267.037 46.3676C267.037 43.0847 263.603 43.0847 262.652 43.0847H260.088V49.6992Z" fill="#F5821F"/>
<path d="M266.994 23.8931C276.054 23.8931 277.707 29.3035 277.707 32.3057C277.707 36.0098 275.433 39.012 271.832 39.7517V39.9407C274.731 40.3997 278.371 42.5271 278.371 47.6135C278.371 55.7993 270.098 56.2637 266.416 56.2637H249.585V23.8931H266.994ZM260.088 36.7009H262.696C266.502 36.7009 266.87 34.4817 266.87 33.5584C266.87 32.2139 266.006 30.459 262.944 30.459H260.088V36.7009ZM260.088 49.6978H262.901C266.459 49.6978 267.037 47.5217 267.037 46.3662C267.037 43.0833 263.603 43.0833 262.652 43.0833H260.088V49.6978Z" stroke="#F5821F" stroke-width="2"/>
</svg>
