<?xml version="1.0" encoding="UTF-8" standalone="no"?>
<svg
   xmlns:dc="http://purl.org/dc/elements/1.1/"
   xmlns:cc="http://creativecommons.org/ns#"
   xmlns:rdf="http://www.w3.org/1999/02/22-rdf-syntax-ns#"
   xmlns:svg="http://www.w3.org/2000/svg"
   xmlns="http://www.w3.org/2000/svg"
   xmlns:sodipodi="http://sodipodi.sourceforge.net/DTD/sodipodi-0.dtd"
   xmlns:inkscape="http://www.inkscape.org/namespaces/inkscape"
   xml:space="preserve"
   width="96.923302mm"
   height="43.698101mm"
   version="1.1"
   style="clip-rule:evenodd;fill-rule:evenodd;image-rendering:optimizeQuality;shape-rendering:geometricPrecision;text-rendering:geometricPrecision"
   viewBox="0 0 9692.3302 4369.8101"
   id="svg38"
   sodipodi:docname="лого_Мой бизнес_Нижний Тагил.svg"
   inkscape:version="1.0.1 (3bc2e813f5, 2020-09-07)"><metadata
   id="metadata42"><rdf:RDF><cc:Work
       rdf:about=""><dc:format>image/svg+xml</dc:format><dc:type
         rdf:resource="http://purl.org/dc/dcmitype/StillImage" /></cc:Work></rdf:RDF></metadata><sodipodi:namedview
   pagecolor="#ffffff"
   bordercolor="#666666"
   borderopacity="1"
   objecttolerance="10"
   gridtolerance="10"
   guidetolerance="10"
   inkscape:pageopacity="0"
   inkscape:pageshadow="2"
   inkscape:window-width="721"
   inkscape:window-height="480"
   id="namedview40"
   showgrid="false"
   inkscape:zoom="0.27605432"
   inkscape:cx="271.02274"
   inkscape:cy="366.31839"
   inkscape:window-x="0"
   inkscape:window-y="27"
   inkscape:window-maximized="0"
   inkscape:current-layer="svg38" />
 <defs
   id="defs4">
  <style
   type="text/css"
   id="style2">
   <![CDATA[
    .fil2 {fill:#562212;fill-rule:nonzero}
    .fil1 {fill:#C59368;fill-rule:nonzero}
    .fil0 {fill:#ED5338;fill-rule:nonzero}
   ]]>
  </style>
 </defs>
 <g
   id="Слой_x0020_1"
   transform="translate(-3329.19,-2596.39)">
  <metadata
   id="CorelCorpID_0Corel-Layer" />
  <polygon
   class="fil0"
   points="11992.75,6262.53 11649.3,6966.2 11305.98,6262.53 11649.36,5925.99 "
   id="polygon7" />
  <path
   class="fil1"
   d="m 11649.38,3990.29 c -131.79,0 -238.63,104.84 -238.63,234.16 0,129.34 106.84,234.18 238.63,234.18 131.78,0 238.62,-104.84 238.62,-234.18 0,-129.32 -106.84,-234.16 -238.62,-234.16 z"
   id="path9" />
  <path
   class="fil1"
   d="m 11955.41,5187 -306.05,-300.88 -306.02,300.88 c -15.63,-41.73 -220.65,-586.38 -220.65,-941.73 0,-479.33 489.86,-747.88 526.67,-767.54 36.83,19.66 526.7,288.21 526.7,767.54 0,355.35 -205.02,900 -220.65,941.73 z m -306.05,-2247.66 c -72.7,36.55 -1022.63,529.16 -1022.63,1316.33 0,673.29 559.12,1694.43 559.12,1694.43 l 463.51,-455.67 463.54,455.67 c 0,0 559.13,-1021.14 559.13,-1694.43 0,-787.17 -949.96,-1279.78 -1022.67,-1316.33 z"
   id="path11" />
  <polygon
   class="fil1"
   points="12671.98,2596.39 12672.07,2596.39 13021.52,2939.34 12672.03,3282.35 12322.5,2939.34 "
   id="polygon13" />
  <path
   class="fil2"
   d="m 3895.79,5790.95 c 193.9,0 343.21,-146.03 343.21,-346.85 0,-216.31 -132.06,-342.72 -339.18,-342.72 -141.71,0 -309.79,110.65 -363.86,247.75 0,235.46 131.07,441.82 359.83,441.82 z m 428.17,-1237 c -52.28,15.31 -141.29,36.45 -228.02,54.55 -81.1,16.93 -187.42,32.03 -294.67,69.46 -170.55,59.54 -258.45,231.64 -274.49,447.86 -1.02,13.86 -7.22,28.34 -10.87,42.99 l 9.41,0.08 c 66.01,-140.71 247.07,-235.01 420.04,-235.01 301.41,0 499.7,197.54 499.7,501.29 0,263.29 -207.79,525.27 -549.77,525.27 -372.06,0 -566.1,-301.14 -566.1,-682.73 0,-424.78 119.74,-650.09 392.79,-762.91 80.4,-33.22 149.08,-44.05 211.99,-56.64 148.77,-29.76 237.23,-48.42 332.29,-74.13 z"
   id="path15" />
  <path
   class="fil2"
   d="M 4770.22,5926.31 H 4587.21 V 4922.73 h 203.98 v 656.17 c 0,23.29 -4.98,46.78 -9.41,62.75 5.57,0 9.41,0.11 9.41,0.11 l 584.33,-719.03 h 182.99 V 5926.31 H 5354.4 v -656.1 c 0,-23.04 4.88,-49.6 9.56,-65.33 h -9.5 z"
   id="path17" />
  <path
   class="fil2"
   d="m 5692.97,5823.59 80.63,-144.54 c 81.95,64.78 208.03,110.25 315.65,110.25 152.73,0 253.49,-67.01 253.49,-165.28 0,-82.64 -62.59,-124.64 -187.76,-124.64 h -172.97 v -155.94 h 161.6 c 102.41,0 165.54,-56.67 165.54,-137.09 0,-89.31 -72.24,-143.9 -206.52,-143.9 -95.96,0 -213.19,35.12 -304.93,105.83 l -80.38,-142.38 c 122.57,-92.05 271.35,-130.52 412.62,-130.52 245.8,0 384.64,107.75 384.64,275.25 0,116.14 -59.18,194.3 -179.81,236.74 v 4.47 c 136.56,15.64 212.83,113.91 212.83,236.75 0,185.39 -187.95,311.85 -433.59,311.85 -178.7,0 -332.12,-57.78 -421.04,-136.85 z"
   id="path19" />
  <polygon
   class="fil2"
   points="6893.74,5490.4 6893.74,5926.31 6689.76,5926.31 6689.76,4922.73 6893.74,4922.73 6893.74,5334.44 7442.51,5334.44 7442.51,4922.73 7646.63,4922.73 7646.63,5926.31 7442.51,5926.31 7442.51,5490.4 "
   id="polygon21" />
  <path
   class="fil2"
   d="m 8295.93,5063.73 c 184.5,0 274.15,121.69 290.28,276.06 h -584.3 c 25.94,-155.41 141.79,-276.06 294.02,-276.06 z m 485.28,432.18 c 2.09,-20.54 3.37,-41.35 3.37,-62.73 0,-305.84 -150.55,-537.81 -498.66,-537.81 -300.79,0 -497.13,231.97 -497.13,537.81 0,301.93 197.48,527.26 555.84,527.26 172.92,0 320.16,-52.07 426.16,-136.83 l -80.6,-144.56 c -78.54,57.81 -198.28,111.69 -339.66,111.69 -223.82,0 -331.99,-119.4 -351.62,-294.83 h 0.72 z"
   id="path23" />
  <path
   class="fil2"
   d="m 9475.21,5066.84 c 103.43,0 207.66,26.84 327.38,102.45 0,0 51.96,-91.86 82.98,-147.45 -122.5,-85.3 -264.05,-127.6 -415.8,-127.6 -329.42,0 -550.43,226.94 -550.43,532.8 0,297.96 220.34,533.4 553.84,533.4 163.5,0 306.11,-46.1 412.14,-130.86 l -80.62,-144.56 c -78.55,57.8 -192.2,101.7 -317.76,101.7 -208.23,0 -361.54,-153.61 -361.54,-371.6 0,-186.24 122.28,-348.28 349.81,-348.28 z"
   id="path25" />
  <path
   class="fil2"
   d="m 9384.69,3282.35 c 0,71.75 -33.12,113.41 -90.43,113.41 -57.32,0 -90.29,-44.16 -90.29,-113.41 h -297.03 c 8.32,213.55 134.14,357.67 391.91,357.67 237.8,0 373.55,-148.09 382.73,-357.67 z"
   id="path27" />
  <path
   class="fil2"
   d="m 8756.52,4721.96 0.15,-1003.59 h 343.15 c 0,0 -0.14,433.02 -0.14,467.26 0,34.2 -7.34,73.04 -7.34,73.04 h 14.82 l 373.52,-540.3 h 328.24 v 1003.59 h -343.15 v -471.6 c 0,-33.69 7.5,-65.64 7.5,-65.64 h -14.91 l -373.5,537.24 z"
   id="path29" />
  <path
   class="fil2"
   d="m 8048.58,4435.62 c 124.45,0 207.32,-95.02 207.32,-214.01 0,-122.08 -82.87,-217.02 -207.32,-217.02 -121.26,0 -207.28,94.94 -207.28,217.02 0,118.99 86.02,214.01 207.28,214.01 z m 0,-742.91 c 325.69,0 568.5,225.94 568.5,528.9 0,299.93 -242.81,526.01 -568.5,526.01 -322.43,0 -565.39,-226.08 -565.39,-526.01 0,-302.96 242.96,-528.9 565.39,-528.9 z"
   id="path31" />
  <path
   class="fil2"
   d="m 7072.08,3718.12 c 0,0 -286.63,365.59 -298.17,379.44 -14.09,17.13 -15.32,26.34 -15.32,26.34 h -14.89 c 0,0 -2.83,-9.92 -16.29,-26.34 -20.18,-24.54 -317.13,-379.44 -317.13,-379.44 H 6139.67 V 4721.71 H 6470.4 V 4300.4 c 0,-45.43 -7.47,-73.11 -7.47,-73.11 h 14.95 l 265.89,299.81 h 14.34 l 246.45,-299.81 h 14.82 c 0,0 -7.41,27.27 -7.41,73.11 v 421.31 h 330.85 V 3718.12 Z"
   id="path33" />
  <path
   class="fil2"
   d="m 5848.94,6804.58 h 66.7 v -622.49 h -66.7 v 273.88 h -229.43 v -273.88 h -66.69 v 622.49 h 66.69 v -287.25 h 229.43 z m 397.5,0 h 64.05 v -444.64 h -41.8 l -152.06,256.11 -29.34,72.93 h -3.58 l 5.34,-64.94 v -264.1 h -64.01 v 444.64 h 41.8 l 150.27,-248.99 31.12,-74.72 h 3.55 l -5.34,67.59 z M 6567.5,6595.6 v 208.98 h 64.01 v -200.09 h 35.57 l 99.62,200.09 h 73.82 l -102.27,-200.09 -36.46,-35.57 28.44,-28.45 93.38,-180.53 h -66.69 l -92.49,188.52 -32.92,12.47 v -200.99 h -64.01 v 192.07 h -36.47 l -92.48,-192.07 h -67.6 l 88.94,180.53 36.47,33.78 -24,26.69 -109.4,203.64 H 6435 l 99.58,-196.55 z m 543.36,208.98 h 64.04 v -444.64 h -64.04 v 188.52 H 6957.01 V 6359.94 H 6893 v 444.64 h 64.01 v -198.31 h 153.85 z m 389.48,0 h 64.04 v -444.64 h -41.8 l -152.06,256.11 -29.34,72.93 h -3.58 l 5.34,-64.94 v -264.1 h -64.01 v 444.64 h 41.8 l 150.27,-248.99 31.13,-74.72 h 3.54 l -5.33,67.59 z m 390.4,0 h 64.05 v -444.64 h -41.81 l -152.05,256.11 -29.34,72.93 h -3.58 l 5.34,-64.94 v -264.1 h -64.02 v 444.64 h 41.8 l 150.27,-248.99 31.13,-74.72 h 3.55 l -5.34,67.59 z m -188.52,-607.37 c 8.91,77.37 61.36,107.6 114.73,107.6 56.92,0 104.02,-38.25 112.94,-109.39 l -48.93,-14.23 c -6.2,49.8 -31.99,74.69 -62.22,74.69 -30.27,0 -56.06,-21.32 -62.26,-75.58 z m 855.53,-15.12 h -372.61 v 61.36 h 152.96 v 561.13 h 66.69 v -561.13 h 152.96 z m 1.75,255.22 c 25.8,-15.12 70.28,-26.68 103.17,-26.68 52.47,0 70.24,24.89 70.24,91.59 0,14.22 -0.86,30.23 -2.65,48.93 -12.46,-0.9 -24.9,-0.9 -36.47,-0.9 -105.81,0 -177.85,33.78 -177.85,135.15 0,77.38 45.35,125.41 109.4,125.41 57.78,0 90.7,-26.69 108.47,-56.92 h 3.58 l 15.11,52.48 h 48.9 c -7.99,-33.81 -10.68,-72.93 -10.68,-117.39 0,-60.49 4.45,-128.95 4.45,-200.09 0,-71.14 -16.88,-136.08 -116.49,-136.08 -54.24,0 -106.71,12.47 -140.49,33.81 z m 171.65,258.77 c -10.67,28.47 -37.36,56.92 -86.25,56.92 -36.47,0 -62.26,-27.58 -62.26,-74.69 0,-61.36 55.13,-78.27 112.94,-78.27 11.57,0 24,0.9 35.57,1.79 z m 378.81,-336.14 h -211.63 v 444.64 h 64.01 v -386.83 h 147.62 z m 272.99,444.64 h 64.04 v -444.64 h -41.8 l -152.06,256.11 -29.34,72.93 h -3.57 l 5.33,-64.94 v -264.1 h -64.01 v 444.64 h 41.8 l 150.27,-248.99 31.13,-74.72 h 3.55 l -5.34,67.59 z m 361.96,0 h 64.01 v -444.64 h -219.65 c -7.09,368.16 -35.57,398.39 -85.36,384.17 l -9.78,56.03 c 11.57,6.23 25.79,7.99 45.35,7.99 90.7,0 101.37,-188.53 108.5,-390.38 h 96.93 z"
   id="path35" />
 </g>
</svg>
