<?xml version="1.0" encoding="UTF-8" standalone="no"?>
<svg
   xmlns:dc="http://purl.org/dc/elements/1.1/"
   xmlns:cc="http://creativecommons.org/ns#"
   xmlns:rdf="http://www.w3.org/1999/02/22-rdf-syntax-ns#"
   xmlns:svg="http://www.w3.org/2000/svg"
   xmlns="http://www.w3.org/2000/svg"
   xmlns:sodipodi="http://sodipodi.sourceforge.net/DTD/sodipodi-0.dtd"
   xmlns:inkscape="http://www.inkscape.org/namespaces/inkscape"
   xml:space="preserve"
   width="78.564903mm"
   height="109.1179mm"
   version="1.1"
   style="clip-rule:evenodd;fill-rule:evenodd;image-rendering:optimizeQuality;shape-rendering:geometricPrecision;text-rendering:geometricPrecision"
   viewBox="0 0 7856.4903 10911.79"
   id="svg55"
   sodipodi:docname="лого СОФПП.svg"
   inkscape:version="1.0.1 (3bc2e813f5, 2020-09-07)"><metadata
   id="metadata59"><rdf:RDF><cc:Work
       rdf:about=""><dc:format>image/svg+xml</dc:format><dc:type
         rdf:resource="http://purl.org/dc/dcmitype/StillImage" /></cc:Work></rdf:RDF></metadata><sodipodi:namedview
   pagecolor="#ffffff"
   bordercolor="#666666"
   borderopacity="1"
   objecttolerance="10"
   gridtolerance="10"
   guidetolerance="10"
   inkscape:pageopacity="0"
   inkscape:pageshadow="2"
   inkscape:window-width="1920"
   inkscape:window-height="1021"
   id="namedview57"
   showgrid="false"
   inkscape:zoom="0.74717541"
   inkscape:cx="345.47641"
   inkscape:cy="468.7491"
   inkscape:window-x="0"
   inkscape:window-y="27"
   inkscape:window-maximized="1"
   inkscape:current-layer="svg55" />
 <defs
   id="defs4">
  <style
   type="text/css"
   id="style2">
   <![CDATA[
    .fil1 {fill:#2E779A}
    .fil2 {fill:#B8B7B7}
    .fil3 {fill:white}
    .fil0 {fill:white;fill-rule:nonzero}
   ]]>
  </style>
 </defs>
 <g
   id="Слой_x0020_1"
   transform="translate(-1359.27,-2447.68)">
  <metadata
   id="CorelCorpID_0Corel-Layer" />
  <g
   id="_1994643880592">
   <polygon
   class="fil0"
   points="1359.27,2447.68 9215.76,2447.68 9215.76,13359.44 1359.27,13359.44 "
   id="polygon7" />
   <path
   class="fil1"
   d="m 9215.76,5644.29 v 7715.18 H 1359.27 V 6704.79 c 714.9,109.6 1476,169.97 2267.83,169.97 2231.19,0 4239.54,-477.55 5588.66,-1230.47 z"
   id="path9" />
   <path
   class="fil2"
   d="m 9215.76,4198.75 v 771.8 c -1220.4,1013.48 -4333.64,1732.46 -5915.3,1732.46 -1581.79,0 -1326.1,-52.79 -1941.19,-147.31 v -88.61 c 565.11,120.94 1220.4,150.99 1914.14,118.85 1735.37,-79.13 3438.29,-592.52 4856.3,-1528.48 413.47,-271.85 778.56,-564.37 1086.05,-858.71 z"
   id="path11" />
   <path
   class="fil2"
   d="m 9215.76,2447.74 v 1424.37 c -293.91,381.25 -701.32,758.81 -1199.24,1102.23 -1393.22,964.4 -3159.35,1500.45 -4891.13,1573.89 -633.85,26.34 -1249.14,-7.47 -1766.12,-116.95 V 2447.74 Z"
   id="path13" />
   <path
   class="fil3"
   d="m 8353.69,7680.02 c -17.85,31.15 -53.3,84.45 -110.87,84.45 -49.4,0 -53.9,-39.92 -53.9,-62.49 v -21.96 l -4.49,-4.38 c -8.89,13.38 -26.65,35.53 -66.77,58.08 13.47,44.22 49.11,70.67 102.41,70.67 66.85,0 124.85,-57.6 160.47,-106.49 z m 164.88,671.39 v -22.06 h -18.05 c -53.22,0 -40.15,-66.88 -40.15,-124.57 v -320.36 -111.18 l -26.73,9.39 c -329.45,430.64 -138.03,155.49 -405.1,497.8 h -4.38 c 0,-31.31 4.38,-111.18 4.38,-146.91 v -213.37 c 0,-48.8 0,-111.07 44.42,-111.07 h 17.97 v -22.37 h -26.57 c -9.28,0 -22.55,4.3 -35.82,4.3 h -31.23 -30.86 c -9.08,0 -22.55,-4.3 -31.52,-4.3 h -26.65 v 22.37 h 18.05 c 48.92,0 40.12,57.69 40.12,111.07 v 302.4 142.13 l 30.86,-4.1 c 151.38,-160.69 334.34,-369.56 405.49,-484.93 h 4.5 c -13.3,57.77 -13.3,93.3 -13.3,142.22 v 182.02 c 0,62.58 0,129.46 -44.7,129.46 h -13.46 v 22.06 h 26.84 26.54 c 13.58,-4.61 26.76,-4.61 40.43,-4.61 26.34,0 30.72,4.61 62.27,4.61 z m -663.79,0 v -22.06 h -17.45 c -53.61,0 -44.81,-66.88 -44.81,-124.57 v -320.36 -111.18 l -26.46,9.39 c -329.75,430.64 -138.34,155.49 -405.71,497.8 h -4.19 c 4.19,-31.31 9.4,-111.18 9.4,-146.91 v -213.37 c 0,-48.8 -5.21,-111.07 43.99,-111.07 h 13.49 v -22.37 h -26.96 c -8.77,0 -22.15,4.3 -35.73,4.3 h -26.45 -35.62 c -8.77,0 -22.26,-4.3 -31.15,-4.3 h -26.73 v 22.37 h 18.05 c 48.52,0 44.22,57.69 44.22,111.07 v 302.4 c 0,52.99 -4.39,88.83 -4.39,142.13 l 31.04,-4.1 c 155.9,-160.69 334.13,-369.56 405.4,-484.93 h 4.78 c -13.78,57.77 -9.28,93.3 -9.28,142.22 v 182.02 c 0,62.58 -4.5,129.46 -44.42,129.46 h -18.16 v 22.06 h 31.46 22.24 c 13.38,-4.61 26.76,-4.61 40.11,-4.61 26.96,0 31.07,4.61 62.3,4.61 z m -859.21,-564.7 v 22.37 h 17.29 c 13.66,0 17.96,13.16 17.96,22.04 0,17.77 -30.75,53.3 -209.01,222.17 173.76,173.45 218.18,302.51 316.18,302.51 22.06,0 39.91,0 57.88,-9 v -17.45 h -44.39 c -31.35,0 -58,-75.85 -155.91,-191.33 -26.85,-35.73 -84.81,-84.73 -120.06,-97.8 l 146.91,-138.03 c 52.99,-53.3 88.83,-93.11 137.63,-93.11 h 13.47 v -22.37 h -22.04 c -9,0 -17.88,4.3 -27.05,4.3 -8.88,4.78 -21.98,0 -30.95,0 h -31.34 c -13.27,0 -26.65,-4.3 -39.72,-4.3 z m -316.26,564.7 h 31.32 c 8.8,0 17.77,0 26.56,-4.61 h 35.73 35.62 c 8.4,4.61 17.68,4.61 26.57,4.61 h 31.23 v -22.06 h -17.77 c -53.41,0 -44.81,-98.11 -44.81,-151.41 v -244.52 c 0,-62.07 0,-124.34 44.81,-124.34 h 17.77 v -22.37 h -26.85 c -13.27,0 -26.65,0 -35.73,4.3 h -30.84 -31.65 c -12.87,-4.3 -21.84,-4.3 -35.51,-4.3 h -26.45 v 22.37 h 17.97 c 48.8,0 43.99,80.04 43.99,124.34 v 244.52 c 0,53.3 4.81,151.41 -43.99,151.41 h -17.97 z m -79.86,-417.99 v -13.27 c 0,-35.73 4.21,-102.49 4.21,-133.44 -13.49,4.3 -22.38,4.3 -35.84,4.3 -93.62,0 -79.84,-17.77 -164.77,-17.77 -182.53,0 -307.29,133.53 -307.29,293.51 0,177.95 146.91,297.93 316.18,297.93 155.88,0 178.23,-57.88 213.76,-133.44 h -26.25 c -31.63,57.79 -93.9,102.49 -187.51,102.49 -115.68,0 -240.44,-97.71 -240.44,-262.56 0,-168.98 106.91,-266.78 213.99,-266.78 53.29,0 187.14,-4.3 187.14,129.03 z m -824.05,129.26 c 17.45,-4.5 31.32,-4.5 44.39,-4.5 102.21,0 164.79,52.99 164.79,137.64 0,66.65 -26.85,137.91 -124.85,137.91 -93.33,0 -84.33,-44.7 -84.33,-137.91 z m 0,-98.22 c 0,-53.39 4.47,-119.96 4.47,-155.38 h 57.4 c 58.28,0 98.31,66.57 98.31,111.07 0,70.87 -66.77,124.65 -160.18,115.57 z m -62.69,217.86 c 0,66.8 -4.19,147.03 -44.5,147.03 h -17.77 v 22.06 h 31.35 c 53.38,0 48.8,-8.68 106.68,-4.61 35.73,4.61 53.58,9 89.23,9 115.65,0 173.45,-80.26 173.45,-159.98 0,-124.65 -124.76,-151.02 -169.18,-151.02 h -17.65 v -4.58 c 79.95,-13.38 133.73,-66.77 133.73,-129.15 0,-48.8 -31.35,-128.44 -142.53,-128.44 -75.65,0 -84.62,8.38 -124.93,8.38 -35.34,0 -35.34,-8.38 -80.15,-4.3 v 22.37 h 22.26 c 49.4,0 40.01,75.34 40.01,124.34 z M 5098.32,8044.8 c 0,-200.3 124.56,-244.71 200.41,-244.71 115.68,0 213.68,120.06 213.68,284.63 0,151.3 -71.46,253.2 -191.61,253.2 -151.21,0 -222.48,-159.98 -222.48,-293.12 z m -75.85,17.88 c 0,137.21 93.93,302 276.26,302 160.38,0 289.44,-115.56 289.44,-297.93 0,-142.01 -102.52,-293.51 -271.87,-293.51 -182.33,0 -293.83,128.95 -293.83,289.44 z m -275.94,-280.05 c -13.47,61.87 -26.85,101.79 -89.15,275.55 -62.35,186.52 -89.11,271.17 -151.29,271.17 h -17.66 v 22.06 h 22.07 c 8.77,0 22.35,0 35.42,-4.61 h 35.42 36.13 c 13.07,4.61 22.18,4.61 30.75,4.61 h 31.54 v -22.06 h -17.96 c -35.53,0 -31.26,-22.55 -31.26,-40.32 0,-39.91 17.68,-75.76 67.07,-226.35 30.95,-89.23 44.42,-133.95 53.42,-187.03 h 4.07 c 9.28,70.95 71.77,231.33 84.65,275.75 49.39,129.03 67.04,177.95 4.97,177.95 h -13.57 v 22.06 h 26.45 c 13.46,0 22.35,0 31.54,-4.61 h 40.12 40.23 c 13.07,4.61 26.45,4.61 39.91,4.61 h 22.16 v -22.06 h -13.58 c -44.42,0 -71.27,-71.27 -88.72,-124.57 -49.31,-133.61 -75.74,-186.91 -151.81,-431.54 z m -580.16,79.64 c 0,31.23 8.58,62.47 30.93,151.1 17.68,80.15 62.29,199.9 102.61,302.51 -54.1,4.39 -84.93,4.39 -152.01,4.39 -53.1,0 -84.33,0 -133.53,-4.39 40.31,-106.99 138.42,-391.14 142.72,-453.61 z m -263.58,613.68 c 9.28,-31.04 31.54,-84.42 49.51,-102.3 22.04,-22.24 57.77,-22.24 93.61,-22.24 h 284.95 c 26.42,0 71.34,0 71.34,66.66 0,8.99 -4.78,44.5 -9.28,57.88 h 31.55 c 21.95,-89.23 30.92,-124.54 35.53,-169.15 -22.18,4.58 -53.5,4.58 -75.87,4.58 -17.86,0 -17.86,-4.58 -80.12,-168.98 -26.77,-84.22 -62.3,-173.45 -106.71,-373.46 l -44.51,4.3 c -17.96,98.11 -98.11,324.86 -125.15,396.01 -44.22,124.17 -48.8,146.63 -70.87,146.63 -13.47,0 -44.7,-4.5 -53.98,-9.08 -4.19,57.88 -13.18,111.27 -26.34,169.15 z m -144.9,-124.54 v -22.06 h -26.57 c -49.2,0 -45.01,-75.85 -45.01,-142.53 v -373.27 c 9.28,0 22.35,-4.47 31.43,-4.47 84.53,0 151.33,53.19 151.33,142.31 0,75.45 -48.6,137.74 -106.71,137.74 -8.97,0 -22.35,0 -35.82,-4.41 v 22.26 c 13.47,4.19 26.85,4.19 40.31,4.19 79.84,0 168.87,-61.98 168.87,-159.78 0,-89.12 -53.3,-164.68 -177.83,-164.68 -88.95,0 -71.58,4.3 -120.27,4.3 -22.26,0 -40.23,0 -75.84,-4.3 v 22.37 c 67.04,-4.69 62.55,44.39 62.55,133.34 v 248.9 c 0,57.8 0,138.03 -44.7,138.03 h -17.85 v 22.06 h 31.23 c 8.97,0 18.16,0 26.54,-4.61 h 35.92 30.84 c 13.67,4.61 22.35,4.61 31.43,4.61 z m -578.77,-142.52 c 0,49.19 0,120.46 -40.43,120.46 h -22.24 v 22.06 h 17.86 c 35.53,0 48.91,-8.68 98.11,-4.61 8.97,0 17.85,0 26.53,4.61 22.35,0 44.34,0 67.08,4.39 h 97.72 c 26.65,0 49,-13.07 75.73,-129.06 h -31.03 c -22.35,89.14 -71.16,102.61 -142.42,102.61 -58.19,0 -84.64,-13.47 -84.64,-120.46 v -132.86 l 53.29,-4.86 h 53.5 c 39.92,0 49.11,31.12 44.22,75.73 h 22.46 c 0,-57.77 4.39,-115.68 13.36,-168.86 h -22.04 c -4.61,57.68 -26.96,62.18 -58,66.76 h -53.5 l -53.29,-4.58 v -88.83 c 0,-40.32 4.1,-80.04 4.1,-124.45 h 98.11 c 62.58,0 66.96,26.53 66.96,53.18 0,9 0,26.65 -4.38,44.62 h 26.53 c 13.39,-49.09 22.16,-93.62 31.35,-138.03 -71.66,4.3 -111.18,4.3 -182.76,4.3 -57.77,0 -98.08,0 -164.85,-4.3 v 22.37 h 17.86 c 48.91,0 44.81,75.34 44.81,124.34 z m -383.14,-146.21 c 17.65,-4.5 31.03,-4.5 44.5,-4.5 102.5,0 164.68,52.99 164.68,137.64 0,66.65 -26.74,137.91 -124.56,137.91 -93.82,0 -84.62,-44.7 -84.62,-137.91 z m 0,-98.22 c 0,-53.39 4.58,-119.96 4.58,-155.38 h 57.8 c 57.88,0 98.11,66.57 98.11,111.07 0,70.87 -67.19,124.65 -160.49,115.57 z m -62.58,217.86 c 0,66.8 -4.1,147.03 -44.3,147.03 h -17.88 v 22.06 h 30.95 c 53.49,0 49.19,-8.68 107.19,-4.61 35.62,4.61 57.68,9 89.31,9 119.87,0 173.37,-80.26 173.37,-159.98 0,-124.65 -120.38,-151.02 -169.46,-151.02 h -17.49 v -4.58 c 79.95,-13.38 133.45,-66.77 133.45,-129.15 0,-48.8 -31.15,-128.44 -142.61,-128.44 -75.37,0 -84.65,8.38 -124.57,8.38 -35.42,0 -35.42,-8.38 -80.14,-4.3 v 22.37 h 22.15 c 48.91,0 40.03,75.34 40.03,124.34 z m -142.41,-248.9 v -13.27 c 0,-35.73 4.49,-102.49 4.49,-133.44 -13.09,4.3 -22.37,4.3 -35.84,4.3 -93.22,0 -75.45,-17.77 -164.48,-17.77 -182.73,0 -307.38,133.53 -307.38,293.51 0,177.95 146.91,297.93 316.06,297.93 155.8,0 178.55,-57.88 213.88,-133.44 h -26.73 c -31.35,57.79 -93.42,102.49 -187.15,102.49 -115.45,0 -240.32,-97.71 -240.32,-262.56 0,-168.98 106.99,-266.78 213.48,-266.78 53.8,0 187.53,-4.3 187.53,129.03 z"
   id="path15" />
   <path
   class="fil3"
   d="m 8322.82,8447.01 c -22.46,44.3 -67.16,111.49 -142.81,111.49 -62.29,0 -71.15,-53.81 -71.15,-76.07 0,-13.07 0,-22.04 4.78,-35.42 h -9.39 c -8.57,13.38 -35.42,44.3 -84.53,71.26 17.88,57.69 62.49,93.5 128.95,93.5 84.64,0 160.29,-76.04 204.99,-137.91 z m 204.49,862.3 v -26.15 h -22.15 c -66.77,0 -57.77,-84.73 -57.77,-160.29 v -409.19 c 0,-17.57 0,-44.51 4.07,-142.22 l -35.53,4.5 c -422.75,560.18 -177.84,204.48 -520.86,644.94 h -4.5 c 0,-44.42 8.8,-146.92 8.8,-186.83 V 8758.4 c 0,-66.76 -4.3,-142.53 57.97,-142.53 h 22.18 v -30.83 h -35.54 c -17.68,0 -31.06,4.38 -44.61,4.38 -13.07,4.11 -26.45,4.11 -39.72,4.11 -13.49,0 -26.85,0 -40.23,-4.11 -17.65,0 -31.03,-4.38 -44.81,-4.38 h -35.14 v 30.83 h 26.57 c 57.68,0 53.38,75.77 53.38,142.53 v 386.73 c 0,66.37 0,115.69 -4.89,182.45 l 40.23,-9 c 196.19,-199.9 427.75,-471.34 521.36,-622.47 l 4.39,4.41 c -13.58,70.95 -13.58,115.65 -13.58,186.92 v 226.35 c 0,79.83 0,169.37 -57.97,169.37 h -21.95 v 26.15 h 39.92 35.73 c 13.46,-4.11 31.43,-4.11 48.88,-4.11 30.95,0 35.85,4.11 75.76,4.11 z m -1460.7,-395.73 c 0,-252.98 160.18,-310.66 258.18,-310.66 147.11,0 276.37,150.9 276.37,368.77 0,191.01 -89.03,319.96 -249.41,319.96 -191.73,0 -285.14,-204.2 -285.14,-378.07 z m -93.42,22.66 c 0,182.44 115.97,391.34 351.6,391.34 205.11,0 369.87,-146.63 369.87,-382.66 0,-182.02 -129.63,-373.46 -347.1,-373.46 -232.04,0 -374.37,160.1 -374.37,364.78 z M 6153.9,8615.87 h 22.38 c 61.95,0 57.77,75.77 57.77,155.6 v 347.21 c 0,52.91 0,164.48 -57.77,164.48 h -22.38 v 26.15 h 39.95 35.7 c 13.1,-4.11 31.15,-4.11 44.41,-4.11 13.5,0 26.46,0 40.35,4.11 h 40.2 39.72 v -26.15 h -22.44 c -57.48,0 -57.48,-84.73 -57.48,-164.48 v -164.87 c 57.48,4.81 155.57,9.08 226.63,9.08 67.16,0 164.88,-4.27 227.54,-9.08 v 164.87 c 0,79.75 0,164.48 -57.88,164.48 h -22.43 v 26.15 h 40.2 35.33 c 13.58,-4.11 31.43,-4.11 44.81,-4.11 13.27,0 26.54,0 40.12,4.11 h 39.92 40.14 v -26.15 h -22.46 c -62.18,0 -57.6,-111.57 -57.6,-164.48 v -347.21 c 0,-79.83 -4.58,-155.6 53.41,-155.6 h 22.35 v -30.83 h -35.84 c -13.07,0 -26.85,4.38 -39.92,4.38 -13.58,4.11 -26.85,4.11 -44.9,4.11 -8.6,0 -21.95,0 -35.25,-4.11 -17.96,0 -31.31,-4.38 -49.08,-4.38 h -31.23 v 30.83 h 22.43 c 57.88,0 57.88,75.77 57.88,155.6 v 137.92 c -49.08,4.19 -133.92,17.57 -227.54,17.57 -97.6,0 -177.83,-13.38 -226.63,-17.57 v -137.92 c 0,-79.83 0,-155.6 57.48,-155.6 h 22.44 v -30.83 h -35.62 c -13.47,0 -31.35,4.38 -44.3,4.38 -13.89,4.11 -26.85,4.11 -40.35,4.11 -13.26,0 -26.53,0 -44.41,-4.11 -13.67,0 -26.93,-4.38 -40.4,-4.38 H 6153.9 Z M 5508,8753.82 c 26.93,-128.86 89.2,-133.45 178.23,-133.45 h 66.76 v 506.89 c 0,71.17 0,155.9 -57.77,155.9 h -22.57 v 30.93 h 40.14 c 13.55,0 26.65,-4.78 40.2,-4.78 13.5,-4.11 31.35,-4.11 44.33,-4.11 13.47,0 26.94,0 39.92,4.11 13.78,0 31.55,4.78 49.09,4.78 h 31.46 v -30.93 h -22.27 c -62.27,0 -62.27,-102.21 -62.27,-160.29 v -502.5 h 75.54 c 71.26,0 164.37,-13.07 142.41,133.45 h 31.46 c 17.54,-106.6 22.44,-160.29 22.44,-182.36 -62.78,4.5 -133.93,13.58 -316.66,13.58 -49,0 -155.91,0 -275.97,-13.58 -8.97,40.31 -8.97,44.41 -35.54,182.36 z m -99.42,22.04 c 0,-8.89 -4.89,-12.96 -4.89,-22.04 0,-44.61 4.89,-128.86 9.28,-168.78 -17.97,4.38 -26.74,4.38 -48.8,4.38 -116.28,0 -98.11,-17.96 -209.58,-17.96 -231.56,0 -391.94,168.98 -391.94,373.46 0,231.56 187.15,382.66 405.41,382.66 196.11,0 226.94,-71.38 275.86,-173.48 h -35.34 c -40.31,75.77 -124.56,133.14 -240.52,133.14 -151.5,0 -311.79,-124.54 -311.79,-337.93 0,-213.26 138.14,-337.54 275.97,-337.54 67.05,0 236.03,-8.85 240.5,164.09 z m -941.14,-75.34 c 26.85,111.18 62.27,182.42 102.5,320.36 -22.15,4.19 -44.7,4.19 -67.08,4.19 -49.2,0 -102.18,0 -146.8,-4.19 57.88,-173.64 80.04,-218.06 102.61,-320.36 z m -8.77,-129.06 c -53.5,186.94 -209.09,711.7 -303.02,711.7 h -22.35 v 26.15 h 40.43 31.12 c 17.68,-4.11 31.15,-4.11 48.91,-4.11 13.07,0 31.15,0 44.5,4.11 h 35.65 35.62 v -26.15 h -31.04 c -44.61,0 -40.23,-35.84 -40.23,-62.26 0,-39.95 31.15,-120.49 48.92,-160.41 49,4.81 106.48,4.81 169.06,4.81 22.47,0 49.12,0 71.66,-4.81 35.42,88.83 84.22,222.67 17.46,222.67 h -26.85 v 26.15 h 26.85 44.41 c 17.97,-4.11 40.43,-4.11 58.2,-4.11 17.85,0 31.34,0 44.5,4.11 h 35.65 40.31 v -26.15 h -27.05 c -53.3,0 -120.06,-93.61 -302.71,-724.66 z m -732.07,9.08 c -17.97,80.06 -35.54,133.14 -115.46,355.7 -80.34,240.24 -116.19,346.92 -191.84,346.92 h -26.84 v 26.15 h 31.26 40.31 c 17.57,-4.11 30.92,-4.11 48.49,-4.11 18.28,0 31.66,0 49.2,4.11 h 40.23 39.92 v -26.15 h -26.45 c -44.39,0 -40.21,-31.23 -40.21,-53.29 0,-53.39 26.74,-98.2 88.92,-289.02 40.43,-116.08 53.7,-173.88 67.28,-240.33 h 4.27 c 13.29,88.8 93.41,298.01 110.98,355.9 62.5,164.48 84.85,226.74 4.81,226.74 h -17.57 v 26.15 h 35.11 44.73 c 13.47,-4.11 30.95,-4.11 44.42,-4.11 17.85,0 35.61,0 53.69,4.11 h 48.8 31.04 v -26.15 h -17.57 c -58.2,0 -89.32,-93.61 -115.96,-160.29 -62.3,-173.56 -97.92,-239.93 -191.33,-551.41 z m -703.62,355.7 c 22.58,-4.47 39.95,-4.47 62.5,-4.47 133.53,0 204.79,89.11 204.79,209.26 0,101.91 -80.23,146.21 -164.88,146.21 -115.56,0 -102.41,-93.62 -102.41,-168.56 z m -79.92,177.55 c 0,79.83 4.47,177.86 -80.26,169.37 v 26.15 h 44.42 c 31.03,0 75.76,-4.11 97.91,-4.11 40.43,0 76.05,13.38 133.53,13.38 129.15,0 240.53,-80.23 240.53,-204.79 0,-106.57 -62.18,-208.47 -262.68,-208.47 -31.03,0 -62.38,0 -93.53,4.07 v -57.68 c 0,-35.54 4.02,-75.85 8.8,-217.87 h 124.65 c 31.23,0 89.11,-4.5 89.11,66.68 0,8.69 0,31.04 -8.96,62.38 l 35.73,-4.5 c 17.96,-62.29 31.03,-120.06 40.31,-173.36 -44.81,4.38 -133.53,8.49 -231.44,8.49 -93.7,0 -178.66,-4.11 -218.38,-8.49 v 30.83 h 26.57 c 62.26,0 53.69,97.81 53.69,182.45 z m -757.11,-200.21 c 0,-252.98 159.9,-310.66 258.09,-310.66 147,0 276.06,150.9 276.06,368.77 0,191.01 -89.22,319.96 -249.32,319.96 -196,0 -284.83,-204.2 -284.83,-378.07 z m -98.2,22.66 c 0,182.44 120.55,391.34 356.29,391.34 205.08,0 369.56,-146.63 369.56,-382.66 0,-182.02 -128.94,-373.46 -347.09,-373.46 -231.84,0 -378.76,160.1 -378.76,364.78 z"
   id="path17" />
   <path
   class="fil3"
   d="m 2050.92,11281.7 v 29.25 c 73.16,-7.19 73.16,65.75 73.16,146.2 v 314.88 c 0,72.65 0,168.36 -51.29,168.36 h -21.87 v 29.25 h 36.83 c 14.97,0 21.67,0 36.33,-7.3 h 44.3 29.65 c 14.29,7.3 28.94,7.3 43.51,7.3 h 36.75 v -29.25 h -22.26 c -58,0 -50.9,-102.59 -50.9,-168.36 v -446.63 h 403.4 v 431.86 c 0,87.42 6.87,183.13 -51.89,183.13 h -22.26 v 29.25 h 37.31 c 14.49,0 29.14,0 43.71,-7.3 h 36.83 36.53 c 7.38,7.3 21.95,7.3 36.83,7.3 h 36.72 v -29.25 h -21.95 c -59.18,0 -59.18,-109.77 -59.18,-183.13 v -300.11 c 0,-80.45 7.58,-153.39 81.13,-146.2 v -29.25 c -139.1,7.27 -278.83,7.27 -359.17,7.27 -73.28,0 -212.98,0 -352.22,-7.27 z"
   id="path19" />
   <path
   class="fil3"
   d="m 3180.65,11947.57 c -183.24,0 -264.1,-190.34 -264.1,-351.4 0,-241.15 146.61,-292.44 241.92,-292.44 139.64,0 256.31,139.14 256.31,343.73 0,183.13 -80.35,300.11 -234.13,300.11 z m 0,-680.95 c -220.08,0 -359.1,154.1 -359.1,351.59 0,168.27 109.49,366.2 336.92,366.2 190.65,0 345.14,-139.73 345.14,-359.01 0,-175.74 -118.08,-358.78 -322.96,-358.78 z"
   id="path21" />
   <path
   class="fil3"
   d="m 3801.6,11933.11 c -65.95,0 -102.5,-7.27 -161.46,-7.27 44.11,-132.14 168.36,-468.69 168.36,-549.12 h 14.77 c 0,36.81 7.07,80.43 37.03,183.04 21.95,95 73.04,241.21 124.34,366.08 -65.87,7.27 -102.39,7.27 -183.04,7.27 z m 190.42,-219.87 c -36.81,-102.3 -80.74,-204.4 -131.72,-446.71 h -51.8 c -29.34,117.66 -124.25,395.73 -153.9,483.46 -58.48,146.29 -58.48,175.85 -87.73,175.85 -14.77,0 -51.6,-7.49 -65.86,-14.68 -7.39,73.25 -14.97,139.02 -29.25,204.68 l 36.32,7.61 c 7.19,-44.02 29.25,-102.3 51.4,-124.36 29.46,-29.45 73.16,-29.45 117.58,-29.45 h 344.01 c 36.92,0 88.33,0 88.33,80.54 0,7.38 -7.08,51.49 -14.97,73.27 l 37.03,-7.61 c 29.03,-102.49 36.41,-146.2 43.8,-204.68 -22.04,7.19 -65.86,7.19 -87.7,7.19 -29.57,0 -29.57,0 -95.54,-205.11 z"
   id="path23" />
   <path
   class="fil3"
   d="m 4552.77,11933.11 c -66.29,0 -102.92,-7.27 -161.8,-7.27 43.91,-132.14 168.67,-468.69 175.86,-549.12 h 7.58 c 0,36.81 7.5,80.43 36.83,183.04 22.04,95 80.55,241.21 124.65,366.08 -58.87,7.27 -102.61,7.27 -183.12,7.27 z m 190.11,-219.87 c -36.64,-102.3 -80.35,-204.4 -131.64,-446.71 h -51.6 c -21.67,117.66 -124.76,395.73 -153.98,483.46 -51.41,146.29 -58.31,175.85 -87.54,175.85 -14.96,0 -51.71,-7.49 -66.28,-14.68 0,73.25 -7.38,139.02 -29.54,204.68 l 36.73,7.61 c 7.38,-44.02 36.63,-102.3 59.09,-124.36 21.76,-29.45 65.67,-29.45 109.69,-29.45 h 344.8 c 36.53,0 87.73,0 87.73,80.54 0,7.38 -7.47,51.49 -7.47,73.27 l 36.61,-7.61 c 22.15,-102.49 36.64,-146.2 36.64,-204.68 -21.67,7.19 -58.28,7.19 -87.73,7.19 -22.07,0 -22.07,0 -95.51,-205.11 z"
   id="path25" />
   <path
   class="fil3"
   d="m 5256.97,11940.39 c -73.47,0 -102.72,-14.57 -102.72,-146.72 v -160.58 l 66.09,-7.69 h 58.48 c 51.29,0 66.08,36.92 58.9,95.31 h 28.82 c -6.79,-73.25 0,-139.33 14.49,-204.99 h -29.06 c -7.07,65.66 -36.52,80.45 -73.15,80.45 h -66.06 -58.51 v -109.68 c 0,-51.01 0,-102.3 6.9,-153.81 h 117.67 c 73.15,0 80.93,36.83 80.93,66.36 0,6.91 0,28.55 -7.78,50.62 h 29.06 c 22.35,-58.48 29.82,-116.98 37.12,-167.96 -80.43,7.27 -132.23,7.27 -212.98,7.27 -73.27,0 -124.25,0 -204.71,-7.27 v 29.22 h 21.96 c 58.5,0 58.5,95.03 58.5,146.21 v 336.54 c 0,58.59 0,146.72 -51.2,146.72 h -29.26 v 29.25 h 21.96 c 43.62,0 58.5,-7.3 116.87,-7.3 h 37.34 c 22.04,7.3 50.89,7.3 80.34,7.3 36.41,7.18 73.14,7.18 117.16,7.18 36.72,0 58.9,-14.48 88.12,-161.08 h -29.22 c -29.65,110.08 -88.13,124.65 -176.06,124.65 z"
   id="path27" />
   <path
   class="fil3"
   d="m 5792.54,11281.7 c -110.08,0 -87.73,7.27 -153.59,7.27 -22.15,0 -44.5,0 -88.63,-7.27 v 29.25 c 80.66,0 73.36,50.98 73.36,161.06 v 307.29 c 0,65.38 0,161.09 -51.29,161.09 h -22.07 v 29.25 h 36.83 c 14.57,0 21.67,0 36.53,-7.3 h 44.33 36.8 c 14.29,7.3 21.36,7.3 36.05,7.3 h 44.3 v -29.25 h -29.42 c -58.99,0 -58.99,-88.13 -58.99,-175.55 v -446.62 c 15.36,0 29.42,-7.27 44.11,-7.27 102.8,0 183.55,65.75 183.55,175.54 0,87.73 -58.91,160.97 -131.87,160.97 h -36.8 v 22.07 c 7.58,7.19 22.04,7.19 43.99,7.19 95.42,0 205.5,-73.28 205.5,-197.53 0,-102.49 -65.86,-197.49 -212.69,-197.49 z"
   id="path29" />
   <path
   class="fil3"
   d="m 6540.63,11611 c 0,-153.9 -14.37,-300.11 58.79,-300.11 h 21.75 v -29.25 h -29.53 c -14.17,0 -28.66,7.3 -43.43,7.3 h -37.11 -36.53 c -14.37,0 -29.53,-7.3 -44.02,-7.3 h -36.52 v 29.25 h 22.26 c 80.75,0 58.28,146.21 58.28,300.11 0,88.12 29.65,329.33 -51.2,329.33 h -29.34 v 29.25 h 36.52 c 14.49,0 29.65,0 44.02,-7.18 h 36.53 37.11 c 14.77,7.18 29.26,7.18 36.44,7.18 h 36.52 v -29.25 h -21.75 c -80.43,0 -58.79,-241.21 -58.79,-329.33 z"
   id="path31" />
   <path
   class="fil3"
   d="m 6621.17,11611 c 124.96,-131.84 242.23,-300.11 330.04,-300.11 h 21.96 v -29.25 h -29.14 c -15.08,0 -36.22,7.3 -73.76,7.3 h -36.12 c -15.08,0 -29.54,-7.3 -36.84,-7.3 h -29.14 v 29.25 c 7.19,0 36.44,7.27 36.44,14.46 0,51.32 -198.01,248.93 -234.53,300.1 132.03,153.91 234.53,351.32 366.48,351.32 22.23,0 44.19,-7.19 66.06,-14.37 v -22.07 h -29.45 c -139.02,0 -80.83,-160.97 -352,-329.33 z"
   id="path33" />
   <path
   class="fil3"
   d="m 6218.23,11325.38 c 0,-7.19 22.04,-14.49 36.13,-14.49 v -29.22 h -29.25 c -14.26,0 -28.55,7.27 -36.33,7.27 h -36.64 c -44.19,0 -51.29,-7.27 -73.35,-7.27 h -29.54 v 29.22 h 15.17 c 95.02,0 256.7,219.59 337.25,300.14 -80.55,43.71 -132.54,102.18 -220.07,226.75 -58.68,73.35 -87.93,117.34 -161.57,102.58 v 21.95 c 168.75,66.09 263.86,-153.39 432.53,-336.83 -95.03,-102.49 -234.33,-256 -234.33,-300.1 z"
   id="path35" />
   <path
   class="fil3"
   d="m 7237.88,11757.26 v -292.81 c 0,-80.26 0,-153.5 58.48,-153.5 h 21.95 v -29.25 h -36.61 c -14.57,0 -29.05,7.29 -43.82,7.29 h -36.92 -36.52 c -14.88,0 -29.85,-7.29 -44.33,-7.29 h -29.03 v 29.25 h 21.76 c 58.56,0 51.6,94.91 51.6,153.5 v 292.81 c 0,65.78 6.96,183.15 -51.6,183.15 h -21.76 v 29.23 h 36.52 c 14.86,0 21.96,0 36.84,-7.27 h 44.1 36.53 c 14.45,7.27 22.06,7.27 36.63,7.27 h 36.61 v -29.23 h -21.95 c -65.35,0 -58.48,-117.37 -58.48,-183.15 z"
   id="path37" />
   <path
   class="fil3"
   d="m 7472.21,11713.24 c -29.25,-43.71 -95.71,-109.8 -146.6,-124.25 l 175.82,-161.37 c 73.56,-65.78 110.11,-116.67 168.98,-116.67 h 14.77 v -29.25 h -22.35 c -14.88,0 -22.06,7.27 -36.52,7.27 h -29.25 -44.22 c -14.57,0 -29.23,-7.27 -43.51,-7.27 h -37.12 v 29.25 h 21.64 c 22.38,0 22.38,14.45 22.38,29.22 0,21.67 -36.83,58.9 -256.71,270.77 219.88,204.8 271.48,365.88 388.43,365.88 22.46,0 44.13,-7.18 66.48,-14.48 v -21.95 h -51.6 c -36.52,0 -73.35,-88.13 -190.62,-227.15 z"
   id="path39" />
   <path
   class="fil3"
   d="m 8528.41,11940.39 c -65.97,0 -51.18,-80.24 -51.18,-146.72 v -387.72 -139.33 l -29.16,7.58 c -403.29,526.77 -168.45,190.22 -491.41,607.28 h -7.7 c 0,-36.8 7.7,-138.7 7.7,-175.14 v -256.68 c 0,-65.47 0,-138.74 51.29,-138.74 h 21.95 v -29.22 h -29.45 c -14.65,0 -29.34,7.27 -43.79,7.27 h -36.64 -36.72 c -14.77,0 -29.45,-7.27 -43.91,-7.27 h -29.64 v 29.22 h 22.03 c 58.51,0 51.52,73.27 51.52,138.74 v 366.08 c 0,58.56 0,102.58 -7.18,168.67 l 43.9,-7.59 c 183.44,-190.34 403.11,-446.34 483.86,-585.64 h 7.38 c -14.97,65.95 -14.97,110.08 -14.97,176.14 v 219.16 c 0,73.67 0,153.91 -51,153.91 h -22.16 v 29.25 h 36.81 c 7.61,0 22.07,0 29.25,-7.3 h 51.41 c 29.14,0 36.63,7.3 73.44,7.3 h 36.52 v -29.25 z"
   id="path41" />
   <path
   class="fil3"
   d="m 8355.16,12253.48 c 13.27,58.19 30.95,93.53 48.91,160.29 h -31.03 -71.27 c 26.46,-84.64 35.74,-106.6 48.89,-160.29 z m -4.5,-62.27 c -26.54,93.22 -102.58,351.31 -146.91,351.31 h -13.47 v 13.47 h 17.77 c 9.19,0 13.18,0 17.68,-4.5 h 22.35 22.24 c 9.11,4.5 13.58,4.5 17.68,4.5 h 18.36 v -13.47 h -13.67 c -22.37,0 -22.37,-17.88 -22.37,-31.26 0,-22.15 17.68,-57.57 26.65,-79.64 22.57,4.61 49.02,4.61 80.26,4.61 13.35,0 26.84,-4.61 35.61,-4.61 17.97,44.14 40.32,110.9 9.08,110.9 h -13.26 v 13.47 h 13.26 c 8.89,0 17.57,0 22.07,-4.5 h 31.43 17.66 c 8.99,4.5 13.38,4.5 22.46,4.5 h 17.68 v -13.47 h -13.49 c -26.65,0 -57.97,-44.33 -151.3,-355.41 z m -329.44,182.45 c 8.68,-4.22 17.37,-4.22 26.65,-4.22 66.68,0 102.21,35.45 102.21,84.25 0,44.5 -13.3,88.83 -75.45,88.83 -58.11,0 -53.41,-26.56 -53.41,-84.25 z m 0,-61.99 c 0,-35.84 0,-76.04 4.3,-98.11 h 35.62 c 35.53,0 57.99,39.92 57.99,70.87 0,44.7 -40.23,75.65 -97.91,71.54 z m -40.51,137.63 c 0,39.81 0,93.22 -26.46,93.22 h -13.38 v 13.47 h 22.38 c 31.03,0 26.82,-9 66.65,-4.5 22.07,4.5 35.42,8.88 53.39,8.88 75.65,0 111.49,-53.58 111.49,-102.1 0,-79.95 -75.65,-98.19 -106.99,-98.19 h -8.89 v -4.11 c 48.92,-4.38 80.04,-40.2 80.04,-80.14 0,-30.93 -17.86,-79.84 -88.81,-79.84 -48.91,0 -53.61,8.6 -80.06,8.6 -17.97,0 -17.97,-8.6 -49.2,-4.5 v 13.47 h 13.38 c 31.35,0 26.46,48.91 26.46,80.15 z m -356.01,-168.86 c 8.8,-62.38 40.23,-62.38 84.53,-62.38 h 31.15 v 244.31 c 0,35.82 0,80.15 -26.34,80.15 h -13.69 v 13.47 h 22.26 17.77 c 8.97,-4.5 18.07,-4.5 22.54,-4.5 8.6,0 12.68,0 22.07,4.5 h 22.35 17.88 v -13.47 h -13.3 c -31.12,0 -31.12,-53.41 -31.12,-80.15 v -244.31 h 40.01 c 30.95,0 80.14,-9 66.88,62.38 h 17.37 c 9.28,-53.5 9.28,-75.85 9.28,-89.23 -31.35,4.78 -67.17,8.88 -151.42,8.88 -26.84,0 -80.34,0 -138.22,-8.88 -4.47,22.35 -4.47,22.35 -17.97,89.23 z m -44.5,13.27 v -13.27 c 0,-17.97 4.49,-62.38 4.49,-80.35 h -22.37 c -57.77,0 -48.81,-8.88 -102.5,-8.88 -115.65,0 -196.2,84.62 -196.2,187.11 0,110.79 93.82,186.55 200.7,186.55 98,0 111.38,-35.42 133.44,-84.64 h -17.56 c -17.88,35.73 -58.2,62.29 -115.88,62.29 -75.74,0 -151.5,-62.29 -151.5,-164.2 0,-106.96 66.88,-169.26 133.93,-169.26 35.45,0 115.57,0 119.78,84.65 z m -521.37,79.95 h 31.54 c 22.15,0 97.61,4.66 97.61,84.61 0,52.99 -31.04,84.25 -79.95,84.25 -53.5,0 -49.2,-31.26 -49.2,-62.29 z m -79.75,-160.1 h 13.18 c 31.04,0 26.65,44.42 26.65,88.83 v 151.3 c 0,39.92 -4.41,88.83 -31.26,88.83 h -8.57 v 13.47 h 22.35 c 21.87,0 26.25,-4.5 48.91,-4.5 8.49,0 17.85,0 22.07,4.5 13.66,0 31.03,4.38 44.7,4.38 75.65,0 115.68,-58.08 115.68,-115.56 0,-62.38 -62.38,-88.84 -129.35,-88.84 -13.07,0 -31.03,4.11 -44.61,4.11 v -70.87 c 0,-39.92 0,-75.65 31.54,-75.65 h 8.77 v -13.47 h -17.85 -22.46 c -4.3,0 -13.27,4.5 -17.68,4.5 -4.47,0 -13.47,-4.5 -22.24,-4.5 h -17.48 -22.35 z m -209.3,-17.57 c -13.55,39.64 -17.85,66.48 -57.96,173.45 -40.03,119.67 -58.08,173.08 -93.73,173.08 h -13.07 v 13.47 h 13.07 c 9.08,0 13.47,0 22.35,-4.5 h 22.38 22.04 c 9.28,4.5 13.38,4.5 22.54,4.5 h 17.69 v -13.47 h -13.27 c -17.68,0 -17.68,-17.88 -17.68,-26.56 0,-26.85 13.26,-48.8 44.41,-142.3 17.68,-57.89 26.34,-84.45 31.23,-120.18 8.69,44.33 48.92,146.91 57.89,178.14 30.95,79.64 39.83,110.9 0,110.9 H 6823 v 13.47 h 13.47 c 8.88,0 13.26,0 22.15,-4.5 h 22.35 26.84 c 9,4.5 17.49,4.5 26.85,4.5 h 13.07 v -13.47 h -8.88 c -26.85,0 -44.81,-48.91 -57.88,-80.15 -31.24,-84.05 -44.5,-115.36 -93.62,-271.16 z m -374.34,271.17 c 0,26.45 0,75.36 -22.37,75.36 h -17.54 v 13.47 h 13.07 c 22.35,0 31.31,-4.5 62.66,-4.5 4.5,0 8.68,0 17.88,4.5 h 39.92 c 22.35,0 39.92,4.38 62.66,4.38 17.48,0 30.95,-8.88 44.11,-84.61 h -17.77 c -13.07,57.88 -44.59,62.26 -89,62.26 -35.85,0 -53.3,-4.38 -53.3,-70.86 v -84.73 l 35.42,-4.11 h 30.95 c 26.85,0 31.34,17.57 26.85,48.61 h 18.24 c 0,-39.53 0,-75.34 4.5,-106.38 h -13.86 c 0,35.42 -17.57,39.53 -35.73,39.53 h -35.03 -31.34 v -57.69 c 0,-26.56 0,-48.91 4.18,-79.83 h 62.19 c 40.51,0 40.51,17.45 40.51,35.42 0,4.49 0,17.85 -4.78,26.45 h 17.96 c 9.17,-30.95 17.66,-57.49 17.66,-84.34 -40.01,4.5 -66.77,4.5 -111.27,4.5 -39.92,0 -62.3,0 -106.68,-4.5 v 13.47 h 13.07 c 31.31,0 26.84,48.91 26.84,75.65 z m -355.89,-186.72 c 8.37,-62.38 44.39,-62.38 84.42,-62.38 h 30.95 v 244.31 c 0,35.82 0,80.15 -26.65,80.15 h -9.08 v 13.47 h 18.24 17.49 c 8.97,-4.5 17.85,-4.5 22.15,-4.5 9.36,0 13.78,0 22.46,4.5 h 22.15 18.17 v -13.47 h -13.67 c -31.06,0 -31.06,-53.41 -31.06,-80.15 v -244.31 h 40.03 c 31.23,0 80.34,-9 66.88,62.38 h 17.96 c 8.69,-53.5 8.69,-75.85 8.69,-89.23 -26.65,4.78 -66.88,8.88 -151.61,8.88 -26.57,0 -80.35,0 -137.52,-8.88 -5.09,22.35 -5.09,22.35 -17.77,89.23 z m -156.39,-26.96 c 17.85,58.19 35.81,93.53 53.69,160.29 h -31.46 -70.95 c 26.65,-84.64 35.73,-106.6 48.72,-160.29 z m 0,-62.27 c -26.57,93.22 -102.1,351.31 -151.33,351.31 h -8.57 v 13.47 h 17.57 c 4.58,0 13.18,0 17.65,-4.5 h 22.58 22.15 c 4.5,4.5 13.47,4.5 17.96,4.5 h 17.46 v -13.47 h -17.46 c -22.35,0 -17.96,-17.88 -17.96,-31.26 0,-22.15 17.96,-57.57 22.35,-79.64 26.54,4.61 53.38,4.61 84.73,4.61 13.38,0 22.46,-4.61 35.73,-4.61 17.57,44.14 39.72,110.9 8.69,110.9 h -13.27 v 13.47 h 13.27 c 4.38,0 13.38,0 22.34,-4.5 h 26.65 22.16 c 8.6,4.5 13.69,4.5 17.76,4.5 h 22.46 v -13.47 h -13.57 c -26.65,0 -62.19,-44.33 -151.5,-355.41 z m -543.04,8.88 c -4.58,57.89 -4.58,84.34 -13.27,182.34 -4.61,62.38 -9.19,160.09 -53.41,160.09 h -9.08 v 13.47 h 17.88 c 4.3,0 13.46,0 17.57,-4.5 h 22.43 22.27 c 4.38,4.5 13.18,4.5 17.96,4.5 h 17.48 v -13.47 h -8.48 c -26.96,0 -26.96,-31.26 -26.96,-44.33 0,-133.62 8.99,-35.82 8.99,-226.83 h 4.19 c 26.54,71.26 44.5,106.96 124.76,271.16 H 5496 c 53.7,-124.25 75.65,-146.63 124.57,-271.16 h 4.38 c -8.68,62.38 4.5,106.96 4.5,226.83 0,13.07 0,44.33 -22.15,44.33 h -13.47 v 13.47 h 22.44 c 4.3,0 8.68,0 17.68,-4.5 h 22.43 22.07 c 4.69,4.5 9.19,4.5 17.76,4.5 h 17.88 v -13.47 H 5701 c -31.04,0 -31.04,-80.15 -35.74,-115.59 0,-35.11 0,-26.54 -4.66,-106.38 -4.22,-71.26 -4.22,-93.61 -8.89,-129.34 l -17.76,4.78 c -107,257.7 -120.07,235.63 -133.53,297.62 H 5496 c -17.96,-66.68 -49.2,-97.72 -133.53,-302.4 z m -98.11,355.9 v -13.47 h -8.97 c -35.45,0 -30.75,-44.33 -30.75,-80.15 v -199.9 c 0,-8.99 0,-22.46 4.3,-71.26 l -17.68,4.78 c -209.78,275.35 -89.32,97.72 -258.49,315.27 0,-22.15 4.3,-70.95 4.3,-92.99 v -133.84 c 0,-35.14 -4.3,-70.87 26.84,-70.87 h 9 v -13.47 h -13.49 -22.35 c -8.57,4.5 -13.38,4.5 -22.35,4.5 -4.5,0 -13.47,0 -17.37,-4.5 h -22.55 -17.88 v 13.47 h 13.58 c 30.75,0 26.85,35.73 26.85,70.87 v 191.33 c 0,31.03 0,53.69 -4.7,89.11 l 22.07,-4.5 c 98,-102.1 209.57,-235.71 253.91,-306.89 h 4.47 c -8.58,35.73 -8.58,58.19 -8.58,93.53 v 111.26 c 0,39.92 0,84.25 -26.84,84.25 h -9 v 13.47 h 17.57 18.27 c 4.11,-4.5 13.38,-4.5 22.07,-4.5 18.05,0 18.05,4.5 39.92,4.5 z m -801.42,-342.43 h 13.39 c 26.53,0 26.53,35.73 26.53,80.15 v 164.56 c 0,30.84 0,84.25 -30.92,84.25 h -9 v 13.47 h 17.57 c 8.89,0 13.38,0 22.35,-4.5 h 17.68 22.24 c 4.41,4.5 13.58,4.5 18.28,4.5 h 17.45 v -13.47 h -8.88 c -26.85,0 -26.85,-44.33 -26.85,-84.25 v -79.95 c 26.85,4.11 75.85,4.11 111.69,4.11 31.15,0 79.95,0 111.07,-4.11 v 79.95 c 0,39.92 0,84.25 -31.12,84.25 h -9.08 v 13.47 h 18.05 c 8.88,0 13.38,0 17.88,-4.5 h 22.23 22.47 c 4.18,4.5 13.18,4.5 17.37,4.5 h 17.96 v -13.47 h -8.8 c -31.31,0 -26.53,-53.41 -26.53,-84.25 v -164.56 c 0,-44.42 -4.78,-80.15 26.53,-80.15 h 8.8 v -13.47 h -17.96 -17.37 c -9.28,0 -13.38,4.5 -22.47,4.5 -4.69,0 -13.26,-4.5 -17.96,-4.5 h -22.15 -18.05 v 13.47 h 9.08 c 31.12,0 31.12,35.73 31.12,80.15 v 62.26 c -26.65,4.11 -66.57,8.6 -111.07,8.6 -49.11,0 -89.54,-4.49 -111.69,-8.6 v -62.26 c 0,-44.42 0,-80.15 26.85,-80.15 h 13.58 v -13.47 h -18.28 -22.15 c -8.57,0 -13.07,4.5 -22.24,4.5 -4.1,0 -12.87,-4.5 -17.68,-4.5 h -22.35 -17.57 z m -26.84,342.43 v -13.47 h -8.97 c -35.45,0 -26.65,-44.33 -26.65,-80.15 v -199.9 -71.26 l -17.77,4.78 c -204.71,275.35 -84.64,97.72 -253.91,315.27 h -4.49 c 0,-22.15 4.49,-70.95 4.49,-92.99 v -133.84 c 0,-35.14 0,-70.87 26.85,-70.87 h 13.78 v -13.47 h -18.28 -22.35 c -4.49,4.5 -13.46,4.5 -17.56,4.5 -9.09,0 -13.78,0 -22.35,-4.5 h -22.27 -13.58 v 13.47 h 9 c 31.34,0 26.85,35.73 26.85,70.87 v 191.33 89.11 l 22.35,-4.5 c 93.13,-102.1 209.09,-235.71 253.79,-306.89 -4.89,35.73 -4.89,58.19 -4.89,93.53 v 111.26 c 0,39.92 0,84.25 -26.63,84.25 h -13.18 v 13.47 h 17.77 17.85 c 9.08,-4.5 17.48,-4.5 22.15,-4.5 17.77,0 22.38,4.5 39.75,4.5 z m -511.89,0 v -13.47 h -18.36 c -30.95,0 -26.54,-48.91 -26.54,-93.22 v -231.24 c 4.47,-4.5 13.47,-4.5 17.96,-4.5 53.59,0 97.89,31.34 97.89,88.83 0,49.2 -30.84,89.43 -66.77,89.43 -9.16,0 -13.26,0 -22.54,-4.42 v 12.99 c 5.09,4.5 13.38,4.5 22.54,4.5 53.3,0 106.8,-40.32 106.8,-102.5 0,-53.1 -31.15,-102.3 -110.98,-102.3 -53.5,0 -44.9,4.5 -76.05,4.5 -13.38,0 -26.65,-4.5 -48.8,-4.5 v 13.47 c 44.22,-4.5 40.03,26.45 40.03,84.25 v 155.88 c 0,35.42 0,88.83 -26.85,88.83 h -13.18 v 13.47 h 22.15 c 4.78,0 8.57,0 17.88,-4.5 h 22.35 17.57 c 8.97,4.5 13.47,4.5 17.96,4.5 z m -409.99,0 v -13.47 h -13.38 c -31.23,0 -26.74,-53.41 -26.74,-88.83 v -231.13 h 209.1 v 222.25 c 0,44.3 4.78,97.71 -26.17,97.71 h -9.48 v 13.47 h 18.08 c 8.97,0 13.47,0 22.35,-4.5 h 22.07 18.05 c 4.58,4.5 13.46,4.5 17.88,4.5 h 17.73 v -13.47 h -8.96 c -31.15,0 -31.15,-57.4 -31.15,-97.71 v -155.6 c 0,-44.31 4.5,-80.15 44.61,-75.65 v -13.47 c -75.73,4.5 -146.99,4.5 -187.22,4.5 -40.12,0 -111.38,0 -186.83,-4.5 v 13.47 c 39.91,-4.5 39.91,31.34 39.91,75.65 v 164.48 c 0,35.42 0,88.83 -26.53,88.83 h -13.38 v 13.47 h 22.06 c 4.78,0 13.35,0 17.85,-4.5 h 22.35 17.68 c 4.5,4.5 13.27,4.5 21.84,4.5 z m -320.56,-306.7 c 0,17.65 4.7,39.92 18.05,93.33 12.79,49.2 39.63,128.72 66.48,191.02 h -98.11 -84.65 c 26.65,-66.48 89.15,-244.43 89.15,-284.35 z m -164.59,386.85 c 4.1,-22.38 17.48,-53.7 26.45,-66.77 13.38,-13.38 35.64,-13.38 62.29,-13.38 H 3274 c 17.57,0 44.31,0 44.31,39.92 0,9.28 -4.27,26.33 -4.27,40.23 l 17.34,-4.5 c 13.58,-53.7 18.08,-75.65 22.57,-107 -13.77,4.81 -31.34,4.81 -44.81,4.81 -13.07,0 -13.07,0 -53.3,-106.6 -17.88,-53.41 -40.31,-107.08 -66.48,-235.74 l -27.13,4.1 c -13.38,58.08 -62.5,204.68 -80.15,249.1 -31.03,75.65 -31.03,89.14 -44.41,89.14 -8.97,0 -26.85,0 -35.42,-4.81 0,40.23 -4.5,71.27 -18.08,107 z m -222.85,-168.98 c 0,26.45 0,75.36 -22.15,75.36 h -17.97 v 13.47 h 13.47 c 17.88,0 31.15,-4.5 57.8,-4.5 8.97,0 13.07,0 17.96,4.5 h 44.31 c 17.85,0 40.31,4.38 58.08,4.38 22.15,0 35.33,-8.88 48.8,-84.61 h -17.77 c -13.35,57.88 -44.5,62.26 -89.11,62.26 -35.42,0 -53.3,-4.38 -53.3,-70.86 v -84.73 l 30.95,-4.11 h 35.81 c 26.85,0 31.15,17.57 26.85,48.61 h 17.77 c -4.59,-39.53 0,-75.34 4.58,-106.38 h -13.75 c 0,35.42 -17.57,39.53 -35.45,39.53 h -35.81 -30.95 v -57.69 c 0,-26.56 0,-48.91 4.1,-79.83 h 58.16 c 39.95,0 44.53,17.45 44.53,35.42 0,4.49 0,17.85 -4.58,26.45 h 17.85 c 9,-30.95 13.47,-57.49 17.88,-84.34 -44.33,4.5 -71.18,4.5 -111.29,4.5 -40.12,0 -66.77,0 -106.89,-4.5 v 13.47 h 13.47 c 31.15,0 26.65,48.91 26.65,75.65 z m -173.76,88.83 v -13.47 h -17.85 c -31.15,0 -31.15,-48.91 -31.15,-93.22 v -231.24 c 8.88,-4.5 17.85,-4.5 22.35,-4.5 53.3,0 97.72,31.34 97.72,88.83 0,49.2 -30.84,89.43 -71.07,89.43 -4.3,0 -13.47,0 -17.85,-4.42 v 12.99 c 4.38,4.5 13.55,4.5 22.15,4.5 49.2,0 106.8,-40.32 106.8,-102.5 0,-53.1 -35.45,-102.3 -111.1,-102.3 -58,0 -44.61,4.5 -80.15,4.5 -9.16,0 -22.54,-4.5 -44.61,-4.5 v 13.47 c 40.34,-4.5 40.34,26.45 40.34,84.25 v 155.88 c 0,35.42 0,88.83 -31.06,88.83 h -9.28 v 13.47 h 17.88 c 8.97,0 13.27,0 17.57,-4.5 h 22.74 21.96 c 4.49,4.5 13.46,4.5 17.96,4.5 z m -414.17,0 v -13.47 h -8.89 c -31.03,0 -26.84,-53.41 -26.84,-88.83 v -231.13 h 209.57 v 222.25 c 0,44.3 4.1,97.71 -26.85,97.71 h -13.46 v 13.47 h 22.46 c 4.39,0 13.35,0 21.95,-4.5 h 18.25 17.48 c 8.97,4.5 13.47,4.5 22.47,4.5 h 17.65 v -13.47 h -13.27 c -26.85,0 -26.85,-57.4 -26.85,-97.71 v -155.6 c 0,-44.31 0,-80.15 40.12,-75.65 v -13.47 c -75.85,4.5 -142.33,4.5 -187.03,4.5 -39.92,0 -111.29,0 -182.53,-4.5 v 13.47 c 35.62,-4.5 40.12,31.34 40.12,75.65 v 164.48 c 0,35.42 0,88.83 -31.15,88.83 h -8.97 v 13.47 h 18.05 c 8.69,0 13.47,0 22.07,-4.5 h 17.85 17.88 c 8.68,4.5 13.46,4.5 22.04,4.5 z"
   id="path43" />
   <path
   class="fil0"
   d="M 7801.43,9737.09 H 7824 c 0,76.64 18.45,158.57 82.13,376.04 53.98,189.94 167.57,498.22 276.26,747.43 -140.52,9.17 -222.28,9.17 -403.82,9.17 -149.6,0 -226.95,-4.7 -358.39,-9.17 99.62,-262.99 367.27,-964.9 381.25,-1123.47 z m -710.6,1416 c 51.71,-166.38 168.18,-201.72 354.11,-201.72 h 762.4 c 158.68,0 256.2,77.04 224.54,201.72 h 73.67 c 55.2,-206.21 37.83,-208.59 47.11,-314.99 -54.69,8.68 -140.72,13.58 -199.91,13.58 -54.71,0 -54.71,-9.08 -213.39,-421.28 -77.15,-213.28 -172.35,-426.05 -290.21,-920.09 l -118.48,4.81 c -54.09,235.24 -267.46,806.11 -335.64,983.04 -122.44,303.5 -126.94,357.79 -195.2,357.79 -27.05,0 -113.08,-13.35 -140.63,-17.85 -13.38,141.23 2.88,179.64 -37.52,314.99 z"
   id="path45" />
   <path
   class="fil0"
   d="m 6728.17,10575.31 v -666.19 c 0,-158.79 -13.98,-303.61 113.19,-303.61 h 49.99 v -58.68 h -77.15 c -27.13,0 -54.37,4.3 -81.73,8.89 -31.83,4.78 -63.57,4.78 -95.51,4.78 -22.35,0 -49.59,0 -76.64,-4.78 -32.05,-4.59 -68.18,-8.89 -95.62,-8.89 h -77.15 v 58.68 h 49.91 c 122.86,0 122.86,144.82 122.86,303.61 V 10172 c -104.62,13.66 -277.36,31.94 -476.67,31.94 -195.43,0 -367.66,-18.28 -472.08,-31.94 v -262.88 c 0,-158.79 0,-303.61 122.47,-303.61 h 50.3 v -58.68 h -77.43 c -32.06,0 -63.29,4.3 -95.34,8.89 -27.13,4.78 -54.57,4.78 -76.64,4.78 -32.34,0 -64.08,0 -95.71,-4.78 -27.04,-4.59 -54.6,-8.89 -81.93,-8.89 h -77.15 v 58.68 h 50.31 c 126.94,0 113.16,144.82 113.16,303.61 v 666.19 c 0,108.38 9.19,316.85 -117.66,316.85 h -50.5 v 59.19 h 86.62 c 26.97,0 50.11,-4.7 77.15,-9.28 31.63,-4.5 63.37,-8.97 90.82,-8.97 26.96,0 58.9,4.47 85.63,8.97 27.95,4.58 54.8,9.28 82.04,9.28 h 81.73 v -59.19 h -49.79 c -118.08,0 -118.08,-158.28 -118.08,-316.85 v -317.28 c 127.16,4.38 331.37,17.96 472.08,17.96 145.3,0 349.31,-13.58 476.67,-17.96 v 317.28 c 0,158.57 0,316.85 -118.08,316.85 h -50.3 v 59.19 h 81.64 c 27.44,0 54.69,-4.7 81.85,-9.28 27.52,-4.5 59.18,-8.97 86.42,-8.97 27.05,0 58.79,4.47 90.62,8.97 27.36,4.58 49.59,9.28 76.95,9.28 h 86.63 v -59.19 h -50.19 c -127.17,0 -117.69,-208.47 -117.69,-316.85 z"
   id="path47" />
   <path
   class="fil0"
   d="m 4499.75,10910.44 c -403.9,0 -594.61,-394.32 -594.61,-724.75 0,-493.84 335.84,-602.93 539.92,-602.93 304.21,0 571.59,294.62 571.59,706.9 0,371.68 -185.84,620.78 -516.9,620.78 z m -8.88,-1390.85 c -481.45,0 -785.63,312.78 -785.63,706.81 0,348.91 249.49,751.82 739.82,751.82 426.65,0 771.09,-280.75 771.09,-734.05 0,-353.32 -272.18,-724.58 -725.28,-724.58 z"
   id="path49" />
   <path
   class="fil0"
   d="m 2874.91,10742.87 v -996.84 c 226.55,9.19 476.55,172.26 476.55,503 0,317.28 -222.25,480.38 -476.55,493.84 z m -154.5,-8.99 c -290.23,-18.25 -471.77,-262.96 -471.77,-512.09 0,-240.13 154.21,-466.57 471.77,-475.76 z m 140.72,-1046.73 v -31.74 c 0,-81.45 67.98,-135.82 158.68,-135.82 h 45.72 v -58.9 h -72.76 c -27.33,0 -58.87,4.5 -86.23,8.99 -36.41,4.39 -72.54,4.39 -108.47,4.39 -105.01,0 -109.4,-13.38 -200.21,-13.38 h -77.06 v 58.9 h 54.6 c 90.92,0 154.1,67.75 154.1,135.82 v 31.74 c -349.62,-4.49 -666.7,199.2 -666.7,529.94 0,367.19 335.56,571.19 666.7,575.77 9.19,99.3 -49.91,185.33 -158.8,185.33 h -49.9 v 59.19 h 58.98 c 27.36,0 54.6,-4.39 81.45,-4.39 45.72,-4.89 86.34,-9.39 131.75,-9.39 45.49,0 86.63,4.5 131.83,9.39 27.33,0 49.51,4.39 72.57,4.39 h 68.15 v -59.19 h -40.91 c -158.99,0 -163.49,-140.12 -163.49,-185.33 245.31,-9.47 671.68,-113.27 671.68,-543.83 0,-271.84 -190.63,-539.22 -671.68,-561.88 z"
   id="path51" />
  </g>
 </g>
</svg>
