<svg width="352" height="22" viewBox="0 0 352 22" fill="none" xmlns="http://www.w3.org/2000/svg">
<path d="M0.292892 12.2929C-0.0976315 12.6834 -0.0976315 13.3166 0.292892 13.7071L6.65685 20.0711C7.04738 20.4616 7.68054 20.4616 8.07107 20.0711C8.46159 19.6805 8.46159 19.0474 8.07107 18.6569L2.41421 13L8.07107 7.34315C8.46159 6.95262 8.46159 6.31946 8.07107 5.92893C7.68054 5.53841 7.04738 5.53841 6.65685 5.92893L0.292892 12.2929ZM16 12L0.999999 12V14L16 14V12Z" fill="#6068F1"/>
<path d="M35.12 13.1H32.52V19H29.96V5H32.52V10.86H35.2L39.22 5H41.98L37.2 11.78L42.16 19H39.22L35.12 13.1ZM47.7616 8.2C49.3349 8.2 50.5349 8.58 51.3616 9.34C52.2016 10.0867 52.6216 11.22 52.6216 12.74V19H50.2616V17.7C49.9549 18.1667 49.5149 18.5267 48.9416 18.78C48.3816 19.02 47.7016 19.14 46.9016 19.14C46.1016 19.14 45.4016 19.0067 44.8016 18.74C44.2016 18.46 43.7349 18.08 43.4016 17.6C43.0816 17.1067 42.9216 16.5533 42.9216 15.94C42.9216 14.98 43.2749 14.2133 43.9816 13.64C44.7016 13.0533 45.8282 12.76 47.3616 12.76H50.1216V12.6C50.1216 11.8533 49.8949 11.28 49.4416 10.88C49.0016 10.48 48.3416 10.28 47.4616 10.28C46.8616 10.28 46.2682 10.3733 45.6816 10.56C45.1082 10.7467 44.6216 11.0067 44.2216 11.34L43.2416 9.52C43.8016 9.09333 44.4749 8.76667 45.2616 8.54C46.0482 8.31333 46.8816 8.2 47.7616 8.2ZM47.4216 17.32C48.0482 17.32 48.6016 17.18 49.0816 16.9C49.5749 16.6067 49.9216 16.1933 50.1216 15.66V14.42H47.5416C46.1016 14.42 45.3816 14.8933 45.3816 15.84C45.3816 16.2933 45.5616 16.6533 45.9216 16.92C46.2816 17.1867 46.7816 17.32 47.4216 17.32ZM61.4952 8.84C62.5085 8.84 63.4018 9.06 64.1752 9.5C64.9485 9.92667 65.5485 10.5267 65.9752 11.3C66.4152 12.0733 66.6352 12.96 66.6352 13.96C66.6352 14.9867 66.3952 15.9 65.9152 16.7C65.4352 17.4867 64.7618 18.1 63.8952 18.54C63.0285 18.98 62.0418 19.2 60.9352 19.2C59.0818 19.2 57.6485 18.5867 56.6352 17.36C55.6218 16.1333 55.1152 14.3667 55.1152 12.06C55.1152 9.91333 55.5752 8.21333 56.4952 6.96C57.4152 5.70667 58.8218 4.88 60.7152 4.48L65.6752 3.42L66.0352 5.66L61.5352 6.58C60.2418 6.84667 59.2752 7.3 58.6352 7.94C57.9952 8.58 57.6218 9.48 57.5152 10.64C57.9952 10.0667 58.5752 9.62667 59.2552 9.32C59.9352 9 60.6818 8.84 61.4952 8.84ZM60.9952 17.18C61.9152 17.18 62.6552 16.8867 63.2152 16.3C63.7885 15.7 64.0752 14.94 64.0752 14.02C64.0752 13.1 63.7885 12.36 63.2152 11.8C62.6552 11.24 61.9152 10.96 60.9952 10.96C60.0618 10.96 59.3085 11.24 58.7352 11.8C58.1618 12.36 57.8752 13.1 57.8752 14.02C57.8752 14.9533 58.1618 15.7133 58.7352 16.3C59.3218 16.8867 60.0752 17.18 60.9952 17.18ZM69.055 8.32H71.555V15.36L77.455 8.32H79.735V19H77.235V11.96L71.355 19H69.055V8.32ZM83.098 8.32H85.598V12.66H90.978V8.32H93.478V19H90.978V14.78H85.598V19H83.098V8.32ZM106.828 13.72C106.828 13.8933 106.815 14.14 106.788 14.46H98.4084C98.5551 15.2467 98.9351 15.8733 99.5484 16.34C100.175 16.7933 100.948 17.02 101.868 17.02C103.042 17.02 104.008 16.6333 104.768 15.86L106.108 17.4C105.628 17.9733 105.022 18.4067 104.288 18.7C103.555 18.9933 102.728 19.14 101.808 19.14C100.635 19.14 99.6018 18.9067 98.7084 18.44C97.8151 17.9733 97.1218 17.3267 96.6284 16.5C96.1484 15.66 95.9084 14.7133 95.9084 13.66C95.9084 12.62 96.1418 11.6867 96.6084 10.86C97.0884 10.02 97.7484 9.36667 98.5884 8.9C99.4284 8.43333 100.375 8.2 101.428 8.2C102.468 8.2 103.395 8.43333 104.208 8.9C105.035 9.35333 105.675 10 106.128 10.84C106.595 11.6667 106.828 12.6267 106.828 13.72ZM101.428 10.2C100.628 10.2 99.9484 10.44 99.3884 10.92C98.8418 11.3867 98.5084 12.0133 98.3884 12.8H104.448C104.342 12.0267 104.015 11.4 103.468 10.92C102.922 10.44 102.242 10.2 101.428 10.2ZM117.632 10.44H113.892V19H111.392V10.44H107.632V8.32H117.632V10.44ZM128.953 8.2C130.526 8.2 131.726 8.58 132.553 9.34C133.393 10.0867 133.813 11.22 133.813 12.74V19H131.453V17.7C131.146 18.1667 130.706 18.5267 130.133 18.78C129.573 19.02 128.893 19.14 128.093 19.14C127.293 19.14 126.593 19.0067 125.993 18.74C125.393 18.46 124.926 18.08 124.593 17.6C124.273 17.1067 124.113 16.5533 124.113 15.94C124.113 14.98 124.466 14.2133 125.173 13.64C125.893 13.0533 127.02 12.76 128.553 12.76H131.313V12.6C131.313 11.8533 131.086 11.28 130.633 10.88C130.193 10.48 129.533 10.28 128.653 10.28C128.053 10.28 127.46 10.3733 126.873 10.56C126.3 10.7467 125.813 11.0067 125.413 11.34L124.433 9.52C124.993 9.09333 125.666 8.76667 126.453 8.54C127.24 8.31333 128.073 8.2 128.953 8.2ZM128.613 17.32C129.24 17.32 129.793 17.18 130.273 16.9C130.766 16.6067 131.113 16.1933 131.313 15.66V14.42H128.733C127.293 14.42 126.573 14.8933 126.573 15.84C126.573 16.2933 126.753 16.6533 127.113 16.92C127.473 17.1867 127.973 17.32 128.613 17.32ZM148.307 16.88V21.38H145.967V19H137.727V21.38H135.407V16.88H135.907C136.587 16.8533 137.047 16.42 137.287 15.58C137.54 14.7267 137.707 13.5267 137.787 11.98L137.927 8.32H146.727V16.88H148.307ZM140.067 12.16C140.013 13.3867 139.913 14.3867 139.767 15.16C139.62 15.9333 139.353 16.5067 138.967 16.88H144.227V10.44H140.127L140.067 12.16ZM161.039 19V11.92L157.439 17.88H156.359L152.819 11.9V19H150.539V8.32H153.159L156.959 15L160.939 8.32H163.279L163.299 19H161.039ZM166.653 8.32H169.153V15.36L175.053 8.32H177.333V19H174.833V11.96L168.953 19H166.653V8.32ZM180.696 8.32H183.196V12.66H188.576V8.32H191.076V19H188.576V14.78H183.196V19H180.696V8.32ZM198.406 8.2C199.979 8.2 201.179 8.58 202.006 9.34C202.846 10.0867 203.266 11.22 203.266 12.74V19H200.906V17.7C200.599 18.1667 200.159 18.5267 199.586 18.78C199.026 19.02 198.346 19.14 197.546 19.14C196.746 19.14 196.046 19.0067 195.446 18.74C194.846 18.46 194.379 18.08 194.046 17.6C193.726 17.1067 193.566 16.5533 193.566 15.94C193.566 14.98 193.919 14.2133 194.626 13.64C195.346 13.0533 196.473 12.76 198.006 12.76H200.766V12.6C200.766 11.8533 200.539 11.28 200.086 10.88C199.646 10.48 198.986 10.28 198.106 10.28C197.506 10.28 196.913 10.3733 196.326 10.56C195.753 10.7467 195.266 11.0067 194.866 11.34L193.886 9.52C194.446 9.09333 195.119 8.76667 195.906 8.54C196.693 8.31333 197.526 8.2 198.406 8.2ZM198.066 17.32C198.693 17.32 199.246 17.18 199.726 16.9C200.219 16.6067 200.566 16.1933 200.766 15.66V14.42H198.186C196.746 14.42 196.026 14.8933 196.026 15.84C196.026 16.2933 196.206 16.6533 196.566 16.92C196.926 17.1867 197.426 17.32 198.066 17.32Z" fill="#6068F1"/>
</svg>
