<svg xmlns="http://www.w3.org/2000/svg" viewBox="0 0 1400 980" version="1.1" id="svg332">
	<style>
		#g497 {
			animation: spin 15s linear infinite;
		}
		@keyframes spin {
			from {
				transform: translateY(20px) translateY(1%)
						   translateX(850px)
						   translateY(400px)
						   rotate(0turn)
				           translateY(20px) translateY(1%)
				           rotate(1turn)
			}
			to {
				transform: translateY(20px) translateY(1%)
						   translateX(850px)
						   translateY(400px)
						   rotate(1turn)
				           translateY(20px) translateY(1%)
				           rotate(0turn);
			}
		}

		#g354 {
			animation: cyan_back 20s cubic-bezier(.86,.61,.48,.9) infinite;
		}
		@keyframes cyan_back {
			0%   { transform: translate(-100px, -100px); opacity: 0; }
			10%  { opacity: 1; }
			20%  { opacity: 1; }
			50%  { transform: translate( 300px,  300px); opacity: 0; }
			100% { transform: translate( 300px,  300px); opacity: 0; }
		}

		#g350 {
			animation: white_front 4s cubic-bezier(.86,.61,.48,.9) infinite;
		}
		@keyframes white_front {
			0%   { transform: translate(-80px, -80px); opacity: 0; }
			10%  { opacity: 1; }
			30%  { opacity: 1; }
			40%  { opacity: .8; }
			50%  { transform: translate( 200px,  200px); opacity: 0; }
			100% { transform: translate( 200px,  200px); opacity: 0; }
		}

		#g346 {
			animation: yellow_front 6s cubic-bezier(.86,.61,.48,.9) infinite;
		}
		@keyframes yellow_front {
			0%   { transform: translate(-30px, -30px); opacity: 0; }
			10%  { opacity: 1; }
			30%  { opacity: 1; }
			40%  { opacity: .8; }
			50%  { transform: translate( 180px,  180px); opacity: 0; }
			100% { transform: translate( 180px,  180px); opacity: 0; }
		}

		#g342 {
			animation: cyan_front 12s cubic-bezier(.86,.61,.48,.9) infinite;
		}
		@keyframes cyan_front {
			0%   { transform: translate(-100px, -100px); opacity: 0; }
			10%  { opacity: 1; }
			20%  { opacity: 1; }
			50%  { transform: translate( 80px,  80px); opacity: 0; }
			100% { transform: translate( 80px,  80px); opacity: 0; }
		}
	</style>
	<path fill="#060028" d="M0 0h1400v980H0z" id="path2"/><style id="style4"/><linearGradient id="a" gradientUnits="userSpaceOnUse" x1="290.249" y1="2295.753" x2="290.249" y2="2121.998" gradientTransform="rotate(-45.001 -1296.308 204.507)"><stop offset="0" stop-color="#09bae3" id="stop6"/><stop offset=".098" stop-color="#248caf" id="stop8"/><stop offset=".217" stop-color="#266383" id="stop10"/><stop offset=".339" stop-color="#204463" id="stop12"/><stop offset=".463" stop-color="#182e4c" id="stop14"/><stop offset=".589" stop-color="#121c3c" id="stop16"/><stop offset=".719" stop-color="#0c0b31" id="stop18"/><stop offset=".853" stop-color="#07002a" id="stop20"/><stop offset="1" stop-color="#060028" id="stop22"/></linearGradient><g style="animation:cyan_front 12s cubic-bezier(.86,.61,.48,.9) infinite"><path fill="url(#a)" d="M1163.9 444.9l117.3 117.3c6.6 6.6 17.3 6.6 23.9 0 6.6-6.6 6.6-17.3 0-23.9L1187.8 421z" id="path25"/><circle fill="#09bae3" cx="1293.6" cy="550.4" r="13.5" id="circle27"/></g><linearGradient id="b" gradientUnits="userSpaceOnUse" x1="-315.086" y1="1675.111" x2="-315.086" y2="1489.249" gradientTransform="rotate(-45.001 -1296.308 204.507)"><stop offset="0" stop-color="#fff" id="stop29"/><stop offset=".116" stop-color="#a8a4b3" id="stop31"/><stop offset=".232" stop-color="#736d83" id="stop33"/><stop offset=".352" stop-color="#4e4862" id="stop35"/><stop offset=".474" stop-color="#352f4b" id="stop37"/><stop offset=".597" stop-color="#221c3b" id="stop39"/><stop offset=".724" stop-color="#140b31" id="stop41"/><stop offset=".856" stop-color="#0a002a" id="stop43"/><stop offset="1" stop-color="#060028" id="stop45"/></linearGradient><g style="animation:white_front 4s cubic-bezier(.86,.61,.48,.9) infinite"><path fill="url(#b)" d="M287.2 426l125.4 125.4c7.1 7.1 18.5 7.1 25.6 0 7.1-7.1 7.1-18.5 0-25.6L312.8 400.4z" id="path48"/><circle fill="#fff" cx="426" cy="538.8" r="14.4" id="circle50"/></g><path fill="#0E0139" d="M0 153c41-5.9 84.1 1.6 120.2 22.1 42.3 24.1 77.5 65.4 125.9 70.8 20.8 2.3 41.7-2.5 62.1-7.4 36.1-8.5 72.2-17.1 108.4-25.6 36.5-8.6 75-17.2 110.9-6.6 32.3 9.6 58.1 33.4 86.8 51.1 60.5 37.3 137.4 46.8 205.1 25.4 84-26.5 149.6-95.9 234.1-120.7 112.2-33 229.9 18.6 346.6 27.9V0H0v153z" id="path52"/><path fill="#00001E" d="M1400 603.3c-2.4-.6-4.8-1.1-7.2-1.6-113-24.6-231.9-34.6-343.5-4.1-76.8 21-147.1 60.2-220.2 91.8-73.1 31.6-152.8 55.9-231.6 44.5-100.9-14.7-183.4-84.7-272.9-133.5-99.1-54.3-211.7-83.2-324.6-84.7V980h1400V603.3z" id="path54"/><path opacity=".1" fill="#FFF" d="M1400 777.7c-48.5-.9-97.3 1.4-143.8 14.9-66.4 19.4-124.2 60.7-188.5 86.1-89.8 35.5-192 38.7-283.8 8.8C655.4 845.6 551.8 743.3 421 709c-46.2-12.1-94.3-15.2-142-16.3-47.9-1.1-96.5-.1-142.6 13.1-48.8 14-92.5 41.1-136.4 67V980h1400V777.7z" id="path56"/><linearGradient id="c" gradientUnits="userSpaceOnUse" x1="-148.145" y1="1952.026" x2="-148.145" y2="1858.052" gradientTransform="rotate(-45.001 -1296.308 204.507)"><stop offset="0" stop-color="#09bae3" id="stop58"/><stop offset=".098" stop-color="#248caf" id="stop60"/><stop offset=".217" stop-color="#266383" id="stop62"/><stop offset=".339" stop-color="#204463" id="stop64"/><stop offset=".463" stop-color="#182e4c" id="stop66"/><stop offset=".589" stop-color="#121c3c" id="stop68"/><stop offset=".719" stop-color="#0c0b31" id="stop70"/><stop offset=".853" stop-color="#07002a" id="stop72"/><stop offset="1" stop-color="#060028" id="stop74"/></linearGradient><g style="animation:cyan_back 20s cubic-bezier(.86,.61,.48,.9) infinite"><path fill="url(#c)" d="M675.3 565.3l63.4 63.4c3.6 3.6 9.4 3.6 12.9 0 3.6-3.6 3.6-9.4 0-12.9l-63.4-63.4z" id="path77"/><circle fill="#09bae3" cx="745.5" cy="622.4" r="7.3" id="circle79"/></g><path fill="#ABD7A3" d="M1005.4 740.1c-11.6 0-22.4-4.5-30.6-12.7-8.2-8.2-12.7-19-12.7-30.6 0-11.6 4.5-22.4 12.7-30.6 8.2-8.2 19-12.7 30.6-12.7s22.4 4.5 30.6 12.7c8.2 8.2 12.7 19 12.7 30.6 0 11.6-4.5 22.4-12.7 30.6-8.2 8.3-19 12.7-30.6 12.7z" opacity=".25" id="path81"/><path fill="#ABD7A3" d="M1005.4 736.2c-10.5 0-20.4-4.1-27.8-11.5-7.4-7.4-11.5-17.3-11.5-27.8s4.1-20.4 11.5-27.8c7.4-7.4 17.3-11.5 27.8-11.5s20.4 4.1 27.8 11.5c7.4 7.4 11.5 17.3 11.5 27.8s-4.1 20.4-11.5 27.8c-7.4 7.5-17.3 11.5-27.8 11.5z" opacity=".25" id="path83"/><path fill="#ABD7A3" d="M1005.4 732.3c-9.5 0-18.4-3.7-25.1-10.4-6.7-6.7-10.4-15.6-10.4-25.1s3.7-18.4 10.4-25.1c6.7-6.7 15.6-10.4 25.1-10.4 9.5 0 18.4 3.7 25.1 10.4 6.7 6.7 10.4 15.6 10.4 25.1s-3.7 18.4-10.4 25.1c-6.7 6.8-15.6 10.4-25.1 10.4z" opacity=".25" id="path85"/><circle fill="#ABD7A3" cx="1005.4" cy="696.9" r="31.2" id="circle87"/><path fill="#ABD7A3" d="M335.7 256.6c-8.8 0-17-3.4-23.2-9.6-6.2-6.2-9.6-14.5-9.6-23.2s3.4-17 9.6-23.2c6.2-6.2 14.5-9.6 23.2-9.6 8.8 0 17 3.4 23.2 9.6 6.2 6.2 9.6 14.5 9.6 23.2 0 8.8-3.4 17-9.6 23.2-6.1 6.2-14.4 9.6-23.2 9.6z" opacity=".25" id="path89"/><path fill="#ABD7A3" d="M335.7 253.7c-8 0-15.5-3.1-21.1-8.8-5.6-5.6-8.8-13.2-8.8-21.1 0-8 3.1-15.5 8.8-21.1 5.6-5.6 13.2-8.8 21.1-8.8 8 0 15.5 3.1 21.1 8.8 5.6 5.6 8.8 13.2 8.8 21.1 0 8-3.1 15.5-8.8 21.1-5.6 5.7-13.1 8.8-21.1 8.8z" opacity=".25" id="path91"/><path fill="#ABD7A3" d="M335.7 250.7c-7.2 0-14-2.8-19-7.9-5.1-5.1-7.9-11.9-7.9-19 0-7.2 2.8-14 7.9-19 5.1-5.1 11.9-7.9 19-7.9s14 2.8 19 7.9c5.1 5.1 7.9 11.9 7.9 19 0 7.2-2.8 14-7.9 19-5 5.1-11.8 7.9-19 7.9z" opacity=".25" id="path93"/><circle fill="#ABD7A3" cx="335.7" cy="223.8" r="23.7" id="circle95"/><path fill="#F15F4C" d="M148.3 239c-26.6 0-51.7-10.4-70.5-29.2C59 191 48.6 165.9 48.6 139.3S59 87.6 77.8 68.8c18.8-18.8 43.9-29.2 70.5-29.2S200 50 218.8 68.8c18.8 18.8 29.2 43.9 29.2 70.5s-10.4 51.7-29.2 70.5C200 228.6 174.9 239 148.3 239z" opacity=".25" id="path97"/><path fill="#F15F4C" d="M148.3 230c-24.2 0-47-9.4-64.2-26.6-17.1-17.1-26.6-39.9-26.6-64.2s9.4-47 26.6-64.2c17.2-17 39.9-26.5 64.2-26.5s47 9.4 64.2 26.6C229.6 92.3 239 115 239 139.3s-9.4 47-26.6 64.2c-17.1 17.1-39.9 26.5-64.1 26.5z" opacity=".25" id="path99"/><path fill="#F15F4C" d="M148.3 221c-21.8 0-42.4-8.5-57.8-23.9-15.4-15.4-23.9-36-23.9-57.8S75 96.9 90.5 81.5c15.4-15.4 36-23.9 57.8-23.9s42.4 8.5 57.8 23.9c15.4 15.4 23.9 36 23.9 57.8s-8.5 42.4-23.9 57.8c-15.5 15.4-36 23.9-57.8 23.9z" opacity=".25" id="path101"/><circle fill="#F15F4C" cx="148.3" cy="139.3" r="72" id="circle103"/><circle fill="#CE4131" cx="139.2" cy="93.3" r="7.3" id="circle105"/><circle fill="#CE4131" cx="176.5" cy="112.8" r="4.6" id="circle107"/><circle fill="#CE4131" cx="154.1" cy="137.9" r="16.2" id="circle109"/><circle fill="#CE4131" cx="187.6" cy="155.8" r="3.2" id="circle111"/><circle fill="#CE4131" cx="205.5" cy="123.9" r="7" id="circle113"/><circle fill="#CE4131" cx="132.7" cy="175.5" r="11.1" id="circle115"/><circle fill="#CE4131" cx="155.7" cy="195.8" r="3.8" id="circle117"/><circle fill="#CE4131" cx="168.7" cy="173.1" r="2.7" id="circle119"/><circle fill="#CE4131" cx="168.4" cy="88.5" r="4.6" id="circle121"/><circle fill="#CE4131" cx="109.8" cy="120.6" r="2.2" id="circle123"/><path fill="#F15F4C" d="M836.7 518.4c-7.6 0-14.8-3-20.2-8.4-5.4-5.4-8.4-12.6-8.4-20.2s3-14.8 8.4-20.2c5.4-5.4 12.6-8.4 20.2-8.4s14.8 3 20.2 8.4c5.4 5.4 8.4 12.6 8.4 20.2s-3 14.8-8.4 20.2c-5.4 5.4-12.6 8.4-20.2 8.4z" opacity=".25" id="path125"/><path fill="#F15F4C" d="M836.7 515.8c-6.9 0-13.5-2.7-18.4-7.6-4.9-4.9-7.6-11.4-7.6-18.4s2.7-13.5 7.6-18.4c4.9-4.9 11.4-7.6 18.4-7.6 6.9 0 13.5 2.7 18.4 7.6 4.9 4.9 7.6 11.4 7.6 18.4s-2.7 13.5-7.6 18.4c-4.9 4.9-11.5 7.6-18.4 7.6z" opacity=".25" id="path127"/><path fill="#F15F4C" d="M836.7 513.3c-6.3 0-12.1-2.4-16.6-6.9-4.4-4.4-6.9-10.3-6.9-16.6 0-6.3 2.4-12.1 6.9-16.6 4.4-4.4 10.3-6.9 16.6-6.9 6.3 0 12.1 2.4 16.6 6.9 4.4 4.4 6.9 10.3 6.9 16.6 0 6.3-2.4 12.1-6.9 16.6s-10.4 6.9-16.6 6.9z" opacity=".25" id="path129"/><circle fill="#F15F4C" cx="836.7" cy="489.8" r="20.6" id="circle131"/><circle fill="#CE4131" cx="834.1" cy="476.7" r="2.1" id="circle133"/><circle fill="#CE4131" cx="844.8" cy="482.2" r="1.3" id="circle135"/><circle fill="#CE4131" cx="838.3" cy="489.5" r="4.6" id="circle137"/><circle fill="#CE4131" cx="848" cy="494.6" r=".9" id="circle139"/><circle fill="#CE4131" cx="853.1" cy="485.4" r="2" id="circle141"/><circle fill="#CE4131" cx="832.2" cy="500.2" r="3.2" id="circle143"/><circle fill="#CE4131" cx="838.8" cy="506" r="1.1" id="circle145"/><circle fill="#CE4131" cx="842.5" cy="499.5" r=".8" id="circle147"/><circle fill="#CE4131" cx="842.5" cy="475.3" r="1.3" id="circle149"/><circle fill="#CE4131" cx="825.6" cy="484.5" r=".6" id="circle151"/><path fill="#E53A54" d="M1240 728.9c-17.4 0-33.8-6.8-46.1-19.1-12.3-12.3-19.1-28.7-19.1-46.1s6.8-33.8 19.1-46.1c12.3-12.3 28.7-19.1 46.1-19.1 17.4 0 33.8 6.8 46.1 19.1 12.3 12.3 19.1 28.7 19.1 46.1 0 17.4-6.8 33.8-19.1 46.1-12.2 12.3-28.6 19.1-46.1 19.1z" opacity=".25" id="path153"/><path fill="#E53A54" d="M1240 723c-15.9 0-30.8-6.2-42-17.4s-17.4-26.1-17.4-42c0-15.9 6.2-30.8 17.4-42s26.1-17.4 42-17.4 30.8 6.2 42 17.4 17.4 26.1 17.4 42c0 15.9-6.2 30.8-17.4 42-11.2 11.3-26.1 17.4-42 17.4z" opacity=".25" id="path155"/><path fill="#E53A54" d="M1240 717.2c-14.3 0-27.7-5.6-37.8-15.7-10.1-10.1-15.7-23.5-15.7-37.8s5.6-27.7 15.7-37.8c10.1-10.1 23.5-15.7 37.8-15.7s27.7 5.6 37.8 15.7c10.1 10.1 15.7 23.5 15.7 37.8s-5.6 27.7-15.7 37.8c-10 10.1-23.5 15.7-37.8 15.7z" opacity=".25" id="path157"/><circle fill="#E53A54" cx="1240" cy="663.7" r="47.1" id="circle159"/><path fill="#C42746" d="M1255.3 689.9c-8.7-5.6-19.9-6-30-3.9-4.3.9-8.7 2.3-12.2 5-2.3 1.7-4.3 4-6.3 6.1 3.4 3.4 7.2 6.2 11.5 8.4.7-.3 1.3-.5 2-.8 2.8-1.1 5.6-2.3 8.1-4.1 2.2-1.6 4-3.7 6.3-5.2 7.2-4.8 18.4-1.6 21.9 6.3.8 1.7 1.2 3.6 1.7 5.4 2.6-1.1 5.1-2.4 7.5-3.9-1.9-5.4-5.7-10.3-10.5-13.3zm31.6-30.8c-9.3-.2-18.6.2-27.2 3.5-9.6 3.7-18.1 10.9-28.4 11.4-8.7.4-17.5-4.8-21.3-12.7-.5-1.1-1-2.3-1.8-3.3-2.1-2.4-6.3-2.6-8.5-.2-1.3 1.4-1.9 3.4-3 5-1 1.3-2.3 2.3-3.8 2.9.4 8.5 3 16.4 7.2 23.1 2.9-2.4 6.5-3.8 9.9-5.3 5.3-2.1 10.6-4.3 16.3-5 8.7-1.1 18.2 1.2 25.8-3.1 2.9-1.6 5.2-4.1 7.8-6 6.6-4.8 15.5-6.4 23.3-4.2 1.2.3 2.4.8 3.6 1.2.1-.9.1-1.8.1-2.8.2-1.5.2-3 0-4.5zm-77.9-27c11.6 3.2 24.3 3.7 35.7-.3 4.7-1.7 9.2-4.1 14.1-4.8 4-.6 7.9-.2 11.7.8-3.5-3-7.4-5.4-11.7-7.3-8.1 2.1-15.8 5.9-23.8 8.4-8.5 2.7-18.6 3.5-26.4-.1-.9.8-1.7 1.6-2.5 2.5.9.2 1.9.5 2.9.8z" id="path161"/><path fill="#C42746" d="M1206 650.2c3.6-.8 7.1-2.1 10.8-1.8 7.7.5 13.7 7.2 21.3 8.9 13.5 3 25.3-10.6 39.1-11.3 2.3-.1 4.6.2 6.9.8-.7-1.9-1.6-3.8-2.6-5.6-3.3.1-6.6.4-9.9.9-11 1.9-22 6.5-32.8 3.9-6.1-1.5-11.6-5.3-17.8-5.6-4.2-.2-8.3 1.2-12.3 2.5-3.6 1.2-7.5 2.5-11.3 1.8h-.2c-1 2.3-1.9 4.7-2.5 7.1 3.7-.2 7.6-.7 11.3-1.6z" id="path163"/><path fill="#85CCAB" d="M1244.8 184.7c-13.7 0-26.6-5.3-36.2-15-9.7-9.7-15-22.5-15-36.2 0-13.7 5.3-26.6 15-36.2 9.7-9.7 22.5-15 36.2-15s26.6 5.3 36.2 15c9.7 9.7 15 22.5 15 36.2 0 13.7-5.3 26.6-15 36.2-9.7 9.7-22.6 15-36.2 15z" opacity=".25" id="path165"/><path fill="#85CCAB" d="M1244.8 180.1c-12.5 0-24.2-4.8-33-13.7-8.8-8.8-13.7-20.5-13.7-33s4.8-24.2 13.7-33c8.8-8.8 20.5-13.7 33-13.7s24.2 4.8 33 13.7c8.8 8.8 13.7 20.5 13.7 33s-4.8 24.2-13.7 33c-8.9 8.8-20.6 13.7-33 13.7z" opacity=".25" id="path167"/><path fill="#85CCAB" d="M1244.8 175.5c-11.2 0-21.8-4.4-29.7-12.3-7.9-7.9-12.3-18.5-12.3-29.7s4.4-21.8 12.3-29.7c7.9-7.9 18.5-12.3 29.7-12.3s21.8 4.4 29.7 12.3c7.9 7.9 12.3 18.5 12.3 29.7s-4.4 21.8-12.3 29.7c-8 7.9-18.5 12.3-29.7 12.3z" opacity=".25" id="path169"/><circle fill="#85CCAB" cx="1244.8" cy="133.5" r="37" id="circle171"/><path fill="#07BDE3" d="M1215.4 111c19.3-.4 38.6-.7 57.9-1.1-1-1.2-2-2.3-3.1-3.3-17.1.1-34.2.2-51.3.4-1.3 1.3-2.4 2.6-3.5 4zm59.3 44.2c-19.9 0-39.9.1-59.8.1 2 2.8 4.5 5.3 7.2 7.4 15.4-.1 30.9-.3 46.3-.7 2.4-2 4.5-4.3 6.3-6.8zm-63-5.2c13.1-.6 26.3-1.2 39.4-1.8 2.8-.1 5.6-.3 8.4-.4 6.6-.3 13.2-.6 19.7-.9.4-1 .7-1.9 1-2.9-23.5.4-47 .7-70.6 1.1.6 1.7 1.3 3.3 2.1 4.9zm-2-28.4c-1 2.9-1.6 6-1.9 9.2h73.8c-.2-3.2-.9-6.3-1.9-9.2h-70zm72 11.5c-24.6 1.7-49.3 2.5-73.9 2.5 0 .6.1 1.2.1 1.8 24.5-.3 49-.2 73.5.4.2-1.4.3-2.9.3-4.4v-.3z" id="path173"/><path opacity=".25" fill="#FFCE40" d="M1038.7 495c-38.3 0-74.4-14.9-101.5-42-27.1-27.1-42-63.1-42-101.5s14.9-74.4 42-101.5c27.1-27.1 63.1-42 101.5-42s74.4 14.9 101.5 42c27.1 27.1 42 63.1 42 101.5 0 38.3-14.9 74.4-42 101.5-27.1 27.1-63.2 42-101.5 42z" id="path175"/><path opacity=".25" fill="#FFCE40" d="M1038.7 482c-34.9 0-67.6-13.6-92.3-38.2-24.7-24.7-38.2-57.4-38.2-92.3s13.6-67.6 38.2-92.3c24.7-24.7 57.4-38.2 92.3-38.2s67.6 13.6 92.3 38.2c24.7 24.7 38.2 57.4 38.2 92.3s-13.6 67.6-38.2 92.3c-24.6 24.7-57.4 38.2-92.3 38.2z" id="path177"/><path opacity=".25" fill="#FFCE40" d="M1038.7 469.1c-31.4 0-60.9-12.2-83.1-34.4-22.2-22.2-34.4-51.7-34.4-83.1s12.2-60.9 34.4-83.1c22.2-22.2 51.7-34.4 83.1-34.4 31.4 0 60.9 12.2 83.1 34.4 22.2 22.2 34.4 51.7 34.4 83.1s-12.2 60.9-34.4 83.1c-22.1 22.2-51.7 34.4-83.1 34.4z" id="path179"/><circle fill="#FFCE40" cx="1038.7" cy="351.5" r="103.6" id="circle181"/><path fill="#F1B286" d="M679.8 421.1c-34.8 23.5-76.7 32-117.9 24s-76.9-31.6-100.3-66.5c-23.5-34.8-32-76.7-24-117.9s31.6-76.9 66.5-100.3 76.7-32 117.9-24 76.9 31.6 100.3 66.5c23.5 34.8 32 76.7 24 117.9-8.1 41.1-31.7 76.8-66.5 100.3z" opacity=".25" id="path183"/><path fill="#F1B286" d="M671.9 409.3c-31.7 21.4-69.8 29.1-107.3 21.8-37.5-7.3-69.9-28.8-91.3-60.5-21.4-31.7-29.1-69.8-21.8-107.3 7.3-37.5 28.8-69.9 60.5-91.3 31.7-21.4 69.8-29.1 107.3-21.8 37.5 7.3 69.9 28.8 91.3 60.5 21.4 31.7 29.1 69.8 21.8 107.3-7.4 37.5-28.8 69.9-60.5 91.3z" opacity=".25" id="path185"/><path fill="#F1B286" d="M663.9 397.5c-28.5 19.2-62.9 26.2-96.7 19.6-33.8-6.6-63-25.9-82.2-54.5-19.2-28.5-26.2-62.9-19.6-96.7 6.6-33.8 25.9-63 54.5-82.2 28.5-19.2 62.9-26.2 96.7-19.6 33.8 6.6 63 25.9 82.2 54.5s26.2 62.9 19.6 96.7c-6.6 33.8-25.9 63-54.5 82.2z" opacity=".25" id="path187"/><circle fill="#F1B286" cx="591.9" cy="290.7" r="113.5" id="circle189"/><path fill="#EE975E" d="M541.9 392.6c14.1 6.9 29.5 10.8 45.1 11.5 37.3-25.3 74.7-50.6 112-76 5.2-14.9 7.2-30.7 6-46.5-55.4 34.8-107.9 75.2-163.1 111zm-62.6-116.3c-1.6 12.1-1.2 24.5 1.2 36.6 55.6-41.5 117.2-75.5 171.8-118.2-8.6-5.4-17.8-9.6-27.4-12.5-41 26.5-82.1 53-123.1 79.5-7.4 4.7-15 9.6-22.5 14.6zm11.3 65.5c2.1 4.2 4.5 8.3 7.2 12.3 5.6 8.4 12.2 15.8 19.5 22.1 59-42.9 123.6-79.2 182-122.4-3.2-9.2-7.6-18.2-13.3-26.6-2.2-3.3-4.5-6.4-7-9.3-63.1 40.7-122.3 88.6-188.4 123.9z" id="path191"/><path opacity=".55" fill="#F1B286" d="M813.1 233.8c-4.1-14.7-54-14.6-124.3-2.2 2.7 4.5 5.1 9.1 7.1 13.8 29.9-3 49.5-1 51.6 6.6 4.2 15.1-62.1 46.6-148.1 70.4-86 23.8-159 30.9-163.2 15.9-2.2-7.8 14.5-20 43.1-33.3-.6-5.1-.9-10.2-.9-15.3-67.9 25.9-111.8 51.9-107.7 66.7 5.9 21.4 109.8 11.3 231.9-22.5 122.2-33.8 216.4-78.7 210.5-100.1z" id="path193"/><path fill="#FFF" d="M917.6 103.5c-3.5-.6-6.3-3.4-6.9-6.9l-.8-4.6-.8 4.6c-.6 3.5-3.4 6.3-6.9 6.9l-4.6.8 4.6.8c3.5.6 6.3 3.4 6.9 6.9l.8 4.6.8-4.6c.6-3.5 3.4-6.3 6.9-6.9l4.6-.8-4.6-.8zm358.2 290.7c-3.5-.6-6.3-3.4-6.9-6.9l-.8-4.6-.8 4.6c-.6 3.5-3.4 6.3-6.9 6.9l-4.6.8 4.6.8c3.5.6 6.3 3.4 6.9 6.9l.8 4.6.8-4.6c.6-3.5 3.4-6.3 6.9-6.9l4.6-.8-4.6-.8z" id="path195"/><path fill="#FFFABE" d="M1347.9 65.2c-3.5-.6-6.3-3.4-6.9-6.9l-.8-4.6-.8 4.6c-.6 3.5-3.4 6.3-6.9 6.9l-4.6.8 4.6.8c3.5.6 6.3 3.4 6.9 6.9l.8 4.6.8-4.6c.6-3.5 3.4-6.3 6.9-6.9l4.6-.8-4.6-.8z" id="path197"/><path fill="#FFF" d="M1130.5 513.7c-3.5-.6-6.3-3.4-6.9-6.9l-.8-4.6-.8 4.6c-.6 3.5-3.4 6.3-6.9 6.9l-4.6.8 4.6.8c3.5.6 6.3 3.4 6.9 6.9l.8 4.6.8-4.6c.6-3.5 3.4-6.3 6.9-6.9l4.6-.8-4.6-.8zm-221 322.4c-3.5-.6-6.3-3.4-6.9-6.9l-.8-4.6-.8 4.6c-.6 3.5-3.4 6.3-6.9 6.9l-4.6.8 4.6.8c3.5.6 6.3 3.4 6.9 6.9l.8 4.6.8-4.6c.6-3.5 3.4-6.3 6.9-6.9l4.6-.8-4.6-.8zm286.3-416.7c-3.5-.6-6.3-3.4-6.9-6.9l-.8-4.6-.8 4.6c-.6 3.5-3.4 6.3-6.9 6.9l-4.6.8 4.6.8c3.5.6 6.3 3.4 6.9 6.9l.8 4.6.8-4.6c.6-3.5 3.4-6.3 6.9-6.9l4.6-.8-4.6-.8zm55.3 367.3c-3.5-.6-6.3-3.4-6.9-6.9l-.8-4.6-.8 4.6c-.6 3.5-3.4 6.3-6.9 6.9l-4.6.8 4.6.8c3.5.6 6.3 3.4 6.9 6.9l.8 4.6.8-4.6c.6-3.5 3.4-6.3 6.9-6.9l4.6-.8-4.6-.8zm-641 33.1c-3.5-.6-6.3-3.4-6.9-6.9l-.8-4.6-.8 4.6c-.6 3.5-3.4 6.3-6.9 6.9l-4.6.8 4.6.8c3.5.6 6.3 3.4 6.9 6.9l.8 4.6.8-4.6c.6-3.5 3.4-6.3 6.9-6.9l4.6-.8-4.6-.8z" id="path199"/><path fill="#FFCE40" d="M442.1 152.5c-3.9-.7-7-3.7-7.7-7.7l-.9-5.1-.9 5.1c-.7 3.9-3.7 7-7.7 7.7l-5.1.9 5.1.9c3.9.7 7 3.7 7.7 7.7l.9 5.1.9-5.1c.7-3.9 3.7-7 7.7-7.7l5.1-.9-5.1-.9z" id="path201"/><path fill="#B9E5FB" d="M832 368.6c-5.5-1-9.8-5.3-10.8-10.8l-1.3-7.2-1.3 7.2c-1 5.5-5.3 9.8-10.8 10.8l-7.2 1.3 7.2 1.3c5.5 1 9.8 5.3 10.8 10.8l1.3 7.2 1.3-7.2c1-5.5 5.3-9.8 10.8-10.8l7.2-1.3-7.2-1.3z" id="path203"/><path fill="#FFCE40" d="M1164 522.1c-5.5-1-9.8-5.3-10.8-10.8l-1.3-7.2-1.3 7.2c-1 5.5-5.3 9.8-10.8 10.8l-7.2 1.3 7.2 1.3c5.5 1 9.8 5.3 10.8 10.8l1.3 7.2 1.3-7.2c1-5.5 5.3-9.8 10.8-10.8l7.2-1.3-7.2-1.3z" id="path205"/><path fill="#FFF" d="M1342.9 839.5c-5.5-1-9.8-5.3-10.8-10.8l-1.3-7.2-1.3 7.2c-1 5.5-5.3 9.8-10.8 10.8l-7.2 1.3 7.2 1.3c5.5 1 9.8 5.3 10.8 10.8l1.3 7.2 1.3-7.2c1-5.5 5.3-9.8 10.8-10.8l7.2-1.3-7.2-1.3zM943.1 176.3c-2.6-.5-4.7-2.5-5.2-5.2l-.6-3.5-.6 3.5c-.5 2.6-2.5 4.7-5.2 5.2l-3.5.6 3.5.6c2.6.5 4.7 2.5 5.2 5.2l.6 3.5.6-3.5c.5-2.6 2.5-4.7 5.2-5.2l3.5-.6-3.5-.6z" id="path207"/><path fill="#00B3B6" d="M90.7 366.2c-8.2-1.4-14.6-7.8-16-16l-1.9-10.7-1.8 10.6c-1.4 8.2-7.8 14.6-16 16L44.2 368l10.7 1.9c8.2 1.4 14.6 7.8 16 16l1.9 10.7 1.9-10.7c1.4-8.2 7.8-14.6 16-16l10.7-1.9-10.7-1.8z" id="path209"/><path fill="#B9E5FB" d="M811.5 932.9c-8.2-1.4-14.6-7.8-16-16l-1.9-10.7-1.9 10.7c-1.4 8.2-7.8 14.6-16 16l-10.7 1.9 10.7 1.9c8.2 1.4 14.6 7.8 16 16l1.9 10.7 1.9-10.7c1.4-8.2 7.8-14.6 16-16l10.7-1.9-10.7-1.9z" id="path211"/><path fill="#FFFABE" d="M591.9 887.9c-8.2-1.4-14.6-7.8-16-16l-1.9-10.7-1.9 10.7c-1.4 8.2-7.8 14.6-16 16l-10.7 1.9 10.7 1.9c8.2 1.4 14.6 7.8 16 16l1.9 10.7 1.9-10.7c1.4-8.2 7.8-14.6 16-16l10.7-1.9-10.7-1.9z" id="path213"/><path fill="#FFF" d="M645.3 502.1c-5.2-.9-9.4-5-10.3-10.3l-1.2-6.9-1.2 6.9c-.9 5.2-5 9.4-10.3 10.3l-6.9 1.2 6.9 1.2c5.2.9 9.4 5 10.3 10.3l1.2 6.9 1.2-6.9c.9-5.2 5-9.4 10.3-10.3l6.9-1.2-6.9-1.2z" id="path215"/><path fill="#B9E5FB" d="M549.2 723.6c-5.2-.9-9.4-5-10.3-10.3l-1.2-6.9-1.2 6.9c-.9 5.2-5 9.4-10.3 10.3l-6.9 1.2 6.9 1.2c5.2.9 9.4 5 10.3 10.3l1.2 6.9 1.2-6.9c.9-5.2 5-9.4 10.3-10.3l6.9-1.2-6.9-1.2z" id="path217"/><linearGradient id="d" gradientUnits="userSpaceOnUse" x1="-217.841" y1="2094.843" x2="-217.841" y2="1674.844" gradientTransform="rotate(-45.001 -1296.308 204.507)"><stop offset="0" stop-color="#fff200" id="stop219"/><stop offset=".116" stop-color="#ae9e3f" id="stop221"/><stop offset=".232" stop-color="#766b46" id="stop223"/><stop offset=".352" stop-color="#504841" id="stop225"/><stop offset=".474" stop-color="#35303a" id="stop227"/><stop offset=".597" stop-color="#221c33" id="stop229"/><stop offset=".724" stop-color="#140c2d" id="stop231"/><stop offset=".856" stop-color="#090029" id="stop233"/><stop offset="1" stop-color="#060028" id="stop235"/></linearGradient><g style="animation:yellow_front 6s cubic-bezier(.86,.61,.48,.9) infinite"><path fill="url(#d)" d="M463.6 497.1L747 780.5c16 16 41.9 16 57.8 0 16-16 16-41.9 0-57.8L521.4 439.2z" id="path238"/><circle fill="#fbb040" cx="777.1" cy="752.1" r="32.6" id="circle240"/></g><path opacity=".25" fill="#1C7BA5" d="M465.2 980c31.3-52.7 48.1-113.1 48.1-176 0-92.2-35.9-178.9-101.1-244.1-65.3-65.2-152-101.1-244.2-101.1-59.8 0-117.2 15.1-168 43.5V980h465.2z" id="path242"/><path opacity=".25" fill="#1C7BA5" d="M428.2 980c35-51.5 53.8-112.3 53.8-176 0-83.9-32.7-162.8-92-222.1-59.3-59.3-138.2-92-222.1-92-60.4 0-118.2 16.9-168 48.6V980h428.3z" id="path244"/><path opacity=".25" fill="#1C7BA5" d="M389.6 980c39.8-49.9 61.4-111.3 61.4-176 0-75.6-29.4-146.6-82.9-200.1C314.7 550.5 243.6 521 168 521c-61.3 0-119.6 19.4-168 55.2V980h389.6z" id="path246"/><path fill="#47C0BA" d="M344.4 980c45-45.1 72.8-107.3 72.8-176 0-137.6-111.6-249.2-249.2-249.2-64.7 0-123.7 24.7-168 65.1V980h344.4z" id="path248"/><path fill="#00B3B6" d="M363.5 649.5c-82.6 3.2-165.2 6.5-247.7 9.7-34.8 1.4-69.8 2.7-104.1-3.1-3.9-.7-7.8-1.4-11.7-2.3V734c20.2 10 40.7 18.3 62.9 18.6 22 .3 46.3-6.9 64.6 5.3 12.1 8.1 17.9 22.7 23 36.4 7.4 20 14.8 39.9 22.2 59.9 2.4 6.6 5.1 13.5 10.8 17.7 6.3 4.7 14.7 4.8 22.6 4.7 23.1-.4 46.5-1.5 68.5-8.6s42.6-21.1 53.2-41.6c13.9-26.9 13-66.1 40.9-77.8 14.1-5.9 28.8-1.5 43.4 4.8-8.1-38.7-25-74-48.6-103.9zM96.6 899.9c-4.5-4.9-10.7-8-15.6-12.6-21.6-20.3-8.7-57.5-20.6-84.7-8.5-19.3-28.8-31-49.2-36.4-3.7-1-7.5-1.8-11.2-2.5v169.8c15.9-1.8 32 1.2 47.4 5.9 12.8 3.8 26.6 8.8 39 4 16.4-6.3 22.1-30.6 10.2-43.5zM344.4 980c7.9-8 15.4-16.4 22.2-25.4-25.6-8.8-51.7-15.4-78.6-15.3-34.2.2-70.3 14-90.4 40.7h146.8z" id="path250"/><path opacity=".1" fill="#FFF" d="M1400 350.1c-35-.1-70 3.4-104.3 10.4-105.6 21.5-206.6 76.2-314.1 68.6-114.8-8.1-214-85.9-327.7-103.9-51.6-8.2-105.3-3.5-154.7 13.6-34.4 11.8-67.2 29.6-103.1 35.2-66.2 10.3-131-21.7-197.6-29.1-62.2-6.9-124.6 8-185.1 23.7-4.4 1.1-8.9 2.3-13.4 3.6v82.6c30.8-1.6 61.4-6.8 91-15.6 46.2-13.8 91.6-36.5 139.8-33.6 68.4 4.1 126.6 59.3 195.2 60.4 63.4 1 120.5-44.8 183.9-44.1 38.4.4 74.2 17.8 110.4 30.7 139.2 49.5 295.5 32.1 433.2-21.2 24.2-9.4 48.1-19.8 73.5-25.1 57.8-11.9 117.4 4.5 173.1 24.5v-80.7z" id="path252"/><circle opacity=".1" fill="#FFF" cx="1288.6" cy="502" r="5.9" id="circle254"/><circle opacity=".1" fill="#FFF" cx="800.9" cy="590.9" r="23.7" id="circle256"/><circle opacity=".1" fill="#FFF" cx="929.2" cy="531.6" r="9.9" id="circle258"/><circle opacity=".1" fill="#FFF" cx="336.8" cy="223.6" r="59.2" id="circle260"/><circle opacity=".1" fill="#FFF" cx="806.3" cy="134.1" r="79.1" id="circle262"/><circle fill="#FFF" cx="885.8" cy="598.8" r="3.9" id="circle264"/><circle fill="#FFF" cx="902.6" cy="503" r="3" id="circle266"/><circle fill="#FFF" cx="852.2" cy="304.5" r="3.9" id="circle268"/><circle fill="#FFF" cx="1126.7" cy="24.1" r="3.9" id="circle270"/><circle fill="#FFF" cx="1006.2" cy="77.4" r="3.9" id="circle272"/><circle fill="#FFF" cx="609.3" cy="71.5" r="2" id="circle274"/><circle fill="#FFF" cx="645.8" cy="92.2" r="3" id="circle276"/><circle fill="#FFF" cx="532.3" cy="118.9" r="3.9" id="circle278"/><circle fill="#FFF" cx="279.5" cy="49.8" r="3.9" id="circle280"/><circle fill="#FFF" cx="25.8" cy="200.9" r="4.9" id="circle282"/><circle fill="#FFF" cx="45.5" cy="224.6" r="3" id="circle284"/><circle fill="#FFF" cx="170.9" cy="235.4" r="3.9" id="circle286"/><circle fill="#FFF" cx="275.6" cy="144.6" r="3.9" id="circle288"/><circle fill="#FFF" cx="396" cy="180.1" r="2" id="circle290"/><circle fill="#FFF" cx="367.4" cy="250.2" r="3" id="circle292"/><circle fill="#FFF" cx="166" cy="420.1" r="3" id="circle294"/><circle fill="#FFF" cx="259.8" cy="446.7" r="3.9" id="circle296"/><circle fill="#FFF" cx="404.9" cy="437.8" r="3" id="circle298"/><circle fill="#FFF" cx="738.7" cy="690.6" r="3" id="circle300"/><circle fill="#FFF" cx="1007.2" cy="791.3" r="3" id="circle302"/><circle fill="#FFF" cx="1122.7" cy="804.1" r="3.9" id="circle304"/><circle fill="#FFF" cx="1331.1" cy="627.4" r="3" id="circle306"/><circle fill="#FFF" cx="1338" cy="517.8" r="3.9" id="circle308"/><circle fill="#FFF" cx="1247.2" cy="889" r="3.9" id="circle310"/><circle fill="#FFF" cx="1348.8" cy="291.7" r="4.9" id="circle312"/><circle fill="#FFF" cx="1239.3" cy="231.5" r="2" id="circle314"/><circle fill="#FFF" cx="1151.4" cy="214.7" r="3" id="circle316"/><circle fill="#FFF" cx="981.6" cy="518.8" r="3" id="circle318"/><circle fill="#FFF" cx="741.6" cy="494.1" r="2" id="circle320"/><circle fill="#FFF" cx="709" cy="426" r="3" id="circle322"/><circle fill="#FFF" cx="502.7" cy="604.7" r="3.9" id="circle324"/><circle fill="#FFF" cx="536.3" cy="849.6" r="3.9" id="circle326"/><circle fill="#FFF" cx="678.4" cy="857.5" r="3.9" id="circle328"/><circle fill="#FFF" cx="717.9" cy="928.5" r="3.9" id="circle330"/><g transform="translate(861.044 255.881)" style="animation:spin 15s linear infinite" stroke-width="8.828"><path id="Shape" d="M-436.908 343.313a8.827 8.827 0 01-8.121-12.358l52.26-118.555V107.264a8.828 8.828 0 1117.654 0c0 116.347 0 108.05-.706 110.52l-52.965 120.056a8.828 8.828 0 01-8.122 5.473z" fill="#9fc9d3"/><path id="path357" d="M-330.977 343.313a8.827 8.827 0 01-8.121-5.296l-52.966-120.232c-1.059-2.384-.706 6.797-.706-110.521a8.828 8.828 0 1117.655 0V212.4l52.26 118.555a8.827 8.827 0 01-8.122 12.358z" fill="#9fc9d3"/><path id="path359" d="M-775.887 264.041a26.483 26.483 0 01-16.42-20.656L-813.05 104.88c-1.978-13.152 6.106-25.731 18.89-29.396l61.794-20.127-4.679 221.661a155.365 155.365 0 01-38.841-12.977z" fill="#2c3e50"/><circle id="Oval" cx="-679.666" cy="359.909" fill="#95a5a5" r="119.172"/><path id="path362" d="M-569.322 314.888c0 21.981 1.06 28.513-3.09 36.811a30.632 30.632 0 01-41.048 14.478 31.073 31.073 0 01-17.655-27.807v17.125c.203 14.83-9.99 27.783-24.452 31.073a30.808 30.808 0 01-37.34-30.543v-57.291a8.828 8.828 0 00-6.71-8.828c-45.285-11.21-40.96-10.063-42.814-10.77a30.897 30.897 0 01-14.477-10.328 119.26 119.26 0 01187.586 46.08z" fill="#7f8c8d"/><circle id="circle364" cx="-701.735" cy="417.288" fill="#7f8c8d" r="26.483"/><path id="path366" d="M-569.322 236.323c0 93.837 1.148 92.69-3.09 101.517a30.632 30.632 0 01-41.048 14.566 31.073 31.073 0 01-17.655-27.807v16.772c.203 14.83-9.99 27.783-24.452 31.073a30.808 30.808 0 01-37.34-30.19v-57.38a8.828 8.828 0 00-6.71-8.827c-44.756-10.77-40.96-9.71-42.814-10.417a31.338 31.338 0 01-21.098-29.395v-96.486l139.3-9.887 47.05 85.893a30.72 30.72 0 017.857 20.568z" fill="#35495e"/><path id="path368" d="M-613.46 240.737v111.669a30.72 30.72 0 01-17.655-27.807c0-92.955 1.148-88.276-3.266-95.426a8.828 8.828 0 1115.007-8.828 39.548 39.548 0 015.914 20.392z" fill="#2c3e50"/><path id="path370" d="M-639.942 154.668c21.01 46.345 2.471 52.965 10.946 71.238 11.034 24.188 66.383 26.483 50.582-54.73-2.913-15.184-8.21-36.988-20.48-47.493z" fill="#3f5c6c"/><path id="path372" d="M-631.115 284.875c17.038-19.156 41.755-46.169 58.792-61.794 46.345-42.902 124.999-103.106 218.66-123.586 9.018-2.527 14.494-11.656 12.477-20.802-2.017-9.146-10.825-15.126-20.07-13.625-80.948 17.655-176.551 68.325-266.328 163.222a42.196 42.196 0 00-3.53 3.62z" fill="#a56a43"/><circle id="circle374" cx="-383.942" cy="381.978" fill="#95a5a5" r="79.448"/><circle id="circle376" cx="-414.839" cy="385.333" fill="#7f8c8d" r="22.069"/><path id="path392" d="M-577.443 421.26a119.525 119.525 0 01-52.966 46.964c-12.968-14.626-11.624-36.996 3.002-49.965 14.626-12.968 36.996-11.624 49.964 3.002z" fill="#7f8c8d"/><path id="path394" d="M-737.046 342.254a39.724 39.724 0 01-60.645 33.721 117.937 117.937 0 0113.153-72.65 39.724 39.724 0 0147.492 38.929z" fill="#7f8c8d"/><path id="path396" d="M-759.644 112.119c-3.443 5.738-3.355 8.298-5.915 23.922-5.74 34.4 11.625 68.522 42.814 84.127 57.38 28.602 56.938 29.396 65.147 29.396a26.483 26.483 0 0022.6-40.254c-5.297-8.827-11.918-10.416-33.81-21.45l-30.19-15.096A26.483 26.483 0 01-713.3 153.52z" fill="#3f5c6c"/><path id="path398" d="M-772.356 64.185c0 53.629 43.475 97.103 97.103 97.103 53.63 0 97.104-43.474 97.104-97.103s-43.475-97.104-97.104-97.104c-53.628 0-97.103 43.475-97.103 97.104z" fill="#547580"/><path id="path400" d="M-590.42 111.413c-36.37 22.775-91.189 18.273-120.143-9.27-42.726-40.342-3.708-99.751 66.207-99.751a101.782 101.782 0 0153.936 14.565 97.103 97.103 0 010 94.456z" fill="#f0c419"/><path id="path402" d="M-604.632 73.013a8.828 8.828 0 01-8.828-8.828c0-26.483-33.897-26.483-35.31-26.483a8.828 8.828 0 110-17.655c18.361 0 52.966 9.269 52.966 44.138a8.828 8.828 0 01-8.828 8.828z" fill="#f9eab0"/><path id="path404" d="M-581.769 90.668a94.985 94.985 0 01-8.827 20.921 108.05 108.05 0 01-85.804 9.975c-44.933-13.594-64.089-52.083-44.138-83.156 28.072 32.75 73.092 63.824 138.77 52.26z" fill="#f29c1f"/><path id="path406" d="M-305.2 392.13a79.448 79.448 0 01-37.164 57.467A35.31 35.31 0 11-305.2 392.13z" fill="#7f8c8d"/><path id="path408" d="M-348.632 314.712c-1.305 13.362-13.105 23.195-26.483 22.069-20.127 0-33.015-17.655-23.04-33.015a79.448 79.448 0 0149.082 6.797c.256 1.37.403 2.756.441 4.149z" fill="#7f8c8d"/></g></svg>