<svg width="114" height="37" viewBox="0 0 114 37" fill="none" xmlns="http://www.w3.org/2000/svg">
<path d="M68.9433 7.95513C68.9433 7.4618 69.3133 7.0918 69.8066 7.0918C70.3 7.0918 70.67 7.4618 70.67 7.95513C70.67 8.44846 70.3 8.81846 69.8066 8.81846C69.3133 8.81846 68.9433 8.44846 68.9433 7.95513ZM69.0666 9.8668H70.5466V17.2668H69.0666V9.8668Z" fill="#1F75FF"/>
<path d="M73.815 17.2671H72.2733V7.40039H76.1583C78.1933 7.40039 79.4266 8.57206 79.4266 10.4221C79.4266 11.7787 78.7483 12.8271 77.515 13.2587L79.735 17.2671H77.9466L75.9116 13.5054H73.7533V17.2671H73.815ZM73.815 12.2721H76.035C77.2066 12.2721 77.885 11.5937 77.885 10.4837C77.885 9.37372 77.145 8.69539 75.9733 8.69539H73.815V12.2721Z" fill="#1F75FF"/>
<path d="M80.6599 7.95513C80.6599 7.4618 81.0299 7.0918 81.5232 7.0918C82.0166 7.0918 82.3866 7.4618 82.3866 7.95513C82.3866 8.44846 82.0166 8.81846 81.5232 8.81846C81.0299 8.81846 80.6599 8.44846 80.6599 7.95513ZM80.7832 9.8668H82.2632V17.2668H80.7832V9.8668Z" fill="#1F75FF"/>
<path d="M83.4966 13.5666C83.4966 11.2849 84.7916 9.80493 86.5799 9.80493C87.6283 9.80493 88.4916 10.2983 88.9233 11.0999H88.985V6.96826H90.4649V17.2666H89.0466V16.0333C88.6149 16.8966 87.7516 17.3899 86.7033 17.3899C84.7916 17.3283 83.4966 15.8483 83.4966 13.5666ZM85.0383 13.5666C85.0383 15.1083 85.84 16.0949 87.0116 16.0949C88.1833 16.0949 88.985 15.1083 88.985 13.5666C88.985 12.0866 88.1833 11.0383 87.0116 11.0383C85.7783 11.0383 85.0383 12.0249 85.0383 13.5666Z" fill="#1F75FF"/>
<path d="M91.945 7.95513C91.945 7.4618 92.315 7.0918 92.8083 7.0918C93.3016 7.0918 93.6716 7.4618 93.6716 7.95513C93.6716 8.44846 93.3016 8.81846 92.8083 8.81846C92.315 8.81846 91.945 8.44846 91.945 7.95513ZM92.0683 9.8668H93.5483V17.2668H92.0683V9.8668Z" fill="#1F75FF"/>
<path d="M101.565 17.2667H100.147V15.9717C99.715 16.835 98.9133 17.3284 97.7416 17.3284C96.1383 17.3284 95.09 16.28 95.09 14.615V9.8667H96.57V14.3067C96.57 15.4167 97.1866 16.0334 98.235 16.0334C99.345 16.0334 100.085 15.2934 100.085 14.06V9.8667H101.565V17.2667Z" fill="#1F75FF"/>
<path d="M103.107 9.8665H104.525V11.0998C104.895 10.2982 105.635 9.74316 106.622 9.74316C107.67 9.74316 108.41 10.2365 108.718 11.1615H108.78C109.15 10.2982 110.013 9.74316 111.123 9.74316C112.603 9.74316 113.528 10.7298 113.528 12.2098V17.2665H112.048V12.5798C112.048 11.5932 111.493 11.0382 110.63 11.0382C109.705 11.0382 109.088 11.7165 109.088 12.6415V17.2665H107.608V12.4565C107.608 11.5932 107.053 11.0382 106.19 11.0382C105.265 11.0382 104.648 11.7165 104.648 12.7032V17.2665H103.168V9.8665H103.107Z" fill="#1F75FF"/>
<path d="M69.0667 22.1995H70.485V23.4328C70.855 22.6312 71.595 22.0762 72.5816 22.0762C73.63 22.0762 74.37 22.5695 74.6783 23.4945H74.74C75.11 22.6312 75.9733 22.0762 77.0833 22.0762C78.5633 22.0762 79.4883 23.0628 79.4883 24.5428V29.5995H78.0083V24.9128C78.0083 23.9262 77.4533 23.3712 76.59 23.3712C75.665 23.3712 75.0483 24.0495 75.0483 24.9745V29.5995H73.5683V24.7895C73.5683 23.9262 73.0133 23.3712 72.15 23.3712C71.225 23.3712 70.6083 24.0495 70.6083 25.0362V29.5995H69.0667V22.1995Z" fill="#1F75FF"/>
<path d="M80.5983 25.8995C80.5983 23.5562 81.9549 22.0762 84.1133 22.0762C86.2716 22.0762 87.6283 23.5562 87.6283 25.8995C87.6283 28.2428 86.2716 29.6612 84.1133 29.6612C81.9549 29.6612 80.5983 28.2428 80.5983 25.8995ZM86.0866 25.8995C86.0866 24.2962 85.3466 23.3095 84.1133 23.3095C82.8799 23.3095 82.0783 24.2962 82.0783 25.8995C82.0783 27.5028 82.8183 28.4895 84.1133 28.4895C85.4083 28.4895 86.0866 27.5028 86.0866 25.8995Z" fill="#1F75FF"/>
<path d="M90.3417 28.3663L90.28 29.5996H88.8617V19.3013H90.3417V23.4329C90.7734 22.6313 91.6367 22.1379 92.685 22.1379C94.535 22.1379 95.7684 23.6179 95.7684 25.8996C95.7684 28.1813 94.535 29.6613 92.685 29.6613C91.6367 29.6613 90.7734 29.1679 90.3417 28.3663ZM90.3417 25.8996C90.3417 27.3796 91.1434 28.4279 92.315 28.4279C93.4867 28.4279 94.2884 27.4413 94.2884 25.8996C94.2884 24.3579 93.4867 23.3713 92.315 23.3713C91.1434 23.3713 90.3417 24.4196 90.3417 25.8996Z" fill="#1F75FF"/>
<path d="M96.94 20.2881C96.94 19.7948 97.31 19.4248 97.8033 19.4248C98.2967 19.4248 98.6667 19.7948 98.6667 20.2881C98.6667 20.7815 98.2967 21.1515 97.8033 21.1515C97.31 21.1515 96.94 20.7815 96.94 20.2881ZM97.0633 22.1998H98.5433V29.5998H97.0633V22.1998Z" fill="#1F75FF"/>
<path d="M100.147 19.3013H101.627V29.5996H100.147V19.3013Z" fill="#1F75FF"/>
<path d="M109.52 27.441C109.335 28.7977 107.978 29.7227 106.313 29.7227C104.155 29.7227 102.86 28.3044 102.86 25.961C102.86 23.6177 104.217 22.1377 106.252 22.1377C108.287 22.1377 109.582 23.556 109.582 25.776V26.2694H104.34V26.331C104.34 27.626 105.142 28.4277 106.375 28.4277C107.238 28.4277 107.917 27.996 108.102 27.3794H109.52V27.441ZM104.34 25.221H108.102C108.04 24.0494 107.362 23.3094 106.252 23.3094C105.203 23.3094 104.463 24.0494 104.34 25.221Z" fill="#1F75FF"/>
<path d="M20.9667 12.3336C23.0101 12.3336 24.6667 10.677 24.6667 8.63359C24.6667 6.59014 23.0101 4.93359 20.9667 4.93359C18.9232 4.93359 17.2667 6.59014 17.2667 8.63359C17.2667 10.677 18.9232 12.3336 20.9667 12.3336Z" fill="#1F75FF"/>
<path d="M30.8334 12.3336C32.8768 12.3336 34.5334 10.677 34.5334 8.63359C34.5334 6.59014 32.8768 4.93359 30.8334 4.93359C28.7899 4.93359 27.1334 6.59014 27.1334 8.63359C27.1334 10.677 28.7899 12.3336 30.8334 12.3336Z" fill="#1F75FF"/>
<path d="M40.7 6.41359C41.9333 6.41359 42.92 7.40026 42.92 8.63359C42.92 9.86693 41.9333 10.8536 40.7 10.8536C39.4666 10.8536 38.48 9.86693 38.48 8.63359C38.48 7.40026 39.4666 6.41359 40.7 6.41359ZM40.7 4.93359C38.665 4.93359 37 6.59859 37 8.63359C37 10.6686 38.665 12.3336 40.7 12.3336C42.735 12.3336 44.4 10.6686 44.4 8.63359C44.4 6.59859 42.735 4.93359 40.7 4.93359Z" fill="#1F75FF"/>
<path d="M20.9667 22.1998C23.0101 22.1998 24.6667 20.5433 24.6667 18.4998C24.6667 16.4564 23.0101 14.7998 20.9667 14.7998C18.9232 14.7998 17.2667 16.4564 17.2667 18.4998C17.2667 20.5433 18.9232 22.1998 20.9667 22.1998Z" fill="#1F75FF"/>
<path d="M30.8334 16.2798C32.0667 16.2798 33.0534 17.2665 33.0534 18.4998C33.0534 19.7331 32.0667 20.7198 30.8334 20.7198C29.6 20.7198 28.6134 19.7331 28.6134 18.4998C28.6134 17.2665 29.6 16.2798 30.8334 16.2798ZM30.8334 14.7998C28.7984 14.7998 27.1334 16.4648 27.1334 18.4998C27.1334 20.5348 28.7984 22.1998 30.8334 22.1998C32.8684 22.1998 34.5334 20.5348 34.5334 18.4998C34.5334 16.4648 32.8684 14.7998 30.8334 14.7998Z" fill="#1F75FF"/>
<path d="M40.7 22.1998C42.7434 22.1998 44.4 20.5433 44.4 18.4998C44.4 16.4564 42.7434 14.7998 40.7 14.7998C38.6565 14.7998 37 16.4564 37 18.4998C37 20.5433 38.6565 22.1998 40.7 22.1998Z" fill="#1F75FF"/>
<path d="M20.9667 26.147C22.2 26.147 23.1867 27.1337 23.1867 28.367C23.1867 29.6003 22.2 30.587 20.9667 30.587C19.7333 30.587 18.7467 29.6003 18.7467 28.367C18.7467 27.1337 19.7333 26.147 20.9667 26.147ZM20.9667 24.667C18.9317 24.667 17.2667 26.332 17.2667 28.367C17.2667 30.402 18.9317 32.067 20.9667 32.067C23.0017 32.067 24.6667 30.402 24.6667 28.367C24.6667 26.332 23.0017 24.667 20.9667 24.667Z" fill="#1F75FF"/>
<path d="M30.8334 26.147C32.0667 26.147 33.0534 27.1337 33.0534 28.367C33.0534 29.6003 32.0667 30.587 30.8334 30.587C29.6 30.587 28.6134 29.6003 28.6134 28.367C28.6134 27.1337 29.6 26.147 30.8334 26.147ZM30.8334 24.667C28.7984 24.667 27.1334 26.332 27.1334 28.367C27.1334 30.402 28.7984 32.067 30.8334 32.067C32.8684 32.067 34.5334 30.402 34.5334 28.367C34.5334 26.332 32.8684 24.667 30.8334 24.667Z" fill="#1F75FF"/>
<path d="M40.7 26.147C41.9333 26.147 42.92 27.1337 42.92 28.367C42.92 29.6003 41.9333 30.587 40.7 30.587C39.4666 30.587 38.48 29.6003 38.48 28.367C38.48 27.1337 39.4666 26.147 40.7 26.147ZM40.7 24.667C38.665 24.667 37 26.332 37 28.367C37 30.402 38.665 32.067 40.7 32.067C42.735 32.067 44.4 30.402 44.4 28.367C44.4 26.332 42.735 24.667 40.7 24.667Z" fill="#1F75FF"/>
<path d="M57.2267 37H4.44C1.97333 37 0 35.0267 0 32.56V4.44C0 1.97333 1.97333 0 4.44 0H57.2267C59.6933 0 61.6667 1.97333 61.6667 4.44V32.56C61.6667 35.0267 59.6933 37 57.2267 37ZM4.44 1.72667C2.96 1.72667 1.72667 2.96 1.72667 4.44V32.56C1.72667 34.04 2.96 35.2733 4.44 35.2733H57.2267C58.7067 35.2733 59.94 34.04 59.94 32.56V4.44C59.94 2.96 58.7067 1.72667 57.2267 1.72667H4.44Z" fill="#1F75FF"/>
</svg>
