<svg width="196" height="184" viewBox="0 0 196 184" fill="none" xmlns="http://www.w3.org/2000/svg">
<path d="M120.952 161.292H74.0269C73.1721 161.292 72.4792 160.177 72.4792 158.802V152.552C72.4792 151.177 73.1721 150.062 74.0269 150.062H120.952C121.807 150.062 122.5 151.177 122.5 152.552V158.802C122.5 160.177 121.807 161.292 120.952 161.292Z" fill="#01FBFD"/>
<path d="M126.698 58.1875H68.281C67.2168 58.1875 66.3542 57.2756 66.3542 56.1506V51.0368C66.3542 49.9119 67.2168 49 68.281 49H126.698C127.762 49 128.625 49.9119 128.625 51.0368V56.1506C128.625 57.2756 127.762 58.1875 126.698 58.1875Z" fill="#FF8686"/>
<path d="M110.06 150.35H85.422C84.2426 150.35 83.2829 149.391 83.2829 148.212C83.2829 147.844 83.3783 147.48 83.5591 147.157C85.645 143.02 86.9583 139.577 87.6878 136.331C87.6916 136.304 87.6967 136.278 87.7022 136.253C88.4503 132.928 88.5639 129.871 88.0452 126.933C82.0089 125.046 76.6793 121.459 72.5928 116.524C68.5537 111.64 66.0479 105.801 65.3171 99.5906C61.7862 98.3162 58.6109 95.9971 56.3087 92.995C53.6729 89.5519 52.2797 85.4448 52.2797 81.1171V59.8469C52.2797 58.6675 53.239 57.7082 54.4184 57.7082H65.0941V49.9113C65.0941 48.7315 66.0564 47.7717 67.2391 47.7717H128.26C129.439 47.7717 130.399 48.7315 130.399 49.9113V57.7082H141.081C142.26 57.7082 143.219 58.6675 143.219 59.8469V81.1171C143.219 85.4406 141.824 89.5477 139.184 92.9942C136.879 96.0014 133.704 98.317 130.176 99.5809C129.444 105.803 126.94 111.642 122.906 116.512C118.836 121.439 113.511 125.03 107.467 126.931C106.923 129.983 107.024 133.112 107.773 136.471C108.499 139.693 109.865 143.21 111.948 147.221C112.215 147.726 112.267 148.312 112.091 148.861C111.918 149.398 111.55 149.834 111.05 150.094C110.744 150.262 110.402 150.35 110.06 150.35ZM86.0632 147.816H109.404C107.382 143.84 106.039 140.307 105.3 137.025C104.41 133.033 104.355 129.321 105.13 125.675C105.227 125.217 105.568 124.851 106.018 124.721C111.878 123.029 117.043 119.632 120.953 114.896C124.839 110.205 127.186 104.543 127.739 98.5211C127.786 98.0099 128.136 97.5774 128.627 97.4262C131.977 96.3933 135.011 94.272 137.172 91.4528C139.47 88.4528 140.684 84.8787 140.684 81.1171V60.2427H129.131C128.431 60.2427 127.864 59.6754 127.864 58.9754V50.3062H67.6286V58.9754C67.6286 59.6754 67.0613 60.2427 66.3614 60.2427H54.8142V81.1171C54.8142 84.883 56.0266 88.457 58.3203 91.4532C60.4784 94.2678 63.5151 96.3938 66.8695 97.4388C67.3583 97.5913 67.7076 98.0226 67.7545 98.5329C68.3066 104.541 70.6548 110.203 74.5456 114.907C78.4724 119.65 83.6407 123.043 89.4911 124.72C89.9414 124.849 90.2836 125.215 90.3816 125.673C91.1305 129.181 91.068 132.803 90.1894 136.744C90.1856 136.77 90.1805 136.794 90.1754 136.818C89.4307 140.164 88.1204 143.672 86.0632 147.816ZM66.3614 92.4763C66.1586 92.4763 65.9554 92.4277 65.77 92.3297C63.8514 91.3172 62.1909 89.8392 60.9688 88.0557C59.4608 85.8634 58.6628 83.2896 58.6628 80.6153V65.8663C58.6628 65.1663 59.2302 64.599 59.9301 64.599H66.3614C67.0613 64.599 67.6286 65.1663 67.6286 65.8663V91.2086C67.6286 91.6526 67.3963 92.0644 67.0157 92.2938C66.815 92.4155 66.5882 92.4763 66.3614 92.4763ZM61.1973 67.134V80.6157C61.1973 82.7747 61.8407 84.8517 63.0581 86.6216C63.6288 87.4542 64.3164 88.2044 65.0937 88.8478V67.1344H61.1973V67.134ZM129.132 92.4763C128.905 92.4763 128.679 92.4155 128.477 92.2942C128.097 92.0653 127.865 91.653 127.865 91.209V65.8667C127.865 65.1668 128.432 64.5995 129.132 64.5995H135.563C136.263 64.5995 136.83 65.1668 136.83 65.8667V80.6157C136.83 83.29 136.032 85.8634 134.523 88.0578C133.302 89.8396 131.642 91.3172 129.724 92.3297C129.538 92.4277 129.335 92.4763 129.132 92.4763ZM130.399 67.134V88.8473C131.176 88.2044 131.864 87.4546 132.433 86.6233C133.652 84.8517 134.295 82.7747 134.295 80.6157V67.134H130.399Z" fill="#182B60"/>
<path d="M122.078 162.208H73.0777C72.3778 162.208 71.8105 161.64 71.8105 160.941V149.113C71.8105 148.413 72.3778 147.846 73.0777 147.846H122.078C122.778 147.846 123.345 148.413 123.345 149.113V160.941C123.345 161.64 122.778 162.208 122.078 162.208ZM74.345 159.673H120.811V150.38H74.345V159.673Z" fill="#182B60"/>
<path d="M129.259 58.2938H93.3537C92.6537 58.2938 92.0864 57.7265 92.0864 57.0265C92.0864 56.3266 92.6537 55.7593 93.3537 55.7593H129.259C129.959 55.7593 130.526 56.3266 130.526 57.0265C130.526 57.7265 129.959 58.2938 129.259 58.2938Z" fill="#182B60"/>
<path d="M85.7502 58.2938H78.5691C77.8692 58.2938 77.3019 57.7265 77.3019 57.0265C77.3019 56.3266 77.8692 55.7593 78.5691 55.7593H85.7502C86.4501 55.7593 87.0174 56.3266 87.0174 57.0265C87.0174 57.7265 86.4501 58.2938 85.7502 58.2938Z" fill="#182B60"/>
<path d="M99.2674 155.449H73.0777C72.3778 155.449 71.8105 154.882 71.8105 154.182C71.8105 153.482 72.3778 152.915 73.0777 152.915H99.2674C99.9674 152.915 100.535 153.482 100.535 154.182C100.535 154.882 99.9674 155.449 99.2674 155.449Z" fill="#182B60"/>
<path d="M108.983 155.449H105.181C104.481 155.449 103.914 154.882 103.914 154.182C103.914 153.482 104.481 152.915 105.181 152.915H108.983C109.683 152.915 110.25 153.482 110.25 154.182C110.25 154.882 109.683 155.449 108.983 155.449Z" fill="#182B60"/>
<path d="M97.5778 25.0209C96.8779 25.0209 96.3106 24.4536 96.3106 23.7537V14.883C96.3106 14.183 96.8779 13.6157 97.5778 13.6157C98.2777 13.6157 98.845 14.183 98.845 14.883V23.7537C98.8455 24.4536 98.2777 25.0209 97.5778 25.0209Z" fill="#1C9BF2"/>
<path d="M123.769 40.2278C123.331 40.2278 122.906 40.001 122.671 39.595C122.32 38.9893 122.527 38.2142 123.133 37.8636L131.158 33.217C131.764 32.866 132.539 33.0734 132.89 33.6787C133.241 34.2844 133.034 35.0596 132.428 35.4102L124.402 40.0567C124.203 40.1729 123.984 40.2278 123.769 40.2278Z" fill="#1C9BF2"/>
<path d="M71.8092 40.2278C71.5938 40.2278 71.3754 40.1729 71.1756 40.0572L63.1497 35.4106C62.544 35.06 62.3374 34.2844 62.688 33.6791C63.0391 33.0729 63.8138 32.8664 64.4195 33.2174L72.4454 37.864C73.0511 38.2146 73.2577 38.9901 72.9071 39.5955C72.6722 40.0014 72.2469 40.2278 71.8092 40.2278Z" fill="#1C9BF2"/>
<path d="M111.939 30.5123C111.706 30.5123 111.471 30.4481 111.26 30.3138C110.669 29.9382 110.495 29.1547 110.871 28.5641L113.828 23.9176C114.204 23.327 114.987 23.1526 115.577 23.5289C116.168 23.9045 116.342 24.688 115.966 25.2786L113.009 29.9251C112.767 30.3049 112.357 30.5123 111.939 30.5123Z" fill="#1C9BF2"/>
<path d="M83.217 30.5122C82.7684 30.5122 82.3337 30.2735 82.1035 29.8515L79.569 25.205C79.234 24.5904 79.4604 23.8207 80.0746 23.4857C80.6888 23.1512 81.4585 23.3772 81.7939 23.9914L84.3283 28.6379C84.6633 29.2525 84.4369 30.0222 83.8227 30.3572C83.6301 30.4623 83.4223 30.5122 83.217 30.5122Z" fill="#1C9BF2"/>
<path d="M102.737 81.3676L102.737 81.3677C103.437 82.805 104.797 83.8104 106.38 84.0433L113.296 85.0612C114.782 85.2799 115.429 87.1689 114.31 88.2739L115.363 89.3413L114.31 88.2739L109.305 93.215L109.305 93.215C108.168 94.3375 107.653 95.9489 107.92 97.5242L109.102 104.501C109.369 106.077 107.754 107.186 106.445 106.489L106.444 106.489L100.258 103.195L100.258 103.195C98.8448 102.442 97.1554 102.442 95.7425 103.195L95.7424 103.195L89.5559 106.489C88.2459 107.186 86.6313 106.077 86.8982 104.501L86.8982 104.501L88.0799 97.5239L88.0799 97.5238C88.3465 95.9488 87.8321 94.3373 86.6951 93.2149C86.6951 93.2149 86.695 93.2149 86.695 93.2149L81.6902 88.2739L81.6901 88.2738C80.5715 87.1697 81.2178 85.28 82.704 85.0612C82.704 85.0612 82.7041 85.0612 82.7041 85.0612L89.6209 84.0433L89.6209 84.0433C91.2033 83.8104 92.563 82.8054 93.2635 81.3674L96.3566 75.0201L96.3567 75.0198C97.0323 73.6327 98.967 73.632 99.6436 75.0201C99.6436 75.0201 99.6436 75.0201 99.6437 75.0201L102.737 81.3676Z" fill="url(#paint0_linear)" stroke="#182B60" stroke-width="3"/>
<defs>
<linearGradient id="paint0_linear" x1="91.875" y1="86.2605" x2="98" y2="108.208" gradientUnits="userSpaceOnUse">
<stop stop-color="#FF8385"/>
<stop offset="1" stop-color="#FF5071"/>
</linearGradient>
</defs>
</svg>
