<svg width="365" height="430" viewBox="0 0 365 430" fill="none" xmlns="http://www.w3.org/2000/svg">
<rect y="52" width="111" height="30" rx="3" fill="#FF4F99"/>
<path d="M30.803 61V75H27.563V63.6H24.763V61H30.803ZM39.9751 66.22C40.8684 66.22 41.6817 66.4 42.4151 66.76C43.1484 67.12 43.7284 67.6333 44.1551 68.3C44.5817 68.9533 44.7951 69.7133 44.7951 70.58C44.7951 71.5133 44.5617 72.3333 44.0951 73.04C43.6284 73.7467 42.9884 74.2933 42.1751 74.68C41.3751 75.0533 40.4817 75.24 39.4951 75.24C37.5351 75.24 36.0017 74.64 34.8951 73.44C33.7884 72.24 33.2351 70.5267 33.2351 68.3C33.2351 66.7133 33.5351 65.3533 34.1351 64.22C34.7351 63.0867 35.5684 62.2267 36.6351 61.64C37.7151 61.0533 38.9617 60.76 40.3751 60.76C41.1217 60.76 41.8351 60.8467 42.5151 61.02C43.2084 61.18 43.7951 61.4133 44.2751 61.72L43.0751 64.1C42.3817 63.6333 41.5084 63.4 40.4551 63.4C39.2684 63.4 38.3284 63.7467 37.6351 64.44C36.9417 65.1333 36.5684 66.14 36.5151 67.46C37.3417 66.6333 38.4951 66.22 39.9751 66.22ZM39.3151 72.82C40.0084 72.82 40.5684 72.6333 40.9951 72.26C41.4351 71.8867 41.6551 71.38 41.6551 70.74C41.6551 70.1 41.4351 69.5933 40.9951 69.22C40.5684 68.8333 39.9951 68.64 39.2751 68.64C38.5684 68.64 37.9884 68.84 37.5351 69.24C37.0817 69.6267 36.8551 70.1267 36.8551 70.74C36.8551 71.3533 37.0751 71.8533 37.5151 72.24C37.9551 72.6267 38.5551 72.82 39.3151 72.82ZM57.3935 75.16C56.2602 75.16 55.2402 74.9267 54.3335 74.46C53.4402 73.98 52.7402 73.32 52.2335 72.48C51.7268 71.64 51.4735 70.6867 51.4735 69.62C51.4735 68.5533 51.7268 67.6 52.2335 66.76C52.7402 65.92 53.4402 65.2667 54.3335 64.8C55.2402 64.32 56.2602 64.08 57.3935 64.08C58.5268 64.08 59.5402 64.32 60.4335 64.8C61.3268 65.2667 62.0268 65.92 62.5335 66.76C63.0402 67.6 63.2935 68.5533 63.2935 69.62C63.2935 70.6867 63.0402 71.64 62.5335 72.48C62.0268 73.32 61.3268 73.98 60.4335 74.46C59.5402 74.9267 58.5268 75.16 57.3935 75.16ZM57.3935 72.6C58.1935 72.6 58.8468 72.3333 59.3535 71.8C59.8735 71.2533 60.1335 70.5267 60.1335 69.62C60.1335 68.7133 59.8735 67.9933 59.3535 67.46C58.8468 66.9133 58.1935 66.64 57.3935 66.64C56.5935 66.64 55.9335 66.9133 55.4135 67.46C54.8935 67.9933 54.6335 68.7133 54.6335 69.62C54.6335 70.5267 54.8935 71.2533 55.4135 71.8C55.9335 72.3333 56.5935 72.6 57.3935 72.6ZM70.1795 70.92H68.5595V75H65.4395V64.24H68.5595V68.42H70.2395L73.1595 64.24H76.4795L72.7195 69.4L76.7395 75H73.0595L70.1795 70.92ZM87.2138 66.8H83.5738V75H80.4738V66.8H76.8338V64.24H87.2138V66.8Z" fill="#0C1324"/>
<path d="M26.697 20.644V29.785H21.747V25H5.445V29.785H0.495L0.528 20.644H1.452C2.838 20.6 3.817 19.588 4.389 17.608C4.961 15.628 5.313 12.801 5.445 9.127L5.709 1.9H23.463V20.644H26.697ZM10.164 9.622C10.054 12.372 9.823 14.682 9.471 16.552C9.119 18.4 8.58 19.764 7.854 20.644H18.183V6.256H10.263L10.164 9.622ZM46.9332 16.189C46.9332 16.255 46.9002 16.717 46.8342 17.575H33.4032C33.6452 18.675 34.2172 19.544 35.1192 20.182C36.0212 20.82 37.1432 21.139 38.4852 21.139C39.4092 21.139 40.2232 21.007 40.9272 20.743C41.6532 20.457 42.3242 20.017 42.9402 19.423L45.6792 22.393C44.0072 24.307 41.5652 25.264 38.3532 25.264C36.3512 25.264 34.5802 24.879 33.0402 24.109C31.5002 23.317 30.3122 22.228 29.4762 20.842C28.6402 19.456 28.2222 17.883 28.2222 16.123C28.2222 14.385 28.6292 12.823 29.4432 11.437C30.2792 10.029 31.4122 8.94 32.8422 8.17C34.2942 7.378 35.9112 6.982 37.6932 6.982C39.4312 6.982 41.0042 7.356 42.4122 8.104C43.8202 8.852 44.9202 9.93 45.7122 11.338C46.5262 12.724 46.9332 14.341 46.9332 16.189ZM37.7262 10.876C36.5602 10.876 35.5812 11.206 34.7892 11.866C33.9972 12.526 33.5132 13.428 33.3372 14.572H42.0822C41.9062 13.45 41.4222 12.559 40.6302 11.899C39.8382 11.217 38.8702 10.876 37.7262 10.876ZM50.8793 7.246H55.9943V14.176H63.7163V7.246H68.8643V25H63.7163V18.367H55.9943V25H50.8793V7.246ZM83.3954 12.922C85.7054 12.944 87.4764 13.472 88.7084 14.506C89.9404 15.518 90.5564 16.959 90.5564 18.829C90.5564 20.787 89.8634 22.316 88.4774 23.416C87.1134 24.494 85.1884 25.033 82.7024 25.033L73.7924 25V7.246H78.9074V12.922H83.3954ZM82.2404 21.37C83.2304 21.392 83.9894 21.183 84.5174 20.743C85.0454 20.303 85.3094 19.643 85.3094 18.763C85.3094 17.905 85.0454 17.278 84.5174 16.882C84.0114 16.486 83.2524 16.277 82.2404 16.255L78.9074 16.222V21.37H82.2404ZM110.841 1.9V25H105.495V6.19H100.875V1.9H110.841Z" fill="#FF4F99"/>
<path d="M84 139.5V211" stroke="white" stroke-dasharray="3 3"/>
<path d="M84 228.5V300" stroke="white" stroke-dasharray="3 3"/>
<path d="M84 315.5V387" stroke="white" stroke-dasharray="3 3"/>
<path d="M5.562 126.4V139H2.646V128.74H0.126V126.4H5.562ZM13.8168 131.098C14.6208 131.098 15.3528 131.26 16.0128 131.584C16.6728 131.908 17.1948 132.37 17.5788 132.97C17.9628 133.558 18.1548 134.242 18.1548 135.022C18.1548 135.862 17.9448 136.6 17.5248 137.236C17.1048 137.872 16.5288 138.364 15.7968 138.712C15.0768 139.048 14.2728 139.216 13.3848 139.216C11.6208 139.216 10.2408 138.676 9.24483 137.596C8.24883 136.516 7.75083 134.974 7.75083 132.97C7.75083 131.542 8.02083 130.318 8.56083 129.298C9.10083 128.278 9.85083 127.504 10.8108 126.976C11.7828 126.448 12.9048 126.184 14.1768 126.184C14.8488 126.184 15.4908 126.262 16.1028 126.418C16.7268 126.562 17.2548 126.772 17.6868 127.048L16.6068 129.19C15.9828 128.77 15.1968 128.56 14.2488 128.56C13.1808 128.56 12.3348 128.872 11.7108 129.496C11.0868 130.12 10.7508 131.026 10.7028 132.214C11.4468 131.47 12.4848 131.098 13.8168 131.098ZM13.2228 137.038C13.8468 137.038 14.3508 136.87 14.7348 136.534C15.1308 136.198 15.3288 135.742 15.3288 135.166C15.3288 134.59 15.1308 134.134 14.7348 133.798C14.3508 133.45 13.8348 133.276 13.1868 133.276C12.5508 133.276 12.0288 133.456 11.6208 133.816C11.2128 134.164 11.0088 134.614 11.0088 135.166C11.0088 135.718 11.2068 136.168 11.6028 136.516C11.9988 136.864 12.5388 137.038 13.2228 137.038ZM20.8678 132.682C20.3758 132.682 19.9618 132.514 19.6258 132.178C19.2898 131.842 19.1218 131.422 19.1218 130.918C19.1218 130.402 19.2898 129.988 19.6258 129.676C19.9618 129.352 20.3758 129.19 20.8678 129.19C21.3598 129.19 21.7738 129.352 22.1098 129.676C22.4458 129.988 22.6138 130.402 22.6138 130.918C22.6138 131.422 22.4458 131.842 22.1098 132.178C21.7738 132.514 21.3598 132.682 20.8678 132.682ZM20.8678 139.144C20.3758 139.144 19.9618 138.976 19.6258 138.64C19.2898 138.304 19.1218 137.884 19.1218 137.38C19.1218 136.864 19.2898 136.45 19.6258 136.138C19.9618 135.814 20.3758 135.652 20.8678 135.652C21.3598 135.652 21.7738 135.814 22.1098 136.138C22.4458 136.45 22.6138 136.864 22.6138 137.38C22.6138 137.884 22.4458 138.304 22.1098 138.64C21.7738 138.976 21.3598 139.144 20.8678 139.144ZM29.3227 139.216C28.2787 139.216 27.3487 138.958 26.5327 138.442C25.7167 137.926 25.0747 137.182 24.6067 136.21C24.1507 135.226 23.9227 134.056 23.9227 132.7C23.9227 131.344 24.1507 130.18 24.6067 129.208C25.0747 128.224 25.7167 127.474 26.5327 126.958C27.3487 126.442 28.2787 126.184 29.3227 126.184C30.3667 126.184 31.2967 126.442 32.1127 126.958C32.9287 127.474 33.5647 128.224 34.0207 129.208C34.4887 130.18 34.7227 131.344 34.7227 132.7C34.7227 134.056 34.4887 135.226 34.0207 136.21C33.5647 137.182 32.9287 137.926 32.1127 138.442C31.2967 138.958 30.3667 139.216 29.3227 139.216ZM29.3227 136.75C30.0907 136.75 30.6907 136.42 31.1227 135.76C31.5667 135.1 31.7887 134.08 31.7887 132.7C31.7887 131.32 31.5667 130.3 31.1227 129.64C30.6907 128.98 30.0907 128.65 29.3227 128.65C28.5667 128.65 27.9667 128.98 27.5227 129.64C27.0907 130.3 26.8747 131.32 26.8747 132.7C26.8747 134.08 27.0907 135.1 27.5227 135.76C27.9667 136.42 28.5667 136.75 29.3227 136.75ZM41.5395 139.216C40.4955 139.216 39.5655 138.958 38.7495 138.442C37.9335 137.926 37.2915 137.182 36.8235 136.21C36.3675 135.226 36.1395 134.056 36.1395 132.7C36.1395 131.344 36.3675 130.18 36.8235 129.208C37.2915 128.224 37.9335 127.474 38.7495 126.958C39.5655 126.442 40.4955 126.184 41.5395 126.184C42.5835 126.184 43.5135 126.442 44.3295 126.958C45.1455 127.474 45.7815 128.224 46.2375 129.208C46.7055 130.18 46.9395 131.344 46.9395 132.7C46.9395 134.056 46.7055 135.226 46.2375 136.21C45.7815 137.182 45.1455 137.926 44.3295 138.442C43.5135 138.958 42.5835 139.216 41.5395 139.216ZM41.5395 136.75C42.3075 136.75 42.9075 136.42 43.3395 135.76C43.7835 135.1 44.0055 134.08 44.0055 132.7C44.0055 131.32 43.7835 130.3 43.3395 129.64C42.9075 128.98 42.3075 128.65 41.5395 128.65C40.7835 128.65 40.1835 128.98 39.7395 129.64C39.3075 130.3 39.0915 131.32 39.0915 132.7C39.0915 134.08 39.3075 135.1 39.7395 135.76C40.1835 136.42 40.7835 136.75 41.5395 136.75Z" fill="#FF4F99"/>
<path d="M124.954 127.2V137H123.554V132.632H117.926V137H116.526V127.2H117.926V131.414H123.554V127.2H124.954ZM130.432 129.51C131.459 129.51 132.243 129.762 132.784 130.266C133.335 130.77 133.61 131.521 133.61 132.52V137H132.336V136.02C132.112 136.365 131.79 136.631 131.37 136.818C130.96 136.995 130.47 137.084 129.9 137.084C129.07 137.084 128.402 136.883 127.898 136.482C127.404 136.081 127.156 135.553 127.156 134.9C127.156 134.247 127.394 133.724 127.87 133.332C128.346 132.931 129.102 132.73 130.138 132.73H132.266V132.464C132.266 131.885 132.098 131.442 131.762 131.134C131.426 130.826 130.932 130.672 130.278 130.672C129.84 130.672 129.41 130.747 128.99 130.896C128.57 131.036 128.216 131.227 127.926 131.47L127.366 130.462C127.749 130.154 128.206 129.921 128.738 129.762C129.27 129.594 129.835 129.51 130.432 129.51ZM130.124 136.048C130.638 136.048 131.081 135.936 131.454 135.712C131.828 135.479 132.098 135.152 132.266 134.732V133.696H130.194C129.056 133.696 128.486 134.079 128.486 134.844C128.486 135.217 128.631 135.511 128.92 135.726C129.21 135.941 129.611 136.048 130.124 136.048ZM141.953 129.58V137H140.609V134.004C139.806 134.377 139.008 134.564 138.215 134.564C137.291 134.564 136.577 134.349 136.073 133.92C135.569 133.491 135.317 132.847 135.317 131.988V129.58H136.661V131.904C136.661 132.417 136.819 132.805 137.137 133.066C137.463 133.327 137.916 133.458 138.495 133.458C139.148 133.458 139.853 133.295 140.609 132.968V129.58H141.953ZM147.208 129.51C148.234 129.51 149.018 129.762 149.56 130.266C150.11 130.77 150.386 131.521 150.386 132.52V137H149.112V136.02C148.888 136.365 148.566 136.631 148.146 136.818C147.735 136.995 147.245 137.084 146.676 137.084C145.845 137.084 145.178 136.883 144.674 136.482C144.179 136.081 143.932 135.553 143.932 134.9C143.932 134.247 144.17 133.724 144.646 133.332C145.122 132.931 145.878 132.73 146.914 132.73H149.042V132.464C149.042 131.885 148.874 131.442 148.538 131.134C148.202 130.826 147.707 130.672 147.054 130.672C146.615 130.672 146.186 130.747 145.766 130.896C145.346 131.036 144.991 131.227 144.702 131.47L144.142 130.462C144.524 130.154 144.982 129.921 145.514 129.762C146.046 129.594 146.61 129.51 147.208 129.51ZM146.9 136.048C147.413 136.048 147.856 135.936 148.23 135.712C148.603 135.479 148.874 135.152 149.042 134.732V133.696H146.97C145.831 133.696 145.262 134.079 145.262 134.844C145.262 135.217 145.406 135.511 145.696 135.726C145.985 135.941 146.386 136.048 146.9 136.048ZM159.176 129.58V137H157.832V130.756H154.64L154.556 132.408C154.509 133.407 154.421 134.242 154.29 134.914C154.159 135.577 153.945 136.109 153.646 136.51C153.347 136.911 152.932 137.112 152.4 137.112C152.157 137.112 151.882 137.07 151.574 136.986L151.658 135.852C151.779 135.88 151.891 135.894 151.994 135.894C152.367 135.894 152.647 135.731 152.834 135.404C153.021 135.077 153.142 134.69 153.198 134.242C153.254 133.794 153.305 133.155 153.352 132.324L153.478 129.58H159.176ZM164.953 137.084C164.215 137.084 163.553 136.921 162.965 136.594C162.377 136.267 161.915 135.819 161.579 135.25C161.252 134.671 161.089 134.018 161.089 133.29C161.089 132.562 161.252 131.913 161.579 131.344C161.915 130.765 162.377 130.317 162.965 130C163.553 129.673 164.215 129.51 164.953 129.51C165.69 129.51 166.348 129.673 166.927 130C167.515 130.317 167.972 130.765 168.299 131.344C168.635 131.913 168.803 132.562 168.803 133.29C168.803 134.018 168.635 134.671 168.299 135.25C167.972 135.819 167.515 136.267 166.927 136.594C166.348 136.921 165.69 137.084 164.953 137.084ZM164.953 135.908C165.429 135.908 165.853 135.801 166.227 135.586C166.609 135.362 166.908 135.054 167.123 134.662C167.337 134.261 167.445 133.803 167.445 133.29C167.445 132.777 167.337 132.324 167.123 131.932C166.908 131.531 166.609 131.223 166.227 131.008C165.853 130.793 165.429 130.686 164.953 130.686C164.477 130.686 164.047 130.793 163.665 131.008C163.291 131.223 162.993 131.531 162.769 131.932C162.554 132.324 162.447 132.777 162.447 133.29C162.447 133.803 162.554 134.261 162.769 134.662C162.993 135.054 163.291 135.362 163.665 135.586C164.047 135.801 164.477 135.908 164.953 135.908ZM170.873 137.084C170.612 137.084 170.388 136.995 170.201 136.818C170.015 136.631 169.921 136.398 169.921 136.118C169.921 135.847 170.015 135.623 170.201 135.446C170.388 135.259 170.612 135.166 170.873 135.166C171.135 135.166 171.354 135.255 171.531 135.432C171.709 135.609 171.797 135.838 171.797 136.118C171.797 136.398 171.704 136.631 171.517 136.818C171.34 136.995 171.125 137.084 170.873 137.084ZM182.145 137.112C181.156 137.112 180.264 136.897 179.471 136.468C178.678 136.029 178.052 135.427 177.595 134.662C177.147 133.897 176.923 133.043 176.923 132.1C176.923 131.157 177.147 130.303 177.595 129.538C178.052 128.773 178.678 128.175 179.471 127.746C180.264 127.307 181.156 127.088 182.145 127.088C183.125 127.088 184.012 127.307 184.805 127.746C185.598 128.175 186.219 128.773 186.667 129.538C187.115 130.294 187.339 131.148 187.339 132.1C187.339 133.052 187.115 133.911 186.667 134.676C186.219 135.432 185.598 136.029 184.805 136.468C184.012 136.897 183.125 137.112 182.145 137.112ZM182.145 135.866C182.864 135.866 183.508 135.703 184.077 135.376C184.656 135.049 185.108 134.601 185.435 134.032C185.771 133.453 185.939 132.809 185.939 132.1C185.939 131.391 185.771 130.751 185.435 130.182C185.108 129.603 184.656 129.151 184.077 128.824C183.508 128.497 182.864 128.334 182.145 128.334C181.426 128.334 180.773 128.497 180.185 128.824C179.606 129.151 179.149 129.603 178.813 130.182C178.486 130.751 178.323 131.391 178.323 132.1C178.323 132.809 178.486 133.453 178.813 134.032C179.149 134.601 179.606 135.049 180.185 135.376C180.773 135.703 181.426 135.866 182.145 135.866ZM193.312 129.51C194.031 129.51 194.675 129.669 195.244 129.986C195.814 130.303 196.257 130.747 196.574 131.316C196.901 131.885 197.064 132.543 197.064 133.29C197.064 134.037 196.901 134.699 196.574 135.278C196.257 135.847 195.814 136.291 195.244 136.608C194.675 136.925 194.031 137.084 193.312 137.084C192.78 137.084 192.29 136.981 191.842 136.776C191.404 136.571 191.03 136.272 190.722 135.88V139.716H189.378V129.58H190.666V130.756C190.965 130.345 191.343 130.037 191.8 129.832C192.258 129.617 192.762 129.51 193.312 129.51ZM193.2 135.908C193.676 135.908 194.101 135.801 194.474 135.586C194.857 135.362 195.156 135.054 195.37 134.662C195.594 134.261 195.706 133.803 195.706 133.29C195.706 132.777 195.594 132.324 195.37 131.932C195.156 131.531 194.857 131.223 194.474 131.008C194.101 130.793 193.676 130.686 193.2 130.686C192.734 130.686 192.309 130.798 191.926 131.022C191.553 131.237 191.254 131.54 191.03 131.932C190.816 132.324 190.708 132.777 190.708 133.29C190.708 133.803 190.816 134.261 191.03 134.662C191.245 135.054 191.544 135.362 191.926 135.586C192.309 135.801 192.734 135.908 193.2 135.908ZM204.477 130.756H200.361V137H199.017V129.58H204.477V130.756ZM208.499 129.51C209.525 129.51 210.309 129.762 210.851 130.266C211.401 130.77 211.677 131.521 211.677 132.52V137H210.403V136.02C210.179 136.365 209.857 136.631 209.437 136.818C209.026 136.995 208.536 137.084 207.967 137.084C207.136 137.084 206.469 136.883 205.965 136.482C205.47 136.081 205.223 135.553 205.223 134.9C205.223 134.247 205.461 133.724 205.937 133.332C206.413 132.931 207.169 132.73 208.205 132.73H210.333V132.464C210.333 131.885 210.165 131.442 209.829 131.134C209.493 130.826 208.998 130.672 208.345 130.672C207.906 130.672 207.477 130.747 207.057 130.896C206.637 131.036 206.282 131.227 205.993 131.47L205.433 130.462C205.815 130.154 206.273 129.921 206.805 129.762C207.337 129.594 207.901 129.51 208.499 129.51ZM208.191 136.048C208.704 136.048 209.147 135.936 209.521 135.712C209.894 135.479 210.165 135.152 210.333 134.732V133.696H208.261C207.122 133.696 206.553 134.079 206.553 134.844C206.553 135.217 206.697 135.511 206.987 135.726C207.276 135.941 207.677 136.048 208.191 136.048ZM214.097 129.58H215.441V132.73H219.669V129.58H221.013V137H219.669V133.892H215.441V137H214.097V129.58ZM223.626 129.58H224.97V134.984L229.52 129.58H230.738V137H229.394V131.596L224.858 137H223.626V129.58ZM237.242 133.136C237.737 133.267 238.119 133.477 238.39 133.766C238.661 134.055 238.796 134.415 238.796 134.844C238.796 135.283 238.647 135.675 238.348 136.02C238.049 136.356 237.634 136.622 237.102 136.818C236.579 137.005 235.991 137.098 235.338 137.098C234.787 137.098 234.246 137.028 233.714 136.888C233.191 136.739 232.725 136.529 232.314 136.258L232.72 135.236C233.075 135.46 233.481 135.637 233.938 135.768C234.395 135.889 234.857 135.95 235.324 135.95C235.959 135.95 236.463 135.843 236.836 135.628C237.219 135.404 237.41 135.105 237.41 134.732C237.41 134.387 237.256 134.121 236.948 133.934C236.649 133.747 236.225 133.654 235.674 133.654H234.316V132.688H235.576C236.08 132.688 236.477 132.599 236.766 132.422C237.055 132.245 237.2 132.002 237.2 131.694C237.2 131.358 237.027 131.097 236.682 130.91C236.346 130.723 235.889 130.63 235.31 130.63C234.573 130.63 233.793 130.821 232.972 131.204L232.608 130.168C233.513 129.711 234.461 129.482 235.45 129.482C236.047 129.482 236.584 129.566 237.06 129.734C237.536 129.902 237.909 130.14 238.18 130.448C238.451 130.756 238.586 131.106 238.586 131.498C238.586 131.862 238.465 132.189 238.222 132.478C237.979 132.767 237.653 132.987 237.242 133.136ZM243.485 129.51C244.512 129.51 245.296 129.762 245.837 130.266C246.388 130.77 246.663 131.521 246.663 132.52V137H245.389V136.02C245.165 136.365 244.843 136.631 244.423 136.818C244.012 136.995 243.522 137.084 242.953 137.084C242.122 137.084 241.455 136.883 240.951 136.482C240.456 136.081 240.209 135.553 240.209 134.9C240.209 134.247 240.447 133.724 240.923 133.332C241.399 132.931 242.155 132.73 243.191 132.73H245.319V132.464C245.319 131.885 245.151 131.442 244.815 131.134C244.479 130.826 243.984 130.672 243.331 130.672C242.892 130.672 242.463 130.747 242.043 130.896C241.623 131.036 241.268 131.227 240.979 131.47L240.419 130.462C240.802 130.154 241.259 129.921 241.791 129.762C242.323 129.594 242.888 129.51 243.485 129.51ZM243.177 136.048C243.69 136.048 244.134 135.936 244.507 135.712C244.88 135.479 245.151 135.152 245.319 134.732V133.696H243.247C242.108 133.696 241.539 134.079 241.539 134.844C241.539 135.217 241.684 135.511 241.973 135.726C242.262 135.941 242.664 136.048 243.177 136.048ZM257.007 135.824V138.778H255.733V137H249.083V129.58H250.427V135.824H254.487V129.58H255.831V135.824H257.007ZM258.749 129.58H260.093V134.984L264.643 129.58H265.861V137H264.517V131.596L259.981 137H258.749V129.58ZM271.648 137.084C270.911 137.084 270.248 136.921 269.66 136.594C269.072 136.267 268.61 135.819 268.274 135.25C267.947 134.671 267.784 134.018 267.784 133.29C267.784 132.562 267.947 131.913 268.274 131.344C268.61 130.765 269.072 130.317 269.66 130C270.248 129.673 270.911 129.51 271.648 129.51C272.385 129.51 273.043 129.673 273.622 130C274.21 130.317 274.667 130.765 274.994 131.344C275.33 131.913 275.498 132.562 275.498 133.29C275.498 134.018 275.33 134.671 274.994 135.25C274.667 135.819 274.21 136.267 273.622 136.594C273.043 136.921 272.385 137.084 271.648 137.084ZM271.648 135.908C272.124 135.908 272.549 135.801 272.922 135.586C273.305 135.362 273.603 135.054 273.818 134.662C274.033 134.261 274.14 133.803 274.14 133.29C274.14 132.777 274.033 132.324 273.818 131.932C273.603 131.531 273.305 131.223 272.922 131.008C272.549 130.793 272.124 130.686 271.648 130.686C271.172 130.686 270.743 130.793 270.36 131.008C269.987 131.223 269.688 131.531 269.464 131.932C269.249 132.324 269.142 132.777 269.142 133.29C269.142 133.803 269.249 134.261 269.464 134.662C269.688 135.054 269.987 135.362 270.36 135.586C270.743 135.801 271.172 135.908 271.648 135.908ZM277.439 129.58H278.783V132.73H283.011V129.58H284.355V137H283.011V133.892H278.783V137H277.439V129.58ZM286.968 129.58H288.312V132.73H292.54V129.58H293.884V137H292.54V133.892H288.312V137H286.968V129.58ZM299.843 132.1C300.777 132.109 301.491 132.324 301.985 132.744C302.48 133.164 302.727 133.757 302.727 134.522C302.727 135.325 302.457 135.945 301.915 136.384C301.383 136.813 300.618 137.023 299.619 137.014L296.497 137V129.58H297.841V132.086L299.843 132.1ZM303.833 129.58H305.177V137H303.833V129.58ZM299.521 135.992C300.128 136.001 300.585 135.88 300.893 135.628C301.211 135.376 301.369 135.003 301.369 134.508C301.369 134.023 301.215 133.668 300.907 133.444C300.599 133.22 300.137 133.103 299.521 133.094L297.841 133.066V135.978L299.521 135.992ZM314.496 133.332C314.496 133.435 314.487 133.57 314.468 133.738H308.448C308.532 134.391 308.817 134.919 309.302 135.32C309.797 135.712 310.408 135.908 311.136 135.908C312.023 135.908 312.737 135.609 313.278 135.012L314.02 135.88C313.684 136.272 313.264 136.571 312.76 136.776C312.266 136.981 311.71 137.084 311.094 137.084C310.31 137.084 309.615 136.925 309.008 136.608C308.402 136.281 307.93 135.829 307.594 135.25C307.268 134.671 307.104 134.018 307.104 133.29C307.104 132.571 307.263 131.923 307.58 131.344C307.907 130.765 308.35 130.317 308.91 130C309.48 129.673 310.119 129.51 310.828 129.51C311.538 129.51 312.168 129.673 312.718 130C313.278 130.317 313.712 130.765 314.02 131.344C314.338 131.923 314.496 132.585 314.496 133.332ZM310.828 130.644C310.184 130.644 309.643 130.84 309.204 131.232C308.775 131.624 308.523 132.137 308.448 132.772H313.208C313.134 132.147 312.877 131.638 312.438 131.246C312.009 130.845 311.472 130.644 310.828 130.644ZM124.856 153.58V161H123.638V155.582L120.866 160.16H120.278L117.534 155.568V161H116.302V153.58H117.688L120.6 158.592L123.596 153.58H124.856ZM130.65 161.084C129.913 161.084 129.25 160.921 128.662 160.594C128.074 160.267 127.612 159.819 127.276 159.25C126.949 158.671 126.786 158.018 126.786 157.29C126.786 156.562 126.949 155.913 127.276 155.344C127.612 154.765 128.074 154.317 128.662 154C129.25 153.673 129.913 153.51 130.65 153.51C131.387 153.51 132.045 153.673 132.624 154C133.212 154.317 133.669 154.765 133.996 155.344C134.332 155.913 134.5 156.562 134.5 157.29C134.5 158.018 134.332 158.671 133.996 159.25C133.669 159.819 133.212 160.267 132.624 160.594C132.045 160.921 131.387 161.084 130.65 161.084ZM130.65 159.908C131.126 159.908 131.551 159.801 131.924 159.586C132.307 159.362 132.605 159.054 132.82 158.662C133.035 158.261 133.142 157.803 133.142 157.29C133.142 156.777 133.035 156.324 132.82 155.932C132.605 155.531 132.307 155.223 131.924 155.008C131.551 154.793 131.126 154.686 130.65 154.686C130.174 154.686 129.745 154.793 129.362 155.008C128.989 155.223 128.69 155.531 128.466 155.932C128.251 156.324 128.144 156.777 128.144 157.29C128.144 157.803 128.251 158.261 128.466 158.662C128.69 159.054 128.989 159.362 129.362 159.586C129.745 159.801 130.174 159.908 130.65 159.908ZM144.995 153.58V161H143.777V155.582L141.005 160.16H140.417L137.673 155.568V161H136.441V153.58H137.827L140.739 158.592L143.735 153.58H144.995ZM154.317 157.332C154.317 157.435 154.307 157.57 154.289 157.738H148.269C148.353 158.391 148.637 158.919 149.123 159.32C149.617 159.712 150.229 159.908 150.957 159.908C151.843 159.908 152.557 159.609 153.099 159.012L153.841 159.88C153.505 160.272 153.085 160.571 152.581 160.776C152.086 160.981 151.531 161.084 150.915 161.084C150.131 161.084 149.435 160.925 148.829 160.608C148.222 160.281 147.751 159.829 147.415 159.25C147.088 158.671 146.925 158.018 146.925 157.29C146.925 156.571 147.083 155.923 147.401 155.344C147.727 154.765 148.171 154.317 148.731 154C149.3 153.673 149.939 153.51 150.649 153.51C151.358 153.51 151.988 153.673 152.539 154C153.099 154.317 153.533 154.765 153.841 155.344C154.158 155.923 154.317 156.585 154.317 157.332ZM150.649 154.644C150.005 154.644 149.463 154.84 149.025 155.232C148.595 155.624 148.343 156.137 148.269 156.772H153.029C152.954 156.147 152.697 155.638 152.259 155.246C151.829 154.845 151.293 154.644 150.649 154.644ZM156.402 153.58H157.746V156.73H161.974V153.58H163.318V161H161.974V157.892H157.746V161H156.402V153.58ZM171.461 154.756H168.745V161H167.401V154.756H164.685V153.58H171.461V154.756ZM176.181 156.1C177.115 156.109 177.829 156.324 178.323 156.744C178.818 157.164 179.065 157.757 179.065 158.522C179.065 159.325 178.795 159.945 178.253 160.384C177.721 160.813 176.956 161.023 175.957 161.014L172.835 161V153.58H174.179V156.086L176.181 156.1ZM180.171 153.58H181.515V161H180.171V153.58ZM175.859 159.992C176.466 160.001 176.923 159.88 177.231 159.628C177.549 159.376 177.707 159.003 177.707 158.508C177.707 158.023 177.553 157.668 177.245 157.444C176.937 157.22 176.475 157.103 175.859 157.094L174.179 157.066V159.978L175.859 159.992ZM184.422 161.084C184.161 161.084 183.937 160.995 183.75 160.818C183.564 160.631 183.47 160.398 183.47 160.118C183.47 159.847 183.564 159.623 183.75 159.446C183.937 159.259 184.161 159.166 184.422 159.166C184.684 159.166 184.903 159.255 185.08 159.432C185.258 159.609 185.346 159.838 185.346 160.118C185.346 160.398 185.253 160.631 185.066 160.818C184.889 160.995 184.674 161.084 184.422 161.084ZM195.106 151.2C196.375 151.2 197.374 151.503 198.102 152.11C198.83 152.717 199.194 153.552 199.194 154.616C199.194 155.68 198.83 156.515 198.102 157.122C197.374 157.729 196.375 158.032 195.106 158.032H192.684V161H191.284V151.2H195.106ZM195.064 156.814C195.95 156.814 196.627 156.627 197.094 156.254C197.56 155.871 197.794 155.325 197.794 154.616C197.794 153.907 197.56 153.365 197.094 152.992C196.627 152.609 195.95 152.418 195.064 152.418H192.684V156.814H195.064ZM203.495 153.51C204.522 153.51 205.306 153.762 205.847 154.266C206.398 154.77 206.673 155.521 206.673 156.52V161H205.399V160.02C205.175 160.365 204.853 160.631 204.433 160.818C204.022 160.995 203.532 161.084 202.963 161.084C202.132 161.084 201.465 160.883 200.961 160.482C200.466 160.081 200.219 159.553 200.219 158.9C200.219 158.247 200.457 157.724 200.933 157.332C201.409 156.931 202.165 156.73 203.201 156.73H205.329V156.464C205.329 155.885 205.161 155.442 204.825 155.134C204.489 154.826 203.994 154.672 203.341 154.672C202.902 154.672 202.473 154.747 202.053 154.896C201.633 155.036 201.278 155.227 200.989 155.47L200.429 154.462C200.812 154.154 201.269 153.921 201.801 153.762C202.333 153.594 202.898 153.51 203.495 153.51ZM203.187 160.048C203.7 160.048 204.144 159.936 204.517 159.712C204.89 159.479 205.161 159.152 205.329 158.732V157.696H203.257C202.118 157.696 201.549 158.079 201.549 158.844C201.549 159.217 201.694 159.511 201.983 159.726C202.272 159.941 202.674 160.048 203.187 160.048ZM212.327 161.084C211.571 161.084 210.894 160.921 210.297 160.594C209.709 160.267 209.247 159.819 208.911 159.25C208.575 158.671 208.407 158.018 208.407 157.29C208.407 156.562 208.575 155.913 208.911 155.344C209.247 154.765 209.709 154.317 210.297 154C210.894 153.673 211.571 153.51 212.327 153.51C212.999 153.51 213.596 153.645 214.119 153.916C214.651 154.187 215.062 154.579 215.351 155.092L214.329 155.75C214.096 155.395 213.806 155.129 213.461 154.952C213.116 154.775 212.733 154.686 212.313 154.686C211.828 154.686 211.389 154.793 210.997 155.008C210.614 155.223 210.311 155.531 210.087 155.932C209.872 156.324 209.765 156.777 209.765 157.29C209.765 157.813 209.872 158.275 210.087 158.676C210.311 159.068 210.614 159.371 210.997 159.586C211.389 159.801 211.828 159.908 212.313 159.908C212.733 159.908 213.116 159.819 213.461 159.642C213.806 159.465 214.096 159.199 214.329 158.844L215.351 159.488C215.062 160.001 214.651 160.398 214.119 160.678C213.596 160.949 212.999 161.084 212.327 161.084ZM223.965 153.58V161H222.621V154.756H218.435V161H217.091V153.58H223.965ZM230.5 153.51C231.218 153.51 231.862 153.669 232.432 153.986C233.001 154.303 233.444 154.747 233.762 155.316C234.088 155.885 234.252 156.543 234.252 157.29C234.252 158.037 234.088 158.699 233.762 159.278C233.444 159.847 233.001 160.291 232.432 160.608C231.862 160.925 231.218 161.084 230.5 161.084C229.968 161.084 229.478 160.981 229.03 160.776C228.591 160.571 228.218 160.272 227.91 159.88V163.716H226.566V153.58H227.854V154.756C228.152 154.345 228.53 154.037 228.988 153.832C229.445 153.617 229.949 153.51 230.5 153.51ZM230.388 159.908C230.864 159.908 231.288 159.801 231.662 159.586C232.044 159.362 232.343 159.054 232.558 158.662C232.782 158.261 232.894 157.803 232.894 157.29C232.894 156.777 232.782 156.324 232.558 155.932C232.343 155.531 232.044 155.223 231.662 155.008C231.288 154.793 230.864 154.686 230.388 154.686C229.921 154.686 229.496 154.798 229.114 155.022C228.74 155.237 228.442 155.54 228.218 155.932C228.003 156.324 227.896 156.777 227.896 157.29C227.896 157.803 228.003 158.261 228.218 158.662C228.432 159.054 228.731 159.362 229.114 159.586C229.496 159.801 229.921 159.908 230.388 159.908ZM242.91 157.332C242.91 157.435 242.901 157.57 242.882 157.738H236.862C236.946 158.391 237.231 158.919 237.716 159.32C238.211 159.712 238.822 159.908 239.55 159.908C240.437 159.908 241.151 159.609 241.692 159.012L242.434 159.88C242.098 160.272 241.678 160.571 241.174 160.776C240.68 160.981 240.124 161.084 239.508 161.084C238.724 161.084 238.029 160.925 237.422 160.608C236.816 160.281 236.344 159.829 236.008 159.25C235.682 158.671 235.518 158.018 235.518 157.29C235.518 156.571 235.677 155.923 235.994 155.344C236.321 154.765 236.764 154.317 237.324 154C237.894 153.673 238.533 153.51 239.242 153.51C239.952 153.51 240.582 153.673 241.132 154C241.692 154.317 242.126 154.765 242.434 155.344C242.752 155.923 242.91 156.585 242.91 157.332ZM239.242 154.644C238.598 154.644 238.057 154.84 237.618 155.232C237.189 155.624 236.937 156.137 236.862 156.772H241.622C241.548 156.147 241.291 155.638 240.852 155.246C240.423 154.845 239.886 154.644 239.242 154.644ZM252.418 159.824V162.722H251.158V161H244.956V162.722H243.682V159.824H244.074C244.55 159.796 244.877 159.46 245.054 158.816C245.232 158.172 245.353 157.262 245.418 156.086L245.53 153.58H251.284V159.824H252.418ZM246.65 156.184C246.613 157.117 246.534 157.892 246.412 158.508C246.3 159.115 246.09 159.553 245.782 159.824H249.94V154.756H246.72L246.65 156.184ZM260.875 157.332C260.875 157.435 260.866 157.57 260.847 157.738H254.827C254.911 158.391 255.196 158.919 255.681 159.32C256.176 159.712 256.787 159.908 257.515 159.908C258.402 159.908 259.116 159.609 259.657 159.012L260.399 159.88C260.063 160.272 259.643 160.571 259.139 160.776C258.645 160.981 258.089 161.084 257.473 161.084C256.689 161.084 255.994 160.925 255.387 160.608C254.781 160.281 254.309 159.829 253.973 159.25C253.647 158.671 253.483 158.018 253.483 157.29C253.483 156.571 253.642 155.923 253.959 155.344C254.286 154.765 254.729 154.317 255.289 154C255.859 153.673 256.498 153.51 257.207 153.51C257.917 153.51 258.547 153.673 259.097 154C259.657 154.317 260.091 154.765 260.399 155.344C260.717 155.923 260.875 156.585 260.875 157.332ZM257.207 154.644C256.563 154.644 256.022 154.84 255.583 155.232C255.154 155.624 254.902 156.137 254.827 156.772H259.587C259.513 156.147 259.256 155.638 258.817 155.246C258.388 154.845 257.851 154.644 257.207 154.644ZM269.207 153.58V161H267.863V154.756H264.671L264.587 156.408C264.54 157.407 264.452 158.242 264.321 158.914C264.19 159.577 263.976 160.109 263.677 160.51C263.378 160.911 262.963 161.112 262.431 161.112C262.188 161.112 261.913 161.07 261.605 160.986L261.689 159.852C261.81 159.88 261.922 159.894 262.025 159.894C262.398 159.894 262.678 159.731 262.865 159.404C263.052 159.077 263.173 158.69 263.229 158.242C263.285 157.794 263.336 157.155 263.383 156.324L263.509 153.58H269.207ZM278.512 157.332C278.512 157.435 278.503 157.57 278.484 157.738H272.464C272.548 158.391 272.833 158.919 273.318 159.32C273.813 159.712 274.424 159.908 275.152 159.908C276.039 159.908 276.753 159.609 277.294 159.012L278.036 159.88C277.7 160.272 277.28 160.571 276.776 160.776C276.281 160.981 275.726 161.084 275.11 161.084C274.326 161.084 273.631 160.925 273.024 160.608C272.417 160.281 271.946 159.829 271.61 159.25C271.283 158.671 271.12 158.018 271.12 157.29C271.12 156.571 271.279 155.923 271.596 155.344C271.923 154.765 272.366 154.317 272.926 154C273.495 153.673 274.135 153.51 274.844 153.51C275.553 153.51 276.183 153.673 276.734 154C277.294 154.317 277.728 154.765 278.036 155.344C278.353 155.923 278.512 156.585 278.512 157.332ZM274.844 154.644C274.2 154.644 273.659 154.84 273.22 155.232C272.791 155.624 272.539 156.137 272.464 156.772H277.224C277.149 156.147 276.893 155.638 276.454 155.246C276.025 154.845 275.488 154.644 274.844 154.644ZM280.597 153.58H281.941V156.73H286.169V153.58H287.513V161H286.169V157.892H281.941V161H280.597V153.58ZM290.126 153.58H291.47V158.984L296.02 153.58H297.238V161H295.894V155.596L291.358 161H290.126V153.58ZM306.553 157.332C306.553 157.435 306.544 157.57 306.525 157.738H300.505C300.589 158.391 300.874 158.919 301.359 159.32C301.854 159.712 302.465 159.908 303.193 159.908C304.08 159.908 304.794 159.609 305.335 159.012L306.077 159.88C305.741 160.272 305.321 160.571 304.817 160.776C304.322 160.981 303.767 161.084 303.151 161.084C302.367 161.084 301.672 160.925 301.065 160.608C300.458 160.281 299.987 159.829 299.651 159.25C299.324 158.671 299.161 158.018 299.161 157.29C299.161 156.571 299.32 155.923 299.637 155.344C299.964 154.765 300.407 154.317 300.967 154C301.536 153.673 302.176 153.51 302.885 153.51C303.594 153.51 304.224 153.673 304.775 154C305.335 154.317 305.769 154.765 306.077 155.344C306.394 155.923 306.553 156.585 306.553 157.332ZM302.885 154.644C302.241 154.644 301.7 154.84 301.261 155.232C300.832 155.624 300.58 156.137 300.505 156.772H305.265C305.19 156.147 304.934 155.638 304.495 155.246C304.066 154.845 303.529 154.644 302.885 154.644Z" fill="white"/>
<circle cx="84" cy="133" r="6.5" stroke="#FF4F99" stroke-width="5"/>
<path d="M5.562 214.4V227H2.646V216.74H0.126V214.4H5.562ZM13.8168 219.098C14.6208 219.098 15.3528 219.26 16.0128 219.584C16.6728 219.908 17.1948 220.37 17.5788 220.97C17.9628 221.558 18.1548 222.242 18.1548 223.022C18.1548 223.862 17.9448 224.6 17.5248 225.236C17.1048 225.872 16.5288 226.364 15.7968 226.712C15.0768 227.048 14.2728 227.216 13.3848 227.216C11.6208 227.216 10.2408 226.676 9.24483 225.596C8.24883 224.516 7.75083 222.974 7.75083 220.97C7.75083 219.542 8.02083 218.318 8.56083 217.298C9.10083 216.278 9.85083 215.504 10.8108 214.976C11.7828 214.448 12.9048 214.184 14.1768 214.184C14.8488 214.184 15.4908 214.262 16.1028 214.418C16.7268 214.562 17.2548 214.772 17.6868 215.048L16.6068 217.19C15.9828 216.77 15.1968 216.56 14.2488 216.56C13.1808 216.56 12.3348 216.872 11.7108 217.496C11.0868 218.12 10.7508 219.026 10.7028 220.214C11.4468 219.47 12.4848 219.098 13.8168 219.098ZM13.2228 225.038C13.8468 225.038 14.3508 224.87 14.7348 224.534C15.1308 224.198 15.3288 223.742 15.3288 223.166C15.3288 222.59 15.1308 222.134 14.7348 221.798C14.3508 221.45 13.8348 221.276 13.1868 221.276C12.5508 221.276 12.0288 221.456 11.6208 221.816C11.2128 222.164 11.0088 222.614 11.0088 223.166C11.0088 223.718 11.2068 224.168 11.6028 224.516C11.9988 224.864 12.5388 225.038 13.2228 225.038ZM20.8678 220.682C20.3758 220.682 19.9618 220.514 19.6258 220.178C19.2898 219.842 19.1218 219.422 19.1218 218.918C19.1218 218.402 19.2898 217.988 19.6258 217.676C19.9618 217.352 20.3758 217.19 20.8678 217.19C21.3598 217.19 21.7738 217.352 22.1098 217.676C22.4458 217.988 22.6138 218.402 22.6138 218.918C22.6138 219.422 22.4458 219.842 22.1098 220.178C21.7738 220.514 21.3598 220.682 20.8678 220.682ZM20.8678 227.144C20.3758 227.144 19.9618 226.976 19.6258 226.64C19.2898 226.304 19.1218 225.884 19.1218 225.38C19.1218 224.864 19.2898 224.45 19.6258 224.138C19.9618 223.814 20.3758 223.652 20.8678 223.652C21.3598 223.652 21.7738 223.814 22.1098 224.138C22.4458 224.45 22.6138 224.864 22.6138 225.38C22.6138 225.884 22.4458 226.304 22.1098 226.64C21.7738 226.976 21.3598 227.144 20.8678 227.144ZM29.8087 219.53C30.9127 219.71 31.7587 220.124 32.3467 220.772C32.9347 221.408 33.2287 222.2 33.2287 223.148C33.2287 223.88 33.0367 224.558 32.6527 225.182C32.2687 225.794 31.6807 226.286 30.8887 226.658C30.1087 227.03 29.1487 227.216 28.0087 227.216C27.1207 227.216 26.2447 227.102 25.3807 226.874C24.5287 226.634 23.8027 226.298 23.2027 225.866L24.3367 223.634C24.8167 223.994 25.3687 224.276 25.9927 224.48C26.6287 224.672 27.2767 224.768 27.9367 224.768C28.6687 224.768 29.2447 224.63 29.6647 224.354C30.0847 224.066 30.2947 223.664 30.2947 223.148C30.2947 222.116 29.5087 221.6 27.9367 221.6H26.6047V219.674L29.1967 216.74H23.8327V214.4H32.6527V216.29L29.8087 219.53ZM39.975 227.216C38.931 227.216 38.001 226.958 37.185 226.442C36.369 225.926 35.727 225.182 35.259 224.21C34.803 223.226 34.575 222.056 34.575 220.7C34.575 219.344 34.803 218.18 35.259 217.208C35.727 216.224 36.369 215.474 37.185 214.958C38.001 214.442 38.931 214.184 39.975 214.184C41.019 214.184 41.949 214.442 42.765 214.958C43.581 215.474 44.217 216.224 44.673 217.208C45.141 218.18 45.375 219.344 45.375 220.7C45.375 222.056 45.141 223.226 44.673 224.21C44.217 225.182 43.581 225.926 42.765 226.442C41.949 226.958 41.019 227.216 39.975 227.216ZM39.975 224.75C40.743 224.75 41.343 224.42 41.775 223.76C42.219 223.1 42.441 222.08 42.441 220.7C42.441 219.32 42.219 218.3 41.775 217.64C41.343 216.98 40.743 216.65 39.975 216.65C39.219 216.65 38.619 216.98 38.175 217.64C37.743 218.3 37.527 219.32 37.527 220.7C37.527 222.08 37.743 223.1 38.175 223.76C38.619 224.42 39.219 224.75 39.975 224.75Z" fill="#FF4F99"/>
<path d="M120.908 225.112C119.928 225.112 119.041 224.897 118.248 224.468C117.464 224.029 116.848 223.432 116.4 222.676C115.952 221.911 115.728 221.052 115.728 220.1C115.728 219.148 115.952 218.294 116.4 217.538C116.848 216.773 117.469 216.175 118.262 215.746C119.055 215.307 119.942 215.088 120.922 215.088C121.687 215.088 122.387 215.219 123.022 215.48C123.657 215.732 124.198 216.11 124.646 216.614L123.736 217.496C122.999 216.721 122.079 216.334 120.978 216.334C120.25 216.334 119.592 216.497 119.004 216.824C118.416 217.151 117.954 217.603 117.618 218.182C117.291 218.751 117.128 219.391 117.128 220.1C117.128 220.809 117.291 221.453 117.618 222.032C117.954 222.601 118.416 223.049 119.004 223.376C119.592 223.703 120.25 223.866 120.978 223.866C122.07 223.866 122.989 223.474 123.736 222.69L124.646 223.572C124.198 224.076 123.652 224.459 123.008 224.72C122.373 224.981 121.673 225.112 120.908 225.112ZM131.676 218.756H128.96V225H127.616V218.756H124.9V217.58H131.676V218.756ZM135.696 217.51C136.723 217.51 137.507 217.762 138.048 218.266C138.599 218.77 138.874 219.521 138.874 220.52V225H137.6V224.02C137.376 224.365 137.054 224.631 136.634 224.818C136.223 224.995 135.733 225.084 135.164 225.084C134.333 225.084 133.666 224.883 133.162 224.482C132.667 224.081 132.42 223.553 132.42 222.9C132.42 222.247 132.658 221.724 133.134 221.332C133.61 220.931 134.366 220.73 135.402 220.73H137.53V220.464C137.53 219.885 137.362 219.442 137.026 219.134C136.69 218.826 136.195 218.672 135.542 218.672C135.103 218.672 134.674 218.747 134.254 218.896C133.834 219.036 133.479 219.227 133.19 219.47L132.63 218.462C133.013 218.154 133.47 217.921 134.002 217.762C134.534 217.594 135.099 217.51 135.696 217.51ZM135.388 224.048C135.901 224.048 136.345 223.936 136.718 223.712C137.091 223.479 137.362 223.152 137.53 222.732V221.696H135.458C134.319 221.696 133.75 222.079 133.75 222.844C133.75 223.217 133.895 223.511 134.184 223.726C134.473 223.941 134.875 224.048 135.388 224.048ZM145.228 217.51C145.947 217.51 146.591 217.669 147.16 217.986C147.73 218.303 148.173 218.747 148.49 219.316C148.817 219.885 148.98 220.543 148.98 221.29C148.98 222.037 148.817 222.699 148.49 223.278C148.173 223.847 147.73 224.291 147.16 224.608C146.591 224.925 145.947 225.084 145.228 225.084C144.696 225.084 144.206 224.981 143.758 224.776C143.32 224.571 142.946 224.272 142.638 223.88V227.716H141.294V217.58H142.582V218.756C142.881 218.345 143.259 218.037 143.716 217.832C144.174 217.617 144.678 217.51 145.228 217.51ZM145.116 223.908C145.592 223.908 146.017 223.801 146.39 223.586C146.773 223.362 147.072 223.054 147.286 222.662C147.51 222.261 147.622 221.803 147.622 221.29C147.622 220.777 147.51 220.324 147.286 219.932C147.072 219.531 146.773 219.223 146.39 219.008C146.017 218.793 145.592 218.686 145.116 218.686C144.65 218.686 144.225 218.798 143.842 219.022C143.469 219.237 143.17 219.54 142.946 219.932C142.732 220.324 142.624 220.777 142.624 221.29C142.624 221.803 142.732 222.261 142.946 222.662C143.161 223.054 143.46 223.362 143.842 223.586C144.225 223.801 144.65 223.908 145.116 223.908ZM156.189 218.756H153.473V225H152.129V218.756H149.413V217.58H156.189V218.756ZM165.957 225L163.815 222.158L161.645 225H160.147L163.073 221.206L160.287 217.58H161.785L163.829 220.254L165.859 217.58H167.329L164.529 221.206L167.483 225H165.957ZM171.407 217.51C172.434 217.51 173.218 217.762 173.759 218.266C174.31 218.77 174.585 219.521 174.585 220.52V225H173.311V224.02C173.087 224.365 172.765 224.631 172.345 224.818C171.934 224.995 171.444 225.084 170.875 225.084C170.044 225.084 169.377 224.883 168.873 224.482C168.378 224.081 168.131 223.553 168.131 222.9C168.131 222.247 168.369 221.724 168.845 221.332C169.321 220.931 170.077 220.73 171.113 220.73H173.241V220.464C173.241 219.885 173.073 219.442 172.737 219.134C172.401 218.826 171.906 218.672 171.253 218.672C170.814 218.672 170.385 218.747 169.965 218.896C169.545 219.036 169.19 219.227 168.901 219.47L168.341 218.462C168.724 218.154 169.181 217.921 169.713 217.762C170.245 217.594 170.81 217.51 171.407 217.51ZM171.099 224.048C171.612 224.048 172.056 223.936 172.429 223.712C172.802 223.479 173.073 223.152 173.241 222.732V221.696H171.169C170.03 221.696 169.461 222.079 169.461 222.844C169.461 223.217 169.606 223.511 169.895 223.726C170.184 223.941 170.586 224.048 171.099 224.048ZM179.889 221.864H178.349V225H177.005V217.58H178.349V220.716H179.917L182.325 217.58H183.767L180.953 221.15L183.963 225H182.381L179.889 221.864ZM187.882 217.51C188.908 217.51 189.692 217.762 190.234 218.266C190.784 218.77 191.06 219.521 191.06 220.52V225H189.786V224.02C189.562 224.365 189.24 224.631 188.82 224.818C188.409 224.995 187.919 225.084 187.35 225.084C186.519 225.084 185.852 224.883 185.348 224.482C184.853 224.081 184.606 223.553 184.606 222.9C184.606 222.247 184.844 221.724 185.32 221.332C185.796 220.931 186.552 220.73 187.588 220.73H189.716V220.464C189.716 219.885 189.548 219.442 189.212 219.134C188.876 218.826 188.381 218.672 187.728 218.672C187.289 218.672 186.86 218.747 186.44 218.896C186.02 219.036 185.665 219.227 185.376 219.47L184.816 218.462C185.198 218.154 185.656 217.921 186.188 217.762C186.72 217.594 187.284 217.51 187.882 217.51ZM187.574 224.048C188.087 224.048 188.53 223.936 188.904 223.712C189.277 223.479 189.548 223.152 189.716 222.732V221.696H187.644C186.505 221.696 185.936 222.079 185.936 222.844C185.936 223.217 186.08 223.511 186.37 223.726C186.659 223.941 187.06 224.048 187.574 224.048ZM199.01 218.756H196.294V225H194.95V218.756H192.234V217.58H199.01V218.756ZM203.234 225.084C202.497 225.084 201.834 224.921 201.246 224.594C200.658 224.267 200.196 223.819 199.86 223.25C199.533 222.671 199.37 222.018 199.37 221.29C199.37 220.562 199.533 219.913 199.86 219.344C200.196 218.765 200.658 218.317 201.246 218C201.834 217.673 202.497 217.51 203.234 217.51C203.971 217.51 204.629 217.673 205.208 218C205.796 218.317 206.253 218.765 206.58 219.344C206.916 219.913 207.084 220.562 207.084 221.29C207.084 222.018 206.916 222.671 206.58 223.25C206.253 223.819 205.796 224.267 205.208 224.594C204.629 224.921 203.971 225.084 203.234 225.084ZM203.234 223.908C203.71 223.908 204.135 223.801 204.508 223.586C204.891 223.362 205.189 223.054 205.404 222.662C205.619 222.261 205.726 221.803 205.726 221.29C205.726 220.777 205.619 220.324 205.404 219.932C205.189 219.531 204.891 219.223 204.508 219.008C204.135 218.793 203.71 218.686 203.234 218.686C202.758 218.686 202.329 218.793 201.946 219.008C201.573 219.223 201.274 219.531 201.05 219.932C200.835 220.324 200.728 220.777 200.728 221.29C200.728 221.803 200.835 222.261 201.05 222.662C201.274 223.054 201.573 223.362 201.946 223.586C202.329 223.801 202.758 223.908 203.234 223.908ZM209.025 217.58H210.369V220.73H214.597V217.58H215.941V225H214.597V221.892H210.369V225H209.025V217.58ZM221.2 217.51C222.227 217.51 223.011 217.762 223.552 218.266C224.103 218.77 224.378 219.521 224.378 220.52V225H223.104V224.02C222.88 224.365 222.558 224.631 222.138 224.818C221.727 224.995 221.237 225.084 220.668 225.084C219.837 225.084 219.17 224.883 218.666 224.482C218.171 224.081 217.924 223.553 217.924 222.9C217.924 222.247 218.162 221.724 218.638 221.332C219.114 220.931 219.87 220.73 220.906 220.73H223.034V220.464C223.034 219.885 222.866 219.442 222.53 219.134C222.194 218.826 221.699 218.672 221.046 218.672C220.607 218.672 220.178 218.747 219.758 218.896C219.338 219.036 218.983 219.227 218.694 219.47L218.134 218.462C218.517 218.154 218.974 217.921 219.506 217.762C220.038 217.594 220.603 217.51 221.2 217.51ZM220.892 224.048C221.405 224.048 221.849 223.936 222.222 223.712C222.595 223.479 222.866 223.152 223.034 222.732V221.696H220.962C219.823 221.696 219.254 222.079 219.254 222.844C219.254 223.217 219.399 223.511 219.688 223.726C219.977 223.941 220.379 224.048 220.892 224.048Z" fill="white"/>
<circle cx="84" cy="220" r="6.5" stroke="#FF4F99" stroke-width="5"/>
<path d="M10.116 311.624V314H0.594V312.11L5.454 307.52C5.97 307.028 6.318 306.608 6.498 306.26C6.678 305.9 6.768 305.546 6.768 305.198C6.768 304.694 6.594 304.31 6.246 304.046C5.91 303.77 5.412 303.632 4.752 303.632C4.2 303.632 3.702 303.74 3.258 303.956C2.814 304.16 2.442 304.472 2.142 304.892L0.018 303.524C0.51 302.792 1.188 302.222 2.052 301.814C2.916 301.394 3.906 301.184 5.022 301.184C5.958 301.184 6.774 301.34 7.47 301.652C8.178 301.952 8.724 302.384 9.108 302.948C9.504 303.5 9.702 304.154 9.702 304.91C9.702 305.594 9.558 306.236 9.27 306.836C8.982 307.436 8.424 308.12 7.596 308.888L4.698 311.624H10.116ZM16.684 314.216C15.64 314.216 14.71 313.958 13.894 313.442C13.078 312.926 12.436 312.182 11.968 311.21C11.512 310.226 11.284 309.056 11.284 307.7C11.284 306.344 11.512 305.18 11.968 304.208C12.436 303.224 13.078 302.474 13.894 301.958C14.71 301.442 15.64 301.184 16.684 301.184C17.728 301.184 18.658 301.442 19.474 301.958C20.29 302.474 20.926 303.224 21.382 304.208C21.85 305.18 22.084 306.344 22.084 307.7C22.084 309.056 21.85 310.226 21.382 311.21C20.926 312.182 20.29 312.926 19.474 313.442C18.658 313.958 17.728 314.216 16.684 314.216ZM16.684 311.75C17.452 311.75 18.052 311.42 18.484 310.76C18.928 310.1 19.15 309.08 19.15 307.7C19.15 306.32 18.928 305.3 18.484 304.64C18.052 303.98 17.452 303.65 16.684 303.65C15.928 303.65 15.328 303.98 14.884 304.64C14.452 305.3 14.236 306.32 14.236 307.7C14.236 309.08 14.452 310.1 14.884 310.76C15.328 311.42 15.928 311.75 16.684 311.75ZM25.1568 307.682C24.6648 307.682 24.2508 307.514 23.9148 307.178C23.5788 306.842 23.4108 306.422 23.4108 305.918C23.4108 305.402 23.5788 304.988 23.9148 304.676C24.2508 304.352 24.6648 304.19 25.1568 304.19C25.6488 304.19 26.0628 304.352 26.3988 304.676C26.7348 304.988 26.9028 305.402 26.9028 305.918C26.9028 306.422 26.7348 306.842 26.3988 307.178C26.0628 307.514 25.6488 307.682 25.1568 307.682ZM25.1568 314.144C24.6648 314.144 24.2508 313.976 23.9148 313.64C23.5788 313.304 23.4108 312.884 23.4108 312.38C23.4108 311.864 23.5788 311.45 23.9148 311.138C24.2508 310.814 24.6648 310.652 25.1568 310.652C25.6488 310.652 26.0628 310.814 26.3988 311.138C26.7348 311.45 26.9028 311.864 26.9028 312.38C26.9028 312.884 26.7348 313.304 26.3988 313.64C26.0628 313.976 25.6488 314.144 25.1568 314.144ZM33.6118 314.216C32.5678 314.216 31.6378 313.958 30.8218 313.442C30.0058 312.926 29.3638 312.182 28.8958 311.21C28.4398 310.226 28.2118 309.056 28.2118 307.7C28.2118 306.344 28.4398 305.18 28.8958 304.208C29.3638 303.224 30.0058 302.474 30.8218 301.958C31.6378 301.442 32.5678 301.184 33.6118 301.184C34.6558 301.184 35.5858 301.442 36.4018 301.958C37.2178 302.474 37.8538 303.224 38.3098 304.208C38.7778 305.18 39.0118 306.344 39.0118 307.7C39.0118 309.056 38.7778 310.226 38.3098 311.21C37.8538 312.182 37.2178 312.926 36.4018 313.442C35.5858 313.958 34.6558 314.216 33.6118 314.216ZM33.6118 311.75C34.3798 311.75 34.9798 311.42 35.4118 310.76C35.8558 310.1 36.0778 309.08 36.0778 307.7C36.0778 306.32 35.8558 305.3 35.4118 304.64C34.9798 303.98 34.3798 303.65 33.6118 303.65C32.8558 303.65 32.2558 303.98 31.8118 304.64C31.3798 305.3 31.1638 306.32 31.1638 307.7C31.1638 309.08 31.3798 310.1 31.8118 310.76C32.2558 311.42 32.8558 311.75 33.6118 311.75ZM45.8286 314.216C44.7846 314.216 43.8546 313.958 43.0386 313.442C42.2226 312.926 41.5806 312.182 41.1126 311.21C40.6566 310.226 40.4286 309.056 40.4286 307.7C40.4286 306.344 40.6566 305.18 41.1126 304.208C41.5806 303.224 42.2226 302.474 43.0386 301.958C43.8546 301.442 44.7846 301.184 45.8286 301.184C46.8726 301.184 47.8026 301.442 48.6186 301.958C49.4346 302.474 50.0706 303.224 50.5266 304.208C50.9946 305.18 51.2286 306.344 51.2286 307.7C51.2286 309.056 50.9946 310.226 50.5266 311.21C50.0706 312.182 49.4346 312.926 48.6186 313.442C47.8026 313.958 46.8726 314.216 45.8286 314.216ZM45.8286 311.75C46.5966 311.75 47.1966 311.42 47.6286 310.76C48.0726 310.1 48.2946 309.08 48.2946 307.7C48.2946 306.32 48.0726 305.3 47.6286 304.64C47.1966 303.98 46.5966 303.65 45.8286 303.65C45.0726 303.65 44.4726 303.98 44.0286 304.64C43.5966 305.3 43.3806 306.32 43.3806 307.7C43.3806 309.08 43.5966 310.1 44.0286 310.76C44.4726 311.42 45.0726 311.75 45.8286 311.75Z" fill="#FF4F99"/>
<path d="M123.778 302.2V312H122.392V308.122C121.356 308.523 120.399 308.724 119.522 308.724C118.327 308.724 117.399 308.435 116.736 307.856C116.083 307.277 115.756 306.451 115.756 305.378V302.2H117.128V305.224C117.128 305.952 117.347 306.512 117.786 306.904C118.234 307.296 118.864 307.492 119.676 307.492C120.581 307.492 121.487 307.287 122.392 306.876V302.2H123.778ZM133.317 308.332C133.317 308.435 133.307 308.57 133.289 308.738H127.269C127.353 309.391 127.637 309.919 128.123 310.32C128.617 310.712 129.229 310.908 129.957 310.908C130.843 310.908 131.557 310.609 132.099 310.012L132.841 310.88C132.505 311.272 132.085 311.571 131.581 311.776C131.086 311.981 130.531 312.084 129.915 312.084C129.131 312.084 128.435 311.925 127.829 311.608C127.222 311.281 126.751 310.829 126.415 310.25C126.088 309.671 125.925 309.018 125.925 308.29C125.925 307.571 126.083 306.923 126.401 306.344C126.727 305.765 127.171 305.317 127.731 305C128.3 304.673 128.939 304.51 129.649 304.51C130.358 304.51 130.988 304.673 131.539 305C132.099 305.317 132.533 305.765 132.841 306.344C133.158 306.923 133.317 307.585 133.317 308.332ZM129.649 305.644C129.005 305.644 128.463 305.84 128.025 306.232C127.595 306.624 127.343 307.137 127.269 307.772H132.029C131.954 307.147 131.697 306.638 131.259 306.246C130.829 305.845 130.293 305.644 129.649 305.644ZM138.286 308.864H136.746V312H135.402V304.58H136.746V307.716H138.314L140.722 304.58H142.164L139.35 308.15L142.36 312H140.778L138.286 308.864ZM142.937 307.576H146.703V308.738H142.937V307.576ZM155.674 304.58V312H154.33V305.756H150.144V312H148.8V304.58H155.674ZM161.453 312.084C160.715 312.084 160.053 311.921 159.465 311.594C158.877 311.267 158.415 310.819 158.079 310.25C157.752 309.671 157.589 309.018 157.589 308.29C157.589 307.562 157.752 306.913 158.079 306.344C158.415 305.765 158.877 305.317 159.465 305C160.053 304.673 160.715 304.51 161.453 304.51C162.19 304.51 162.848 304.673 163.427 305C164.015 305.317 164.472 305.765 164.799 306.344C165.135 306.913 165.303 307.562 165.303 308.29C165.303 309.018 165.135 309.671 164.799 310.25C164.472 310.819 164.015 311.267 163.427 311.594C162.848 311.921 162.19 312.084 161.453 312.084ZM161.453 310.908C161.929 310.908 162.353 310.801 162.727 310.586C163.109 310.362 163.408 310.054 163.623 309.662C163.837 309.261 163.945 308.803 163.945 308.29C163.945 307.777 163.837 307.324 163.623 306.932C163.408 306.531 163.109 306.223 162.727 306.008C162.353 305.793 161.929 305.686 161.453 305.686C160.977 305.686 160.547 305.793 160.165 306.008C159.791 306.223 159.493 306.531 159.269 306.932C159.054 307.324 158.947 307.777 158.947 308.29C158.947 308.803 159.054 309.261 159.269 309.662C159.493 310.054 159.791 310.362 160.165 310.586C160.547 310.801 160.977 310.908 161.453 310.908ZM167.243 304.58H168.587V309.984L173.137 304.58H174.355V312H173.011V306.596L168.475 312H167.243V304.58ZM170.715 303.614C170.025 303.614 169.488 303.451 169.105 303.124C168.723 302.788 168.527 302.307 168.517 301.682H169.427C169.437 302.027 169.553 302.307 169.777 302.522C170.011 302.727 170.319 302.83 170.701 302.83C171.084 302.83 171.392 302.727 171.625 302.522C171.859 302.307 171.98 302.027 171.989 301.682H172.927C172.918 302.307 172.717 302.788 172.325 303.124C171.933 303.451 171.397 303.614 170.715 303.614ZM176.964 304.58H178.308V307.73H182.536V304.58H183.88V312H182.536V308.892H178.308V312H176.964V304.58ZM192.023 305.756H189.307V312H187.963V305.756H185.247V304.58H192.023V305.756ZM209.519 306.638C209.043 306.638 208.614 306.54 208.231 306.344C207.858 306.148 207.564 305.877 207.349 305.532C207.135 305.187 207.027 304.799 207.027 304.37C207.027 303.941 207.135 303.553 207.349 303.208C207.564 302.863 207.858 302.597 208.231 302.41C208.614 302.214 209.043 302.116 209.519 302.116C209.995 302.116 210.42 302.214 210.793 302.41C211.176 302.597 211.47 302.863 211.675 303.208C211.89 303.553 211.997 303.941 211.997 304.37C211.997 304.799 211.89 305.187 211.675 305.532C211.47 305.877 211.176 306.148 210.793 306.344C210.42 306.54 209.995 306.638 209.519 306.638ZM204.353 302.2H205.753V312H204.605L198.725 304.692V312H197.325V302.2H198.473L204.353 309.508V302.2ZM209.519 302.914C209.053 302.914 208.675 303.049 208.385 303.32C208.105 303.591 207.965 303.941 207.965 304.37C207.965 304.799 208.11 305.149 208.399 305.42C208.689 305.691 209.062 305.826 209.519 305.826C209.977 305.826 210.345 305.691 210.625 305.42C210.915 305.149 211.059 304.799 211.059 304.37C211.059 303.941 210.915 303.591 210.625 303.32C210.345 303.049 209.977 302.914 209.519 302.914ZM207.307 307.744H211.731V308.654H207.307V307.744ZM220.183 302.2V312H218.797V303.418H216.585V302.2H220.183Z" fill="white"/>
<circle cx="84" cy="308" r="6.5" stroke="#FF4F99" stroke-width="5"/>
<path d="M10.116 399.624V402H0.594V400.11L5.454 395.52C5.97 395.028 6.318 394.608 6.498 394.26C6.678 393.9 6.768 393.546 6.768 393.198C6.768 392.694 6.594 392.31 6.246 392.046C5.91 391.77 5.412 391.632 4.752 391.632C4.2 391.632 3.702 391.74 3.258 391.956C2.814 392.16 2.442 392.472 2.142 392.892L0.018 391.524C0.51 390.792 1.188 390.222 2.052 389.814C2.916 389.394 3.906 389.184 5.022 389.184C5.958 389.184 6.774 389.34 7.47 389.652C8.178 389.952 8.724 390.384 9.108 390.948C9.504 391.5 9.702 392.154 9.702 392.91C9.702 393.594 9.558 394.236 9.27 394.836C8.982 395.436 8.424 396.12 7.596 396.888L4.698 399.624H10.116ZM20.7332 399.624V402H11.2112V400.11L16.0712 395.52C16.5872 395.028 16.9352 394.608 17.1152 394.26C17.2952 393.9 17.3852 393.546 17.3852 393.198C17.3852 392.694 17.2112 392.31 16.8632 392.046C16.5272 391.77 16.0292 391.632 15.3692 391.632C14.8172 391.632 14.3192 391.74 13.8752 391.956C13.4312 392.16 13.0592 392.472 12.7592 392.892L10.6352 391.524C11.1272 390.792 11.8052 390.222 12.6692 389.814C13.5332 389.394 14.5232 389.184 15.6392 389.184C16.5752 389.184 17.3912 389.34 18.0872 389.652C18.7952 389.952 19.3412 390.384 19.7252 390.948C20.1212 391.5 20.3192 392.154 20.3192 392.91C20.3192 393.594 20.1752 394.236 19.8872 394.836C19.5992 395.436 19.0412 396.12 18.2132 396.888L15.3152 399.624H20.7332ZM23.5924 395.682C23.1004 395.682 22.6864 395.514 22.3504 395.178C22.0144 394.842 21.8464 394.422 21.8464 393.918C21.8464 393.402 22.0144 392.988 22.3504 392.676C22.6864 392.352 23.1004 392.19 23.5924 392.19C24.0844 392.19 24.4984 392.352 24.8344 392.676C25.1704 392.988 25.3384 393.402 25.3384 393.918C25.3384 394.422 25.1704 394.842 24.8344 395.178C24.4984 395.514 24.0844 395.682 23.5924 395.682ZM23.5924 402.144C23.1004 402.144 22.6864 401.976 22.3504 401.64C22.0144 401.304 21.8464 400.884 21.8464 400.38C21.8464 399.864 22.0144 399.45 22.3504 399.138C22.6864 398.814 23.1004 398.652 23.5924 398.652C24.0844 398.652 24.4984 398.814 24.8344 399.138C25.1704 399.45 25.3384 399.864 25.3384 400.38C25.3384 400.884 25.1704 401.304 24.8344 401.64C24.4984 401.976 24.0844 402.144 23.5924 402.144ZM32.0473 402.216C31.0033 402.216 30.0733 401.958 29.2573 401.442C28.4413 400.926 27.7993 400.182 27.3313 399.21C26.8753 398.226 26.6473 397.056 26.6473 395.7C26.6473 394.344 26.8753 393.18 27.3313 392.208C27.7993 391.224 28.4413 390.474 29.2573 389.958C30.0733 389.442 31.0033 389.184 32.0473 389.184C33.0913 389.184 34.0213 389.442 34.8373 389.958C35.6533 390.474 36.2893 391.224 36.7453 392.208C37.2133 393.18 37.4473 394.344 37.4473 395.7C37.4473 397.056 37.2133 398.226 36.7453 399.21C36.2893 400.182 35.6533 400.926 34.8373 401.442C34.0213 401.958 33.0913 402.216 32.0473 402.216ZM32.0473 399.75C32.8153 399.75 33.4153 399.42 33.8473 398.76C34.2913 398.1 34.5133 397.08 34.5133 395.7C34.5133 394.32 34.2913 393.3 33.8473 392.64C33.4153 391.98 32.8153 391.65 32.0473 391.65C31.2913 391.65 30.6913 391.98 30.2473 392.64C29.8153 393.3 29.5993 394.32 29.5993 395.7C29.5993 397.08 29.8153 398.1 30.2473 398.76C30.6913 399.42 31.2913 399.75 32.0473 399.75ZM44.2641 402.216C43.2201 402.216 42.2901 401.958 41.4741 401.442C40.6581 400.926 40.0161 400.182 39.5481 399.21C39.0921 398.226 38.8641 397.056 38.8641 395.7C38.8641 394.344 39.0921 393.18 39.5481 392.208C40.0161 391.224 40.6581 390.474 41.4741 389.958C42.2901 389.442 43.2201 389.184 44.2641 389.184C45.3081 389.184 46.2381 389.442 47.0541 389.958C47.8701 390.474 48.5061 391.224 48.9621 392.208C49.4301 393.18 49.6641 394.344 49.6641 395.7C49.6641 397.056 49.4301 398.226 48.9621 399.21C48.5061 400.182 47.8701 400.926 47.0541 401.442C46.2381 401.958 45.3081 402.216 44.2641 402.216ZM44.2641 399.75C45.0321 399.75 45.6321 399.42 46.0641 398.76C46.5081 398.1 46.7301 397.08 46.7301 395.7C46.7301 394.32 46.5081 393.3 46.0641 392.64C45.6321 391.98 45.0321 391.65 44.2641 391.65C43.5081 391.65 42.9081 391.98 42.4641 392.64C42.0321 393.3 41.8161 394.32 41.8161 395.7C41.8161 397.08 42.0321 398.1 42.4641 398.76C42.9081 399.42 43.5081 399.75 44.2641 399.75ZM51.3852 395.808H56.4792V398.058H51.3852V395.808ZM6.102 429.216C5.058 429.216 4.128 428.958 3.312 428.442C2.496 427.926 1.854 427.182 1.386 426.21C0.93 425.226 0.702 424.056 0.702 422.7C0.702 421.344 0.93 420.18 1.386 419.208C1.854 418.224 2.496 417.474 3.312 416.958C4.128 416.442 5.058 416.184 6.102 416.184C7.146 416.184 8.076 416.442 8.892 416.958C9.708 417.474 10.344 418.224 10.8 419.208C11.268 420.18 11.502 421.344 11.502 422.7C11.502 424.056 11.268 425.226 10.8 426.21C10.344 427.182 9.708 427.926 8.892 428.442C8.076 428.958 7.146 429.216 6.102 429.216ZM6.102 426.75C6.87 426.75 7.47 426.42 7.902 425.76C8.346 425.1 8.568 424.08 8.568 422.7C8.568 421.32 8.346 420.3 7.902 419.64C7.47 418.98 6.87 418.65 6.102 418.65C5.346 418.65 4.746 418.98 4.302 419.64C3.87 420.3 3.654 421.32 3.654 422.7C3.654 424.08 3.87 425.1 4.302 425.76C4.746 426.42 5.346 426.75 6.102 426.75ZM18.3188 429.216C17.2748 429.216 16.3448 428.958 15.5288 428.442C14.7128 427.926 14.0708 427.182 13.6028 426.21C13.1468 425.226 12.9188 424.056 12.9188 422.7C12.9188 421.344 13.1468 420.18 13.6028 419.208C14.0708 418.224 14.7128 417.474 15.5288 416.958C16.3448 416.442 17.2748 416.184 18.3188 416.184C19.3628 416.184 20.2928 416.442 21.1088 416.958C21.9248 417.474 22.5608 418.224 23.0168 419.208C23.4848 420.18 23.7188 421.344 23.7188 422.7C23.7188 424.056 23.4848 425.226 23.0168 426.21C22.5608 427.182 21.9248 427.926 21.1088 428.442C20.2928 428.958 19.3628 429.216 18.3188 429.216ZM18.3188 426.75C19.0868 426.75 19.6868 426.42 20.1188 425.76C20.5628 425.1 20.7848 424.08 20.7848 422.7C20.7848 421.32 20.5628 420.3 20.1188 419.64C19.6868 418.98 19.0868 418.65 18.3188 418.65C17.5628 418.65 16.9628 418.98 16.5188 419.64C16.0868 420.3 15.8708 421.32 15.8708 422.7C15.8708 424.08 16.0868 425.1 16.5188 425.76C16.9628 426.42 17.5628 426.75 18.3188 426.75ZM26.7916 422.682C26.2996 422.682 25.8856 422.514 25.5496 422.178C25.2136 421.842 25.0456 421.422 25.0456 420.918C25.0456 420.402 25.2136 419.988 25.5496 419.676C25.8856 419.352 26.2996 419.19 26.7916 419.19C27.2836 419.19 27.6976 419.352 28.0336 419.676C28.3696 419.988 28.5376 420.402 28.5376 420.918C28.5376 421.422 28.3696 421.842 28.0336 422.178C27.6976 422.514 27.2836 422.682 26.7916 422.682ZM26.7916 429.144C26.2996 429.144 25.8856 428.976 25.5496 428.64C25.2136 428.304 25.0456 427.884 25.0456 427.38C25.0456 426.864 25.2136 426.45 25.5496 426.138C25.8856 425.814 26.2996 425.652 26.7916 425.652C27.2836 425.652 27.6976 425.814 28.0336 426.138C28.3696 426.45 28.5376 426.864 28.5376 427.38C28.5376 427.884 28.3696 428.304 28.0336 428.64C27.6976 428.976 27.2836 429.144 26.7916 429.144ZM35.2465 429.216C34.2025 429.216 33.2725 428.958 32.4565 428.442C31.6405 427.926 30.9985 427.182 30.5305 426.21C30.0745 425.226 29.8465 424.056 29.8465 422.7C29.8465 421.344 30.0745 420.18 30.5305 419.208C30.9985 418.224 31.6405 417.474 32.4565 416.958C33.2725 416.442 34.2025 416.184 35.2465 416.184C36.2905 416.184 37.2205 416.442 38.0365 416.958C38.8525 417.474 39.4885 418.224 39.9445 419.208C40.4125 420.18 40.6465 421.344 40.6465 422.7C40.6465 424.056 40.4125 425.226 39.9445 426.21C39.4885 427.182 38.8525 427.926 38.0365 428.442C37.2205 428.958 36.2905 429.216 35.2465 429.216ZM35.2465 426.75C36.0145 426.75 36.6145 426.42 37.0465 425.76C37.4905 425.1 37.7125 424.08 37.7125 422.7C37.7125 421.32 37.4905 420.3 37.0465 419.64C36.6145 418.98 36.0145 418.65 35.2465 418.65C34.4905 418.65 33.8905 418.98 33.4465 419.64C33.0145 420.3 32.7985 421.32 32.7985 422.7C32.7985 424.08 33.0145 425.1 33.4465 425.76C33.8905 426.42 34.4905 426.75 35.2465 426.75ZM47.4633 429.216C46.4193 429.216 45.4893 428.958 44.6733 428.442C43.8573 427.926 43.2153 427.182 42.7473 426.21C42.2913 425.226 42.0633 424.056 42.0633 422.7C42.0633 421.344 42.2913 420.18 42.7473 419.208C43.2153 418.224 43.8573 417.474 44.6733 416.958C45.4893 416.442 46.4193 416.184 47.4633 416.184C48.5073 416.184 49.4373 416.442 50.2533 416.958C51.0693 417.474 51.7053 418.224 52.1613 419.208C52.6293 420.18 52.8633 421.344 52.8633 422.7C52.8633 424.056 52.6293 425.226 52.1613 426.21C51.7053 427.182 51.0693 427.926 50.2533 428.442C49.4373 428.958 48.5073 429.216 47.4633 429.216ZM47.4633 426.75C48.2313 426.75 48.8313 426.42 49.2633 425.76C49.7073 425.1 49.9293 424.08 49.9293 422.7C49.9293 421.32 49.7073 420.3 49.2633 419.64C48.8313 418.98 48.2313 418.65 47.4633 418.65C46.7073 418.65 46.1073 418.98 45.6633 419.64C45.2313 420.3 45.0153 421.32 45.0153 422.7C45.0153 424.08 45.2313 425.1 45.6633 425.76C46.1073 426.42 46.7073 426.75 47.4633 426.75Z" fill="#FF4F99"/>
<path d="M120.348 390.2C121.617 390.2 122.616 390.503 123.344 391.11C124.072 391.717 124.436 392.552 124.436 393.616C124.436 394.68 124.072 395.515 123.344 396.122C122.616 396.729 121.617 397.032 120.348 397.032H117.926V400H116.526V390.2H120.348ZM120.306 395.814C121.193 395.814 121.869 395.627 122.336 395.254C122.803 394.871 123.036 394.325 123.036 393.616C123.036 392.907 122.803 392.365 122.336 391.992C121.869 391.609 121.193 391.418 120.306 391.418H117.926V395.814H120.306ZM128.737 392.51C129.764 392.51 130.548 392.762 131.089 393.266C131.64 393.77 131.915 394.521 131.915 395.52V400H130.641V399.02C130.417 399.365 130.095 399.631 129.675 399.818C129.264 399.995 128.774 400.084 128.205 400.084C127.374 400.084 126.707 399.883 126.203 399.482C125.708 399.081 125.461 398.553 125.461 397.9C125.461 397.247 125.699 396.724 126.175 396.332C126.651 395.931 127.407 395.73 128.443 395.73H130.571V395.464C130.571 394.885 130.403 394.442 130.067 394.134C129.731 393.826 129.236 393.672 128.583 393.672C128.144 393.672 127.715 393.747 127.295 393.896C126.875 394.036 126.52 394.227 126.231 394.47L125.671 393.462C126.054 393.154 126.511 392.921 127.043 392.762C127.575 392.594 128.14 392.51 128.737 392.51ZM128.429 399.048C128.942 399.048 129.386 398.936 129.759 398.712C130.132 398.479 130.403 398.152 130.571 397.732V396.696H128.499C127.36 396.696 126.791 397.079 126.791 397.844C126.791 398.217 126.936 398.511 127.225 398.726C127.514 398.941 127.916 399.048 128.429 399.048ZM138.23 396.136C138.725 396.267 139.107 396.477 139.378 396.766C139.649 397.055 139.784 397.415 139.784 397.844C139.784 398.283 139.635 398.675 139.336 399.02C139.037 399.356 138.622 399.622 138.09 399.818C137.567 400.005 136.979 400.098 136.326 400.098C135.775 400.098 135.234 400.028 134.702 399.888C134.179 399.739 133.713 399.529 133.302 399.258L133.708 398.236C134.063 398.46 134.469 398.637 134.926 398.768C135.383 398.889 135.845 398.95 136.312 398.95C136.947 398.95 137.451 398.843 137.824 398.628C138.207 398.404 138.398 398.105 138.398 397.732C138.398 397.387 138.244 397.121 137.936 396.934C137.637 396.747 137.213 396.654 136.662 396.654H135.304V395.688H136.564C137.068 395.688 137.465 395.599 137.754 395.422C138.043 395.245 138.188 395.002 138.188 394.694C138.188 394.358 138.015 394.097 137.67 393.91C137.334 393.723 136.877 393.63 136.298 393.63C135.561 393.63 134.781 393.821 133.96 394.204L133.596 393.168C134.501 392.711 135.449 392.482 136.438 392.482C137.035 392.482 137.572 392.566 138.048 392.734C138.524 392.902 138.897 393.14 139.168 393.448C139.439 393.756 139.574 394.106 139.574 394.498C139.574 394.862 139.453 395.189 139.21 395.478C138.967 395.767 138.641 395.987 138.23 396.136ZM146.881 396.15C147.843 396.393 148.323 396.995 148.323 397.956C148.323 398.609 148.076 399.113 147.581 399.468C147.096 399.823 146.368 400 145.397 400H141.827V392.58H145.271C146.149 392.58 146.835 392.748 147.329 393.084C147.824 393.411 148.071 393.877 148.071 394.484C148.071 394.876 147.964 395.217 147.749 395.506C147.544 395.786 147.255 396.001 146.881 396.15ZM143.143 395.772H145.159C145.673 395.772 146.06 395.679 146.321 395.492C146.592 395.305 146.727 395.035 146.727 394.68C146.727 393.971 146.205 393.616 145.159 393.616H143.143V395.772ZM145.299 398.964C145.859 398.964 146.279 398.875 146.559 398.698C146.839 398.521 146.979 398.245 146.979 397.872C146.979 397.489 146.849 397.205 146.587 397.018C146.335 396.831 145.934 396.738 145.383 396.738H143.143V398.964H145.299ZM156.797 392.58V400H155.453V393.756H152.261L152.177 395.408C152.13 396.407 152.042 397.242 151.911 397.914C151.78 398.577 151.566 399.109 151.267 399.51C150.968 399.911 150.553 400.112 150.021 400.112C149.778 400.112 149.503 400.07 149.195 399.986L149.279 398.852C149.4 398.88 149.512 398.894 149.615 398.894C149.988 398.894 150.268 398.731 150.455 398.404C150.642 398.077 150.763 397.69 150.819 397.242C150.875 396.794 150.926 396.155 150.973 395.324L151.099 392.58H156.797ZM166.102 396.332C166.102 396.435 166.092 396.57 166.074 396.738H160.054C160.138 397.391 160.422 397.919 160.908 398.32C161.402 398.712 162.014 398.908 162.742 398.908C163.628 398.908 164.342 398.609 164.884 398.012L165.626 398.88C165.29 399.272 164.87 399.571 164.366 399.776C163.871 399.981 163.316 400.084 162.7 400.084C161.916 400.084 161.22 399.925 160.614 399.608C160.007 399.281 159.536 398.829 159.2 398.25C158.873 397.671 158.71 397.018 158.71 396.29C158.71 395.571 158.868 394.923 159.186 394.344C159.512 393.765 159.956 393.317 160.516 393C161.085 392.673 161.724 392.51 162.434 392.51C163.143 392.51 163.773 392.673 164.324 393C164.884 393.317 165.318 393.765 165.626 394.344C165.943 394.923 166.102 395.585 166.102 396.332ZM162.434 393.644C161.79 393.644 161.248 393.84 160.81 394.232C160.38 394.624 160.128 395.137 160.054 395.772H164.814C164.739 395.147 164.482 394.638 164.044 394.246C163.614 393.845 163.078 393.644 162.434 393.644ZM171.071 396.864H169.531V400H168.187V392.58H169.531V395.716H171.099L173.507 392.58H174.949L172.135 396.15L175.145 400H173.563L171.071 396.864ZM179.063 392.51C180.09 392.51 180.874 392.762 181.415 393.266C181.966 393.77 182.241 394.521 182.241 395.52V400H180.967V399.02C180.743 399.365 180.421 399.631 180.001 399.818C179.591 399.995 179.101 400.084 178.531 400.084C177.701 400.084 177.033 399.883 176.529 399.482C176.035 399.081 175.787 398.553 175.787 397.9C175.787 397.247 176.025 396.724 176.501 396.332C176.977 395.931 177.733 395.73 178.769 395.73H180.897V395.464C180.897 394.885 180.729 394.442 180.393 394.134C180.057 393.826 179.563 393.672 178.909 393.672C178.471 393.672 178.041 393.747 177.621 393.896C177.201 394.036 176.847 394.227 176.557 394.47L175.997 393.462C176.38 393.154 176.837 392.921 177.369 392.762C177.901 392.594 178.466 392.51 179.063 392.51ZM178.755 399.048C179.269 399.048 179.712 398.936 180.085 398.712C180.459 398.479 180.729 398.152 180.897 397.732V396.696H178.825C177.687 396.696 177.117 397.079 177.117 397.844C177.117 398.217 177.262 398.511 177.551 398.726C177.841 398.941 178.242 399.048 178.755 399.048ZM190.191 393.756H187.475V400H186.131V393.756H183.415V392.58H190.191V393.756ZM197.944 396.332C197.944 396.435 197.934 396.57 197.916 396.738H191.896C191.98 397.391 192.264 397.919 192.75 398.32C193.244 398.712 193.856 398.908 194.584 398.908C195.47 398.908 196.184 398.609 196.726 398.012L197.468 398.88C197.132 399.272 196.712 399.571 196.208 399.776C195.713 399.981 195.158 400.084 194.542 400.084C193.758 400.084 193.062 399.925 192.456 399.608C191.849 399.281 191.378 398.829 191.042 398.25C190.715 397.671 190.552 397.018 190.552 396.29C190.552 395.571 190.71 394.923 191.028 394.344C191.354 393.765 191.798 393.317 192.358 393C192.927 392.673 193.566 392.51 194.276 392.51C194.985 392.51 195.615 392.673 196.166 393C196.726 393.317 197.16 393.765 197.468 394.344C197.785 394.923 197.944 395.585 197.944 396.332ZM194.276 393.644C193.632 393.644 193.09 393.84 192.652 394.232C192.222 394.624 191.97 395.137 191.896 395.772H196.656C196.581 395.147 196.324 394.638 195.886 394.246C195.456 393.845 194.92 393.644 194.276 393.644ZM206.276 392.58V400H204.932V393.756H201.74L201.656 395.408C201.609 396.407 201.52 397.242 201.39 397.914C201.259 398.577 201.044 399.109 200.746 399.51C200.447 399.911 200.032 400.112 199.5 400.112C199.257 400.112 198.982 400.07 198.674 399.986L198.758 398.852C198.879 398.88 198.991 398.894 199.094 398.894C199.467 398.894 199.747 398.731 199.934 398.404C200.12 398.077 200.242 397.69 200.298 397.242C200.354 396.794 200.405 396.155 200.452 395.324L200.578 392.58H206.276ZM212.304 395.1C213.247 395.109 213.966 395.324 214.46 395.744C214.955 396.164 215.202 396.757 215.202 397.522C215.202 398.325 214.932 398.945 214.39 399.384C213.858 399.813 213.093 400.023 212.094 400.014L208.874 400V392.58H210.218V395.086L212.304 395.1ZM211.982 398.992C212.589 399.001 213.046 398.88 213.354 398.628C213.672 398.376 213.83 398.003 213.83 397.508C213.83 397.023 213.676 396.668 213.368 396.444C213.07 396.22 212.608 396.103 211.982 396.094L210.218 396.066V398.978L211.982 398.992ZM216.927 392.58H218.271V395.73H222.499V392.58H223.843V400H222.499V396.892H218.271V400H216.927V392.58ZM229.102 392.51C230.129 392.51 230.913 392.762 231.454 393.266C232.005 393.77 232.28 394.521 232.28 395.52V400H231.006V399.02C230.782 399.365 230.46 399.631 230.04 399.818C229.63 399.995 229.14 400.084 228.57 400.084C227.74 400.084 227.072 399.883 226.568 399.482C226.074 399.081 225.826 398.553 225.826 397.9C225.826 397.247 226.064 396.724 226.54 396.332C227.016 395.931 227.772 395.73 228.808 395.73H230.936V395.464C230.936 394.885 230.768 394.442 230.432 394.134C230.096 393.826 229.602 393.672 228.948 393.672C228.51 393.672 228.08 393.747 227.66 393.896C227.24 394.036 226.886 394.227 226.596 394.47L226.036 393.462C226.419 393.154 226.876 392.921 227.408 392.762C227.94 392.594 228.505 392.51 229.102 392.51ZM228.794 399.048C229.308 399.048 229.751 398.936 230.124 398.712C230.498 398.479 230.768 398.152 230.936 397.732V396.696H228.864C227.726 396.696 227.156 397.079 227.156 397.844C227.156 398.217 227.301 398.511 227.59 398.726C227.88 398.941 228.281 399.048 228.794 399.048ZM240.65 392.58V400H239.446V397.648H237.29H237.136L235.512 400H234.07L235.876 397.466C235.316 397.298 234.887 397.023 234.588 396.64C234.29 396.248 234.14 395.763 234.14 395.184C234.14 394.335 234.43 393.691 235.008 393.252C235.587 392.804 236.385 392.58 237.402 392.58H240.65ZM235.512 395.226C235.512 395.721 235.666 396.089 235.974 396.332C236.292 396.565 236.763 396.682 237.388 396.682H239.446V393.756H237.444C236.156 393.756 235.512 394.246 235.512 395.226ZM253.906 392.58V400H252.562V393.756H248.376V400H247.032V392.58H253.906ZM262.877 392.58V400H261.533V393.756H258.341L258.257 395.408C258.21 396.407 258.122 397.242 257.991 397.914C257.86 398.577 257.646 399.109 257.347 399.51C257.048 399.911 256.633 400.112 256.101 400.112C255.858 400.112 255.583 400.07 255.275 399.986L255.359 398.852C255.48 398.88 255.592 398.894 255.695 398.894C256.068 398.894 256.348 398.731 256.535 398.404C256.722 398.077 256.843 397.69 256.899 397.242C256.955 396.794 257.006 396.155 257.053 395.324L257.179 392.58H262.877ZM268.654 400.084C267.916 400.084 267.254 399.921 266.666 399.594C266.078 399.267 265.616 398.819 265.28 398.25C264.953 397.671 264.79 397.018 264.79 396.29C264.79 395.562 264.953 394.913 265.28 394.344C265.616 393.765 266.078 393.317 266.666 393C267.254 392.673 267.916 392.51 268.654 392.51C269.391 392.51 270.049 392.673 270.628 393C271.216 393.317 271.673 393.765 272 394.344C272.336 394.913 272.504 395.562 272.504 396.29C272.504 397.018 272.336 397.671 272 398.25C271.673 398.819 271.216 399.267 270.628 399.594C270.049 399.921 269.391 400.084 268.654 400.084ZM268.654 398.908C269.13 398.908 269.554 398.801 269.928 398.586C270.31 398.362 270.609 398.054 270.824 397.662C271.038 397.261 271.146 396.803 271.146 396.29C271.146 395.777 271.038 395.324 270.824 394.932C270.609 394.531 270.31 394.223 269.928 394.008C269.554 393.793 269.13 393.686 268.654 393.686C268.178 393.686 267.748 393.793 267.366 394.008C266.992 394.223 266.694 394.531 266.47 394.932C266.255 395.324 266.148 395.777 266.148 396.29C266.148 396.803 266.255 397.261 266.47 397.662C266.694 398.054 266.992 398.362 267.366 398.586C267.748 398.801 268.178 398.908 268.654 398.908ZM285.015 392.58V400H274.445V392.58H275.789V398.824H279.065V392.58H280.409V398.824H283.671V392.58H285.015ZM286.121 398.824V401.582H284.861V400H283.615V398.824H286.121ZM290.27 392.51C291.297 392.51 292.081 392.762 292.622 393.266C293.173 393.77 293.448 394.521 293.448 395.52V400H292.174V399.02C291.95 399.365 291.628 399.631 291.208 399.818C290.798 399.995 290.308 400.084 289.738 400.084C288.908 400.084 288.24 399.883 287.736 399.482C287.242 399.081 286.994 398.553 286.994 397.9C286.994 397.247 287.232 396.724 287.708 396.332C288.184 395.931 288.94 395.73 289.976 395.73H292.104V395.464C292.104 394.885 291.936 394.442 291.6 394.134C291.264 393.826 290.77 393.672 290.116 393.672C289.678 393.672 289.248 393.747 288.828 393.896C288.408 394.036 288.054 394.227 287.764 394.47L287.204 393.462C287.587 393.154 288.044 392.921 288.576 392.762C289.108 392.594 289.673 392.51 290.27 392.51ZM289.962 399.048C290.476 399.048 290.919 398.936 291.292 398.712C291.666 398.479 291.936 398.152 292.104 397.732V396.696H290.032C288.894 396.696 288.324 397.079 288.324 397.844C288.324 398.217 288.469 398.511 288.758 398.726C289.048 398.941 289.449 399.048 289.962 399.048ZM303.414 398.824V401.722H302.154V400H295.952V401.722H294.678V398.824H295.07C295.546 398.796 295.873 398.46 296.05 397.816C296.228 397.172 296.349 396.262 296.414 395.086L296.526 392.58H302.28V398.824H303.414ZM297.646 395.184C297.609 396.117 297.53 396.892 297.408 397.508C297.296 398.115 297.086 398.553 296.778 398.824H300.936V393.756H297.716L297.646 395.184ZM308.049 396.864H306.509V400H305.165V392.58H306.509V395.716H308.077L310.485 392.58H311.927L309.113 396.15L312.123 400H310.541L308.049 396.864ZM316.042 392.51C317.068 392.51 317.852 392.762 318.394 393.266C318.944 393.77 319.22 394.521 319.22 395.52V400H317.946V399.02C317.722 399.365 317.4 399.631 316.98 399.818C316.569 399.995 316.079 400.084 315.51 400.084C314.679 400.084 314.012 399.883 313.508 399.482C313.013 399.081 312.766 398.553 312.766 397.9C312.766 397.247 313.004 396.724 313.48 396.332C313.956 395.931 314.712 395.73 315.748 395.73H317.876V395.464C317.876 394.885 317.708 394.442 317.372 394.134C317.036 393.826 316.541 393.672 315.888 393.672C315.449 393.672 315.02 393.747 314.6 393.896C314.18 394.036 313.825 394.227 313.536 394.47L312.976 393.462C313.358 393.154 313.816 392.921 314.348 392.762C314.88 392.594 315.444 392.51 316.042 392.51ZM315.734 399.048C316.247 399.048 316.69 398.936 317.064 398.712C317.437 398.479 317.708 398.152 317.876 397.732V396.696H315.804C314.665 396.696 314.096 397.079 314.096 397.844C314.096 398.217 314.24 398.511 314.53 398.726C314.819 398.941 315.22 399.048 315.734 399.048Z" fill="white"/>
<circle cx="84" cy="396" r="6.5" stroke="#FF4F99" stroke-width="5"/>
</svg>
