<svg width="365" height="518" viewBox="0 0 365 518" fill="none" xmlns="http://www.w3.org/2000/svg">
<path d="M108 52H3C1.34315 52 0 53.3431 0 55V79C0 80.6569 1.34315 82 3 82H108C109.657 82 111 80.6569 111 79V55C111 53.3431 109.657 52 108 52Z" fill="#FF4F99"/>
<path d="M30.803 61V75H27.563V63.6H24.763V61H30.803ZM39.9751 66.22C40.8684 66.22 41.6817 66.4 42.4151 66.76C43.1484 67.12 43.7284 67.6333 44.1551 68.3C44.5817 68.9533 44.7951 69.7133 44.7951 70.58C44.7951 71.5133 44.5617 72.3333 44.0951 73.04C43.6284 73.7467 42.9884 74.2933 42.1751 74.68C41.3751 75.0533 40.4817 75.24 39.4951 75.24C37.5351 75.24 36.0017 74.64 34.8951 73.44C33.7884 72.24 33.2351 70.5267 33.2351 68.3C33.2351 66.7133 33.5351 65.3533 34.1351 64.22C34.7351 63.0867 35.5684 62.2267 36.6351 61.64C37.7151 61.0533 38.9617 60.76 40.3751 60.76C41.1217 60.76 41.8351 60.8467 42.5151 61.02C43.2084 61.18 43.7951 61.4133 44.2751 61.72L43.0751 64.1C42.3817 63.6333 41.5084 63.4 40.4551 63.4C39.2684 63.4 38.3284 63.7467 37.6351 64.44C36.9417 65.1333 36.5684 66.14 36.5151 67.46C37.3417 66.6333 38.4951 66.22 39.9751 66.22ZM39.3151 72.82C40.0084 72.82 40.5684 72.6333 40.9951 72.26C41.4351 71.8867 41.6551 71.38 41.6551 70.74C41.6551 70.1 41.4351 69.5933 40.9951 69.22C40.5684 68.8333 39.9951 68.64 39.2751 68.64C38.5684 68.64 37.9884 68.84 37.5351 69.24C37.0817 69.6267 36.8551 70.1267 36.8551 70.74C36.8551 71.3533 37.0751 71.8533 37.5151 72.24C37.9551 72.6267 38.5551 72.82 39.3151 72.82ZM57.3935 75.16C56.2602 75.16 55.2402 74.9267 54.3335 74.46C53.4402 73.98 52.7402 73.32 52.2335 72.48C51.7268 71.64 51.4735 70.6867 51.4735 69.62C51.4735 68.5533 51.7268 67.6 52.2335 66.76C52.7402 65.92 53.4402 65.2667 54.3335 64.8C55.2402 64.32 56.2602 64.08 57.3935 64.08C58.5268 64.08 59.5402 64.32 60.4335 64.8C61.3268 65.2667 62.0268 65.92 62.5335 66.76C63.0402 67.6 63.2935 68.5533 63.2935 69.62C63.2935 70.6867 63.0402 71.64 62.5335 72.48C62.0268 73.32 61.3268 73.98 60.4335 74.46C59.5402 74.9267 58.5268 75.16 57.3935 75.16ZM57.3935 72.6C58.1935 72.6 58.8468 72.3333 59.3535 71.8C59.8735 71.2533 60.1335 70.5267 60.1335 69.62C60.1335 68.7133 59.8735 67.9933 59.3535 67.46C58.8468 66.9133 58.1935 66.64 57.3935 66.64C56.5935 66.64 55.9335 66.9133 55.4135 67.46C54.8935 67.9933 54.6335 68.7133 54.6335 69.62C54.6335 70.5267 54.8935 71.2533 55.4135 71.8C55.9335 72.3333 56.5935 72.6 57.3935 72.6ZM70.1795 70.92H68.5595V75H65.4395V64.24H68.5595V68.42H70.2395L73.1595 64.24H76.4795L72.7195 69.4L76.7395 75H73.0595L70.1795 70.92ZM87.2138 66.8H83.5738V75H80.4738V66.8H76.8338V64.24H87.2138V66.8Z" fill="#0C1324"/>
<path d="M26.697 20.644V29.785H21.747V25H5.445V29.785H0.494995L0.527995 20.644H1.452C2.838 20.6 3.817 19.588 4.389 17.608C4.961 15.628 5.313 12.801 5.445 9.12699L5.709 1.89999H23.463V20.644H26.697ZM10.164 9.62199C10.054 12.372 9.82299 14.682 9.47099 16.552C9.11899 18.4 8.58 19.764 7.854 20.644H18.183V6.25599H10.263L10.164 9.62199ZM46.9332 16.189C46.9332 16.255 46.9002 16.717 46.8342 17.575H33.4032C33.6452 18.675 34.2172 19.544 35.1192 20.182C36.0212 20.82 37.1432 21.139 38.4852 21.139C39.4092 21.139 40.2232 21.007 40.9272 20.743C41.6532 20.457 42.3242 20.017 42.9402 19.423L45.6792 22.393C44.0072 24.307 41.5652 25.264 38.3532 25.264C36.3512 25.264 34.5802 24.879 33.0402 24.109C31.5002 23.317 30.3122 22.228 29.4762 20.842C28.6402 19.456 28.2222 17.883 28.2222 16.123C28.2222 14.385 28.6292 12.823 29.4432 11.437C30.2792 10.029 31.4122 8.93999 32.8422 8.16999C34.2942 7.37799 35.9112 6.98199 37.6932 6.98199C39.4312 6.98199 41.0042 7.35599 42.4122 8.10399C43.8202 8.85199 44.9202 9.92999 45.7122 11.338C46.5262 12.724 46.9332 14.341 46.9332 16.189ZM37.7262 10.876C36.5602 10.876 35.5812 11.206 34.7892 11.866C33.9972 12.526 33.5132 13.428 33.3372 14.572H42.0822C41.9062 13.45 41.4222 12.559 40.6302 11.899C39.8382 11.217 38.8702 10.876 37.7262 10.876ZM50.8793 7.24599H55.9943V14.176H63.7163V7.24599H68.8643V25H63.7163V18.367H55.9943V25H50.8793V7.24599ZM83.3954 12.922C85.7054 12.944 87.4764 13.472 88.7084 14.506C89.9404 15.518 90.5564 16.959 90.5564 18.829C90.5564 20.787 89.8634 22.316 88.4774 23.416C87.1134 24.494 85.1884 25.033 82.7024 25.033L73.7924 25V7.24599H78.9074V12.922H83.3954ZM82.2404 21.37C83.2304 21.392 83.9894 21.183 84.5174 20.743C85.0454 20.303 85.3094 19.643 85.3094 18.763C85.3094 17.905 85.0454 17.278 84.5174 16.882C84.0114 16.486 83.2524 16.277 82.2404 16.255L78.9074 16.222V21.37H82.2404ZM110.841 1.89999V25H105.495V6.18999H100.875V1.89999H110.841Z" fill="#FF4F99"/>
<path d="M84 139.5V211" stroke="white" stroke-dasharray="3 3"/>
<path d="M84 317V388.5" stroke="white" stroke-dasharray="3 3"/>
<path d="M84 227V298.5" stroke="white" stroke-dasharray="3 3"/>
<path d="M84 404V475.5" stroke="white" stroke-dasharray="3 3"/>
<path d="M5.56201 126.4V139H2.64601V128.74H0.126007V126.4H5.56201ZM13.8168 131.098C14.6208 131.098 15.3528 131.26 16.0128 131.584C16.6728 131.908 17.1948 132.37 17.5788 132.97C17.9628 133.558 18.1548 134.242 18.1548 135.022C18.1548 135.862 17.9448 136.6 17.5248 137.236C17.1048 137.872 16.5288 138.364 15.7968 138.712C15.0768 139.048 14.2728 139.216 13.3848 139.216C11.6208 139.216 10.2408 138.676 9.24484 137.596C8.24884 136.516 7.75084 134.974 7.75084 132.97C7.75084 131.542 8.02084 130.318 8.56084 129.298C9.10084 128.278 9.85084 127.504 10.8108 126.976C11.7828 126.448 12.9048 126.184 14.1768 126.184C14.8488 126.184 15.4908 126.262 16.1028 126.418C16.7268 126.562 17.2548 126.772 17.6868 127.048L16.6068 129.19C15.9828 128.77 15.1968 128.56 14.2488 128.56C13.1808 128.56 12.3348 128.872 11.7108 129.496C11.0868 130.12 10.7508 131.026 10.7028 132.214C11.4468 131.47 12.4848 131.098 13.8168 131.098ZM13.2228 137.038C13.8468 137.038 14.3508 136.87 14.7348 136.534C15.1308 136.198 15.3288 135.742 15.3288 135.166C15.3288 134.59 15.1308 134.134 14.7348 133.798C14.3508 133.45 13.8348 133.276 13.1868 133.276C12.5508 133.276 12.0288 133.456 11.6208 133.816C11.2128 134.164 11.0088 134.614 11.0088 135.166C11.0088 135.718 11.2068 136.168 11.6028 136.516C11.9988 136.864 12.5388 137.038 13.2228 137.038ZM20.8678 132.682C20.3758 132.682 19.9618 132.514 19.6258 132.178C19.2898 131.842 19.1218 131.422 19.1218 130.918C19.1218 130.402 19.2898 129.988 19.6258 129.676C19.9618 129.352 20.3758 129.19 20.8678 129.19C21.3598 129.19 21.7738 129.352 22.1098 129.676C22.4458 129.988 22.6138 130.402 22.6138 130.918C22.6138 131.422 22.4458 131.842 22.1098 132.178C21.7738 132.514 21.3598 132.682 20.8678 132.682ZM20.8678 139.144C20.3758 139.144 19.9618 138.976 19.6258 138.64C19.2898 138.304 19.1218 137.884 19.1218 137.38C19.1218 136.864 19.2898 136.45 19.6258 136.138C19.9618 135.814 20.3758 135.652 20.8678 135.652C21.3598 135.652 21.7738 135.814 22.1098 136.138C22.4458 136.45 22.6138 136.864 22.6138 137.38C22.6138 137.884 22.4458 138.304 22.1098 138.64C21.7738 138.976 21.3598 139.144 20.8678 139.144ZM29.3227 139.216C28.2787 139.216 27.3487 138.958 26.5327 138.442C25.7167 137.926 25.0747 137.182 24.6067 136.21C24.1507 135.226 23.9227 134.056 23.9227 132.7C23.9227 131.344 24.1507 130.18 24.6067 129.208C25.0747 128.224 25.7167 127.474 26.5327 126.958C27.3487 126.442 28.2787 126.184 29.3227 126.184C30.3667 126.184 31.2967 126.442 32.1127 126.958C32.9287 127.474 33.5647 128.224 34.0207 129.208C34.4887 130.18 34.7227 131.344 34.7227 132.7C34.7227 134.056 34.4887 135.226 34.0207 136.21C33.5647 137.182 32.9287 137.926 32.1127 138.442C31.2967 138.958 30.3667 139.216 29.3227 139.216ZM29.3227 136.75C30.0907 136.75 30.6907 136.42 31.1227 135.76C31.5667 135.1 31.7887 134.08 31.7887 132.7C31.7887 131.32 31.5667 130.3 31.1227 129.64C30.6907 128.98 30.0907 128.65 29.3227 128.65C28.5667 128.65 27.9667 128.98 27.5227 129.64C27.0907 130.3 26.8747 131.32 26.8747 132.7C26.8747 134.08 27.0907 135.1 27.5227 135.76C27.9667 136.42 28.5667 136.75 29.3227 136.75ZM41.5395 139.216C40.4955 139.216 39.5655 138.958 38.7495 138.442C37.9335 137.926 37.2915 137.182 36.8235 136.21C36.3675 135.226 36.1395 134.056 36.1395 132.7C36.1395 131.344 36.3675 130.18 36.8235 129.208C37.2915 128.224 37.9335 127.474 38.7495 126.958C39.5655 126.442 40.4955 126.184 41.5395 126.184C42.5835 126.184 43.5135 126.442 44.3295 126.958C45.1455 127.474 45.7815 128.224 46.2375 129.208C46.7055 130.18 46.9395 131.344 46.9395 132.7C46.9395 134.056 46.7055 135.226 46.2375 136.21C45.7815 137.182 45.1455 137.926 44.3295 138.442C43.5135 138.958 42.5835 139.216 41.5395 139.216ZM41.5395 136.75C42.3075 136.75 42.9075 136.42 43.3395 135.76C43.7835 135.1 44.0055 134.08 44.0055 132.7C44.0055 131.32 43.7835 130.3 43.3395 129.64C42.9075 128.98 42.3075 128.65 41.5395 128.65C40.7835 128.65 40.1835 128.98 39.7395 129.64C39.3075 130.3 39.0915 131.32 39.0915 132.7C39.0915 134.08 39.3075 135.1 39.7395 135.76C40.1835 136.42 40.7835 136.75 41.5395 136.75Z" fill="#FF4F99"/>
<path d="M124.954 127.2V137H123.554V132.632H117.926V137H116.526V127.2H117.926V131.414H123.554V127.2H124.954ZM130.432 129.51C131.459 129.51 132.243 129.762 132.784 130.266C133.335 130.77 133.61 131.521 133.61 132.52V137H132.336V136.02C132.112 136.365 131.79 136.631 131.37 136.818C130.96 136.995 130.47 137.084 129.9 137.084C129.07 137.084 128.402 136.883 127.898 136.482C127.404 136.081 127.156 135.553 127.156 134.9C127.156 134.247 127.394 133.724 127.87 133.332C128.346 132.931 129.102 132.73 130.138 132.73H132.266V132.464C132.266 131.885 132.098 131.442 131.762 131.134C131.426 130.826 130.932 130.672 130.278 130.672C129.84 130.672 129.41 130.747 128.99 130.896C128.57 131.036 128.216 131.227 127.926 131.47L127.366 130.462C127.749 130.154 128.206 129.921 128.738 129.762C129.27 129.594 129.835 129.51 130.432 129.51ZM130.124 136.048C130.638 136.048 131.081 135.936 131.454 135.712C131.828 135.479 132.098 135.152 132.266 134.732V133.696H130.194C129.056 133.696 128.486 134.079 128.486 134.844C128.486 135.217 128.631 135.511 128.92 135.726C129.21 135.941 129.611 136.048 130.124 136.048ZM141.953 129.58V137H140.609V134.004C139.806 134.377 139.008 134.564 138.215 134.564C137.291 134.564 136.577 134.349 136.073 133.92C135.569 133.491 135.317 132.847 135.317 131.988V129.58H136.661V131.904C136.661 132.417 136.819 132.805 137.137 133.066C137.463 133.327 137.916 133.458 138.495 133.458C139.148 133.458 139.853 133.295 140.609 132.968V129.58H141.953ZM147.208 129.51C148.234 129.51 149.018 129.762 149.56 130.266C150.11 130.77 150.386 131.521 150.386 132.52V137H149.112V136.02C148.888 136.365 148.566 136.631 148.146 136.818C147.735 136.995 147.245 137.084 146.676 137.084C145.845 137.084 145.178 136.883 144.674 136.482C144.179 136.081 143.932 135.553 143.932 134.9C143.932 134.247 144.17 133.724 144.646 133.332C145.122 132.931 145.878 132.73 146.914 132.73H149.042V132.464C149.042 131.885 148.874 131.442 148.538 131.134C148.202 130.826 147.707 130.672 147.054 130.672C146.615 130.672 146.186 130.747 145.766 130.896C145.346 131.036 144.991 131.227 144.702 131.47L144.142 130.462C144.524 130.154 144.982 129.921 145.514 129.762C146.046 129.594 146.61 129.51 147.208 129.51ZM146.9 136.048C147.413 136.048 147.856 135.936 148.23 135.712C148.603 135.479 148.874 135.152 149.042 134.732V133.696H146.97C145.831 133.696 145.262 134.079 145.262 134.844C145.262 135.217 145.406 135.511 145.696 135.726C145.985 135.941 146.386 136.048 146.9 136.048ZM159.176 129.58V137H157.832V130.756H154.64L154.556 132.408C154.509 133.407 154.421 134.242 154.29 134.914C154.159 135.577 153.945 136.109 153.646 136.51C153.347 136.911 152.932 137.112 152.4 137.112C152.157 137.112 151.882 137.07 151.574 136.986L151.658 135.852C151.779 135.88 151.891 135.894 151.994 135.894C152.367 135.894 152.647 135.731 152.834 135.404C153.021 135.077 153.142 134.69 153.198 134.242C153.254 133.794 153.305 133.155 153.352 132.324L153.478 129.58H159.176ZM164.953 137.084C164.215 137.084 163.553 136.921 162.965 136.594C162.377 136.267 161.915 135.819 161.579 135.25C161.252 134.671 161.089 134.018 161.089 133.29C161.089 132.562 161.252 131.913 161.579 131.344C161.915 130.765 162.377 130.317 162.965 130C163.553 129.673 164.215 129.51 164.953 129.51C165.69 129.51 166.348 129.673 166.927 130C167.515 130.317 167.972 130.765 168.299 131.344C168.635 131.913 168.803 132.562 168.803 133.29C168.803 134.018 168.635 134.671 168.299 135.25C167.972 135.819 167.515 136.267 166.927 136.594C166.348 136.921 165.69 137.084 164.953 137.084ZM164.953 135.908C165.429 135.908 165.853 135.801 166.227 135.586C166.609 135.362 166.908 135.054 167.123 134.662C167.337 134.261 167.445 133.803 167.445 133.29C167.445 132.777 167.337 132.324 167.123 131.932C166.908 131.531 166.609 131.223 166.227 131.008C165.853 130.793 165.429 130.686 164.953 130.686C164.477 130.686 164.047 130.793 163.665 131.008C163.291 131.223 162.993 131.531 162.769 131.932C162.554 132.324 162.447 132.777 162.447 133.29C162.447 133.803 162.554 134.261 162.769 134.662C162.993 135.054 163.291 135.362 163.665 135.586C164.047 135.801 164.477 135.908 164.953 135.908ZM170.873 137.084C170.612 137.084 170.388 136.995 170.201 136.818C170.015 136.631 169.921 136.398 169.921 136.118C169.921 135.847 170.015 135.623 170.201 135.446C170.388 135.259 170.612 135.166 170.873 135.166C171.135 135.166 171.354 135.255 171.531 135.432C171.709 135.609 171.797 135.838 171.797 136.118C171.797 136.398 171.704 136.631 171.517 136.818C171.34 136.995 171.125 137.084 170.873 137.084ZM182.145 137.112C181.156 137.112 180.264 136.897 179.471 136.468C178.678 136.029 178.052 135.427 177.595 134.662C177.147 133.897 176.923 133.043 176.923 132.1C176.923 131.157 177.147 130.303 177.595 129.538C178.052 128.773 178.678 128.175 179.471 127.746C180.264 127.307 181.156 127.088 182.145 127.088C183.125 127.088 184.012 127.307 184.805 127.746C185.598 128.175 186.219 128.773 186.667 129.538C187.115 130.294 187.339 131.148 187.339 132.1C187.339 133.052 187.115 133.911 186.667 134.676C186.219 135.432 185.598 136.029 184.805 136.468C184.012 136.897 183.125 137.112 182.145 137.112ZM182.145 135.866C182.864 135.866 183.508 135.703 184.077 135.376C184.656 135.049 185.108 134.601 185.435 134.032C185.771 133.453 185.939 132.809 185.939 132.1C185.939 131.391 185.771 130.751 185.435 130.182C185.108 129.603 184.656 129.151 184.077 128.824C183.508 128.497 182.864 128.334 182.145 128.334C181.426 128.334 180.773 128.497 180.185 128.824C179.606 129.151 179.149 129.603 178.813 130.182C178.486 130.751 178.323 131.391 178.323 132.1C178.323 132.809 178.486 133.453 178.813 134.032C179.149 134.601 179.606 135.049 180.185 135.376C180.773 135.703 181.426 135.866 182.145 135.866ZM193.312 129.51C194.031 129.51 194.675 129.669 195.244 129.986C195.814 130.303 196.257 130.747 196.574 131.316C196.901 131.885 197.064 132.543 197.064 133.29C197.064 134.037 196.901 134.699 196.574 135.278C196.257 135.847 195.814 136.291 195.244 136.608C194.675 136.925 194.031 137.084 193.312 137.084C192.78 137.084 192.29 136.981 191.842 136.776C191.404 136.571 191.03 136.272 190.722 135.88V139.716H189.378V129.58H190.666V130.756C190.965 130.345 191.343 130.037 191.8 129.832C192.258 129.617 192.762 129.51 193.312 129.51ZM193.2 135.908C193.676 135.908 194.101 135.801 194.474 135.586C194.857 135.362 195.156 135.054 195.37 134.662C195.594 134.261 195.706 133.803 195.706 133.29C195.706 132.777 195.594 132.324 195.37 131.932C195.156 131.531 194.857 131.223 194.474 131.008C194.101 130.793 193.676 130.686 193.2 130.686C192.734 130.686 192.309 130.798 191.926 131.022C191.553 131.237 191.254 131.54 191.03 131.932C190.816 132.324 190.708 132.777 190.708 133.29C190.708 133.803 190.816 134.261 191.03 134.662C191.245 135.054 191.544 135.362 191.926 135.586C192.309 135.801 192.734 135.908 193.2 135.908ZM204.477 130.756H200.361V137H199.017V129.58H204.477V130.756ZM208.499 129.51C209.525 129.51 210.309 129.762 210.851 130.266C211.401 130.77 211.677 131.521 211.677 132.52V137H210.403V136.02C210.179 136.365 209.857 136.631 209.437 136.818C209.026 136.995 208.536 137.084 207.967 137.084C207.136 137.084 206.469 136.883 205.965 136.482C205.47 136.081 205.223 135.553 205.223 134.9C205.223 134.247 205.461 133.724 205.937 133.332C206.413 132.931 207.169 132.73 208.205 132.73H210.333V132.464C210.333 131.885 210.165 131.442 209.829 131.134C209.493 130.826 208.998 130.672 208.345 130.672C207.906 130.672 207.477 130.747 207.057 130.896C206.637 131.036 206.282 131.227 205.993 131.47L205.433 130.462C205.815 130.154 206.273 129.921 206.805 129.762C207.337 129.594 207.901 129.51 208.499 129.51ZM208.191 136.048C208.704 136.048 209.147 135.936 209.521 135.712C209.894 135.479 210.165 135.152 210.333 134.732V133.696H208.261C207.122 133.696 206.553 134.079 206.553 134.844C206.553 135.217 206.697 135.511 206.987 135.726C207.276 135.941 207.677 136.048 208.191 136.048ZM214.097 129.58H215.441V132.73H219.669V129.58H221.013V137H219.669V133.892H215.441V137H214.097V129.58ZM223.626 129.58H224.97V134.984L229.52 129.58H230.738V137H229.394V131.596L224.858 137H223.626V129.58ZM237.242 133.136C237.737 133.267 238.119 133.477 238.39 133.766C238.661 134.055 238.796 134.415 238.796 134.844C238.796 135.283 238.647 135.675 238.348 136.02C238.049 136.356 237.634 136.622 237.102 136.818C236.579 137.005 235.991 137.098 235.338 137.098C234.787 137.098 234.246 137.028 233.714 136.888C233.191 136.739 232.725 136.529 232.314 136.258L232.72 135.236C233.075 135.46 233.481 135.637 233.938 135.768C234.395 135.889 234.857 135.95 235.324 135.95C235.959 135.95 236.463 135.843 236.836 135.628C237.219 135.404 237.41 135.105 237.41 134.732C237.41 134.387 237.256 134.121 236.948 133.934C236.649 133.747 236.225 133.654 235.674 133.654H234.316V132.688H235.576C236.08 132.688 236.477 132.599 236.766 132.422C237.055 132.245 237.2 132.002 237.2 131.694C237.2 131.358 237.027 131.097 236.682 130.91C236.346 130.723 235.889 130.63 235.31 130.63C234.573 130.63 233.793 130.821 232.972 131.204L232.608 130.168C233.513 129.711 234.461 129.482 235.45 129.482C236.047 129.482 236.584 129.566 237.06 129.734C237.536 129.902 237.909 130.14 238.18 130.448C238.451 130.756 238.586 131.106 238.586 131.498C238.586 131.862 238.465 132.189 238.222 132.478C237.979 132.767 237.653 132.987 237.242 133.136ZM243.485 129.51C244.512 129.51 245.296 129.762 245.837 130.266C246.388 130.77 246.663 131.521 246.663 132.52V137H245.389V136.02C245.165 136.365 244.843 136.631 244.423 136.818C244.012 136.995 243.522 137.084 242.953 137.084C242.122 137.084 241.455 136.883 240.951 136.482C240.456 136.081 240.209 135.553 240.209 134.9C240.209 134.247 240.447 133.724 240.923 133.332C241.399 132.931 242.155 132.73 243.191 132.73H245.319V132.464C245.319 131.885 245.151 131.442 244.815 131.134C244.479 130.826 243.984 130.672 243.331 130.672C242.892 130.672 242.463 130.747 242.043 130.896C241.623 131.036 241.268 131.227 240.979 131.47L240.419 130.462C240.802 130.154 241.259 129.921 241.791 129.762C242.323 129.594 242.888 129.51 243.485 129.51ZM243.177 136.048C243.69 136.048 244.134 135.936 244.507 135.712C244.88 135.479 245.151 135.152 245.319 134.732V133.696H243.247C242.108 133.696 241.539 134.079 241.539 134.844C241.539 135.217 241.684 135.511 241.973 135.726C242.262 135.941 242.664 136.048 243.177 136.048ZM257.007 135.824V138.778H255.733V137H249.083V129.58H250.427V135.824H254.487V129.58H255.831V135.824H257.007ZM258.749 129.58H260.093V134.984L264.643 129.58H265.861V137H264.517V131.596L259.981 137H258.749V129.58ZM271.648 137.084C270.911 137.084 270.248 136.921 269.66 136.594C269.072 136.267 268.61 135.819 268.274 135.25C267.947 134.671 267.784 134.018 267.784 133.29C267.784 132.562 267.947 131.913 268.274 131.344C268.61 130.765 269.072 130.317 269.66 130C270.248 129.673 270.911 129.51 271.648 129.51C272.385 129.51 273.043 129.673 273.622 130C274.21 130.317 274.667 130.765 274.994 131.344C275.33 131.913 275.498 132.562 275.498 133.29C275.498 134.018 275.33 134.671 274.994 135.25C274.667 135.819 274.21 136.267 273.622 136.594C273.043 136.921 272.385 137.084 271.648 137.084ZM271.648 135.908C272.124 135.908 272.549 135.801 272.922 135.586C273.305 135.362 273.603 135.054 273.818 134.662C274.033 134.261 274.14 133.803 274.14 133.29C274.14 132.777 274.033 132.324 273.818 131.932C273.603 131.531 273.305 131.223 272.922 131.008C272.549 130.793 272.124 130.686 271.648 130.686C271.172 130.686 270.743 130.793 270.36 131.008C269.987 131.223 269.688 131.531 269.464 131.932C269.249 132.324 269.142 132.777 269.142 133.29C269.142 133.803 269.249 134.261 269.464 134.662C269.688 135.054 269.987 135.362 270.36 135.586C270.743 135.801 271.172 135.908 271.648 135.908ZM277.439 129.58H278.783V132.73H283.011V129.58H284.355V137H283.011V133.892H278.783V137H277.439V129.58ZM286.968 129.58H288.312V132.73H292.54V129.58H293.884V137H292.54V133.892H288.312V137H286.968V129.58ZM299.843 132.1C300.777 132.109 301.491 132.324 301.985 132.744C302.48 133.164 302.727 133.757 302.727 134.522C302.727 135.325 302.457 135.945 301.915 136.384C301.383 136.813 300.618 137.023 299.619 137.014L296.497 137V129.58H297.841V132.086L299.843 132.1ZM303.833 129.58H305.177V137H303.833V129.58ZM299.521 135.992C300.128 136.001 300.585 135.88 300.893 135.628C301.211 135.376 301.369 135.003 301.369 134.508C301.369 134.023 301.215 133.668 300.907 133.444C300.599 133.22 300.137 133.103 299.521 133.094L297.841 133.066V135.978L299.521 135.992ZM314.496 133.332C314.496 133.435 314.487 133.57 314.468 133.738H308.448C308.532 134.391 308.817 134.919 309.302 135.32C309.797 135.712 310.408 135.908 311.136 135.908C312.023 135.908 312.737 135.609 313.278 135.012L314.02 135.88C313.684 136.272 313.264 136.571 312.76 136.776C312.266 136.981 311.71 137.084 311.094 137.084C310.31 137.084 309.615 136.925 309.008 136.608C308.402 136.281 307.93 135.829 307.594 135.25C307.268 134.671 307.104 134.018 307.104 133.29C307.104 132.571 307.263 131.923 307.58 131.344C307.907 130.765 308.35 130.317 308.91 130C309.48 129.673 310.119 129.51 310.828 129.51C311.538 129.51 312.168 129.673 312.718 130C313.278 130.317 313.712 130.765 314.02 131.344C314.338 131.923 314.496 132.585 314.496 133.332ZM310.828 130.644C310.184 130.644 309.643 130.84 309.204 131.232C308.775 131.624 308.523 132.137 308.448 132.772H313.208C313.134 132.147 312.877 131.638 312.438 131.246C312.009 130.845 311.472 130.644 310.828 130.644ZM124.856 153.58V161H123.638V155.582L120.866 160.16H120.278L117.534 155.568V161H116.302V153.58H117.688L120.6 158.592L123.596 153.58H124.856ZM130.65 161.084C129.913 161.084 129.25 160.921 128.662 160.594C128.074 160.267 127.612 159.819 127.276 159.25C126.949 158.671 126.786 158.018 126.786 157.29C126.786 156.562 126.949 155.913 127.276 155.344C127.612 154.765 128.074 154.317 128.662 154C129.25 153.673 129.913 153.51 130.65 153.51C131.387 153.51 132.045 153.673 132.624 154C133.212 154.317 133.669 154.765 133.996 155.344C134.332 155.913 134.5 156.562 134.5 157.29C134.5 158.018 134.332 158.671 133.996 159.25C133.669 159.819 133.212 160.267 132.624 160.594C132.045 160.921 131.387 161.084 130.65 161.084ZM130.65 159.908C131.126 159.908 131.551 159.801 131.924 159.586C132.307 159.362 132.605 159.054 132.82 158.662C133.035 158.261 133.142 157.803 133.142 157.29C133.142 156.777 133.035 156.324 132.82 155.932C132.605 155.531 132.307 155.223 131.924 155.008C131.551 154.793 131.126 154.686 130.65 154.686C130.174 154.686 129.745 154.793 129.362 155.008C128.989 155.223 128.69 155.531 128.466 155.932C128.251 156.324 128.144 156.777 128.144 157.29C128.144 157.803 128.251 158.261 128.466 158.662C128.69 159.054 128.989 159.362 129.362 159.586C129.745 159.801 130.174 159.908 130.65 159.908ZM144.995 153.58V161H143.777V155.582L141.005 160.16H140.417L137.673 155.568V161H136.441V153.58H137.827L140.739 158.592L143.735 153.58H144.995ZM154.317 157.332C154.317 157.435 154.307 157.57 154.289 157.738H148.269C148.353 158.391 148.637 158.919 149.123 159.32C149.617 159.712 150.229 159.908 150.957 159.908C151.843 159.908 152.557 159.609 153.099 159.012L153.841 159.88C153.505 160.272 153.085 160.571 152.581 160.776C152.086 160.981 151.531 161.084 150.915 161.084C150.131 161.084 149.435 160.925 148.829 160.608C148.222 160.281 147.751 159.829 147.415 159.25C147.088 158.671 146.925 158.018 146.925 157.29C146.925 156.571 147.083 155.923 147.401 155.344C147.727 154.765 148.171 154.317 148.731 154C149.3 153.673 149.939 153.51 150.649 153.51C151.358 153.51 151.988 153.673 152.539 154C153.099 154.317 153.533 154.765 153.841 155.344C154.158 155.923 154.317 156.585 154.317 157.332ZM150.649 154.644C150.005 154.644 149.463 154.84 149.025 155.232C148.595 155.624 148.343 156.137 148.269 156.772H153.029C152.954 156.147 152.697 155.638 152.259 155.246C151.829 154.845 151.293 154.644 150.649 154.644ZM156.402 153.58H157.746V156.73H161.974V153.58H163.318V161H161.974V157.892H157.746V161H156.402V153.58ZM171.461 154.756H168.745V161H167.401V154.756H164.685V153.58H171.461V154.756ZM176.181 156.1C177.115 156.109 177.829 156.324 178.323 156.744C178.818 157.164 179.065 157.757 179.065 158.522C179.065 159.325 178.795 159.945 178.253 160.384C177.721 160.813 176.956 161.023 175.957 161.014L172.835 161V153.58H174.179V156.086L176.181 156.1ZM180.171 153.58H181.515V161H180.171V153.58ZM175.859 159.992C176.466 160.001 176.923 159.88 177.231 159.628C177.549 159.376 177.707 159.003 177.707 158.508C177.707 158.023 177.553 157.668 177.245 157.444C176.937 157.22 176.475 157.103 175.859 157.094L174.179 157.066V159.978L175.859 159.992ZM184.422 161.084C184.161 161.084 183.937 160.995 183.75 160.818C183.564 160.631 183.47 160.398 183.47 160.118C183.47 159.847 183.564 159.623 183.75 159.446C183.937 159.259 184.161 159.166 184.422 159.166C184.684 159.166 184.903 159.255 185.08 159.432C185.258 159.609 185.346 159.838 185.346 160.118C185.346 160.398 185.253 160.631 185.066 160.818C184.889 160.995 184.674 161.084 184.422 161.084ZM195.106 151.2C196.375 151.2 197.374 151.503 198.102 152.11C198.83 152.717 199.194 153.552 199.194 154.616C199.194 155.68 198.83 156.515 198.102 157.122C197.374 157.729 196.375 158.032 195.106 158.032H192.684V161H191.284V151.2H195.106ZM195.064 156.814C195.95 156.814 196.627 156.627 197.094 156.254C197.56 155.871 197.794 155.325 197.794 154.616C197.794 153.907 197.56 153.365 197.094 152.992C196.627 152.609 195.95 152.418 195.064 152.418H192.684V156.814H195.064ZM203.495 153.51C204.522 153.51 205.306 153.762 205.847 154.266C206.398 154.77 206.673 155.521 206.673 156.52V161H205.399V160.02C205.175 160.365 204.853 160.631 204.433 160.818C204.022 160.995 203.532 161.084 202.963 161.084C202.132 161.084 201.465 160.883 200.961 160.482C200.466 160.081 200.219 159.553 200.219 158.9C200.219 158.247 200.457 157.724 200.933 157.332C201.409 156.931 202.165 156.73 203.201 156.73H205.329V156.464C205.329 155.885 205.161 155.442 204.825 155.134C204.489 154.826 203.994 154.672 203.341 154.672C202.902 154.672 202.473 154.747 202.053 154.896C201.633 155.036 201.278 155.227 200.989 155.47L200.429 154.462C200.812 154.154 201.269 153.921 201.801 153.762C202.333 153.594 202.898 153.51 203.495 153.51ZM203.187 160.048C203.7 160.048 204.144 159.936 204.517 159.712C204.89 159.479 205.161 159.152 205.329 158.732V157.696H203.257C202.118 157.696 201.549 158.079 201.549 158.844C201.549 159.217 201.694 159.511 201.983 159.726C202.272 159.941 202.674 160.048 203.187 160.048ZM212.327 161.084C211.571 161.084 210.894 160.921 210.297 160.594C209.709 160.267 209.247 159.819 208.911 159.25C208.575 158.671 208.407 158.018 208.407 157.29C208.407 156.562 208.575 155.913 208.911 155.344C209.247 154.765 209.709 154.317 210.297 154C210.894 153.673 211.571 153.51 212.327 153.51C212.999 153.51 213.596 153.645 214.119 153.916C214.651 154.187 215.062 154.579 215.351 155.092L214.329 155.75C214.096 155.395 213.806 155.129 213.461 154.952C213.116 154.775 212.733 154.686 212.313 154.686C211.828 154.686 211.389 154.793 210.997 155.008C210.614 155.223 210.311 155.531 210.087 155.932C209.872 156.324 209.765 156.777 209.765 157.29C209.765 157.813 209.872 158.275 210.087 158.676C210.311 159.068 210.614 159.371 210.997 159.586C211.389 159.801 211.828 159.908 212.313 159.908C212.733 159.908 213.116 159.819 213.461 159.642C213.806 159.465 214.096 159.199 214.329 158.844L215.351 159.488C215.062 160.001 214.651 160.398 214.119 160.678C213.596 160.949 212.999 161.084 212.327 161.084ZM223.965 153.58V161H222.621V154.756H218.435V161H217.091V153.58H223.965ZM230.5 153.51C231.218 153.51 231.862 153.669 232.432 153.986C233.001 154.303 233.444 154.747 233.762 155.316C234.088 155.885 234.252 156.543 234.252 157.29C234.252 158.037 234.088 158.699 233.762 159.278C233.444 159.847 233.001 160.291 232.432 160.608C231.862 160.925 231.218 161.084 230.5 161.084C229.968 161.084 229.478 160.981 229.03 160.776C228.591 160.571 228.218 160.272 227.91 159.88V163.716H226.566V153.58H227.854V154.756C228.152 154.345 228.53 154.037 228.988 153.832C229.445 153.617 229.949 153.51 230.5 153.51ZM230.388 159.908C230.864 159.908 231.288 159.801 231.662 159.586C232.044 159.362 232.343 159.054 232.558 158.662C232.782 158.261 232.894 157.803 232.894 157.29C232.894 156.777 232.782 156.324 232.558 155.932C232.343 155.531 232.044 155.223 231.662 155.008C231.288 154.793 230.864 154.686 230.388 154.686C229.921 154.686 229.496 154.798 229.114 155.022C228.74 155.237 228.442 155.54 228.218 155.932C228.003 156.324 227.896 156.777 227.896 157.29C227.896 157.803 228.003 158.261 228.218 158.662C228.432 159.054 228.731 159.362 229.114 159.586C229.496 159.801 229.921 159.908 230.388 159.908ZM242.91 157.332C242.91 157.435 242.901 157.57 242.882 157.738H236.862C236.946 158.391 237.231 158.919 237.716 159.32C238.211 159.712 238.822 159.908 239.55 159.908C240.437 159.908 241.151 159.609 241.692 159.012L242.434 159.88C242.098 160.272 241.678 160.571 241.174 160.776C240.68 160.981 240.124 161.084 239.508 161.084C238.724 161.084 238.029 160.925 237.422 160.608C236.816 160.281 236.344 159.829 236.008 159.25C235.682 158.671 235.518 158.018 235.518 157.29C235.518 156.571 235.677 155.923 235.994 155.344C236.321 154.765 236.764 154.317 237.324 154C237.894 153.673 238.533 153.51 239.242 153.51C239.952 153.51 240.582 153.673 241.132 154C241.692 154.317 242.126 154.765 242.434 155.344C242.752 155.923 242.91 156.585 242.91 157.332ZM239.242 154.644C238.598 154.644 238.057 154.84 237.618 155.232C237.189 155.624 236.937 156.137 236.862 156.772H241.622C241.548 156.147 241.291 155.638 240.852 155.246C240.423 154.845 239.886 154.644 239.242 154.644ZM252.418 159.824V162.722H251.158V161H244.956V162.722H243.682V159.824H244.074C244.55 159.796 244.877 159.46 245.054 158.816C245.232 158.172 245.353 157.262 245.418 156.086L245.53 153.58H251.284V159.824H252.418ZM246.65 156.184C246.613 157.117 246.534 157.892 246.412 158.508C246.3 159.115 246.09 159.553 245.782 159.824H249.94V154.756H246.72L246.65 156.184ZM260.875 157.332C260.875 157.435 260.866 157.57 260.847 157.738H254.827C254.911 158.391 255.196 158.919 255.681 159.32C256.176 159.712 256.787 159.908 257.515 159.908C258.402 159.908 259.116 159.609 259.657 159.012L260.399 159.88C260.063 160.272 259.643 160.571 259.139 160.776C258.645 160.981 258.089 161.084 257.473 161.084C256.689 161.084 255.994 160.925 255.387 160.608C254.781 160.281 254.309 159.829 253.973 159.25C253.647 158.671 253.483 158.018 253.483 157.29C253.483 156.571 253.642 155.923 253.959 155.344C254.286 154.765 254.729 154.317 255.289 154C255.859 153.673 256.498 153.51 257.207 153.51C257.917 153.51 258.547 153.673 259.097 154C259.657 154.317 260.091 154.765 260.399 155.344C260.717 155.923 260.875 156.585 260.875 157.332ZM257.207 154.644C256.563 154.644 256.022 154.84 255.583 155.232C255.154 155.624 254.902 156.137 254.827 156.772H259.587C259.513 156.147 259.256 155.638 258.817 155.246C258.388 154.845 257.851 154.644 257.207 154.644ZM269.207 153.58V161H267.863V154.756H264.671L264.587 156.408C264.54 157.407 264.452 158.242 264.321 158.914C264.19 159.577 263.976 160.109 263.677 160.51C263.378 160.911 262.963 161.112 262.431 161.112C262.188 161.112 261.913 161.07 261.605 160.986L261.689 159.852C261.81 159.88 261.922 159.894 262.025 159.894C262.398 159.894 262.678 159.731 262.865 159.404C263.052 159.077 263.173 158.69 263.229 158.242C263.285 157.794 263.336 157.155 263.383 156.324L263.509 153.58H269.207ZM278.512 157.332C278.512 157.435 278.503 157.57 278.484 157.738H272.464C272.548 158.391 272.833 158.919 273.318 159.32C273.813 159.712 274.424 159.908 275.152 159.908C276.039 159.908 276.753 159.609 277.294 159.012L278.036 159.88C277.7 160.272 277.28 160.571 276.776 160.776C276.281 160.981 275.726 161.084 275.11 161.084C274.326 161.084 273.631 160.925 273.024 160.608C272.417 160.281 271.946 159.829 271.61 159.25C271.283 158.671 271.12 158.018 271.12 157.29C271.12 156.571 271.279 155.923 271.596 155.344C271.923 154.765 272.366 154.317 272.926 154C273.495 153.673 274.135 153.51 274.844 153.51C275.553 153.51 276.183 153.673 276.734 154C277.294 154.317 277.728 154.765 278.036 155.344C278.353 155.923 278.512 156.585 278.512 157.332ZM274.844 154.644C274.2 154.644 273.659 154.84 273.22 155.232C272.791 155.624 272.539 156.137 272.464 156.772H277.224C277.149 156.147 276.893 155.638 276.454 155.246C276.025 154.845 275.488 154.644 274.844 154.644ZM280.597 153.58H281.941V156.73H286.169V153.58H287.513V161H286.169V157.892H281.941V161H280.597V153.58ZM290.126 153.58H291.47V158.984L296.02 153.58H297.238V161H295.894V155.596L291.358 161H290.126V153.58ZM306.553 157.332C306.553 157.435 306.544 157.57 306.525 157.738H300.505C300.589 158.391 300.874 158.919 301.359 159.32C301.854 159.712 302.465 159.908 303.193 159.908C304.08 159.908 304.794 159.609 305.335 159.012L306.077 159.88C305.741 160.272 305.321 160.571 304.817 160.776C304.322 160.981 303.767 161.084 303.151 161.084C302.367 161.084 301.672 160.925 301.065 160.608C300.458 160.281 299.987 159.829 299.651 159.25C299.324 158.671 299.161 158.018 299.161 157.29C299.161 156.571 299.32 155.923 299.637 155.344C299.964 154.765 300.407 154.317 300.967 154C301.536 153.673 302.176 153.51 302.885 153.51C303.594 153.51 304.224 153.673 304.775 154C305.335 154.317 305.769 154.765 306.077 155.344C306.394 155.923 306.553 156.585 306.553 157.332ZM302.885 154.644C302.241 154.644 301.7 154.84 301.261 155.232C300.832 155.624 300.58 156.137 300.505 156.772H305.265C305.19 156.147 304.934 155.638 304.495 155.246C304.066 154.845 303.529 154.644 302.885 154.644Z" fill="white"/>
<path d="M84 139.5C87.5899 139.5 90.5 136.59 90.5 133C90.5 129.41 87.5899 126.5 84 126.5C80.4101 126.5 77.5 129.41 77.5 133C77.5 136.59 80.4101 139.5 84 139.5Z" stroke="#FF4F99" stroke-width="5"/>
<path d="M5.56201 214.4V227H2.64601V216.74H0.126007V214.4H5.56201ZM17.6148 214.4V216.29L12.9348 227H9.76684L14.2848 216.776H10.1088V218.828H7.51684V214.4H17.6148ZM20.2174 220.682C19.7254 220.682 19.3114 220.514 18.9754 220.178C18.6394 219.842 18.4714 219.422 18.4714 218.918C18.4714 218.402 18.6394 217.988 18.9754 217.676C19.3114 217.352 19.7254 217.19 20.2174 217.19C20.7094 217.19 21.1234 217.352 21.4594 217.676C21.7954 217.988 21.9634 218.402 21.9634 218.918C21.9634 219.422 21.7954 219.842 21.4594 220.178C21.1234 220.514 20.7094 220.682 20.2174 220.682ZM20.2174 227.144C19.7254 227.144 19.3114 226.976 18.9754 226.64C18.6394 226.304 18.4714 225.884 18.4714 225.38C18.4714 224.864 18.6394 224.45 18.9754 224.138C19.3114 223.814 19.7254 223.652 20.2174 223.652C20.7094 223.652 21.1234 223.814 21.4594 224.138C21.7954 224.45 21.9634 224.864 21.9634 225.38C21.9634 225.884 21.7954 226.304 21.4594 226.64C21.1234 226.976 20.7094 227.144 20.2174 227.144ZM28.6723 227.216C27.6283 227.216 26.6983 226.958 25.8823 226.442C25.0663 225.926 24.4243 225.182 23.9563 224.21C23.5003 223.226 23.2723 222.056 23.2723 220.7C23.2723 219.344 23.5003 218.18 23.9563 217.208C24.4243 216.224 25.0663 215.474 25.8823 214.958C26.6983 214.442 27.6283 214.184 28.6723 214.184C29.7163 214.184 30.6463 214.442 31.4623 214.958C32.2783 215.474 32.9143 216.224 33.3703 217.208C33.8383 218.18 34.0723 219.344 34.0723 220.7C34.0723 222.056 33.8383 223.226 33.3703 224.21C32.9143 225.182 32.2783 225.926 31.4623 226.442C30.6463 226.958 29.7163 227.216 28.6723 227.216ZM28.6723 224.75C29.4403 224.75 30.0403 224.42 30.4723 223.76C30.9163 223.1 31.1383 222.08 31.1383 220.7C31.1383 219.32 30.9163 218.3 30.4723 217.64C30.0403 216.98 29.4403 216.65 28.6723 216.65C27.9163 216.65 27.3163 216.98 26.8723 217.64C26.4403 218.3 26.2243 219.32 26.2243 220.7C26.2243 222.08 26.4403 223.1 26.8723 223.76C27.3163 224.42 27.9163 224.75 28.6723 224.75ZM40.8891 227.216C39.8451 227.216 38.9151 226.958 38.0991 226.442C37.2831 225.926 36.6411 225.182 36.1731 224.21C35.7171 223.226 35.4891 222.056 35.4891 220.7C35.4891 219.344 35.7171 218.18 36.1731 217.208C36.6411 216.224 37.2831 215.474 38.0991 214.958C38.9151 214.442 39.8451 214.184 40.8891 214.184C41.9331 214.184 42.8631 214.442 43.6791 214.958C44.4951 215.474 45.1311 216.224 45.5871 217.208C46.0551 218.18 46.2891 219.344 46.2891 220.7C46.2891 222.056 46.0551 223.226 45.5871 224.21C45.1311 225.182 44.4951 225.926 43.6791 226.442C42.8631 226.958 41.9331 227.216 40.8891 227.216ZM40.8891 224.75C41.6571 224.75 42.2571 224.42 42.6891 223.76C43.1331 223.1 43.3551 222.08 43.3551 220.7C43.3551 219.32 43.1331 218.3 42.6891 217.64C42.2571 216.98 41.6571 216.65 40.8891 216.65C40.1331 216.65 39.5331 216.98 39.0891 217.64C38.6571 218.3 38.4411 219.32 38.4411 220.7C38.4411 222.08 38.6571 223.1 39.0891 223.76C39.5331 224.42 40.1331 224.75 40.8891 224.75Z" fill="#FF4F99"/>
<path d="M120.908 225.112C119.928 225.112 119.041 224.897 118.248 224.468C117.464 224.029 116.848 223.432 116.4 222.676C115.952 221.911 115.728 221.052 115.728 220.1C115.728 219.148 115.952 218.294 116.4 217.538C116.848 216.773 117.469 216.175 118.262 215.746C119.055 215.307 119.942 215.088 120.922 215.088C121.687 215.088 122.387 215.219 123.022 215.48C123.657 215.732 124.198 216.11 124.646 216.614L123.736 217.496C122.999 216.721 122.079 216.334 120.978 216.334C120.25 216.334 119.592 216.497 119.004 216.824C118.416 217.151 117.954 217.603 117.618 218.182C117.291 218.751 117.128 219.391 117.128 220.1C117.128 220.809 117.291 221.453 117.618 222.032C117.954 222.601 118.416 223.049 119.004 223.376C119.592 223.703 120.25 223.866 120.978 223.866C122.07 223.866 122.989 223.474 123.736 222.69L124.646 223.572C124.198 224.076 123.652 224.459 123.008 224.72C122.373 224.981 121.673 225.112 120.908 225.112ZM131.676 218.756H128.96V225H127.616V218.756H124.9V217.58H131.676V218.756ZM135.696 217.51C136.723 217.51 137.507 217.762 138.048 218.266C138.599 218.77 138.874 219.521 138.874 220.52V225H137.6V224.02C137.376 224.365 137.054 224.631 136.634 224.818C136.223 224.995 135.733 225.084 135.164 225.084C134.333 225.084 133.666 224.883 133.162 224.482C132.667 224.081 132.42 223.553 132.42 222.9C132.42 222.247 132.658 221.724 133.134 221.332C133.61 220.931 134.366 220.73 135.402 220.73H137.53V220.464C137.53 219.885 137.362 219.442 137.026 219.134C136.69 218.826 136.195 218.672 135.542 218.672C135.103 218.672 134.674 218.747 134.254 218.896C133.834 219.036 133.479 219.227 133.19 219.47L132.63 218.462C133.013 218.154 133.47 217.921 134.002 217.762C134.534 217.594 135.099 217.51 135.696 217.51ZM135.388 224.048C135.901 224.048 136.345 223.936 136.718 223.712C137.091 223.479 137.362 223.152 137.53 222.732V221.696H135.458C134.319 221.696 133.75 222.079 133.75 222.844C133.75 223.217 133.895 223.511 134.184 223.726C134.473 223.941 134.875 224.048 135.388 224.048ZM145.228 217.51C145.947 217.51 146.591 217.669 147.16 217.986C147.73 218.303 148.173 218.747 148.49 219.316C148.817 219.885 148.98 220.543 148.98 221.29C148.98 222.037 148.817 222.699 148.49 223.278C148.173 223.847 147.73 224.291 147.16 224.608C146.591 224.925 145.947 225.084 145.228 225.084C144.696 225.084 144.206 224.981 143.758 224.776C143.32 224.571 142.946 224.272 142.638 223.88V227.716H141.294V217.58H142.582V218.756C142.881 218.345 143.259 218.037 143.716 217.832C144.174 217.617 144.678 217.51 145.228 217.51ZM145.116 223.908C145.592 223.908 146.017 223.801 146.39 223.586C146.773 223.362 147.072 223.054 147.286 222.662C147.51 222.261 147.622 221.803 147.622 221.29C147.622 220.777 147.51 220.324 147.286 219.932C147.072 219.531 146.773 219.223 146.39 219.008C146.017 218.793 145.592 218.686 145.116 218.686C144.65 218.686 144.225 218.798 143.842 219.022C143.469 219.237 143.17 219.54 142.946 219.932C142.732 220.324 142.624 220.777 142.624 221.29C142.624 221.803 142.732 222.261 142.946 222.662C143.161 223.054 143.46 223.362 143.842 223.586C144.225 223.801 144.65 223.908 145.116 223.908ZM156.189 218.756H153.473V225H152.129V218.756H149.413V217.58H156.189V218.756ZM165.957 225L163.815 222.158L161.645 225H160.147L163.073 221.206L160.287 217.58H161.785L163.829 220.254L165.859 217.58H167.329L164.529 221.206L167.483 225H165.957ZM171.407 217.51C172.434 217.51 173.218 217.762 173.759 218.266C174.31 218.77 174.585 219.521 174.585 220.52V225H173.311V224.02C173.087 224.365 172.765 224.631 172.345 224.818C171.934 224.995 171.444 225.084 170.875 225.084C170.044 225.084 169.377 224.883 168.873 224.482C168.378 224.081 168.131 223.553 168.131 222.9C168.131 222.247 168.369 221.724 168.845 221.332C169.321 220.931 170.077 220.73 171.113 220.73H173.241V220.464C173.241 219.885 173.073 219.442 172.737 219.134C172.401 218.826 171.906 218.672 171.253 218.672C170.814 218.672 170.385 218.747 169.965 218.896C169.545 219.036 169.19 219.227 168.901 219.47L168.341 218.462C168.724 218.154 169.181 217.921 169.713 217.762C170.245 217.594 170.81 217.51 171.407 217.51ZM171.099 224.048C171.612 224.048 172.056 223.936 172.429 223.712C172.802 223.479 173.073 223.152 173.241 222.732V221.696H171.169C170.03 221.696 169.461 222.079 169.461 222.844C169.461 223.217 169.606 223.511 169.895 223.726C170.184 223.941 170.586 224.048 171.099 224.048ZM179.889 221.864H178.349V225H177.005V217.58H178.349V220.716H179.917L182.325 217.58H183.767L180.953 221.15L183.963 225H182.381L179.889 221.864ZM187.882 217.51C188.908 217.51 189.692 217.762 190.234 218.266C190.784 218.77 191.06 219.521 191.06 220.52V225H189.786V224.02C189.562 224.365 189.24 224.631 188.82 224.818C188.409 224.995 187.919 225.084 187.35 225.084C186.519 225.084 185.852 224.883 185.348 224.482C184.853 224.081 184.606 223.553 184.606 222.9C184.606 222.247 184.844 221.724 185.32 221.332C185.796 220.931 186.552 220.73 187.588 220.73H189.716V220.464C189.716 219.885 189.548 219.442 189.212 219.134C188.876 218.826 188.381 218.672 187.728 218.672C187.289 218.672 186.86 218.747 186.44 218.896C186.02 219.036 185.665 219.227 185.376 219.47L184.816 218.462C185.198 218.154 185.656 217.921 186.188 217.762C186.72 217.594 187.284 217.51 187.882 217.51ZM187.574 224.048C188.087 224.048 188.53 223.936 188.904 223.712C189.277 223.479 189.548 223.152 189.716 222.732V221.696H187.644C186.505 221.696 185.936 222.079 185.936 222.844C185.936 223.217 186.08 223.511 186.37 223.726C186.659 223.941 187.06 224.048 187.574 224.048ZM199.01 218.756H196.294V225H194.95V218.756H192.234V217.58H199.01V218.756ZM203.234 225.084C202.497 225.084 201.834 224.921 201.246 224.594C200.658 224.267 200.196 223.819 199.86 223.25C199.533 222.671 199.37 222.018 199.37 221.29C199.37 220.562 199.533 219.913 199.86 219.344C200.196 218.765 200.658 218.317 201.246 218C201.834 217.673 202.497 217.51 203.234 217.51C203.971 217.51 204.629 217.673 205.208 218C205.796 218.317 206.253 218.765 206.58 219.344C206.916 219.913 207.084 220.562 207.084 221.29C207.084 222.018 206.916 222.671 206.58 223.25C206.253 223.819 205.796 224.267 205.208 224.594C204.629 224.921 203.971 225.084 203.234 225.084ZM203.234 223.908C203.71 223.908 204.135 223.801 204.508 223.586C204.891 223.362 205.189 223.054 205.404 222.662C205.619 222.261 205.726 221.803 205.726 221.29C205.726 220.777 205.619 220.324 205.404 219.932C205.189 219.531 204.891 219.223 204.508 219.008C204.135 218.793 203.71 218.686 203.234 218.686C202.758 218.686 202.329 218.793 201.946 219.008C201.573 219.223 201.274 219.531 201.05 219.932C200.835 220.324 200.728 220.777 200.728 221.29C200.728 221.803 200.835 222.261 201.05 222.662C201.274 223.054 201.573 223.362 201.946 223.586C202.329 223.801 202.758 223.908 203.234 223.908ZM209.025 217.58H210.369V220.73H214.597V217.58H215.941V225H214.597V221.892H210.369V225H209.025V217.58ZM221.2 217.51C222.227 217.51 223.011 217.762 223.552 218.266C224.103 218.77 224.378 219.521 224.378 220.52V225H223.104V224.02C222.88 224.365 222.558 224.631 222.138 224.818C221.727 224.995 221.237 225.084 220.668 225.084C219.837 225.084 219.17 224.883 218.666 224.482C218.171 224.081 217.924 223.553 217.924 222.9C217.924 222.247 218.162 221.724 218.638 221.332C219.114 220.931 219.87 220.73 220.906 220.73H223.034V220.464C223.034 219.885 222.866 219.442 222.53 219.134C222.194 218.826 221.699 218.672 221.046 218.672C220.607 218.672 220.178 218.747 219.758 218.896C219.338 219.036 218.983 219.227 218.694 219.47L218.134 218.462C218.517 218.154 218.974 217.921 219.506 217.762C220.038 217.594 220.603 217.51 221.2 217.51ZM220.892 224.048C221.405 224.048 221.849 223.936 222.222 223.712C222.595 223.479 222.866 223.152 223.034 222.732V221.696H220.962C219.823 221.696 219.254 222.079 219.254 222.844C219.254 223.217 219.399 223.511 219.688 223.726C219.977 223.941 220.379 224.048 220.892 224.048Z" fill="white"/>
<path d="M84 226.5C87.5899 226.5 90.5 223.59 90.5 220C90.5 216.41 87.5899 213.5 84 213.5C80.4101 213.5 77.5 216.41 77.5 220C77.5 223.59 80.4101 226.5 84 226.5Z" stroke="#FF4F99" stroke-width="5"/>
<path d="M10.116 400.124V402.5H0.594005V400.61L5.45401 396.02C5.97001 395.528 6.31801 395.108 6.49801 394.76C6.67801 394.4 6.76801 394.046 6.76801 393.698C6.76801 393.194 6.59401 392.81 6.24601 392.546C5.91001 392.27 5.41201 392.132 4.75201 392.132C4.20001 392.132 3.70201 392.24 3.25801 392.456C2.81401 392.66 2.44201 392.972 2.14201 393.392L0.0180054 392.024C0.510005 391.292 1.18801 390.722 2.05201 390.314C2.91601 389.894 3.90601 389.684 5.02201 389.684C5.95801 389.684 6.77401 389.84 7.47001 390.152C8.17801 390.452 8.72401 390.884 9.10801 391.448C9.50401 392 9.70201 392.654 9.70201 393.41C9.70201 394.094 9.55801 394.736 9.27001 395.336C8.98201 395.936 8.42401 396.62 7.59601 397.388L4.69801 400.124H10.116ZM16.684 402.716C15.64 402.716 14.71 402.458 13.894 401.942C13.078 401.426 12.436 400.682 11.968 399.71C11.512 398.726 11.284 397.556 11.284 396.2C11.284 394.844 11.512 393.68 11.968 392.708C12.436 391.724 13.078 390.974 13.894 390.458C14.71 389.942 15.64 389.684 16.684 389.684C17.728 389.684 18.658 389.942 19.474 390.458C20.29 390.974 20.926 391.724 21.382 392.708C21.85 393.68 22.084 394.844 22.084 396.2C22.084 397.556 21.85 398.726 21.382 399.71C20.926 400.682 20.29 401.426 19.474 401.942C18.658 402.458 17.728 402.716 16.684 402.716ZM16.684 400.25C17.452 400.25 18.052 399.92 18.484 399.26C18.928 398.6 19.15 397.58 19.15 396.2C19.15 394.82 18.928 393.8 18.484 393.14C18.052 392.48 17.452 392.15 16.684 392.15C15.928 392.15 15.328 392.48 14.884 393.14C14.452 393.8 14.236 394.82 14.236 396.2C14.236 397.58 14.452 398.6 14.884 399.26C15.328 399.92 15.928 400.25 16.684 400.25ZM25.1568 396.182C24.6648 396.182 24.2508 396.014 23.9148 395.678C23.5788 395.342 23.4108 394.922 23.4108 394.418C23.4108 393.902 23.5788 393.488 23.9148 393.176C24.2508 392.852 24.6648 392.69 25.1568 392.69C25.6488 392.69 26.0628 392.852 26.3988 393.176C26.7348 393.488 26.9028 393.902 26.9028 394.418C26.9028 394.922 26.7348 395.342 26.3988 395.678C26.0628 396.014 25.6488 396.182 25.1568 396.182ZM25.1568 402.644C24.6648 402.644 24.2508 402.476 23.9148 402.14C23.5788 401.804 23.4108 401.384 23.4108 400.88C23.4108 400.364 23.5788 399.95 23.9148 399.638C24.2508 399.314 24.6648 399.152 25.1568 399.152C25.6488 399.152 26.0628 399.314 26.3988 399.638C26.7348 399.95 26.9028 400.364 26.9028 400.88C26.9028 401.384 26.7348 401.804 26.3988 402.14C26.0628 402.476 25.6488 402.644 25.1568 402.644ZM33.6118 402.716C32.5678 402.716 31.6378 402.458 30.8218 401.942C30.0058 401.426 29.3638 400.682 28.8958 399.71C28.4398 398.726 28.2118 397.556 28.2118 396.2C28.2118 394.844 28.4398 393.68 28.8958 392.708C29.3638 391.724 30.0058 390.974 30.8218 390.458C31.6378 389.942 32.5678 389.684 33.6118 389.684C34.6558 389.684 35.5858 389.942 36.4018 390.458C37.2178 390.974 37.8538 391.724 38.3098 392.708C38.7778 393.68 39.0118 394.844 39.0118 396.2C39.0118 397.556 38.7778 398.726 38.3098 399.71C37.8538 400.682 37.2178 401.426 36.4018 401.942C35.5858 402.458 34.6558 402.716 33.6118 402.716ZM33.6118 400.25C34.3798 400.25 34.9798 399.92 35.4118 399.26C35.8558 398.6 36.0778 397.58 36.0778 396.2C36.0778 394.82 35.8558 393.8 35.4118 393.14C34.9798 392.48 34.3798 392.15 33.6118 392.15C32.8558 392.15 32.2558 392.48 31.8118 393.14C31.3798 393.8 31.1638 394.82 31.1638 396.2C31.1638 397.58 31.3798 398.6 31.8118 399.26C32.2558 399.92 32.8558 400.25 33.6118 400.25ZM45.8286 402.716C44.7846 402.716 43.8546 402.458 43.0386 401.942C42.2226 401.426 41.5806 400.682 41.1126 399.71C40.6566 398.726 40.4286 397.556 40.4286 396.2C40.4286 394.844 40.6566 393.68 41.1126 392.708C41.5806 391.724 42.2226 390.974 43.0386 390.458C43.8546 389.942 44.7846 389.684 45.8286 389.684C46.8726 389.684 47.8026 389.942 48.6186 390.458C49.4346 390.974 50.0706 391.724 50.5266 392.708C50.9946 393.68 51.2286 394.844 51.2286 396.2C51.2286 397.556 50.9946 398.726 50.5266 399.71C50.0706 400.682 49.4346 401.426 48.6186 401.942C47.8026 402.458 46.8726 402.716 45.8286 402.716ZM45.8286 400.25C46.5966 400.25 47.1966 399.92 47.6286 399.26C48.0726 398.6 48.2946 397.58 48.2946 396.2C48.2946 394.82 48.0726 393.8 47.6286 393.14C47.1966 392.48 46.5966 392.15 45.8286 392.15C45.0726 392.15 44.4726 392.48 44.0286 393.14C43.5966 393.8 43.3806 394.82 43.3806 396.2C43.3806 397.58 43.5966 398.6 44.0286 399.26C44.4726 399.92 45.0726 400.25 45.8286 400.25Z" fill="#FF4F99"/>
<path d="M123.778 390.7V400.5H122.392V396.622C121.356 397.023 120.399 397.224 119.522 397.224C118.327 397.224 117.399 396.935 116.736 396.356C116.083 395.777 115.756 394.951 115.756 393.878V390.7H117.128V393.724C117.128 394.452 117.347 395.012 117.786 395.404C118.234 395.796 118.864 395.992 119.676 395.992C120.581 395.992 121.487 395.787 122.392 395.376V390.7H123.778ZM133.317 396.832C133.317 396.935 133.307 397.07 133.289 397.238H127.269C127.353 397.891 127.637 398.419 128.123 398.82C128.617 399.212 129.229 399.408 129.957 399.408C130.843 399.408 131.557 399.109 132.099 398.512L132.841 399.38C132.505 399.772 132.085 400.071 131.581 400.276C131.086 400.481 130.531 400.584 129.915 400.584C129.131 400.584 128.435 400.425 127.829 400.108C127.222 399.781 126.751 399.329 126.415 398.75C126.088 398.171 125.925 397.518 125.925 396.79C125.925 396.071 126.083 395.423 126.401 394.844C126.727 394.265 127.171 393.817 127.731 393.5C128.3 393.173 128.939 393.01 129.649 393.01C130.358 393.01 130.988 393.173 131.539 393.5C132.099 393.817 132.533 394.265 132.841 394.844C133.158 395.423 133.317 396.085 133.317 396.832ZM129.649 394.144C129.005 394.144 128.463 394.34 128.025 394.732C127.595 395.124 127.343 395.637 127.269 396.272H132.029C131.954 395.647 131.697 395.138 131.259 394.746C130.829 394.345 130.293 394.144 129.649 394.144ZM138.286 397.364H136.746V400.5H135.402V393.08H136.746V396.216H138.314L140.722 393.08H142.164L139.35 396.65L142.36 400.5H140.778L138.286 397.364ZM142.937 396.076H146.703V397.238H142.937V396.076ZM155.674 393.08V400.5H154.33V394.256H150.144V400.5H148.8V393.08H155.674ZM161.453 400.584C160.715 400.584 160.053 400.421 159.465 400.094C158.877 399.767 158.415 399.319 158.079 398.75C157.752 398.171 157.589 397.518 157.589 396.79C157.589 396.062 157.752 395.413 158.079 394.844C158.415 394.265 158.877 393.817 159.465 393.5C160.053 393.173 160.715 393.01 161.453 393.01C162.19 393.01 162.848 393.173 163.427 393.5C164.015 393.817 164.472 394.265 164.799 394.844C165.135 395.413 165.303 396.062 165.303 396.79C165.303 397.518 165.135 398.171 164.799 398.75C164.472 399.319 164.015 399.767 163.427 400.094C162.848 400.421 162.19 400.584 161.453 400.584ZM161.453 399.408C161.929 399.408 162.353 399.301 162.727 399.086C163.109 398.862 163.408 398.554 163.623 398.162C163.837 397.761 163.945 397.303 163.945 396.79C163.945 396.277 163.837 395.824 163.623 395.432C163.408 395.031 163.109 394.723 162.727 394.508C162.353 394.293 161.929 394.186 161.453 394.186C160.977 394.186 160.547 394.293 160.165 394.508C159.791 394.723 159.493 395.031 159.269 395.432C159.054 395.824 158.947 396.277 158.947 396.79C158.947 397.303 159.054 397.761 159.269 398.162C159.493 398.554 159.791 398.862 160.165 399.086C160.547 399.301 160.977 399.408 161.453 399.408ZM167.243 393.08H168.587V398.484L173.137 393.08H174.355V400.5H173.011V395.096L168.475 400.5H167.243V393.08ZM170.715 392.114C170.025 392.114 169.488 391.951 169.105 391.624C168.723 391.288 168.527 390.807 168.517 390.182H169.427C169.437 390.527 169.553 390.807 169.777 391.022C170.011 391.227 170.319 391.33 170.701 391.33C171.084 391.33 171.392 391.227 171.625 391.022C171.859 390.807 171.98 390.527 171.989 390.182H172.927C172.918 390.807 172.717 391.288 172.325 391.624C171.933 391.951 171.397 392.114 170.715 392.114ZM176.964 393.08H178.308V396.23H182.536V393.08H183.88V400.5H182.536V397.392H178.308V400.5H176.964V393.08ZM192.023 394.256H189.307V400.5H187.963V394.256H185.247V393.08H192.023V394.256ZM209.519 395.138C209.043 395.138 208.614 395.04 208.231 394.844C207.858 394.648 207.564 394.377 207.349 394.032C207.135 393.687 207.027 393.299 207.027 392.87C207.027 392.441 207.135 392.053 207.349 391.708C207.564 391.363 207.858 391.097 208.231 390.91C208.614 390.714 209.043 390.616 209.519 390.616C209.995 390.616 210.42 390.714 210.793 390.91C211.176 391.097 211.47 391.363 211.675 391.708C211.89 392.053 211.997 392.441 211.997 392.87C211.997 393.299 211.89 393.687 211.675 394.032C211.47 394.377 211.176 394.648 210.793 394.844C210.42 395.04 209.995 395.138 209.519 395.138ZM204.353 390.7H205.753V400.5H204.605L198.725 393.192V400.5H197.325V390.7H198.473L204.353 398.008V390.7ZM209.519 391.414C209.053 391.414 208.675 391.549 208.385 391.82C208.105 392.091 207.965 392.441 207.965 392.87C207.965 393.299 208.11 393.649 208.399 393.92C208.689 394.191 209.062 394.326 209.519 394.326C209.977 394.326 210.345 394.191 210.625 393.92C210.915 393.649 211.059 393.299 211.059 392.87C211.059 392.441 210.915 392.091 210.625 391.82C210.345 391.549 209.977 391.414 209.519 391.414ZM207.307 396.244H211.731V397.154H207.307V396.244ZM220.183 390.7V400.5H218.797V391.918H216.585V390.7H220.183Z" fill="white"/>
<path d="M84 403C87.5899 403 90.5 400.09 90.5 396.5C90.5 392.91 87.5899 390 84 390C80.4101 390 77.5 392.91 77.5 396.5C77.5 400.09 80.4101 403 84 403Z" stroke="#FF4F99" stroke-width="5"/>
<path d="M5.56201 301.9V314.5H2.64601V304.24H0.126007V301.9H5.56201ZM12.1788 301.684C13.9428 301.684 15.3228 302.224 16.3188 303.304C17.3148 304.372 17.8128 305.914 17.8128 307.93C17.8128 309.358 17.5428 310.582 17.0028 311.602C16.4748 312.622 15.7248 313.396 14.7528 313.924C13.7808 314.452 12.6588 314.716 11.3868 314.716C10.7148 314.716 10.0728 314.644 9.46084 314.5C8.84884 314.344 8.32684 314.128 7.89484 313.852L8.97484 311.71C9.58684 312.13 10.3728 312.34 11.3328 312.34C12.4008 312.34 13.2468 312.028 13.8708 311.404C14.4948 310.768 14.8308 309.856 14.8788 308.668C14.1228 309.424 13.0788 309.802 11.7468 309.802C10.9428 309.802 10.2108 309.64 9.55084 309.316C8.89084 308.992 8.36884 308.536 7.98484 307.948C7.60084 307.348 7.40884 306.658 7.40884 305.878C7.40884 305.038 7.61884 304.3 8.03884 303.664C8.45884 303.028 9.02884 302.542 9.74884 302.206C10.4808 301.858 11.2908 301.684 12.1788 301.684ZM12.3948 307.624C13.0308 307.624 13.5468 307.45 13.9428 307.102C14.3508 306.742 14.5548 306.286 14.5548 305.734C14.5548 305.182 14.3568 304.732 13.9608 304.384C13.5768 304.036 13.0428 303.862 12.3588 303.862C11.7348 303.862 11.2248 304.03 10.8288 304.366C10.4448 304.702 10.2528 305.158 10.2528 305.734C10.2528 306.31 10.4448 306.772 10.8288 307.12C11.2248 307.456 11.7468 307.624 12.3948 307.624ZM20.8678 308.182C20.3758 308.182 19.9618 308.014 19.6258 307.678C19.2898 307.342 19.1218 306.922 19.1218 306.418C19.1218 305.902 19.2898 305.488 19.6258 305.176C19.9618 304.852 20.3758 304.69 20.8678 304.69C21.3598 304.69 21.7738 304.852 22.1098 305.176C22.4458 305.488 22.6138 305.902 22.6138 306.418C22.6138 306.922 22.4458 307.342 22.1098 307.678C21.7738 308.014 21.3598 308.182 20.8678 308.182ZM20.8678 314.644C20.3758 314.644 19.9618 314.476 19.6258 314.14C19.2898 313.804 19.1218 313.384 19.1218 312.88C19.1218 312.364 19.2898 311.95 19.6258 311.638C19.9618 311.314 20.3758 311.152 20.8678 311.152C21.3598 311.152 21.7738 311.314 22.1098 311.638C22.4458 311.95 22.6138 312.364 22.6138 312.88C22.6138 313.384 22.4458 313.804 22.1098 314.14C21.7738 314.476 21.3598 314.644 20.8678 314.644ZM29.3227 314.716C28.2787 314.716 27.3487 314.458 26.5327 313.942C25.7167 313.426 25.0747 312.682 24.6067 311.71C24.1507 310.726 23.9227 309.556 23.9227 308.2C23.9227 306.844 24.1507 305.68 24.6067 304.708C25.0747 303.724 25.7167 302.974 26.5327 302.458C27.3487 301.942 28.2787 301.684 29.3227 301.684C30.3667 301.684 31.2967 301.942 32.1127 302.458C32.9287 302.974 33.5647 303.724 34.0207 304.708C34.4887 305.68 34.7227 306.844 34.7227 308.2C34.7227 309.556 34.4887 310.726 34.0207 311.71C33.5647 312.682 32.9287 313.426 32.1127 313.942C31.2967 314.458 30.3667 314.716 29.3227 314.716ZM29.3227 312.25C30.0907 312.25 30.6907 311.92 31.1227 311.26C31.5667 310.6 31.7887 309.58 31.7887 308.2C31.7887 306.82 31.5667 305.8 31.1227 305.14C30.6907 304.48 30.0907 304.15 29.3227 304.15C28.5667 304.15 27.9667 304.48 27.5227 305.14C27.0907 305.8 26.8747 306.82 26.8747 308.2C26.8747 309.58 27.0907 310.6 27.5227 311.26C27.9667 311.92 28.5667 312.25 29.3227 312.25ZM41.5395 314.716C40.4955 314.716 39.5655 314.458 38.7495 313.942C37.9335 313.426 37.2915 312.682 36.8235 311.71C36.3675 310.726 36.1395 309.556 36.1395 308.2C36.1395 306.844 36.3675 305.68 36.8235 304.708C37.2915 303.724 37.9335 302.974 38.7495 302.458C39.5655 301.942 40.4955 301.684 41.5395 301.684C42.5835 301.684 43.5135 301.942 44.3295 302.458C45.1455 302.974 45.7815 303.724 46.2375 304.708C46.7055 305.68 46.9395 306.844 46.9395 308.2C46.9395 309.556 46.7055 310.726 46.2375 311.71C45.7815 312.682 45.1455 313.426 44.3295 313.942C43.5135 314.458 42.5835 314.716 41.5395 314.716ZM41.5395 312.25C42.3075 312.25 42.9075 311.92 43.3395 311.26C43.7835 310.6 44.0055 309.58 44.0055 308.2C44.0055 306.82 43.7835 305.8 43.3395 305.14C42.9075 304.48 42.3075 304.15 41.5395 304.15C40.7835 304.15 40.1835 304.48 39.7395 305.14C39.3075 305.8 39.0915 306.82 39.0915 308.2C39.0915 309.58 39.3075 310.6 39.7395 311.26C40.1835 311.92 40.7835 312.25 41.5395 312.25Z" fill="#FF4F99"/>
<path d="M84 315C87.5899 315 90.5 312.09 90.5 308.5C90.5 304.91 87.5899 302 84 302C80.4101 302 77.5 304.91 77.5 308.5C77.5 312.09 80.4101 315 84 315Z" stroke="#FF4F99" stroke-width="5"/>
<path d="M10.116 488.124V490.5H0.594005V488.61L5.45401 484.02C5.97001 483.528 6.31801 483.108 6.49801 482.76C6.67801 482.4 6.76801 482.046 6.76801 481.698C6.76801 481.194 6.59401 480.81 6.24601 480.546C5.91001 480.27 5.41201 480.132 4.75201 480.132C4.20001 480.132 3.70201 480.24 3.25801 480.456C2.81401 480.66 2.44201 480.972 2.14201 481.392L0.0180054 480.024C0.510005 479.292 1.18801 478.722 2.05201 478.314C2.91601 477.894 3.90601 477.684 5.02201 477.684C5.95801 477.684 6.77401 477.84 7.47001 478.152C8.17801 478.452 8.72401 478.884 9.10801 479.448C9.50401 480 9.70201 480.654 9.70201 481.41C9.70201 482.094 9.55801 482.736 9.27001 483.336C8.98201 483.936 8.42401 484.62 7.59601 485.388L4.69801 488.124H10.116ZM20.7332 488.124V490.5H11.2112V488.61L16.0712 484.02C16.5872 483.528 16.9352 483.108 17.1152 482.76C17.2952 482.4 17.3852 482.046 17.3852 481.698C17.3852 481.194 17.2112 480.81 16.8632 480.546C16.5272 480.27 16.0292 480.132 15.3692 480.132C14.8172 480.132 14.3192 480.24 13.8752 480.456C13.4312 480.66 13.0592 480.972 12.7592 481.392L10.6352 480.024C11.1272 479.292 11.8052 478.722 12.6692 478.314C13.5332 477.894 14.5232 477.684 15.6392 477.684C16.5752 477.684 17.3912 477.84 18.0872 478.152C18.7952 478.452 19.3412 478.884 19.7252 479.448C20.1212 480 20.3192 480.654 20.3192 481.41C20.3192 482.094 20.1752 482.736 19.8872 483.336C19.5992 483.936 19.0412 484.62 18.2132 485.388L15.3152 488.124H20.7332ZM23.5924 484.182C23.1004 484.182 22.6864 484.014 22.3504 483.678C22.0144 483.342 21.8464 482.922 21.8464 482.418C21.8464 481.902 22.0144 481.488 22.3504 481.176C22.6864 480.852 23.1004 480.69 23.5924 480.69C24.0844 480.69 24.4984 480.852 24.8344 481.176C25.1704 481.488 25.3384 481.902 25.3384 482.418C25.3384 482.922 25.1704 483.342 24.8344 483.678C24.4984 484.014 24.0844 484.182 23.5924 484.182ZM23.5924 490.644C23.1004 490.644 22.6864 490.476 22.3504 490.14C22.0144 489.804 21.8464 489.384 21.8464 488.88C21.8464 488.364 22.0144 487.95 22.3504 487.638C22.6864 487.314 23.1004 487.152 23.5924 487.152C24.0844 487.152 24.4984 487.314 24.8344 487.638C25.1704 487.95 25.3384 488.364 25.3384 488.88C25.3384 489.384 25.1704 489.804 24.8344 490.14C24.4984 490.476 24.0844 490.644 23.5924 490.644ZM32.0473 490.716C31.0033 490.716 30.0733 490.458 29.2573 489.942C28.4413 489.426 27.7993 488.682 27.3313 487.71C26.8753 486.726 26.6473 485.556 26.6473 484.2C26.6473 482.844 26.8753 481.68 27.3313 480.708C27.7993 479.724 28.4413 478.974 29.2573 478.458C30.0733 477.942 31.0033 477.684 32.0473 477.684C33.0913 477.684 34.0213 477.942 34.8373 478.458C35.6533 478.974 36.2893 479.724 36.7453 480.708C37.2133 481.68 37.4473 482.844 37.4473 484.2C37.4473 485.556 37.2133 486.726 36.7453 487.71C36.2893 488.682 35.6533 489.426 34.8373 489.942C34.0213 490.458 33.0913 490.716 32.0473 490.716ZM32.0473 488.25C32.8153 488.25 33.4153 487.92 33.8473 487.26C34.2913 486.6 34.5133 485.58 34.5133 484.2C34.5133 482.82 34.2913 481.8 33.8473 481.14C33.4153 480.48 32.8153 480.15 32.0473 480.15C31.2913 480.15 30.6913 480.48 30.2473 481.14C29.8153 481.8 29.5993 482.82 29.5993 484.2C29.5993 485.58 29.8153 486.6 30.2473 487.26C30.6913 487.92 31.2913 488.25 32.0473 488.25ZM44.2641 490.716C43.2201 490.716 42.2901 490.458 41.4741 489.942C40.6581 489.426 40.0161 488.682 39.5481 487.71C39.0921 486.726 38.8641 485.556 38.8641 484.2C38.8641 482.844 39.0921 481.68 39.5481 480.708C40.0161 479.724 40.6581 478.974 41.4741 478.458C42.2901 477.942 43.2201 477.684 44.2641 477.684C45.3081 477.684 46.2381 477.942 47.0541 478.458C47.8701 478.974 48.5061 479.724 48.9621 480.708C49.4301 481.68 49.6641 482.844 49.6641 484.2C49.6641 485.556 49.4301 486.726 48.9621 487.71C48.5061 488.682 47.8701 489.426 47.0541 489.942C46.2381 490.458 45.3081 490.716 44.2641 490.716ZM44.2641 488.25C45.0321 488.25 45.6321 487.92 46.0641 487.26C46.5081 486.6 46.7301 485.58 46.7301 484.2C46.7301 482.82 46.5081 481.8 46.0641 481.14C45.6321 480.48 45.0321 480.15 44.2641 480.15C43.5081 480.15 42.9081 480.48 42.4641 481.14C42.0321 481.8 41.8161 482.82 41.8161 484.2C41.8161 485.58 42.0321 486.6 42.4641 487.26C42.9081 487.92 43.5081 488.25 44.2641 488.25ZM51.3852 484.308H56.4792V486.558H51.3852V484.308ZM6.10201 517.716C5.05801 517.716 4.12801 517.458 3.31201 516.942C2.49601 516.426 1.85401 515.682 1.38601 514.71C0.930005 513.726 0.702005 512.556 0.702005 511.2C0.702005 509.844 0.930005 508.68 1.38601 507.708C1.85401 506.724 2.49601 505.974 3.31201 505.458C4.12801 504.942 5.05801 504.684 6.10201 504.684C7.14601 504.684 8.07601 504.942 8.89201 505.458C9.70801 505.974 10.344 506.724 10.8 507.708C11.268 508.68 11.502 509.844 11.502 511.2C11.502 512.556 11.268 513.726 10.8 514.71C10.344 515.682 9.70801 516.426 8.89201 516.942C8.07601 517.458 7.14601 517.716 6.10201 517.716ZM6.10201 515.25C6.87001 515.25 7.47001 514.92 7.90201 514.26C8.34601 513.6 8.56801 512.58 8.56801 511.2C8.56801 509.82 8.34601 508.8 7.90201 508.14C7.47001 507.48 6.87001 507.15 6.10201 507.15C5.34601 507.15 4.74601 507.48 4.30201 508.14C3.87001 508.8 3.65401 509.82 3.65401 511.2C3.65401 512.58 3.87001 513.6 4.30201 514.26C4.74601 514.92 5.34601 515.25 6.10201 515.25ZM18.3188 517.716C17.2748 517.716 16.3448 517.458 15.5288 516.942C14.7128 516.426 14.0708 515.682 13.6028 514.71C13.1468 513.726 12.9188 512.556 12.9188 511.2C12.9188 509.844 13.1468 508.68 13.6028 507.708C14.0708 506.724 14.7128 505.974 15.5288 505.458C16.3448 504.942 17.2748 504.684 18.3188 504.684C19.3628 504.684 20.2928 504.942 21.1088 505.458C21.9248 505.974 22.5608 506.724 23.0168 507.708C23.4848 508.68 23.7188 509.844 23.7188 511.2C23.7188 512.556 23.4848 513.726 23.0168 514.71C22.5608 515.682 21.9248 516.426 21.1088 516.942C20.2928 517.458 19.3628 517.716 18.3188 517.716ZM18.3188 515.25C19.0868 515.25 19.6868 514.92 20.1188 514.26C20.5628 513.6 20.7848 512.58 20.7848 511.2C20.7848 509.82 20.5628 508.8 20.1188 508.14C19.6868 507.48 19.0868 507.15 18.3188 507.15C17.5628 507.15 16.9628 507.48 16.5188 508.14C16.0868 508.8 15.8708 509.82 15.8708 511.2C15.8708 512.58 16.0868 513.6 16.5188 514.26C16.9628 514.92 17.5628 515.25 18.3188 515.25ZM26.7916 511.182C26.2996 511.182 25.8856 511.014 25.5496 510.678C25.2136 510.342 25.0456 509.922 25.0456 509.418C25.0456 508.902 25.2136 508.488 25.5496 508.176C25.8856 507.852 26.2996 507.69 26.7916 507.69C27.2836 507.69 27.6976 507.852 28.0336 508.176C28.3696 508.488 28.5376 508.902 28.5376 509.418C28.5376 509.922 28.3696 510.342 28.0336 510.678C27.6976 511.014 27.2836 511.182 26.7916 511.182ZM26.7916 517.644C26.2996 517.644 25.8856 517.476 25.5496 517.14C25.2136 516.804 25.0456 516.384 25.0456 515.88C25.0456 515.364 25.2136 514.95 25.5496 514.638C25.8856 514.314 26.2996 514.152 26.7916 514.152C27.2836 514.152 27.6976 514.314 28.0336 514.638C28.3696 514.95 28.5376 515.364 28.5376 515.88C28.5376 516.384 28.3696 516.804 28.0336 517.14C27.6976 517.476 27.2836 517.644 26.7916 517.644ZM35.2465 517.716C34.2025 517.716 33.2725 517.458 32.4565 516.942C31.6405 516.426 30.9985 515.682 30.5305 514.71C30.0745 513.726 29.8465 512.556 29.8465 511.2C29.8465 509.844 30.0745 508.68 30.5305 507.708C30.9985 506.724 31.6405 505.974 32.4565 505.458C33.2725 504.942 34.2025 504.684 35.2465 504.684C36.2905 504.684 37.2205 504.942 38.0365 505.458C38.8525 505.974 39.4885 506.724 39.9445 507.708C40.4125 508.68 40.6465 509.844 40.6465 511.2C40.6465 512.556 40.4125 513.726 39.9445 514.71C39.4885 515.682 38.8525 516.426 38.0365 516.942C37.2205 517.458 36.2905 517.716 35.2465 517.716ZM35.2465 515.25C36.0145 515.25 36.6145 514.92 37.0465 514.26C37.4905 513.6 37.7125 512.58 37.7125 511.2C37.7125 509.82 37.4905 508.8 37.0465 508.14C36.6145 507.48 36.0145 507.15 35.2465 507.15C34.4905 507.15 33.8905 507.48 33.4465 508.14C33.0145 508.8 32.7985 509.82 32.7985 511.2C32.7985 512.58 33.0145 513.6 33.4465 514.26C33.8905 514.92 34.4905 515.25 35.2465 515.25ZM47.4633 517.716C46.4193 517.716 45.4893 517.458 44.6733 516.942C43.8573 516.426 43.2153 515.682 42.7473 514.71C42.2913 513.726 42.0633 512.556 42.0633 511.2C42.0633 509.844 42.2913 508.68 42.7473 507.708C43.2153 506.724 43.8573 505.974 44.6733 505.458C45.4893 504.942 46.4193 504.684 47.4633 504.684C48.5073 504.684 49.4373 504.942 50.2533 505.458C51.0693 505.974 51.7053 506.724 52.1613 507.708C52.6293 508.68 52.8633 509.844 52.8633 511.2C52.8633 512.556 52.6293 513.726 52.1613 514.71C51.7053 515.682 51.0693 516.426 50.2533 516.942C49.4373 517.458 48.5073 517.716 47.4633 517.716ZM47.4633 515.25C48.2313 515.25 48.8313 514.92 49.2633 514.26C49.7073 513.6 49.9293 512.58 49.9293 511.2C49.9293 509.82 49.7073 508.8 49.2633 508.14C48.8313 507.48 48.2313 507.15 47.4633 507.15C46.7073 507.15 46.1073 507.48 45.6633 508.14C45.2313 508.8 45.0153 509.82 45.0153 511.2C45.0153 512.58 45.2313 513.6 45.6633 514.26C46.1073 514.92 46.7073 515.25 47.4633 515.25Z" fill="#FF4F99"/>
<path d="M120.348 478.7C121.617 478.7 122.616 479.003 123.344 479.61C124.072 480.217 124.436 481.052 124.436 482.116C124.436 483.18 124.072 484.015 123.344 484.622C122.616 485.229 121.617 485.532 120.348 485.532H117.926V488.5H116.526V478.7H120.348ZM120.306 484.314C121.193 484.314 121.869 484.127 122.336 483.754C122.803 483.371 123.036 482.825 123.036 482.116C123.036 481.407 122.803 480.865 122.336 480.492C121.869 480.109 121.193 479.918 120.306 479.918H117.926V484.314H120.306ZM128.737 481.01C129.764 481.01 130.548 481.262 131.089 481.766C131.64 482.27 131.915 483.021 131.915 484.02V488.5H130.641V487.52C130.417 487.865 130.095 488.131 129.675 488.318C129.264 488.495 128.774 488.584 128.205 488.584C127.374 488.584 126.707 488.383 126.203 487.982C125.708 487.581 125.461 487.053 125.461 486.4C125.461 485.747 125.699 485.224 126.175 484.832C126.651 484.431 127.407 484.23 128.443 484.23H130.571V483.964C130.571 483.385 130.403 482.942 130.067 482.634C129.731 482.326 129.236 482.172 128.583 482.172C128.144 482.172 127.715 482.247 127.295 482.396C126.875 482.536 126.52 482.727 126.231 482.97L125.671 481.962C126.054 481.654 126.511 481.421 127.043 481.262C127.575 481.094 128.14 481.01 128.737 481.01ZM128.429 487.548C128.942 487.548 129.386 487.436 129.759 487.212C130.132 486.979 130.403 486.652 130.571 486.232V485.196H128.499C127.36 485.196 126.791 485.579 126.791 486.344C126.791 486.717 126.936 487.011 127.225 487.226C127.514 487.441 127.916 487.548 128.429 487.548ZM138.23 484.636C138.725 484.767 139.107 484.977 139.378 485.266C139.649 485.555 139.784 485.915 139.784 486.344C139.784 486.783 139.635 487.175 139.336 487.52C139.037 487.856 138.622 488.122 138.09 488.318C137.567 488.505 136.979 488.598 136.326 488.598C135.775 488.598 135.234 488.528 134.702 488.388C134.179 488.239 133.713 488.029 133.302 487.758L133.708 486.736C134.063 486.96 134.469 487.137 134.926 487.268C135.383 487.389 135.845 487.45 136.312 487.45C136.947 487.45 137.451 487.343 137.824 487.128C138.207 486.904 138.398 486.605 138.398 486.232C138.398 485.887 138.244 485.621 137.936 485.434C137.637 485.247 137.213 485.154 136.662 485.154H135.304V484.188H136.564C137.068 484.188 137.465 484.099 137.754 483.922C138.043 483.745 138.188 483.502 138.188 483.194C138.188 482.858 138.015 482.597 137.67 482.41C137.334 482.223 136.877 482.13 136.298 482.13C135.561 482.13 134.781 482.321 133.96 482.704L133.596 481.668C134.501 481.211 135.449 480.982 136.438 480.982C137.035 480.982 137.572 481.066 138.048 481.234C138.524 481.402 138.897 481.64 139.168 481.948C139.439 482.256 139.574 482.606 139.574 482.998C139.574 483.362 139.453 483.689 139.21 483.978C138.967 484.267 138.641 484.487 138.23 484.636ZM146.881 484.65C147.843 484.893 148.323 485.495 148.323 486.456C148.323 487.109 148.076 487.613 147.581 487.968C147.096 488.323 146.368 488.5 145.397 488.5H141.827V481.08H145.271C146.149 481.08 146.835 481.248 147.329 481.584C147.824 481.911 148.071 482.377 148.071 482.984C148.071 483.376 147.964 483.717 147.749 484.006C147.544 484.286 147.255 484.501 146.881 484.65ZM143.143 484.272H145.159C145.673 484.272 146.06 484.179 146.321 483.992C146.592 483.805 146.727 483.535 146.727 483.18C146.727 482.471 146.205 482.116 145.159 482.116H143.143V484.272ZM145.299 487.464C145.859 487.464 146.279 487.375 146.559 487.198C146.839 487.021 146.979 486.745 146.979 486.372C146.979 485.989 146.849 485.705 146.587 485.518C146.335 485.331 145.934 485.238 145.383 485.238H143.143V487.464H145.299ZM156.797 481.08V488.5H155.453V482.256H152.261L152.177 483.908C152.13 484.907 152.042 485.742 151.911 486.414C151.78 487.077 151.566 487.609 151.267 488.01C150.968 488.411 150.553 488.612 150.021 488.612C149.778 488.612 149.503 488.57 149.195 488.486L149.279 487.352C149.4 487.38 149.512 487.394 149.615 487.394C149.988 487.394 150.268 487.231 150.455 486.904C150.642 486.577 150.763 486.19 150.819 485.742C150.875 485.294 150.926 484.655 150.973 483.824L151.099 481.08H156.797ZM166.102 484.832C166.102 484.935 166.092 485.07 166.074 485.238H160.054C160.138 485.891 160.422 486.419 160.908 486.82C161.402 487.212 162.014 487.408 162.742 487.408C163.628 487.408 164.342 487.109 164.884 486.512L165.626 487.38C165.29 487.772 164.87 488.071 164.366 488.276C163.871 488.481 163.316 488.584 162.7 488.584C161.916 488.584 161.22 488.425 160.614 488.108C160.007 487.781 159.536 487.329 159.2 486.75C158.873 486.171 158.71 485.518 158.71 484.79C158.71 484.071 158.868 483.423 159.186 482.844C159.512 482.265 159.956 481.817 160.516 481.5C161.085 481.173 161.724 481.01 162.434 481.01C163.143 481.01 163.773 481.173 164.324 481.5C164.884 481.817 165.318 482.265 165.626 482.844C165.943 483.423 166.102 484.085 166.102 484.832ZM162.434 482.144C161.79 482.144 161.248 482.34 160.81 482.732C160.38 483.124 160.128 483.637 160.054 484.272H164.814C164.739 483.647 164.482 483.138 164.044 482.746C163.614 482.345 163.078 482.144 162.434 482.144ZM171.071 485.364H169.531V488.5H168.187V481.08H169.531V484.216H171.099L173.507 481.08H174.949L172.135 484.65L175.145 488.5H173.563L171.071 485.364ZM179.063 481.01C180.09 481.01 180.874 481.262 181.415 481.766C181.966 482.27 182.241 483.021 182.241 484.02V488.5H180.967V487.52C180.743 487.865 180.421 488.131 180.001 488.318C179.591 488.495 179.101 488.584 178.531 488.584C177.701 488.584 177.033 488.383 176.529 487.982C176.035 487.581 175.787 487.053 175.787 486.4C175.787 485.747 176.025 485.224 176.501 484.832C176.977 484.431 177.733 484.23 178.769 484.23H180.897V483.964C180.897 483.385 180.729 482.942 180.393 482.634C180.057 482.326 179.563 482.172 178.909 482.172C178.471 482.172 178.041 482.247 177.621 482.396C177.201 482.536 176.847 482.727 176.557 482.97L175.997 481.962C176.38 481.654 176.837 481.421 177.369 481.262C177.901 481.094 178.466 481.01 179.063 481.01ZM178.755 487.548C179.269 487.548 179.712 487.436 180.085 487.212C180.459 486.979 180.729 486.652 180.897 486.232V485.196H178.825C177.687 485.196 177.117 485.579 177.117 486.344C177.117 486.717 177.262 487.011 177.551 487.226C177.841 487.441 178.242 487.548 178.755 487.548ZM190.191 482.256H187.475V488.5H186.131V482.256H183.415V481.08H190.191V482.256ZM197.944 484.832C197.944 484.935 197.934 485.07 197.916 485.238H191.896C191.98 485.891 192.264 486.419 192.75 486.82C193.244 487.212 193.856 487.408 194.584 487.408C195.47 487.408 196.184 487.109 196.726 486.512L197.468 487.38C197.132 487.772 196.712 488.071 196.208 488.276C195.713 488.481 195.158 488.584 194.542 488.584C193.758 488.584 193.062 488.425 192.456 488.108C191.849 487.781 191.378 487.329 191.042 486.75C190.715 486.171 190.552 485.518 190.552 484.79C190.552 484.071 190.71 483.423 191.028 482.844C191.354 482.265 191.798 481.817 192.358 481.5C192.927 481.173 193.566 481.01 194.276 481.01C194.985 481.01 195.615 481.173 196.166 481.5C196.726 481.817 197.16 482.265 197.468 482.844C197.785 483.423 197.944 484.085 197.944 484.832ZM194.276 482.144C193.632 482.144 193.09 482.34 192.652 482.732C192.222 483.124 191.97 483.637 191.896 484.272H196.656C196.581 483.647 196.324 483.138 195.886 482.746C195.456 482.345 194.92 482.144 194.276 482.144ZM206.276 481.08V488.5H204.932V482.256H201.74L201.656 483.908C201.609 484.907 201.52 485.742 201.39 486.414C201.259 487.077 201.044 487.609 200.746 488.01C200.447 488.411 200.032 488.612 199.5 488.612C199.257 488.612 198.982 488.57 198.674 488.486L198.758 487.352C198.879 487.38 198.991 487.394 199.094 487.394C199.467 487.394 199.747 487.231 199.934 486.904C200.12 486.577 200.242 486.19 200.298 485.742C200.354 485.294 200.405 484.655 200.452 483.824L200.578 481.08H206.276ZM212.304 483.6C213.247 483.609 213.966 483.824 214.46 484.244C214.955 484.664 215.202 485.257 215.202 486.022C215.202 486.825 214.932 487.445 214.39 487.884C213.858 488.313 213.093 488.523 212.094 488.514L208.874 488.5V481.08H210.218V483.586L212.304 483.6ZM211.982 487.492C212.589 487.501 213.046 487.38 213.354 487.128C213.672 486.876 213.83 486.503 213.83 486.008C213.83 485.523 213.676 485.168 213.368 484.944C213.07 484.72 212.608 484.603 211.982 484.594L210.218 484.566V487.478L211.982 487.492ZM216.927 481.08H218.271V484.23H222.499V481.08H223.843V488.5H222.499V485.392H218.271V488.5H216.927V481.08ZM229.102 481.01C230.129 481.01 230.913 481.262 231.454 481.766C232.005 482.27 232.28 483.021 232.28 484.02V488.5H231.006V487.52C230.782 487.865 230.46 488.131 230.04 488.318C229.63 488.495 229.14 488.584 228.57 488.584C227.74 488.584 227.072 488.383 226.568 487.982C226.074 487.581 225.826 487.053 225.826 486.4C225.826 485.747 226.064 485.224 226.54 484.832C227.016 484.431 227.772 484.23 228.808 484.23H230.936V483.964C230.936 483.385 230.768 482.942 230.432 482.634C230.096 482.326 229.602 482.172 228.948 482.172C228.51 482.172 228.08 482.247 227.66 482.396C227.24 482.536 226.886 482.727 226.596 482.97L226.036 481.962C226.419 481.654 226.876 481.421 227.408 481.262C227.94 481.094 228.505 481.01 229.102 481.01ZM228.794 487.548C229.308 487.548 229.751 487.436 230.124 487.212C230.498 486.979 230.768 486.652 230.936 486.232V485.196H228.864C227.726 485.196 227.156 485.579 227.156 486.344C227.156 486.717 227.301 487.011 227.59 487.226C227.88 487.441 228.281 487.548 228.794 487.548ZM240.65 481.08V488.5H239.446V486.148H237.29H237.136L235.512 488.5H234.07L235.876 485.966C235.316 485.798 234.887 485.523 234.588 485.14C234.29 484.748 234.14 484.263 234.14 483.684C234.14 482.835 234.43 482.191 235.008 481.752C235.587 481.304 236.385 481.08 237.402 481.08H240.65ZM235.512 483.726C235.512 484.221 235.666 484.589 235.974 484.832C236.292 485.065 236.763 485.182 237.388 485.182H239.446V482.256H237.444C236.156 482.256 235.512 482.746 235.512 483.726ZM253.906 481.08V488.5H252.562V482.256H248.376V488.5H247.032V481.08H253.906ZM262.877 481.08V488.5H261.533V482.256H258.341L258.257 483.908C258.21 484.907 258.122 485.742 257.991 486.414C257.86 487.077 257.646 487.609 257.347 488.01C257.048 488.411 256.633 488.612 256.101 488.612C255.858 488.612 255.583 488.57 255.275 488.486L255.359 487.352C255.48 487.38 255.592 487.394 255.695 487.394C256.068 487.394 256.348 487.231 256.535 486.904C256.722 486.577 256.843 486.19 256.899 485.742C256.955 485.294 257.006 484.655 257.053 483.824L257.179 481.08H262.877ZM268.654 488.584C267.916 488.584 267.254 488.421 266.666 488.094C266.078 487.767 265.616 487.319 265.28 486.75C264.953 486.171 264.79 485.518 264.79 484.79C264.79 484.062 264.953 483.413 265.28 482.844C265.616 482.265 266.078 481.817 266.666 481.5C267.254 481.173 267.916 481.01 268.654 481.01C269.391 481.01 270.049 481.173 270.628 481.5C271.216 481.817 271.673 482.265 272 482.844C272.336 483.413 272.504 484.062 272.504 484.79C272.504 485.518 272.336 486.171 272 486.75C271.673 487.319 271.216 487.767 270.628 488.094C270.049 488.421 269.391 488.584 268.654 488.584ZM268.654 487.408C269.13 487.408 269.554 487.301 269.928 487.086C270.31 486.862 270.609 486.554 270.824 486.162C271.038 485.761 271.146 485.303 271.146 484.79C271.146 484.277 271.038 483.824 270.824 483.432C270.609 483.031 270.31 482.723 269.928 482.508C269.554 482.293 269.13 482.186 268.654 482.186C268.178 482.186 267.748 482.293 267.366 482.508C266.992 482.723 266.694 483.031 266.47 483.432C266.255 483.824 266.148 484.277 266.148 484.79C266.148 485.303 266.255 485.761 266.47 486.162C266.694 486.554 266.992 486.862 267.366 487.086C267.748 487.301 268.178 487.408 268.654 487.408ZM285.015 481.08V488.5H274.445V481.08H275.789V487.324H279.065V481.08H280.409V487.324H283.671V481.08H285.015ZM286.121 487.324V490.082H284.861V488.5H283.615V487.324H286.121ZM290.27 481.01C291.297 481.01 292.081 481.262 292.622 481.766C293.173 482.27 293.448 483.021 293.448 484.02V488.5H292.174V487.52C291.95 487.865 291.628 488.131 291.208 488.318C290.798 488.495 290.308 488.584 289.738 488.584C288.908 488.584 288.24 488.383 287.736 487.982C287.242 487.581 286.994 487.053 286.994 486.4C286.994 485.747 287.232 485.224 287.708 484.832C288.184 484.431 288.94 484.23 289.976 484.23H292.104V483.964C292.104 483.385 291.936 482.942 291.6 482.634C291.264 482.326 290.77 482.172 290.116 482.172C289.678 482.172 289.248 482.247 288.828 482.396C288.408 482.536 288.054 482.727 287.764 482.97L287.204 481.962C287.587 481.654 288.044 481.421 288.576 481.262C289.108 481.094 289.673 481.01 290.27 481.01ZM289.962 487.548C290.476 487.548 290.919 487.436 291.292 487.212C291.666 486.979 291.936 486.652 292.104 486.232V485.196H290.032C288.894 485.196 288.324 485.579 288.324 486.344C288.324 486.717 288.469 487.011 288.758 487.226C289.048 487.441 289.449 487.548 289.962 487.548ZM303.414 487.324V490.222H302.154V488.5H295.952V490.222H294.678V487.324H295.07C295.546 487.296 295.873 486.96 296.05 486.316C296.228 485.672 296.349 484.762 296.414 483.586L296.526 481.08H302.28V487.324H303.414ZM297.646 483.684C297.609 484.617 297.53 485.392 297.408 486.008C297.296 486.615 297.086 487.053 296.778 487.324H300.936V482.256H297.716L297.646 483.684ZM308.049 485.364H306.509V488.5H305.165V481.08H306.509V484.216H308.077L310.485 481.08H311.927L309.113 484.65L312.123 488.5H310.541L308.049 485.364ZM316.042 481.01C317.068 481.01 317.852 481.262 318.394 481.766C318.944 482.27 319.22 483.021 319.22 484.02V488.5H317.946V487.52C317.722 487.865 317.4 488.131 316.98 488.318C316.569 488.495 316.079 488.584 315.51 488.584C314.679 488.584 314.012 488.383 313.508 487.982C313.013 487.581 312.766 487.053 312.766 486.4C312.766 485.747 313.004 485.224 313.48 484.832C313.956 484.431 314.712 484.23 315.748 484.23H317.876V483.964C317.876 483.385 317.708 482.942 317.372 482.634C317.036 482.326 316.541 482.172 315.888 482.172C315.449 482.172 315.02 482.247 314.6 482.396C314.18 482.536 313.825 482.727 313.536 482.97L312.976 481.962C313.358 481.654 313.816 481.421 314.348 481.262C314.88 481.094 315.444 481.01 316.042 481.01ZM315.734 487.548C316.247 487.548 316.69 487.436 317.064 487.212C317.437 486.979 317.708 486.652 317.876 486.232V485.196H315.804C314.665 485.196 314.096 485.579 314.096 486.344C314.096 486.717 314.24 487.011 314.53 487.226C314.819 487.441 315.22 487.548 315.734 487.548Z" fill="white"/>
<path d="M84 491C87.5899 491 90.5 488.09 90.5 484.5C90.5 480.91 87.5899 478 84 478C80.4101 478 77.5 480.91 77.5 484.5C77.5 488.09 80.4101 491 84 491Z" stroke="#FF4F99" stroke-width="5"/>
<path d="M125.324 303L120.97 311.078C120.625 311.722 120.219 312.203 119.752 312.52C119.285 312.837 118.777 312.996 118.226 312.996C117.797 312.996 117.358 312.898 116.91 312.702L117.274 311.582C117.619 311.703 117.927 311.764 118.198 311.764C118.814 311.764 119.323 311.437 119.724 310.784L119.948 310.434L116 303H117.498L120.676 309.216L123.938 303H125.324ZM133.041 309.664H131.599V312.8H130.255V309.664H128.813L126.769 312.8H125.173L127.721 308.964L125.369 305.38H126.797L128.799 308.516H130.255V305.38H131.599V308.516H133.055L135.057 305.38H136.499L134.147 308.978L136.695 312.8H135.099L133.041 309.664ZM138.174 305.38H139.518V310.784L144.068 305.38H145.286V312.8H143.942V307.396L139.406 312.8H138.174V305.38ZM147.894 305.38H149.238V308.53H153.466V305.38H154.81V312.8H153.466V309.692H149.238V312.8H147.894V305.38Z" fill="white"/>
</svg>
