<svg width="365" height="611" viewBox="0 0 365 611" fill="none" xmlns="http://www.w3.org/2000/svg">
<rect y="52" width="111" height="30" rx="3" fill="#FF8686"/>
<path d="M30.9691 61V75H27.7291V63.6H24.9291V61H30.9691ZM44.3611 61V63.1L39.1611 75H35.6411L40.6611 63.64H36.0211V65.92H33.1411V61H44.3611ZM57.2275 75.16C56.0942 75.16 55.0742 74.9267 54.1675 74.46C53.2742 73.98 52.5742 73.32 52.0675 72.48C51.5608 71.64 51.3075 70.6867 51.3075 69.62C51.3075 68.5533 51.5608 67.6 52.0675 66.76C52.5742 65.92 53.2742 65.2667 54.1675 64.8C55.0742 64.32 56.0942 64.08 57.2275 64.08C58.3608 64.08 59.3742 64.32 60.2675 64.8C61.1608 65.2667 61.8608 65.92 62.3675 66.76C62.8742 67.6 63.1275 68.5533 63.1275 69.62C63.1275 70.6867 62.8742 71.64 62.3675 72.48C61.8608 73.32 61.1608 73.98 60.2675 74.46C59.3742 74.9267 58.3608 75.16 57.2275 75.16ZM57.2275 72.6C58.0275 72.6 58.6808 72.3333 59.1875 71.8C59.7075 71.2533 59.9675 70.5267 59.9675 69.62C59.9675 68.7133 59.7075 67.9933 59.1875 67.46C58.6808 66.9133 58.0275 66.64 57.2275 66.64C56.4275 66.64 55.7675 66.9133 55.2475 67.46C54.7275 67.9933 54.4675 68.7133 54.4675 69.62C54.4675 70.5267 54.7275 71.2533 55.2475 71.8C55.7675 72.3333 56.4275 72.6 57.2275 72.6ZM70.0134 70.92H68.3934V75H65.2734V64.24H68.3934V68.42H70.0734L72.9934 64.24H76.3134L72.5534 69.4L76.5734 75H72.8934L70.0134 70.92ZM87.0478 66.8H83.4078V75H80.3078V66.8H76.6678V64.24H87.0478V66.8Z" fill="#0C1324"/>
<path d="M26.697 20.644V29.785H21.747V25H5.445V29.785H0.495L0.528 20.644H1.452C2.838 20.6 3.817 19.588 4.389 17.608C4.961 15.628 5.313 12.801 5.445 9.127L5.709 1.9H23.463V20.644H26.697ZM10.164 9.622C10.054 12.372 9.823 14.682 9.471 16.552C9.119 18.4 8.58 19.764 7.854 20.644H18.183V6.256H10.263L10.164 9.622ZM46.9332 16.189C46.9332 16.255 46.9002 16.717 46.8342 17.575H33.4032C33.6452 18.675 34.2172 19.544 35.1192 20.182C36.0212 20.82 37.1432 21.139 38.4852 21.139C39.4092 21.139 40.2232 21.007 40.9272 20.743C41.6532 20.457 42.3242 20.017 42.9402 19.423L45.6792 22.393C44.0072 24.307 41.5652 25.264 38.3532 25.264C36.3512 25.264 34.5802 24.879 33.0402 24.109C31.5002 23.317 30.3122 22.228 29.4762 20.842C28.6402 19.456 28.2222 17.883 28.2222 16.123C28.2222 14.385 28.6292 12.823 29.4432 11.437C30.2792 10.029 31.4122 8.94 32.8422 8.17C34.2942 7.378 35.9112 6.982 37.6932 6.982C39.4312 6.982 41.0042 7.356 42.4122 8.104C43.8202 8.852 44.9202 9.93 45.7122 11.338C46.5262 12.724 46.9332 14.341 46.9332 16.189ZM37.7262 10.876C36.5602 10.876 35.5812 11.206 34.7892 11.866C33.9972 12.526 33.5132 13.428 33.3372 14.572H42.0822C41.9062 13.45 41.4222 12.559 40.6302 11.899C39.8382 11.217 38.8702 10.876 37.7262 10.876ZM50.8793 7.246H55.9943V14.176H63.7163V7.246H68.8643V25H63.7163V18.367H55.9943V25H50.8793V7.246ZM83.3954 12.922C85.7054 12.944 87.4764 13.472 88.7084 14.506C89.9404 15.518 90.5564 16.959 90.5564 18.829C90.5564 20.787 89.8634 22.316 88.4774 23.416C87.1134 24.494 85.1884 25.033 82.7024 25.033L73.7924 25V7.246H78.9074V12.922H83.3954ZM82.2404 21.37C83.2304 21.392 83.9894 21.183 84.5174 20.743C85.0454 20.303 85.3094 19.643 85.3094 18.763C85.3094 17.905 85.0454 17.278 84.5174 16.882C84.0114 16.486 83.2524 16.277 82.2404 16.255L78.9074 16.222V21.37H82.2404ZM119.19 20.644V25H101.733V21.535L110.643 13.12C111.589 12.218 112.227 11.448 112.557 10.81C112.887 10.15 113.052 9.501 113.052 8.863C113.052 7.939 112.733 7.235 112.095 6.751C111.479 6.245 110.566 5.992 109.356 5.992C108.344 5.992 107.431 6.19 106.617 6.586C105.803 6.96 105.121 7.532 104.571 8.302L100.677 5.794C101.579 4.452 102.822 3.407 104.406 2.659C105.99 1.889 107.805 1.504 109.851 1.504C111.567 1.504 113.063 1.79 114.339 2.362C115.637 2.912 116.638 3.704 117.342 4.738C118.068 5.75 118.431 6.949 118.431 8.335C118.431 9.589 118.167 10.766 117.639 11.866C117.111 12.966 116.088 14.22 114.57 15.628L109.257 20.644H119.19Z" fill="#FF8686"/>
<path d="M84 139.5V211" stroke="white" stroke-dasharray="3 3"/>
<path d="M84 228.5V300" stroke="white" stroke-dasharray="3 3"/>
<path d="M84 315.5V387" stroke="white" stroke-dasharray="3 3"/>
<path d="M84 406.5V478" stroke="white" stroke-dasharray="3 3"/>
<path d="M84 496V567.5" stroke="white" stroke-dasharray="3 3"/>
<path d="M6.102 139.216C5.058 139.216 4.128 138.958 3.312 138.442C2.496 137.926 1.854 137.182 1.386 136.21C0.93 135.226 0.702 134.056 0.702 132.7C0.702 131.344 0.93 130.18 1.386 129.208C1.854 128.224 2.496 127.474 3.312 126.958C4.128 126.442 5.058 126.184 6.102 126.184C7.146 126.184 8.076 126.442 8.892 126.958C9.708 127.474 10.344 128.224 10.8 129.208C11.268 130.18 11.502 131.344 11.502 132.7C11.502 134.056 11.268 135.226 10.8 136.21C10.344 137.182 9.708 137.926 8.892 138.442C8.076 138.958 7.146 139.216 6.102 139.216ZM6.102 136.75C6.87 136.75 7.47 136.42 7.902 135.76C8.346 135.1 8.568 134.08 8.568 132.7C8.568 131.32 8.346 130.3 7.902 129.64C7.47 128.98 6.87 128.65 6.102 128.65C5.346 128.65 4.746 128.98 4.302 129.64C3.87 130.3 3.654 131.32 3.654 132.7C3.654 134.08 3.87 135.1 4.302 135.76C4.746 136.42 5.346 136.75 6.102 136.75ZM17.3468 126.184C19.1108 126.184 20.4908 126.724 21.4868 127.804C22.4828 128.872 22.9808 130.414 22.9808 132.43C22.9808 133.858 22.7108 135.082 22.1708 136.102C21.6428 137.122 20.8928 137.896 19.9208 138.424C18.9488 138.952 17.8268 139.216 16.5548 139.216C15.8828 139.216 15.2408 139.144 14.6288 139C14.0168 138.844 13.4948 138.628 13.0628 138.352L14.1428 136.21C14.7548 136.63 15.5408 136.84 16.5008 136.84C17.5688 136.84 18.4148 136.528 19.0388 135.904C19.6628 135.268 19.9988 134.356 20.0468 133.168C19.2908 133.924 18.2468 134.302 16.9148 134.302C16.1108 134.302 15.3788 134.14 14.7188 133.816C14.0588 133.492 13.5368 133.036 13.1528 132.448C12.7688 131.848 12.5768 131.158 12.5768 130.378C12.5768 129.538 12.7868 128.8 13.2068 128.164C13.6268 127.528 14.1968 127.042 14.9168 126.706C15.6488 126.358 16.4588 126.184 17.3468 126.184ZM17.5628 132.124C18.1988 132.124 18.7148 131.95 19.1108 131.602C19.5188 131.242 19.7228 130.786 19.7228 130.234C19.7228 129.682 19.5248 129.232 19.1288 128.884C18.7448 128.536 18.2108 128.362 17.5268 128.362C16.9028 128.362 16.3928 128.53 15.9968 128.866C15.6128 129.202 15.4208 129.658 15.4208 130.234C15.4208 130.81 15.6128 131.272 15.9968 131.62C16.3928 131.956 16.9148 132.124 17.5628 132.124ZM26.0357 132.682C25.5437 132.682 25.1297 132.514 24.7937 132.178C24.4577 131.842 24.2897 131.422 24.2897 130.918C24.2897 130.402 24.4577 129.988 24.7937 129.676C25.1297 129.352 25.5437 129.19 26.0357 129.19C26.5277 129.19 26.9417 129.352 27.2777 129.676C27.6137 129.988 27.7817 130.402 27.7817 130.918C27.7817 131.422 27.6137 131.842 27.2777 132.178C26.9417 132.514 26.5277 132.682 26.0357 132.682ZM26.0357 139.144C25.5437 139.144 25.1297 138.976 24.7937 138.64C24.4577 138.304 24.2897 137.884 24.2897 137.38C24.2897 136.864 24.4577 136.45 24.7937 136.138C25.1297 135.814 25.5437 135.652 26.0357 135.652C26.5277 135.652 26.9417 135.814 27.2777 136.138C27.6137 136.45 27.7817 136.864 27.7817 137.38C27.7817 137.884 27.6137 138.304 27.2777 138.64C26.9417 138.976 26.5277 139.144 26.0357 139.144ZM34.4907 139.216C33.4467 139.216 32.5167 138.958 31.7007 138.442C30.8847 137.926 30.2427 137.182 29.7747 136.21C29.3187 135.226 29.0907 134.056 29.0907 132.7C29.0907 131.344 29.3187 130.18 29.7747 129.208C30.2427 128.224 30.8847 127.474 31.7007 126.958C32.5167 126.442 33.4467 126.184 34.4907 126.184C35.5347 126.184 36.4647 126.442 37.2807 126.958C38.0967 127.474 38.7327 128.224 39.1887 129.208C39.6567 130.18 39.8907 131.344 39.8907 132.7C39.8907 134.056 39.6567 135.226 39.1887 136.21C38.7327 137.182 38.0967 137.926 37.2807 138.442C36.4647 138.958 35.5347 139.216 34.4907 139.216ZM34.4907 136.75C35.2587 136.75 35.8587 136.42 36.2907 135.76C36.7347 135.1 36.9567 134.08 36.9567 132.7C36.9567 131.32 36.7347 130.3 36.2907 129.64C35.8587 128.98 35.2587 128.65 34.4907 128.65C33.7347 128.65 33.1347 128.98 32.6907 129.64C32.2587 130.3 32.0427 131.32 32.0427 132.7C32.0427 134.08 32.2587 135.1 32.6907 135.76C33.1347 136.42 33.7347 136.75 34.4907 136.75ZM46.7075 139.216C45.6635 139.216 44.7335 138.958 43.9175 138.442C43.1015 137.926 42.4595 137.182 41.9915 136.21C41.5355 135.226 41.3075 134.056 41.3075 132.7C41.3075 131.344 41.5355 130.18 41.9915 129.208C42.4595 128.224 43.1015 127.474 43.9175 126.958C44.7335 126.442 45.6635 126.184 46.7075 126.184C47.7515 126.184 48.6815 126.442 49.4975 126.958C50.3135 127.474 50.9495 128.224 51.4055 129.208C51.8735 130.18 52.1075 131.344 52.1075 132.7C52.1075 134.056 51.8735 135.226 51.4055 136.21C50.9495 137.182 50.3135 137.926 49.4975 138.442C48.6815 138.958 47.7515 139.216 46.7075 139.216ZM46.7075 136.75C47.4755 136.75 48.0755 136.42 48.5075 135.76C48.9515 135.1 49.1735 134.08 49.1735 132.7C49.1735 131.32 48.9515 130.3 48.5075 129.64C48.0755 128.98 47.4755 128.65 46.7075 128.65C45.9515 128.65 45.3515 128.98 44.9075 129.64C44.4755 130.3 44.2595 131.32 44.2595 132.7C44.2595 134.08 44.4755 135.1 44.9075 135.76C45.3515 136.42 45.9515 136.75 46.7075 136.75Z" fill="#FF8686"/>
<path d="M121.216 131.89C121.832 132.058 122.313 132.352 122.658 132.772C123.003 133.183 123.176 133.677 123.176 134.256C123.176 134.835 122.989 135.343 122.616 135.782C122.252 136.211 121.762 136.543 121.146 136.776C120.539 137 119.877 137.112 119.158 137.112C118.505 137.112 117.856 137.014 117.212 136.818C116.568 136.622 115.98 136.328 115.448 135.936L115.938 134.9C116.367 135.236 116.848 135.488 117.38 135.656C117.912 135.824 118.449 135.908 118.99 135.908C119.774 135.908 120.432 135.745 120.964 135.418C121.496 135.082 121.762 134.625 121.762 134.046C121.762 133.551 121.561 133.173 121.16 132.912C120.759 132.641 120.194 132.506 119.466 132.506H117.282V131.372H119.368C119.993 131.372 120.479 131.246 120.824 130.994C121.179 130.733 121.356 130.373 121.356 129.916C121.356 129.403 121.127 128.997 120.67 128.698C120.213 128.399 119.634 128.25 118.934 128.25C118.477 128.25 118.01 128.315 117.534 128.446C117.067 128.577 116.624 128.773 116.204 129.034L115.756 127.886C116.251 127.606 116.773 127.396 117.324 127.256C117.875 127.116 118.425 127.046 118.976 127.046C119.667 127.046 120.301 127.153 120.88 127.368C121.459 127.583 121.916 127.895 122.252 128.306C122.597 128.717 122.77 129.197 122.77 129.748C122.77 130.243 122.63 130.677 122.35 131.05C122.079 131.423 121.701 131.703 121.216 131.89ZM127.93 129.51C128.957 129.51 129.741 129.762 130.282 130.266C130.833 130.77 131.108 131.521 131.108 132.52V137H129.834V136.02C129.61 136.365 129.288 136.631 128.868 136.818C128.458 136.995 127.968 137.084 127.398 137.084C126.568 137.084 125.9 136.883 125.396 136.482C124.902 136.081 124.654 135.553 124.654 134.9C124.654 134.247 124.892 133.724 125.368 133.332C125.844 132.931 126.6 132.73 127.636 132.73H129.764V132.464C129.764 131.885 129.596 131.442 129.26 131.134C128.924 130.826 128.43 130.672 127.776 130.672C127.338 130.672 126.908 130.747 126.488 130.896C126.068 131.036 125.714 131.227 125.424 131.47L124.864 130.462C125.247 130.154 125.704 129.921 126.236 129.762C126.768 129.594 127.333 129.51 127.93 129.51ZM127.622 136.048C128.136 136.048 128.579 135.936 128.952 135.712C129.326 135.479 129.596 135.152 129.764 134.732V133.696H127.692C126.554 133.696 125.984 134.079 125.984 134.844C125.984 135.217 126.129 135.511 126.418 135.726C126.708 135.941 127.109 136.048 127.622 136.048ZM138.583 133.15C139.544 133.393 140.025 133.995 140.025 134.956C140.025 135.609 139.777 136.113 139.283 136.468C138.797 136.823 138.069 137 137.099 137H133.529V129.58H136.973C137.85 129.58 138.536 129.748 139.031 130.084C139.525 130.411 139.773 130.877 139.773 131.484C139.773 131.876 139.665 132.217 139.451 132.506C139.245 132.786 138.956 133.001 138.583 133.15ZM134.845 132.772H136.861C137.374 132.772 137.761 132.679 138.023 132.492C138.293 132.305 138.429 132.035 138.429 131.68C138.429 130.971 137.906 130.616 136.861 130.616H134.845V132.772ZM137.001 135.964C137.561 135.964 137.981 135.875 138.261 135.698C138.541 135.521 138.681 135.245 138.681 134.872C138.681 134.489 138.55 134.205 138.289 134.018C138.037 133.831 137.635 133.738 137.085 133.738H134.845V135.964H137.001ZM147.658 130.756H144.942V137H143.598V130.756H140.882V129.58H147.658V130.756ZM152.966 129.51C153.685 129.51 154.329 129.669 154.898 129.986C155.468 130.303 155.911 130.747 156.228 131.316C156.555 131.885 156.718 132.543 156.718 133.29C156.718 134.037 156.555 134.699 156.228 135.278C155.911 135.847 155.468 136.291 154.898 136.608C154.329 136.925 153.685 137.084 152.966 137.084C152.434 137.084 151.944 136.981 151.496 136.776C151.058 136.571 150.684 136.272 150.376 135.88V139.716H149.032V129.58H150.32V130.756C150.619 130.345 150.997 130.037 151.454 129.832C151.912 129.617 152.416 129.51 152.966 129.51ZM152.854 135.908C153.33 135.908 153.755 135.801 154.128 135.586C154.511 135.362 154.81 135.054 155.024 134.662C155.248 134.261 155.36 133.803 155.36 133.29C155.36 132.777 155.248 132.324 155.024 131.932C154.81 131.531 154.511 131.223 154.128 131.008C153.755 130.793 153.33 130.686 152.854 130.686C152.388 130.686 151.963 130.798 151.58 131.022C151.207 131.237 150.908 131.54 150.684 131.932C150.47 132.324 150.362 132.777 150.362 133.29C150.362 133.803 150.47 134.261 150.684 134.662C150.899 135.054 151.198 135.362 151.58 135.586C151.963 135.801 152.388 135.908 152.854 135.908ZM161.249 129.51C162.275 129.51 163.059 129.762 163.601 130.266C164.151 130.77 164.427 131.521 164.427 132.52V137H163.153V136.02C162.929 136.365 162.607 136.631 162.187 136.818C161.776 136.995 161.286 137.084 160.717 137.084C159.886 137.084 159.219 136.883 158.715 136.482C158.22 136.081 157.973 135.553 157.973 134.9C157.973 134.247 158.211 133.724 158.687 133.332C159.163 132.931 159.919 132.73 160.955 132.73H163.083V132.464C163.083 131.885 162.915 131.442 162.579 131.134C162.243 130.826 161.748 130.672 161.095 130.672C160.656 130.672 160.227 130.747 159.807 130.896C159.387 131.036 159.032 131.227 158.743 131.47L158.183 130.462C158.565 130.154 159.023 129.921 159.555 129.762C160.087 129.594 160.651 129.51 161.249 129.51ZM160.941 136.048C161.454 136.048 161.897 135.936 162.271 135.712C162.644 135.479 162.915 135.152 163.083 134.732V133.696H161.011C159.872 133.696 159.303 134.079 159.303 134.844C159.303 135.217 159.447 135.511 159.737 135.726C160.026 135.941 160.427 136.048 160.941 136.048ZM169.731 133.864H168.191V137H166.847V129.58H168.191V132.716H169.759L172.167 129.58H173.609L170.795 133.15L173.805 137H172.223L169.731 133.864Z" fill="white"/>
<circle cx="84" cy="133" r="6.5" stroke="#FF8686" stroke-width="5"/>
<path d="M5.562 214.4V227H2.646V216.74H0.126V214.4H5.562ZM17.1648 224.624V227H7.64283V225.11L12.5028 220.52C13.0188 220.028 13.3668 219.608 13.5468 219.26C13.7268 218.9 13.8168 218.546 13.8168 218.198C13.8168 217.694 13.6428 217.31 13.2948 217.046C12.9588 216.77 12.4608 216.632 11.8008 216.632C11.2488 216.632 10.7508 216.74 10.3068 216.956C9.86283 217.16 9.49083 217.472 9.19083 217.892L7.06683 216.524C7.55883 215.792 8.23683 215.222 9.10083 214.814C9.96483 214.394 10.9548 214.184 12.0708 214.184C13.0068 214.184 13.8228 214.34 14.5188 214.652C15.2268 214.952 15.7728 215.384 16.1568 215.948C16.5528 216.5 16.7508 217.154 16.7508 217.91C16.7508 218.594 16.6068 219.236 16.3188 219.836C16.0308 220.436 15.4728 221.12 14.6448 221.888L11.7468 224.624H17.1648ZM20.024 220.682C19.532 220.682 19.118 220.514 18.782 220.178C18.446 219.842 18.278 219.422 18.278 218.918C18.278 218.402 18.446 217.988 18.782 217.676C19.118 217.352 19.532 217.19 20.024 217.19C20.516 217.19 20.93 217.352 21.266 217.676C21.602 217.988 21.77 218.402 21.77 218.918C21.77 219.422 21.602 219.842 21.266 220.178C20.93 220.514 20.516 220.682 20.024 220.682ZM20.024 227.144C19.532 227.144 19.118 226.976 18.782 226.64C18.446 226.304 18.278 225.884 18.278 225.38C18.278 224.864 18.446 224.45 18.782 224.138C19.118 223.814 19.532 223.652 20.024 223.652C20.516 223.652 20.93 223.814 21.266 224.138C21.602 224.45 21.77 224.864 21.77 225.38C21.77 225.884 21.602 226.304 21.266 226.64C20.93 226.976 20.516 227.144 20.024 227.144ZM28.479 227.216C27.435 227.216 26.505 226.958 25.689 226.442C24.873 225.926 24.231 225.182 23.763 224.21C23.307 223.226 23.079 222.056 23.079 220.7C23.079 219.344 23.307 218.18 23.763 217.208C24.231 216.224 24.873 215.474 25.689 214.958C26.505 214.442 27.435 214.184 28.479 214.184C29.523 214.184 30.453 214.442 31.269 214.958C32.085 215.474 32.721 216.224 33.177 217.208C33.645 218.18 33.879 219.344 33.879 220.7C33.879 222.056 33.645 223.226 33.177 224.21C32.721 225.182 32.085 225.926 31.269 226.442C30.453 226.958 29.523 227.216 28.479 227.216ZM28.479 224.75C29.247 224.75 29.847 224.42 30.279 223.76C30.723 223.1 30.945 222.08 30.945 220.7C30.945 219.32 30.723 218.3 30.279 217.64C29.847 216.98 29.247 216.65 28.479 216.65C27.723 216.65 27.123 216.98 26.679 217.64C26.247 218.3 26.031 219.32 26.031 220.7C26.031 222.08 26.247 223.1 26.679 223.76C27.123 224.42 27.723 224.75 28.479 224.75ZM40.6958 227.216C39.6518 227.216 38.7218 226.958 37.9058 226.442C37.0898 225.926 36.4478 225.182 35.9798 224.21C35.5238 223.226 35.2958 222.056 35.2958 220.7C35.2958 219.344 35.5238 218.18 35.9798 217.208C36.4478 216.224 37.0898 215.474 37.9058 214.958C38.7218 214.442 39.6518 214.184 40.6958 214.184C41.7398 214.184 42.6698 214.442 43.4858 214.958C44.3018 215.474 44.9378 216.224 45.3938 217.208C45.8618 218.18 46.0958 219.344 46.0958 220.7C46.0958 222.056 45.8618 223.226 45.3938 224.21C44.9378 225.182 44.3018 225.926 43.4858 226.442C42.6698 226.958 41.7398 227.216 40.6958 227.216ZM40.6958 224.75C41.4638 224.75 42.0638 224.42 42.4958 223.76C42.9398 223.1 43.1618 222.08 43.1618 220.7C43.1618 219.32 42.9398 218.3 42.4958 217.64C42.0638 216.98 41.4638 216.65 40.6958 216.65C39.9398 216.65 39.3398 216.98 38.8958 217.64C38.4638 218.3 38.2478 219.32 38.2478 220.7C38.2478 222.08 38.4638 223.1 38.8958 223.76C39.3398 224.42 39.9398 224.75 40.6958 224.75Z" fill="#FF8686"/>
<path d="M123.778 215.2V225H122.392V221.122C121.356 221.523 120.399 221.724 119.522 221.724C118.327 221.724 117.399 221.435 116.736 220.856C116.083 220.277 115.756 219.451 115.756 218.378V215.2H117.128V218.224C117.128 218.952 117.347 219.512 117.786 219.904C118.234 220.296 118.864 220.492 119.676 220.492C120.581 220.492 121.487 220.287 122.392 219.876V215.2H123.778ZM133.317 221.332C133.317 221.435 133.307 221.57 133.289 221.738H127.269C127.353 222.391 127.637 222.919 128.123 223.32C128.617 223.712 129.229 223.908 129.957 223.908C130.843 223.908 131.557 223.609 132.099 223.012L132.841 223.88C132.505 224.272 132.085 224.571 131.581 224.776C131.086 224.981 130.531 225.084 129.915 225.084C129.131 225.084 128.435 224.925 127.829 224.608C127.222 224.281 126.751 223.829 126.415 223.25C126.088 222.671 125.925 222.018 125.925 221.29C125.925 220.571 126.083 219.923 126.401 219.344C126.727 218.765 127.171 218.317 127.731 218C128.3 217.673 128.939 217.51 129.649 217.51C130.358 217.51 130.988 217.673 131.539 218C132.099 218.317 132.533 218.765 132.841 219.344C133.158 219.923 133.317 220.585 133.317 221.332ZM129.649 218.644C129.005 218.644 128.463 218.84 128.025 219.232C127.595 219.624 127.343 220.137 127.269 220.772H132.029C131.954 220.147 131.697 219.638 131.259 219.246C130.829 218.845 130.293 218.644 129.649 218.644ZM138.286 221.864H136.746V225H135.402V217.58H136.746V220.716H138.314L140.722 217.58H142.164L139.35 221.15L142.36 225H140.778L138.286 221.864ZM142.937 220.576H146.703V221.738H142.937V220.576ZM155.674 217.58V225H154.33V218.756H150.144V225H148.8V217.58H155.674ZM161.453 225.084C160.715 225.084 160.053 224.921 159.465 224.594C158.877 224.267 158.415 223.819 158.079 223.25C157.752 222.671 157.589 222.018 157.589 221.29C157.589 220.562 157.752 219.913 158.079 219.344C158.415 218.765 158.877 218.317 159.465 218C160.053 217.673 160.715 217.51 161.453 217.51C162.19 217.51 162.848 217.673 163.427 218C164.015 218.317 164.472 218.765 164.799 219.344C165.135 219.913 165.303 220.562 165.303 221.29C165.303 222.018 165.135 222.671 164.799 223.25C164.472 223.819 164.015 224.267 163.427 224.594C162.848 224.921 162.19 225.084 161.453 225.084ZM161.453 223.908C161.929 223.908 162.353 223.801 162.727 223.586C163.109 223.362 163.408 223.054 163.623 222.662C163.837 222.261 163.945 221.803 163.945 221.29C163.945 220.777 163.837 220.324 163.623 219.932C163.408 219.531 163.109 219.223 162.727 219.008C162.353 218.793 161.929 218.686 161.453 218.686C160.977 218.686 160.547 218.793 160.165 219.008C159.791 219.223 159.493 219.531 159.269 219.932C159.054 220.324 158.947 220.777 158.947 221.29C158.947 221.803 159.054 222.261 159.269 222.662C159.493 223.054 159.791 223.362 160.165 223.586C160.547 223.801 160.977 223.908 161.453 223.908ZM167.243 217.58H168.587V222.984L173.137 217.58H174.355V225H173.011V219.596L168.475 225H167.243V217.58ZM170.715 216.614C170.025 216.614 169.488 216.451 169.105 216.124C168.723 215.788 168.527 215.307 168.517 214.682H169.427C169.437 215.027 169.553 215.307 169.777 215.522C170.011 215.727 170.319 215.83 170.701 215.83C171.084 215.83 171.392 215.727 171.625 215.522C171.859 215.307 171.98 215.027 171.989 214.682H172.927C172.918 215.307 172.717 215.788 172.325 216.124C171.933 216.451 171.397 216.614 170.715 216.614ZM176.964 217.58H178.308V220.73H182.536V217.58H183.88V225H182.536V221.892H178.308V225H176.964V217.58ZM192.023 218.756H189.307V225H187.963V218.756H185.247V217.58H192.023V218.756ZM209.519 219.638C209.043 219.638 208.614 219.54 208.231 219.344C207.858 219.148 207.564 218.877 207.349 218.532C207.135 218.187 207.027 217.799 207.027 217.37C207.027 216.941 207.135 216.553 207.349 216.208C207.564 215.863 207.858 215.597 208.231 215.41C208.614 215.214 209.043 215.116 209.519 215.116C209.995 215.116 210.42 215.214 210.793 215.41C211.176 215.597 211.47 215.863 211.675 216.208C211.89 216.553 211.997 216.941 211.997 217.37C211.997 217.799 211.89 218.187 211.675 218.532C211.47 218.877 211.176 219.148 210.793 219.344C210.42 219.54 209.995 219.638 209.519 219.638ZM204.353 215.2H205.753V225H204.605L198.725 217.692V225H197.325V215.2H198.473L204.353 222.508V215.2ZM209.519 215.914C209.053 215.914 208.675 216.049 208.385 216.32C208.105 216.591 207.965 216.941 207.965 217.37C207.965 217.799 208.11 218.149 208.399 218.42C208.689 218.691 209.062 218.826 209.519 218.826C209.977 218.826 210.345 218.691 210.625 218.42C210.915 218.149 211.059 217.799 211.059 217.37C211.059 216.941 210.915 216.591 210.625 216.32C210.345 216.049 209.977 215.914 209.519 215.914ZM207.307 220.744H211.731V221.654H207.307V220.744ZM224.033 223.782V225H216.991V224.048L220.981 220.198C221.466 219.731 221.793 219.33 221.961 218.994C222.129 218.649 222.213 218.303 222.213 217.958C222.213 217.445 222.031 217.048 221.667 216.768C221.312 216.479 220.799 216.334 220.127 216.334C219.044 216.334 218.209 216.689 217.621 217.398L216.669 216.572C217.051 216.105 217.551 215.741 218.167 215.48C218.792 215.219 219.487 215.088 220.253 215.088C221.279 215.088 222.096 215.335 222.703 215.83C223.309 216.315 223.613 216.978 223.613 217.818C223.613 218.341 223.501 218.835 223.277 219.302C223.053 219.769 222.628 220.301 222.003 220.898L219.007 223.782H224.033Z" fill="white"/>
<circle cx="84" cy="220" r="6.5" stroke="#FF8686" stroke-width="5"/>
<path d="M5.562 301.4V314H2.646V303.74H0.126V301.4H5.562ZM13.6368 306.53C14.7408 306.71 15.5868 307.124 16.1748 307.772C16.7628 308.408 17.0568 309.2 17.0568 310.148C17.0568 310.88 16.8648 311.558 16.4808 312.182C16.0968 312.794 15.5088 313.286 14.7168 313.658C13.9368 314.03 12.9768 314.216 11.8368 314.216C10.9488 314.216 10.0728 314.102 9.20883 313.874C8.35683 313.634 7.63083 313.298 7.03083 312.866L8.16483 310.634C8.64483 310.994 9.19683 311.276 9.82083 311.48C10.4568 311.672 11.1048 311.768 11.7648 311.768C12.4968 311.768 13.0728 311.63 13.4928 311.354C13.9128 311.066 14.1228 310.664 14.1228 310.148C14.1228 309.116 13.3368 308.6 11.7648 308.6H10.4328V306.674L13.0248 303.74H7.66083V301.4H16.4808V303.29L13.6368 306.53ZM20.0592 307.682C19.5672 307.682 19.1532 307.514 18.8172 307.178C18.4812 306.842 18.3132 306.422 18.3132 305.918C18.3132 305.402 18.4812 304.988 18.8172 304.676C19.1532 304.352 19.5672 304.19 20.0592 304.19C20.5512 304.19 20.9652 304.352 21.3012 304.676C21.6372 304.988 21.8052 305.402 21.8052 305.918C21.8052 306.422 21.6372 306.842 21.3012 307.178C20.9652 307.514 20.5512 307.682 20.0592 307.682ZM20.0592 314.144C19.5672 314.144 19.1532 313.976 18.8172 313.64C18.4812 313.304 18.3132 312.884 18.3132 312.38C18.3132 311.864 18.4812 311.45 18.8172 311.138C19.1532 310.814 19.5672 310.652 20.0592 310.652C20.5512 310.652 20.9652 310.814 21.3012 311.138C21.6372 311.45 21.8052 311.864 21.8052 312.38C21.8052 312.884 21.6372 313.304 21.3012 313.64C20.9652 313.976 20.5512 314.144 20.0592 314.144ZM28.5141 314.216C27.4701 314.216 26.5401 313.958 25.7241 313.442C24.9081 312.926 24.2661 312.182 23.7981 311.21C23.3421 310.226 23.1141 309.056 23.1141 307.7C23.1141 306.344 23.3421 305.18 23.7981 304.208C24.2661 303.224 24.9081 302.474 25.7241 301.958C26.5401 301.442 27.4701 301.184 28.5141 301.184C29.5581 301.184 30.4881 301.442 31.3041 301.958C32.1201 302.474 32.7561 303.224 33.2121 304.208C33.6801 305.18 33.9141 306.344 33.9141 307.7C33.9141 309.056 33.6801 310.226 33.2121 311.21C32.7561 312.182 32.1201 312.926 31.3041 313.442C30.4881 313.958 29.5581 314.216 28.5141 314.216ZM28.5141 311.75C29.2821 311.75 29.8821 311.42 30.3141 310.76C30.7581 310.1 30.9801 309.08 30.9801 307.7C30.9801 306.32 30.7581 305.3 30.3141 304.64C29.8821 303.98 29.2821 303.65 28.5141 303.65C27.7581 303.65 27.1581 303.98 26.7141 304.64C26.2821 305.3 26.0661 306.32 26.0661 307.7C26.0661 309.08 26.2821 310.1 26.7141 310.76C27.1581 311.42 27.7581 311.75 28.5141 311.75ZM40.7309 314.216C39.6869 314.216 38.7569 313.958 37.9409 313.442C37.1249 312.926 36.4829 312.182 36.0149 311.21C35.5589 310.226 35.3309 309.056 35.3309 307.7C35.3309 306.344 35.5589 305.18 36.0149 304.208C36.4829 303.224 37.1249 302.474 37.9409 301.958C38.7569 301.442 39.6869 301.184 40.7309 301.184C41.7749 301.184 42.7049 301.442 43.5209 301.958C44.3369 302.474 44.9729 303.224 45.4289 304.208C45.8969 305.18 46.1309 306.344 46.1309 307.7C46.1309 309.056 45.8969 310.226 45.4289 311.21C44.9729 312.182 44.3369 312.926 43.5209 313.442C42.7049 313.958 41.7749 314.216 40.7309 314.216ZM40.7309 311.75C41.4989 311.75 42.0989 311.42 42.5309 310.76C42.9749 310.1 43.1969 309.08 43.1969 307.7C43.1969 306.32 42.9749 305.3 42.5309 304.64C42.0989 303.98 41.4989 303.65 40.7309 303.65C39.9749 303.65 39.3749 303.98 38.9309 304.64C38.4989 305.3 38.2829 306.32 38.2829 307.7C38.2829 309.08 38.4989 310.1 38.9309 310.76C39.3749 311.42 39.9749 311.75 40.7309 311.75Z" fill="#FF8686"/>
<path d="M120.936 312.112C119.947 312.112 119.055 311.897 118.262 311.468C117.469 311.029 116.843 310.427 116.386 309.662C115.938 308.897 115.714 308.043 115.714 307.1C115.714 306.157 115.938 305.303 116.386 304.538C116.843 303.773 117.469 303.175 118.262 302.746C119.055 302.307 119.947 302.088 120.936 302.088C121.916 302.088 122.803 302.307 123.596 302.746C124.389 303.175 125.01 303.773 125.458 304.538C125.906 305.294 126.13 306.148 126.13 307.1C126.13 308.052 125.906 308.911 125.458 309.676C125.01 310.432 124.389 311.029 123.596 311.468C122.803 311.897 121.916 312.112 120.936 312.112ZM120.936 310.866C121.655 310.866 122.299 310.703 122.868 310.376C123.447 310.049 123.899 309.601 124.226 309.032C124.562 308.453 124.73 307.809 124.73 307.1C124.73 306.391 124.562 305.751 124.226 305.182C123.899 304.603 123.447 304.151 122.868 303.824C122.299 303.497 121.655 303.334 120.936 303.334C120.217 303.334 119.564 303.497 118.976 303.824C118.397 304.151 117.94 304.603 117.604 305.182C117.277 305.751 117.114 306.391 117.114 307.1C117.114 307.809 117.277 308.453 117.604 309.032C117.94 309.601 118.397 310.049 118.976 310.376C119.564 310.703 120.217 310.866 120.936 310.866ZM131.949 304.832C132.64 304.832 133.256 304.986 133.797 305.294C134.339 305.602 134.759 306.031 135.057 306.582C135.365 307.123 135.519 307.744 135.519 308.444C135.519 309.163 135.356 309.802 135.029 310.362C134.712 310.913 134.259 311.342 133.671 311.65C133.093 311.958 132.43 312.112 131.683 312.112C130.423 312.112 129.448 311.683 128.757 310.824C128.076 309.956 127.735 308.738 127.735 307.17C127.735 305.649 128.048 304.459 128.673 303.6C129.299 302.732 130.255 302.158 131.543 301.878L134.931 301.122L135.127 302.354L132.005 303.026C131.035 303.241 130.311 303.605 129.835 304.118C129.359 304.631 129.089 305.369 129.023 306.33C129.341 305.854 129.751 305.485 130.255 305.224C130.759 304.963 131.324 304.832 131.949 304.832ZM131.711 310.992C132.187 310.992 132.607 310.885 132.971 310.67C133.345 310.455 133.634 310.161 133.839 309.788C134.045 309.405 134.147 308.971 134.147 308.486C134.147 307.749 133.923 307.156 133.475 306.708C133.027 306.26 132.439 306.036 131.711 306.036C130.983 306.036 130.391 306.26 129.933 306.708C129.485 307.156 129.261 307.749 129.261 308.486C129.261 308.971 129.364 309.405 129.569 309.788C129.784 310.161 130.078 310.455 130.451 310.67C130.825 310.885 131.245 310.992 131.711 310.992ZM144.145 308.332C144.145 308.435 144.135 308.57 144.117 308.738H138.097C138.181 309.391 138.465 309.919 138.951 310.32C139.445 310.712 140.057 310.908 140.785 310.908C141.671 310.908 142.385 310.609 142.927 310.012L143.669 310.88C143.333 311.272 142.913 311.571 142.409 311.776C141.914 311.981 141.359 312.084 140.743 312.084C139.959 312.084 139.263 311.925 138.657 311.608C138.05 311.281 137.579 310.829 137.243 310.25C136.916 309.671 136.753 309.018 136.753 308.29C136.753 307.571 136.911 306.923 137.229 306.344C137.555 305.765 137.999 305.317 138.559 305C139.128 304.673 139.767 304.51 140.477 304.51C141.186 304.51 141.816 304.673 142.367 305C142.927 305.317 143.361 305.765 143.669 306.344C143.986 306.923 144.145 307.585 144.145 308.332ZM140.477 305.644C139.833 305.644 139.291 305.84 138.853 306.232C138.423 306.624 138.171 307.137 138.097 307.772H142.857C142.782 307.147 142.525 306.638 142.087 306.246C141.657 305.845 141.121 305.644 140.477 305.644ZM153.653 310.824V313.722H152.393V312H146.191V313.722H144.917V310.824H145.309C145.785 310.796 146.111 310.46 146.289 309.816C146.466 309.172 146.587 308.262 146.653 307.086L146.765 304.58H152.519V310.824H153.653ZM147.885 307.184C147.847 308.117 147.768 308.892 147.647 309.508C147.535 310.115 147.325 310.553 147.017 310.824H151.175V305.756H147.955L147.885 307.184Z" fill="white"/>
<circle cx="84" cy="308" r="6.5" stroke="#FF8686" stroke-width="5"/>
<path d="M5.562 389.4V402H2.646V391.74H0.126V389.4H5.562ZM12.1788 389.184C13.9428 389.184 15.3228 389.724 16.3188 390.804C17.3148 391.872 17.8128 393.414 17.8128 395.43C17.8128 396.858 17.5428 398.082 17.0028 399.102C16.4748 400.122 15.7248 400.896 14.7528 401.424C13.7808 401.952 12.6588 402.216 11.3868 402.216C10.7148 402.216 10.0728 402.144 9.46083 402C8.84883 401.844 8.32683 401.628 7.89483 401.352L8.97483 399.21C9.58683 399.63 10.3728 399.84 11.3328 399.84C12.4008 399.84 13.2468 399.528 13.8708 398.904C14.4948 398.268 14.8308 397.356 14.8788 396.168C14.1228 396.924 13.0788 397.302 11.7468 397.302C10.9428 397.302 10.2108 397.14 9.55083 396.816C8.89083 396.492 8.36883 396.036 7.98483 395.448C7.60083 394.848 7.40883 394.158 7.40883 393.378C7.40883 392.538 7.61883 391.8 8.03883 391.164C8.45883 390.528 9.02883 390.042 9.74883 389.706C10.4808 389.358 11.2908 389.184 12.1788 389.184ZM12.3948 395.124C13.0308 395.124 13.5468 394.95 13.9428 394.602C14.3508 394.242 14.5548 393.786 14.5548 393.234C14.5548 392.682 14.3568 392.232 13.9608 391.884C13.5768 391.536 13.0428 391.362 12.3588 391.362C11.7348 391.362 11.2248 391.53 10.8288 391.866C10.4448 392.202 10.2528 392.658 10.2528 393.234C10.2528 393.81 10.4448 394.272 10.8288 394.62C11.2248 394.956 11.7468 395.124 12.3948 395.124ZM20.8678 395.682C20.3758 395.682 19.9618 395.514 19.6258 395.178C19.2898 394.842 19.1218 394.422 19.1218 393.918C19.1218 393.402 19.2898 392.988 19.6258 392.676C19.9618 392.352 20.3758 392.19 20.8678 392.19C21.3598 392.19 21.7738 392.352 22.1098 392.676C22.4458 392.988 22.6138 393.402 22.6138 393.918C22.6138 394.422 22.4458 394.842 22.1098 395.178C21.7738 395.514 21.3598 395.682 20.8678 395.682ZM20.8678 402.144C20.3758 402.144 19.9618 401.976 19.6258 401.64C19.2898 401.304 19.1218 400.884 19.1218 400.38C19.1218 399.864 19.2898 399.45 19.6258 399.138C19.9618 398.814 20.3758 398.652 20.8678 398.652C21.3598 398.652 21.7738 398.814 22.1098 399.138C22.4458 399.45 22.6138 399.864 22.6138 400.38C22.6138 400.884 22.4458 401.304 22.1098 401.64C21.7738 401.976 21.3598 402.144 20.8678 402.144ZM29.3227 402.216C28.2787 402.216 27.3487 401.958 26.5327 401.442C25.7167 400.926 25.0747 400.182 24.6067 399.21C24.1507 398.226 23.9227 397.056 23.9227 395.7C23.9227 394.344 24.1507 393.18 24.6067 392.208C25.0747 391.224 25.7167 390.474 26.5327 389.958C27.3487 389.442 28.2787 389.184 29.3227 389.184C30.3667 389.184 31.2967 389.442 32.1127 389.958C32.9287 390.474 33.5647 391.224 34.0207 392.208C34.4887 393.18 34.7227 394.344 34.7227 395.7C34.7227 397.056 34.4887 398.226 34.0207 399.21C33.5647 400.182 32.9287 400.926 32.1127 401.442C31.2967 401.958 30.3667 402.216 29.3227 402.216ZM29.3227 399.75C30.0907 399.75 30.6907 399.42 31.1227 398.76C31.5667 398.1 31.7887 397.08 31.7887 395.7C31.7887 394.32 31.5667 393.3 31.1227 392.64C30.6907 391.98 30.0907 391.65 29.3227 391.65C28.5667 391.65 27.9667 391.98 27.5227 392.64C27.0907 393.3 26.8747 394.32 26.8747 395.7C26.8747 397.08 27.0907 398.1 27.5227 398.76C27.9667 399.42 28.5667 399.75 29.3227 399.75ZM41.5395 402.216C40.4955 402.216 39.5655 401.958 38.7495 401.442C37.9335 400.926 37.2915 400.182 36.8235 399.21C36.3675 398.226 36.1395 397.056 36.1395 395.7C36.1395 394.344 36.3675 393.18 36.8235 392.208C37.2915 391.224 37.9335 390.474 38.7495 389.958C39.5655 389.442 40.4955 389.184 41.5395 389.184C42.5835 389.184 43.5135 389.442 44.3295 389.958C45.1455 390.474 45.7815 391.224 46.2375 392.208C46.7055 393.18 46.9395 394.344 46.9395 395.7C46.9395 397.056 46.7055 398.226 46.2375 399.21C45.7815 400.182 45.1455 400.926 44.3295 401.442C43.5135 401.958 42.5835 402.216 41.5395 402.216ZM41.5395 399.75C42.3075 399.75 42.9075 399.42 43.3395 398.76C43.7835 398.1 44.0055 397.08 44.0055 395.7C44.0055 394.32 43.7835 393.3 43.3395 392.64C42.9075 391.98 42.3075 391.65 41.5395 391.65C40.7835 391.65 40.1835 391.98 39.7395 392.64C39.3075 393.3 39.0915 394.32 39.0915 395.7C39.0915 397.08 39.3075 398.1 39.7395 398.76C40.1835 399.42 40.7835 399.75 41.5395 399.75Z" fill="#FF8686"/>
<path d="M123.778 390.2V400H122.392V396.122C121.356 396.523 120.399 396.724 119.522 396.724C118.327 396.724 117.399 396.435 116.736 395.856C116.083 395.277 115.756 394.451 115.756 393.378V390.2H117.128V393.224C117.128 393.952 117.347 394.512 117.786 394.904C118.234 395.296 118.864 395.492 119.676 395.492C120.581 395.492 121.487 395.287 122.392 394.876V390.2H123.778ZM133.317 396.332C133.317 396.435 133.307 396.57 133.289 396.738H127.269C127.353 397.391 127.637 397.919 128.123 398.32C128.617 398.712 129.229 398.908 129.957 398.908C130.843 398.908 131.557 398.609 132.099 398.012L132.841 398.88C132.505 399.272 132.085 399.571 131.581 399.776C131.086 399.981 130.531 400.084 129.915 400.084C129.131 400.084 128.435 399.925 127.829 399.608C127.222 399.281 126.751 398.829 126.415 398.25C126.088 397.671 125.925 397.018 125.925 396.29C125.925 395.571 126.083 394.923 126.401 394.344C126.727 393.765 127.171 393.317 127.731 393C128.3 392.673 128.939 392.51 129.649 392.51C130.358 392.51 130.988 392.673 131.539 393C132.099 393.317 132.533 393.765 132.841 394.344C133.158 394.923 133.317 395.585 133.317 396.332ZM129.649 393.644C129.005 393.644 128.463 393.84 128.025 394.232C127.595 394.624 127.343 395.137 127.269 395.772H132.029C131.954 395.147 131.697 394.638 131.259 394.246C130.829 393.845 130.293 393.644 129.649 393.644ZM138.286 396.864H136.746V400H135.402V392.58H136.746V395.716H138.314L140.722 392.58H142.164L139.35 396.15L142.36 400H140.778L138.286 396.864ZM142.937 395.576H146.703V396.738H142.937V395.576ZM155.674 392.58V400H154.33V393.756H150.144V400H148.8V392.58H155.674ZM161.453 400.084C160.715 400.084 160.053 399.921 159.465 399.594C158.877 399.267 158.415 398.819 158.079 398.25C157.752 397.671 157.589 397.018 157.589 396.29C157.589 395.562 157.752 394.913 158.079 394.344C158.415 393.765 158.877 393.317 159.465 393C160.053 392.673 160.715 392.51 161.453 392.51C162.19 392.51 162.848 392.673 163.427 393C164.015 393.317 164.472 393.765 164.799 394.344C165.135 394.913 165.303 395.562 165.303 396.29C165.303 397.018 165.135 397.671 164.799 398.25C164.472 398.819 164.015 399.267 163.427 399.594C162.848 399.921 162.19 400.084 161.453 400.084ZM161.453 398.908C161.929 398.908 162.353 398.801 162.727 398.586C163.109 398.362 163.408 398.054 163.623 397.662C163.837 397.261 163.945 396.803 163.945 396.29C163.945 395.777 163.837 395.324 163.623 394.932C163.408 394.531 163.109 394.223 162.727 394.008C162.353 393.793 161.929 393.686 161.453 393.686C160.977 393.686 160.547 393.793 160.165 394.008C159.791 394.223 159.493 394.531 159.269 394.932C159.054 395.324 158.947 395.777 158.947 396.29C158.947 396.803 159.054 397.261 159.269 397.662C159.493 398.054 159.791 398.362 160.165 398.586C160.547 398.801 160.977 398.908 161.453 398.908ZM167.243 392.58H168.587V397.984L173.137 392.58H174.355V400H173.011V394.596L168.475 400H167.243V392.58ZM170.715 391.614C170.025 391.614 169.488 391.451 169.105 391.124C168.723 390.788 168.527 390.307 168.517 389.682H169.427C169.437 390.027 169.553 390.307 169.777 390.522C170.011 390.727 170.319 390.83 170.701 390.83C171.084 390.83 171.392 390.727 171.625 390.522C171.859 390.307 171.98 390.027 171.989 389.682H172.927C172.918 390.307 172.717 390.788 172.325 391.124C171.933 391.451 171.397 391.614 170.715 391.614ZM176.964 392.58H178.308V395.73H182.536V392.58H183.88V400H182.536V396.892H178.308V400H176.964V392.58ZM192.023 393.756H189.307V400H187.963V393.756H185.247V392.58H192.023V393.756ZM209.519 394.638C209.043 394.638 208.614 394.54 208.231 394.344C207.858 394.148 207.564 393.877 207.349 393.532C207.135 393.187 207.027 392.799 207.027 392.37C207.027 391.941 207.135 391.553 207.349 391.208C207.564 390.863 207.858 390.597 208.231 390.41C208.614 390.214 209.043 390.116 209.519 390.116C209.995 390.116 210.42 390.214 210.793 390.41C211.176 390.597 211.47 390.863 211.675 391.208C211.89 391.553 211.997 391.941 211.997 392.37C211.997 392.799 211.89 393.187 211.675 393.532C211.47 393.877 211.176 394.148 210.793 394.344C210.42 394.54 209.995 394.638 209.519 394.638ZM204.353 390.2H205.753V400H204.605L198.725 392.692V400H197.325V390.2H198.473L204.353 397.508V390.2ZM209.519 390.914C209.053 390.914 208.675 391.049 208.385 391.32C208.105 391.591 207.965 391.941 207.965 392.37C207.965 392.799 208.11 393.149 208.399 393.42C208.689 393.691 209.062 393.826 209.519 393.826C209.977 393.826 210.345 393.691 210.625 393.42C210.915 393.149 211.059 392.799 211.059 392.37C211.059 391.941 210.915 391.591 210.625 391.32C210.345 391.049 209.977 390.914 209.519 390.914ZM207.307 395.744H211.731V396.654H207.307V395.744ZM220.897 394.316C221.858 394.409 222.591 394.708 223.095 395.212C223.599 395.707 223.851 396.341 223.851 397.116C223.851 397.676 223.711 398.185 223.431 398.642C223.151 399.09 222.731 399.449 222.171 399.72C221.62 399.981 220.943 400.112 220.141 400.112C219.441 400.112 218.769 400.009 218.125 399.804C217.481 399.589 216.953 399.295 216.543 398.922L217.187 397.816C217.523 398.133 217.952 398.39 218.475 398.586C218.997 398.773 219.553 398.866 220.141 398.866C220.869 398.866 221.433 398.712 221.835 398.404C222.245 398.096 222.451 397.671 222.451 397.13C222.451 396.589 222.25 396.169 221.849 395.87C221.447 395.571 220.841 395.422 220.029 395.422H219.245V394.442L221.709 391.418H216.991V390.2H223.459V391.152L220.897 394.316Z" fill="white"/>
<circle cx="84" cy="396" r="6.5" stroke="#FF8686" stroke-width="5"/>
<path d="M10.116 491.624V494H0.594V492.11L5.454 487.52C5.97 487.028 6.318 486.608 6.498 486.26C6.678 485.9 6.768 485.546 6.768 485.198C6.768 484.694 6.594 484.31 6.246 484.046C5.91 483.77 5.412 483.632 4.752 483.632C4.2 483.632 3.702 483.74 3.258 483.956C2.814 484.16 2.442 484.472 2.142 484.892L0.018 483.524C0.51 482.792 1.188 482.222 2.052 481.814C2.916 481.394 3.906 481.184 5.022 481.184C5.958 481.184 6.774 481.34 7.47 481.652C8.178 481.952 8.724 482.384 9.108 482.948C9.504 483.5 9.702 484.154 9.702 484.91C9.702 485.594 9.558 486.236 9.27 486.836C8.982 487.436 8.424 488.12 7.596 488.888L4.698 491.624H10.116ZM16.684 494.216C15.64 494.216 14.71 493.958 13.894 493.442C13.078 492.926 12.436 492.182 11.968 491.21C11.512 490.226 11.284 489.056 11.284 487.7C11.284 486.344 11.512 485.18 11.968 484.208C12.436 483.224 13.078 482.474 13.894 481.958C14.71 481.442 15.64 481.184 16.684 481.184C17.728 481.184 18.658 481.442 19.474 481.958C20.29 482.474 20.926 483.224 21.382 484.208C21.85 485.18 22.084 486.344 22.084 487.7C22.084 489.056 21.85 490.226 21.382 491.21C20.926 492.182 20.29 492.926 19.474 493.442C18.658 493.958 17.728 494.216 16.684 494.216ZM16.684 491.75C17.452 491.75 18.052 491.42 18.484 490.76C18.928 490.1 19.15 489.08 19.15 487.7C19.15 486.32 18.928 485.3 18.484 484.64C18.052 483.98 17.452 483.65 16.684 483.65C15.928 483.65 15.328 483.98 14.884 484.64C14.452 485.3 14.236 486.32 14.236 487.7C14.236 489.08 14.452 490.1 14.884 490.76C15.328 491.42 15.928 491.75 16.684 491.75ZM25.1568 487.682C24.6648 487.682 24.2508 487.514 23.9148 487.178C23.5788 486.842 23.4108 486.422 23.4108 485.918C23.4108 485.402 23.5788 484.988 23.9148 484.676C24.2508 484.352 24.6648 484.19 25.1568 484.19C25.6488 484.19 26.0628 484.352 26.3988 484.676C26.7348 484.988 26.9028 485.402 26.9028 485.918C26.9028 486.422 26.7348 486.842 26.3988 487.178C26.0628 487.514 25.6488 487.682 25.1568 487.682ZM25.1568 494.144C24.6648 494.144 24.2508 493.976 23.9148 493.64C23.5788 493.304 23.4108 492.884 23.4108 492.38C23.4108 491.864 23.5788 491.45 23.9148 491.138C24.2508 490.814 24.6648 490.652 25.1568 490.652C25.6488 490.652 26.0628 490.814 26.3988 491.138C26.7348 491.45 26.9028 491.864 26.9028 492.38C26.9028 492.884 26.7348 493.304 26.3988 493.64C26.0628 493.976 25.6488 494.144 25.1568 494.144ZM33.6118 494.216C32.5678 494.216 31.6378 493.958 30.8218 493.442C30.0058 492.926 29.3638 492.182 28.8958 491.21C28.4398 490.226 28.2118 489.056 28.2118 487.7C28.2118 486.344 28.4398 485.18 28.8958 484.208C29.3638 483.224 30.0058 482.474 30.8218 481.958C31.6378 481.442 32.5678 481.184 33.6118 481.184C34.6558 481.184 35.5858 481.442 36.4018 481.958C37.2178 482.474 37.8538 483.224 38.3098 484.208C38.7778 485.18 39.0118 486.344 39.0118 487.7C39.0118 489.056 38.7778 490.226 38.3098 491.21C37.8538 492.182 37.2178 492.926 36.4018 493.442C35.5858 493.958 34.6558 494.216 33.6118 494.216ZM33.6118 491.75C34.3798 491.75 34.9798 491.42 35.4118 490.76C35.8558 490.1 36.0778 489.08 36.0778 487.7C36.0778 486.32 35.8558 485.3 35.4118 484.64C34.9798 483.98 34.3798 483.65 33.6118 483.65C32.8558 483.65 32.2558 483.98 31.8118 484.64C31.3798 485.3 31.1638 486.32 31.1638 487.7C31.1638 489.08 31.3798 490.1 31.8118 490.76C32.2558 491.42 32.8558 491.75 33.6118 491.75ZM45.8286 494.216C44.7846 494.216 43.8546 493.958 43.0386 493.442C42.2226 492.926 41.5806 492.182 41.1126 491.21C40.6566 490.226 40.4286 489.056 40.4286 487.7C40.4286 486.344 40.6566 485.18 41.1126 484.208C41.5806 483.224 42.2226 482.474 43.0386 481.958C43.8546 481.442 44.7846 481.184 45.8286 481.184C46.8726 481.184 47.8026 481.442 48.6186 481.958C49.4346 482.474 50.0706 483.224 50.5266 484.208C50.9946 485.18 51.2286 486.344 51.2286 487.7C51.2286 489.056 50.9946 490.226 50.5266 491.21C50.0706 492.182 49.4346 492.926 48.6186 493.442C47.8026 493.958 46.8726 494.216 45.8286 494.216ZM45.8286 491.75C46.5966 491.75 47.1966 491.42 47.6286 490.76C48.0726 490.1 48.2946 489.08 48.2946 487.7C48.2946 486.32 48.0726 485.3 47.6286 484.64C47.1966 483.98 46.5966 483.65 45.8286 483.65C45.0726 483.65 44.4726 483.98 44.0286 484.64C43.5966 485.3 43.3806 486.32 43.3806 487.7C43.3806 489.08 43.5966 490.1 44.0286 490.76C44.4726 491.42 45.0726 491.75 45.8286 491.75Z" fill="#FF8686"/>
<path d="M124.548 482.2L120.194 490.278C119.849 490.922 119.443 491.403 118.976 491.72C118.509 492.037 118.001 492.196 117.45 492.196C117.021 492.196 116.582 492.098 116.134 491.902L116.498 490.782C116.843 490.903 117.151 490.964 117.422 490.964C118.038 490.964 118.547 490.637 118.948 489.984L119.172 489.634L115.224 482.2H116.722L119.9 488.416L123.162 482.2H124.548ZM132.265 488.864H130.823V492H129.479V488.864H128.037L125.993 492H124.397L126.945 488.164L124.593 484.58H126.021L128.023 487.716H129.479V484.58H130.823V487.716H132.279L134.281 484.58H135.723L133.371 488.178L135.919 492H134.323L132.265 488.864ZM137.398 484.58H138.742V489.984L143.292 484.58H144.51V492H143.166V486.596L138.63 492H137.398V484.58ZM147.118 484.58H148.462V487.73H152.69V484.58H154.034V492H152.69V488.892H148.462V492H147.118V484.58Z" fill="white"/>
<circle cx="84" cy="488" r="6.5" stroke="#FF8686" stroke-width="5"/>
<path d="M10.116 581.124V583.5H0.594V581.61L5.454 577.02C5.97 576.528 6.318 576.108 6.498 575.76C6.678 575.4 6.768 575.046 6.768 574.698C6.768 574.194 6.594 573.81 6.246 573.546C5.91 573.27 5.412 573.132 4.752 573.132C4.2 573.132 3.702 573.24 3.258 573.456C2.814 573.66 2.442 573.972 2.142 574.392L0.018 573.024C0.51 572.292 1.188 571.722 2.052 571.314C2.916 570.894 3.906 570.684 5.022 570.684C5.958 570.684 6.774 570.84 7.47 571.152C8.178 571.452 8.724 571.884 9.108 572.448C9.504 573 9.702 573.654 9.702 574.41C9.702 575.094 9.558 575.736 9.27 576.336C8.982 576.936 8.424 577.62 7.596 578.388L4.698 581.124H10.116ZM20.7332 581.124V583.5H11.2112V581.61L16.0712 577.02C16.5872 576.528 16.9352 576.108 17.1152 575.76C17.2952 575.4 17.3852 575.046 17.3852 574.698C17.3852 574.194 17.2112 573.81 16.8632 573.546C16.5272 573.27 16.0292 573.132 15.3692 573.132C14.8172 573.132 14.3192 573.24 13.8752 573.456C13.4312 573.66 13.0592 573.972 12.7592 574.392L10.6352 573.024C11.1272 572.292 11.8052 571.722 12.6692 571.314C13.5332 570.894 14.5232 570.684 15.6392 570.684C16.5752 570.684 17.3912 570.84 18.0872 571.152C18.7952 571.452 19.3412 571.884 19.7252 572.448C20.1212 573 20.3192 573.654 20.3192 574.41C20.3192 575.094 20.1752 575.736 19.8872 576.336C19.5992 576.936 19.0412 577.62 18.2132 578.388L15.3152 581.124H20.7332ZM23.5924 577.182C23.1004 577.182 22.6864 577.014 22.3504 576.678C22.0144 576.342 21.8464 575.922 21.8464 575.418C21.8464 574.902 22.0144 574.488 22.3504 574.176C22.6864 573.852 23.1004 573.69 23.5924 573.69C24.0844 573.69 24.4984 573.852 24.8344 574.176C25.1704 574.488 25.3384 574.902 25.3384 575.418C25.3384 575.922 25.1704 576.342 24.8344 576.678C24.4984 577.014 24.0844 577.182 23.5924 577.182ZM23.5924 583.644C23.1004 583.644 22.6864 583.476 22.3504 583.14C22.0144 582.804 21.8464 582.384 21.8464 581.88C21.8464 581.364 22.0144 580.95 22.3504 580.638C22.6864 580.314 23.1004 580.152 23.5924 580.152C24.0844 580.152 24.4984 580.314 24.8344 580.638C25.1704 580.95 25.3384 581.364 25.3384 581.88C25.3384 582.384 25.1704 582.804 24.8344 583.14C24.4984 583.476 24.0844 583.644 23.5924 583.644ZM32.0473 583.716C31.0033 583.716 30.0733 583.458 29.2573 582.942C28.4413 582.426 27.7993 581.682 27.3313 580.71C26.8753 579.726 26.6473 578.556 26.6473 577.2C26.6473 575.844 26.8753 574.68 27.3313 573.708C27.7993 572.724 28.4413 571.974 29.2573 571.458C30.0733 570.942 31.0033 570.684 32.0473 570.684C33.0913 570.684 34.0213 570.942 34.8373 571.458C35.6533 571.974 36.2893 572.724 36.7453 573.708C37.2133 574.68 37.4473 575.844 37.4473 577.2C37.4473 578.556 37.2133 579.726 36.7453 580.71C36.2893 581.682 35.6533 582.426 34.8373 582.942C34.0213 583.458 33.0913 583.716 32.0473 583.716ZM32.0473 581.25C32.8153 581.25 33.4153 580.92 33.8473 580.26C34.2913 579.6 34.5133 578.58 34.5133 577.2C34.5133 575.82 34.2913 574.8 33.8473 574.14C33.4153 573.48 32.8153 573.15 32.0473 573.15C31.2913 573.15 30.6913 573.48 30.2473 574.14C29.8153 574.8 29.5993 575.82 29.5993 577.2C29.5993 578.58 29.8153 579.6 30.2473 580.26C30.6913 580.92 31.2913 581.25 32.0473 581.25ZM44.2641 583.716C43.2201 583.716 42.2901 583.458 41.4741 582.942C40.6581 582.426 40.0161 581.682 39.5481 580.71C39.0921 579.726 38.8641 578.556 38.8641 577.2C38.8641 575.844 39.0921 574.68 39.5481 573.708C40.0161 572.724 40.6581 571.974 41.4741 571.458C42.2901 570.942 43.2201 570.684 44.2641 570.684C45.3081 570.684 46.2381 570.942 47.0541 571.458C47.8701 571.974 48.5061 572.724 48.9621 573.708C49.4301 574.68 49.6641 575.844 49.6641 577.2C49.6641 578.556 49.4301 579.726 48.9621 580.71C48.5061 581.682 47.8701 582.426 47.0541 582.942C46.2381 583.458 45.3081 583.716 44.2641 583.716ZM44.2641 581.25C45.0321 581.25 45.6321 580.92 46.0641 580.26C46.5081 579.6 46.7301 578.58 46.7301 577.2C46.7301 575.82 46.5081 574.8 46.0641 574.14C45.6321 573.48 45.0321 573.15 44.2641 573.15C43.5081 573.15 42.9081 573.48 42.4641 574.14C42.0321 574.8 41.8161 575.82 41.8161 577.2C41.8161 578.58 42.0321 579.6 42.4641 580.26C42.9081 580.92 43.5081 581.25 44.2641 581.25ZM51.3852 577.308H56.4792V579.558H51.3852V577.308ZM6.102 610.716C5.058 610.716 4.128 610.458 3.312 609.942C2.496 609.426 1.854 608.682 1.386 607.71C0.93 606.726 0.702 605.556 0.702 604.2C0.702 602.844 0.93 601.68 1.386 600.708C1.854 599.724 2.496 598.974 3.312 598.458C4.128 597.942 5.058 597.684 6.102 597.684C7.146 597.684 8.076 597.942 8.892 598.458C9.708 598.974 10.344 599.724 10.8 600.708C11.268 601.68 11.502 602.844 11.502 604.2C11.502 605.556 11.268 606.726 10.8 607.71C10.344 608.682 9.708 609.426 8.892 609.942C8.076 610.458 7.146 610.716 6.102 610.716ZM6.102 608.25C6.87 608.25 7.47 607.92 7.902 607.26C8.346 606.6 8.568 605.58 8.568 604.2C8.568 602.82 8.346 601.8 7.902 601.14C7.47 600.48 6.87 600.15 6.102 600.15C5.346 600.15 4.746 600.48 4.302 601.14C3.87 601.8 3.654 602.82 3.654 604.2C3.654 605.58 3.87 606.6 4.302 607.26C4.746 607.92 5.346 608.25 6.102 608.25ZM18.3188 610.716C17.2748 610.716 16.3448 610.458 15.5288 609.942C14.7128 609.426 14.0708 608.682 13.6028 607.71C13.1468 606.726 12.9188 605.556 12.9188 604.2C12.9188 602.844 13.1468 601.68 13.6028 600.708C14.0708 599.724 14.7128 598.974 15.5288 598.458C16.3448 597.942 17.2748 597.684 18.3188 597.684C19.3628 597.684 20.2928 597.942 21.1088 598.458C21.9248 598.974 22.5608 599.724 23.0168 600.708C23.4848 601.68 23.7188 602.844 23.7188 604.2C23.7188 605.556 23.4848 606.726 23.0168 607.71C22.5608 608.682 21.9248 609.426 21.1088 609.942C20.2928 610.458 19.3628 610.716 18.3188 610.716ZM18.3188 608.25C19.0868 608.25 19.6868 607.92 20.1188 607.26C20.5628 606.6 20.7848 605.58 20.7848 604.2C20.7848 602.82 20.5628 601.8 20.1188 601.14C19.6868 600.48 19.0868 600.15 18.3188 600.15C17.5628 600.15 16.9628 600.48 16.5188 601.14C16.0868 601.8 15.8708 602.82 15.8708 604.2C15.8708 605.58 16.0868 606.6 16.5188 607.26C16.9628 607.92 17.5628 608.25 18.3188 608.25ZM26.7916 604.182C26.2996 604.182 25.8856 604.014 25.5496 603.678C25.2136 603.342 25.0456 602.922 25.0456 602.418C25.0456 601.902 25.2136 601.488 25.5496 601.176C25.8856 600.852 26.2996 600.69 26.7916 600.69C27.2836 600.69 27.6976 600.852 28.0336 601.176C28.3696 601.488 28.5376 601.902 28.5376 602.418C28.5376 602.922 28.3696 603.342 28.0336 603.678C27.6976 604.014 27.2836 604.182 26.7916 604.182ZM26.7916 610.644C26.2996 610.644 25.8856 610.476 25.5496 610.14C25.2136 609.804 25.0456 609.384 25.0456 608.88C25.0456 608.364 25.2136 607.95 25.5496 607.638C25.8856 607.314 26.2996 607.152 26.7916 607.152C27.2836 607.152 27.6976 607.314 28.0336 607.638C28.3696 607.95 28.5376 608.364 28.5376 608.88C28.5376 609.384 28.3696 609.804 28.0336 610.14C27.6976 610.476 27.2836 610.644 26.7916 610.644ZM35.2465 610.716C34.2025 610.716 33.2725 610.458 32.4565 609.942C31.6405 609.426 30.9985 608.682 30.5305 607.71C30.0745 606.726 29.8465 605.556 29.8465 604.2C29.8465 602.844 30.0745 601.68 30.5305 600.708C30.9985 599.724 31.6405 598.974 32.4565 598.458C33.2725 597.942 34.2025 597.684 35.2465 597.684C36.2905 597.684 37.2205 597.942 38.0365 598.458C38.8525 598.974 39.4885 599.724 39.9445 600.708C40.4125 601.68 40.6465 602.844 40.6465 604.2C40.6465 605.556 40.4125 606.726 39.9445 607.71C39.4885 608.682 38.8525 609.426 38.0365 609.942C37.2205 610.458 36.2905 610.716 35.2465 610.716ZM35.2465 608.25C36.0145 608.25 36.6145 607.92 37.0465 607.26C37.4905 606.6 37.7125 605.58 37.7125 604.2C37.7125 602.82 37.4905 601.8 37.0465 601.14C36.6145 600.48 36.0145 600.15 35.2465 600.15C34.4905 600.15 33.8905 600.48 33.4465 601.14C33.0145 601.8 32.7985 602.82 32.7985 604.2C32.7985 605.58 33.0145 606.6 33.4465 607.26C33.8905 607.92 34.4905 608.25 35.2465 608.25ZM47.4633 610.716C46.4193 610.716 45.4893 610.458 44.6733 609.942C43.8573 609.426 43.2153 608.682 42.7473 607.71C42.2913 606.726 42.0633 605.556 42.0633 604.2C42.0633 602.844 42.2913 601.68 42.7473 600.708C43.2153 599.724 43.8573 598.974 44.6733 598.458C45.4893 597.942 46.4193 597.684 47.4633 597.684C48.5073 597.684 49.4373 597.942 50.2533 598.458C51.0693 598.974 51.7053 599.724 52.1613 600.708C52.6293 601.68 52.8633 602.844 52.8633 604.2C52.8633 605.556 52.6293 606.726 52.1613 607.71C51.7053 608.682 51.0693 609.426 50.2533 609.942C49.4373 610.458 48.5073 610.716 47.4633 610.716ZM47.4633 608.25C48.2313 608.25 48.8313 607.92 49.2633 607.26C49.7073 606.6 49.9293 605.58 49.9293 604.2C49.9293 602.82 49.7073 601.8 49.2633 601.14C48.8313 600.48 48.2313 600.15 47.4633 600.15C46.7073 600.15 46.1073 600.48 45.6633 601.14C45.2313 601.8 45.0153 602.82 45.0153 604.2C45.0153 605.58 45.2313 606.6 45.6633 607.26C46.1073 607.92 46.7073 608.25 47.4633 608.25Z" fill="#FF8686"/>
<path d="M120.348 571.7C121.617 571.7 122.616 572.003 123.344 572.61C124.072 573.217 124.436 574.052 124.436 575.116C124.436 576.18 124.072 577.015 123.344 577.622C122.616 578.229 121.617 578.532 120.348 578.532H117.926V581.5H116.526V571.7H120.348ZM120.306 577.314C121.193 577.314 121.869 577.127 122.336 576.754C122.803 576.371 123.036 575.825 123.036 575.116C123.036 574.407 122.803 573.865 122.336 573.492C121.869 573.109 121.193 572.918 120.306 572.918H117.926V577.314H120.306ZM128.737 574.01C129.764 574.01 130.548 574.262 131.089 574.766C131.64 575.27 131.915 576.021 131.915 577.02V581.5H130.641V580.52C130.417 580.865 130.095 581.131 129.675 581.318C129.264 581.495 128.774 581.584 128.205 581.584C127.374 581.584 126.707 581.383 126.203 580.982C125.708 580.581 125.461 580.053 125.461 579.4C125.461 578.747 125.699 578.224 126.175 577.832C126.651 577.431 127.407 577.23 128.443 577.23H130.571V576.964C130.571 576.385 130.403 575.942 130.067 575.634C129.731 575.326 129.236 575.172 128.583 575.172C128.144 575.172 127.715 575.247 127.295 575.396C126.875 575.536 126.52 575.727 126.231 575.97L125.671 574.962C126.054 574.654 126.511 574.421 127.043 574.262C127.575 574.094 128.14 574.01 128.737 574.01ZM128.429 580.548C128.942 580.548 129.386 580.436 129.759 580.212C130.132 579.979 130.403 579.652 130.571 579.232V578.196H128.499C127.36 578.196 126.791 578.579 126.791 579.344C126.791 579.717 126.936 580.011 127.225 580.226C127.514 580.441 127.916 580.548 128.429 580.548ZM138.23 577.636C138.725 577.767 139.107 577.977 139.378 578.266C139.649 578.555 139.784 578.915 139.784 579.344C139.784 579.783 139.635 580.175 139.336 580.52C139.037 580.856 138.622 581.122 138.09 581.318C137.567 581.505 136.979 581.598 136.326 581.598C135.775 581.598 135.234 581.528 134.702 581.388C134.179 581.239 133.713 581.029 133.302 580.758L133.708 579.736C134.063 579.96 134.469 580.137 134.926 580.268C135.383 580.389 135.845 580.45 136.312 580.45C136.947 580.45 137.451 580.343 137.824 580.128C138.207 579.904 138.398 579.605 138.398 579.232C138.398 578.887 138.244 578.621 137.936 578.434C137.637 578.247 137.213 578.154 136.662 578.154H135.304V577.188H136.564C137.068 577.188 137.465 577.099 137.754 576.922C138.043 576.745 138.188 576.502 138.188 576.194C138.188 575.858 138.015 575.597 137.67 575.41C137.334 575.223 136.877 575.13 136.298 575.13C135.561 575.13 134.781 575.321 133.96 575.704L133.596 574.668C134.501 574.211 135.449 573.982 136.438 573.982C137.035 573.982 137.572 574.066 138.048 574.234C138.524 574.402 138.897 574.64 139.168 574.948C139.439 575.256 139.574 575.606 139.574 575.998C139.574 576.362 139.453 576.689 139.21 576.978C138.967 577.267 138.641 577.487 138.23 577.636ZM146.881 577.65C147.843 577.893 148.323 578.495 148.323 579.456C148.323 580.109 148.076 580.613 147.581 580.968C147.096 581.323 146.368 581.5 145.397 581.5H141.827V574.08H145.271C146.149 574.08 146.835 574.248 147.329 574.584C147.824 574.911 148.071 575.377 148.071 575.984C148.071 576.376 147.964 576.717 147.749 577.006C147.544 577.286 147.255 577.501 146.881 577.65ZM143.143 577.272H145.159C145.673 577.272 146.06 577.179 146.321 576.992C146.592 576.805 146.727 576.535 146.727 576.18C146.727 575.471 146.205 575.116 145.159 575.116H143.143V577.272ZM145.299 580.464C145.859 580.464 146.279 580.375 146.559 580.198C146.839 580.021 146.979 579.745 146.979 579.372C146.979 578.989 146.849 578.705 146.587 578.518C146.335 578.331 145.934 578.238 145.383 578.238H143.143V580.464H145.299ZM156.797 574.08V581.5H155.453V575.256H152.261L152.177 576.908C152.13 577.907 152.042 578.742 151.911 579.414C151.78 580.077 151.566 580.609 151.267 581.01C150.968 581.411 150.553 581.612 150.021 581.612C149.778 581.612 149.503 581.57 149.195 581.486L149.279 580.352C149.4 580.38 149.512 580.394 149.615 580.394C149.988 580.394 150.268 580.231 150.455 579.904C150.642 579.577 150.763 579.19 150.819 578.742C150.875 578.294 150.926 577.655 150.973 576.824L151.099 574.08H156.797ZM166.102 577.832C166.102 577.935 166.092 578.07 166.074 578.238H160.054C160.138 578.891 160.422 579.419 160.908 579.82C161.402 580.212 162.014 580.408 162.742 580.408C163.628 580.408 164.342 580.109 164.884 579.512L165.626 580.38C165.29 580.772 164.87 581.071 164.366 581.276C163.871 581.481 163.316 581.584 162.7 581.584C161.916 581.584 161.22 581.425 160.614 581.108C160.007 580.781 159.536 580.329 159.2 579.75C158.873 579.171 158.71 578.518 158.71 577.79C158.71 577.071 158.868 576.423 159.186 575.844C159.512 575.265 159.956 574.817 160.516 574.5C161.085 574.173 161.724 574.01 162.434 574.01C163.143 574.01 163.773 574.173 164.324 574.5C164.884 574.817 165.318 575.265 165.626 575.844C165.943 576.423 166.102 577.085 166.102 577.832ZM162.434 575.144C161.79 575.144 161.248 575.34 160.81 575.732C160.38 576.124 160.128 576.637 160.054 577.272H164.814C164.739 576.647 164.482 576.138 164.044 575.746C163.614 575.345 163.078 575.144 162.434 575.144ZM171.071 578.364H169.531V581.5H168.187V574.08H169.531V577.216H171.099L173.507 574.08H174.949L172.135 577.65L175.145 581.5H173.563L171.071 578.364ZM179.063 574.01C180.09 574.01 180.874 574.262 181.415 574.766C181.966 575.27 182.241 576.021 182.241 577.02V581.5H180.967V580.52C180.743 580.865 180.421 581.131 180.001 581.318C179.591 581.495 179.101 581.584 178.531 581.584C177.701 581.584 177.033 581.383 176.529 580.982C176.035 580.581 175.787 580.053 175.787 579.4C175.787 578.747 176.025 578.224 176.501 577.832C176.977 577.431 177.733 577.23 178.769 577.23H180.897V576.964C180.897 576.385 180.729 575.942 180.393 575.634C180.057 575.326 179.563 575.172 178.909 575.172C178.471 575.172 178.041 575.247 177.621 575.396C177.201 575.536 176.847 575.727 176.557 575.97L175.997 574.962C176.38 574.654 176.837 574.421 177.369 574.262C177.901 574.094 178.466 574.01 179.063 574.01ZM178.755 580.548C179.269 580.548 179.712 580.436 180.085 580.212C180.459 579.979 180.729 579.652 180.897 579.232V578.196H178.825C177.687 578.196 177.117 578.579 177.117 579.344C177.117 579.717 177.262 580.011 177.551 580.226C177.841 580.441 178.242 580.548 178.755 580.548ZM190.191 575.256H187.475V581.5H186.131V575.256H183.415V574.08H190.191V575.256ZM197.944 577.832C197.944 577.935 197.934 578.07 197.916 578.238H191.896C191.98 578.891 192.264 579.419 192.75 579.82C193.244 580.212 193.856 580.408 194.584 580.408C195.47 580.408 196.184 580.109 196.726 579.512L197.468 580.38C197.132 580.772 196.712 581.071 196.208 581.276C195.713 581.481 195.158 581.584 194.542 581.584C193.758 581.584 193.062 581.425 192.456 581.108C191.849 580.781 191.378 580.329 191.042 579.75C190.715 579.171 190.552 578.518 190.552 577.79C190.552 577.071 190.71 576.423 191.028 575.844C191.354 575.265 191.798 574.817 192.358 574.5C192.927 574.173 193.566 574.01 194.276 574.01C194.985 574.01 195.615 574.173 196.166 574.5C196.726 574.817 197.16 575.265 197.468 575.844C197.785 576.423 197.944 577.085 197.944 577.832ZM194.276 575.144C193.632 575.144 193.09 575.34 192.652 575.732C192.222 576.124 191.97 576.637 191.896 577.272H196.656C196.581 576.647 196.324 576.138 195.886 575.746C195.456 575.345 194.92 575.144 194.276 575.144ZM206.276 574.08V581.5H204.932V575.256H201.74L201.656 576.908C201.609 577.907 201.52 578.742 201.39 579.414C201.259 580.077 201.044 580.609 200.746 581.01C200.447 581.411 200.032 581.612 199.5 581.612C199.257 581.612 198.982 581.57 198.674 581.486L198.758 580.352C198.879 580.38 198.991 580.394 199.094 580.394C199.467 580.394 199.747 580.231 199.934 579.904C200.12 579.577 200.242 579.19 200.298 578.742C200.354 578.294 200.405 577.655 200.452 576.824L200.578 574.08H206.276ZM212.304 576.6C213.247 576.609 213.966 576.824 214.46 577.244C214.955 577.664 215.202 578.257 215.202 579.022C215.202 579.825 214.932 580.445 214.39 580.884C213.858 581.313 213.093 581.523 212.094 581.514L208.874 581.5V574.08H210.218V576.586L212.304 576.6ZM211.982 580.492C212.589 580.501 213.046 580.38 213.354 580.128C213.672 579.876 213.83 579.503 213.83 579.008C213.83 578.523 213.676 578.168 213.368 577.944C213.07 577.72 212.608 577.603 211.982 577.594L210.218 577.566V580.478L211.982 580.492ZM216.927 574.08H218.271V577.23H222.499V574.08H223.843V581.5H222.499V578.392H218.271V581.5H216.927V574.08ZM229.102 574.01C230.129 574.01 230.913 574.262 231.454 574.766C232.005 575.27 232.28 576.021 232.28 577.02V581.5H231.006V580.52C230.782 580.865 230.46 581.131 230.04 581.318C229.63 581.495 229.14 581.584 228.57 581.584C227.74 581.584 227.072 581.383 226.568 580.982C226.074 580.581 225.826 580.053 225.826 579.4C225.826 578.747 226.064 578.224 226.54 577.832C227.016 577.431 227.772 577.23 228.808 577.23H230.936V576.964C230.936 576.385 230.768 575.942 230.432 575.634C230.096 575.326 229.602 575.172 228.948 575.172C228.51 575.172 228.08 575.247 227.66 575.396C227.24 575.536 226.886 575.727 226.596 575.97L226.036 574.962C226.419 574.654 226.876 574.421 227.408 574.262C227.94 574.094 228.505 574.01 229.102 574.01ZM228.794 580.548C229.308 580.548 229.751 580.436 230.124 580.212C230.498 579.979 230.768 579.652 230.936 579.232V578.196H228.864C227.726 578.196 227.156 578.579 227.156 579.344C227.156 579.717 227.301 580.011 227.59 580.226C227.88 580.441 228.281 580.548 228.794 580.548ZM240.65 574.08V581.5H239.446V579.148H237.29H237.136L235.512 581.5H234.07L235.876 578.966C235.316 578.798 234.887 578.523 234.588 578.14C234.29 577.748 234.14 577.263 234.14 576.684C234.14 575.835 234.43 575.191 235.008 574.752C235.587 574.304 236.385 574.08 237.402 574.08H240.65ZM235.512 576.726C235.512 577.221 235.666 577.589 235.974 577.832C236.292 578.065 236.763 578.182 237.388 578.182H239.446V575.256H237.444C236.156 575.256 235.512 575.746 235.512 576.726ZM253.906 574.08V581.5H252.562V575.256H248.376V581.5H247.032V574.08H253.906ZM262.877 574.08V581.5H261.533V575.256H258.341L258.257 576.908C258.21 577.907 258.122 578.742 257.991 579.414C257.86 580.077 257.646 580.609 257.347 581.01C257.048 581.411 256.633 581.612 256.101 581.612C255.858 581.612 255.583 581.57 255.275 581.486L255.359 580.352C255.48 580.38 255.592 580.394 255.695 580.394C256.068 580.394 256.348 580.231 256.535 579.904C256.722 579.577 256.843 579.19 256.899 578.742C256.955 578.294 257.006 577.655 257.053 576.824L257.179 574.08H262.877ZM268.654 581.584C267.916 581.584 267.254 581.421 266.666 581.094C266.078 580.767 265.616 580.319 265.28 579.75C264.953 579.171 264.79 578.518 264.79 577.79C264.79 577.062 264.953 576.413 265.28 575.844C265.616 575.265 266.078 574.817 266.666 574.5C267.254 574.173 267.916 574.01 268.654 574.01C269.391 574.01 270.049 574.173 270.628 574.5C271.216 574.817 271.673 575.265 272 575.844C272.336 576.413 272.504 577.062 272.504 577.79C272.504 578.518 272.336 579.171 272 579.75C271.673 580.319 271.216 580.767 270.628 581.094C270.049 581.421 269.391 581.584 268.654 581.584ZM268.654 580.408C269.13 580.408 269.554 580.301 269.928 580.086C270.31 579.862 270.609 579.554 270.824 579.162C271.038 578.761 271.146 578.303 271.146 577.79C271.146 577.277 271.038 576.824 270.824 576.432C270.609 576.031 270.31 575.723 269.928 575.508C269.554 575.293 269.13 575.186 268.654 575.186C268.178 575.186 267.748 575.293 267.366 575.508C266.992 575.723 266.694 576.031 266.47 576.432C266.255 576.824 266.148 577.277 266.148 577.79C266.148 578.303 266.255 578.761 266.47 579.162C266.694 579.554 266.992 579.862 267.366 580.086C267.748 580.301 268.178 580.408 268.654 580.408ZM285.015 574.08V581.5H274.445V574.08H275.789V580.324H279.065V574.08H280.409V580.324H283.671V574.08H285.015ZM286.121 580.324V583.082H284.861V581.5H283.615V580.324H286.121ZM290.27 574.01C291.297 574.01 292.081 574.262 292.622 574.766C293.173 575.27 293.448 576.021 293.448 577.02V581.5H292.174V580.52C291.95 580.865 291.628 581.131 291.208 581.318C290.798 581.495 290.308 581.584 289.738 581.584C288.908 581.584 288.24 581.383 287.736 580.982C287.242 580.581 286.994 580.053 286.994 579.4C286.994 578.747 287.232 578.224 287.708 577.832C288.184 577.431 288.94 577.23 289.976 577.23H292.104V576.964C292.104 576.385 291.936 575.942 291.6 575.634C291.264 575.326 290.77 575.172 290.116 575.172C289.678 575.172 289.248 575.247 288.828 575.396C288.408 575.536 288.054 575.727 287.764 575.97L287.204 574.962C287.587 574.654 288.044 574.421 288.576 574.262C289.108 574.094 289.673 574.01 290.27 574.01ZM289.962 580.548C290.476 580.548 290.919 580.436 291.292 580.212C291.666 579.979 291.936 579.652 292.104 579.232V578.196H290.032C288.894 578.196 288.324 578.579 288.324 579.344C288.324 579.717 288.469 580.011 288.758 580.226C289.048 580.441 289.449 580.548 289.962 580.548ZM303.414 580.324V583.222H302.154V581.5H295.952V583.222H294.678V580.324H295.07C295.546 580.296 295.873 579.96 296.05 579.316C296.228 578.672 296.349 577.762 296.414 576.586L296.526 574.08H302.28V580.324H303.414ZM297.646 576.684C297.609 577.617 297.53 578.392 297.408 579.008C297.296 579.615 297.086 580.053 296.778 580.324H300.936V575.256H297.716L297.646 576.684ZM308.049 578.364H306.509V581.5H305.165V574.08H306.509V577.216H308.077L310.485 574.08H311.927L309.113 577.65L312.123 581.5H310.541L308.049 578.364ZM316.042 574.01C317.068 574.01 317.852 574.262 318.394 574.766C318.944 575.27 319.22 576.021 319.22 577.02V581.5H317.946V580.52C317.722 580.865 317.4 581.131 316.98 581.318C316.569 581.495 316.079 581.584 315.51 581.584C314.679 581.584 314.012 581.383 313.508 580.982C313.013 580.581 312.766 580.053 312.766 579.4C312.766 578.747 313.004 578.224 313.48 577.832C313.956 577.431 314.712 577.23 315.748 577.23H317.876V576.964C317.876 576.385 317.708 575.942 317.372 575.634C317.036 575.326 316.541 575.172 315.888 575.172C315.449 575.172 315.02 575.247 314.6 575.396C314.18 575.536 313.825 575.727 313.536 575.97L312.976 574.962C313.358 574.654 313.816 574.421 314.348 574.262C314.88 574.094 315.444 574.01 316.042 574.01ZM315.734 580.548C316.247 580.548 316.69 580.436 317.064 580.212C317.437 579.979 317.708 579.652 317.876 579.232V578.196H315.804C314.665 578.196 314.096 578.579 314.096 579.344C314.096 579.717 314.24 580.011 314.53 580.226C314.819 580.441 315.22 580.548 315.734 580.548Z" fill="white"/>
<circle cx="84" cy="577.5" r="6.5" stroke="#FF8686" stroke-width="5"/>
</svg>
