<svg width="365" height="695" viewBox="0 0 365 695" fill="none" xmlns="http://www.w3.org/2000/svg">
<rect y="52" width="111" height="30" rx="3" fill="#FF8686"/>
<path d="M30.9691 61V75H27.7291V63.6H24.9291V61H30.9691ZM44.3611 61V63.1L39.1611 75H35.6411L40.6611 63.64H36.0211V65.92H33.1411V61H44.3611ZM57.2275 75.16C56.0942 75.16 55.0742 74.9267 54.1675 74.46C53.2742 73.98 52.5742 73.32 52.0675 72.48C51.5608 71.64 51.3075 70.6867 51.3075 69.62C51.3075 68.5533 51.5608 67.6 52.0675 66.76C52.5742 65.92 53.2742 65.2667 54.1675 64.8C55.0742 64.32 56.0942 64.08 57.2275 64.08C58.3608 64.08 59.3742 64.32 60.2675 64.8C61.1608 65.2667 61.8608 65.92 62.3675 66.76C62.8742 67.6 63.1275 68.5533 63.1275 69.62C63.1275 70.6867 62.8742 71.64 62.3675 72.48C61.8608 73.32 61.1608 73.98 60.2675 74.46C59.3742 74.9267 58.3608 75.16 57.2275 75.16ZM57.2275 72.6C58.0275 72.6 58.6808 72.3333 59.1875 71.8C59.7075 71.2533 59.9675 70.5267 59.9675 69.62C59.9675 68.7133 59.7075 67.9933 59.1875 67.46C58.6808 66.9133 58.0275 66.64 57.2275 66.64C56.4275 66.64 55.7675 66.9133 55.2475 67.46C54.7275 67.9933 54.4675 68.7133 54.4675 69.62C54.4675 70.5267 54.7275 71.2533 55.2475 71.8C55.7675 72.3333 56.4275 72.6 57.2275 72.6ZM70.0134 70.92H68.3934V75H65.2734V64.24H68.3934V68.42H70.0734L72.9934 64.24H76.3134L72.5534 69.4L76.5734 75H72.8934L70.0134 70.92ZM87.0478 66.8H83.4078V75H80.3078V66.8H76.6678V64.24H87.0478V66.8Z" fill="#0C1324"/>
<path d="M26.697 20.644V29.785H21.747V25H5.445V29.785H0.495L0.528 20.644H1.452C2.838 20.6 3.817 19.588 4.389 17.608C4.961 15.628 5.313 12.801 5.445 9.127L5.709 1.9H23.463V20.644H26.697ZM10.164 9.622C10.054 12.372 9.823 14.682 9.471 16.552C9.119 18.4 8.58 19.764 7.854 20.644H18.183V6.256H10.263L10.164 9.622ZM46.9332 16.189C46.9332 16.255 46.9002 16.717 46.8342 17.575H33.4032C33.6452 18.675 34.2172 19.544 35.1192 20.182C36.0212 20.82 37.1432 21.139 38.4852 21.139C39.4092 21.139 40.2232 21.007 40.9272 20.743C41.6532 20.457 42.3242 20.017 42.9402 19.423L45.6792 22.393C44.0072 24.307 41.5652 25.264 38.3532 25.264C36.3512 25.264 34.5802 24.879 33.0402 24.109C31.5002 23.317 30.3122 22.228 29.4762 20.842C28.6402 19.456 28.2222 17.883 28.2222 16.123C28.2222 14.385 28.6292 12.823 29.4432 11.437C30.2792 10.029 31.4122 8.94 32.8422 8.17C34.2942 7.378 35.9112 6.982 37.6932 6.982C39.4312 6.982 41.0042 7.356 42.4122 8.104C43.8202 8.852 44.9202 9.93 45.7122 11.338C46.5262 12.724 46.9332 14.341 46.9332 16.189ZM37.7262 10.876C36.5602 10.876 35.5812 11.206 34.7892 11.866C33.9972 12.526 33.5132 13.428 33.3372 14.572H42.0822C41.9062 13.45 41.4222 12.559 40.6302 11.899C39.8382 11.217 38.8702 10.876 37.7262 10.876ZM50.8793 7.246H55.9943V14.176H63.7163V7.246H68.8643V25H63.7163V18.367H55.9943V25H50.8793V7.246ZM83.3954 12.922C85.7054 12.944 87.4764 13.472 88.7084 14.506C89.9404 15.518 90.5564 16.959 90.5564 18.829C90.5564 20.787 89.8634 22.316 88.4774 23.416C87.1134 24.494 85.1884 25.033 82.7024 25.033L73.7924 25V7.246H78.9074V12.922H83.3954ZM82.2404 21.37C83.2304 21.392 83.9894 21.183 84.5174 20.743C85.0454 20.303 85.3094 19.643 85.3094 18.763C85.3094 17.905 85.0454 17.278 84.5174 16.882C84.0114 16.486 83.2524 16.277 82.2404 16.255L78.9074 16.222V21.37H82.2404ZM119.19 20.644V25H101.733V21.535L110.643 13.12C111.589 12.218 112.227 11.448 112.557 10.81C112.887 10.15 113.052 9.501 113.052 8.863C113.052 7.939 112.733 7.235 112.095 6.751C111.479 6.245 110.566 5.992 109.356 5.992C108.344 5.992 107.431 6.19 106.617 6.586C105.803 6.96 105.121 7.532 104.571 8.302L100.677 5.794C101.579 4.452 102.822 3.407 104.406 2.659C105.99 1.889 107.805 1.504 109.851 1.504C111.567 1.504 113.063 1.79 114.339 2.362C115.637 2.912 116.638 3.704 117.342 4.738C118.068 5.75 118.431 6.949 118.431 8.335C118.431 9.589 118.167 10.766 117.639 11.866C117.111 12.966 116.088 14.22 114.57 15.628L109.257 20.644H119.19Z" fill="#FF8686"/>
<path d="M84 139.5V211" stroke="white" stroke-dasharray="3 3"/>
<path d="M84 228.5V300" stroke="white" stroke-dasharray="3 3"/>
<path d="M84 405V476.5" stroke="white" stroke-dasharray="3 3"/>
<path d="M84 315.5V387" stroke="white" stroke-dasharray="3 3"/>
<path d="M84 495.5V567" stroke="white" stroke-dasharray="3 3"/>
<path d="M84 586V657.5" stroke="white" stroke-dasharray="3 3"/>
<path d="M5.562 126.4V139H2.646V128.74H0.126V126.4H5.562ZM13.1508 139.216C12.1068 139.216 11.1768 138.958 10.3608 138.442C9.54483 137.926 8.90283 137.182 8.43483 136.21C7.97883 135.226 7.75083 134.056 7.75083 132.7C7.75083 131.344 7.97883 130.18 8.43483 129.208C8.90283 128.224 9.54483 127.474 10.3608 126.958C11.1768 126.442 12.1068 126.184 13.1508 126.184C14.1948 126.184 15.1248 126.442 15.9408 126.958C16.7568 127.474 17.3928 128.224 17.8488 129.208C18.3168 130.18 18.5508 131.344 18.5508 132.7C18.5508 134.056 18.3168 135.226 17.8488 136.21C17.3928 137.182 16.7568 137.926 15.9408 138.442C15.1248 138.958 14.1948 139.216 13.1508 139.216ZM13.1508 136.75C13.9188 136.75 14.5188 136.42 14.9508 135.76C15.3948 135.1 15.6168 134.08 15.6168 132.7C15.6168 131.32 15.3948 130.3 14.9508 129.64C14.5188 128.98 13.9188 128.65 13.1508 128.65C12.3948 128.65 11.7948 128.98 11.3508 129.64C10.9188 130.3 10.7028 131.32 10.7028 132.7C10.7028 134.08 10.9188 135.1 11.3508 135.76C11.7948 136.42 12.3948 136.75 13.1508 136.75ZM21.6236 132.682C21.1316 132.682 20.7176 132.514 20.3816 132.178C20.0456 131.842 19.8776 131.422 19.8776 130.918C19.8776 130.402 20.0456 129.988 20.3816 129.676C20.7176 129.352 21.1316 129.19 21.6236 129.19C22.1156 129.19 22.5296 129.352 22.8656 129.676C23.2016 129.988 23.3696 130.402 23.3696 130.918C23.3696 131.422 23.2016 131.842 22.8656 132.178C22.5296 132.514 22.1156 132.682 21.6236 132.682ZM21.6236 139.144C21.1316 139.144 20.7176 138.976 20.3816 138.64C20.0456 138.304 19.8776 137.884 19.8776 137.38C19.8776 136.864 20.0456 136.45 20.3816 136.138C20.7176 135.814 21.1316 135.652 21.6236 135.652C22.1156 135.652 22.5296 135.814 22.8656 136.138C23.2016 136.45 23.3696 136.864 23.3696 137.38C23.3696 137.884 23.2016 138.304 22.8656 138.64C22.5296 138.976 22.1156 139.144 21.6236 139.144ZM30.0786 139.216C29.0346 139.216 28.1046 138.958 27.2886 138.442C26.4726 137.926 25.8306 137.182 25.3626 136.21C24.9066 135.226 24.6786 134.056 24.6786 132.7C24.6786 131.344 24.9066 130.18 25.3626 129.208C25.8306 128.224 26.4726 127.474 27.2886 126.958C28.1046 126.442 29.0346 126.184 30.0786 126.184C31.1226 126.184 32.0526 126.442 32.8686 126.958C33.6846 127.474 34.3206 128.224 34.7766 129.208C35.2446 130.18 35.4786 131.344 35.4786 132.7C35.4786 134.056 35.2446 135.226 34.7766 136.21C34.3206 137.182 33.6846 137.926 32.8686 138.442C32.0526 138.958 31.1226 139.216 30.0786 139.216ZM30.0786 136.75C30.8466 136.75 31.4466 136.42 31.8786 135.76C32.3226 135.1 32.5446 134.08 32.5446 132.7C32.5446 131.32 32.3226 130.3 31.8786 129.64C31.4466 128.98 30.8466 128.65 30.0786 128.65C29.3226 128.65 28.7226 128.98 28.2786 129.64C27.8466 130.3 27.6306 131.32 27.6306 132.7C27.6306 134.08 27.8466 135.1 28.2786 135.76C28.7226 136.42 29.3226 136.75 30.0786 136.75ZM42.2954 139.216C41.2514 139.216 40.3214 138.958 39.5054 138.442C38.6894 137.926 38.0474 137.182 37.5794 136.21C37.1234 135.226 36.8954 134.056 36.8954 132.7C36.8954 131.344 37.1234 130.18 37.5794 129.208C38.0474 128.224 38.6894 127.474 39.5054 126.958C40.3214 126.442 41.2514 126.184 42.2954 126.184C43.3394 126.184 44.2694 126.442 45.0854 126.958C45.9014 127.474 46.5374 128.224 46.9934 129.208C47.4614 130.18 47.6954 131.344 47.6954 132.7C47.6954 134.056 47.4614 135.226 46.9934 136.21C46.5374 137.182 45.9014 137.926 45.0854 138.442C44.2694 138.958 43.3394 139.216 42.2954 139.216ZM42.2954 136.75C43.0634 136.75 43.6634 136.42 44.0954 135.76C44.5394 135.1 44.7614 134.08 44.7614 132.7C44.7614 131.32 44.5394 130.3 44.0954 129.64C43.6634 128.98 43.0634 128.65 42.2954 128.65C41.5394 128.65 40.9394 128.98 40.4954 129.64C40.0634 130.3 39.8474 131.32 39.8474 132.7C39.8474 134.08 40.0634 135.1 40.4954 135.76C40.9394 136.42 41.5394 136.75 42.2954 136.75Z" fill="#FF8686"/>
<path d="M119.942 132.688H117.898V137H116.526V127.2H117.898V131.456H119.97L123.05 127.2H124.548L121.048 131.946L124.716 137H123.12L119.942 132.688ZM129.009 137.084C128.272 137.084 127.609 136.921 127.021 136.594C126.433 136.267 125.971 135.819 125.635 135.25C125.309 134.671 125.145 134.018 125.145 133.29C125.145 132.562 125.309 131.913 125.635 131.344C125.971 130.765 126.433 130.317 127.021 130C127.609 129.673 128.272 129.51 129.009 129.51C129.747 129.51 130.405 129.673 130.983 130C131.571 130.317 132.029 130.765 132.355 131.344C132.691 131.913 132.859 132.562 132.859 133.29C132.859 134.018 132.691 134.671 132.355 135.25C132.029 135.819 131.571 136.267 130.983 136.594C130.405 136.921 129.747 137.084 129.009 137.084ZM129.009 135.908C129.485 135.908 129.91 135.801 130.283 135.586C130.666 135.362 130.965 135.054 131.179 134.662C131.394 134.261 131.501 133.803 131.501 133.29C131.501 132.777 131.394 132.324 131.179 131.932C130.965 131.531 130.666 131.223 130.283 131.008C129.91 130.793 129.485 130.686 129.009 130.686C128.533 130.686 128.104 130.793 127.721 131.008C127.348 131.223 127.049 131.531 126.825 131.932C126.611 132.324 126.503 132.777 126.503 133.29C126.503 133.803 126.611 134.261 126.825 134.662C127.049 135.054 127.348 135.362 127.721 135.586C128.104 135.801 128.533 135.908 129.009 135.908ZM144.166 133.276C144.166 134.424 143.783 135.329 143.018 135.992C142.253 136.655 141.175 137.023 139.784 137.098V139.716H138.468V137.098C137.077 137.023 135.999 136.659 135.234 136.006C134.478 135.343 134.1 134.433 134.1 133.276C134.1 132.128 134.478 131.232 135.234 130.588C135.99 129.944 137.068 129.585 138.468 129.51V126.612H139.784V129.51C141.175 129.585 142.253 129.949 143.018 130.602C143.783 131.246 144.166 132.137 144.166 133.276ZM135.43 133.276C135.43 134.069 135.682 134.69 136.186 135.138C136.699 135.586 137.46 135.843 138.468 135.908V130.7C137.451 130.765 136.69 131.017 136.186 131.456C135.682 131.895 135.43 132.501 135.43 133.276ZM139.784 135.922C141.819 135.763 142.836 134.881 142.836 133.276C142.836 132.492 142.579 131.885 142.066 131.456C141.553 131.017 140.792 130.765 139.784 130.7V135.922ZM152.772 133.332C152.772 133.435 152.762 133.57 152.744 133.738H146.724C146.808 134.391 147.092 134.919 147.578 135.32C148.072 135.712 148.684 135.908 149.412 135.908C150.298 135.908 151.012 135.609 151.554 135.012L152.296 135.88C151.96 136.272 151.54 136.571 151.036 136.776C150.541 136.981 149.986 137.084 149.37 137.084C148.586 137.084 147.89 136.925 147.284 136.608C146.677 136.281 146.206 135.829 145.87 135.25C145.543 134.671 145.38 134.018 145.38 133.29C145.38 132.571 145.538 131.923 145.856 131.344C146.182 130.765 146.626 130.317 147.186 130C147.755 129.673 148.394 129.51 149.104 129.51C149.813 129.51 150.443 129.673 150.994 130C151.554 130.317 151.988 130.765 152.296 131.344C152.613 131.923 152.772 132.585 152.772 133.332ZM149.104 130.644C148.46 130.644 147.918 130.84 147.48 131.232C147.05 131.624 146.798 132.137 146.724 132.772H151.484C151.409 132.147 151.152 131.638 150.714 131.246C150.284 130.845 149.748 130.644 149.104 130.644ZM154.489 132.576H158.255V133.738H154.489V132.576ZM164.228 129.832C164.919 129.832 165.535 129.986 166.076 130.294C166.618 130.602 167.038 131.031 167.336 131.582C167.644 132.123 167.798 132.744 167.798 133.444C167.798 134.163 167.635 134.802 167.308 135.362C166.991 135.913 166.538 136.342 165.95 136.65C165.372 136.958 164.709 137.112 163.962 137.112C162.702 137.112 161.727 136.683 161.036 135.824C160.355 134.956 160.014 133.738 160.014 132.17C160.014 130.649 160.327 129.459 160.952 128.6C161.578 127.732 162.534 127.158 163.822 126.878L167.21 126.122L167.406 127.354L164.284 128.026C163.314 128.241 162.59 128.605 162.114 129.118C161.638 129.631 161.368 130.369 161.302 131.33C161.62 130.854 162.03 130.485 162.534 130.224C163.038 129.963 163.603 129.832 164.228 129.832ZM163.99 135.992C164.466 135.992 164.886 135.885 165.25 135.67C165.624 135.455 165.913 135.161 166.118 134.788C166.324 134.405 166.426 133.971 166.426 133.486C166.426 132.749 166.202 132.156 165.754 131.708C165.306 131.26 164.718 131.036 163.99 131.036C163.262 131.036 162.67 131.26 162.212 131.708C161.764 132.156 161.54 132.749 161.54 133.486C161.54 133.971 161.643 134.405 161.848 134.788C162.063 135.161 162.357 135.455 162.73 135.67C163.104 135.885 163.524 135.992 163.99 135.992ZM173.652 129.51C174.371 129.51 175.015 129.669 175.584 129.986C176.153 130.303 176.597 130.747 176.914 131.316C177.241 131.885 177.404 132.543 177.404 133.29C177.404 134.037 177.241 134.699 176.914 135.278C176.597 135.847 176.153 136.291 175.584 136.608C175.015 136.925 174.371 137.084 173.652 137.084C173.12 137.084 172.63 136.981 172.182 136.776C171.743 136.571 171.37 136.272 171.062 135.88V139.716H169.718V129.58H171.006V130.756C171.305 130.345 171.683 130.037 172.14 129.832C172.597 129.617 173.101 129.51 173.652 129.51ZM173.54 135.908C174.016 135.908 174.441 135.801 174.814 135.586C175.197 135.362 175.495 135.054 175.71 134.662C175.934 134.261 176.046 133.803 176.046 133.29C176.046 132.777 175.934 132.324 175.71 131.932C175.495 131.531 175.197 131.223 174.814 131.008C174.441 130.793 174.016 130.686 173.54 130.686C173.073 130.686 172.649 130.798 172.266 131.022C171.893 131.237 171.594 131.54 171.37 131.932C171.155 132.324 171.048 132.777 171.048 133.29C171.048 133.803 171.155 134.261 171.37 134.662C171.585 135.054 171.883 135.362 172.266 135.586C172.649 135.801 173.073 135.908 173.54 135.908ZM186.063 133.332C186.063 133.435 186.053 133.57 186.035 133.738H180.015C180.099 134.391 180.383 134.919 180.869 135.32C181.363 135.712 181.975 135.908 182.703 135.908C183.589 135.908 184.303 135.609 184.845 135.012L185.587 135.88C185.251 136.272 184.831 136.571 184.327 136.776C183.832 136.981 183.277 137.084 182.661 137.084C181.877 137.084 181.181 136.925 180.575 136.608C179.968 136.281 179.497 135.829 179.161 135.25C178.834 134.671 178.671 134.018 178.671 133.29C178.671 132.571 178.829 131.923 179.147 131.344C179.473 130.765 179.917 130.317 180.477 130C181.046 129.673 181.685 129.51 182.395 129.51C183.104 129.51 183.734 129.673 184.285 130C184.845 130.317 185.279 130.765 185.587 131.344C185.904 131.923 186.063 132.585 186.063 133.332ZM182.395 130.644C181.751 130.644 181.209 130.84 180.771 131.232C180.341 131.624 180.089 132.137 180.015 132.772H184.775C184.7 132.147 184.443 131.638 184.005 131.246C183.575 130.845 183.039 130.644 182.395 130.644ZM188.148 129.58H189.492V134.984L194.042 129.58H195.26V137H193.916V131.596L189.38 137H188.148V129.58ZM191.62 128.614C190.929 128.614 190.392 128.451 190.01 128.124C189.627 127.788 189.431 127.307 189.422 126.682H190.332C190.341 127.027 190.458 127.307 190.682 127.522C190.915 127.727 191.223 127.83 191.606 127.83C191.988 127.83 192.296 127.727 192.53 127.522C192.763 127.307 192.884 127.027 192.894 126.682H193.832C193.822 127.307 193.622 127.788 193.23 128.124C192.838 128.451 192.301 128.614 191.62 128.614ZM200.752 133.864H199.212V137H197.868V129.58H199.212V132.716H200.78L203.188 129.58H204.63L201.816 133.15L204.826 137H203.244L200.752 133.864Z" fill="white"/>
<circle cx="84" cy="133" r="6.5" stroke="#FF8686" stroke-width="5"/>
<path d="M5.562 214.4V227H2.646V216.74H0.126V214.4H5.562ZM17.1648 224.624V227H7.64283V225.11L12.5028 220.52C13.0188 220.028 13.3668 219.608 13.5468 219.26C13.7268 218.9 13.8168 218.546 13.8168 218.198C13.8168 217.694 13.6428 217.31 13.2948 217.046C12.9588 216.77 12.4608 216.632 11.8008 216.632C11.2488 216.632 10.7508 216.74 10.3068 216.956C9.86283 217.16 9.49083 217.472 9.19083 217.892L7.06683 216.524C7.55883 215.792 8.23683 215.222 9.10083 214.814C9.96483 214.394 10.9548 214.184 12.0708 214.184C13.0068 214.184 13.8228 214.34 14.5188 214.652C15.2268 214.952 15.7728 215.384 16.1568 215.948C16.5528 216.5 16.7508 217.154 16.7508 217.91C16.7508 218.594 16.6068 219.236 16.3188 219.836C16.0308 220.436 15.4728 221.12 14.6448 221.888L11.7468 224.624H17.1648ZM20.024 220.682C19.532 220.682 19.118 220.514 18.782 220.178C18.446 219.842 18.278 219.422 18.278 218.918C18.278 218.402 18.446 217.988 18.782 217.676C19.118 217.352 19.532 217.19 20.024 217.19C20.516 217.19 20.93 217.352 21.266 217.676C21.602 217.988 21.77 218.402 21.77 218.918C21.77 219.422 21.602 219.842 21.266 220.178C20.93 220.514 20.516 220.682 20.024 220.682ZM20.024 227.144C19.532 227.144 19.118 226.976 18.782 226.64C18.446 226.304 18.278 225.884 18.278 225.38C18.278 224.864 18.446 224.45 18.782 224.138C19.118 223.814 19.532 223.652 20.024 223.652C20.516 223.652 20.93 223.814 21.266 224.138C21.602 224.45 21.77 224.864 21.77 225.38C21.77 225.884 21.602 226.304 21.266 226.64C20.93 226.976 20.516 227.144 20.024 227.144ZM28.479 227.216C27.435 227.216 26.505 226.958 25.689 226.442C24.873 225.926 24.231 225.182 23.763 224.21C23.307 223.226 23.079 222.056 23.079 220.7C23.079 219.344 23.307 218.18 23.763 217.208C24.231 216.224 24.873 215.474 25.689 214.958C26.505 214.442 27.435 214.184 28.479 214.184C29.523 214.184 30.453 214.442 31.269 214.958C32.085 215.474 32.721 216.224 33.177 217.208C33.645 218.18 33.879 219.344 33.879 220.7C33.879 222.056 33.645 223.226 33.177 224.21C32.721 225.182 32.085 225.926 31.269 226.442C30.453 226.958 29.523 227.216 28.479 227.216ZM28.479 224.75C29.247 224.75 29.847 224.42 30.279 223.76C30.723 223.1 30.945 222.08 30.945 220.7C30.945 219.32 30.723 218.3 30.279 217.64C29.847 216.98 29.247 216.65 28.479 216.65C27.723 216.65 27.123 216.98 26.679 217.64C26.247 218.3 26.031 219.32 26.031 220.7C26.031 222.08 26.247 223.1 26.679 223.76C27.123 224.42 27.723 224.75 28.479 224.75ZM40.6958 227.216C39.6518 227.216 38.7218 226.958 37.9058 226.442C37.0898 225.926 36.4478 225.182 35.9798 224.21C35.5238 223.226 35.2958 222.056 35.2958 220.7C35.2958 219.344 35.5238 218.18 35.9798 217.208C36.4478 216.224 37.0898 215.474 37.9058 214.958C38.7218 214.442 39.6518 214.184 40.6958 214.184C41.7398 214.184 42.6698 214.442 43.4858 214.958C44.3018 215.474 44.9378 216.224 45.3938 217.208C45.8618 218.18 46.0958 219.344 46.0958 220.7C46.0958 222.056 45.8618 223.226 45.3938 224.21C44.9378 225.182 44.3018 225.926 43.4858 226.442C42.6698 226.958 41.7398 227.216 40.6958 227.216ZM40.6958 224.75C41.4638 224.75 42.0638 224.42 42.4958 223.76C42.9398 223.1 43.1618 222.08 43.1618 220.7C43.1618 219.32 42.9398 218.3 42.4958 217.64C42.0638 216.98 41.4638 216.65 40.6958 216.65C39.9398 216.65 39.3398 216.98 38.8958 217.64C38.4638 218.3 38.2478 219.32 38.2478 220.7C38.2478 222.08 38.4638 223.1 38.8958 223.76C39.3398 224.42 39.9398 224.75 40.6958 224.75Z" fill="#FF8686"/>
<path d="M123.778 215.2V225H122.392V221.122C121.356 221.523 120.399 221.724 119.522 221.724C118.327 221.724 117.399 221.435 116.736 220.856C116.083 220.277 115.756 219.451 115.756 218.378V215.2H117.128V218.224C117.128 218.952 117.347 219.512 117.786 219.904C118.234 220.296 118.864 220.492 119.676 220.492C120.581 220.492 121.487 220.287 122.392 219.876V215.2H123.778ZM133.317 221.332C133.317 221.435 133.307 221.57 133.289 221.738H127.269C127.353 222.391 127.637 222.919 128.123 223.32C128.617 223.712 129.229 223.908 129.957 223.908C130.843 223.908 131.557 223.609 132.099 223.012L132.841 223.88C132.505 224.272 132.085 224.571 131.581 224.776C131.086 224.981 130.531 225.084 129.915 225.084C129.131 225.084 128.435 224.925 127.829 224.608C127.222 224.281 126.751 223.829 126.415 223.25C126.088 222.671 125.925 222.018 125.925 221.29C125.925 220.571 126.083 219.923 126.401 219.344C126.727 218.765 127.171 218.317 127.731 218C128.3 217.673 128.939 217.51 129.649 217.51C130.358 217.51 130.988 217.673 131.539 218C132.099 218.317 132.533 218.765 132.841 219.344C133.158 219.923 133.317 220.585 133.317 221.332ZM129.649 218.644C129.005 218.644 128.463 218.84 128.025 219.232C127.595 219.624 127.343 220.137 127.269 220.772H132.029C131.954 220.147 131.697 219.638 131.259 219.246C130.829 218.845 130.293 218.644 129.649 218.644ZM138.286 221.864H136.746V225H135.402V217.58H136.746V220.716H138.314L140.722 217.58H142.164L139.35 221.15L142.36 225H140.778L138.286 221.864ZM142.937 220.576H146.703V221.738H142.937V220.576ZM155.674 217.58V225H154.33V218.756H150.144V225H148.8V217.58H155.674ZM161.453 225.084C160.715 225.084 160.053 224.921 159.465 224.594C158.877 224.267 158.415 223.819 158.079 223.25C157.752 222.671 157.589 222.018 157.589 221.29C157.589 220.562 157.752 219.913 158.079 219.344C158.415 218.765 158.877 218.317 159.465 218C160.053 217.673 160.715 217.51 161.453 217.51C162.19 217.51 162.848 217.673 163.427 218C164.015 218.317 164.472 218.765 164.799 219.344C165.135 219.913 165.303 220.562 165.303 221.29C165.303 222.018 165.135 222.671 164.799 223.25C164.472 223.819 164.015 224.267 163.427 224.594C162.848 224.921 162.19 225.084 161.453 225.084ZM161.453 223.908C161.929 223.908 162.353 223.801 162.727 223.586C163.109 223.362 163.408 223.054 163.623 222.662C163.837 222.261 163.945 221.803 163.945 221.29C163.945 220.777 163.837 220.324 163.623 219.932C163.408 219.531 163.109 219.223 162.727 219.008C162.353 218.793 161.929 218.686 161.453 218.686C160.977 218.686 160.547 218.793 160.165 219.008C159.791 219.223 159.493 219.531 159.269 219.932C159.054 220.324 158.947 220.777 158.947 221.29C158.947 221.803 159.054 222.261 159.269 222.662C159.493 223.054 159.791 223.362 160.165 223.586C160.547 223.801 160.977 223.908 161.453 223.908ZM167.243 217.58H168.587V222.984L173.137 217.58H174.355V225H173.011V219.596L168.475 225H167.243V217.58ZM170.715 216.614C170.025 216.614 169.488 216.451 169.105 216.124C168.723 215.788 168.527 215.307 168.517 214.682H169.427C169.437 215.027 169.553 215.307 169.777 215.522C170.011 215.727 170.319 215.83 170.701 215.83C171.084 215.83 171.392 215.727 171.625 215.522C171.859 215.307 171.98 215.027 171.989 214.682H172.927C172.918 215.307 172.717 215.788 172.325 216.124C171.933 216.451 171.397 216.614 170.715 216.614ZM176.964 217.58H178.308V220.73H182.536V217.58H183.88V225H182.536V221.892H178.308V225H176.964V217.58ZM192.023 218.756H189.307V225H187.963V218.756H185.247V217.58H192.023V218.756ZM209.519 219.638C209.043 219.638 208.614 219.54 208.231 219.344C207.858 219.148 207.564 218.877 207.349 218.532C207.135 218.187 207.027 217.799 207.027 217.37C207.027 216.941 207.135 216.553 207.349 216.208C207.564 215.863 207.858 215.597 208.231 215.41C208.614 215.214 209.043 215.116 209.519 215.116C209.995 215.116 210.42 215.214 210.793 215.41C211.176 215.597 211.47 215.863 211.675 216.208C211.89 216.553 211.997 216.941 211.997 217.37C211.997 217.799 211.89 218.187 211.675 218.532C211.47 218.877 211.176 219.148 210.793 219.344C210.42 219.54 209.995 219.638 209.519 219.638ZM204.353 215.2H205.753V225H204.605L198.725 217.692V225H197.325V215.2H198.473L204.353 222.508V215.2ZM209.519 215.914C209.053 215.914 208.675 216.049 208.385 216.32C208.105 216.591 207.965 216.941 207.965 217.37C207.965 217.799 208.11 218.149 208.399 218.42C208.689 218.691 209.062 218.826 209.519 218.826C209.977 218.826 210.345 218.691 210.625 218.42C210.915 218.149 211.059 217.799 211.059 217.37C211.059 216.941 210.915 216.591 210.625 216.32C210.345 216.049 209.977 215.914 209.519 215.914ZM207.307 220.744H211.731V221.654H207.307V220.744ZM224.033 223.782V225H216.991V224.048L220.981 220.198C221.466 219.731 221.793 219.33 221.961 218.994C222.129 218.649 222.213 218.303 222.213 217.958C222.213 217.445 222.031 217.048 221.667 216.768C221.312 216.479 220.799 216.334 220.127 216.334C219.044 216.334 218.209 216.689 217.621 217.398L216.669 216.572C217.051 216.105 217.551 215.741 218.167 215.48C218.792 215.219 219.487 215.088 220.253 215.088C221.279 215.088 222.096 215.335 222.703 215.83C223.309 216.315 223.613 216.978 223.613 217.818C223.613 218.341 223.501 218.835 223.277 219.302C223.053 219.769 222.628 220.301 222.003 220.898L219.007 223.782H224.033Z" fill="white"/>
<circle cx="84" cy="220" r="6.5" stroke="#FF8686" stroke-width="5"/>
<path d="M5.562 300.4V313H2.646V302.74H0.126V300.4H5.562ZM13.6368 305.53C14.7408 305.71 15.5868 306.124 16.1748 306.772C16.7628 307.408 17.0568 308.2 17.0568 309.148C17.0568 309.88 16.8648 310.558 16.4808 311.182C16.0968 311.794 15.5088 312.286 14.7168 312.658C13.9368 313.03 12.9768 313.216 11.8368 313.216C10.9488 313.216 10.0728 313.102 9.20883 312.874C8.35683 312.634 7.63083 312.298 7.03083 311.866L8.16483 309.634C8.64483 309.994 9.19683 310.276 9.82083 310.48C10.4568 310.672 11.1048 310.768 11.7648 310.768C12.4968 310.768 13.0728 310.63 13.4928 310.354C13.9128 310.066 14.1228 309.664 14.1228 309.148C14.1228 308.116 13.3368 307.6 11.7648 307.6H10.4328V305.674L13.0248 302.74H7.66083V300.4H16.4808V302.29L13.6368 305.53ZM20.0592 306.682C19.5672 306.682 19.1532 306.514 18.8172 306.178C18.4812 305.842 18.3132 305.422 18.3132 304.918C18.3132 304.402 18.4812 303.988 18.8172 303.676C19.1532 303.352 19.5672 303.19 20.0592 303.19C20.5512 303.19 20.9652 303.352 21.3012 303.676C21.6372 303.988 21.8052 304.402 21.8052 304.918C21.8052 305.422 21.6372 305.842 21.3012 306.178C20.9652 306.514 20.5512 306.682 20.0592 306.682ZM20.0592 313.144C19.5672 313.144 19.1532 312.976 18.8172 312.64C18.4812 312.304 18.3132 311.884 18.3132 311.38C18.3132 310.864 18.4812 310.45 18.8172 310.138C19.1532 309.814 19.5672 309.652 20.0592 309.652C20.5512 309.652 20.9652 309.814 21.3012 310.138C21.6372 310.45 21.8052 310.864 21.8052 311.38C21.8052 311.884 21.6372 312.304 21.3012 312.64C20.9652 312.976 20.5512 313.144 20.0592 313.144ZM28.5141 313.216C27.4701 313.216 26.5401 312.958 25.7241 312.442C24.9081 311.926 24.2661 311.182 23.7981 310.21C23.3421 309.226 23.1141 308.056 23.1141 306.7C23.1141 305.344 23.3421 304.18 23.7981 303.208C24.2661 302.224 24.9081 301.474 25.7241 300.958C26.5401 300.442 27.4701 300.184 28.5141 300.184C29.5581 300.184 30.4881 300.442 31.3041 300.958C32.1201 301.474 32.7561 302.224 33.2121 303.208C33.6801 304.18 33.9141 305.344 33.9141 306.7C33.9141 308.056 33.6801 309.226 33.2121 310.21C32.7561 311.182 32.1201 311.926 31.3041 312.442C30.4881 312.958 29.5581 313.216 28.5141 313.216ZM28.5141 310.75C29.2821 310.75 29.8821 310.42 30.3141 309.76C30.7581 309.1 30.9801 308.08 30.9801 306.7C30.9801 305.32 30.7581 304.3 30.3141 303.64C29.8821 302.98 29.2821 302.65 28.5141 302.65C27.7581 302.65 27.1581 302.98 26.7141 303.64C26.2821 304.3 26.0661 305.32 26.0661 306.7C26.0661 308.08 26.2821 309.1 26.7141 309.76C27.1581 310.42 27.7581 310.75 28.5141 310.75ZM40.7309 313.216C39.6869 313.216 38.7569 312.958 37.9409 312.442C37.1249 311.926 36.4829 311.182 36.0149 310.21C35.5589 309.226 35.3309 308.056 35.3309 306.7C35.3309 305.344 35.5589 304.18 36.0149 303.208C36.4829 302.224 37.1249 301.474 37.9409 300.958C38.7569 300.442 39.6869 300.184 40.7309 300.184C41.7749 300.184 42.7049 300.442 43.5209 300.958C44.3369 301.474 44.9729 302.224 45.4289 303.208C45.8969 304.18 46.1309 305.344 46.1309 306.7C46.1309 308.056 45.8969 309.226 45.4289 310.21C44.9729 311.182 44.3369 311.926 43.5209 312.442C42.7049 312.958 41.7749 313.216 40.7309 313.216ZM40.7309 310.75C41.4989 310.75 42.0989 310.42 42.5309 309.76C42.9749 309.1 43.1969 308.08 43.1969 306.7C43.1969 305.32 42.9749 304.3 42.5309 303.64C42.0989 302.98 41.4989 302.65 40.7309 302.65C39.9749 302.65 39.3749 302.98 38.9309 303.64C38.4989 304.3 38.2829 305.32 38.2829 306.7C38.2829 308.08 38.4989 309.1 38.9309 309.76C39.3749 310.42 39.9749 310.75 40.7309 310.75Z" fill="#FF8686"/>
<path d="M120.936 311.112C119.947 311.112 119.055 310.897 118.262 310.468C117.469 310.029 116.843 309.427 116.386 308.662C115.938 307.897 115.714 307.043 115.714 306.1C115.714 305.157 115.938 304.303 116.386 303.538C116.843 302.773 117.469 302.175 118.262 301.746C119.055 301.307 119.947 301.088 120.936 301.088C121.916 301.088 122.803 301.307 123.596 301.746C124.389 302.175 125.01 302.773 125.458 303.538C125.906 304.294 126.13 305.148 126.13 306.1C126.13 307.052 125.906 307.911 125.458 308.676C125.01 309.432 124.389 310.029 123.596 310.468C122.803 310.897 121.916 311.112 120.936 311.112ZM120.936 309.866C121.655 309.866 122.299 309.703 122.868 309.376C123.447 309.049 123.899 308.601 124.226 308.032C124.562 307.453 124.73 306.809 124.73 306.1C124.73 305.391 124.562 304.751 124.226 304.182C123.899 303.603 123.447 303.151 122.868 302.824C122.299 302.497 121.655 302.334 120.936 302.334C120.217 302.334 119.564 302.497 118.976 302.824C118.397 303.151 117.94 303.603 117.604 304.182C117.277 304.751 117.114 305.391 117.114 306.1C117.114 306.809 117.277 307.453 117.604 308.032C117.94 308.601 118.397 309.049 118.976 309.376C119.564 309.703 120.217 309.866 120.936 309.866ZM131.949 303.832C132.64 303.832 133.256 303.986 133.797 304.294C134.339 304.602 134.759 305.031 135.057 305.582C135.365 306.123 135.519 306.744 135.519 307.444C135.519 308.163 135.356 308.802 135.029 309.362C134.712 309.913 134.259 310.342 133.671 310.65C133.093 310.958 132.43 311.112 131.683 311.112C130.423 311.112 129.448 310.683 128.757 309.824C128.076 308.956 127.735 307.738 127.735 306.17C127.735 304.649 128.048 303.459 128.673 302.6C129.299 301.732 130.255 301.158 131.543 300.878L134.931 300.122L135.127 301.354L132.005 302.026C131.035 302.241 130.311 302.605 129.835 303.118C129.359 303.631 129.089 304.369 129.023 305.33C129.341 304.854 129.751 304.485 130.255 304.224C130.759 303.963 131.324 303.832 131.949 303.832ZM131.711 309.992C132.187 309.992 132.607 309.885 132.971 309.67C133.345 309.455 133.634 309.161 133.839 308.788C134.045 308.405 134.147 307.971 134.147 307.486C134.147 306.749 133.923 306.156 133.475 305.708C133.027 305.26 132.439 305.036 131.711 305.036C130.983 305.036 130.391 305.26 129.933 305.708C129.485 306.156 129.261 306.749 129.261 307.486C129.261 307.971 129.364 308.405 129.569 308.788C129.784 309.161 130.078 309.455 130.451 309.67C130.825 309.885 131.245 309.992 131.711 309.992ZM144.145 307.332C144.145 307.435 144.135 307.57 144.117 307.738H138.097C138.181 308.391 138.465 308.919 138.951 309.32C139.445 309.712 140.057 309.908 140.785 309.908C141.671 309.908 142.385 309.609 142.927 309.012L143.669 309.88C143.333 310.272 142.913 310.571 142.409 310.776C141.914 310.981 141.359 311.084 140.743 311.084C139.959 311.084 139.263 310.925 138.657 310.608C138.05 310.281 137.579 309.829 137.243 309.25C136.916 308.671 136.753 308.018 136.753 307.29C136.753 306.571 136.911 305.923 137.229 305.344C137.555 304.765 137.999 304.317 138.559 304C139.128 303.673 139.767 303.51 140.477 303.51C141.186 303.51 141.816 303.673 142.367 304C142.927 304.317 143.361 304.765 143.669 305.344C143.986 305.923 144.145 306.585 144.145 307.332ZM140.477 304.644C139.833 304.644 139.291 304.84 138.853 305.232C138.423 305.624 138.171 306.137 138.097 306.772H142.857C142.782 306.147 142.525 305.638 142.087 305.246C141.657 304.845 141.121 304.644 140.477 304.644ZM153.653 309.824V312.722H152.393V311H146.191V312.722H144.917V309.824H145.309C145.785 309.796 146.111 309.46 146.289 308.816C146.466 308.172 146.587 307.262 146.653 306.086L146.765 303.58H152.519V309.824H153.653ZM147.885 306.184C147.847 307.117 147.768 307.892 147.647 308.508C147.535 309.115 147.325 309.553 147.017 309.824H151.175V304.756H147.955L147.885 306.184Z" fill="white"/>
<circle cx="84" cy="306" r="6.5" stroke="#FF8686" stroke-width="5"/>
<path d="M5.562 478.4V491H2.646V480.74H0.126V478.4H5.562ZM12.1788 478.184C13.9428 478.184 15.3228 478.724 16.3188 479.804C17.3148 480.872 17.8128 482.414 17.8128 484.43C17.8128 485.858 17.5428 487.082 17.0028 488.102C16.4748 489.122 15.7248 489.896 14.7528 490.424C13.7808 490.952 12.6588 491.216 11.3868 491.216C10.7148 491.216 10.0728 491.144 9.46083 491C8.84883 490.844 8.32683 490.628 7.89483 490.352L8.97483 488.21C9.58683 488.63 10.3728 488.84 11.3328 488.84C12.4008 488.84 13.2468 488.528 13.8708 487.904C14.4948 487.268 14.8308 486.356 14.8788 485.168C14.1228 485.924 13.0788 486.302 11.7468 486.302C10.9428 486.302 10.2108 486.14 9.55083 485.816C8.89083 485.492 8.36883 485.036 7.98483 484.448C7.60083 483.848 7.40883 483.158 7.40883 482.378C7.40883 481.538 7.61883 480.8 8.03883 480.164C8.45883 479.528 9.02883 479.042 9.74883 478.706C10.4808 478.358 11.2908 478.184 12.1788 478.184ZM12.3948 484.124C13.0308 484.124 13.5468 483.95 13.9428 483.602C14.3508 483.242 14.5548 482.786 14.5548 482.234C14.5548 481.682 14.3568 481.232 13.9608 480.884C13.5768 480.536 13.0428 480.362 12.3588 480.362C11.7348 480.362 11.2248 480.53 10.8288 480.866C10.4448 481.202 10.2528 481.658 10.2528 482.234C10.2528 482.81 10.4448 483.272 10.8288 483.62C11.2248 483.956 11.7468 484.124 12.3948 484.124ZM20.8678 484.682C20.3758 484.682 19.9618 484.514 19.6258 484.178C19.2898 483.842 19.1218 483.422 19.1218 482.918C19.1218 482.402 19.2898 481.988 19.6258 481.676C19.9618 481.352 20.3758 481.19 20.8678 481.19C21.3598 481.19 21.7738 481.352 22.1098 481.676C22.4458 481.988 22.6138 482.402 22.6138 482.918C22.6138 483.422 22.4458 483.842 22.1098 484.178C21.7738 484.514 21.3598 484.682 20.8678 484.682ZM20.8678 491.144C20.3758 491.144 19.9618 490.976 19.6258 490.64C19.2898 490.304 19.1218 489.884 19.1218 489.38C19.1218 488.864 19.2898 488.45 19.6258 488.138C19.9618 487.814 20.3758 487.652 20.8678 487.652C21.3598 487.652 21.7738 487.814 22.1098 488.138C22.4458 488.45 22.6138 488.864 22.6138 489.38C22.6138 489.884 22.4458 490.304 22.1098 490.64C21.7738 490.976 21.3598 491.144 20.8678 491.144ZM29.3227 491.216C28.2787 491.216 27.3487 490.958 26.5327 490.442C25.7167 489.926 25.0747 489.182 24.6067 488.21C24.1507 487.226 23.9227 486.056 23.9227 484.7C23.9227 483.344 24.1507 482.18 24.6067 481.208C25.0747 480.224 25.7167 479.474 26.5327 478.958C27.3487 478.442 28.2787 478.184 29.3227 478.184C30.3667 478.184 31.2967 478.442 32.1127 478.958C32.9287 479.474 33.5647 480.224 34.0207 481.208C34.4887 482.18 34.7227 483.344 34.7227 484.7C34.7227 486.056 34.4887 487.226 34.0207 488.21C33.5647 489.182 32.9287 489.926 32.1127 490.442C31.2967 490.958 30.3667 491.216 29.3227 491.216ZM29.3227 488.75C30.0907 488.75 30.6907 488.42 31.1227 487.76C31.5667 487.1 31.7887 486.08 31.7887 484.7C31.7887 483.32 31.5667 482.3 31.1227 481.64C30.6907 480.98 30.0907 480.65 29.3227 480.65C28.5667 480.65 27.9667 480.98 27.5227 481.64C27.0907 482.3 26.8747 483.32 26.8747 484.7C26.8747 486.08 27.0907 487.1 27.5227 487.76C27.9667 488.42 28.5667 488.75 29.3227 488.75ZM41.5395 491.216C40.4955 491.216 39.5655 490.958 38.7495 490.442C37.9335 489.926 37.2915 489.182 36.8235 488.21C36.3675 487.226 36.1395 486.056 36.1395 484.7C36.1395 483.344 36.3675 482.18 36.8235 481.208C37.2915 480.224 37.9335 479.474 38.7495 478.958C39.5655 478.442 40.4955 478.184 41.5395 478.184C42.5835 478.184 43.5135 478.442 44.3295 478.958C45.1455 479.474 45.7815 480.224 46.2375 481.208C46.7055 482.18 46.9395 483.344 46.9395 484.7C46.9395 486.056 46.7055 487.226 46.2375 488.21C45.7815 489.182 45.1455 489.926 44.3295 490.442C43.5135 490.958 42.5835 491.216 41.5395 491.216ZM41.5395 488.75C42.3075 488.75 42.9075 488.42 43.3395 487.76C43.7835 487.1 44.0055 486.08 44.0055 484.7C44.0055 483.32 43.7835 482.3 43.3395 481.64C42.9075 480.98 42.3075 480.65 41.5395 480.65C40.7835 480.65 40.1835 480.98 39.7395 481.64C39.3075 482.3 39.0915 483.32 39.0915 484.7C39.0915 486.08 39.3075 487.1 39.7395 487.76C40.1835 488.42 40.7835 488.75 41.5395 488.75Z" fill="#FF8686"/>
<path d="M124.548 479.2L120.194 487.278C119.849 487.922 119.443 488.403 118.976 488.72C118.509 489.037 118.001 489.196 117.45 489.196C117.021 489.196 116.582 489.098 116.134 488.902L116.498 487.782C116.843 487.903 117.151 487.964 117.422 487.964C118.038 487.964 118.547 487.637 118.948 486.984L119.172 486.634L115.224 479.2H116.722L119.9 485.416L123.162 479.2H124.548ZM132.265 485.864H130.823V489H129.479V485.864H128.037L125.993 489H124.397L126.945 485.164L124.593 481.58H126.021L128.023 484.716H129.479V481.58H130.823V484.716H132.279L134.281 481.58H135.723L133.371 485.178L135.919 489H134.323L132.265 485.864ZM137.398 481.58H138.742V486.984L143.292 481.58H144.51V489H143.166V483.596L138.63 489H137.398V481.58ZM147.118 481.58H148.462V484.73H152.69V481.58H154.034V489H152.69V485.892H148.462V489H147.118V481.58Z" fill="white"/>
<circle cx="84" cy="485" r="6.5" stroke="#FF8686" stroke-width="5"/>
<path d="M10.116 578.624V581H0.594V579.11L5.454 574.52C5.97 574.028 6.318 573.608 6.498 573.26C6.678 572.9 6.768 572.546 6.768 572.198C6.768 571.694 6.594 571.31 6.246 571.046C5.91 570.77 5.412 570.632 4.752 570.632C4.2 570.632 3.702 570.74 3.258 570.956C2.814 571.16 2.442 571.472 2.142 571.892L0.018 570.524C0.51 569.792 1.188 569.222 2.052 568.814C2.916 568.394 3.906 568.184 5.022 568.184C5.958 568.184 6.774 568.34 7.47 568.652C8.178 568.952 8.724 569.384 9.108 569.948C9.504 570.5 9.702 571.154 9.702 571.91C9.702 572.594 9.558 573.236 9.27 573.836C8.982 574.436 8.424 575.12 7.596 575.888L4.698 578.624H10.116ZM16.684 581.216C15.64 581.216 14.71 580.958 13.894 580.442C13.078 579.926 12.436 579.182 11.968 578.21C11.512 577.226 11.284 576.056 11.284 574.7C11.284 573.344 11.512 572.18 11.968 571.208C12.436 570.224 13.078 569.474 13.894 568.958C14.71 568.442 15.64 568.184 16.684 568.184C17.728 568.184 18.658 568.442 19.474 568.958C20.29 569.474 20.926 570.224 21.382 571.208C21.85 572.18 22.084 573.344 22.084 574.7C22.084 576.056 21.85 577.226 21.382 578.21C20.926 579.182 20.29 579.926 19.474 580.442C18.658 580.958 17.728 581.216 16.684 581.216ZM16.684 578.75C17.452 578.75 18.052 578.42 18.484 577.76C18.928 577.1 19.15 576.08 19.15 574.7C19.15 573.32 18.928 572.3 18.484 571.64C18.052 570.98 17.452 570.65 16.684 570.65C15.928 570.65 15.328 570.98 14.884 571.64C14.452 572.3 14.236 573.32 14.236 574.7C14.236 576.08 14.452 577.1 14.884 577.76C15.328 578.42 15.928 578.75 16.684 578.75ZM25.1568 574.682C24.6648 574.682 24.2508 574.514 23.9148 574.178C23.5788 573.842 23.4108 573.422 23.4108 572.918C23.4108 572.402 23.5788 571.988 23.9148 571.676C24.2508 571.352 24.6648 571.19 25.1568 571.19C25.6488 571.19 26.0628 571.352 26.3988 571.676C26.7348 571.988 26.9028 572.402 26.9028 572.918C26.9028 573.422 26.7348 573.842 26.3988 574.178C26.0628 574.514 25.6488 574.682 25.1568 574.682ZM25.1568 581.144C24.6648 581.144 24.2508 580.976 23.9148 580.64C23.5788 580.304 23.4108 579.884 23.4108 579.38C23.4108 578.864 23.5788 578.45 23.9148 578.138C24.2508 577.814 24.6648 577.652 25.1568 577.652C25.6488 577.652 26.0628 577.814 26.3988 578.138C26.7348 578.45 26.9028 578.864 26.9028 579.38C26.9028 579.884 26.7348 580.304 26.3988 580.64C26.0628 580.976 25.6488 581.144 25.1568 581.144ZM33.6118 581.216C32.5678 581.216 31.6378 580.958 30.8218 580.442C30.0058 579.926 29.3638 579.182 28.8958 578.21C28.4398 577.226 28.2118 576.056 28.2118 574.7C28.2118 573.344 28.4398 572.18 28.8958 571.208C29.3638 570.224 30.0058 569.474 30.8218 568.958C31.6378 568.442 32.5678 568.184 33.6118 568.184C34.6558 568.184 35.5858 568.442 36.4018 568.958C37.2178 569.474 37.8538 570.224 38.3098 571.208C38.7778 572.18 39.0118 573.344 39.0118 574.7C39.0118 576.056 38.7778 577.226 38.3098 578.21C37.8538 579.182 37.2178 579.926 36.4018 580.442C35.5858 580.958 34.6558 581.216 33.6118 581.216ZM33.6118 578.75C34.3798 578.75 34.9798 578.42 35.4118 577.76C35.8558 577.1 36.0778 576.08 36.0778 574.7C36.0778 573.32 35.8558 572.3 35.4118 571.64C34.9798 570.98 34.3798 570.65 33.6118 570.65C32.8558 570.65 32.2558 570.98 31.8118 571.64C31.3798 572.3 31.1638 573.32 31.1638 574.7C31.1638 576.08 31.3798 577.1 31.8118 577.76C32.2558 578.42 32.8558 578.75 33.6118 578.75ZM45.8286 581.216C44.7846 581.216 43.8546 580.958 43.0386 580.442C42.2226 579.926 41.5806 579.182 41.1126 578.21C40.6566 577.226 40.4286 576.056 40.4286 574.7C40.4286 573.344 40.6566 572.18 41.1126 571.208C41.5806 570.224 42.2226 569.474 43.0386 568.958C43.8546 568.442 44.7846 568.184 45.8286 568.184C46.8726 568.184 47.8026 568.442 48.6186 568.958C49.4346 569.474 50.0706 570.224 50.5266 571.208C50.9946 572.18 51.2286 573.344 51.2286 574.7C51.2286 576.056 50.9946 577.226 50.5266 578.21C50.0706 579.182 49.4346 579.926 48.6186 580.442C47.8026 580.958 46.8726 581.216 45.8286 581.216ZM45.8286 578.75C46.5966 578.75 47.1966 578.42 47.6286 577.76C48.0726 577.1 48.2946 576.08 48.2946 574.7C48.2946 573.32 48.0726 572.3 47.6286 571.64C47.1966 570.98 46.5966 570.65 45.8286 570.65C45.0726 570.65 44.4726 570.98 44.0286 571.64C43.5966 572.3 43.3806 573.32 43.3806 574.7C43.3806 576.08 43.5966 577.1 44.0286 577.76C44.4726 578.42 45.0726 578.75 45.8286 578.75Z" fill="#FF8686"/>
<path d="M123.778 569.2V579H122.392V575.122C121.356 575.523 120.399 575.724 119.522 575.724C118.327 575.724 117.399 575.435 116.736 574.856C116.083 574.277 115.756 573.451 115.756 572.378V569.2H117.128V572.224C117.128 572.952 117.347 573.512 117.786 573.904C118.234 574.296 118.864 574.492 119.676 574.492C120.581 574.492 121.487 574.287 122.392 573.876V569.2H123.778ZM133.317 575.332C133.317 575.435 133.307 575.57 133.289 575.738H127.269C127.353 576.391 127.637 576.919 128.123 577.32C128.617 577.712 129.229 577.908 129.957 577.908C130.843 577.908 131.557 577.609 132.099 577.012L132.841 577.88C132.505 578.272 132.085 578.571 131.581 578.776C131.086 578.981 130.531 579.084 129.915 579.084C129.131 579.084 128.435 578.925 127.829 578.608C127.222 578.281 126.751 577.829 126.415 577.25C126.088 576.671 125.925 576.018 125.925 575.29C125.925 574.571 126.083 573.923 126.401 573.344C126.727 572.765 127.171 572.317 127.731 572C128.3 571.673 128.939 571.51 129.649 571.51C130.358 571.51 130.988 571.673 131.539 572C132.099 572.317 132.533 572.765 132.841 573.344C133.158 573.923 133.317 574.585 133.317 575.332ZM129.649 572.644C129.005 572.644 128.463 572.84 128.025 573.232C127.595 573.624 127.343 574.137 127.269 574.772H132.029C131.954 574.147 131.697 573.638 131.259 573.246C130.829 572.845 130.293 572.644 129.649 572.644ZM138.286 575.864H136.746V579H135.402V571.58H136.746V574.716H138.314L140.722 571.58H142.164L139.35 575.15L142.36 579H140.778L138.286 575.864ZM142.937 574.576H146.703V575.738H142.937V574.576ZM155.674 571.58V579H154.33V572.756H150.144V579H148.8V571.58H155.674ZM161.453 579.084C160.715 579.084 160.053 578.921 159.465 578.594C158.877 578.267 158.415 577.819 158.079 577.25C157.752 576.671 157.589 576.018 157.589 575.29C157.589 574.562 157.752 573.913 158.079 573.344C158.415 572.765 158.877 572.317 159.465 572C160.053 571.673 160.715 571.51 161.453 571.51C162.19 571.51 162.848 571.673 163.427 572C164.015 572.317 164.472 572.765 164.799 573.344C165.135 573.913 165.303 574.562 165.303 575.29C165.303 576.018 165.135 576.671 164.799 577.25C164.472 577.819 164.015 578.267 163.427 578.594C162.848 578.921 162.19 579.084 161.453 579.084ZM161.453 577.908C161.929 577.908 162.353 577.801 162.727 577.586C163.109 577.362 163.408 577.054 163.623 576.662C163.837 576.261 163.945 575.803 163.945 575.29C163.945 574.777 163.837 574.324 163.623 573.932C163.408 573.531 163.109 573.223 162.727 573.008C162.353 572.793 161.929 572.686 161.453 572.686C160.977 572.686 160.547 572.793 160.165 573.008C159.791 573.223 159.493 573.531 159.269 573.932C159.054 574.324 158.947 574.777 158.947 575.29C158.947 575.803 159.054 576.261 159.269 576.662C159.493 577.054 159.791 577.362 160.165 577.586C160.547 577.801 160.977 577.908 161.453 577.908ZM167.243 571.58H168.587V576.984L173.137 571.58H174.355V579H173.011V573.596L168.475 579H167.243V571.58ZM170.715 570.614C170.025 570.614 169.488 570.451 169.105 570.124C168.723 569.788 168.527 569.307 168.517 568.682H169.427C169.437 569.027 169.553 569.307 169.777 569.522C170.011 569.727 170.319 569.83 170.701 569.83C171.084 569.83 171.392 569.727 171.625 569.522C171.859 569.307 171.98 569.027 171.989 568.682H172.927C172.918 569.307 172.717 569.788 172.325 570.124C171.933 570.451 171.397 570.614 170.715 570.614ZM176.964 571.58H178.308V574.73H182.536V571.58H183.88V579H182.536V575.892H178.308V579H176.964V571.58ZM192.023 572.756H189.307V579H187.963V572.756H185.247V571.58H192.023V572.756ZM209.519 573.638C209.043 573.638 208.614 573.54 208.231 573.344C207.858 573.148 207.564 572.877 207.349 572.532C207.135 572.187 207.027 571.799 207.027 571.37C207.027 570.941 207.135 570.553 207.349 570.208C207.564 569.863 207.858 569.597 208.231 569.41C208.614 569.214 209.043 569.116 209.519 569.116C209.995 569.116 210.42 569.214 210.793 569.41C211.176 569.597 211.47 569.863 211.675 570.208C211.89 570.553 211.997 570.941 211.997 571.37C211.997 571.799 211.89 572.187 211.675 572.532C211.47 572.877 211.176 573.148 210.793 573.344C210.42 573.54 209.995 573.638 209.519 573.638ZM204.353 569.2H205.753V579H204.605L198.725 571.692V579H197.325V569.2H198.473L204.353 576.508V569.2ZM209.519 569.914C209.053 569.914 208.675 570.049 208.385 570.32C208.105 570.591 207.965 570.941 207.965 571.37C207.965 571.799 208.11 572.149 208.399 572.42C208.689 572.691 209.062 572.826 209.519 572.826C209.977 572.826 210.345 572.691 210.625 572.42C210.915 572.149 211.059 571.799 211.059 571.37C211.059 570.941 210.915 570.591 210.625 570.32C210.345 570.049 209.977 569.914 209.519 569.914ZM207.307 574.744H211.731V575.654H207.307V574.744ZM220.897 573.316C221.858 573.409 222.591 573.708 223.095 574.212C223.599 574.707 223.851 575.341 223.851 576.116C223.851 576.676 223.711 577.185 223.431 577.642C223.151 578.09 222.731 578.449 222.171 578.72C221.62 578.981 220.943 579.112 220.141 579.112C219.441 579.112 218.769 579.009 218.125 578.804C217.481 578.589 216.953 578.295 216.543 577.922L217.187 576.816C217.523 577.133 217.952 577.39 218.475 577.586C218.997 577.773 219.553 577.866 220.141 577.866C220.869 577.866 221.433 577.712 221.835 577.404C222.245 577.096 222.451 576.671 222.451 576.13C222.451 575.589 222.25 575.169 221.849 574.87C221.447 574.571 220.841 574.422 220.029 574.422H219.245V573.442L221.709 570.418H216.991V569.2H223.459V570.152L220.897 573.316Z" fill="white"/>
<circle cx="84" cy="575" r="6.5" stroke="#FF8686" stroke-width="5"/>
<path d="M10.116 664.624V667H0.594V665.11L5.454 660.52C5.97 660.028 6.318 659.608 6.498 659.26C6.678 658.9 6.768 658.546 6.768 658.198C6.768 657.694 6.594 657.31 6.246 657.046C5.91 656.77 5.412 656.632 4.752 656.632C4.2 656.632 3.702 656.74 3.258 656.956C2.814 657.16 2.442 657.472 2.142 657.892L0.018 656.524C0.51 655.792 1.188 655.222 2.052 654.814C2.916 654.394 3.906 654.184 5.022 654.184C5.958 654.184 6.774 654.34 7.47 654.652C8.178 654.952 8.724 655.384 9.108 655.948C9.504 656.5 9.702 657.154 9.702 657.91C9.702 658.594 9.558 659.236 9.27 659.836C8.982 660.436 8.424 661.12 7.596 661.888L4.698 664.624H10.116ZM20.7332 664.624V667H11.2112V665.11L16.0712 660.52C16.5872 660.028 16.9352 659.608 17.1152 659.26C17.2952 658.9 17.3852 658.546 17.3852 658.198C17.3852 657.694 17.2112 657.31 16.8632 657.046C16.5272 656.77 16.0292 656.632 15.3692 656.632C14.8172 656.632 14.3192 656.74 13.8752 656.956C13.4312 657.16 13.0592 657.472 12.7592 657.892L10.6352 656.524C11.1272 655.792 11.8052 655.222 12.6692 654.814C13.5332 654.394 14.5232 654.184 15.6392 654.184C16.5752 654.184 17.3912 654.34 18.0872 654.652C18.7952 654.952 19.3412 655.384 19.7252 655.948C20.1212 656.5 20.3192 657.154 20.3192 657.91C20.3192 658.594 20.1752 659.236 19.8872 659.836C19.5992 660.436 19.0412 661.12 18.2132 661.888L15.3152 664.624H20.7332ZM23.5924 660.682C23.1004 660.682 22.6864 660.514 22.3504 660.178C22.0144 659.842 21.8464 659.422 21.8464 658.918C21.8464 658.402 22.0144 657.988 22.3504 657.676C22.6864 657.352 23.1004 657.19 23.5924 657.19C24.0844 657.19 24.4984 657.352 24.8344 657.676C25.1704 657.988 25.3384 658.402 25.3384 658.918C25.3384 659.422 25.1704 659.842 24.8344 660.178C24.4984 660.514 24.0844 660.682 23.5924 660.682ZM23.5924 667.144C23.1004 667.144 22.6864 666.976 22.3504 666.64C22.0144 666.304 21.8464 665.884 21.8464 665.38C21.8464 664.864 22.0144 664.45 22.3504 664.138C22.6864 663.814 23.1004 663.652 23.5924 663.652C24.0844 663.652 24.4984 663.814 24.8344 664.138C25.1704 664.45 25.3384 664.864 25.3384 665.38C25.3384 665.884 25.1704 666.304 24.8344 666.64C24.4984 666.976 24.0844 667.144 23.5924 667.144ZM32.0473 667.216C31.0033 667.216 30.0733 666.958 29.2573 666.442C28.4413 665.926 27.7993 665.182 27.3313 664.21C26.8753 663.226 26.6473 662.056 26.6473 660.7C26.6473 659.344 26.8753 658.18 27.3313 657.208C27.7993 656.224 28.4413 655.474 29.2573 654.958C30.0733 654.442 31.0033 654.184 32.0473 654.184C33.0913 654.184 34.0213 654.442 34.8373 654.958C35.6533 655.474 36.2893 656.224 36.7453 657.208C37.2133 658.18 37.4473 659.344 37.4473 660.7C37.4473 662.056 37.2133 663.226 36.7453 664.21C36.2893 665.182 35.6533 665.926 34.8373 666.442C34.0213 666.958 33.0913 667.216 32.0473 667.216ZM32.0473 664.75C32.8153 664.75 33.4153 664.42 33.8473 663.76C34.2913 663.1 34.5133 662.08 34.5133 660.7C34.5133 659.32 34.2913 658.3 33.8473 657.64C33.4153 656.98 32.8153 656.65 32.0473 656.65C31.2913 656.65 30.6913 656.98 30.2473 657.64C29.8153 658.3 29.5993 659.32 29.5993 660.7C29.5993 662.08 29.8153 663.1 30.2473 663.76C30.6913 664.42 31.2913 664.75 32.0473 664.75ZM44.2641 667.216C43.2201 667.216 42.2901 666.958 41.4741 666.442C40.6581 665.926 40.0161 665.182 39.5481 664.21C39.0921 663.226 38.8641 662.056 38.8641 660.7C38.8641 659.344 39.0921 658.18 39.5481 657.208C40.0161 656.224 40.6581 655.474 41.4741 654.958C42.2901 654.442 43.2201 654.184 44.2641 654.184C45.3081 654.184 46.2381 654.442 47.0541 654.958C47.8701 655.474 48.5061 656.224 48.9621 657.208C49.4301 658.18 49.6641 659.344 49.6641 660.7C49.6641 662.056 49.4301 663.226 48.9621 664.21C48.5061 665.182 47.8701 665.926 47.0541 666.442C46.2381 666.958 45.3081 667.216 44.2641 667.216ZM44.2641 664.75C45.0321 664.75 45.6321 664.42 46.0641 663.76C46.5081 663.1 46.7301 662.08 46.7301 660.7C46.7301 659.32 46.5081 658.3 46.0641 657.64C45.6321 656.98 45.0321 656.65 44.2641 656.65C43.5081 656.65 42.9081 656.98 42.4641 657.64C42.0321 658.3 41.8161 659.32 41.8161 660.7C41.8161 662.08 42.0321 663.1 42.4641 663.76C42.9081 664.42 43.5081 664.75 44.2641 664.75ZM51.3852 660.808H56.4792V663.058H51.3852V660.808ZM6.102 694.216C5.058 694.216 4.128 693.958 3.312 693.442C2.496 692.926 1.854 692.182 1.386 691.21C0.93 690.226 0.702 689.056 0.702 687.7C0.702 686.344 0.93 685.18 1.386 684.208C1.854 683.224 2.496 682.474 3.312 681.958C4.128 681.442 5.058 681.184 6.102 681.184C7.146 681.184 8.076 681.442 8.892 681.958C9.708 682.474 10.344 683.224 10.8 684.208C11.268 685.18 11.502 686.344 11.502 687.7C11.502 689.056 11.268 690.226 10.8 691.21C10.344 692.182 9.708 692.926 8.892 693.442C8.076 693.958 7.146 694.216 6.102 694.216ZM6.102 691.75C6.87 691.75 7.47 691.42 7.902 690.76C8.346 690.1 8.568 689.08 8.568 687.7C8.568 686.32 8.346 685.3 7.902 684.64C7.47 683.98 6.87 683.65 6.102 683.65C5.346 683.65 4.746 683.98 4.302 684.64C3.87 685.3 3.654 686.32 3.654 687.7C3.654 689.08 3.87 690.1 4.302 690.76C4.746 691.42 5.346 691.75 6.102 691.75ZM18.3188 694.216C17.2748 694.216 16.3448 693.958 15.5288 693.442C14.7128 692.926 14.0708 692.182 13.6028 691.21C13.1468 690.226 12.9188 689.056 12.9188 687.7C12.9188 686.344 13.1468 685.18 13.6028 684.208C14.0708 683.224 14.7128 682.474 15.5288 681.958C16.3448 681.442 17.2748 681.184 18.3188 681.184C19.3628 681.184 20.2928 681.442 21.1088 681.958C21.9248 682.474 22.5608 683.224 23.0168 684.208C23.4848 685.18 23.7188 686.344 23.7188 687.7C23.7188 689.056 23.4848 690.226 23.0168 691.21C22.5608 692.182 21.9248 692.926 21.1088 693.442C20.2928 693.958 19.3628 694.216 18.3188 694.216ZM18.3188 691.75C19.0868 691.75 19.6868 691.42 20.1188 690.76C20.5628 690.1 20.7848 689.08 20.7848 687.7C20.7848 686.32 20.5628 685.3 20.1188 684.64C19.6868 683.98 19.0868 683.65 18.3188 683.65C17.5628 683.65 16.9628 683.98 16.5188 684.64C16.0868 685.3 15.8708 686.32 15.8708 687.7C15.8708 689.08 16.0868 690.1 16.5188 690.76C16.9628 691.42 17.5628 691.75 18.3188 691.75ZM26.7916 687.682C26.2996 687.682 25.8856 687.514 25.5496 687.178C25.2136 686.842 25.0456 686.422 25.0456 685.918C25.0456 685.402 25.2136 684.988 25.5496 684.676C25.8856 684.352 26.2996 684.19 26.7916 684.19C27.2836 684.19 27.6976 684.352 28.0336 684.676C28.3696 684.988 28.5376 685.402 28.5376 685.918C28.5376 686.422 28.3696 686.842 28.0336 687.178C27.6976 687.514 27.2836 687.682 26.7916 687.682ZM26.7916 694.144C26.2996 694.144 25.8856 693.976 25.5496 693.64C25.2136 693.304 25.0456 692.884 25.0456 692.38C25.0456 691.864 25.2136 691.45 25.5496 691.138C25.8856 690.814 26.2996 690.652 26.7916 690.652C27.2836 690.652 27.6976 690.814 28.0336 691.138C28.3696 691.45 28.5376 691.864 28.5376 692.38C28.5376 692.884 28.3696 693.304 28.0336 693.64C27.6976 693.976 27.2836 694.144 26.7916 694.144ZM35.2465 694.216C34.2025 694.216 33.2725 693.958 32.4565 693.442C31.6405 692.926 30.9985 692.182 30.5305 691.21C30.0745 690.226 29.8465 689.056 29.8465 687.7C29.8465 686.344 30.0745 685.18 30.5305 684.208C30.9985 683.224 31.6405 682.474 32.4565 681.958C33.2725 681.442 34.2025 681.184 35.2465 681.184C36.2905 681.184 37.2205 681.442 38.0365 681.958C38.8525 682.474 39.4885 683.224 39.9445 684.208C40.4125 685.18 40.6465 686.344 40.6465 687.7C40.6465 689.056 40.4125 690.226 39.9445 691.21C39.4885 692.182 38.8525 692.926 38.0365 693.442C37.2205 693.958 36.2905 694.216 35.2465 694.216ZM35.2465 691.75C36.0145 691.75 36.6145 691.42 37.0465 690.76C37.4905 690.1 37.7125 689.08 37.7125 687.7C37.7125 686.32 37.4905 685.3 37.0465 684.64C36.6145 683.98 36.0145 683.65 35.2465 683.65C34.4905 683.65 33.8905 683.98 33.4465 684.64C33.0145 685.3 32.7985 686.32 32.7985 687.7C32.7985 689.08 33.0145 690.1 33.4465 690.76C33.8905 691.42 34.4905 691.75 35.2465 691.75ZM47.4633 694.216C46.4193 694.216 45.4893 693.958 44.6733 693.442C43.8573 692.926 43.2153 692.182 42.7473 691.21C42.2913 690.226 42.0633 689.056 42.0633 687.7C42.0633 686.344 42.2913 685.18 42.7473 684.208C43.2153 683.224 43.8573 682.474 44.6733 681.958C45.4893 681.442 46.4193 681.184 47.4633 681.184C48.5073 681.184 49.4373 681.442 50.2533 681.958C51.0693 682.474 51.7053 683.224 52.1613 684.208C52.6293 685.18 52.8633 686.344 52.8633 687.7C52.8633 689.056 52.6293 690.226 52.1613 691.21C51.7053 692.182 51.0693 692.926 50.2533 693.442C49.4373 693.958 48.5073 694.216 47.4633 694.216ZM47.4633 691.75C48.2313 691.75 48.8313 691.42 49.2633 690.76C49.7073 690.1 49.9293 689.08 49.9293 687.7C49.9293 686.32 49.7073 685.3 49.2633 684.64C48.8313 683.98 48.2313 683.65 47.4633 683.65C46.7073 683.65 46.1073 683.98 45.6633 684.64C45.2313 685.3 45.0153 686.32 45.0153 687.7C45.0153 689.08 45.2313 690.1 45.6633 690.76C46.1073 691.42 46.7073 691.75 47.4633 691.75Z" fill="#FF8686"/>
<path d="M120.348 655.2C121.617 655.2 122.616 655.503 123.344 656.11C124.072 656.717 124.436 657.552 124.436 658.616C124.436 659.68 124.072 660.515 123.344 661.122C122.616 661.729 121.617 662.032 120.348 662.032H117.926V665H116.526V655.2H120.348ZM120.306 660.814C121.193 660.814 121.869 660.627 122.336 660.254C122.803 659.871 123.036 659.325 123.036 658.616C123.036 657.907 122.803 657.365 122.336 656.992C121.869 656.609 121.193 656.418 120.306 656.418H117.926V660.814H120.306ZM128.737 657.51C129.764 657.51 130.548 657.762 131.089 658.266C131.64 658.77 131.915 659.521 131.915 660.52V665H130.641V664.02C130.417 664.365 130.095 664.631 129.675 664.818C129.264 664.995 128.774 665.084 128.205 665.084C127.374 665.084 126.707 664.883 126.203 664.482C125.708 664.081 125.461 663.553 125.461 662.9C125.461 662.247 125.699 661.724 126.175 661.332C126.651 660.931 127.407 660.73 128.443 660.73H130.571V660.464C130.571 659.885 130.403 659.442 130.067 659.134C129.731 658.826 129.236 658.672 128.583 658.672C128.144 658.672 127.715 658.747 127.295 658.896C126.875 659.036 126.52 659.227 126.231 659.47L125.671 658.462C126.054 658.154 126.511 657.921 127.043 657.762C127.575 657.594 128.14 657.51 128.737 657.51ZM128.429 664.048C128.942 664.048 129.386 663.936 129.759 663.712C130.132 663.479 130.403 663.152 130.571 662.732V661.696H128.499C127.36 661.696 126.791 662.079 126.791 662.844C126.791 663.217 126.936 663.511 127.225 663.726C127.514 663.941 127.916 664.048 128.429 664.048ZM138.23 661.136C138.725 661.267 139.107 661.477 139.378 661.766C139.649 662.055 139.784 662.415 139.784 662.844C139.784 663.283 139.635 663.675 139.336 664.02C139.037 664.356 138.622 664.622 138.09 664.818C137.567 665.005 136.979 665.098 136.326 665.098C135.775 665.098 135.234 665.028 134.702 664.888C134.179 664.739 133.713 664.529 133.302 664.258L133.708 663.236C134.063 663.46 134.469 663.637 134.926 663.768C135.383 663.889 135.845 663.95 136.312 663.95C136.947 663.95 137.451 663.843 137.824 663.628C138.207 663.404 138.398 663.105 138.398 662.732C138.398 662.387 138.244 662.121 137.936 661.934C137.637 661.747 137.213 661.654 136.662 661.654H135.304V660.688H136.564C137.068 660.688 137.465 660.599 137.754 660.422C138.043 660.245 138.188 660.002 138.188 659.694C138.188 659.358 138.015 659.097 137.67 658.91C137.334 658.723 136.877 658.63 136.298 658.63C135.561 658.63 134.781 658.821 133.96 659.204L133.596 658.168C134.501 657.711 135.449 657.482 136.438 657.482C137.035 657.482 137.572 657.566 138.048 657.734C138.524 657.902 138.897 658.14 139.168 658.448C139.439 658.756 139.574 659.106 139.574 659.498C139.574 659.862 139.453 660.189 139.21 660.478C138.967 660.767 138.641 660.987 138.23 661.136ZM146.881 661.15C147.843 661.393 148.323 661.995 148.323 662.956C148.323 663.609 148.076 664.113 147.581 664.468C147.096 664.823 146.368 665 145.397 665H141.827V657.58H145.271C146.149 657.58 146.835 657.748 147.329 658.084C147.824 658.411 148.071 658.877 148.071 659.484C148.071 659.876 147.964 660.217 147.749 660.506C147.544 660.786 147.255 661.001 146.881 661.15ZM143.143 660.772H145.159C145.673 660.772 146.06 660.679 146.321 660.492C146.592 660.305 146.727 660.035 146.727 659.68C146.727 658.971 146.205 658.616 145.159 658.616H143.143V660.772ZM145.299 663.964C145.859 663.964 146.279 663.875 146.559 663.698C146.839 663.521 146.979 663.245 146.979 662.872C146.979 662.489 146.849 662.205 146.587 662.018C146.335 661.831 145.934 661.738 145.383 661.738H143.143V663.964H145.299ZM156.797 657.58V665H155.453V658.756H152.261L152.177 660.408C152.13 661.407 152.042 662.242 151.911 662.914C151.78 663.577 151.566 664.109 151.267 664.51C150.968 664.911 150.553 665.112 150.021 665.112C149.778 665.112 149.503 665.07 149.195 664.986L149.279 663.852C149.4 663.88 149.512 663.894 149.615 663.894C149.988 663.894 150.268 663.731 150.455 663.404C150.642 663.077 150.763 662.69 150.819 662.242C150.875 661.794 150.926 661.155 150.973 660.324L151.099 657.58H156.797ZM166.102 661.332C166.102 661.435 166.092 661.57 166.074 661.738H160.054C160.138 662.391 160.422 662.919 160.908 663.32C161.402 663.712 162.014 663.908 162.742 663.908C163.628 663.908 164.342 663.609 164.884 663.012L165.626 663.88C165.29 664.272 164.87 664.571 164.366 664.776C163.871 664.981 163.316 665.084 162.7 665.084C161.916 665.084 161.22 664.925 160.614 664.608C160.007 664.281 159.536 663.829 159.2 663.25C158.873 662.671 158.71 662.018 158.71 661.29C158.71 660.571 158.868 659.923 159.186 659.344C159.512 658.765 159.956 658.317 160.516 658C161.085 657.673 161.724 657.51 162.434 657.51C163.143 657.51 163.773 657.673 164.324 658C164.884 658.317 165.318 658.765 165.626 659.344C165.943 659.923 166.102 660.585 166.102 661.332ZM162.434 658.644C161.79 658.644 161.248 658.84 160.81 659.232C160.38 659.624 160.128 660.137 160.054 660.772H164.814C164.739 660.147 164.482 659.638 164.044 659.246C163.614 658.845 163.078 658.644 162.434 658.644ZM171.071 661.864H169.531V665H168.187V657.58H169.531V660.716H171.099L173.507 657.58H174.949L172.135 661.15L175.145 665H173.563L171.071 661.864ZM179.063 657.51C180.09 657.51 180.874 657.762 181.415 658.266C181.966 658.77 182.241 659.521 182.241 660.52V665H180.967V664.02C180.743 664.365 180.421 664.631 180.001 664.818C179.591 664.995 179.101 665.084 178.531 665.084C177.701 665.084 177.033 664.883 176.529 664.482C176.035 664.081 175.787 663.553 175.787 662.9C175.787 662.247 176.025 661.724 176.501 661.332C176.977 660.931 177.733 660.73 178.769 660.73H180.897V660.464C180.897 659.885 180.729 659.442 180.393 659.134C180.057 658.826 179.563 658.672 178.909 658.672C178.471 658.672 178.041 658.747 177.621 658.896C177.201 659.036 176.847 659.227 176.557 659.47L175.997 658.462C176.38 658.154 176.837 657.921 177.369 657.762C177.901 657.594 178.466 657.51 179.063 657.51ZM178.755 664.048C179.269 664.048 179.712 663.936 180.085 663.712C180.459 663.479 180.729 663.152 180.897 662.732V661.696H178.825C177.687 661.696 177.117 662.079 177.117 662.844C177.117 663.217 177.262 663.511 177.551 663.726C177.841 663.941 178.242 664.048 178.755 664.048ZM190.191 658.756H187.475V665H186.131V658.756H183.415V657.58H190.191V658.756ZM197.944 661.332C197.944 661.435 197.934 661.57 197.916 661.738H191.896C191.98 662.391 192.264 662.919 192.75 663.32C193.244 663.712 193.856 663.908 194.584 663.908C195.47 663.908 196.184 663.609 196.726 663.012L197.468 663.88C197.132 664.272 196.712 664.571 196.208 664.776C195.713 664.981 195.158 665.084 194.542 665.084C193.758 665.084 193.062 664.925 192.456 664.608C191.849 664.281 191.378 663.829 191.042 663.25C190.715 662.671 190.552 662.018 190.552 661.29C190.552 660.571 190.71 659.923 191.028 659.344C191.354 658.765 191.798 658.317 192.358 658C192.927 657.673 193.566 657.51 194.276 657.51C194.985 657.51 195.615 657.673 196.166 658C196.726 658.317 197.16 658.765 197.468 659.344C197.785 659.923 197.944 660.585 197.944 661.332ZM194.276 658.644C193.632 658.644 193.09 658.84 192.652 659.232C192.222 659.624 191.97 660.137 191.896 660.772H196.656C196.581 660.147 196.324 659.638 195.886 659.246C195.456 658.845 194.92 658.644 194.276 658.644ZM206.276 657.58V665H204.932V658.756H201.74L201.656 660.408C201.609 661.407 201.52 662.242 201.39 662.914C201.259 663.577 201.044 664.109 200.746 664.51C200.447 664.911 200.032 665.112 199.5 665.112C199.257 665.112 198.982 665.07 198.674 664.986L198.758 663.852C198.879 663.88 198.991 663.894 199.094 663.894C199.467 663.894 199.747 663.731 199.934 663.404C200.12 663.077 200.242 662.69 200.298 662.242C200.354 661.794 200.405 661.155 200.452 660.324L200.578 657.58H206.276ZM212.304 660.1C213.247 660.109 213.966 660.324 214.46 660.744C214.955 661.164 215.202 661.757 215.202 662.522C215.202 663.325 214.932 663.945 214.39 664.384C213.858 664.813 213.093 665.023 212.094 665.014L208.874 665V657.58H210.218V660.086L212.304 660.1ZM211.982 663.992C212.589 664.001 213.046 663.88 213.354 663.628C213.672 663.376 213.83 663.003 213.83 662.508C213.83 662.023 213.676 661.668 213.368 661.444C213.07 661.22 212.608 661.103 211.982 661.094L210.218 661.066V663.978L211.982 663.992ZM216.927 657.58H218.271V660.73H222.499V657.58H223.843V665H222.499V661.892H218.271V665H216.927V657.58ZM229.102 657.51C230.129 657.51 230.913 657.762 231.454 658.266C232.005 658.77 232.28 659.521 232.28 660.52V665H231.006V664.02C230.782 664.365 230.46 664.631 230.04 664.818C229.63 664.995 229.14 665.084 228.57 665.084C227.74 665.084 227.072 664.883 226.568 664.482C226.074 664.081 225.826 663.553 225.826 662.9C225.826 662.247 226.064 661.724 226.54 661.332C227.016 660.931 227.772 660.73 228.808 660.73H230.936V660.464C230.936 659.885 230.768 659.442 230.432 659.134C230.096 658.826 229.602 658.672 228.948 658.672C228.51 658.672 228.08 658.747 227.66 658.896C227.24 659.036 226.886 659.227 226.596 659.47L226.036 658.462C226.419 658.154 226.876 657.921 227.408 657.762C227.94 657.594 228.505 657.51 229.102 657.51ZM228.794 664.048C229.308 664.048 229.751 663.936 230.124 663.712C230.498 663.479 230.768 663.152 230.936 662.732V661.696H228.864C227.726 661.696 227.156 662.079 227.156 662.844C227.156 663.217 227.301 663.511 227.59 663.726C227.88 663.941 228.281 664.048 228.794 664.048ZM240.65 657.58V665H239.446V662.648H237.29H237.136L235.512 665H234.07L235.876 662.466C235.316 662.298 234.887 662.023 234.588 661.64C234.29 661.248 234.14 660.763 234.14 660.184C234.14 659.335 234.43 658.691 235.008 658.252C235.587 657.804 236.385 657.58 237.402 657.58H240.65ZM235.512 660.226C235.512 660.721 235.666 661.089 235.974 661.332C236.292 661.565 236.763 661.682 237.388 661.682H239.446V658.756H237.444C236.156 658.756 235.512 659.246 235.512 660.226ZM253.906 657.58V665H252.562V658.756H248.376V665H247.032V657.58H253.906ZM262.877 657.58V665H261.533V658.756H258.341L258.257 660.408C258.21 661.407 258.122 662.242 257.991 662.914C257.86 663.577 257.646 664.109 257.347 664.51C257.048 664.911 256.633 665.112 256.101 665.112C255.858 665.112 255.583 665.07 255.275 664.986L255.359 663.852C255.48 663.88 255.592 663.894 255.695 663.894C256.068 663.894 256.348 663.731 256.535 663.404C256.722 663.077 256.843 662.69 256.899 662.242C256.955 661.794 257.006 661.155 257.053 660.324L257.179 657.58H262.877ZM268.654 665.084C267.916 665.084 267.254 664.921 266.666 664.594C266.078 664.267 265.616 663.819 265.28 663.25C264.953 662.671 264.79 662.018 264.79 661.29C264.79 660.562 264.953 659.913 265.28 659.344C265.616 658.765 266.078 658.317 266.666 658C267.254 657.673 267.916 657.51 268.654 657.51C269.391 657.51 270.049 657.673 270.628 658C271.216 658.317 271.673 658.765 272 659.344C272.336 659.913 272.504 660.562 272.504 661.29C272.504 662.018 272.336 662.671 272 663.25C271.673 663.819 271.216 664.267 270.628 664.594C270.049 664.921 269.391 665.084 268.654 665.084ZM268.654 663.908C269.13 663.908 269.554 663.801 269.928 663.586C270.31 663.362 270.609 663.054 270.824 662.662C271.038 662.261 271.146 661.803 271.146 661.29C271.146 660.777 271.038 660.324 270.824 659.932C270.609 659.531 270.31 659.223 269.928 659.008C269.554 658.793 269.13 658.686 268.654 658.686C268.178 658.686 267.748 658.793 267.366 659.008C266.992 659.223 266.694 659.531 266.47 659.932C266.255 660.324 266.148 660.777 266.148 661.29C266.148 661.803 266.255 662.261 266.47 662.662C266.694 663.054 266.992 663.362 267.366 663.586C267.748 663.801 268.178 663.908 268.654 663.908ZM285.015 657.58V665H274.445V657.58H275.789V663.824H279.065V657.58H280.409V663.824H283.671V657.58H285.015ZM286.121 663.824V666.582H284.861V665H283.615V663.824H286.121ZM290.27 657.51C291.297 657.51 292.081 657.762 292.622 658.266C293.173 658.77 293.448 659.521 293.448 660.52V665H292.174V664.02C291.95 664.365 291.628 664.631 291.208 664.818C290.798 664.995 290.308 665.084 289.738 665.084C288.908 665.084 288.24 664.883 287.736 664.482C287.242 664.081 286.994 663.553 286.994 662.9C286.994 662.247 287.232 661.724 287.708 661.332C288.184 660.931 288.94 660.73 289.976 660.73H292.104V660.464C292.104 659.885 291.936 659.442 291.6 659.134C291.264 658.826 290.77 658.672 290.116 658.672C289.678 658.672 289.248 658.747 288.828 658.896C288.408 659.036 288.054 659.227 287.764 659.47L287.204 658.462C287.587 658.154 288.044 657.921 288.576 657.762C289.108 657.594 289.673 657.51 290.27 657.51ZM289.962 664.048C290.476 664.048 290.919 663.936 291.292 663.712C291.666 663.479 291.936 663.152 292.104 662.732V661.696H290.032C288.894 661.696 288.324 662.079 288.324 662.844C288.324 663.217 288.469 663.511 288.758 663.726C289.048 663.941 289.449 664.048 289.962 664.048ZM303.414 663.824V666.722H302.154V665H295.952V666.722H294.678V663.824H295.07C295.546 663.796 295.873 663.46 296.05 662.816C296.228 662.172 296.349 661.262 296.414 660.086L296.526 657.58H302.28V663.824H303.414ZM297.646 660.184C297.609 661.117 297.53 661.892 297.408 662.508C297.296 663.115 297.086 663.553 296.778 663.824H300.936V658.756H297.716L297.646 660.184ZM308.049 661.864H306.509V665H305.165V657.58H306.509V660.716H308.077L310.485 657.58H311.927L309.113 661.15L312.123 665H310.541L308.049 661.864ZM316.042 657.51C317.068 657.51 317.852 657.762 318.394 658.266C318.944 658.77 319.22 659.521 319.22 660.52V665H317.946V664.02C317.722 664.365 317.4 664.631 316.98 664.818C316.569 664.995 316.079 665.084 315.51 665.084C314.679 665.084 314.012 664.883 313.508 664.482C313.013 664.081 312.766 663.553 312.766 662.9C312.766 662.247 313.004 661.724 313.48 661.332C313.956 660.931 314.712 660.73 315.748 660.73H317.876V660.464C317.876 659.885 317.708 659.442 317.372 659.134C317.036 658.826 316.541 658.672 315.888 658.672C315.449 658.672 315.02 658.747 314.6 658.896C314.18 659.036 313.825 659.227 313.536 659.47L312.976 658.462C313.358 658.154 313.816 657.921 314.348 657.762C314.88 657.594 315.444 657.51 316.042 657.51ZM315.734 664.048C316.247 664.048 316.69 663.936 317.064 663.712C317.437 663.479 317.708 663.152 317.876 662.732V661.696H315.804C314.665 661.696 314.096 662.079 314.096 662.844C314.096 663.217 314.24 663.511 314.53 663.726C314.819 663.941 315.22 664.048 315.734 664.048Z" fill="white"/>
<circle cx="84" cy="661" r="6.5" stroke="#FF8686" stroke-width="5"/>
<path d="M5.562 389.4V402H2.646V391.74H0.126V389.4H5.562ZM13.8168 394.098C14.6208 394.098 15.3528 394.26 16.0128 394.584C16.6728 394.908 17.1948 395.37 17.5788 395.97C17.9628 396.558 18.1548 397.242 18.1548 398.022C18.1548 398.862 17.9448 399.6 17.5248 400.236C17.1048 400.872 16.5288 401.364 15.7968 401.712C15.0768 402.048 14.2728 402.216 13.3848 402.216C11.6208 402.216 10.2408 401.676 9.24483 400.596C8.24883 399.516 7.75083 397.974 7.75083 395.97C7.75083 394.542 8.02083 393.318 8.56083 392.298C9.10083 391.278 9.85083 390.504 10.8108 389.976C11.7828 389.448 12.9048 389.184 14.1768 389.184C14.8488 389.184 15.4908 389.262 16.1028 389.418C16.7268 389.562 17.2548 389.772 17.6868 390.048L16.6068 392.19C15.9828 391.77 15.1968 391.56 14.2488 391.56C13.1808 391.56 12.3348 391.872 11.7108 392.496C11.0868 393.12 10.7508 394.026 10.7028 395.214C11.4468 394.47 12.4848 394.098 13.8168 394.098ZM13.2228 400.038C13.8468 400.038 14.3508 399.87 14.7348 399.534C15.1308 399.198 15.3288 398.742 15.3288 398.166C15.3288 397.59 15.1308 397.134 14.7348 396.798C14.3508 396.45 13.8348 396.276 13.1868 396.276C12.5508 396.276 12.0288 396.456 11.6208 396.816C11.2128 397.164 11.0088 397.614 11.0088 398.166C11.0088 398.718 11.2068 399.168 11.6028 399.516C11.9988 399.864 12.5388 400.038 13.2228 400.038ZM20.8678 395.682C20.3758 395.682 19.9618 395.514 19.6258 395.178C19.2898 394.842 19.1218 394.422 19.1218 393.918C19.1218 393.402 19.2898 392.988 19.6258 392.676C19.9618 392.352 20.3758 392.19 20.8678 392.19C21.3598 392.19 21.7738 392.352 22.1098 392.676C22.4458 392.988 22.6138 393.402 22.6138 393.918C22.6138 394.422 22.4458 394.842 22.1098 395.178C21.7738 395.514 21.3598 395.682 20.8678 395.682ZM20.8678 402.144C20.3758 402.144 19.9618 401.976 19.6258 401.64C19.2898 401.304 19.1218 400.884 19.1218 400.38C19.1218 399.864 19.2898 399.45 19.6258 399.138C19.9618 398.814 20.3758 398.652 20.8678 398.652C21.3598 398.652 21.7738 398.814 22.1098 399.138C22.4458 399.45 22.6138 399.864 22.6138 400.38C22.6138 400.884 22.4458 401.304 22.1098 401.64C21.7738 401.976 21.3598 402.144 20.8678 402.144ZM29.3227 402.216C28.2787 402.216 27.3487 401.958 26.5327 401.442C25.7167 400.926 25.0747 400.182 24.6067 399.21C24.1507 398.226 23.9227 397.056 23.9227 395.7C23.9227 394.344 24.1507 393.18 24.6067 392.208C25.0747 391.224 25.7167 390.474 26.5327 389.958C27.3487 389.442 28.2787 389.184 29.3227 389.184C30.3667 389.184 31.2967 389.442 32.1127 389.958C32.9287 390.474 33.5647 391.224 34.0207 392.208C34.4887 393.18 34.7227 394.344 34.7227 395.7C34.7227 397.056 34.4887 398.226 34.0207 399.21C33.5647 400.182 32.9287 400.926 32.1127 401.442C31.2967 401.958 30.3667 402.216 29.3227 402.216ZM29.3227 399.75C30.0907 399.75 30.6907 399.42 31.1227 398.76C31.5667 398.1 31.7887 397.08 31.7887 395.7C31.7887 394.32 31.5667 393.3 31.1227 392.64C30.6907 391.98 30.0907 391.65 29.3227 391.65C28.5667 391.65 27.9667 391.98 27.5227 392.64C27.0907 393.3 26.8747 394.32 26.8747 395.7C26.8747 397.08 27.0907 398.1 27.5227 398.76C27.9667 399.42 28.5667 399.75 29.3227 399.75ZM41.5395 402.216C40.4955 402.216 39.5655 401.958 38.7495 401.442C37.9335 400.926 37.2915 400.182 36.8235 399.21C36.3675 398.226 36.1395 397.056 36.1395 395.7C36.1395 394.344 36.3675 393.18 36.8235 392.208C37.2915 391.224 37.9335 390.474 38.7495 389.958C39.5655 389.442 40.4955 389.184 41.5395 389.184C42.5835 389.184 43.5135 389.442 44.3295 389.958C45.1455 390.474 45.7815 391.224 46.2375 392.208C46.7055 393.18 46.9395 394.344 46.9395 395.7C46.9395 397.056 46.7055 398.226 46.2375 399.21C45.7815 400.182 45.1455 400.926 44.3295 401.442C43.5135 401.958 42.5835 402.216 41.5395 402.216ZM41.5395 399.75C42.3075 399.75 42.9075 399.42 43.3395 398.76C43.7835 398.1 44.0055 397.08 44.0055 395.7C44.0055 394.32 43.7835 393.3 43.3395 392.64C42.9075 391.98 42.3075 391.65 41.5395 391.65C40.7835 391.65 40.1835 391.98 39.7395 392.64C39.3075 393.3 39.0915 394.32 39.0915 395.7C39.0915 397.08 39.3075 398.1 39.7395 398.76C40.1835 399.42 40.7835 399.75 41.5395 399.75ZM48.6606 395.808H53.7546V398.058H48.6606V395.808ZM5.562 416.4V429H2.646V418.74H0.126V416.4H5.562ZM17.6148 416.4V418.29L12.9348 429H9.76683L14.2848 418.776H10.1088V420.828H7.51683V416.4H17.6148ZM20.2174 422.682C19.7254 422.682 19.3114 422.514 18.9754 422.178C18.6394 421.842 18.4714 421.422 18.4714 420.918C18.4714 420.402 18.6394 419.988 18.9754 419.676C19.3114 419.352 19.7254 419.19 20.2174 419.19C20.7094 419.19 21.1234 419.352 21.4594 419.676C21.7954 419.988 21.9634 420.402 21.9634 420.918C21.9634 421.422 21.7954 421.842 21.4594 422.178C21.1234 422.514 20.7094 422.682 20.2174 422.682ZM20.2174 429.144C19.7254 429.144 19.3114 428.976 18.9754 428.64C18.6394 428.304 18.4714 427.884 18.4714 427.38C18.4714 426.864 18.6394 426.45 18.9754 426.138C19.3114 425.814 19.7254 425.652 20.2174 425.652C20.7094 425.652 21.1234 425.814 21.4594 426.138C21.7954 426.45 21.9634 426.864 21.9634 427.38C21.9634 427.884 21.7954 428.304 21.4594 428.64C21.1234 428.976 20.7094 429.144 20.2174 429.144ZM28.1323 416.4V429H25.2163V418.74H22.6963V416.4H28.1323ZM35.7211 429.216C34.6771 429.216 33.7471 428.958 32.9311 428.442C32.1151 427.926 31.4731 427.182 31.0051 426.21C30.5491 425.226 30.3211 424.056 30.3211 422.7C30.3211 421.344 30.5491 420.18 31.0051 419.208C31.4731 418.224 32.1151 417.474 32.9311 416.958C33.7471 416.442 34.6771 416.184 35.7211 416.184C36.7651 416.184 37.6951 416.442 38.5111 416.958C39.3271 417.474 39.9631 418.224 40.4191 419.208C40.8871 420.18 41.1211 421.344 41.1211 422.7C41.1211 424.056 40.8871 425.226 40.4191 426.21C39.9631 427.182 39.3271 427.926 38.5111 428.442C37.6951 428.958 36.7651 429.216 35.7211 429.216ZM35.7211 426.75C36.4891 426.75 37.0891 426.42 37.5211 425.76C37.9651 425.1 38.1871 424.08 38.1871 422.7C38.1871 421.32 37.9651 420.3 37.5211 419.64C37.0891 418.98 36.4891 418.65 35.7211 418.65C34.9651 418.65 34.3651 418.98 33.9211 419.64C33.4891 420.3 33.2731 421.32 33.2731 422.7C33.2731 424.08 33.4891 425.1 33.9211 425.76C34.3651 426.42 34.9651 426.75 35.7211 426.75Z" fill="#FF8686"/>
<path d="M124.534 390.2V400H123.162V391.418H118.822L118.724 394.288C118.677 395.641 118.565 396.738 118.388 397.578C118.22 398.418 117.949 399.053 117.576 399.482C117.203 399.902 116.699 400.112 116.064 400.112C115.775 400.112 115.481 400.075 115.182 400L115.28 398.754C115.429 398.791 115.579 398.81 115.728 398.81C116.129 398.81 116.451 398.651 116.694 398.334C116.937 398.007 117.119 397.522 117.24 396.878C117.361 396.234 117.441 395.385 117.478 394.33L117.632 390.2H124.534ZM134.069 396.332C134.069 396.435 134.059 396.57 134.041 396.738H128.021C128.105 397.391 128.389 397.919 128.875 398.32C129.369 398.712 129.981 398.908 130.709 398.908C131.595 398.908 132.309 398.609 132.851 398.012L133.593 398.88C133.257 399.272 132.837 399.571 132.333 399.776C131.838 399.981 131.283 400.084 130.667 400.084C129.883 400.084 129.187 399.925 128.581 399.608C127.974 399.281 127.503 398.829 127.167 398.25C126.84 397.671 126.677 397.018 126.677 396.29C126.677 395.571 126.835 394.923 127.153 394.344C127.479 393.765 127.923 393.317 128.483 393C129.052 392.673 129.691 392.51 130.401 392.51C131.11 392.51 131.74 392.673 132.291 393C132.851 393.317 133.285 393.765 133.593 394.344C133.91 394.923 134.069 395.585 134.069 396.332ZM130.401 393.644C129.757 393.644 129.215 393.84 128.777 394.232C128.347 394.624 128.095 395.137 128.021 395.772H132.781C132.706 395.147 132.449 394.638 132.011 394.246C131.581 393.845 131.045 393.644 130.401 393.644ZM139.038 396.864H137.498V400H136.154V392.58H137.498V395.716H139.066L141.474 392.58H142.916L140.102 396.15L143.112 400H141.53L139.038 396.864ZM152.445 398.824V401.778H151.171V400H144.521V392.58H145.865V398.824H149.925V392.58H151.269V398.824H152.445ZM154.187 392.58H155.531V397.984L160.081 392.58H161.299V400H159.955V394.596L155.419 400H154.187V392.58ZM169.857 392.58V400H168.653V397.648H166.497H166.343L164.719 400H163.277L165.083 397.466C164.523 397.298 164.094 397.023 163.795 396.64C163.497 396.248 163.347 395.763 163.347 395.184C163.347 394.335 163.637 393.691 164.215 393.252C164.794 392.804 165.592 392.58 166.609 392.58H169.857ZM164.719 395.226C164.719 395.721 164.873 396.089 165.181 396.332C165.499 396.565 165.97 396.682 166.595 396.682H168.653V393.756H166.651C165.363 393.756 164.719 394.246 164.719 395.226ZM175.582 396.29L177.598 393.602H178.83L176.856 396.29L178.83 398.964H177.598L175.582 396.29ZM178.27 396.29L180.286 393.602H181.518L179.544 396.29L181.518 398.964H180.286L178.27 396.29ZM184.862 391.418V394.834H189.776V396.038H184.862V400H183.462V390.2H190.378V391.418H184.862ZM193.304 393.826C193.538 393.397 193.883 393.07 194.34 392.846C194.798 392.622 195.353 392.51 196.006 392.51V393.812C195.932 393.803 195.829 393.798 195.698 393.798C194.97 393.798 194.396 394.017 193.976 394.456C193.566 394.885 193.36 395.501 193.36 396.304V400H192.016V392.58H193.304V393.826ZM200.772 400.084C200.035 400.084 199.372 399.921 198.784 399.594C198.196 399.267 197.734 398.819 197.398 398.25C197.072 397.671 196.908 397.018 196.908 396.29C196.908 395.562 197.072 394.913 197.398 394.344C197.734 393.765 198.196 393.317 198.784 393C199.372 392.673 200.035 392.51 200.772 392.51C201.51 392.51 202.168 392.673 202.746 393C203.334 393.317 203.792 393.765 204.118 394.344C204.454 394.913 204.622 395.562 204.622 396.29C204.622 397.018 204.454 397.671 204.118 398.25C203.792 398.819 203.334 399.267 202.746 399.594C202.168 399.921 201.51 400.084 200.772 400.084ZM200.772 398.908C201.248 398.908 201.673 398.801 202.046 398.586C202.429 398.362 202.728 398.054 202.942 397.662C203.157 397.261 203.264 396.803 203.264 396.29C203.264 395.777 203.157 395.324 202.942 394.932C202.728 394.531 202.429 394.223 202.046 394.008C201.673 393.793 201.248 393.686 200.772 393.686C200.296 393.686 199.867 393.793 199.484 394.008C199.111 394.223 198.812 394.531 198.588 394.932C198.374 395.324 198.266 395.777 198.266 396.29C198.266 396.803 198.374 397.261 198.588 397.662C198.812 398.054 199.111 398.362 199.484 398.586C199.867 398.801 200.296 398.908 200.772 398.908ZM210.443 392.51C211.386 392.51 212.132 392.785 212.683 393.336C213.243 393.877 213.523 394.675 213.523 395.73V400H212.179V395.884C212.179 395.165 212.006 394.624 211.661 394.26C211.316 393.896 210.821 393.714 210.177 393.714C209.449 393.714 208.875 393.929 208.455 394.358C208.035 394.778 207.825 395.385 207.825 396.178V400H206.481V392.58H207.769V393.7C208.04 393.317 208.404 393.023 208.861 392.818C209.328 392.613 209.855 392.51 210.443 392.51ZM220.182 399.566C219.986 399.734 219.744 399.865 219.454 399.958C219.165 400.042 218.866 400.084 218.558 400.084C217.812 400.084 217.233 399.883 216.822 399.482C216.412 399.081 216.206 398.507 216.206 397.76V393.686H214.946V392.58H216.206V390.956H217.55V392.58H219.678V393.686H217.55V397.704C217.55 398.105 217.648 398.413 217.844 398.628C218.05 398.843 218.339 398.95 218.712 398.95C219.123 398.95 219.473 398.833 219.762 398.6L220.182 399.566ZM228.267 396.332C228.267 396.435 228.258 396.57 228.239 396.738H222.219C222.303 397.391 222.588 397.919 223.073 398.32C223.568 398.712 224.179 398.908 224.907 398.908C225.794 398.908 226.508 398.609 227.049 398.012L227.791 398.88C227.455 399.272 227.035 399.571 226.531 399.776C226.036 399.981 225.481 400.084 224.865 400.084C224.081 400.084 223.386 399.925 222.779 399.608C222.172 399.281 221.701 398.829 221.365 398.25C221.038 397.671 220.875 397.018 220.875 396.29C220.875 395.571 221.034 394.923 221.351 394.344C221.678 393.765 222.121 393.317 222.681 393C223.25 392.673 223.89 392.51 224.599 392.51C225.308 392.51 225.938 392.673 226.489 393C227.049 393.317 227.483 393.765 227.791 394.344C228.108 394.923 228.267 395.585 228.267 396.332ZM224.599 393.644C223.955 393.644 223.414 393.84 222.975 394.232C222.546 394.624 222.294 395.137 222.219 395.772H226.979C226.904 395.147 226.648 394.638 226.209 394.246C225.78 393.845 225.243 393.644 224.599 393.644ZM234.095 392.51C235.038 392.51 235.785 392.785 236.335 393.336C236.895 393.877 237.175 394.675 237.175 395.73V400H235.831V395.884C235.831 395.165 235.659 394.624 235.313 394.26C234.968 393.896 234.473 393.714 233.829 393.714C233.101 393.714 232.527 393.929 232.107 394.358C231.687 394.778 231.477 395.385 231.477 396.178V400H230.133V392.58H231.421V393.7C231.692 393.317 232.056 393.023 232.513 392.818C232.98 392.613 233.507 392.51 234.095 392.51ZM246.704 389.612V400H245.416V398.824C245.117 399.235 244.739 399.547 244.282 399.762C243.824 399.977 243.32 400.084 242.77 400.084C242.051 400.084 241.407 399.925 240.838 399.608C240.268 399.291 239.82 398.847 239.494 398.278C239.176 397.699 239.018 397.037 239.018 396.29C239.018 395.543 239.176 394.885 239.494 394.316C239.82 393.747 240.268 393.303 240.838 392.986C241.407 392.669 242.051 392.51 242.77 392.51C243.302 392.51 243.792 392.613 244.24 392.818C244.688 393.014 245.061 393.308 245.36 393.7V389.612H246.704ZM242.882 398.908C243.348 398.908 243.773 398.801 244.156 398.586C244.538 398.362 244.837 398.054 245.052 397.662C245.266 397.261 245.374 396.803 245.374 396.29C245.374 395.777 245.266 395.324 245.052 394.932C244.837 394.531 244.538 394.223 244.156 394.008C243.773 393.793 243.348 393.686 242.882 393.686C242.406 393.686 241.976 393.793 241.594 394.008C241.22 394.223 240.922 394.531 240.698 394.932C240.483 395.324 240.376 395.777 240.376 396.29C240.376 396.803 240.483 397.261 240.698 397.662C240.922 398.054 241.22 398.362 241.594 398.586C241.976 398.801 242.406 398.908 242.882 398.908ZM256.968 392.51C257.687 392.51 258.331 392.669 258.9 392.986C259.47 393.303 259.913 393.747 260.23 394.316C260.557 394.885 260.72 395.543 260.72 396.29C260.72 397.037 260.557 397.699 260.23 398.278C259.913 398.847 259.47 399.291 258.9 399.608C258.331 399.925 257.687 400.084 256.968 400.084C256.436 400.084 255.946 399.981 255.498 399.776C255.06 399.571 254.686 399.272 254.378 398.88V402.716H253.034V392.58H254.322V393.756C254.621 393.345 254.999 393.037 255.456 392.832C255.914 392.617 256.418 392.51 256.968 392.51ZM256.856 398.908C257.332 398.908 257.757 398.801 258.13 398.586C258.513 398.362 258.812 398.054 259.026 397.662C259.25 397.261 259.362 396.803 259.362 396.29C259.362 395.777 259.25 395.324 259.026 394.932C258.812 394.531 258.513 394.223 258.13 394.008C257.757 393.793 257.332 393.686 256.856 393.686C256.39 393.686 255.965 393.798 255.582 394.022C255.209 394.237 254.91 394.54 254.686 394.932C254.472 395.324 254.364 395.777 254.364 396.29C254.364 396.803 254.472 397.261 254.686 397.662C254.901 398.054 255.2 398.362 255.582 398.586C255.965 398.801 256.39 398.908 256.856 398.908ZM265.251 392.51C266.277 392.51 267.061 392.762 267.603 393.266C268.153 393.77 268.429 394.521 268.429 395.52V400H267.155V399.02C266.931 399.365 266.609 399.631 266.189 399.818C265.778 399.995 265.288 400.084 264.719 400.084C263.888 400.084 263.221 399.883 262.717 399.482C262.222 399.081 261.975 398.553 261.975 397.9C261.975 397.247 262.213 396.724 262.689 396.332C263.165 395.931 263.921 395.73 264.957 395.73H267.085V395.464C267.085 394.885 266.917 394.442 266.581 394.134C266.245 393.826 265.75 393.672 265.097 393.672C264.658 393.672 264.229 393.747 263.809 393.896C263.389 394.036 263.034 394.227 262.745 394.47L262.185 393.462C262.567 393.154 263.025 392.921 263.557 392.762C264.089 392.594 264.653 392.51 265.251 392.51ZM264.943 399.048C265.456 399.048 265.899 398.936 266.273 398.712C266.646 398.479 266.917 398.152 267.085 397.732V396.696H265.013C263.874 396.696 263.305 397.079 263.305 397.844C263.305 398.217 263.449 398.511 263.739 398.726C264.028 398.941 264.429 399.048 264.943 399.048ZM274.629 392.832C275.32 392.832 275.936 392.986 276.477 393.294C277.018 393.602 277.438 394.031 277.737 394.582C278.045 395.123 278.199 395.744 278.199 396.444C278.199 397.163 278.036 397.802 277.709 398.362C277.392 398.913 276.939 399.342 276.351 399.65C275.772 399.958 275.11 400.112 274.363 400.112C273.103 400.112 272.128 399.683 271.437 398.824C270.756 397.956 270.415 396.738 270.415 395.17C270.415 393.649 270.728 392.459 271.353 391.6C271.978 390.732 272.935 390.158 274.223 389.878L277.611 389.122L277.807 390.354L274.685 391.026C273.714 391.241 272.991 391.605 272.515 392.118C272.039 392.631 271.768 393.369 271.703 394.33C272.02 393.854 272.431 393.485 272.935 393.224C273.439 392.963 274.004 392.832 274.629 392.832ZM274.391 398.992C274.867 398.992 275.287 398.885 275.651 398.67C276.024 398.455 276.314 398.161 276.519 397.788C276.724 397.405 276.827 396.971 276.827 396.486C276.827 395.749 276.603 395.156 276.155 394.708C275.707 394.26 275.119 394.036 274.391 394.036C273.663 394.036 273.07 394.26 272.613 394.708C272.165 395.156 271.941 395.749 271.941 396.486C271.941 396.971 272.044 397.405 272.249 397.788C272.464 398.161 272.758 398.455 273.131 398.67C273.504 398.885 273.924 398.992 274.391 398.992ZM283.296 400.084C282.559 400.084 281.896 399.921 281.308 399.594C280.72 399.267 280.258 398.819 279.922 398.25C279.596 397.671 279.432 397.018 279.432 396.29C279.432 395.562 279.596 394.913 279.922 394.344C280.258 393.765 280.72 393.317 281.308 393C281.896 392.673 282.559 392.51 283.296 392.51C284.034 392.51 284.692 392.673 285.27 393C285.858 393.317 286.316 393.765 286.642 394.344C286.978 394.913 287.146 395.562 287.146 396.29C287.146 397.018 286.978 397.671 286.642 398.25C286.316 398.819 285.858 399.267 285.27 399.594C284.692 399.921 284.034 400.084 283.296 400.084ZM283.296 398.908C283.772 398.908 284.197 398.801 284.57 398.586C284.953 398.362 285.252 398.054 285.466 397.662C285.681 397.261 285.788 396.803 285.788 396.29C285.788 395.777 285.681 395.324 285.466 394.932C285.252 394.531 284.953 394.223 284.57 394.008C284.197 393.793 283.772 393.686 283.296 393.686C282.82 393.686 282.391 393.793 282.008 394.008C281.635 394.223 281.336 394.531 281.112 394.932C280.898 395.324 280.79 395.777 280.79 396.29C280.79 396.803 280.898 397.261 281.112 397.662C281.336 398.054 281.635 398.362 282.008 398.586C282.391 398.801 282.82 398.908 283.296 398.908ZM294.344 393.756H291.628V400H290.284V393.756H287.568V392.58H294.344V393.756ZM299.064 395.1C299.997 395.109 300.711 395.324 301.206 395.744C301.701 396.164 301.948 396.757 301.948 397.522C301.948 398.325 301.677 398.945 301.136 399.384C300.604 399.813 299.839 400.023 298.84 400.014L295.718 400V392.58H297.062V395.086L299.064 395.1ZM303.054 392.58H304.398V400H303.054V392.58ZM298.742 398.992C299.349 399.001 299.806 398.88 300.114 398.628C300.431 398.376 300.59 398.003 300.59 397.508C300.59 397.023 300.436 396.668 300.128 396.444C299.82 396.22 299.358 396.103 298.742 396.094L297.062 396.066V398.978L298.742 398.992ZM307.305 400.084C307.044 400.084 306.82 399.995 306.633 399.818C306.446 399.631 306.353 399.398 306.353 399.118C306.353 398.847 306.446 398.623 306.633 398.446C306.82 398.259 307.044 398.166 307.305 398.166C307.566 398.166 307.786 398.255 307.963 398.432C308.14 398.609 308.229 398.838 308.229 399.118C308.229 399.398 308.136 399.631 307.949 399.818C307.772 399.995 307.557 400.084 307.305 400.084ZM123.778 414.2V424H122.392V420.122C121.356 420.523 120.399 420.724 119.522 420.724C118.327 420.724 117.399 420.435 116.736 419.856C116.083 419.277 115.756 418.451 115.756 417.378V414.2H117.128V417.224C117.128 417.952 117.347 418.512 117.786 418.904C118.234 419.296 118.864 419.492 119.676 419.492C120.581 419.492 121.487 419.287 122.392 418.876V414.2H123.778ZM129.257 416.51C130.283 416.51 131.067 416.762 131.609 417.266C132.159 417.77 132.435 418.521 132.435 419.52V424H131.161V423.02C130.937 423.365 130.615 423.631 130.195 423.818C129.784 423.995 129.294 424.084 128.725 424.084C127.894 424.084 127.227 423.883 126.723 423.482C126.228 423.081 125.981 422.553 125.981 421.9C125.981 421.247 126.219 420.724 126.695 420.332C127.171 419.931 127.927 419.73 128.963 419.73H131.091V419.464C131.091 418.885 130.923 418.442 130.587 418.134C130.251 417.826 129.756 417.672 129.103 417.672C128.664 417.672 128.235 417.747 127.815 417.896C127.395 418.036 127.04 418.227 126.751 418.47L126.191 417.462C126.573 417.154 127.031 416.921 127.563 416.762C128.095 416.594 128.659 416.51 129.257 416.51ZM128.949 423.048C129.462 423.048 129.905 422.936 130.279 422.712C130.652 422.479 130.923 422.152 131.091 421.732V420.696H129.019C127.88 420.696 127.311 421.079 127.311 421.844C127.311 422.217 127.455 422.511 127.745 422.726C128.034 422.941 128.435 423.048 128.949 423.048ZM138.089 424.084C137.333 424.084 136.656 423.921 136.059 423.594C135.471 423.267 135.009 422.819 134.673 422.25C134.337 421.671 134.169 421.018 134.169 420.29C134.169 419.562 134.337 418.913 134.673 418.344C135.009 417.765 135.471 417.317 136.059 417C136.656 416.673 137.333 416.51 138.089 416.51C138.761 416.51 139.358 416.645 139.881 416.916C140.413 417.187 140.823 417.579 141.113 418.092L140.091 418.75C139.857 418.395 139.568 418.129 139.223 417.952C138.877 417.775 138.495 417.686 138.075 417.686C137.589 417.686 137.151 417.793 136.759 418.008C136.376 418.223 136.073 418.531 135.849 418.932C135.634 419.324 135.527 419.777 135.527 420.29C135.527 420.813 135.634 421.275 135.849 421.676C136.073 422.068 136.376 422.371 136.759 422.586C137.151 422.801 137.589 422.908 138.075 422.908C138.495 422.908 138.877 422.819 139.223 422.642C139.568 422.465 139.857 422.199 140.091 421.844L141.113 422.488C140.823 423.001 140.413 423.398 139.881 423.678C139.358 423.949 138.761 424.084 138.089 424.084ZM148.287 417.756H145.571V424H144.227V417.756H141.511V416.58H148.287V417.756ZM153.091 419.1C154.034 419.109 154.753 419.324 155.247 419.744C155.742 420.164 155.989 420.757 155.989 421.522C155.989 422.325 155.719 422.945 155.177 423.384C154.645 423.813 153.88 424.023 152.881 424.014L149.661 424V416.58H151.005V419.086L153.091 419.1ZM152.769 422.992C153.376 423.001 153.833 422.88 154.141 422.628C154.459 422.376 154.617 422.003 154.617 421.508C154.617 421.023 154.463 420.668 154.155 420.444C153.857 420.22 153.395 420.103 152.769 420.094L151.005 420.066V422.978L152.769 422.992ZM167.732 422.782V424H160.69V423.048L164.68 419.198C165.165 418.731 165.492 418.33 165.66 417.994C165.828 417.649 165.912 417.303 165.912 416.958C165.912 416.445 165.73 416.048 165.366 415.768C165.011 415.479 164.498 415.334 163.826 415.334C162.743 415.334 161.908 415.689 161.32 416.398L160.368 415.572C160.751 415.105 161.25 414.741 161.866 414.48C162.491 414.219 163.187 414.088 163.952 414.088C164.979 414.088 165.795 414.335 166.402 414.83C167.009 415.315 167.312 415.978 167.312 416.818C167.312 417.341 167.2 417.835 166.976 418.302C166.752 418.769 166.327 419.301 165.702 419.898L162.706 422.782H167.732ZM168.687 422.964L170.661 420.29L168.687 417.602H169.919L171.935 420.29L169.919 422.964H168.687ZM171.375 422.964L173.349 420.29L171.375 417.602H172.607L174.623 420.29L172.607 422.964H171.375Z" fill="white"/>
<circle cx="84" cy="396" r="6.5" stroke="#FF8686" stroke-width="5"/>
</svg>
