<svg width="365" height="606" viewBox="0 0 365 606" fill="none" xmlns="http://www.w3.org/2000/svg">
<rect y="52" width="111" height="30" rx="3" fill="#FF8686"/>
<path d="M30.9691 61V75H27.7291V63.6H24.9291V61H30.9691ZM44.3611 61V63.1L39.1611 75H35.6411L40.6611 63.64H36.0211V65.92H33.1411V61H44.3611ZM57.2275 75.16C56.0942 75.16 55.0742 74.9267 54.1675 74.46C53.2742 73.98 52.5742 73.32 52.0675 72.48C51.5608 71.64 51.3075 70.6867 51.3075 69.62C51.3075 68.5533 51.5608 67.6 52.0675 66.76C52.5742 65.92 53.2742 65.2667 54.1675 64.8C55.0742 64.32 56.0942 64.08 57.2275 64.08C58.3608 64.08 59.3742 64.32 60.2675 64.8C61.1608 65.2667 61.8608 65.92 62.3675 66.76C62.8742 67.6 63.1275 68.5533 63.1275 69.62C63.1275 70.6867 62.8742 71.64 62.3675 72.48C61.8608 73.32 61.1608 73.98 60.2675 74.46C59.3742 74.9267 58.3608 75.16 57.2275 75.16ZM57.2275 72.6C58.0275 72.6 58.6808 72.3333 59.1875 71.8C59.7075 71.2533 59.9675 70.5267 59.9675 69.62C59.9675 68.7133 59.7075 67.9933 59.1875 67.46C58.6808 66.9133 58.0275 66.64 57.2275 66.64C56.4275 66.64 55.7675 66.9133 55.2475 67.46C54.7275 67.9933 54.4675 68.7133 54.4675 69.62C54.4675 70.5267 54.7275 71.2533 55.2475 71.8C55.7675 72.3333 56.4275 72.6 57.2275 72.6ZM70.0134 70.92H68.3934V75H65.2734V64.24H68.3934V68.42H70.0734L72.9934 64.24H76.3134L72.5534 69.4L76.5734 75H72.8934L70.0134 70.92ZM87.0478 66.8H83.4078V75H80.3078V66.8H76.6678V64.24H87.0478V66.8Z" fill="#0C1324"/>
<path d="M26.697 20.644V29.785H21.747V25H5.445V29.785H0.495L0.528 20.644H1.452C2.838 20.6 3.817 19.588 4.389 17.608C4.961 15.628 5.313 12.801 5.445 9.127L5.709 1.9H23.463V20.644H26.697ZM10.164 9.622C10.054 12.372 9.823 14.682 9.471 16.552C9.119 18.4 8.58 19.764 7.854 20.644H18.183V6.256H10.263L10.164 9.622ZM46.9332 16.189C46.9332 16.255 46.9002 16.717 46.8342 17.575H33.4032C33.6452 18.675 34.2172 19.544 35.1192 20.182C36.0212 20.82 37.1432 21.139 38.4852 21.139C39.4092 21.139 40.2232 21.007 40.9272 20.743C41.6532 20.457 42.3242 20.017 42.9402 19.423L45.6792 22.393C44.0072 24.307 41.5652 25.264 38.3532 25.264C36.3512 25.264 34.5802 24.879 33.0402 24.109C31.5002 23.317 30.3122 22.228 29.4762 20.842C28.6402 19.456 28.2222 17.883 28.2222 16.123C28.2222 14.385 28.6292 12.823 29.4432 11.437C30.2792 10.029 31.4122 8.94 32.8422 8.17C34.2942 7.378 35.9112 6.982 37.6932 6.982C39.4312 6.982 41.0042 7.356 42.4122 8.104C43.8202 8.852 44.9202 9.93 45.7122 11.338C46.5262 12.724 46.9332 14.341 46.9332 16.189ZM37.7262 10.876C36.5602 10.876 35.5812 11.206 34.7892 11.866C33.9972 12.526 33.5132 13.428 33.3372 14.572H42.0822C41.9062 13.45 41.4222 12.559 40.6302 11.899C39.8382 11.217 38.8702 10.876 37.7262 10.876ZM50.8793 7.246H55.9943V14.176H63.7163V7.246H68.8643V25H63.7163V18.367H55.9943V25H50.8793V7.246ZM83.3954 12.922C85.7054 12.944 87.4764 13.472 88.7084 14.506C89.9404 15.518 90.5564 16.959 90.5564 18.829C90.5564 20.787 89.8634 22.316 88.4774 23.416C87.1134 24.494 85.1884 25.033 82.7024 25.033L73.7924 25V7.246H78.9074V12.922H83.3954ZM82.2404 21.37C83.2304 21.392 83.9894 21.183 84.5174 20.743C85.0454 20.303 85.3094 19.643 85.3094 18.763C85.3094 17.905 85.0454 17.278 84.5174 16.882C84.0114 16.486 83.2524 16.277 82.2404 16.255L78.9074 16.222V21.37H82.2404ZM119.19 20.644V25H101.733V21.535L110.643 13.12C111.589 12.218 112.227 11.448 112.557 10.81C112.887 10.15 113.052 9.501 113.052 8.863C113.052 7.939 112.733 7.235 112.095 6.751C111.479 6.245 110.566 5.992 109.356 5.992C108.344 5.992 107.431 6.19 106.617 6.586C105.803 6.96 105.121 7.532 104.571 8.302L100.677 5.794C101.579 4.452 102.822 3.407 104.406 2.659C105.99 1.889 107.805 1.504 109.851 1.504C111.567 1.504 113.063 1.79 114.339 2.362C115.637 2.912 116.638 3.704 117.342 4.738C118.068 5.75 118.431 6.949 118.431 8.335C118.431 9.589 118.167 10.766 117.639 11.866C117.111 12.966 116.088 14.22 114.57 15.628L109.257 20.644H119.19Z" fill="#FF8686"/>
<path d="M84 139.5V211" stroke="white" stroke-dasharray="3 3"/>
<path d="M84 228.5V300" stroke="white" stroke-dasharray="3 3"/>
<path d="M84 315.5V387" stroke="white" stroke-dasharray="3 3"/>
<path d="M84 406.5V478" stroke="white" stroke-dasharray="3 3"/>
<path d="M84 497V568.5" stroke="white" stroke-dasharray="3 3"/>
<path d="M5.562 126.4V139H2.646V128.74H0.126V126.4H5.562ZM13.1508 139.216C12.1068 139.216 11.1768 138.958 10.3608 138.442C9.54483 137.926 8.90283 137.182 8.43483 136.21C7.97883 135.226 7.75083 134.056 7.75083 132.7C7.75083 131.344 7.97883 130.18 8.43483 129.208C8.90283 128.224 9.54483 127.474 10.3608 126.958C11.1768 126.442 12.1068 126.184 13.1508 126.184C14.1948 126.184 15.1248 126.442 15.9408 126.958C16.7568 127.474 17.3928 128.224 17.8488 129.208C18.3168 130.18 18.5508 131.344 18.5508 132.7C18.5508 134.056 18.3168 135.226 17.8488 136.21C17.3928 137.182 16.7568 137.926 15.9408 138.442C15.1248 138.958 14.1948 139.216 13.1508 139.216ZM13.1508 136.75C13.9188 136.75 14.5188 136.42 14.9508 135.76C15.3948 135.1 15.6168 134.08 15.6168 132.7C15.6168 131.32 15.3948 130.3 14.9508 129.64C14.5188 128.98 13.9188 128.65 13.1508 128.65C12.3948 128.65 11.7948 128.98 11.3508 129.64C10.9188 130.3 10.7028 131.32 10.7028 132.7C10.7028 134.08 10.9188 135.1 11.3508 135.76C11.7948 136.42 12.3948 136.75 13.1508 136.75ZM21.6236 132.682C21.1316 132.682 20.7176 132.514 20.3816 132.178C20.0456 131.842 19.8776 131.422 19.8776 130.918C19.8776 130.402 20.0456 129.988 20.3816 129.676C20.7176 129.352 21.1316 129.19 21.6236 129.19C22.1156 129.19 22.5296 129.352 22.8656 129.676C23.2016 129.988 23.3696 130.402 23.3696 130.918C23.3696 131.422 23.2016 131.842 22.8656 132.178C22.5296 132.514 22.1156 132.682 21.6236 132.682ZM21.6236 139.144C21.1316 139.144 20.7176 138.976 20.3816 138.64C20.0456 138.304 19.8776 137.884 19.8776 137.38C19.8776 136.864 20.0456 136.45 20.3816 136.138C20.7176 135.814 21.1316 135.652 21.6236 135.652C22.1156 135.652 22.5296 135.814 22.8656 136.138C23.2016 136.45 23.3696 136.864 23.3696 137.38C23.3696 137.884 23.2016 138.304 22.8656 138.64C22.5296 138.976 22.1156 139.144 21.6236 139.144ZM30.0786 139.216C29.0346 139.216 28.1046 138.958 27.2886 138.442C26.4726 137.926 25.8306 137.182 25.3626 136.21C24.9066 135.226 24.6786 134.056 24.6786 132.7C24.6786 131.344 24.9066 130.18 25.3626 129.208C25.8306 128.224 26.4726 127.474 27.2886 126.958C28.1046 126.442 29.0346 126.184 30.0786 126.184C31.1226 126.184 32.0526 126.442 32.8686 126.958C33.6846 127.474 34.3206 128.224 34.7766 129.208C35.2446 130.18 35.4786 131.344 35.4786 132.7C35.4786 134.056 35.2446 135.226 34.7766 136.21C34.3206 137.182 33.6846 137.926 32.8686 138.442C32.0526 138.958 31.1226 139.216 30.0786 139.216ZM30.0786 136.75C30.8466 136.75 31.4466 136.42 31.8786 135.76C32.3226 135.1 32.5446 134.08 32.5446 132.7C32.5446 131.32 32.3226 130.3 31.8786 129.64C31.4466 128.98 30.8466 128.65 30.0786 128.65C29.3226 128.65 28.7226 128.98 28.2786 129.64C27.8466 130.3 27.6306 131.32 27.6306 132.7C27.6306 134.08 27.8466 135.1 28.2786 135.76C28.7226 136.42 29.3226 136.75 30.0786 136.75ZM42.2954 139.216C41.2514 139.216 40.3214 138.958 39.5054 138.442C38.6894 137.926 38.0474 137.182 37.5794 136.21C37.1234 135.226 36.8954 134.056 36.8954 132.7C36.8954 131.344 37.1234 130.18 37.5794 129.208C38.0474 128.224 38.6894 127.474 39.5054 126.958C40.3214 126.442 41.2514 126.184 42.2954 126.184C43.3394 126.184 44.2694 126.442 45.0854 126.958C45.9014 127.474 46.5374 128.224 46.9934 129.208C47.4614 130.18 47.6954 131.344 47.6954 132.7C47.6954 134.056 47.4614 135.226 46.9934 136.21C46.5374 137.182 45.9014 137.926 45.0854 138.442C44.2694 138.958 43.3394 139.216 42.2954 139.216ZM42.2954 136.75C43.0634 136.75 43.6634 136.42 44.0954 135.76C44.5394 135.1 44.7614 134.08 44.7614 132.7C44.7614 131.32 44.5394 130.3 44.0954 129.64C43.6634 128.98 43.0634 128.65 42.2954 128.65C41.5394 128.65 40.9394 128.98 40.4954 129.64C40.0634 130.3 39.8474 131.32 39.8474 132.7C39.8474 134.08 40.0634 135.1 40.4954 135.76C40.9394 136.42 41.5394 136.75 42.2954 136.75Z" fill="#FF8686"/>
<path d="M119.942 132.688H117.898V137H116.526V127.2H117.898V131.456H119.97L123.05 127.2H124.548L121.048 131.946L124.716 137H123.12L119.942 132.688ZM129.009 137.084C128.272 137.084 127.609 136.921 127.021 136.594C126.433 136.267 125.971 135.819 125.635 135.25C125.309 134.671 125.145 134.018 125.145 133.29C125.145 132.562 125.309 131.913 125.635 131.344C125.971 130.765 126.433 130.317 127.021 130C127.609 129.673 128.272 129.51 129.009 129.51C129.747 129.51 130.405 129.673 130.983 130C131.571 130.317 132.029 130.765 132.355 131.344C132.691 131.913 132.859 132.562 132.859 133.29C132.859 134.018 132.691 134.671 132.355 135.25C132.029 135.819 131.571 136.267 130.983 136.594C130.405 136.921 129.747 137.084 129.009 137.084ZM129.009 135.908C129.485 135.908 129.91 135.801 130.283 135.586C130.666 135.362 130.965 135.054 131.179 134.662C131.394 134.261 131.501 133.803 131.501 133.29C131.501 132.777 131.394 132.324 131.179 131.932C130.965 131.531 130.666 131.223 130.283 131.008C129.91 130.793 129.485 130.686 129.009 130.686C128.533 130.686 128.104 130.793 127.721 131.008C127.348 131.223 127.049 131.531 126.825 131.932C126.611 132.324 126.503 132.777 126.503 133.29C126.503 133.803 126.611 134.261 126.825 134.662C127.049 135.054 127.348 135.362 127.721 135.586C128.104 135.801 128.533 135.908 129.009 135.908ZM144.166 133.276C144.166 134.424 143.783 135.329 143.018 135.992C142.253 136.655 141.175 137.023 139.784 137.098V139.716H138.468V137.098C137.077 137.023 135.999 136.659 135.234 136.006C134.478 135.343 134.1 134.433 134.1 133.276C134.1 132.128 134.478 131.232 135.234 130.588C135.99 129.944 137.068 129.585 138.468 129.51V126.612H139.784V129.51C141.175 129.585 142.253 129.949 143.018 130.602C143.783 131.246 144.166 132.137 144.166 133.276ZM135.43 133.276C135.43 134.069 135.682 134.69 136.186 135.138C136.699 135.586 137.46 135.843 138.468 135.908V130.7C137.451 130.765 136.69 131.017 136.186 131.456C135.682 131.895 135.43 132.501 135.43 133.276ZM139.784 135.922C141.819 135.763 142.836 134.881 142.836 133.276C142.836 132.492 142.579 131.885 142.066 131.456C141.553 131.017 140.792 130.765 139.784 130.7V135.922ZM152.772 133.332C152.772 133.435 152.762 133.57 152.744 133.738H146.724C146.808 134.391 147.092 134.919 147.578 135.32C148.072 135.712 148.684 135.908 149.412 135.908C150.298 135.908 151.012 135.609 151.554 135.012L152.296 135.88C151.96 136.272 151.54 136.571 151.036 136.776C150.541 136.981 149.986 137.084 149.37 137.084C148.586 137.084 147.89 136.925 147.284 136.608C146.677 136.281 146.206 135.829 145.87 135.25C145.543 134.671 145.38 134.018 145.38 133.29C145.38 132.571 145.538 131.923 145.856 131.344C146.182 130.765 146.626 130.317 147.186 130C147.755 129.673 148.394 129.51 149.104 129.51C149.813 129.51 150.443 129.673 150.994 130C151.554 130.317 151.988 130.765 152.296 131.344C152.613 131.923 152.772 132.585 152.772 133.332ZM149.104 130.644C148.46 130.644 147.918 130.84 147.48 131.232C147.05 131.624 146.798 132.137 146.724 132.772H151.484C151.409 132.147 151.152 131.638 150.714 131.246C150.284 130.845 149.748 130.644 149.104 130.644ZM154.489 132.576H158.255V133.738H154.489V132.576ZM164.228 129.832C164.919 129.832 165.535 129.986 166.076 130.294C166.618 130.602 167.038 131.031 167.336 131.582C167.644 132.123 167.798 132.744 167.798 133.444C167.798 134.163 167.635 134.802 167.308 135.362C166.991 135.913 166.538 136.342 165.95 136.65C165.372 136.958 164.709 137.112 163.962 137.112C162.702 137.112 161.727 136.683 161.036 135.824C160.355 134.956 160.014 133.738 160.014 132.17C160.014 130.649 160.327 129.459 160.952 128.6C161.578 127.732 162.534 127.158 163.822 126.878L167.21 126.122L167.406 127.354L164.284 128.026C163.314 128.241 162.59 128.605 162.114 129.118C161.638 129.631 161.368 130.369 161.302 131.33C161.62 130.854 162.03 130.485 162.534 130.224C163.038 129.963 163.603 129.832 164.228 129.832ZM163.99 135.992C164.466 135.992 164.886 135.885 165.25 135.67C165.624 135.455 165.913 135.161 166.118 134.788C166.324 134.405 166.426 133.971 166.426 133.486C166.426 132.749 166.202 132.156 165.754 131.708C165.306 131.26 164.718 131.036 163.99 131.036C163.262 131.036 162.67 131.26 162.212 131.708C161.764 132.156 161.54 132.749 161.54 133.486C161.54 133.971 161.643 134.405 161.848 134.788C162.063 135.161 162.357 135.455 162.73 135.67C163.104 135.885 163.524 135.992 163.99 135.992ZM173.652 129.51C174.371 129.51 175.015 129.669 175.584 129.986C176.153 130.303 176.597 130.747 176.914 131.316C177.241 131.885 177.404 132.543 177.404 133.29C177.404 134.037 177.241 134.699 176.914 135.278C176.597 135.847 176.153 136.291 175.584 136.608C175.015 136.925 174.371 137.084 173.652 137.084C173.12 137.084 172.63 136.981 172.182 136.776C171.743 136.571 171.37 136.272 171.062 135.88V139.716H169.718V129.58H171.006V130.756C171.305 130.345 171.683 130.037 172.14 129.832C172.597 129.617 173.101 129.51 173.652 129.51ZM173.54 135.908C174.016 135.908 174.441 135.801 174.814 135.586C175.197 135.362 175.495 135.054 175.71 134.662C175.934 134.261 176.046 133.803 176.046 133.29C176.046 132.777 175.934 132.324 175.71 131.932C175.495 131.531 175.197 131.223 174.814 131.008C174.441 130.793 174.016 130.686 173.54 130.686C173.073 130.686 172.649 130.798 172.266 131.022C171.893 131.237 171.594 131.54 171.37 131.932C171.155 132.324 171.048 132.777 171.048 133.29C171.048 133.803 171.155 134.261 171.37 134.662C171.585 135.054 171.883 135.362 172.266 135.586C172.649 135.801 173.073 135.908 173.54 135.908ZM186.063 133.332C186.063 133.435 186.053 133.57 186.035 133.738H180.015C180.099 134.391 180.383 134.919 180.869 135.32C181.363 135.712 181.975 135.908 182.703 135.908C183.589 135.908 184.303 135.609 184.845 135.012L185.587 135.88C185.251 136.272 184.831 136.571 184.327 136.776C183.832 136.981 183.277 137.084 182.661 137.084C181.877 137.084 181.181 136.925 180.575 136.608C179.968 136.281 179.497 135.829 179.161 135.25C178.834 134.671 178.671 134.018 178.671 133.29C178.671 132.571 178.829 131.923 179.147 131.344C179.473 130.765 179.917 130.317 180.477 130C181.046 129.673 181.685 129.51 182.395 129.51C183.104 129.51 183.734 129.673 184.285 130C184.845 130.317 185.279 130.765 185.587 131.344C185.904 131.923 186.063 132.585 186.063 133.332ZM182.395 130.644C181.751 130.644 181.209 130.84 180.771 131.232C180.341 131.624 180.089 132.137 180.015 132.772H184.775C184.7 132.147 184.443 131.638 184.005 131.246C183.575 130.845 183.039 130.644 182.395 130.644ZM188.148 129.58H189.492V134.984L194.042 129.58H195.26V137H193.916V131.596L189.38 137H188.148V129.58ZM191.62 128.614C190.929 128.614 190.392 128.451 190.01 128.124C189.627 127.788 189.431 127.307 189.422 126.682H190.332C190.341 127.027 190.458 127.307 190.682 127.522C190.915 127.727 191.223 127.83 191.606 127.83C191.988 127.83 192.296 127.727 192.53 127.522C192.763 127.307 192.884 127.027 192.894 126.682H193.832C193.822 127.307 193.622 127.788 193.23 128.124C192.838 128.451 192.301 128.614 191.62 128.614ZM200.752 133.864H199.212V137H197.868V129.58H199.212V132.716H200.78L203.188 129.58H204.63L201.816 133.15L204.826 137H203.244L200.752 133.864Z" fill="white"/>
<circle cx="84" cy="133" r="6.5" stroke="#FF8686" stroke-width="5"/>
<path d="M5.562 214.4V227H2.646V216.74H0.126V214.4H5.562ZM17.1648 224.624V227H7.64283V225.11L12.5028 220.52C13.0188 220.028 13.3668 219.608 13.5468 219.26C13.7268 218.9 13.8168 218.546 13.8168 218.198C13.8168 217.694 13.6428 217.31 13.2948 217.046C12.9588 216.77 12.4608 216.632 11.8008 216.632C11.2488 216.632 10.7508 216.74 10.3068 216.956C9.86283 217.16 9.49083 217.472 9.19083 217.892L7.06683 216.524C7.55883 215.792 8.23683 215.222 9.10083 214.814C9.96483 214.394 10.9548 214.184 12.0708 214.184C13.0068 214.184 13.8228 214.34 14.5188 214.652C15.2268 214.952 15.7728 215.384 16.1568 215.948C16.5528 216.5 16.7508 217.154 16.7508 217.91C16.7508 218.594 16.6068 219.236 16.3188 219.836C16.0308 220.436 15.4728 221.12 14.6448 221.888L11.7468 224.624H17.1648ZM20.024 220.682C19.532 220.682 19.118 220.514 18.782 220.178C18.446 219.842 18.278 219.422 18.278 218.918C18.278 218.402 18.446 217.988 18.782 217.676C19.118 217.352 19.532 217.19 20.024 217.19C20.516 217.19 20.93 217.352 21.266 217.676C21.602 217.988 21.77 218.402 21.77 218.918C21.77 219.422 21.602 219.842 21.266 220.178C20.93 220.514 20.516 220.682 20.024 220.682ZM20.024 227.144C19.532 227.144 19.118 226.976 18.782 226.64C18.446 226.304 18.278 225.884 18.278 225.38C18.278 224.864 18.446 224.45 18.782 224.138C19.118 223.814 19.532 223.652 20.024 223.652C20.516 223.652 20.93 223.814 21.266 224.138C21.602 224.45 21.77 224.864 21.77 225.38C21.77 225.884 21.602 226.304 21.266 226.64C20.93 226.976 20.516 227.144 20.024 227.144ZM28.479 227.216C27.435 227.216 26.505 226.958 25.689 226.442C24.873 225.926 24.231 225.182 23.763 224.21C23.307 223.226 23.079 222.056 23.079 220.7C23.079 219.344 23.307 218.18 23.763 217.208C24.231 216.224 24.873 215.474 25.689 214.958C26.505 214.442 27.435 214.184 28.479 214.184C29.523 214.184 30.453 214.442 31.269 214.958C32.085 215.474 32.721 216.224 33.177 217.208C33.645 218.18 33.879 219.344 33.879 220.7C33.879 222.056 33.645 223.226 33.177 224.21C32.721 225.182 32.085 225.926 31.269 226.442C30.453 226.958 29.523 227.216 28.479 227.216ZM28.479 224.75C29.247 224.75 29.847 224.42 30.279 223.76C30.723 223.1 30.945 222.08 30.945 220.7C30.945 219.32 30.723 218.3 30.279 217.64C29.847 216.98 29.247 216.65 28.479 216.65C27.723 216.65 27.123 216.98 26.679 217.64C26.247 218.3 26.031 219.32 26.031 220.7C26.031 222.08 26.247 223.1 26.679 223.76C27.123 224.42 27.723 224.75 28.479 224.75ZM40.6958 227.216C39.6518 227.216 38.7218 226.958 37.9058 226.442C37.0898 225.926 36.4478 225.182 35.9798 224.21C35.5238 223.226 35.2958 222.056 35.2958 220.7C35.2958 219.344 35.5238 218.18 35.9798 217.208C36.4478 216.224 37.0898 215.474 37.9058 214.958C38.7218 214.442 39.6518 214.184 40.6958 214.184C41.7398 214.184 42.6698 214.442 43.4858 214.958C44.3018 215.474 44.9378 216.224 45.3938 217.208C45.8618 218.18 46.0958 219.344 46.0958 220.7C46.0958 222.056 45.8618 223.226 45.3938 224.21C44.9378 225.182 44.3018 225.926 43.4858 226.442C42.6698 226.958 41.7398 227.216 40.6958 227.216ZM40.6958 224.75C41.4638 224.75 42.0638 224.42 42.4958 223.76C42.9398 223.1 43.1618 222.08 43.1618 220.7C43.1618 219.32 42.9398 218.3 42.4958 217.64C42.0638 216.98 41.4638 216.65 40.6958 216.65C39.9398 216.65 39.3398 216.98 38.8958 217.64C38.4638 218.3 38.2478 219.32 38.2478 220.7C38.2478 222.08 38.4638 223.1 38.8958 223.76C39.3398 224.42 39.9398 224.75 40.6958 224.75Z" fill="#FF8686"/>
<path d="M123.778 215.2V225H122.392V221.122C121.356 221.523 120.399 221.724 119.522 221.724C118.327 221.724 117.399 221.435 116.736 220.856C116.083 220.277 115.756 219.451 115.756 218.378V215.2H117.128V218.224C117.128 218.952 117.347 219.512 117.786 219.904C118.234 220.296 118.864 220.492 119.676 220.492C120.581 220.492 121.487 220.287 122.392 219.876V215.2H123.778ZM133.317 221.332C133.317 221.435 133.307 221.57 133.289 221.738H127.269C127.353 222.391 127.637 222.919 128.123 223.32C128.617 223.712 129.229 223.908 129.957 223.908C130.843 223.908 131.557 223.609 132.099 223.012L132.841 223.88C132.505 224.272 132.085 224.571 131.581 224.776C131.086 224.981 130.531 225.084 129.915 225.084C129.131 225.084 128.435 224.925 127.829 224.608C127.222 224.281 126.751 223.829 126.415 223.25C126.088 222.671 125.925 222.018 125.925 221.29C125.925 220.571 126.083 219.923 126.401 219.344C126.727 218.765 127.171 218.317 127.731 218C128.3 217.673 128.939 217.51 129.649 217.51C130.358 217.51 130.988 217.673 131.539 218C132.099 218.317 132.533 218.765 132.841 219.344C133.158 219.923 133.317 220.585 133.317 221.332ZM129.649 218.644C129.005 218.644 128.463 218.84 128.025 219.232C127.595 219.624 127.343 220.137 127.269 220.772H132.029C131.954 220.147 131.697 219.638 131.259 219.246C130.829 218.845 130.293 218.644 129.649 218.644ZM138.286 221.864H136.746V225H135.402V217.58H136.746V220.716H138.314L140.722 217.58H142.164L139.35 221.15L142.36 225H140.778L138.286 221.864ZM142.937 220.576H146.703V221.738H142.937V220.576ZM155.674 217.58V225H154.33V218.756H150.144V225H148.8V217.58H155.674ZM161.453 225.084C160.715 225.084 160.053 224.921 159.465 224.594C158.877 224.267 158.415 223.819 158.079 223.25C157.752 222.671 157.589 222.018 157.589 221.29C157.589 220.562 157.752 219.913 158.079 219.344C158.415 218.765 158.877 218.317 159.465 218C160.053 217.673 160.715 217.51 161.453 217.51C162.19 217.51 162.848 217.673 163.427 218C164.015 218.317 164.472 218.765 164.799 219.344C165.135 219.913 165.303 220.562 165.303 221.29C165.303 222.018 165.135 222.671 164.799 223.25C164.472 223.819 164.015 224.267 163.427 224.594C162.848 224.921 162.19 225.084 161.453 225.084ZM161.453 223.908C161.929 223.908 162.353 223.801 162.727 223.586C163.109 223.362 163.408 223.054 163.623 222.662C163.837 222.261 163.945 221.803 163.945 221.29C163.945 220.777 163.837 220.324 163.623 219.932C163.408 219.531 163.109 219.223 162.727 219.008C162.353 218.793 161.929 218.686 161.453 218.686C160.977 218.686 160.547 218.793 160.165 219.008C159.791 219.223 159.493 219.531 159.269 219.932C159.054 220.324 158.947 220.777 158.947 221.29C158.947 221.803 159.054 222.261 159.269 222.662C159.493 223.054 159.791 223.362 160.165 223.586C160.547 223.801 160.977 223.908 161.453 223.908ZM167.243 217.58H168.587V222.984L173.137 217.58H174.355V225H173.011V219.596L168.475 225H167.243V217.58ZM170.715 216.614C170.025 216.614 169.488 216.451 169.105 216.124C168.723 215.788 168.527 215.307 168.517 214.682H169.427C169.437 215.027 169.553 215.307 169.777 215.522C170.011 215.727 170.319 215.83 170.701 215.83C171.084 215.83 171.392 215.727 171.625 215.522C171.859 215.307 171.98 215.027 171.989 214.682H172.927C172.918 215.307 172.717 215.788 172.325 216.124C171.933 216.451 171.397 216.614 170.715 216.614ZM176.964 217.58H178.308V220.73H182.536V217.58H183.88V225H182.536V221.892H178.308V225H176.964V217.58ZM192.023 218.756H189.307V225H187.963V218.756H185.247V217.58H192.023V218.756ZM209.519 219.638C209.043 219.638 208.614 219.54 208.231 219.344C207.858 219.148 207.564 218.877 207.349 218.532C207.135 218.187 207.027 217.799 207.027 217.37C207.027 216.941 207.135 216.553 207.349 216.208C207.564 215.863 207.858 215.597 208.231 215.41C208.614 215.214 209.043 215.116 209.519 215.116C209.995 215.116 210.42 215.214 210.793 215.41C211.176 215.597 211.47 215.863 211.675 216.208C211.89 216.553 211.997 216.941 211.997 217.37C211.997 217.799 211.89 218.187 211.675 218.532C211.47 218.877 211.176 219.148 210.793 219.344C210.42 219.54 209.995 219.638 209.519 219.638ZM204.353 215.2H205.753V225H204.605L198.725 217.692V225H197.325V215.2H198.473L204.353 222.508V215.2ZM209.519 215.914C209.053 215.914 208.675 216.049 208.385 216.32C208.105 216.591 207.965 216.941 207.965 217.37C207.965 217.799 208.11 218.149 208.399 218.42C208.689 218.691 209.062 218.826 209.519 218.826C209.977 218.826 210.345 218.691 210.625 218.42C210.915 218.149 211.059 217.799 211.059 217.37C211.059 216.941 210.915 216.591 210.625 216.32C210.345 216.049 209.977 215.914 209.519 215.914ZM207.307 220.744H211.731V221.654H207.307V220.744ZM224.033 223.782V225H216.991V224.048L220.981 220.198C221.466 219.731 221.793 219.33 221.961 218.994C222.129 218.649 222.213 218.303 222.213 217.958C222.213 217.445 222.031 217.048 221.667 216.768C221.312 216.479 220.799 216.334 220.127 216.334C219.044 216.334 218.209 216.689 217.621 217.398L216.669 216.572C217.051 216.105 217.551 215.741 218.167 215.48C218.792 215.219 219.487 215.088 220.253 215.088C221.279 215.088 222.096 215.335 222.703 215.83C223.309 216.315 223.613 216.978 223.613 217.818C223.613 218.341 223.501 218.835 223.277 219.302C223.053 219.769 222.628 220.301 222.003 220.898L219.007 223.782H224.033Z" fill="white"/>
<circle cx="84" cy="220" r="6.5" stroke="#FF8686" stroke-width="5"/>
<path d="M5.562 300.4V313H2.646V302.74H0.126V300.4H5.562ZM13.6368 305.53C14.7408 305.71 15.5868 306.124 16.1748 306.772C16.7628 307.408 17.0568 308.2 17.0568 309.148C17.0568 309.88 16.8648 310.558 16.4808 311.182C16.0968 311.794 15.5088 312.286 14.7168 312.658C13.9368 313.03 12.9768 313.216 11.8368 313.216C10.9488 313.216 10.0728 313.102 9.20883 312.874C8.35683 312.634 7.63083 312.298 7.03083 311.866L8.16483 309.634C8.64483 309.994 9.19683 310.276 9.82083 310.48C10.4568 310.672 11.1048 310.768 11.7648 310.768C12.4968 310.768 13.0728 310.63 13.4928 310.354C13.9128 310.066 14.1228 309.664 14.1228 309.148C14.1228 308.116 13.3368 307.6 11.7648 307.6H10.4328V305.674L13.0248 302.74H7.66083V300.4H16.4808V302.29L13.6368 305.53ZM20.0592 306.682C19.5672 306.682 19.1532 306.514 18.8172 306.178C18.4812 305.842 18.3132 305.422 18.3132 304.918C18.3132 304.402 18.4812 303.988 18.8172 303.676C19.1532 303.352 19.5672 303.19 20.0592 303.19C20.5512 303.19 20.9652 303.352 21.3012 303.676C21.6372 303.988 21.8052 304.402 21.8052 304.918C21.8052 305.422 21.6372 305.842 21.3012 306.178C20.9652 306.514 20.5512 306.682 20.0592 306.682ZM20.0592 313.144C19.5672 313.144 19.1532 312.976 18.8172 312.64C18.4812 312.304 18.3132 311.884 18.3132 311.38C18.3132 310.864 18.4812 310.45 18.8172 310.138C19.1532 309.814 19.5672 309.652 20.0592 309.652C20.5512 309.652 20.9652 309.814 21.3012 310.138C21.6372 310.45 21.8052 310.864 21.8052 311.38C21.8052 311.884 21.6372 312.304 21.3012 312.64C20.9652 312.976 20.5512 313.144 20.0592 313.144ZM28.5141 313.216C27.4701 313.216 26.5401 312.958 25.7241 312.442C24.9081 311.926 24.2661 311.182 23.7981 310.21C23.3421 309.226 23.1141 308.056 23.1141 306.7C23.1141 305.344 23.3421 304.18 23.7981 303.208C24.2661 302.224 24.9081 301.474 25.7241 300.958C26.5401 300.442 27.4701 300.184 28.5141 300.184C29.5581 300.184 30.4881 300.442 31.3041 300.958C32.1201 301.474 32.7561 302.224 33.2121 303.208C33.6801 304.18 33.9141 305.344 33.9141 306.7C33.9141 308.056 33.6801 309.226 33.2121 310.21C32.7561 311.182 32.1201 311.926 31.3041 312.442C30.4881 312.958 29.5581 313.216 28.5141 313.216ZM28.5141 310.75C29.2821 310.75 29.8821 310.42 30.3141 309.76C30.7581 309.1 30.9801 308.08 30.9801 306.7C30.9801 305.32 30.7581 304.3 30.3141 303.64C29.8821 302.98 29.2821 302.65 28.5141 302.65C27.7581 302.65 27.1581 302.98 26.7141 303.64C26.2821 304.3 26.0661 305.32 26.0661 306.7C26.0661 308.08 26.2821 309.1 26.7141 309.76C27.1581 310.42 27.7581 310.75 28.5141 310.75ZM40.7309 313.216C39.6869 313.216 38.7569 312.958 37.9409 312.442C37.1249 311.926 36.4829 311.182 36.0149 310.21C35.5589 309.226 35.3309 308.056 35.3309 306.7C35.3309 305.344 35.5589 304.18 36.0149 303.208C36.4829 302.224 37.1249 301.474 37.9409 300.958C38.7569 300.442 39.6869 300.184 40.7309 300.184C41.7749 300.184 42.7049 300.442 43.5209 300.958C44.3369 301.474 44.9729 302.224 45.4289 303.208C45.8969 304.18 46.1309 305.344 46.1309 306.7C46.1309 308.056 45.8969 309.226 45.4289 310.21C44.9729 311.182 44.3369 311.926 43.5209 312.442C42.7049 312.958 41.7749 313.216 40.7309 313.216ZM40.7309 310.75C41.4989 310.75 42.0989 310.42 42.5309 309.76C42.9749 309.1 43.1969 308.08 43.1969 306.7C43.1969 305.32 42.9749 304.3 42.5309 303.64C42.0989 302.98 41.4989 302.65 40.7309 302.65C39.9749 302.65 39.3749 302.98 38.9309 303.64C38.4989 304.3 38.2829 305.32 38.2829 306.7C38.2829 308.08 38.4989 309.1 38.9309 309.76C39.3749 310.42 39.9749 310.75 40.7309 310.75Z" fill="#FF8686"/>
<path d="M120.936 311.112C119.947 311.112 119.055 310.897 118.262 310.468C117.469 310.029 116.843 309.427 116.386 308.662C115.938 307.897 115.714 307.043 115.714 306.1C115.714 305.157 115.938 304.303 116.386 303.538C116.843 302.773 117.469 302.175 118.262 301.746C119.055 301.307 119.947 301.088 120.936 301.088C121.916 301.088 122.803 301.307 123.596 301.746C124.389 302.175 125.01 302.773 125.458 303.538C125.906 304.294 126.13 305.148 126.13 306.1C126.13 307.052 125.906 307.911 125.458 308.676C125.01 309.432 124.389 310.029 123.596 310.468C122.803 310.897 121.916 311.112 120.936 311.112ZM120.936 309.866C121.655 309.866 122.299 309.703 122.868 309.376C123.447 309.049 123.899 308.601 124.226 308.032C124.562 307.453 124.73 306.809 124.73 306.1C124.73 305.391 124.562 304.751 124.226 304.182C123.899 303.603 123.447 303.151 122.868 302.824C122.299 302.497 121.655 302.334 120.936 302.334C120.217 302.334 119.564 302.497 118.976 302.824C118.397 303.151 117.94 303.603 117.604 304.182C117.277 304.751 117.114 305.391 117.114 306.1C117.114 306.809 117.277 307.453 117.604 308.032C117.94 308.601 118.397 309.049 118.976 309.376C119.564 309.703 120.217 309.866 120.936 309.866ZM131.949 303.832C132.64 303.832 133.256 303.986 133.797 304.294C134.339 304.602 134.759 305.031 135.057 305.582C135.365 306.123 135.519 306.744 135.519 307.444C135.519 308.163 135.356 308.802 135.029 309.362C134.712 309.913 134.259 310.342 133.671 310.65C133.093 310.958 132.43 311.112 131.683 311.112C130.423 311.112 129.448 310.683 128.757 309.824C128.076 308.956 127.735 307.738 127.735 306.17C127.735 304.649 128.048 303.459 128.673 302.6C129.299 301.732 130.255 301.158 131.543 300.878L134.931 300.122L135.127 301.354L132.005 302.026C131.035 302.241 130.311 302.605 129.835 303.118C129.359 303.631 129.089 304.369 129.023 305.33C129.341 304.854 129.751 304.485 130.255 304.224C130.759 303.963 131.324 303.832 131.949 303.832ZM131.711 309.992C132.187 309.992 132.607 309.885 132.971 309.67C133.345 309.455 133.634 309.161 133.839 308.788C134.045 308.405 134.147 307.971 134.147 307.486C134.147 306.749 133.923 306.156 133.475 305.708C133.027 305.26 132.439 305.036 131.711 305.036C130.983 305.036 130.391 305.26 129.933 305.708C129.485 306.156 129.261 306.749 129.261 307.486C129.261 307.971 129.364 308.405 129.569 308.788C129.784 309.161 130.078 309.455 130.451 309.67C130.825 309.885 131.245 309.992 131.711 309.992ZM144.145 307.332C144.145 307.435 144.135 307.57 144.117 307.738H138.097C138.181 308.391 138.465 308.919 138.951 309.32C139.445 309.712 140.057 309.908 140.785 309.908C141.671 309.908 142.385 309.609 142.927 309.012L143.669 309.88C143.333 310.272 142.913 310.571 142.409 310.776C141.914 310.981 141.359 311.084 140.743 311.084C139.959 311.084 139.263 310.925 138.657 310.608C138.05 310.281 137.579 309.829 137.243 309.25C136.916 308.671 136.753 308.018 136.753 307.29C136.753 306.571 136.911 305.923 137.229 305.344C137.555 304.765 137.999 304.317 138.559 304C139.128 303.673 139.767 303.51 140.477 303.51C141.186 303.51 141.816 303.673 142.367 304C142.927 304.317 143.361 304.765 143.669 305.344C143.986 305.923 144.145 306.585 144.145 307.332ZM140.477 304.644C139.833 304.644 139.291 304.84 138.853 305.232C138.423 305.624 138.171 306.137 138.097 306.772H142.857C142.782 306.147 142.525 305.638 142.087 305.246C141.657 304.845 141.121 304.644 140.477 304.644ZM153.653 309.824V312.722H152.393V311H146.191V312.722H144.917V309.824H145.309C145.785 309.796 146.111 309.46 146.289 308.816C146.466 308.172 146.587 307.262 146.653 306.086L146.765 303.58H152.519V309.824H153.653ZM147.885 306.184C147.847 307.117 147.768 307.892 147.647 308.508C147.535 309.115 147.325 309.553 147.017 309.824H151.175V304.756H147.955L147.885 306.184Z" fill="white"/>
<circle cx="84" cy="306" r="6.5" stroke="#FF8686" stroke-width="5"/>
<path d="M5.562 389.4V402H2.646V391.74H0.126V389.4H5.562ZM12.1788 389.184C13.9428 389.184 15.3228 389.724 16.3188 390.804C17.3148 391.872 17.8128 393.414 17.8128 395.43C17.8128 396.858 17.5428 398.082 17.0028 399.102C16.4748 400.122 15.7248 400.896 14.7528 401.424C13.7808 401.952 12.6588 402.216 11.3868 402.216C10.7148 402.216 10.0728 402.144 9.46083 402C8.84883 401.844 8.32683 401.628 7.89483 401.352L8.97483 399.21C9.58683 399.63 10.3728 399.84 11.3328 399.84C12.4008 399.84 13.2468 399.528 13.8708 398.904C14.4948 398.268 14.8308 397.356 14.8788 396.168C14.1228 396.924 13.0788 397.302 11.7468 397.302C10.9428 397.302 10.2108 397.14 9.55083 396.816C8.89083 396.492 8.36883 396.036 7.98483 395.448C7.60083 394.848 7.40883 394.158 7.40883 393.378C7.40883 392.538 7.61883 391.8 8.03883 391.164C8.45883 390.528 9.02883 390.042 9.74883 389.706C10.4808 389.358 11.2908 389.184 12.1788 389.184ZM12.3948 395.124C13.0308 395.124 13.5468 394.95 13.9428 394.602C14.3508 394.242 14.5548 393.786 14.5548 393.234C14.5548 392.682 14.3568 392.232 13.9608 391.884C13.5768 391.536 13.0428 391.362 12.3588 391.362C11.7348 391.362 11.2248 391.53 10.8288 391.866C10.4448 392.202 10.2528 392.658 10.2528 393.234C10.2528 393.81 10.4448 394.272 10.8288 394.62C11.2248 394.956 11.7468 395.124 12.3948 395.124ZM20.8678 395.682C20.3758 395.682 19.9618 395.514 19.6258 395.178C19.2898 394.842 19.1218 394.422 19.1218 393.918C19.1218 393.402 19.2898 392.988 19.6258 392.676C19.9618 392.352 20.3758 392.19 20.8678 392.19C21.3598 392.19 21.7738 392.352 22.1098 392.676C22.4458 392.988 22.6138 393.402 22.6138 393.918C22.6138 394.422 22.4458 394.842 22.1098 395.178C21.7738 395.514 21.3598 395.682 20.8678 395.682ZM20.8678 402.144C20.3758 402.144 19.9618 401.976 19.6258 401.64C19.2898 401.304 19.1218 400.884 19.1218 400.38C19.1218 399.864 19.2898 399.45 19.6258 399.138C19.9618 398.814 20.3758 398.652 20.8678 398.652C21.3598 398.652 21.7738 398.814 22.1098 399.138C22.4458 399.45 22.6138 399.864 22.6138 400.38C22.6138 400.884 22.4458 401.304 22.1098 401.64C21.7738 401.976 21.3598 402.144 20.8678 402.144ZM29.3227 402.216C28.2787 402.216 27.3487 401.958 26.5327 401.442C25.7167 400.926 25.0747 400.182 24.6067 399.21C24.1507 398.226 23.9227 397.056 23.9227 395.7C23.9227 394.344 24.1507 393.18 24.6067 392.208C25.0747 391.224 25.7167 390.474 26.5327 389.958C27.3487 389.442 28.2787 389.184 29.3227 389.184C30.3667 389.184 31.2967 389.442 32.1127 389.958C32.9287 390.474 33.5647 391.224 34.0207 392.208C34.4887 393.18 34.7227 394.344 34.7227 395.7C34.7227 397.056 34.4887 398.226 34.0207 399.21C33.5647 400.182 32.9287 400.926 32.1127 401.442C31.2967 401.958 30.3667 402.216 29.3227 402.216ZM29.3227 399.75C30.0907 399.75 30.6907 399.42 31.1227 398.76C31.5667 398.1 31.7887 397.08 31.7887 395.7C31.7887 394.32 31.5667 393.3 31.1227 392.64C30.6907 391.98 30.0907 391.65 29.3227 391.65C28.5667 391.65 27.9667 391.98 27.5227 392.64C27.0907 393.3 26.8747 394.32 26.8747 395.7C26.8747 397.08 27.0907 398.1 27.5227 398.76C27.9667 399.42 28.5667 399.75 29.3227 399.75ZM41.5395 402.216C40.4955 402.216 39.5655 401.958 38.7495 401.442C37.9335 400.926 37.2915 400.182 36.8235 399.21C36.3675 398.226 36.1395 397.056 36.1395 395.7C36.1395 394.344 36.3675 393.18 36.8235 392.208C37.2915 391.224 37.9335 390.474 38.7495 389.958C39.5655 389.442 40.4955 389.184 41.5395 389.184C42.5835 389.184 43.5135 389.442 44.3295 389.958C45.1455 390.474 45.7815 391.224 46.2375 392.208C46.7055 393.18 46.9395 394.344 46.9395 395.7C46.9395 397.056 46.7055 398.226 46.2375 399.21C45.7815 400.182 45.1455 400.926 44.3295 401.442C43.5135 401.958 42.5835 402.216 41.5395 402.216ZM41.5395 399.75C42.3075 399.75 42.9075 399.42 43.3395 398.76C43.7835 398.1 44.0055 397.08 44.0055 395.7C44.0055 394.32 43.7835 393.3 43.3395 392.64C42.9075 391.98 42.3075 391.65 41.5395 391.65C40.7835 391.65 40.1835 391.98 39.7395 392.64C39.3075 393.3 39.0915 394.32 39.0915 395.7C39.0915 397.08 39.3075 398.1 39.7395 398.76C40.1835 399.42 40.7835 399.75 41.5395 399.75Z" fill="#FF8686"/>
<path d="M124.548 390.2L120.194 398.278C119.849 398.922 119.443 399.403 118.976 399.72C118.509 400.037 118.001 400.196 117.45 400.196C117.021 400.196 116.582 400.098 116.134 399.902L116.498 398.782C116.843 398.903 117.151 398.964 117.422 398.964C118.038 398.964 118.547 398.637 118.948 397.984L119.172 397.634L115.224 390.2H116.722L119.9 396.416L123.162 390.2H124.548ZM132.265 396.864H130.823V400H129.479V396.864H128.037L125.993 400H124.397L126.945 396.164L124.593 392.58H126.021L128.023 395.716H129.479V392.58H130.823V395.716H132.279L134.281 392.58H135.723L133.371 396.178L135.919 400H134.323L132.265 396.864ZM137.398 392.58H138.742V397.984L143.292 392.58H144.51V400H143.166V394.596L138.63 400H137.398V392.58ZM147.118 392.58H148.462V395.73H152.69V392.58H154.034V400H152.69V396.892H148.462V400H147.118V392.58Z" fill="white"/>
<circle cx="84" cy="396" r="6.5" stroke="#FF8686" stroke-width="5"/>
<path d="M10.116 489.624V492H0.594V490.11L5.454 485.52C5.97 485.028 6.318 484.608 6.498 484.26C6.678 483.9 6.768 483.546 6.768 483.198C6.768 482.694 6.594 482.31 6.246 482.046C5.91 481.77 5.412 481.632 4.752 481.632C4.2 481.632 3.702 481.74 3.258 481.956C2.814 482.16 2.442 482.472 2.142 482.892L0.018 481.524C0.51 480.792 1.188 480.222 2.052 479.814C2.916 479.394 3.906 479.184 5.022 479.184C5.958 479.184 6.774 479.34 7.47 479.652C8.178 479.952 8.724 480.384 9.108 480.948C9.504 481.5 9.702 482.154 9.702 482.91C9.702 483.594 9.558 484.236 9.27 484.836C8.982 485.436 8.424 486.12 7.596 486.888L4.698 489.624H10.116ZM16.684 492.216C15.64 492.216 14.71 491.958 13.894 491.442C13.078 490.926 12.436 490.182 11.968 489.21C11.512 488.226 11.284 487.056 11.284 485.7C11.284 484.344 11.512 483.18 11.968 482.208C12.436 481.224 13.078 480.474 13.894 479.958C14.71 479.442 15.64 479.184 16.684 479.184C17.728 479.184 18.658 479.442 19.474 479.958C20.29 480.474 20.926 481.224 21.382 482.208C21.85 483.18 22.084 484.344 22.084 485.7C22.084 487.056 21.85 488.226 21.382 489.21C20.926 490.182 20.29 490.926 19.474 491.442C18.658 491.958 17.728 492.216 16.684 492.216ZM16.684 489.75C17.452 489.75 18.052 489.42 18.484 488.76C18.928 488.1 19.15 487.08 19.15 485.7C19.15 484.32 18.928 483.3 18.484 482.64C18.052 481.98 17.452 481.65 16.684 481.65C15.928 481.65 15.328 481.98 14.884 482.64C14.452 483.3 14.236 484.32 14.236 485.7C14.236 487.08 14.452 488.1 14.884 488.76C15.328 489.42 15.928 489.75 16.684 489.75ZM25.1568 485.682C24.6648 485.682 24.2508 485.514 23.9148 485.178C23.5788 484.842 23.4108 484.422 23.4108 483.918C23.4108 483.402 23.5788 482.988 23.9148 482.676C24.2508 482.352 24.6648 482.19 25.1568 482.19C25.6488 482.19 26.0628 482.352 26.3988 482.676C26.7348 482.988 26.9028 483.402 26.9028 483.918C26.9028 484.422 26.7348 484.842 26.3988 485.178C26.0628 485.514 25.6488 485.682 25.1568 485.682ZM25.1568 492.144C24.6648 492.144 24.2508 491.976 23.9148 491.64C23.5788 491.304 23.4108 490.884 23.4108 490.38C23.4108 489.864 23.5788 489.45 23.9148 489.138C24.2508 488.814 24.6648 488.652 25.1568 488.652C25.6488 488.652 26.0628 488.814 26.3988 489.138C26.7348 489.45 26.9028 489.864 26.9028 490.38C26.9028 490.884 26.7348 491.304 26.3988 491.64C26.0628 491.976 25.6488 492.144 25.1568 492.144ZM33.6118 492.216C32.5678 492.216 31.6378 491.958 30.8218 491.442C30.0058 490.926 29.3638 490.182 28.8958 489.21C28.4398 488.226 28.2118 487.056 28.2118 485.7C28.2118 484.344 28.4398 483.18 28.8958 482.208C29.3638 481.224 30.0058 480.474 30.8218 479.958C31.6378 479.442 32.5678 479.184 33.6118 479.184C34.6558 479.184 35.5858 479.442 36.4018 479.958C37.2178 480.474 37.8538 481.224 38.3098 482.208C38.7778 483.18 39.0118 484.344 39.0118 485.7C39.0118 487.056 38.7778 488.226 38.3098 489.21C37.8538 490.182 37.2178 490.926 36.4018 491.442C35.5858 491.958 34.6558 492.216 33.6118 492.216ZM33.6118 489.75C34.3798 489.75 34.9798 489.42 35.4118 488.76C35.8558 488.1 36.0778 487.08 36.0778 485.7C36.0778 484.32 35.8558 483.3 35.4118 482.64C34.9798 481.98 34.3798 481.65 33.6118 481.65C32.8558 481.65 32.2558 481.98 31.8118 482.64C31.3798 483.3 31.1638 484.32 31.1638 485.7C31.1638 487.08 31.3798 488.1 31.8118 488.76C32.2558 489.42 32.8558 489.75 33.6118 489.75ZM45.8286 492.216C44.7846 492.216 43.8546 491.958 43.0386 491.442C42.2226 490.926 41.5806 490.182 41.1126 489.21C40.6566 488.226 40.4286 487.056 40.4286 485.7C40.4286 484.344 40.6566 483.18 41.1126 482.208C41.5806 481.224 42.2226 480.474 43.0386 479.958C43.8546 479.442 44.7846 479.184 45.8286 479.184C46.8726 479.184 47.8026 479.442 48.6186 479.958C49.4346 480.474 50.0706 481.224 50.5266 482.208C50.9946 483.18 51.2286 484.344 51.2286 485.7C51.2286 487.056 50.9946 488.226 50.5266 489.21C50.0706 490.182 49.4346 490.926 48.6186 491.442C47.8026 491.958 46.8726 492.216 45.8286 492.216ZM45.8286 489.75C46.5966 489.75 47.1966 489.42 47.6286 488.76C48.0726 488.1 48.2946 487.08 48.2946 485.7C48.2946 484.32 48.0726 483.3 47.6286 482.64C47.1966 481.98 46.5966 481.65 45.8286 481.65C45.0726 481.65 44.4726 481.98 44.0286 482.64C43.5966 483.3 43.3806 484.32 43.3806 485.7C43.3806 487.08 43.5966 488.1 44.0286 488.76C44.4726 489.42 45.0726 489.75 45.8286 489.75Z" fill="#FF8686"/>
<path d="M123.778 480.2V490H122.392V486.122C121.356 486.523 120.399 486.724 119.522 486.724C118.327 486.724 117.399 486.435 116.736 485.856C116.083 485.277 115.756 484.451 115.756 483.378V480.2H117.128V483.224C117.128 483.952 117.347 484.512 117.786 484.904C118.234 485.296 118.864 485.492 119.676 485.492C120.581 485.492 121.487 485.287 122.392 484.876V480.2H123.778ZM133.317 486.332C133.317 486.435 133.307 486.57 133.289 486.738H127.269C127.353 487.391 127.637 487.919 128.123 488.32C128.617 488.712 129.229 488.908 129.957 488.908C130.843 488.908 131.557 488.609 132.099 488.012L132.841 488.88C132.505 489.272 132.085 489.571 131.581 489.776C131.086 489.981 130.531 490.084 129.915 490.084C129.131 490.084 128.435 489.925 127.829 489.608C127.222 489.281 126.751 488.829 126.415 488.25C126.088 487.671 125.925 487.018 125.925 486.29C125.925 485.571 126.083 484.923 126.401 484.344C126.727 483.765 127.171 483.317 127.731 483C128.3 482.673 128.939 482.51 129.649 482.51C130.358 482.51 130.988 482.673 131.539 483C132.099 483.317 132.533 483.765 132.841 484.344C133.158 484.923 133.317 485.585 133.317 486.332ZM129.649 483.644C129.005 483.644 128.463 483.84 128.025 484.232C127.595 484.624 127.343 485.137 127.269 485.772H132.029C131.954 485.147 131.697 484.638 131.259 484.246C130.829 483.845 130.293 483.644 129.649 483.644ZM138.286 486.864H136.746V490H135.402V482.58H136.746V485.716H138.314L140.722 482.58H142.164L139.35 486.15L142.36 490H140.778L138.286 486.864ZM142.937 485.576H146.703V486.738H142.937V485.576ZM155.674 482.58V490H154.33V483.756H150.144V490H148.8V482.58H155.674ZM161.453 490.084C160.715 490.084 160.053 489.921 159.465 489.594C158.877 489.267 158.415 488.819 158.079 488.25C157.752 487.671 157.589 487.018 157.589 486.29C157.589 485.562 157.752 484.913 158.079 484.344C158.415 483.765 158.877 483.317 159.465 483C160.053 482.673 160.715 482.51 161.453 482.51C162.19 482.51 162.848 482.673 163.427 483C164.015 483.317 164.472 483.765 164.799 484.344C165.135 484.913 165.303 485.562 165.303 486.29C165.303 487.018 165.135 487.671 164.799 488.25C164.472 488.819 164.015 489.267 163.427 489.594C162.848 489.921 162.19 490.084 161.453 490.084ZM161.453 488.908C161.929 488.908 162.353 488.801 162.727 488.586C163.109 488.362 163.408 488.054 163.623 487.662C163.837 487.261 163.945 486.803 163.945 486.29C163.945 485.777 163.837 485.324 163.623 484.932C163.408 484.531 163.109 484.223 162.727 484.008C162.353 483.793 161.929 483.686 161.453 483.686C160.977 483.686 160.547 483.793 160.165 484.008C159.791 484.223 159.493 484.531 159.269 484.932C159.054 485.324 158.947 485.777 158.947 486.29C158.947 486.803 159.054 487.261 159.269 487.662C159.493 488.054 159.791 488.362 160.165 488.586C160.547 488.801 160.977 488.908 161.453 488.908ZM167.243 482.58H168.587V487.984L173.137 482.58H174.355V490H173.011V484.596L168.475 490H167.243V482.58ZM170.715 481.614C170.025 481.614 169.488 481.451 169.105 481.124C168.723 480.788 168.527 480.307 168.517 479.682H169.427C169.437 480.027 169.553 480.307 169.777 480.522C170.011 480.727 170.319 480.83 170.701 480.83C171.084 480.83 171.392 480.727 171.625 480.522C171.859 480.307 171.98 480.027 171.989 479.682H172.927C172.918 480.307 172.717 480.788 172.325 481.124C171.933 481.451 171.397 481.614 170.715 481.614ZM176.964 482.58H178.308V485.73H182.536V482.58H183.88V490H182.536V486.892H178.308V490H176.964V482.58ZM192.023 483.756H189.307V490H187.963V483.756H185.247V482.58H192.023V483.756ZM209.519 484.638C209.043 484.638 208.614 484.54 208.231 484.344C207.858 484.148 207.564 483.877 207.349 483.532C207.135 483.187 207.027 482.799 207.027 482.37C207.027 481.941 207.135 481.553 207.349 481.208C207.564 480.863 207.858 480.597 208.231 480.41C208.614 480.214 209.043 480.116 209.519 480.116C209.995 480.116 210.42 480.214 210.793 480.41C211.176 480.597 211.47 480.863 211.675 481.208C211.89 481.553 211.997 481.941 211.997 482.37C211.997 482.799 211.89 483.187 211.675 483.532C211.47 483.877 211.176 484.148 210.793 484.344C210.42 484.54 209.995 484.638 209.519 484.638ZM204.353 480.2H205.753V490H204.605L198.725 482.692V490H197.325V480.2H198.473L204.353 487.508V480.2ZM209.519 480.914C209.053 480.914 208.675 481.049 208.385 481.32C208.105 481.591 207.965 481.941 207.965 482.37C207.965 482.799 208.11 483.149 208.399 483.42C208.689 483.691 209.062 483.826 209.519 483.826C209.977 483.826 210.345 483.691 210.625 483.42C210.915 483.149 211.059 482.799 211.059 482.37C211.059 481.941 210.915 481.591 210.625 481.32C210.345 481.049 209.977 480.914 209.519 480.914ZM207.307 485.744H211.731V486.654H207.307V485.744ZM220.897 484.316C221.858 484.409 222.591 484.708 223.095 485.212C223.599 485.707 223.851 486.341 223.851 487.116C223.851 487.676 223.711 488.185 223.431 488.642C223.151 489.09 222.731 489.449 222.171 489.72C221.62 489.981 220.943 490.112 220.141 490.112C219.441 490.112 218.769 490.009 218.125 489.804C217.481 489.589 216.953 489.295 216.543 488.922L217.187 487.816C217.523 488.133 217.952 488.39 218.475 488.586C218.997 488.773 219.553 488.866 220.141 488.866C220.869 488.866 221.433 488.712 221.835 488.404C222.245 488.096 222.451 487.671 222.451 487.13C222.451 486.589 222.25 486.169 221.849 485.87C221.447 485.571 220.841 485.422 220.029 485.422H219.245V484.442L221.709 481.418H216.991V480.2H223.459V481.152L220.897 484.316Z" fill="white"/>
<circle cx="84" cy="486" r="6.5" stroke="#FF8686" stroke-width="5"/>
<path d="M10.116 575.624V578H0.594V576.11L5.454 571.52C5.97 571.028 6.318 570.608 6.498 570.26C6.678 569.9 6.768 569.546 6.768 569.198C6.768 568.694 6.594 568.31 6.246 568.046C5.91 567.77 5.412 567.632 4.752 567.632C4.2 567.632 3.702 567.74 3.258 567.956C2.814 568.16 2.442 568.472 2.142 568.892L0.018 567.524C0.51 566.792 1.188 566.222 2.052 565.814C2.916 565.394 3.906 565.184 5.022 565.184C5.958 565.184 6.774 565.34 7.47 565.652C8.178 565.952 8.724 566.384 9.108 566.948C9.504 567.5 9.702 568.154 9.702 568.91C9.702 569.594 9.558 570.236 9.27 570.836C8.982 571.436 8.424 572.12 7.596 572.888L4.698 575.624H10.116ZM20.7332 575.624V578H11.2112V576.11L16.0712 571.52C16.5872 571.028 16.9352 570.608 17.1152 570.26C17.2952 569.9 17.3852 569.546 17.3852 569.198C17.3852 568.694 17.2112 568.31 16.8632 568.046C16.5272 567.77 16.0292 567.632 15.3692 567.632C14.8172 567.632 14.3192 567.74 13.8752 567.956C13.4312 568.16 13.0592 568.472 12.7592 568.892L10.6352 567.524C11.1272 566.792 11.8052 566.222 12.6692 565.814C13.5332 565.394 14.5232 565.184 15.6392 565.184C16.5752 565.184 17.3912 565.34 18.0872 565.652C18.7952 565.952 19.3412 566.384 19.7252 566.948C20.1212 567.5 20.3192 568.154 20.3192 568.91C20.3192 569.594 20.1752 570.236 19.8872 570.836C19.5992 571.436 19.0412 572.12 18.2132 572.888L15.3152 575.624H20.7332ZM23.5924 571.682C23.1004 571.682 22.6864 571.514 22.3504 571.178C22.0144 570.842 21.8464 570.422 21.8464 569.918C21.8464 569.402 22.0144 568.988 22.3504 568.676C22.6864 568.352 23.1004 568.19 23.5924 568.19C24.0844 568.19 24.4984 568.352 24.8344 568.676C25.1704 568.988 25.3384 569.402 25.3384 569.918C25.3384 570.422 25.1704 570.842 24.8344 571.178C24.4984 571.514 24.0844 571.682 23.5924 571.682ZM23.5924 578.144C23.1004 578.144 22.6864 577.976 22.3504 577.64C22.0144 577.304 21.8464 576.884 21.8464 576.38C21.8464 575.864 22.0144 575.45 22.3504 575.138C22.6864 574.814 23.1004 574.652 23.5924 574.652C24.0844 574.652 24.4984 574.814 24.8344 575.138C25.1704 575.45 25.3384 575.864 25.3384 576.38C25.3384 576.884 25.1704 577.304 24.8344 577.64C24.4984 577.976 24.0844 578.144 23.5924 578.144ZM32.0473 578.216C31.0033 578.216 30.0733 577.958 29.2573 577.442C28.4413 576.926 27.7993 576.182 27.3313 575.21C26.8753 574.226 26.6473 573.056 26.6473 571.7C26.6473 570.344 26.8753 569.18 27.3313 568.208C27.7993 567.224 28.4413 566.474 29.2573 565.958C30.0733 565.442 31.0033 565.184 32.0473 565.184C33.0913 565.184 34.0213 565.442 34.8373 565.958C35.6533 566.474 36.2893 567.224 36.7453 568.208C37.2133 569.18 37.4473 570.344 37.4473 571.7C37.4473 573.056 37.2133 574.226 36.7453 575.21C36.2893 576.182 35.6533 576.926 34.8373 577.442C34.0213 577.958 33.0913 578.216 32.0473 578.216ZM32.0473 575.75C32.8153 575.75 33.4153 575.42 33.8473 574.76C34.2913 574.1 34.5133 573.08 34.5133 571.7C34.5133 570.32 34.2913 569.3 33.8473 568.64C33.4153 567.98 32.8153 567.65 32.0473 567.65C31.2913 567.65 30.6913 567.98 30.2473 568.64C29.8153 569.3 29.5993 570.32 29.5993 571.7C29.5993 573.08 29.8153 574.1 30.2473 574.76C30.6913 575.42 31.2913 575.75 32.0473 575.75ZM44.2641 578.216C43.2201 578.216 42.2901 577.958 41.4741 577.442C40.6581 576.926 40.0161 576.182 39.5481 575.21C39.0921 574.226 38.8641 573.056 38.8641 571.7C38.8641 570.344 39.0921 569.18 39.5481 568.208C40.0161 567.224 40.6581 566.474 41.4741 565.958C42.2901 565.442 43.2201 565.184 44.2641 565.184C45.3081 565.184 46.2381 565.442 47.0541 565.958C47.8701 566.474 48.5061 567.224 48.9621 568.208C49.4301 569.18 49.6641 570.344 49.6641 571.7C49.6641 573.056 49.4301 574.226 48.9621 575.21C48.5061 576.182 47.8701 576.926 47.0541 577.442C46.2381 577.958 45.3081 578.216 44.2641 578.216ZM44.2641 575.75C45.0321 575.75 45.6321 575.42 46.0641 574.76C46.5081 574.1 46.7301 573.08 46.7301 571.7C46.7301 570.32 46.5081 569.3 46.0641 568.64C45.6321 567.98 45.0321 567.65 44.2641 567.65C43.5081 567.65 42.9081 567.98 42.4641 568.64C42.0321 569.3 41.8161 570.32 41.8161 571.7C41.8161 573.08 42.0321 574.1 42.4641 574.76C42.9081 575.42 43.5081 575.75 44.2641 575.75ZM51.3852 571.808H56.4792V574.058H51.3852V571.808ZM6.102 605.216C5.058 605.216 4.128 604.958 3.312 604.442C2.496 603.926 1.854 603.182 1.386 602.21C0.93 601.226 0.702 600.056 0.702 598.7C0.702 597.344 0.93 596.18 1.386 595.208C1.854 594.224 2.496 593.474 3.312 592.958C4.128 592.442 5.058 592.184 6.102 592.184C7.146 592.184 8.076 592.442 8.892 592.958C9.708 593.474 10.344 594.224 10.8 595.208C11.268 596.18 11.502 597.344 11.502 598.7C11.502 600.056 11.268 601.226 10.8 602.21C10.344 603.182 9.708 603.926 8.892 604.442C8.076 604.958 7.146 605.216 6.102 605.216ZM6.102 602.75C6.87 602.75 7.47 602.42 7.902 601.76C8.346 601.1 8.568 600.08 8.568 598.7C8.568 597.32 8.346 596.3 7.902 595.64C7.47 594.98 6.87 594.65 6.102 594.65C5.346 594.65 4.746 594.98 4.302 595.64C3.87 596.3 3.654 597.32 3.654 598.7C3.654 600.08 3.87 601.1 4.302 601.76C4.746 602.42 5.346 602.75 6.102 602.75ZM18.3188 605.216C17.2748 605.216 16.3448 604.958 15.5288 604.442C14.7128 603.926 14.0708 603.182 13.6028 602.21C13.1468 601.226 12.9188 600.056 12.9188 598.7C12.9188 597.344 13.1468 596.18 13.6028 595.208C14.0708 594.224 14.7128 593.474 15.5288 592.958C16.3448 592.442 17.2748 592.184 18.3188 592.184C19.3628 592.184 20.2928 592.442 21.1088 592.958C21.9248 593.474 22.5608 594.224 23.0168 595.208C23.4848 596.18 23.7188 597.344 23.7188 598.7C23.7188 600.056 23.4848 601.226 23.0168 602.21C22.5608 603.182 21.9248 603.926 21.1088 604.442C20.2928 604.958 19.3628 605.216 18.3188 605.216ZM18.3188 602.75C19.0868 602.75 19.6868 602.42 20.1188 601.76C20.5628 601.1 20.7848 600.08 20.7848 598.7C20.7848 597.32 20.5628 596.3 20.1188 595.64C19.6868 594.98 19.0868 594.65 18.3188 594.65C17.5628 594.65 16.9628 594.98 16.5188 595.64C16.0868 596.3 15.8708 597.32 15.8708 598.7C15.8708 600.08 16.0868 601.1 16.5188 601.76C16.9628 602.42 17.5628 602.75 18.3188 602.75ZM26.7916 598.682C26.2996 598.682 25.8856 598.514 25.5496 598.178C25.2136 597.842 25.0456 597.422 25.0456 596.918C25.0456 596.402 25.2136 595.988 25.5496 595.676C25.8856 595.352 26.2996 595.19 26.7916 595.19C27.2836 595.19 27.6976 595.352 28.0336 595.676C28.3696 595.988 28.5376 596.402 28.5376 596.918C28.5376 597.422 28.3696 597.842 28.0336 598.178C27.6976 598.514 27.2836 598.682 26.7916 598.682ZM26.7916 605.144C26.2996 605.144 25.8856 604.976 25.5496 604.64C25.2136 604.304 25.0456 603.884 25.0456 603.38C25.0456 602.864 25.2136 602.45 25.5496 602.138C25.8856 601.814 26.2996 601.652 26.7916 601.652C27.2836 601.652 27.6976 601.814 28.0336 602.138C28.3696 602.45 28.5376 602.864 28.5376 603.38C28.5376 603.884 28.3696 604.304 28.0336 604.64C27.6976 604.976 27.2836 605.144 26.7916 605.144ZM35.2465 605.216C34.2025 605.216 33.2725 604.958 32.4565 604.442C31.6405 603.926 30.9985 603.182 30.5305 602.21C30.0745 601.226 29.8465 600.056 29.8465 598.7C29.8465 597.344 30.0745 596.18 30.5305 595.208C30.9985 594.224 31.6405 593.474 32.4565 592.958C33.2725 592.442 34.2025 592.184 35.2465 592.184C36.2905 592.184 37.2205 592.442 38.0365 592.958C38.8525 593.474 39.4885 594.224 39.9445 595.208C40.4125 596.18 40.6465 597.344 40.6465 598.7C40.6465 600.056 40.4125 601.226 39.9445 602.21C39.4885 603.182 38.8525 603.926 38.0365 604.442C37.2205 604.958 36.2905 605.216 35.2465 605.216ZM35.2465 602.75C36.0145 602.75 36.6145 602.42 37.0465 601.76C37.4905 601.1 37.7125 600.08 37.7125 598.7C37.7125 597.32 37.4905 596.3 37.0465 595.64C36.6145 594.98 36.0145 594.65 35.2465 594.65C34.4905 594.65 33.8905 594.98 33.4465 595.64C33.0145 596.3 32.7985 597.32 32.7985 598.7C32.7985 600.08 33.0145 601.1 33.4465 601.76C33.8905 602.42 34.4905 602.75 35.2465 602.75ZM47.4633 605.216C46.4193 605.216 45.4893 604.958 44.6733 604.442C43.8573 603.926 43.2153 603.182 42.7473 602.21C42.2913 601.226 42.0633 600.056 42.0633 598.7C42.0633 597.344 42.2913 596.18 42.7473 595.208C43.2153 594.224 43.8573 593.474 44.6733 592.958C45.4893 592.442 46.4193 592.184 47.4633 592.184C48.5073 592.184 49.4373 592.442 50.2533 592.958C51.0693 593.474 51.7053 594.224 52.1613 595.208C52.6293 596.18 52.8633 597.344 52.8633 598.7C52.8633 600.056 52.6293 601.226 52.1613 602.21C51.7053 603.182 51.0693 603.926 50.2533 604.442C49.4373 604.958 48.5073 605.216 47.4633 605.216ZM47.4633 602.75C48.2313 602.75 48.8313 602.42 49.2633 601.76C49.7073 601.1 49.9293 600.08 49.9293 598.7C49.9293 597.32 49.7073 596.3 49.2633 595.64C48.8313 594.98 48.2313 594.65 47.4633 594.65C46.7073 594.65 46.1073 594.98 45.6633 595.64C45.2313 596.3 45.0153 597.32 45.0153 598.7C45.0153 600.08 45.2313 601.1 45.6633 601.76C46.1073 602.42 46.7073 602.75 47.4633 602.75Z" fill="#FF8686"/>
<path d="M120.348 566.2C121.617 566.2 122.616 566.503 123.344 567.11C124.072 567.717 124.436 568.552 124.436 569.616C124.436 570.68 124.072 571.515 123.344 572.122C122.616 572.729 121.617 573.032 120.348 573.032H117.926V576H116.526V566.2H120.348ZM120.306 571.814C121.193 571.814 121.869 571.627 122.336 571.254C122.803 570.871 123.036 570.325 123.036 569.616C123.036 568.907 122.803 568.365 122.336 567.992C121.869 567.609 121.193 567.418 120.306 567.418H117.926V571.814H120.306ZM128.737 568.51C129.764 568.51 130.548 568.762 131.089 569.266C131.64 569.77 131.915 570.521 131.915 571.52V576H130.641V575.02C130.417 575.365 130.095 575.631 129.675 575.818C129.264 575.995 128.774 576.084 128.205 576.084C127.374 576.084 126.707 575.883 126.203 575.482C125.708 575.081 125.461 574.553 125.461 573.9C125.461 573.247 125.699 572.724 126.175 572.332C126.651 571.931 127.407 571.73 128.443 571.73H130.571V571.464C130.571 570.885 130.403 570.442 130.067 570.134C129.731 569.826 129.236 569.672 128.583 569.672C128.144 569.672 127.715 569.747 127.295 569.896C126.875 570.036 126.52 570.227 126.231 570.47L125.671 569.462C126.054 569.154 126.511 568.921 127.043 568.762C127.575 568.594 128.14 568.51 128.737 568.51ZM128.429 575.048C128.942 575.048 129.386 574.936 129.759 574.712C130.132 574.479 130.403 574.152 130.571 573.732V572.696H128.499C127.36 572.696 126.791 573.079 126.791 573.844C126.791 574.217 126.936 574.511 127.225 574.726C127.514 574.941 127.916 575.048 128.429 575.048ZM138.23 572.136C138.725 572.267 139.107 572.477 139.378 572.766C139.649 573.055 139.784 573.415 139.784 573.844C139.784 574.283 139.635 574.675 139.336 575.02C139.037 575.356 138.622 575.622 138.09 575.818C137.567 576.005 136.979 576.098 136.326 576.098C135.775 576.098 135.234 576.028 134.702 575.888C134.179 575.739 133.713 575.529 133.302 575.258L133.708 574.236C134.063 574.46 134.469 574.637 134.926 574.768C135.383 574.889 135.845 574.95 136.312 574.95C136.947 574.95 137.451 574.843 137.824 574.628C138.207 574.404 138.398 574.105 138.398 573.732C138.398 573.387 138.244 573.121 137.936 572.934C137.637 572.747 137.213 572.654 136.662 572.654H135.304V571.688H136.564C137.068 571.688 137.465 571.599 137.754 571.422C138.043 571.245 138.188 571.002 138.188 570.694C138.188 570.358 138.015 570.097 137.67 569.91C137.334 569.723 136.877 569.63 136.298 569.63C135.561 569.63 134.781 569.821 133.96 570.204L133.596 569.168C134.501 568.711 135.449 568.482 136.438 568.482C137.035 568.482 137.572 568.566 138.048 568.734C138.524 568.902 138.897 569.14 139.168 569.448C139.439 569.756 139.574 570.106 139.574 570.498C139.574 570.862 139.453 571.189 139.21 571.478C138.967 571.767 138.641 571.987 138.23 572.136ZM146.881 572.15C147.843 572.393 148.323 572.995 148.323 573.956C148.323 574.609 148.076 575.113 147.581 575.468C147.096 575.823 146.368 576 145.397 576H141.827V568.58H145.271C146.149 568.58 146.835 568.748 147.329 569.084C147.824 569.411 148.071 569.877 148.071 570.484C148.071 570.876 147.964 571.217 147.749 571.506C147.544 571.786 147.255 572.001 146.881 572.15ZM143.143 571.772H145.159C145.673 571.772 146.06 571.679 146.321 571.492C146.592 571.305 146.727 571.035 146.727 570.68C146.727 569.971 146.205 569.616 145.159 569.616H143.143V571.772ZM145.299 574.964C145.859 574.964 146.279 574.875 146.559 574.698C146.839 574.521 146.979 574.245 146.979 573.872C146.979 573.489 146.849 573.205 146.587 573.018C146.335 572.831 145.934 572.738 145.383 572.738H143.143V574.964H145.299ZM156.797 568.58V576H155.453V569.756H152.261L152.177 571.408C152.13 572.407 152.042 573.242 151.911 573.914C151.78 574.577 151.566 575.109 151.267 575.51C150.968 575.911 150.553 576.112 150.021 576.112C149.778 576.112 149.503 576.07 149.195 575.986L149.279 574.852C149.4 574.88 149.512 574.894 149.615 574.894C149.988 574.894 150.268 574.731 150.455 574.404C150.642 574.077 150.763 573.69 150.819 573.242C150.875 572.794 150.926 572.155 150.973 571.324L151.099 568.58H156.797ZM166.102 572.332C166.102 572.435 166.092 572.57 166.074 572.738H160.054C160.138 573.391 160.422 573.919 160.908 574.32C161.402 574.712 162.014 574.908 162.742 574.908C163.628 574.908 164.342 574.609 164.884 574.012L165.626 574.88C165.29 575.272 164.87 575.571 164.366 575.776C163.871 575.981 163.316 576.084 162.7 576.084C161.916 576.084 161.22 575.925 160.614 575.608C160.007 575.281 159.536 574.829 159.2 574.25C158.873 573.671 158.71 573.018 158.71 572.29C158.71 571.571 158.868 570.923 159.186 570.344C159.512 569.765 159.956 569.317 160.516 569C161.085 568.673 161.724 568.51 162.434 568.51C163.143 568.51 163.773 568.673 164.324 569C164.884 569.317 165.318 569.765 165.626 570.344C165.943 570.923 166.102 571.585 166.102 572.332ZM162.434 569.644C161.79 569.644 161.248 569.84 160.81 570.232C160.38 570.624 160.128 571.137 160.054 571.772H164.814C164.739 571.147 164.482 570.638 164.044 570.246C163.614 569.845 163.078 569.644 162.434 569.644ZM171.071 572.864H169.531V576H168.187V568.58H169.531V571.716H171.099L173.507 568.58H174.949L172.135 572.15L175.145 576H173.563L171.071 572.864ZM179.063 568.51C180.09 568.51 180.874 568.762 181.415 569.266C181.966 569.77 182.241 570.521 182.241 571.52V576H180.967V575.02C180.743 575.365 180.421 575.631 180.001 575.818C179.591 575.995 179.101 576.084 178.531 576.084C177.701 576.084 177.033 575.883 176.529 575.482C176.035 575.081 175.787 574.553 175.787 573.9C175.787 573.247 176.025 572.724 176.501 572.332C176.977 571.931 177.733 571.73 178.769 571.73H180.897V571.464C180.897 570.885 180.729 570.442 180.393 570.134C180.057 569.826 179.563 569.672 178.909 569.672C178.471 569.672 178.041 569.747 177.621 569.896C177.201 570.036 176.847 570.227 176.557 570.47L175.997 569.462C176.38 569.154 176.837 568.921 177.369 568.762C177.901 568.594 178.466 568.51 179.063 568.51ZM178.755 575.048C179.269 575.048 179.712 574.936 180.085 574.712C180.459 574.479 180.729 574.152 180.897 573.732V572.696H178.825C177.687 572.696 177.117 573.079 177.117 573.844C177.117 574.217 177.262 574.511 177.551 574.726C177.841 574.941 178.242 575.048 178.755 575.048ZM190.191 569.756H187.475V576H186.131V569.756H183.415V568.58H190.191V569.756ZM197.944 572.332C197.944 572.435 197.934 572.57 197.916 572.738H191.896C191.98 573.391 192.264 573.919 192.75 574.32C193.244 574.712 193.856 574.908 194.584 574.908C195.47 574.908 196.184 574.609 196.726 574.012L197.468 574.88C197.132 575.272 196.712 575.571 196.208 575.776C195.713 575.981 195.158 576.084 194.542 576.084C193.758 576.084 193.062 575.925 192.456 575.608C191.849 575.281 191.378 574.829 191.042 574.25C190.715 573.671 190.552 573.018 190.552 572.29C190.552 571.571 190.71 570.923 191.028 570.344C191.354 569.765 191.798 569.317 192.358 569C192.927 568.673 193.566 568.51 194.276 568.51C194.985 568.51 195.615 568.673 196.166 569C196.726 569.317 197.16 569.765 197.468 570.344C197.785 570.923 197.944 571.585 197.944 572.332ZM194.276 569.644C193.632 569.644 193.09 569.84 192.652 570.232C192.222 570.624 191.97 571.137 191.896 571.772H196.656C196.581 571.147 196.324 570.638 195.886 570.246C195.456 569.845 194.92 569.644 194.276 569.644ZM206.276 568.58V576H204.932V569.756H201.74L201.656 571.408C201.609 572.407 201.52 573.242 201.39 573.914C201.259 574.577 201.044 575.109 200.746 575.51C200.447 575.911 200.032 576.112 199.5 576.112C199.257 576.112 198.982 576.07 198.674 575.986L198.758 574.852C198.879 574.88 198.991 574.894 199.094 574.894C199.467 574.894 199.747 574.731 199.934 574.404C200.12 574.077 200.242 573.69 200.298 573.242C200.354 572.794 200.405 572.155 200.452 571.324L200.578 568.58H206.276ZM212.304 571.1C213.247 571.109 213.966 571.324 214.46 571.744C214.955 572.164 215.202 572.757 215.202 573.522C215.202 574.325 214.932 574.945 214.39 575.384C213.858 575.813 213.093 576.023 212.094 576.014L208.874 576V568.58H210.218V571.086L212.304 571.1ZM211.982 574.992C212.589 575.001 213.046 574.88 213.354 574.628C213.672 574.376 213.83 574.003 213.83 573.508C213.83 573.023 213.676 572.668 213.368 572.444C213.07 572.22 212.608 572.103 211.982 572.094L210.218 572.066V574.978L211.982 574.992ZM216.927 568.58H218.271V571.73H222.499V568.58H223.843V576H222.499V572.892H218.271V576H216.927V568.58ZM229.102 568.51C230.129 568.51 230.913 568.762 231.454 569.266C232.005 569.77 232.28 570.521 232.28 571.52V576H231.006V575.02C230.782 575.365 230.46 575.631 230.04 575.818C229.63 575.995 229.14 576.084 228.57 576.084C227.74 576.084 227.072 575.883 226.568 575.482C226.074 575.081 225.826 574.553 225.826 573.9C225.826 573.247 226.064 572.724 226.54 572.332C227.016 571.931 227.772 571.73 228.808 571.73H230.936V571.464C230.936 570.885 230.768 570.442 230.432 570.134C230.096 569.826 229.602 569.672 228.948 569.672C228.51 569.672 228.08 569.747 227.66 569.896C227.24 570.036 226.886 570.227 226.596 570.47L226.036 569.462C226.419 569.154 226.876 568.921 227.408 568.762C227.94 568.594 228.505 568.51 229.102 568.51ZM228.794 575.048C229.308 575.048 229.751 574.936 230.124 574.712C230.498 574.479 230.768 574.152 230.936 573.732V572.696H228.864C227.726 572.696 227.156 573.079 227.156 573.844C227.156 574.217 227.301 574.511 227.59 574.726C227.88 574.941 228.281 575.048 228.794 575.048ZM240.65 568.58V576H239.446V573.648H237.29H237.136L235.512 576H234.07L235.876 573.466C235.316 573.298 234.887 573.023 234.588 572.64C234.29 572.248 234.14 571.763 234.14 571.184C234.14 570.335 234.43 569.691 235.008 569.252C235.587 568.804 236.385 568.58 237.402 568.58H240.65ZM235.512 571.226C235.512 571.721 235.666 572.089 235.974 572.332C236.292 572.565 236.763 572.682 237.388 572.682H239.446V569.756H237.444C236.156 569.756 235.512 570.246 235.512 571.226ZM253.906 568.58V576H252.562V569.756H248.376V576H247.032V568.58H253.906ZM262.877 568.58V576H261.533V569.756H258.341L258.257 571.408C258.21 572.407 258.122 573.242 257.991 573.914C257.86 574.577 257.646 575.109 257.347 575.51C257.048 575.911 256.633 576.112 256.101 576.112C255.858 576.112 255.583 576.07 255.275 575.986L255.359 574.852C255.48 574.88 255.592 574.894 255.695 574.894C256.068 574.894 256.348 574.731 256.535 574.404C256.722 574.077 256.843 573.69 256.899 573.242C256.955 572.794 257.006 572.155 257.053 571.324L257.179 568.58H262.877ZM268.654 576.084C267.916 576.084 267.254 575.921 266.666 575.594C266.078 575.267 265.616 574.819 265.28 574.25C264.953 573.671 264.79 573.018 264.79 572.29C264.79 571.562 264.953 570.913 265.28 570.344C265.616 569.765 266.078 569.317 266.666 569C267.254 568.673 267.916 568.51 268.654 568.51C269.391 568.51 270.049 568.673 270.628 569C271.216 569.317 271.673 569.765 272 570.344C272.336 570.913 272.504 571.562 272.504 572.29C272.504 573.018 272.336 573.671 272 574.25C271.673 574.819 271.216 575.267 270.628 575.594C270.049 575.921 269.391 576.084 268.654 576.084ZM268.654 574.908C269.13 574.908 269.554 574.801 269.928 574.586C270.31 574.362 270.609 574.054 270.824 573.662C271.038 573.261 271.146 572.803 271.146 572.29C271.146 571.777 271.038 571.324 270.824 570.932C270.609 570.531 270.31 570.223 269.928 570.008C269.554 569.793 269.13 569.686 268.654 569.686C268.178 569.686 267.748 569.793 267.366 570.008C266.992 570.223 266.694 570.531 266.47 570.932C266.255 571.324 266.148 571.777 266.148 572.29C266.148 572.803 266.255 573.261 266.47 573.662C266.694 574.054 266.992 574.362 267.366 574.586C267.748 574.801 268.178 574.908 268.654 574.908ZM285.015 568.58V576H274.445V568.58H275.789V574.824H279.065V568.58H280.409V574.824H283.671V568.58H285.015ZM286.121 574.824V577.582H284.861V576H283.615V574.824H286.121ZM290.27 568.51C291.297 568.51 292.081 568.762 292.622 569.266C293.173 569.77 293.448 570.521 293.448 571.52V576H292.174V575.02C291.95 575.365 291.628 575.631 291.208 575.818C290.798 575.995 290.308 576.084 289.738 576.084C288.908 576.084 288.24 575.883 287.736 575.482C287.242 575.081 286.994 574.553 286.994 573.9C286.994 573.247 287.232 572.724 287.708 572.332C288.184 571.931 288.94 571.73 289.976 571.73H292.104V571.464C292.104 570.885 291.936 570.442 291.6 570.134C291.264 569.826 290.77 569.672 290.116 569.672C289.678 569.672 289.248 569.747 288.828 569.896C288.408 570.036 288.054 570.227 287.764 570.47L287.204 569.462C287.587 569.154 288.044 568.921 288.576 568.762C289.108 568.594 289.673 568.51 290.27 568.51ZM289.962 575.048C290.476 575.048 290.919 574.936 291.292 574.712C291.666 574.479 291.936 574.152 292.104 573.732V572.696H290.032C288.894 572.696 288.324 573.079 288.324 573.844C288.324 574.217 288.469 574.511 288.758 574.726C289.048 574.941 289.449 575.048 289.962 575.048ZM303.414 574.824V577.722H302.154V576H295.952V577.722H294.678V574.824H295.07C295.546 574.796 295.873 574.46 296.05 573.816C296.228 573.172 296.349 572.262 296.414 571.086L296.526 568.58H302.28V574.824H303.414ZM297.646 571.184C297.609 572.117 297.53 572.892 297.408 573.508C297.296 574.115 297.086 574.553 296.778 574.824H300.936V569.756H297.716L297.646 571.184ZM308.049 572.864H306.509V576H305.165V568.58H306.509V571.716H308.077L310.485 568.58H311.927L309.113 572.15L312.123 576H310.541L308.049 572.864ZM316.042 568.51C317.068 568.51 317.852 568.762 318.394 569.266C318.944 569.77 319.22 570.521 319.22 571.52V576H317.946V575.02C317.722 575.365 317.4 575.631 316.98 575.818C316.569 575.995 316.079 576.084 315.51 576.084C314.679 576.084 314.012 575.883 313.508 575.482C313.013 575.081 312.766 574.553 312.766 573.9C312.766 573.247 313.004 572.724 313.48 572.332C313.956 571.931 314.712 571.73 315.748 571.73H317.876V571.464C317.876 570.885 317.708 570.442 317.372 570.134C317.036 569.826 316.541 569.672 315.888 569.672C315.449 569.672 315.02 569.747 314.6 569.896C314.18 570.036 313.825 570.227 313.536 570.47L312.976 569.462C313.358 569.154 313.816 568.921 314.348 568.762C314.88 568.594 315.444 568.51 316.042 568.51ZM315.734 575.048C316.247 575.048 316.69 574.936 317.064 574.712C317.437 574.479 317.708 574.152 317.876 573.732V572.696H315.804C314.665 572.696 314.096 573.079 314.096 573.844C314.096 574.217 314.24 574.511 314.53 574.726C314.819 574.941 315.22 575.048 315.734 575.048Z" fill="white"/>
<circle cx="84" cy="572" r="6.5" stroke="#FF8686" stroke-width="5"/>
</svg>
