<svg width="365" height="568" viewBox="0 0 365 568" fill="none" xmlns="http://www.w3.org/2000/svg">
<rect y="52" width="111" height="30" rx="3" fill="#FF8686"/>
<path d="M30.9691 61V75H27.7291V63.6H24.9291V61H30.9691ZM44.3611 61V63.1L39.1611 75H35.6411L40.6611 63.64H36.0211V65.92H33.1411V61H44.3611ZM57.2275 75.16C56.0942 75.16 55.0742 74.9267 54.1675 74.46C53.2742 73.98 52.5742 73.32 52.0675 72.48C51.5608 71.64 51.3075 70.6867 51.3075 69.62C51.3075 68.5533 51.5608 67.6 52.0675 66.76C52.5742 65.92 53.2742 65.2667 54.1675 64.8C55.0742 64.32 56.0942 64.08 57.2275 64.08C58.3608 64.08 59.3742 64.32 60.2675 64.8C61.1608 65.2667 61.8608 65.92 62.3675 66.76C62.8742 67.6 63.1275 68.5533 63.1275 69.62C63.1275 70.6867 62.8742 71.64 62.3675 72.48C61.8608 73.32 61.1608 73.98 60.2675 74.46C59.3742 74.9267 58.3608 75.16 57.2275 75.16ZM57.2275 72.6C58.0275 72.6 58.6808 72.3333 59.1875 71.8C59.7075 71.2533 59.9675 70.5267 59.9675 69.62C59.9675 68.7133 59.7075 67.9933 59.1875 67.46C58.6808 66.9133 58.0275 66.64 57.2275 66.64C56.4275 66.64 55.7675 66.9133 55.2475 67.46C54.7275 67.9933 54.4675 68.7133 54.4675 69.62C54.4675 70.5267 54.7275 71.2533 55.2475 71.8C55.7675 72.3333 56.4275 72.6 57.2275 72.6ZM70.0134 70.92H68.3934V75H65.2734V64.24H68.3934V68.42H70.0734L72.9934 64.24H76.3134L72.5534 69.4L76.5734 75H72.8934L70.0134 70.92ZM87.0478 66.8H83.4078V75H80.3078V66.8H76.6678V64.24H87.0478V66.8Z" fill="#0C1324"/>
<path d="M26.697 20.644V29.785H21.747V25H5.445V29.785H0.495L0.528 20.644H1.452C2.838 20.6 3.817 19.588 4.389 17.608C4.961 15.628 5.313 12.801 5.445 9.127L5.709 1.9H23.463V20.644H26.697ZM10.164 9.622C10.054 12.372 9.823 14.682 9.471 16.552C9.119 18.4 8.58 19.764 7.854 20.644H18.183V6.256H10.263L10.164 9.622ZM46.9332 16.189C46.9332 16.255 46.9002 16.717 46.8342 17.575H33.4032C33.6452 18.675 34.2172 19.544 35.1192 20.182C36.0212 20.82 37.1432 21.139 38.4852 21.139C39.4092 21.139 40.2232 21.007 40.9272 20.743C41.6532 20.457 42.3242 20.017 42.9402 19.423L45.6792 22.393C44.0072 24.307 41.5652 25.264 38.3532 25.264C36.3512 25.264 34.5802 24.879 33.0402 24.109C31.5002 23.317 30.3122 22.228 29.4762 20.842C28.6402 19.456 28.2222 17.883 28.2222 16.123C28.2222 14.385 28.6292 12.823 29.4432 11.437C30.2792 10.029 31.4122 8.94 32.8422 8.17C34.2942 7.378 35.9112 6.982 37.6932 6.982C39.4312 6.982 41.0042 7.356 42.4122 8.104C43.8202 8.852 44.9202 9.93 45.7122 11.338C46.5262 12.724 46.9332 14.341 46.9332 16.189ZM37.7262 10.876C36.5602 10.876 35.5812 11.206 34.7892 11.866C33.9972 12.526 33.5132 13.428 33.3372 14.572H42.0822C41.9062 13.45 41.4222 12.559 40.6302 11.899C39.8382 11.217 38.8702 10.876 37.7262 10.876ZM50.8793 7.246H55.9943V14.176H63.7163V7.246H68.8643V25H63.7163V18.367H55.9943V25H50.8793V7.246ZM83.3954 12.922C85.7054 12.944 87.4764 13.472 88.7084 14.506C89.9404 15.518 90.5564 16.959 90.5564 18.829C90.5564 20.787 89.8634 22.316 88.4774 23.416C87.1134 24.494 85.1884 25.033 82.7024 25.033L73.7924 25V7.246H78.9074V12.922H83.3954ZM82.2404 21.37C83.2304 21.392 83.9894 21.183 84.5174 20.743C85.0454 20.303 85.3094 19.643 85.3094 18.763C85.3094 17.905 85.0454 17.278 84.5174 16.882C84.0114 16.486 83.2524 16.277 82.2404 16.255L78.9074 16.222V21.37H82.2404ZM119.19 20.644V25H101.733V21.535L110.643 13.12C111.589 12.218 112.227 11.448 112.557 10.81C112.887 10.15 113.052 9.501 113.052 8.863C113.052 7.939 112.733 7.235 112.095 6.751C111.479 6.245 110.566 5.992 109.356 5.992C108.344 5.992 107.431 6.19 106.617 6.586C105.803 6.96 105.121 7.532 104.571 8.302L100.677 5.794C101.579 4.452 102.822 3.407 104.406 2.659C105.99 1.889 107.805 1.504 109.851 1.504C111.567 1.504 113.063 1.79 114.339 2.362C115.637 2.912 116.638 3.704 117.342 4.738C118.068 5.75 118.431 6.949 118.431 8.335C118.431 9.589 118.167 10.766 117.639 11.866C117.111 12.966 116.088 14.22 114.57 15.628L109.257 20.644H119.19Z" fill="#FF8686"/>
<path d="M84 139.5V211" stroke="white" stroke-dasharray="3 3"/>
<path d="M84 228.5V300" stroke="white" stroke-dasharray="3 3"/>
<path d="M84 315.5V387" stroke="white" stroke-dasharray="3 3"/>
<path d="M84 406.5V478" stroke="white" stroke-dasharray="3 3"/>
<path d="M5.562 126.4V139H2.646V128.74H0.126V126.4H5.562ZM12.6108 126.4V139H9.69483V128.74H7.17483V126.4H12.6108ZM16.4557 132.682C15.9637 132.682 15.5497 132.514 15.2137 132.178C14.8777 131.842 14.7097 131.422 14.7097 130.918C14.7097 130.402 14.8777 129.988 15.2137 129.676C15.5497 129.352 15.9637 129.19 16.4557 129.19C16.9477 129.19 17.3617 129.352 17.6977 129.676C18.0337 129.988 18.2017 130.402 18.2017 130.918C18.2017 131.422 18.0337 131.842 17.6977 132.178C17.3617 132.514 16.9477 132.682 16.4557 132.682ZM16.4557 139.144C15.9637 139.144 15.5497 138.976 15.2137 138.64C14.8777 138.304 14.7097 137.884 14.7097 137.38C14.7097 136.864 14.8777 136.45 15.2137 136.138C15.5497 135.814 15.9637 135.652 16.4557 135.652C16.9477 135.652 17.3617 135.814 17.6977 136.138C18.0337 136.45 18.2017 136.864 18.2017 137.38C18.2017 137.884 18.0337 138.304 17.6977 138.64C17.3617 138.976 16.9477 139.144 16.4557 139.144ZM24.9106 139.216C23.8666 139.216 22.9366 138.958 22.1206 138.442C21.3046 137.926 20.6626 137.182 20.1946 136.21C19.7386 135.226 19.5106 134.056 19.5106 132.7C19.5106 131.344 19.7386 130.18 20.1946 129.208C20.6626 128.224 21.3046 127.474 22.1206 126.958C22.9366 126.442 23.8666 126.184 24.9106 126.184C25.9546 126.184 26.8846 126.442 27.7006 126.958C28.5166 127.474 29.1526 128.224 29.6086 129.208C30.0766 130.18 30.3106 131.344 30.3106 132.7C30.3106 134.056 30.0766 135.226 29.6086 136.21C29.1526 137.182 28.5166 137.926 27.7006 138.442C26.8846 138.958 25.9546 139.216 24.9106 139.216ZM24.9106 136.75C25.6786 136.75 26.2786 136.42 26.7106 135.76C27.1546 135.1 27.3766 134.08 27.3766 132.7C27.3766 131.32 27.1546 130.3 26.7106 129.64C26.2786 128.98 25.6786 128.65 24.9106 128.65C24.1546 128.65 23.5546 128.98 23.1106 129.64C22.6786 130.3 22.4626 131.32 22.4626 132.7C22.4626 134.08 22.6786 135.1 23.1106 135.76C23.5546 136.42 24.1546 136.75 24.9106 136.75ZM37.1274 139.216C36.0834 139.216 35.1534 138.958 34.3374 138.442C33.5214 137.926 32.8794 137.182 32.4114 136.21C31.9554 135.226 31.7274 134.056 31.7274 132.7C31.7274 131.344 31.9554 130.18 32.4114 129.208C32.8794 128.224 33.5214 127.474 34.3374 126.958C35.1534 126.442 36.0834 126.184 37.1274 126.184C38.1714 126.184 39.1014 126.442 39.9174 126.958C40.7334 127.474 41.3694 128.224 41.8254 129.208C42.2934 130.18 42.5274 131.344 42.5274 132.7C42.5274 134.056 42.2934 135.226 41.8254 136.21C41.3694 137.182 40.7334 137.926 39.9174 138.442C39.1014 138.958 38.1714 139.216 37.1274 139.216ZM37.1274 136.75C37.8954 136.75 38.4954 136.42 38.9274 135.76C39.3714 135.1 39.5934 134.08 39.5934 132.7C39.5934 131.32 39.3714 130.3 38.9274 129.64C38.4954 128.98 37.8954 128.65 37.1274 128.65C36.3714 128.65 35.7714 128.98 35.3274 129.64C34.8954 130.3 34.6794 131.32 34.6794 132.7C34.6794 134.08 34.8954 135.1 35.3274 135.76C35.7714 136.42 36.3714 136.75 37.1274 136.75Z" fill="#FF8686"/>
<path d="M119.942 132.688H117.898V137H116.526V127.2H117.898V131.456H119.97L123.05 127.2H124.548L121.048 131.946L124.716 137H123.12L119.942 132.688ZM129.009 137.084C128.272 137.084 127.609 136.921 127.021 136.594C126.433 136.267 125.971 135.819 125.635 135.25C125.309 134.671 125.145 134.018 125.145 133.29C125.145 132.562 125.309 131.913 125.635 131.344C125.971 130.765 126.433 130.317 127.021 130C127.609 129.673 128.272 129.51 129.009 129.51C129.747 129.51 130.405 129.673 130.983 130C131.571 130.317 132.029 130.765 132.355 131.344C132.691 131.913 132.859 132.562 132.859 133.29C132.859 134.018 132.691 134.671 132.355 135.25C132.029 135.819 131.571 136.267 130.983 136.594C130.405 136.921 129.747 137.084 129.009 137.084ZM129.009 135.908C129.485 135.908 129.91 135.801 130.283 135.586C130.666 135.362 130.965 135.054 131.179 134.662C131.394 134.261 131.501 133.803 131.501 133.29C131.501 132.777 131.394 132.324 131.179 131.932C130.965 131.531 130.666 131.223 130.283 131.008C129.91 130.793 129.485 130.686 129.009 130.686C128.533 130.686 128.104 130.793 127.721 131.008C127.348 131.223 127.049 131.531 126.825 131.932C126.611 132.324 126.503 132.777 126.503 133.29C126.503 133.803 126.611 134.261 126.825 134.662C127.049 135.054 127.348 135.362 127.721 135.586C128.104 135.801 128.533 135.908 129.009 135.908ZM144.166 133.276C144.166 134.424 143.783 135.329 143.018 135.992C142.253 136.655 141.175 137.023 139.784 137.098V139.716H138.468V137.098C137.077 137.023 135.999 136.659 135.234 136.006C134.478 135.343 134.1 134.433 134.1 133.276C134.1 132.128 134.478 131.232 135.234 130.588C135.99 129.944 137.068 129.585 138.468 129.51V126.612H139.784V129.51C141.175 129.585 142.253 129.949 143.018 130.602C143.783 131.246 144.166 132.137 144.166 133.276ZM135.43 133.276C135.43 134.069 135.682 134.69 136.186 135.138C136.699 135.586 137.46 135.843 138.468 135.908V130.7C137.451 130.765 136.69 131.017 136.186 131.456C135.682 131.895 135.43 132.501 135.43 133.276ZM139.784 135.922C141.819 135.763 142.836 134.881 142.836 133.276C142.836 132.492 142.579 131.885 142.066 131.456C141.553 131.017 140.792 130.765 139.784 130.7V135.922ZM152.772 133.332C152.772 133.435 152.762 133.57 152.744 133.738H146.724C146.808 134.391 147.092 134.919 147.578 135.32C148.072 135.712 148.684 135.908 149.412 135.908C150.298 135.908 151.012 135.609 151.554 135.012L152.296 135.88C151.96 136.272 151.54 136.571 151.036 136.776C150.541 136.981 149.986 137.084 149.37 137.084C148.586 137.084 147.89 136.925 147.284 136.608C146.677 136.281 146.206 135.829 145.87 135.25C145.543 134.671 145.38 134.018 145.38 133.29C145.38 132.571 145.538 131.923 145.856 131.344C146.182 130.765 146.626 130.317 147.186 130C147.755 129.673 148.394 129.51 149.104 129.51C149.813 129.51 150.443 129.673 150.994 130C151.554 130.317 151.988 130.765 152.296 131.344C152.613 131.923 152.772 132.585 152.772 133.332ZM149.104 130.644C148.46 130.644 147.918 130.84 147.48 131.232C147.05 131.624 146.798 132.137 146.724 132.772H151.484C151.409 132.147 151.152 131.638 150.714 131.246C150.284 130.845 149.748 130.644 149.104 130.644ZM154.489 132.576H158.255V133.738H154.489V132.576ZM164.228 129.832C164.919 129.832 165.535 129.986 166.076 130.294C166.618 130.602 167.038 131.031 167.336 131.582C167.644 132.123 167.798 132.744 167.798 133.444C167.798 134.163 167.635 134.802 167.308 135.362C166.991 135.913 166.538 136.342 165.95 136.65C165.372 136.958 164.709 137.112 163.962 137.112C162.702 137.112 161.727 136.683 161.036 135.824C160.355 134.956 160.014 133.738 160.014 132.17C160.014 130.649 160.327 129.459 160.952 128.6C161.578 127.732 162.534 127.158 163.822 126.878L167.21 126.122L167.406 127.354L164.284 128.026C163.314 128.241 162.59 128.605 162.114 129.118C161.638 129.631 161.368 130.369 161.302 131.33C161.62 130.854 162.03 130.485 162.534 130.224C163.038 129.963 163.603 129.832 164.228 129.832ZM163.99 135.992C164.466 135.992 164.886 135.885 165.25 135.67C165.624 135.455 165.913 135.161 166.118 134.788C166.324 134.405 166.426 133.971 166.426 133.486C166.426 132.749 166.202 132.156 165.754 131.708C165.306 131.26 164.718 131.036 163.99 131.036C163.262 131.036 162.67 131.26 162.212 131.708C161.764 132.156 161.54 132.749 161.54 133.486C161.54 133.971 161.643 134.405 161.848 134.788C162.063 135.161 162.357 135.455 162.73 135.67C163.104 135.885 163.524 135.992 163.99 135.992ZM173.652 129.51C174.371 129.51 175.015 129.669 175.584 129.986C176.153 130.303 176.597 130.747 176.914 131.316C177.241 131.885 177.404 132.543 177.404 133.29C177.404 134.037 177.241 134.699 176.914 135.278C176.597 135.847 176.153 136.291 175.584 136.608C175.015 136.925 174.371 137.084 173.652 137.084C173.12 137.084 172.63 136.981 172.182 136.776C171.743 136.571 171.37 136.272 171.062 135.88V139.716H169.718V129.58H171.006V130.756C171.305 130.345 171.683 130.037 172.14 129.832C172.597 129.617 173.101 129.51 173.652 129.51ZM173.54 135.908C174.016 135.908 174.441 135.801 174.814 135.586C175.197 135.362 175.495 135.054 175.71 134.662C175.934 134.261 176.046 133.803 176.046 133.29C176.046 132.777 175.934 132.324 175.71 131.932C175.495 131.531 175.197 131.223 174.814 131.008C174.441 130.793 174.016 130.686 173.54 130.686C173.073 130.686 172.649 130.798 172.266 131.022C171.893 131.237 171.594 131.54 171.37 131.932C171.155 132.324 171.048 132.777 171.048 133.29C171.048 133.803 171.155 134.261 171.37 134.662C171.585 135.054 171.883 135.362 172.266 135.586C172.649 135.801 173.073 135.908 173.54 135.908ZM186.063 133.332C186.063 133.435 186.053 133.57 186.035 133.738H180.015C180.099 134.391 180.383 134.919 180.869 135.32C181.363 135.712 181.975 135.908 182.703 135.908C183.589 135.908 184.303 135.609 184.845 135.012L185.587 135.88C185.251 136.272 184.831 136.571 184.327 136.776C183.832 136.981 183.277 137.084 182.661 137.084C181.877 137.084 181.181 136.925 180.575 136.608C179.968 136.281 179.497 135.829 179.161 135.25C178.834 134.671 178.671 134.018 178.671 133.29C178.671 132.571 178.829 131.923 179.147 131.344C179.473 130.765 179.917 130.317 180.477 130C181.046 129.673 181.685 129.51 182.395 129.51C183.104 129.51 183.734 129.673 184.285 130C184.845 130.317 185.279 130.765 185.587 131.344C185.904 131.923 186.063 132.585 186.063 133.332ZM182.395 130.644C181.751 130.644 181.209 130.84 180.771 131.232C180.341 131.624 180.089 132.137 180.015 132.772H184.775C184.7 132.147 184.443 131.638 184.005 131.246C183.575 130.845 183.039 130.644 182.395 130.644ZM188.148 129.58H189.492V134.984L194.042 129.58H195.26V137H193.916V131.596L189.38 137H188.148V129.58ZM191.62 128.614C190.929 128.614 190.392 128.451 190.01 128.124C189.627 127.788 189.431 127.307 189.422 126.682H190.332C190.341 127.027 190.458 127.307 190.682 127.522C190.915 127.727 191.223 127.83 191.606 127.83C191.988 127.83 192.296 127.727 192.53 127.522C192.763 127.307 192.884 127.027 192.894 126.682H193.832C193.822 127.307 193.622 127.788 193.23 128.124C192.838 128.451 192.301 128.614 191.62 128.614ZM200.752 133.864H199.212V137H197.868V129.58H199.212V132.716H200.78L203.188 129.58H204.63L201.816 133.15L204.826 137H203.244L200.752 133.864Z" fill="white"/>
<circle cx="84" cy="133" r="6.5" stroke="#FF8686" stroke-width="5"/>
<path d="M5.562 214.4V227H2.646V216.74H0.126V214.4H5.562ZM17.1648 224.624V227H7.64283V225.11L12.5028 220.52C13.0188 220.028 13.3668 219.608 13.5468 219.26C13.7268 218.9 13.8168 218.546 13.8168 218.198C13.8168 217.694 13.6428 217.31 13.2948 217.046C12.9588 216.77 12.4608 216.632 11.8008 216.632C11.2488 216.632 10.7508 216.74 10.3068 216.956C9.86283 217.16 9.49083 217.472 9.19083 217.892L7.06683 216.524C7.55883 215.792 8.23683 215.222 9.10083 214.814C9.96483 214.394 10.9548 214.184 12.0708 214.184C13.0068 214.184 13.8228 214.34 14.5188 214.652C15.2268 214.952 15.7728 215.384 16.1568 215.948C16.5528 216.5 16.7508 217.154 16.7508 217.91C16.7508 218.594 16.6068 219.236 16.3188 219.836C16.0308 220.436 15.4728 221.12 14.6448 221.888L11.7468 224.624H17.1648ZM20.024 220.682C19.532 220.682 19.118 220.514 18.782 220.178C18.446 219.842 18.278 219.422 18.278 218.918C18.278 218.402 18.446 217.988 18.782 217.676C19.118 217.352 19.532 217.19 20.024 217.19C20.516 217.19 20.93 217.352 21.266 217.676C21.602 217.988 21.77 218.402 21.77 218.918C21.77 219.422 21.602 219.842 21.266 220.178C20.93 220.514 20.516 220.682 20.024 220.682ZM20.024 227.144C19.532 227.144 19.118 226.976 18.782 226.64C18.446 226.304 18.278 225.884 18.278 225.38C18.278 224.864 18.446 224.45 18.782 224.138C19.118 223.814 19.532 223.652 20.024 223.652C20.516 223.652 20.93 223.814 21.266 224.138C21.602 224.45 21.77 224.864 21.77 225.38C21.77 225.884 21.602 226.304 21.266 226.64C20.93 226.976 20.516 227.144 20.024 227.144ZM28.479 227.216C27.435 227.216 26.505 226.958 25.689 226.442C24.873 225.926 24.231 225.182 23.763 224.21C23.307 223.226 23.079 222.056 23.079 220.7C23.079 219.344 23.307 218.18 23.763 217.208C24.231 216.224 24.873 215.474 25.689 214.958C26.505 214.442 27.435 214.184 28.479 214.184C29.523 214.184 30.453 214.442 31.269 214.958C32.085 215.474 32.721 216.224 33.177 217.208C33.645 218.18 33.879 219.344 33.879 220.7C33.879 222.056 33.645 223.226 33.177 224.21C32.721 225.182 32.085 225.926 31.269 226.442C30.453 226.958 29.523 227.216 28.479 227.216ZM28.479 224.75C29.247 224.75 29.847 224.42 30.279 223.76C30.723 223.1 30.945 222.08 30.945 220.7C30.945 219.32 30.723 218.3 30.279 217.64C29.847 216.98 29.247 216.65 28.479 216.65C27.723 216.65 27.123 216.98 26.679 217.64C26.247 218.3 26.031 219.32 26.031 220.7C26.031 222.08 26.247 223.1 26.679 223.76C27.123 224.42 27.723 224.75 28.479 224.75ZM40.6958 227.216C39.6518 227.216 38.7218 226.958 37.9058 226.442C37.0898 225.926 36.4478 225.182 35.9798 224.21C35.5238 223.226 35.2958 222.056 35.2958 220.7C35.2958 219.344 35.5238 218.18 35.9798 217.208C36.4478 216.224 37.0898 215.474 37.9058 214.958C38.7218 214.442 39.6518 214.184 40.6958 214.184C41.7398 214.184 42.6698 214.442 43.4858 214.958C44.3018 215.474 44.9378 216.224 45.3938 217.208C45.8618 218.18 46.0958 219.344 46.0958 220.7C46.0958 222.056 45.8618 223.226 45.3938 224.21C44.9378 225.182 44.3018 225.926 43.4858 226.442C42.6698 226.958 41.7398 227.216 40.6958 227.216ZM40.6958 224.75C41.4638 224.75 42.0638 224.42 42.4958 223.76C42.9398 223.1 43.1618 222.08 43.1618 220.7C43.1618 219.32 42.9398 218.3 42.4958 217.64C42.0638 216.98 41.4638 216.65 40.6958 216.65C39.9398 216.65 39.3398 216.98 38.8958 217.64C38.4638 218.3 38.2478 219.32 38.2478 220.7C38.2478 222.08 38.4638 223.1 38.8958 223.76C39.3398 224.42 39.9398 224.75 40.6958 224.75Z" fill="#FF8686"/>
<path d="M123.778 215.2V225H122.392V221.122C121.356 221.523 120.399 221.724 119.522 221.724C118.327 221.724 117.399 221.435 116.736 220.856C116.083 220.277 115.756 219.451 115.756 218.378V215.2H117.128V218.224C117.128 218.952 117.347 219.512 117.786 219.904C118.234 220.296 118.864 220.492 119.676 220.492C120.581 220.492 121.487 220.287 122.392 219.876V215.2H123.778ZM133.317 221.332C133.317 221.435 133.307 221.57 133.289 221.738H127.269C127.353 222.391 127.637 222.919 128.123 223.32C128.617 223.712 129.229 223.908 129.957 223.908C130.843 223.908 131.557 223.609 132.099 223.012L132.841 223.88C132.505 224.272 132.085 224.571 131.581 224.776C131.086 224.981 130.531 225.084 129.915 225.084C129.131 225.084 128.435 224.925 127.829 224.608C127.222 224.281 126.751 223.829 126.415 223.25C126.088 222.671 125.925 222.018 125.925 221.29C125.925 220.571 126.083 219.923 126.401 219.344C126.727 218.765 127.171 218.317 127.731 218C128.3 217.673 128.939 217.51 129.649 217.51C130.358 217.51 130.988 217.673 131.539 218C132.099 218.317 132.533 218.765 132.841 219.344C133.158 219.923 133.317 220.585 133.317 221.332ZM129.649 218.644C129.005 218.644 128.463 218.84 128.025 219.232C127.595 219.624 127.343 220.137 127.269 220.772H132.029C131.954 220.147 131.697 219.638 131.259 219.246C130.829 218.845 130.293 218.644 129.649 218.644ZM138.286 221.864H136.746V225H135.402V217.58H136.746V220.716H138.314L140.722 217.58H142.164L139.35 221.15L142.36 225H140.778L138.286 221.864ZM142.937 220.576H146.703V221.738H142.937V220.576ZM155.674 217.58V225H154.33V218.756H150.144V225H148.8V217.58H155.674ZM161.453 225.084C160.715 225.084 160.053 224.921 159.465 224.594C158.877 224.267 158.415 223.819 158.079 223.25C157.752 222.671 157.589 222.018 157.589 221.29C157.589 220.562 157.752 219.913 158.079 219.344C158.415 218.765 158.877 218.317 159.465 218C160.053 217.673 160.715 217.51 161.453 217.51C162.19 217.51 162.848 217.673 163.427 218C164.015 218.317 164.472 218.765 164.799 219.344C165.135 219.913 165.303 220.562 165.303 221.29C165.303 222.018 165.135 222.671 164.799 223.25C164.472 223.819 164.015 224.267 163.427 224.594C162.848 224.921 162.19 225.084 161.453 225.084ZM161.453 223.908C161.929 223.908 162.353 223.801 162.727 223.586C163.109 223.362 163.408 223.054 163.623 222.662C163.837 222.261 163.945 221.803 163.945 221.29C163.945 220.777 163.837 220.324 163.623 219.932C163.408 219.531 163.109 219.223 162.727 219.008C162.353 218.793 161.929 218.686 161.453 218.686C160.977 218.686 160.547 218.793 160.165 219.008C159.791 219.223 159.493 219.531 159.269 219.932C159.054 220.324 158.947 220.777 158.947 221.29C158.947 221.803 159.054 222.261 159.269 222.662C159.493 223.054 159.791 223.362 160.165 223.586C160.547 223.801 160.977 223.908 161.453 223.908ZM167.243 217.58H168.587V222.984L173.137 217.58H174.355V225H173.011V219.596L168.475 225H167.243V217.58ZM170.715 216.614C170.025 216.614 169.488 216.451 169.105 216.124C168.723 215.788 168.527 215.307 168.517 214.682H169.427C169.437 215.027 169.553 215.307 169.777 215.522C170.011 215.727 170.319 215.83 170.701 215.83C171.084 215.83 171.392 215.727 171.625 215.522C171.859 215.307 171.98 215.027 171.989 214.682H172.927C172.918 215.307 172.717 215.788 172.325 216.124C171.933 216.451 171.397 216.614 170.715 216.614ZM176.964 217.58H178.308V220.73H182.536V217.58H183.88V225H182.536V221.892H178.308V225H176.964V217.58ZM192.023 218.756H189.307V225H187.963V218.756H185.247V217.58H192.023V218.756ZM209.519 219.638C209.043 219.638 208.614 219.54 208.231 219.344C207.858 219.148 207.564 218.877 207.349 218.532C207.135 218.187 207.027 217.799 207.027 217.37C207.027 216.941 207.135 216.553 207.349 216.208C207.564 215.863 207.858 215.597 208.231 215.41C208.614 215.214 209.043 215.116 209.519 215.116C209.995 215.116 210.42 215.214 210.793 215.41C211.176 215.597 211.47 215.863 211.675 216.208C211.89 216.553 211.997 216.941 211.997 217.37C211.997 217.799 211.89 218.187 211.675 218.532C211.47 218.877 211.176 219.148 210.793 219.344C210.42 219.54 209.995 219.638 209.519 219.638ZM204.353 215.2H205.753V225H204.605L198.725 217.692V225H197.325V215.2H198.473L204.353 222.508V215.2ZM209.519 215.914C209.053 215.914 208.675 216.049 208.385 216.32C208.105 216.591 207.965 216.941 207.965 217.37C207.965 217.799 208.11 218.149 208.399 218.42C208.689 218.691 209.062 218.826 209.519 218.826C209.977 218.826 210.345 218.691 210.625 218.42C210.915 218.149 211.059 217.799 211.059 217.37C211.059 216.941 210.915 216.591 210.625 216.32C210.345 216.049 209.977 215.914 209.519 215.914ZM207.307 220.744H211.731V221.654H207.307V220.744ZM224.033 223.782V225H216.991V224.048L220.981 220.198C221.466 219.731 221.793 219.33 221.961 218.994C222.129 218.649 222.213 218.303 222.213 217.958C222.213 217.445 222.031 217.048 221.667 216.768C221.312 216.479 220.799 216.334 220.127 216.334C219.044 216.334 218.209 216.689 217.621 217.398L216.669 216.572C217.051 216.105 217.551 215.741 218.167 215.48C218.792 215.219 219.487 215.088 220.253 215.088C221.279 215.088 222.096 215.335 222.703 215.83C223.309 216.315 223.613 216.978 223.613 217.818C223.613 218.341 223.501 218.835 223.277 219.302C223.053 219.769 222.628 220.301 222.003 220.898L219.007 223.782H224.033Z" fill="white"/>
<circle cx="84" cy="220" r="6.5" stroke="#FF8686" stroke-width="5"/>
<path d="M5.562 301.4V314H2.646V303.74H0.126V301.4H5.562ZM13.8168 306.098C14.6208 306.098 15.3528 306.26 16.0128 306.584C16.6728 306.908 17.1948 307.37 17.5788 307.97C17.9628 308.558 18.1548 309.242 18.1548 310.022C18.1548 310.862 17.9448 311.6 17.5248 312.236C17.1048 312.872 16.5288 313.364 15.7968 313.712C15.0768 314.048 14.2728 314.216 13.3848 314.216C11.6208 314.216 10.2408 313.676 9.24483 312.596C8.24883 311.516 7.75083 309.974 7.75083 307.97C7.75083 306.542 8.02083 305.318 8.56083 304.298C9.10083 303.278 9.85083 302.504 10.8108 301.976C11.7828 301.448 12.9048 301.184 14.1768 301.184C14.8488 301.184 15.4908 301.262 16.1028 301.418C16.7268 301.562 17.2548 301.772 17.6868 302.048L16.6068 304.19C15.9828 303.77 15.1968 303.56 14.2488 303.56C13.1808 303.56 12.3348 303.872 11.7108 304.496C11.0868 305.12 10.7508 306.026 10.7028 307.214C11.4468 306.47 12.4848 306.098 13.8168 306.098ZM13.2228 312.038C13.8468 312.038 14.3508 311.87 14.7348 311.534C15.1308 311.198 15.3288 310.742 15.3288 310.166C15.3288 309.59 15.1308 309.134 14.7348 308.798C14.3508 308.45 13.8348 308.276 13.1868 308.276C12.5508 308.276 12.0288 308.456 11.6208 308.816C11.2128 309.164 11.0088 309.614 11.0088 310.166C11.0088 310.718 11.2068 311.168 11.6028 311.516C11.9988 311.864 12.5388 312.038 13.2228 312.038ZM20.8678 307.682C20.3758 307.682 19.9618 307.514 19.6258 307.178C19.2898 306.842 19.1218 306.422 19.1218 305.918C19.1218 305.402 19.2898 304.988 19.6258 304.676C19.9618 304.352 20.3758 304.19 20.8678 304.19C21.3598 304.19 21.7738 304.352 22.1098 304.676C22.4458 304.988 22.6138 305.402 22.6138 305.918C22.6138 306.422 22.4458 306.842 22.1098 307.178C21.7738 307.514 21.3598 307.682 20.8678 307.682ZM20.8678 314.144C20.3758 314.144 19.9618 313.976 19.6258 313.64C19.2898 313.304 19.1218 312.884 19.1218 312.38C19.1218 311.864 19.2898 311.45 19.6258 311.138C19.9618 310.814 20.3758 310.652 20.8678 310.652C21.3598 310.652 21.7738 310.814 22.1098 311.138C22.4458 311.45 22.6138 311.864 22.6138 312.38C22.6138 312.884 22.4458 313.304 22.1098 313.64C21.7738 313.976 21.3598 314.144 20.8678 314.144ZM29.3227 314.216C28.2787 314.216 27.3487 313.958 26.5327 313.442C25.7167 312.926 25.0747 312.182 24.6067 311.21C24.1507 310.226 23.9227 309.056 23.9227 307.7C23.9227 306.344 24.1507 305.18 24.6067 304.208C25.0747 303.224 25.7167 302.474 26.5327 301.958C27.3487 301.442 28.2787 301.184 29.3227 301.184C30.3667 301.184 31.2967 301.442 32.1127 301.958C32.9287 302.474 33.5647 303.224 34.0207 304.208C34.4887 305.18 34.7227 306.344 34.7227 307.7C34.7227 309.056 34.4887 310.226 34.0207 311.21C33.5647 312.182 32.9287 312.926 32.1127 313.442C31.2967 313.958 30.3667 314.216 29.3227 314.216ZM29.3227 311.75C30.0907 311.75 30.6907 311.42 31.1227 310.76C31.5667 310.1 31.7887 309.08 31.7887 307.7C31.7887 306.32 31.5667 305.3 31.1227 304.64C30.6907 303.98 30.0907 303.65 29.3227 303.65C28.5667 303.65 27.9667 303.98 27.5227 304.64C27.0907 305.3 26.8747 306.32 26.8747 307.7C26.8747 309.08 27.0907 310.1 27.5227 310.76C27.9667 311.42 28.5667 311.75 29.3227 311.75ZM41.5395 314.216C40.4955 314.216 39.5655 313.958 38.7495 313.442C37.9335 312.926 37.2915 312.182 36.8235 311.21C36.3675 310.226 36.1395 309.056 36.1395 307.7C36.1395 306.344 36.3675 305.18 36.8235 304.208C37.2915 303.224 37.9335 302.474 38.7495 301.958C39.5655 301.442 40.4955 301.184 41.5395 301.184C42.5835 301.184 43.5135 301.442 44.3295 301.958C45.1455 302.474 45.7815 303.224 46.2375 304.208C46.7055 305.18 46.9395 306.344 46.9395 307.7C46.9395 309.056 46.7055 310.226 46.2375 311.21C45.7815 312.182 45.1455 312.926 44.3295 313.442C43.5135 313.958 42.5835 314.216 41.5395 314.216ZM41.5395 311.75C42.3075 311.75 42.9075 311.42 43.3395 310.76C43.7835 310.1 44.0055 309.08 44.0055 307.7C44.0055 306.32 43.7835 305.3 43.3395 304.64C42.9075 303.98 42.3075 303.65 41.5395 303.65C40.7835 303.65 40.1835 303.98 39.7395 304.64C39.3075 305.3 39.0915 306.32 39.0915 307.7C39.0915 309.08 39.3075 310.1 39.7395 310.76C40.1835 311.42 40.7835 311.75 41.5395 311.75Z" fill="#FF8686"/>
<path d="M119.942 307.688H117.898V312H116.526V302.2H117.898V306.456H119.97L123.05 302.2H124.548L121.048 306.946L124.716 312H123.12L119.942 307.688ZM129.009 312.084C128.272 312.084 127.609 311.921 127.021 311.594C126.433 311.267 125.971 310.819 125.635 310.25C125.309 309.671 125.145 309.018 125.145 308.29C125.145 307.562 125.309 306.913 125.635 306.344C125.971 305.765 126.433 305.317 127.021 305C127.609 304.673 128.272 304.51 129.009 304.51C129.747 304.51 130.405 304.673 130.983 305C131.571 305.317 132.029 305.765 132.355 306.344C132.691 306.913 132.859 307.562 132.859 308.29C132.859 309.018 132.691 309.671 132.355 310.25C132.029 310.819 131.571 311.267 130.983 311.594C130.405 311.921 129.747 312.084 129.009 312.084ZM129.009 310.908C129.485 310.908 129.91 310.801 130.283 310.586C130.666 310.362 130.965 310.054 131.179 309.662C131.394 309.261 131.501 308.803 131.501 308.29C131.501 307.777 131.394 307.324 131.179 306.932C130.965 306.531 130.666 306.223 130.283 306.008C129.91 305.793 129.485 305.686 129.009 305.686C128.533 305.686 128.104 305.793 127.721 306.008C127.348 306.223 127.049 306.531 126.825 306.932C126.611 307.324 126.503 307.777 126.503 308.29C126.503 308.803 126.611 309.261 126.825 309.662C127.049 310.054 127.348 310.362 127.721 310.586C128.104 310.801 128.533 310.908 129.009 310.908ZM144.166 308.276C144.166 309.424 143.783 310.329 143.018 310.992C142.253 311.655 141.175 312.023 139.784 312.098V314.716H138.468V312.098C137.077 312.023 135.999 311.659 135.234 311.006C134.478 310.343 134.1 309.433 134.1 308.276C134.1 307.128 134.478 306.232 135.234 305.588C135.99 304.944 137.068 304.585 138.468 304.51V301.612H139.784V304.51C141.175 304.585 142.253 304.949 143.018 305.602C143.783 306.246 144.166 307.137 144.166 308.276ZM135.43 308.276C135.43 309.069 135.682 309.69 136.186 310.138C136.699 310.586 137.46 310.843 138.468 310.908V305.7C137.451 305.765 136.69 306.017 136.186 306.456C135.682 306.895 135.43 307.501 135.43 308.276ZM139.784 310.922C141.819 310.763 142.836 309.881 142.836 308.276C142.836 307.492 142.579 306.885 142.066 306.456C141.553 306.017 140.792 305.765 139.784 305.7V310.922ZM152.772 308.332C152.772 308.435 152.762 308.57 152.744 308.738H146.724C146.808 309.391 147.092 309.919 147.578 310.32C148.072 310.712 148.684 310.908 149.412 310.908C150.298 310.908 151.012 310.609 151.554 310.012L152.296 310.88C151.96 311.272 151.54 311.571 151.036 311.776C150.541 311.981 149.986 312.084 149.37 312.084C148.586 312.084 147.89 311.925 147.284 311.608C146.677 311.281 146.206 310.829 145.87 310.25C145.543 309.671 145.38 309.018 145.38 308.29C145.38 307.571 145.538 306.923 145.856 306.344C146.182 305.765 146.626 305.317 147.186 305C147.755 304.673 148.394 304.51 149.104 304.51C149.813 304.51 150.443 304.673 150.994 305C151.554 305.317 151.988 305.765 152.296 306.344C152.613 306.923 152.772 307.585 152.772 308.332ZM149.104 305.644C148.46 305.644 147.918 305.84 147.48 306.232C147.05 306.624 146.798 307.137 146.724 307.772H151.484C151.409 307.147 151.152 306.638 150.714 306.246C150.284 305.845 149.748 305.644 149.104 305.644ZM154.489 307.576H158.255V308.738H154.489V307.576ZM164.228 304.832C164.919 304.832 165.535 304.986 166.076 305.294C166.618 305.602 167.038 306.031 167.336 306.582C167.644 307.123 167.798 307.744 167.798 308.444C167.798 309.163 167.635 309.802 167.308 310.362C166.991 310.913 166.538 311.342 165.95 311.65C165.372 311.958 164.709 312.112 163.962 312.112C162.702 312.112 161.727 311.683 161.036 310.824C160.355 309.956 160.014 308.738 160.014 307.17C160.014 305.649 160.327 304.459 160.952 303.6C161.578 302.732 162.534 302.158 163.822 301.878L167.21 301.122L167.406 302.354L164.284 303.026C163.314 303.241 162.59 303.605 162.114 304.118C161.638 304.631 161.368 305.369 161.302 306.33C161.62 305.854 162.03 305.485 162.534 305.224C163.038 304.963 163.603 304.832 164.228 304.832ZM163.99 310.992C164.466 310.992 164.886 310.885 165.25 310.67C165.624 310.455 165.913 310.161 166.118 309.788C166.324 309.405 166.426 308.971 166.426 308.486C166.426 307.749 166.202 307.156 165.754 306.708C165.306 306.26 164.718 306.036 163.99 306.036C163.262 306.036 162.67 306.26 162.212 306.708C161.764 307.156 161.54 307.749 161.54 308.486C161.54 308.971 161.643 309.405 161.848 309.788C162.063 310.161 162.357 310.455 162.73 310.67C163.104 310.885 163.524 310.992 163.99 310.992ZM173.652 304.51C174.371 304.51 175.015 304.669 175.584 304.986C176.153 305.303 176.597 305.747 176.914 306.316C177.241 306.885 177.404 307.543 177.404 308.29C177.404 309.037 177.241 309.699 176.914 310.278C176.597 310.847 176.153 311.291 175.584 311.608C175.015 311.925 174.371 312.084 173.652 312.084C173.12 312.084 172.63 311.981 172.182 311.776C171.743 311.571 171.37 311.272 171.062 310.88V314.716H169.718V304.58H171.006V305.756C171.305 305.345 171.683 305.037 172.14 304.832C172.597 304.617 173.101 304.51 173.652 304.51ZM173.54 310.908C174.016 310.908 174.441 310.801 174.814 310.586C175.197 310.362 175.495 310.054 175.71 309.662C175.934 309.261 176.046 308.803 176.046 308.29C176.046 307.777 175.934 307.324 175.71 306.932C175.495 306.531 175.197 306.223 174.814 306.008C174.441 305.793 174.016 305.686 173.54 305.686C173.073 305.686 172.649 305.798 172.266 306.022C171.893 306.237 171.594 306.54 171.37 306.932C171.155 307.324 171.048 307.777 171.048 308.29C171.048 308.803 171.155 309.261 171.37 309.662C171.585 310.054 171.883 310.362 172.266 310.586C172.649 310.801 173.073 310.908 173.54 310.908ZM186.063 308.332C186.063 308.435 186.053 308.57 186.035 308.738H180.015C180.099 309.391 180.383 309.919 180.869 310.32C181.363 310.712 181.975 310.908 182.703 310.908C183.589 310.908 184.303 310.609 184.845 310.012L185.587 310.88C185.251 311.272 184.831 311.571 184.327 311.776C183.832 311.981 183.277 312.084 182.661 312.084C181.877 312.084 181.181 311.925 180.575 311.608C179.968 311.281 179.497 310.829 179.161 310.25C178.834 309.671 178.671 309.018 178.671 308.29C178.671 307.571 178.829 306.923 179.147 306.344C179.473 305.765 179.917 305.317 180.477 305C181.046 304.673 181.685 304.51 182.395 304.51C183.104 304.51 183.734 304.673 184.285 305C184.845 305.317 185.279 305.765 185.587 306.344C185.904 306.923 186.063 307.585 186.063 308.332ZM182.395 305.644C181.751 305.644 181.209 305.84 180.771 306.232C180.341 306.624 180.089 307.137 180.015 307.772H184.775C184.7 307.147 184.443 306.638 184.005 306.246C183.575 305.845 183.039 305.644 182.395 305.644ZM188.148 304.58H189.492V309.984L194.042 304.58H195.26V312H193.916V306.596L189.38 312H188.148V304.58ZM191.62 303.614C190.929 303.614 190.392 303.451 190.01 303.124C189.627 302.788 189.431 302.307 189.422 301.682H190.332C190.341 302.027 190.458 302.307 190.682 302.522C190.915 302.727 191.223 302.83 191.606 302.83C191.988 302.83 192.296 302.727 192.53 302.522C192.763 302.307 192.884 302.027 192.894 301.682H193.832C193.822 302.307 193.622 302.788 193.23 303.124C192.838 303.451 192.301 303.614 191.62 303.614ZM200.752 308.864H199.212V312H197.868V304.58H199.212V307.716H200.78L203.188 304.58H204.63L201.816 308.15L204.826 312H203.244L200.752 308.864Z" fill="white"/>
<circle cx="84" cy="308" r="6.5" stroke="#FF8686" stroke-width="5"/>
<path d="M5.562 389.4V402H2.646V391.74H0.126V389.4H5.562ZM12.1788 389.184C13.9428 389.184 15.3228 389.724 16.3188 390.804C17.3148 391.872 17.8128 393.414 17.8128 395.43C17.8128 396.858 17.5428 398.082 17.0028 399.102C16.4748 400.122 15.7248 400.896 14.7528 401.424C13.7808 401.952 12.6588 402.216 11.3868 402.216C10.7148 402.216 10.0728 402.144 9.46083 402C8.84883 401.844 8.32683 401.628 7.89483 401.352L8.97483 399.21C9.58683 399.63 10.3728 399.84 11.3328 399.84C12.4008 399.84 13.2468 399.528 13.8708 398.904C14.4948 398.268 14.8308 397.356 14.8788 396.168C14.1228 396.924 13.0788 397.302 11.7468 397.302C10.9428 397.302 10.2108 397.14 9.55083 396.816C8.89083 396.492 8.36883 396.036 7.98483 395.448C7.60083 394.848 7.40883 394.158 7.40883 393.378C7.40883 392.538 7.61883 391.8 8.03883 391.164C8.45883 390.528 9.02883 390.042 9.74883 389.706C10.4808 389.358 11.2908 389.184 12.1788 389.184ZM12.3948 395.124C13.0308 395.124 13.5468 394.95 13.9428 394.602C14.3508 394.242 14.5548 393.786 14.5548 393.234C14.5548 392.682 14.3568 392.232 13.9608 391.884C13.5768 391.536 13.0428 391.362 12.3588 391.362C11.7348 391.362 11.2248 391.53 10.8288 391.866C10.4448 392.202 10.2528 392.658 10.2528 393.234C10.2528 393.81 10.4448 394.272 10.8288 394.62C11.2248 394.956 11.7468 395.124 12.3948 395.124ZM20.8678 395.682C20.3758 395.682 19.9618 395.514 19.6258 395.178C19.2898 394.842 19.1218 394.422 19.1218 393.918C19.1218 393.402 19.2898 392.988 19.6258 392.676C19.9618 392.352 20.3758 392.19 20.8678 392.19C21.3598 392.19 21.7738 392.352 22.1098 392.676C22.4458 392.988 22.6138 393.402 22.6138 393.918C22.6138 394.422 22.4458 394.842 22.1098 395.178C21.7738 395.514 21.3598 395.682 20.8678 395.682ZM20.8678 402.144C20.3758 402.144 19.9618 401.976 19.6258 401.64C19.2898 401.304 19.1218 400.884 19.1218 400.38C19.1218 399.864 19.2898 399.45 19.6258 399.138C19.9618 398.814 20.3758 398.652 20.8678 398.652C21.3598 398.652 21.7738 398.814 22.1098 399.138C22.4458 399.45 22.6138 399.864 22.6138 400.38C22.6138 400.884 22.4458 401.304 22.1098 401.64C21.7738 401.976 21.3598 402.144 20.8678 402.144ZM29.3227 402.216C28.2787 402.216 27.3487 401.958 26.5327 401.442C25.7167 400.926 25.0747 400.182 24.6067 399.21C24.1507 398.226 23.9227 397.056 23.9227 395.7C23.9227 394.344 24.1507 393.18 24.6067 392.208C25.0747 391.224 25.7167 390.474 26.5327 389.958C27.3487 389.442 28.2787 389.184 29.3227 389.184C30.3667 389.184 31.2967 389.442 32.1127 389.958C32.9287 390.474 33.5647 391.224 34.0207 392.208C34.4887 393.18 34.7227 394.344 34.7227 395.7C34.7227 397.056 34.4887 398.226 34.0207 399.21C33.5647 400.182 32.9287 400.926 32.1127 401.442C31.2967 401.958 30.3667 402.216 29.3227 402.216ZM29.3227 399.75C30.0907 399.75 30.6907 399.42 31.1227 398.76C31.5667 398.1 31.7887 397.08 31.7887 395.7C31.7887 394.32 31.5667 393.3 31.1227 392.64C30.6907 391.98 30.0907 391.65 29.3227 391.65C28.5667 391.65 27.9667 391.98 27.5227 392.64C27.0907 393.3 26.8747 394.32 26.8747 395.7C26.8747 397.08 27.0907 398.1 27.5227 398.76C27.9667 399.42 28.5667 399.75 29.3227 399.75ZM41.5395 402.216C40.4955 402.216 39.5655 401.958 38.7495 401.442C37.9335 400.926 37.2915 400.182 36.8235 399.21C36.3675 398.226 36.1395 397.056 36.1395 395.7C36.1395 394.344 36.3675 393.18 36.8235 392.208C37.2915 391.224 37.9335 390.474 38.7495 389.958C39.5655 389.442 40.4955 389.184 41.5395 389.184C42.5835 389.184 43.5135 389.442 44.3295 389.958C45.1455 390.474 45.7815 391.224 46.2375 392.208C46.7055 393.18 46.9395 394.344 46.9395 395.7C46.9395 397.056 46.7055 398.226 46.2375 399.21C45.7815 400.182 45.1455 400.926 44.3295 401.442C43.5135 401.958 42.5835 402.216 41.5395 402.216ZM41.5395 399.75C42.3075 399.75 42.9075 399.42 43.3395 398.76C43.7835 398.1 44.0055 397.08 44.0055 395.7C44.0055 394.32 43.7835 393.3 43.3395 392.64C42.9075 391.98 42.3075 391.65 41.5395 391.65C40.7835 391.65 40.1835 391.98 39.7395 392.64C39.3075 393.3 39.0915 394.32 39.0915 395.7C39.0915 397.08 39.3075 398.1 39.7395 398.76C40.1835 399.42 40.7835 399.75 41.5395 399.75Z" fill="#FF8686"/>
<path d="M123.778 390.2V400H122.392V396.122C121.356 396.523 120.399 396.724 119.522 396.724C118.327 396.724 117.399 396.435 116.736 395.856C116.083 395.277 115.756 394.451 115.756 393.378V390.2H117.128V393.224C117.128 393.952 117.347 394.512 117.786 394.904C118.234 395.296 118.864 395.492 119.676 395.492C120.581 395.492 121.487 395.287 122.392 394.876V390.2H123.778ZM133.317 396.332C133.317 396.435 133.307 396.57 133.289 396.738H127.269C127.353 397.391 127.637 397.919 128.123 398.32C128.617 398.712 129.229 398.908 129.957 398.908C130.843 398.908 131.557 398.609 132.099 398.012L132.841 398.88C132.505 399.272 132.085 399.571 131.581 399.776C131.086 399.981 130.531 400.084 129.915 400.084C129.131 400.084 128.435 399.925 127.829 399.608C127.222 399.281 126.751 398.829 126.415 398.25C126.088 397.671 125.925 397.018 125.925 396.29C125.925 395.571 126.083 394.923 126.401 394.344C126.727 393.765 127.171 393.317 127.731 393C128.3 392.673 128.939 392.51 129.649 392.51C130.358 392.51 130.988 392.673 131.539 393C132.099 393.317 132.533 393.765 132.841 394.344C133.158 394.923 133.317 395.585 133.317 396.332ZM129.649 393.644C129.005 393.644 128.463 393.84 128.025 394.232C127.595 394.624 127.343 395.137 127.269 395.772H132.029C131.954 395.147 131.697 394.638 131.259 394.246C130.829 393.845 130.293 393.644 129.649 393.644ZM138.286 396.864H136.746V400H135.402V392.58H136.746V395.716H138.314L140.722 392.58H142.164L139.35 396.15L142.36 400H140.778L138.286 396.864ZM142.937 395.576H146.703V396.738H142.937V395.576ZM155.674 392.58V400H154.33V393.756H150.144V400H148.8V392.58H155.674ZM161.453 400.084C160.715 400.084 160.053 399.921 159.465 399.594C158.877 399.267 158.415 398.819 158.079 398.25C157.752 397.671 157.589 397.018 157.589 396.29C157.589 395.562 157.752 394.913 158.079 394.344C158.415 393.765 158.877 393.317 159.465 393C160.053 392.673 160.715 392.51 161.453 392.51C162.19 392.51 162.848 392.673 163.427 393C164.015 393.317 164.472 393.765 164.799 394.344C165.135 394.913 165.303 395.562 165.303 396.29C165.303 397.018 165.135 397.671 164.799 398.25C164.472 398.819 164.015 399.267 163.427 399.594C162.848 399.921 162.19 400.084 161.453 400.084ZM161.453 398.908C161.929 398.908 162.353 398.801 162.727 398.586C163.109 398.362 163.408 398.054 163.623 397.662C163.837 397.261 163.945 396.803 163.945 396.29C163.945 395.777 163.837 395.324 163.623 394.932C163.408 394.531 163.109 394.223 162.727 394.008C162.353 393.793 161.929 393.686 161.453 393.686C160.977 393.686 160.547 393.793 160.165 394.008C159.791 394.223 159.493 394.531 159.269 394.932C159.054 395.324 158.947 395.777 158.947 396.29C158.947 396.803 159.054 397.261 159.269 397.662C159.493 398.054 159.791 398.362 160.165 398.586C160.547 398.801 160.977 398.908 161.453 398.908ZM167.243 392.58H168.587V397.984L173.137 392.58H174.355V400H173.011V394.596L168.475 400H167.243V392.58ZM170.715 391.614C170.025 391.614 169.488 391.451 169.105 391.124C168.723 390.788 168.527 390.307 168.517 389.682H169.427C169.437 390.027 169.553 390.307 169.777 390.522C170.011 390.727 170.319 390.83 170.701 390.83C171.084 390.83 171.392 390.727 171.625 390.522C171.859 390.307 171.98 390.027 171.989 389.682H172.927C172.918 390.307 172.717 390.788 172.325 391.124C171.933 391.451 171.397 391.614 170.715 391.614ZM176.964 392.58H178.308V395.73H182.536V392.58H183.88V400H182.536V396.892H178.308V400H176.964V392.58ZM192.023 393.756H189.307V400H187.963V393.756H185.247V392.58H192.023V393.756ZM209.519 394.638C209.043 394.638 208.614 394.54 208.231 394.344C207.858 394.148 207.564 393.877 207.349 393.532C207.135 393.187 207.027 392.799 207.027 392.37C207.027 391.941 207.135 391.553 207.349 391.208C207.564 390.863 207.858 390.597 208.231 390.41C208.614 390.214 209.043 390.116 209.519 390.116C209.995 390.116 210.42 390.214 210.793 390.41C211.176 390.597 211.47 390.863 211.675 391.208C211.89 391.553 211.997 391.941 211.997 392.37C211.997 392.799 211.89 393.187 211.675 393.532C211.47 393.877 211.176 394.148 210.793 394.344C210.42 394.54 209.995 394.638 209.519 394.638ZM204.353 390.2H205.753V400H204.605L198.725 392.692V400H197.325V390.2H198.473L204.353 397.508V390.2ZM209.519 390.914C209.053 390.914 208.675 391.049 208.385 391.32C208.105 391.591 207.965 391.941 207.965 392.37C207.965 392.799 208.11 393.149 208.399 393.42C208.689 393.691 209.062 393.826 209.519 393.826C209.977 393.826 210.345 393.691 210.625 393.42C210.915 393.149 211.059 392.799 211.059 392.37C211.059 391.941 210.915 391.591 210.625 391.32C210.345 391.049 209.977 390.914 209.519 390.914ZM207.307 395.744H211.731V396.654H207.307V395.744ZM220.897 394.316C221.858 394.409 222.591 394.708 223.095 395.212C223.599 395.707 223.851 396.341 223.851 397.116C223.851 397.676 223.711 398.185 223.431 398.642C223.151 399.09 222.731 399.449 222.171 399.72C221.62 399.981 220.943 400.112 220.141 400.112C219.441 400.112 218.769 400.009 218.125 399.804C217.481 399.589 216.953 399.295 216.543 398.922L217.187 397.816C217.523 398.133 217.952 398.39 218.475 398.586C218.997 398.773 219.553 398.866 220.141 398.866C220.869 398.866 221.433 398.712 221.835 398.404C222.245 398.096 222.451 397.671 222.451 397.13C222.451 396.589 222.25 396.169 221.849 395.87C221.447 395.571 220.841 395.422 220.029 395.422H219.245V394.442L221.709 391.418H216.991V390.2H223.459V391.152L220.897 394.316Z" fill="white"/>
<circle cx="84" cy="396" r="6.5" stroke="#FF8686" stroke-width="5"/>
<path d="M10.116 489.624V492H0.594V490.11L5.454 485.52C5.97 485.028 6.318 484.608 6.498 484.26C6.678 483.9 6.768 483.546 6.768 483.198C6.768 482.694 6.594 482.31 6.246 482.046C5.91 481.77 5.412 481.632 4.752 481.632C4.2 481.632 3.702 481.74 3.258 481.956C2.814 482.16 2.442 482.472 2.142 482.892L0.018 481.524C0.51 480.792 1.188 480.222 2.052 479.814C2.916 479.394 3.906 479.184 5.022 479.184C5.958 479.184 6.774 479.34 7.47 479.652C8.178 479.952 8.724 480.384 9.108 480.948C9.504 481.5 9.702 482.154 9.702 482.91C9.702 483.594 9.558 484.236 9.27 484.836C8.982 485.436 8.424 486.12 7.596 486.888L4.698 489.624H10.116ZM20.7332 489.624V492H11.2112V490.11L16.0712 485.52C16.5872 485.028 16.9352 484.608 17.1152 484.26C17.2952 483.9 17.3852 483.546 17.3852 483.198C17.3852 482.694 17.2112 482.31 16.8632 482.046C16.5272 481.77 16.0292 481.632 15.3692 481.632C14.8172 481.632 14.3192 481.74 13.8752 481.956C13.4312 482.16 13.0592 482.472 12.7592 482.892L10.6352 481.524C11.1272 480.792 11.8052 480.222 12.6692 479.814C13.5332 479.394 14.5232 479.184 15.6392 479.184C16.5752 479.184 17.3912 479.34 18.0872 479.652C18.7952 479.952 19.3412 480.384 19.7252 480.948C20.1212 481.5 20.3192 482.154 20.3192 482.91C20.3192 483.594 20.1752 484.236 19.8872 484.836C19.5992 485.436 19.0412 486.12 18.2132 486.888L15.3152 489.624H20.7332ZM23.5924 485.682C23.1004 485.682 22.6864 485.514 22.3504 485.178C22.0144 484.842 21.8464 484.422 21.8464 483.918C21.8464 483.402 22.0144 482.988 22.3504 482.676C22.6864 482.352 23.1004 482.19 23.5924 482.19C24.0844 482.19 24.4984 482.352 24.8344 482.676C25.1704 482.988 25.3384 483.402 25.3384 483.918C25.3384 484.422 25.1704 484.842 24.8344 485.178C24.4984 485.514 24.0844 485.682 23.5924 485.682ZM23.5924 492.144C23.1004 492.144 22.6864 491.976 22.3504 491.64C22.0144 491.304 21.8464 490.884 21.8464 490.38C21.8464 489.864 22.0144 489.45 22.3504 489.138C22.6864 488.814 23.1004 488.652 23.5924 488.652C24.0844 488.652 24.4984 488.814 24.8344 489.138C25.1704 489.45 25.3384 489.864 25.3384 490.38C25.3384 490.884 25.1704 491.304 24.8344 491.64C24.4984 491.976 24.0844 492.144 23.5924 492.144ZM32.0473 492.216C31.0033 492.216 30.0733 491.958 29.2573 491.442C28.4413 490.926 27.7993 490.182 27.3313 489.21C26.8753 488.226 26.6473 487.056 26.6473 485.7C26.6473 484.344 26.8753 483.18 27.3313 482.208C27.7993 481.224 28.4413 480.474 29.2573 479.958C30.0733 479.442 31.0033 479.184 32.0473 479.184C33.0913 479.184 34.0213 479.442 34.8373 479.958C35.6533 480.474 36.2893 481.224 36.7453 482.208C37.2133 483.18 37.4473 484.344 37.4473 485.7C37.4473 487.056 37.2133 488.226 36.7453 489.21C36.2893 490.182 35.6533 490.926 34.8373 491.442C34.0213 491.958 33.0913 492.216 32.0473 492.216ZM32.0473 489.75C32.8153 489.75 33.4153 489.42 33.8473 488.76C34.2913 488.1 34.5133 487.08 34.5133 485.7C34.5133 484.32 34.2913 483.3 33.8473 482.64C33.4153 481.98 32.8153 481.65 32.0473 481.65C31.2913 481.65 30.6913 481.98 30.2473 482.64C29.8153 483.3 29.5993 484.32 29.5993 485.7C29.5993 487.08 29.8153 488.1 30.2473 488.76C30.6913 489.42 31.2913 489.75 32.0473 489.75ZM44.2641 492.216C43.2201 492.216 42.2901 491.958 41.4741 491.442C40.6581 490.926 40.0161 490.182 39.5481 489.21C39.0921 488.226 38.8641 487.056 38.8641 485.7C38.8641 484.344 39.0921 483.18 39.5481 482.208C40.0161 481.224 40.6581 480.474 41.4741 479.958C42.2901 479.442 43.2201 479.184 44.2641 479.184C45.3081 479.184 46.2381 479.442 47.0541 479.958C47.8701 480.474 48.5061 481.224 48.9621 482.208C49.4301 483.18 49.6641 484.344 49.6641 485.7C49.6641 487.056 49.4301 488.226 48.9621 489.21C48.5061 490.182 47.8701 490.926 47.0541 491.442C46.2381 491.958 45.3081 492.216 44.2641 492.216ZM44.2641 489.75C45.0321 489.75 45.6321 489.42 46.0641 488.76C46.5081 488.1 46.7301 487.08 46.7301 485.7C46.7301 484.32 46.5081 483.3 46.0641 482.64C45.6321 481.98 45.0321 481.65 44.2641 481.65C43.5081 481.65 42.9081 481.98 42.4641 482.64C42.0321 483.3 41.8161 484.32 41.8161 485.7C41.8161 487.08 42.0321 488.1 42.4641 488.76C42.9081 489.42 43.5081 489.75 44.2641 489.75ZM51.3852 485.808H56.4792V488.058H51.3852V485.808ZM6.102 519.216C5.058 519.216 4.128 518.958 3.312 518.442C2.496 517.926 1.854 517.182 1.386 516.21C0.93 515.226 0.702 514.056 0.702 512.7C0.702 511.344 0.93 510.18 1.386 509.208C1.854 508.224 2.496 507.474 3.312 506.958C4.128 506.442 5.058 506.184 6.102 506.184C7.146 506.184 8.076 506.442 8.892 506.958C9.708 507.474 10.344 508.224 10.8 509.208C11.268 510.18 11.502 511.344 11.502 512.7C11.502 514.056 11.268 515.226 10.8 516.21C10.344 517.182 9.708 517.926 8.892 518.442C8.076 518.958 7.146 519.216 6.102 519.216ZM6.102 516.75C6.87 516.75 7.47 516.42 7.902 515.76C8.346 515.1 8.568 514.08 8.568 512.7C8.568 511.32 8.346 510.3 7.902 509.64C7.47 508.98 6.87 508.65 6.102 508.65C5.346 508.65 4.746 508.98 4.302 509.64C3.87 510.3 3.654 511.32 3.654 512.7C3.654 514.08 3.87 515.1 4.302 515.76C4.746 516.42 5.346 516.75 6.102 516.75ZM18.3188 519.216C17.2748 519.216 16.3448 518.958 15.5288 518.442C14.7128 517.926 14.0708 517.182 13.6028 516.21C13.1468 515.226 12.9188 514.056 12.9188 512.7C12.9188 511.344 13.1468 510.18 13.6028 509.208C14.0708 508.224 14.7128 507.474 15.5288 506.958C16.3448 506.442 17.2748 506.184 18.3188 506.184C19.3628 506.184 20.2928 506.442 21.1088 506.958C21.9248 507.474 22.5608 508.224 23.0168 509.208C23.4848 510.18 23.7188 511.344 23.7188 512.7C23.7188 514.056 23.4848 515.226 23.0168 516.21C22.5608 517.182 21.9248 517.926 21.1088 518.442C20.2928 518.958 19.3628 519.216 18.3188 519.216ZM18.3188 516.75C19.0868 516.75 19.6868 516.42 20.1188 515.76C20.5628 515.1 20.7848 514.08 20.7848 512.7C20.7848 511.32 20.5628 510.3 20.1188 509.64C19.6868 508.98 19.0868 508.65 18.3188 508.65C17.5628 508.65 16.9628 508.98 16.5188 509.64C16.0868 510.3 15.8708 511.32 15.8708 512.7C15.8708 514.08 16.0868 515.1 16.5188 515.76C16.9628 516.42 17.5628 516.75 18.3188 516.75ZM26.7916 512.682C26.2996 512.682 25.8856 512.514 25.5496 512.178C25.2136 511.842 25.0456 511.422 25.0456 510.918C25.0456 510.402 25.2136 509.988 25.5496 509.676C25.8856 509.352 26.2996 509.19 26.7916 509.19C27.2836 509.19 27.6976 509.352 28.0336 509.676C28.3696 509.988 28.5376 510.402 28.5376 510.918C28.5376 511.422 28.3696 511.842 28.0336 512.178C27.6976 512.514 27.2836 512.682 26.7916 512.682ZM26.7916 519.144C26.2996 519.144 25.8856 518.976 25.5496 518.64C25.2136 518.304 25.0456 517.884 25.0456 517.38C25.0456 516.864 25.2136 516.45 25.5496 516.138C25.8856 515.814 26.2996 515.652 26.7916 515.652C27.2836 515.652 27.6976 515.814 28.0336 516.138C28.3696 516.45 28.5376 516.864 28.5376 517.38C28.5376 517.884 28.3696 518.304 28.0336 518.64C27.6976 518.976 27.2836 519.144 26.7916 519.144ZM35.2465 519.216C34.2025 519.216 33.2725 518.958 32.4565 518.442C31.6405 517.926 30.9985 517.182 30.5305 516.21C30.0745 515.226 29.8465 514.056 29.8465 512.7C29.8465 511.344 30.0745 510.18 30.5305 509.208C30.9985 508.224 31.6405 507.474 32.4565 506.958C33.2725 506.442 34.2025 506.184 35.2465 506.184C36.2905 506.184 37.2205 506.442 38.0365 506.958C38.8525 507.474 39.4885 508.224 39.9445 509.208C40.4125 510.18 40.6465 511.344 40.6465 512.7C40.6465 514.056 40.4125 515.226 39.9445 516.21C39.4885 517.182 38.8525 517.926 38.0365 518.442C37.2205 518.958 36.2905 519.216 35.2465 519.216ZM35.2465 516.75C36.0145 516.75 36.6145 516.42 37.0465 515.76C37.4905 515.1 37.7125 514.08 37.7125 512.7C37.7125 511.32 37.4905 510.3 37.0465 509.64C36.6145 508.98 36.0145 508.65 35.2465 508.65C34.4905 508.65 33.8905 508.98 33.4465 509.64C33.0145 510.3 32.7985 511.32 32.7985 512.7C32.7985 514.08 33.0145 515.1 33.4465 515.76C33.8905 516.42 34.4905 516.75 35.2465 516.75ZM47.4633 519.216C46.4193 519.216 45.4893 518.958 44.6733 518.442C43.8573 517.926 43.2153 517.182 42.7473 516.21C42.2913 515.226 42.0633 514.056 42.0633 512.7C42.0633 511.344 42.2913 510.18 42.7473 509.208C43.2153 508.224 43.8573 507.474 44.6733 506.958C45.4893 506.442 46.4193 506.184 47.4633 506.184C48.5073 506.184 49.4373 506.442 50.2533 506.958C51.0693 507.474 51.7053 508.224 52.1613 509.208C52.6293 510.18 52.8633 511.344 52.8633 512.7C52.8633 514.056 52.6293 515.226 52.1613 516.21C51.7053 517.182 51.0693 517.926 50.2533 518.442C49.4373 518.958 48.5073 519.216 47.4633 519.216ZM47.4633 516.75C48.2313 516.75 48.8313 516.42 49.2633 515.76C49.7073 515.1 49.9293 514.08 49.9293 512.7C49.9293 511.32 49.7073 510.3 49.2633 509.64C48.8313 508.98 48.2313 508.65 47.4633 508.65C46.7073 508.65 46.1073 508.98 45.6633 509.64C45.2313 510.3 45.0153 511.32 45.0153 512.7C45.0153 514.08 45.2313 515.1 45.6633 515.76C46.1073 516.42 46.7073 516.75 47.4633 516.75Z" fill="#FF8686"/>
<path d="M120.348 480.2C121.617 480.2 122.616 480.503 123.344 481.11C124.072 481.717 124.436 482.552 124.436 483.616C124.436 484.68 124.072 485.515 123.344 486.122C122.616 486.729 121.617 487.032 120.348 487.032H117.926V490H116.526V480.2H120.348ZM120.306 485.814C121.193 485.814 121.869 485.627 122.336 485.254C122.803 484.871 123.036 484.325 123.036 483.616C123.036 482.907 122.803 482.365 122.336 481.992C121.869 481.609 121.193 481.418 120.306 481.418H117.926V485.814H120.306ZM128.737 482.51C129.764 482.51 130.548 482.762 131.089 483.266C131.64 483.77 131.915 484.521 131.915 485.52V490H130.641V489.02C130.417 489.365 130.095 489.631 129.675 489.818C129.264 489.995 128.774 490.084 128.205 490.084C127.374 490.084 126.707 489.883 126.203 489.482C125.708 489.081 125.461 488.553 125.461 487.9C125.461 487.247 125.699 486.724 126.175 486.332C126.651 485.931 127.407 485.73 128.443 485.73H130.571V485.464C130.571 484.885 130.403 484.442 130.067 484.134C129.731 483.826 129.236 483.672 128.583 483.672C128.144 483.672 127.715 483.747 127.295 483.896C126.875 484.036 126.52 484.227 126.231 484.47L125.671 483.462C126.054 483.154 126.511 482.921 127.043 482.762C127.575 482.594 128.14 482.51 128.737 482.51ZM128.429 489.048C128.942 489.048 129.386 488.936 129.759 488.712C130.132 488.479 130.403 488.152 130.571 487.732V486.696H128.499C127.36 486.696 126.791 487.079 126.791 487.844C126.791 488.217 126.936 488.511 127.225 488.726C127.514 488.941 127.916 489.048 128.429 489.048ZM138.23 486.136C138.725 486.267 139.107 486.477 139.378 486.766C139.649 487.055 139.784 487.415 139.784 487.844C139.784 488.283 139.635 488.675 139.336 489.02C139.037 489.356 138.622 489.622 138.09 489.818C137.567 490.005 136.979 490.098 136.326 490.098C135.775 490.098 135.234 490.028 134.702 489.888C134.179 489.739 133.713 489.529 133.302 489.258L133.708 488.236C134.063 488.46 134.469 488.637 134.926 488.768C135.383 488.889 135.845 488.95 136.312 488.95C136.947 488.95 137.451 488.843 137.824 488.628C138.207 488.404 138.398 488.105 138.398 487.732C138.398 487.387 138.244 487.121 137.936 486.934C137.637 486.747 137.213 486.654 136.662 486.654H135.304V485.688H136.564C137.068 485.688 137.465 485.599 137.754 485.422C138.043 485.245 138.188 485.002 138.188 484.694C138.188 484.358 138.015 484.097 137.67 483.91C137.334 483.723 136.877 483.63 136.298 483.63C135.561 483.63 134.781 483.821 133.96 484.204L133.596 483.168C134.501 482.711 135.449 482.482 136.438 482.482C137.035 482.482 137.572 482.566 138.048 482.734C138.524 482.902 138.897 483.14 139.168 483.448C139.439 483.756 139.574 484.106 139.574 484.498C139.574 484.862 139.453 485.189 139.21 485.478C138.967 485.767 138.641 485.987 138.23 486.136ZM146.881 486.15C147.843 486.393 148.323 486.995 148.323 487.956C148.323 488.609 148.076 489.113 147.581 489.468C147.096 489.823 146.368 490 145.397 490H141.827V482.58H145.271C146.149 482.58 146.835 482.748 147.329 483.084C147.824 483.411 148.071 483.877 148.071 484.484C148.071 484.876 147.964 485.217 147.749 485.506C147.544 485.786 147.255 486.001 146.881 486.15ZM143.143 485.772H145.159C145.673 485.772 146.06 485.679 146.321 485.492C146.592 485.305 146.727 485.035 146.727 484.68C146.727 483.971 146.205 483.616 145.159 483.616H143.143V485.772ZM145.299 488.964C145.859 488.964 146.279 488.875 146.559 488.698C146.839 488.521 146.979 488.245 146.979 487.872C146.979 487.489 146.849 487.205 146.587 487.018C146.335 486.831 145.934 486.738 145.383 486.738H143.143V488.964H145.299ZM156.797 482.58V490H155.453V483.756H152.261L152.177 485.408C152.13 486.407 152.042 487.242 151.911 487.914C151.78 488.577 151.566 489.109 151.267 489.51C150.968 489.911 150.553 490.112 150.021 490.112C149.778 490.112 149.503 490.07 149.195 489.986L149.279 488.852C149.4 488.88 149.512 488.894 149.615 488.894C149.988 488.894 150.268 488.731 150.455 488.404C150.642 488.077 150.763 487.69 150.819 487.242C150.875 486.794 150.926 486.155 150.973 485.324L151.099 482.58H156.797ZM166.102 486.332C166.102 486.435 166.092 486.57 166.074 486.738H160.054C160.138 487.391 160.422 487.919 160.908 488.32C161.402 488.712 162.014 488.908 162.742 488.908C163.628 488.908 164.342 488.609 164.884 488.012L165.626 488.88C165.29 489.272 164.87 489.571 164.366 489.776C163.871 489.981 163.316 490.084 162.7 490.084C161.916 490.084 161.22 489.925 160.614 489.608C160.007 489.281 159.536 488.829 159.2 488.25C158.873 487.671 158.71 487.018 158.71 486.29C158.71 485.571 158.868 484.923 159.186 484.344C159.512 483.765 159.956 483.317 160.516 483C161.085 482.673 161.724 482.51 162.434 482.51C163.143 482.51 163.773 482.673 164.324 483C164.884 483.317 165.318 483.765 165.626 484.344C165.943 484.923 166.102 485.585 166.102 486.332ZM162.434 483.644C161.79 483.644 161.248 483.84 160.81 484.232C160.38 484.624 160.128 485.137 160.054 485.772H164.814C164.739 485.147 164.482 484.638 164.044 484.246C163.614 483.845 163.078 483.644 162.434 483.644ZM171.071 486.864H169.531V490H168.187V482.58H169.531V485.716H171.099L173.507 482.58H174.949L172.135 486.15L175.145 490H173.563L171.071 486.864ZM179.063 482.51C180.09 482.51 180.874 482.762 181.415 483.266C181.966 483.77 182.241 484.521 182.241 485.52V490H180.967V489.02C180.743 489.365 180.421 489.631 180.001 489.818C179.591 489.995 179.101 490.084 178.531 490.084C177.701 490.084 177.033 489.883 176.529 489.482C176.035 489.081 175.787 488.553 175.787 487.9C175.787 487.247 176.025 486.724 176.501 486.332C176.977 485.931 177.733 485.73 178.769 485.73H180.897V485.464C180.897 484.885 180.729 484.442 180.393 484.134C180.057 483.826 179.563 483.672 178.909 483.672C178.471 483.672 178.041 483.747 177.621 483.896C177.201 484.036 176.847 484.227 176.557 484.47L175.997 483.462C176.38 483.154 176.837 482.921 177.369 482.762C177.901 482.594 178.466 482.51 179.063 482.51ZM178.755 489.048C179.269 489.048 179.712 488.936 180.085 488.712C180.459 488.479 180.729 488.152 180.897 487.732V486.696H178.825C177.687 486.696 177.117 487.079 177.117 487.844C177.117 488.217 177.262 488.511 177.551 488.726C177.841 488.941 178.242 489.048 178.755 489.048ZM190.191 483.756H187.475V490H186.131V483.756H183.415V482.58H190.191V483.756ZM197.944 486.332C197.944 486.435 197.934 486.57 197.916 486.738H191.896C191.98 487.391 192.264 487.919 192.75 488.32C193.244 488.712 193.856 488.908 194.584 488.908C195.47 488.908 196.184 488.609 196.726 488.012L197.468 488.88C197.132 489.272 196.712 489.571 196.208 489.776C195.713 489.981 195.158 490.084 194.542 490.084C193.758 490.084 193.062 489.925 192.456 489.608C191.849 489.281 191.378 488.829 191.042 488.25C190.715 487.671 190.552 487.018 190.552 486.29C190.552 485.571 190.71 484.923 191.028 484.344C191.354 483.765 191.798 483.317 192.358 483C192.927 482.673 193.566 482.51 194.276 482.51C194.985 482.51 195.615 482.673 196.166 483C196.726 483.317 197.16 483.765 197.468 484.344C197.785 484.923 197.944 485.585 197.944 486.332ZM194.276 483.644C193.632 483.644 193.09 483.84 192.652 484.232C192.222 484.624 191.97 485.137 191.896 485.772H196.656C196.581 485.147 196.324 484.638 195.886 484.246C195.456 483.845 194.92 483.644 194.276 483.644ZM206.276 482.58V490H204.932V483.756H201.74L201.656 485.408C201.609 486.407 201.52 487.242 201.39 487.914C201.259 488.577 201.044 489.109 200.746 489.51C200.447 489.911 200.032 490.112 199.5 490.112C199.257 490.112 198.982 490.07 198.674 489.986L198.758 488.852C198.879 488.88 198.991 488.894 199.094 488.894C199.467 488.894 199.747 488.731 199.934 488.404C200.12 488.077 200.242 487.69 200.298 487.242C200.354 486.794 200.405 486.155 200.452 485.324L200.578 482.58H206.276ZM212.304 485.1C213.247 485.109 213.966 485.324 214.46 485.744C214.955 486.164 215.202 486.757 215.202 487.522C215.202 488.325 214.932 488.945 214.39 489.384C213.858 489.813 213.093 490.023 212.094 490.014L208.874 490V482.58H210.218V485.086L212.304 485.1ZM211.982 488.992C212.589 489.001 213.046 488.88 213.354 488.628C213.672 488.376 213.83 488.003 213.83 487.508C213.83 487.023 213.676 486.668 213.368 486.444C213.07 486.22 212.608 486.103 211.982 486.094L210.218 486.066V488.978L211.982 488.992ZM216.927 482.58H218.271V485.73H222.499V482.58H223.843V490H222.499V486.892H218.271V490H216.927V482.58ZM229.102 482.51C230.129 482.51 230.913 482.762 231.454 483.266C232.005 483.77 232.28 484.521 232.28 485.52V490H231.006V489.02C230.782 489.365 230.46 489.631 230.04 489.818C229.63 489.995 229.14 490.084 228.57 490.084C227.74 490.084 227.072 489.883 226.568 489.482C226.074 489.081 225.826 488.553 225.826 487.9C225.826 487.247 226.064 486.724 226.54 486.332C227.016 485.931 227.772 485.73 228.808 485.73H230.936V485.464C230.936 484.885 230.768 484.442 230.432 484.134C230.096 483.826 229.602 483.672 228.948 483.672C228.51 483.672 228.08 483.747 227.66 483.896C227.24 484.036 226.886 484.227 226.596 484.47L226.036 483.462C226.419 483.154 226.876 482.921 227.408 482.762C227.94 482.594 228.505 482.51 229.102 482.51ZM228.794 489.048C229.308 489.048 229.751 488.936 230.124 488.712C230.498 488.479 230.768 488.152 230.936 487.732V486.696H228.864C227.726 486.696 227.156 487.079 227.156 487.844C227.156 488.217 227.301 488.511 227.59 488.726C227.88 488.941 228.281 489.048 228.794 489.048ZM240.65 482.58V490H239.446V487.648H237.29H237.136L235.512 490H234.07L235.876 487.466C235.316 487.298 234.887 487.023 234.588 486.64C234.29 486.248 234.14 485.763 234.14 485.184C234.14 484.335 234.43 483.691 235.008 483.252C235.587 482.804 236.385 482.58 237.402 482.58H240.65ZM235.512 485.226C235.512 485.721 235.666 486.089 235.974 486.332C236.292 486.565 236.763 486.682 237.388 486.682H239.446V483.756H237.444C236.156 483.756 235.512 484.246 235.512 485.226ZM253.906 482.58V490H252.562V483.756H248.376V490H247.032V482.58H253.906ZM262.877 482.58V490H261.533V483.756H258.341L258.257 485.408C258.21 486.407 258.122 487.242 257.991 487.914C257.86 488.577 257.646 489.109 257.347 489.51C257.048 489.911 256.633 490.112 256.101 490.112C255.858 490.112 255.583 490.07 255.275 489.986L255.359 488.852C255.48 488.88 255.592 488.894 255.695 488.894C256.068 488.894 256.348 488.731 256.535 488.404C256.722 488.077 256.843 487.69 256.899 487.242C256.955 486.794 257.006 486.155 257.053 485.324L257.179 482.58H262.877ZM268.654 490.084C267.916 490.084 267.254 489.921 266.666 489.594C266.078 489.267 265.616 488.819 265.28 488.25C264.953 487.671 264.79 487.018 264.79 486.29C264.79 485.562 264.953 484.913 265.28 484.344C265.616 483.765 266.078 483.317 266.666 483C267.254 482.673 267.916 482.51 268.654 482.51C269.391 482.51 270.049 482.673 270.628 483C271.216 483.317 271.673 483.765 272 484.344C272.336 484.913 272.504 485.562 272.504 486.29C272.504 487.018 272.336 487.671 272 488.25C271.673 488.819 271.216 489.267 270.628 489.594C270.049 489.921 269.391 490.084 268.654 490.084ZM268.654 488.908C269.13 488.908 269.554 488.801 269.928 488.586C270.31 488.362 270.609 488.054 270.824 487.662C271.038 487.261 271.146 486.803 271.146 486.29C271.146 485.777 271.038 485.324 270.824 484.932C270.609 484.531 270.31 484.223 269.928 484.008C269.554 483.793 269.13 483.686 268.654 483.686C268.178 483.686 267.748 483.793 267.366 484.008C266.992 484.223 266.694 484.531 266.47 484.932C266.255 485.324 266.148 485.777 266.148 486.29C266.148 486.803 266.255 487.261 266.47 487.662C266.694 488.054 266.992 488.362 267.366 488.586C267.748 488.801 268.178 488.908 268.654 488.908ZM285.015 482.58V490H274.445V482.58H275.789V488.824H279.065V482.58H280.409V488.824H283.671V482.58H285.015ZM286.121 488.824V491.582H284.861V490H283.615V488.824H286.121ZM290.27 482.51C291.297 482.51 292.081 482.762 292.622 483.266C293.173 483.77 293.448 484.521 293.448 485.52V490H292.174V489.02C291.95 489.365 291.628 489.631 291.208 489.818C290.798 489.995 290.308 490.084 289.738 490.084C288.908 490.084 288.24 489.883 287.736 489.482C287.242 489.081 286.994 488.553 286.994 487.9C286.994 487.247 287.232 486.724 287.708 486.332C288.184 485.931 288.94 485.73 289.976 485.73H292.104V485.464C292.104 484.885 291.936 484.442 291.6 484.134C291.264 483.826 290.77 483.672 290.116 483.672C289.678 483.672 289.248 483.747 288.828 483.896C288.408 484.036 288.054 484.227 287.764 484.47L287.204 483.462C287.587 483.154 288.044 482.921 288.576 482.762C289.108 482.594 289.673 482.51 290.27 482.51ZM289.962 489.048C290.476 489.048 290.919 488.936 291.292 488.712C291.666 488.479 291.936 488.152 292.104 487.732V486.696H290.032C288.894 486.696 288.324 487.079 288.324 487.844C288.324 488.217 288.469 488.511 288.758 488.726C289.048 488.941 289.449 489.048 289.962 489.048ZM303.414 488.824V491.722H302.154V490H295.952V491.722H294.678V488.824H295.07C295.546 488.796 295.873 488.46 296.05 487.816C296.228 487.172 296.349 486.262 296.414 485.086L296.526 482.58H302.28V488.824H303.414ZM297.646 485.184C297.609 486.117 297.53 486.892 297.408 487.508C297.296 488.115 297.086 488.553 296.778 488.824H300.936V483.756H297.716L297.646 485.184ZM308.049 486.864H306.509V490H305.165V482.58H306.509V485.716H308.077L310.485 482.58H311.927L309.113 486.15L312.123 490H310.541L308.049 486.864ZM316.042 482.51C317.068 482.51 317.852 482.762 318.394 483.266C318.944 483.77 319.22 484.521 319.22 485.52V490H317.946V489.02C317.722 489.365 317.4 489.631 316.98 489.818C316.569 489.995 316.079 490.084 315.51 490.084C314.679 490.084 314.012 489.883 313.508 489.482C313.013 489.081 312.766 488.553 312.766 487.9C312.766 487.247 313.004 486.724 313.48 486.332C313.956 485.931 314.712 485.73 315.748 485.73H317.876V485.464C317.876 484.885 317.708 484.442 317.372 484.134C317.036 483.826 316.541 483.672 315.888 483.672C315.449 483.672 315.02 483.747 314.6 483.896C314.18 484.036 313.825 484.227 313.536 484.47L312.976 483.462C313.358 483.154 313.816 482.921 314.348 482.762C314.88 482.594 315.444 482.51 316.042 482.51ZM315.734 489.048C316.247 489.048 316.69 488.936 317.064 488.712C317.437 488.479 317.708 488.152 317.876 487.732V486.696H315.804C314.665 486.696 314.096 487.079 314.096 487.844C314.096 488.217 314.24 488.511 314.53 488.726C314.819 488.941 315.22 489.048 315.734 489.048Z" fill="white"/>
<circle cx="84" cy="486" r="6.5" stroke="#FF8686" stroke-width="5"/>
</svg>
