<svg width="365" height="430" viewBox="0 0 365 430" fill="none" xmlns="http://www.w3.org/2000/svg">
<rect y="52" width="111" height="30" rx="3" fill="#18DFE0"/>
<path d="M30.5687 61V75H27.3287V63.6H24.5287V61H30.5687ZM42.5807 67.64C43.274 67.9867 43.8007 68.44 44.1607 69C44.534 69.56 44.7207 70.2067 44.7207 70.94C44.7207 71.8067 44.474 72.5667 43.9807 73.22C43.4874 73.86 42.794 74.36 41.9007 74.72C41.0074 75.0667 39.974 75.24 38.8007 75.24C37.6274 75.24 36.594 75.0667 35.7007 74.72C34.8207 74.36 34.134 73.86 33.6407 73.22C33.1607 72.5667 32.9207 71.8067 32.9207 70.94C32.9207 70.2067 33.1007 69.56 33.4607 69C33.834 68.44 34.3607 67.9867 35.0407 67.64C34.5207 67.32 34.1207 66.92 33.8407 66.44C33.5607 65.9467 33.4207 65.3867 33.4207 64.76C33.4207 63.9467 33.6474 63.24 34.1007 62.64C34.554 62.04 35.1874 61.58 36.0007 61.26C36.814 60.9267 37.7474 60.76 38.8007 60.76C39.8674 60.76 40.8074 60.9267 41.6207 61.26C42.4474 61.58 43.0874 62.04 43.5407 62.64C43.994 63.24 44.2207 63.9467 44.2207 64.76C44.2207 65.3867 44.0807 65.9467 43.8007 66.44C43.5207 66.92 43.114 67.32 42.5807 67.64ZM38.8007 63.14C38.1474 63.14 37.6207 63.3 37.2207 63.62C36.834 63.9267 36.6407 64.3533 36.6407 64.9C36.6407 65.4333 36.834 65.8533 37.2207 66.16C37.6074 66.4667 38.134 66.62 38.8007 66.62C39.4674 66.62 40.0007 66.4667 40.4007 66.16C40.8007 65.8533 41.0007 65.4333 41.0007 64.9C41.0007 64.3533 40.8007 63.9267 40.4007 63.62C40.0007 63.3 39.4674 63.14 38.8007 63.14ZM38.8007 72.86C39.614 72.86 40.254 72.68 40.7207 72.32C41.2007 71.9467 41.4407 71.4533 41.4407 70.84C41.4407 70.2267 41.2007 69.74 40.7207 69.38C40.254 69.02 39.614 68.84 38.8007 68.84C38.0007 68.84 37.3674 69.02 36.9007 69.38C36.434 69.74 36.2007 70.2267 36.2007 70.84C36.2007 71.4667 36.434 71.96 36.9007 72.32C37.3674 72.68 38.0007 72.86 38.8007 72.86ZM57.6279 75.16C56.4946 75.16 55.4746 74.9267 54.5679 74.46C53.6746 73.98 52.9746 73.32 52.4679 72.48C51.9612 71.64 51.7079 70.6867 51.7079 69.62C51.7079 68.5533 51.9612 67.6 52.4679 66.76C52.9746 65.92 53.6746 65.2667 54.5679 64.8C55.4746 64.32 56.4946 64.08 57.6279 64.08C58.7612 64.08 59.7746 64.32 60.6679 64.8C61.5612 65.2667 62.2612 65.92 62.7679 66.76C63.2746 67.6 63.5279 68.5533 63.5279 69.62C63.5279 70.6867 63.2746 71.64 62.7679 72.48C62.2612 73.32 61.5612 73.98 60.6679 74.46C59.7746 74.9267 58.7612 75.16 57.6279 75.16ZM57.6279 72.6C58.4279 72.6 59.0812 72.3333 59.5879 71.8C60.1079 71.2533 60.3679 70.5267 60.3679 69.62C60.3679 68.7133 60.1079 67.9933 59.5879 67.46C59.0812 66.9133 58.4279 66.64 57.6279 66.64C56.8279 66.64 56.1679 66.9133 55.6479 67.46C55.1279 67.9933 54.8679 68.7133 54.8679 69.62C54.8679 70.5267 55.1279 71.2533 55.6479 71.8C56.1679 72.3333 56.8279 72.6 57.6279 72.6ZM70.4138 70.92H68.7938V75H65.6738V64.24H68.7938V68.42H70.4738L73.3938 64.24H76.7138L72.9538 69.4L76.9738 75H73.2938L70.4138 70.92ZM87.4482 66.8H83.8082V75H80.7082V66.8H77.0682V64.24H87.4482V66.8Z" fill="#0C1324"/>
<path d="M26.697 20.644V29.785H21.747V25H5.445V29.785H0.495L0.528 20.644H1.452C2.838 20.6 3.817 19.588 4.389 17.608C4.961 15.628 5.313 12.801 5.445 9.127L5.709 1.9H23.463V20.644H26.697ZM10.164 9.622C10.054 12.372 9.823 14.682 9.471 16.552C9.119 18.4 8.58 19.764 7.854 20.644H18.183V6.256H10.263L10.164 9.622ZM46.9332 16.189C46.9332 16.255 46.9002 16.717 46.8342 17.575H33.4032C33.6452 18.675 34.2172 19.544 35.1192 20.182C36.0212 20.82 37.1432 21.139 38.4852 21.139C39.4092 21.139 40.2232 21.007 40.9272 20.743C41.6532 20.457 42.3242 20.017 42.9402 19.423L45.6792 22.393C44.0072 24.307 41.5652 25.264 38.3532 25.264C36.3512 25.264 34.5802 24.879 33.0402 24.109C31.5002 23.317 30.3122 22.228 29.4762 20.842C28.6402 19.456 28.2222 17.883 28.2222 16.123C28.2222 14.385 28.6292 12.823 29.4432 11.437C30.2792 10.029 31.4122 8.94 32.8422 8.17C34.2942 7.378 35.9112 6.982 37.6932 6.982C39.4312 6.982 41.0042 7.356 42.4122 8.104C43.8202 8.852 44.9202 9.93 45.7122 11.338C46.5262 12.724 46.9332 14.341 46.9332 16.189ZM37.7262 10.876C36.5602 10.876 35.5812 11.206 34.7892 11.866C33.9972 12.526 33.5132 13.428 33.3372 14.572H42.0822C41.9062 13.45 41.4222 12.559 40.6302 11.899C39.8382 11.217 38.8702 10.876 37.7262 10.876ZM50.8793 7.246H55.9943V14.176H63.7163V7.246H68.8643V25H63.7163V18.367H55.9943V25H50.8793V7.246ZM83.3954 12.922C85.7054 12.944 87.4764 13.472 88.7084 14.506C89.9404 15.518 90.5564 16.959 90.5564 18.829C90.5564 20.787 89.8634 22.316 88.4774 23.416C87.1134 24.494 85.1884 25.033 82.7024 25.033L73.7924 25V7.246H78.9074V12.922H83.3954ZM82.2404 21.37C83.2304 21.392 83.9894 21.183 84.5174 20.743C85.0454 20.303 85.3094 19.643 85.3094 18.763C85.3094 17.905 85.0454 17.278 84.5174 16.882C84.0114 16.486 83.2524 16.277 82.2404 16.255L78.9074 16.222V21.37H82.2404ZM112.722 11.305C114.746 11.635 116.297 12.394 117.375 13.582C118.453 14.748 118.992 16.2 118.992 17.938C118.992 19.28 118.64 20.523 117.936 21.667C117.232 22.789 116.154 23.691 114.702 24.373C113.272 25.055 111.512 25.396 109.422 25.396C107.794 25.396 106.188 25.187 104.604 24.769C103.042 24.329 101.711 23.713 100.611 22.921L102.69 18.829C103.57 19.489 104.582 20.006 105.726 20.38C106.892 20.732 108.08 20.908 109.29 20.908C110.632 20.908 111.688 20.655 112.458 20.149C113.228 19.621 113.613 18.884 113.613 17.938C113.613 16.046 112.172 15.1 109.29 15.1H106.848V11.569L111.6 6.19H101.766V1.9H117.936V5.365L112.722 11.305Z" fill="#18DFE0"/>
<path d="M84 139.5V211" stroke="white" stroke-dasharray="3 3"/>
<path d="M84 228.5V300" stroke="white" stroke-dasharray="3 3"/>
<path d="M84 315.5V387" stroke="white" stroke-dasharray="3 3"/>
<path d="M5.562 126.4V139H2.646V128.74H0.126V126.4H5.562ZM13.1508 139.216C12.1068 139.216 11.1768 138.958 10.3608 138.442C9.54483 137.926 8.90283 137.182 8.43483 136.21C7.97883 135.226 7.75083 134.056 7.75083 132.7C7.75083 131.344 7.97883 130.18 8.43483 129.208C8.90283 128.224 9.54483 127.474 10.3608 126.958C11.1768 126.442 12.1068 126.184 13.1508 126.184C14.1948 126.184 15.1248 126.442 15.9408 126.958C16.7568 127.474 17.3928 128.224 17.8488 129.208C18.3168 130.18 18.5508 131.344 18.5508 132.7C18.5508 134.056 18.3168 135.226 17.8488 136.21C17.3928 137.182 16.7568 137.926 15.9408 138.442C15.1248 138.958 14.1948 139.216 13.1508 139.216ZM13.1508 136.75C13.9188 136.75 14.5188 136.42 14.9508 135.76C15.3948 135.1 15.6168 134.08 15.6168 132.7C15.6168 131.32 15.3948 130.3 14.9508 129.64C14.5188 128.98 13.9188 128.65 13.1508 128.65C12.3948 128.65 11.7948 128.98 11.3508 129.64C10.9188 130.3 10.7028 131.32 10.7028 132.7C10.7028 134.08 10.9188 135.1 11.3508 135.76C11.7948 136.42 12.3948 136.75 13.1508 136.75ZM21.6236 132.682C21.1316 132.682 20.7176 132.514 20.3816 132.178C20.0456 131.842 19.8776 131.422 19.8776 130.918C19.8776 130.402 20.0456 129.988 20.3816 129.676C20.7176 129.352 21.1316 129.19 21.6236 129.19C22.1156 129.19 22.5296 129.352 22.8656 129.676C23.2016 129.988 23.3696 130.402 23.3696 130.918C23.3696 131.422 23.2016 131.842 22.8656 132.178C22.5296 132.514 22.1156 132.682 21.6236 132.682ZM21.6236 139.144C21.1316 139.144 20.7176 138.976 20.3816 138.64C20.0456 138.304 19.8776 137.884 19.8776 137.38C19.8776 136.864 20.0456 136.45 20.3816 136.138C20.7176 135.814 21.1316 135.652 21.6236 135.652C22.1156 135.652 22.5296 135.814 22.8656 136.138C23.2016 136.45 23.3696 136.864 23.3696 137.38C23.3696 137.884 23.2016 138.304 22.8656 138.64C22.5296 138.976 22.1156 139.144 21.6236 139.144ZM30.0786 139.216C29.0346 139.216 28.1046 138.958 27.2886 138.442C26.4726 137.926 25.8306 137.182 25.3626 136.21C24.9066 135.226 24.6786 134.056 24.6786 132.7C24.6786 131.344 24.9066 130.18 25.3626 129.208C25.8306 128.224 26.4726 127.474 27.2886 126.958C28.1046 126.442 29.0346 126.184 30.0786 126.184C31.1226 126.184 32.0526 126.442 32.8686 126.958C33.6846 127.474 34.3206 128.224 34.7766 129.208C35.2446 130.18 35.4786 131.344 35.4786 132.7C35.4786 134.056 35.2446 135.226 34.7766 136.21C34.3206 137.182 33.6846 137.926 32.8686 138.442C32.0526 138.958 31.1226 139.216 30.0786 139.216ZM30.0786 136.75C30.8466 136.75 31.4466 136.42 31.8786 135.76C32.3226 135.1 32.5446 134.08 32.5446 132.7C32.5446 131.32 32.3226 130.3 31.8786 129.64C31.4466 128.98 30.8466 128.65 30.0786 128.65C29.3226 128.65 28.7226 128.98 28.2786 129.64C27.8466 130.3 27.6306 131.32 27.6306 132.7C27.6306 134.08 27.8466 135.1 28.2786 135.76C28.7226 136.42 29.3226 136.75 30.0786 136.75ZM42.2954 139.216C41.2514 139.216 40.3214 138.958 39.5054 138.442C38.6894 137.926 38.0474 137.182 37.5794 136.21C37.1234 135.226 36.8954 134.056 36.8954 132.7C36.8954 131.344 37.1234 130.18 37.5794 129.208C38.0474 128.224 38.6894 127.474 39.5054 126.958C40.3214 126.442 41.2514 126.184 42.2954 126.184C43.3394 126.184 44.2694 126.442 45.0854 126.958C45.9014 127.474 46.5374 128.224 46.9934 129.208C47.4614 130.18 47.6954 131.344 47.6954 132.7C47.6954 134.056 47.4614 135.226 46.9934 136.21C46.5374 137.182 45.9014 137.926 45.0854 138.442C44.2694 138.958 43.3394 139.216 42.2954 139.216ZM42.2954 136.75C43.0634 136.75 43.6634 136.42 44.0954 135.76C44.5394 135.1 44.7614 134.08 44.7614 132.7C44.7614 131.32 44.5394 130.3 44.0954 129.64C43.6634 128.98 43.0634 128.65 42.2954 128.65C41.5394 128.65 40.9394 128.98 40.4954 129.64C40.0634 130.3 39.8474 131.32 39.8474 132.7C39.8474 134.08 40.0634 135.1 40.4954 135.76C40.9394 136.42 41.5394 136.75 42.2954 136.75Z" fill="#18DFE0"/>
<path d="M119.942 132.688H117.898V137H116.526V127.2H117.898V131.456H119.97L123.05 127.2H124.548L121.048 131.946L124.716 137H123.12L119.942 132.688ZM129.009 137.084C128.272 137.084 127.609 136.921 127.021 136.594C126.433 136.267 125.971 135.819 125.635 135.25C125.309 134.671 125.145 134.018 125.145 133.29C125.145 132.562 125.309 131.913 125.635 131.344C125.971 130.765 126.433 130.317 127.021 130C127.609 129.673 128.272 129.51 129.009 129.51C129.747 129.51 130.405 129.673 130.983 130C131.571 130.317 132.029 130.765 132.355 131.344C132.691 131.913 132.859 132.562 132.859 133.29C132.859 134.018 132.691 134.671 132.355 135.25C132.029 135.819 131.571 136.267 130.983 136.594C130.405 136.921 129.747 137.084 129.009 137.084ZM129.009 135.908C129.485 135.908 129.91 135.801 130.283 135.586C130.666 135.362 130.965 135.054 131.179 134.662C131.394 134.261 131.501 133.803 131.501 133.29C131.501 132.777 131.394 132.324 131.179 131.932C130.965 131.531 130.666 131.223 130.283 131.008C129.91 130.793 129.485 130.686 129.009 130.686C128.533 130.686 128.104 130.793 127.721 131.008C127.348 131.223 127.049 131.531 126.825 131.932C126.611 132.324 126.503 132.777 126.503 133.29C126.503 133.803 126.611 134.261 126.825 134.662C127.049 135.054 127.348 135.362 127.721 135.586C128.104 135.801 128.533 135.908 129.009 135.908ZM144.166 133.276C144.166 134.424 143.783 135.329 143.018 135.992C142.253 136.655 141.175 137.023 139.784 137.098V139.716H138.468V137.098C137.077 137.023 135.999 136.659 135.234 136.006C134.478 135.343 134.1 134.433 134.1 133.276C134.1 132.128 134.478 131.232 135.234 130.588C135.99 129.944 137.068 129.585 138.468 129.51V126.612H139.784V129.51C141.175 129.585 142.253 129.949 143.018 130.602C143.783 131.246 144.166 132.137 144.166 133.276ZM135.43 133.276C135.43 134.069 135.682 134.69 136.186 135.138C136.699 135.586 137.46 135.843 138.468 135.908V130.7C137.451 130.765 136.69 131.017 136.186 131.456C135.682 131.895 135.43 132.501 135.43 133.276ZM139.784 135.922C141.819 135.763 142.836 134.881 142.836 133.276C142.836 132.492 142.579 131.885 142.066 131.456C141.553 131.017 140.792 130.765 139.784 130.7V135.922ZM152.772 133.332C152.772 133.435 152.762 133.57 152.744 133.738H146.724C146.808 134.391 147.092 134.919 147.578 135.32C148.072 135.712 148.684 135.908 149.412 135.908C150.298 135.908 151.012 135.609 151.554 135.012L152.296 135.88C151.96 136.272 151.54 136.571 151.036 136.776C150.541 136.981 149.986 137.084 149.37 137.084C148.586 137.084 147.89 136.925 147.284 136.608C146.677 136.281 146.206 135.829 145.87 135.25C145.543 134.671 145.38 134.018 145.38 133.29C145.38 132.571 145.538 131.923 145.856 131.344C146.182 130.765 146.626 130.317 147.186 130C147.755 129.673 148.394 129.51 149.104 129.51C149.813 129.51 150.443 129.673 150.994 130C151.554 130.317 151.988 130.765 152.296 131.344C152.613 131.923 152.772 132.585 152.772 133.332ZM149.104 130.644C148.46 130.644 147.918 130.84 147.48 131.232C147.05 131.624 146.798 132.137 146.724 132.772H151.484C151.409 132.147 151.152 131.638 150.714 131.246C150.284 130.845 149.748 130.644 149.104 130.644ZM154.489 132.576H158.255V133.738H154.489V132.576ZM164.228 129.832C164.919 129.832 165.535 129.986 166.076 130.294C166.618 130.602 167.038 131.031 167.336 131.582C167.644 132.123 167.798 132.744 167.798 133.444C167.798 134.163 167.635 134.802 167.308 135.362C166.991 135.913 166.538 136.342 165.95 136.65C165.372 136.958 164.709 137.112 163.962 137.112C162.702 137.112 161.727 136.683 161.036 135.824C160.355 134.956 160.014 133.738 160.014 132.17C160.014 130.649 160.327 129.459 160.952 128.6C161.578 127.732 162.534 127.158 163.822 126.878L167.21 126.122L167.406 127.354L164.284 128.026C163.314 128.241 162.59 128.605 162.114 129.118C161.638 129.631 161.368 130.369 161.302 131.33C161.62 130.854 162.03 130.485 162.534 130.224C163.038 129.963 163.603 129.832 164.228 129.832ZM163.99 135.992C164.466 135.992 164.886 135.885 165.25 135.67C165.624 135.455 165.913 135.161 166.118 134.788C166.324 134.405 166.426 133.971 166.426 133.486C166.426 132.749 166.202 132.156 165.754 131.708C165.306 131.26 164.718 131.036 163.99 131.036C163.262 131.036 162.67 131.26 162.212 131.708C161.764 132.156 161.54 132.749 161.54 133.486C161.54 133.971 161.643 134.405 161.848 134.788C162.063 135.161 162.357 135.455 162.73 135.67C163.104 135.885 163.524 135.992 163.99 135.992ZM173.652 129.51C174.371 129.51 175.015 129.669 175.584 129.986C176.153 130.303 176.597 130.747 176.914 131.316C177.241 131.885 177.404 132.543 177.404 133.29C177.404 134.037 177.241 134.699 176.914 135.278C176.597 135.847 176.153 136.291 175.584 136.608C175.015 136.925 174.371 137.084 173.652 137.084C173.12 137.084 172.63 136.981 172.182 136.776C171.743 136.571 171.37 136.272 171.062 135.88V139.716H169.718V129.58H171.006V130.756C171.305 130.345 171.683 130.037 172.14 129.832C172.597 129.617 173.101 129.51 173.652 129.51ZM173.54 135.908C174.016 135.908 174.441 135.801 174.814 135.586C175.197 135.362 175.495 135.054 175.71 134.662C175.934 134.261 176.046 133.803 176.046 133.29C176.046 132.777 175.934 132.324 175.71 131.932C175.495 131.531 175.197 131.223 174.814 131.008C174.441 130.793 174.016 130.686 173.54 130.686C173.073 130.686 172.649 130.798 172.266 131.022C171.893 131.237 171.594 131.54 171.37 131.932C171.155 132.324 171.048 132.777 171.048 133.29C171.048 133.803 171.155 134.261 171.37 134.662C171.585 135.054 171.883 135.362 172.266 135.586C172.649 135.801 173.073 135.908 173.54 135.908ZM186.063 133.332C186.063 133.435 186.053 133.57 186.035 133.738H180.015C180.099 134.391 180.383 134.919 180.869 135.32C181.363 135.712 181.975 135.908 182.703 135.908C183.589 135.908 184.303 135.609 184.845 135.012L185.587 135.88C185.251 136.272 184.831 136.571 184.327 136.776C183.832 136.981 183.277 137.084 182.661 137.084C181.877 137.084 181.181 136.925 180.575 136.608C179.968 136.281 179.497 135.829 179.161 135.25C178.834 134.671 178.671 134.018 178.671 133.29C178.671 132.571 178.829 131.923 179.147 131.344C179.473 130.765 179.917 130.317 180.477 130C181.046 129.673 181.685 129.51 182.395 129.51C183.104 129.51 183.734 129.673 184.285 130C184.845 130.317 185.279 130.765 185.587 131.344C185.904 131.923 186.063 132.585 186.063 133.332ZM182.395 130.644C181.751 130.644 181.209 130.84 180.771 131.232C180.341 131.624 180.089 132.137 180.015 132.772H184.775C184.7 132.147 184.443 131.638 184.005 131.246C183.575 130.845 183.039 130.644 182.395 130.644ZM188.148 129.58H189.492V134.984L194.042 129.58H195.26V137H193.916V131.596L189.38 137H188.148V129.58ZM191.62 128.614C190.929 128.614 190.392 128.451 190.01 128.124C189.627 127.788 189.431 127.307 189.422 126.682H190.332C190.341 127.027 190.458 127.307 190.682 127.522C190.915 127.727 191.223 127.83 191.606 127.83C191.988 127.83 192.296 127.727 192.53 127.522C192.763 127.307 192.884 127.027 192.894 126.682H193.832C193.822 127.307 193.622 127.788 193.23 128.124C192.838 128.451 192.301 128.614 191.62 128.614ZM200.752 133.864H199.212V137H197.868V129.58H199.212V132.716H200.78L203.188 129.58H204.63L201.816 133.15L204.826 137H203.244L200.752 133.864Z" fill="white"/>
<circle cx="84" cy="133" r="6.5" stroke="#18DFE0" stroke-width="5"/>
<path d="M5.562 214.4V227H2.646V216.74H0.126V214.4H5.562ZM17.1648 224.624V227H7.64283V225.11L12.5028 220.52C13.0188 220.028 13.3668 219.608 13.5468 219.26C13.7268 218.9 13.8168 218.546 13.8168 218.198C13.8168 217.694 13.6428 217.31 13.2948 217.046C12.9588 216.77 12.4608 216.632 11.8008 216.632C11.2488 216.632 10.7508 216.74 10.3068 216.956C9.86283 217.16 9.49083 217.472 9.19083 217.892L7.06683 216.524C7.55883 215.792 8.23683 215.222 9.10083 214.814C9.96483 214.394 10.9548 214.184 12.0708 214.184C13.0068 214.184 13.8228 214.34 14.5188 214.652C15.2268 214.952 15.7728 215.384 16.1568 215.948C16.5528 216.5 16.7508 217.154 16.7508 217.91C16.7508 218.594 16.6068 219.236 16.3188 219.836C16.0308 220.436 15.4728 221.12 14.6448 221.888L11.7468 224.624H17.1648ZM20.024 220.682C19.532 220.682 19.118 220.514 18.782 220.178C18.446 219.842 18.278 219.422 18.278 218.918C18.278 218.402 18.446 217.988 18.782 217.676C19.118 217.352 19.532 217.19 20.024 217.19C20.516 217.19 20.93 217.352 21.266 217.676C21.602 217.988 21.77 218.402 21.77 218.918C21.77 219.422 21.602 219.842 21.266 220.178C20.93 220.514 20.516 220.682 20.024 220.682ZM20.024 227.144C19.532 227.144 19.118 226.976 18.782 226.64C18.446 226.304 18.278 225.884 18.278 225.38C18.278 224.864 18.446 224.45 18.782 224.138C19.118 223.814 19.532 223.652 20.024 223.652C20.516 223.652 20.93 223.814 21.266 224.138C21.602 224.45 21.77 224.864 21.77 225.38C21.77 225.884 21.602 226.304 21.266 226.64C20.93 226.976 20.516 227.144 20.024 227.144ZM28.479 227.216C27.435 227.216 26.505 226.958 25.689 226.442C24.873 225.926 24.231 225.182 23.763 224.21C23.307 223.226 23.079 222.056 23.079 220.7C23.079 219.344 23.307 218.18 23.763 217.208C24.231 216.224 24.873 215.474 25.689 214.958C26.505 214.442 27.435 214.184 28.479 214.184C29.523 214.184 30.453 214.442 31.269 214.958C32.085 215.474 32.721 216.224 33.177 217.208C33.645 218.18 33.879 219.344 33.879 220.7C33.879 222.056 33.645 223.226 33.177 224.21C32.721 225.182 32.085 225.926 31.269 226.442C30.453 226.958 29.523 227.216 28.479 227.216ZM28.479 224.75C29.247 224.75 29.847 224.42 30.279 223.76C30.723 223.1 30.945 222.08 30.945 220.7C30.945 219.32 30.723 218.3 30.279 217.64C29.847 216.98 29.247 216.65 28.479 216.65C27.723 216.65 27.123 216.98 26.679 217.64C26.247 218.3 26.031 219.32 26.031 220.7C26.031 222.08 26.247 223.1 26.679 223.76C27.123 224.42 27.723 224.75 28.479 224.75ZM40.6958 227.216C39.6518 227.216 38.7218 226.958 37.9058 226.442C37.0898 225.926 36.4478 225.182 35.9798 224.21C35.5238 223.226 35.2958 222.056 35.2958 220.7C35.2958 219.344 35.5238 218.18 35.9798 217.208C36.4478 216.224 37.0898 215.474 37.9058 214.958C38.7218 214.442 39.6518 214.184 40.6958 214.184C41.7398 214.184 42.6698 214.442 43.4858 214.958C44.3018 215.474 44.9378 216.224 45.3938 217.208C45.8618 218.18 46.0958 219.344 46.0958 220.7C46.0958 222.056 45.8618 223.226 45.3938 224.21C44.9378 225.182 44.3018 225.926 43.4858 226.442C42.6698 226.958 41.7398 227.216 40.6958 227.216ZM40.6958 224.75C41.4638 224.75 42.0638 224.42 42.4958 223.76C42.9398 223.1 43.1618 222.08 43.1618 220.7C43.1618 219.32 42.9398 218.3 42.4958 217.64C42.0638 216.98 41.4638 216.65 40.6958 216.65C39.9398 216.65 39.3398 216.98 38.8958 217.64C38.4638 218.3 38.2478 219.32 38.2478 220.7C38.2478 222.08 38.4638 223.1 38.8958 223.76C39.3398 224.42 39.9398 224.75 40.6958 224.75ZM47.8169 220.808H52.9109V223.058H47.8169V220.808ZM5.562 241.4V254H2.646V243.74H0.126V241.4H5.562ZM13.6368 246.53C14.7408 246.71 15.5868 247.124 16.1748 247.772C16.7628 248.408 17.0568 249.2 17.0568 250.148C17.0568 250.88 16.8648 251.558 16.4808 252.182C16.0968 252.794 15.5088 253.286 14.7168 253.658C13.9368 254.03 12.9768 254.216 11.8368 254.216C10.9488 254.216 10.0728 254.102 9.20883 253.874C8.35683 253.634 7.63083 253.298 7.03083 252.866L8.16483 250.634C8.64483 250.994 9.19683 251.276 9.82083 251.48C10.4568 251.672 11.1048 251.768 11.7648 251.768C12.4968 251.768 13.0728 251.63 13.4928 251.354C13.9128 251.066 14.1228 250.664 14.1228 250.148C14.1228 249.116 13.3368 248.6 11.7648 248.6H10.4328V246.674L13.0248 243.74H7.66083V241.4H16.4808V243.29L13.6368 246.53ZM20.0592 247.682C19.5672 247.682 19.1532 247.514 18.8172 247.178C18.4812 246.842 18.3132 246.422 18.3132 245.918C18.3132 245.402 18.4812 244.988 18.8172 244.676C19.1532 244.352 19.5672 244.19 20.0592 244.19C20.5512 244.19 20.9652 244.352 21.3012 244.676C21.6372 244.988 21.8052 245.402 21.8052 245.918C21.8052 246.422 21.6372 246.842 21.3012 247.178C20.9652 247.514 20.5512 247.682 20.0592 247.682ZM20.0592 254.144C19.5672 254.144 19.1532 253.976 18.8172 253.64C18.4812 253.304 18.3132 252.884 18.3132 252.38C18.3132 251.864 18.4812 251.45 18.8172 251.138C19.1532 250.814 19.5672 250.652 20.0592 250.652C20.5512 250.652 20.9652 250.814 21.3012 251.138C21.6372 251.45 21.8052 251.864 21.8052 252.38C21.8052 252.884 21.6372 253.304 21.3012 253.64C20.9652 253.976 20.5512 254.144 20.0592 254.144ZM29.0001 246.53C30.1041 246.71 30.9501 247.124 31.5381 247.772C32.1261 248.408 32.4201 249.2 32.4201 250.148C32.4201 250.88 32.2281 251.558 31.8441 252.182C31.4601 252.794 30.8721 253.286 30.0801 253.658C29.3001 254.03 28.3401 254.216 27.2001 254.216C26.3121 254.216 25.4361 254.102 24.5721 253.874C23.7201 253.634 22.9941 253.298 22.3941 252.866L23.5281 250.634C24.0081 250.994 24.5601 251.276 25.1841 251.48C25.8201 251.672 26.4681 251.768 27.1281 251.768C27.8601 251.768 28.4361 251.63 28.8561 251.354C29.2761 251.066 29.4861 250.664 29.4861 250.148C29.4861 249.116 28.7001 248.6 27.1281 248.6H25.7961V246.674L28.3881 243.74H23.0241V241.4H31.8441V243.29L29.0001 246.53ZM39.1665 254.216C38.1225 254.216 37.1925 253.958 36.3765 253.442C35.5605 252.926 34.9185 252.182 34.4505 251.21C33.9945 250.226 33.7665 249.056 33.7665 247.7C33.7665 246.344 33.9945 245.18 34.4505 244.208C34.9185 243.224 35.5605 242.474 36.3765 241.958C37.1925 241.442 38.1225 241.184 39.1665 241.184C40.2105 241.184 41.1405 241.442 41.9565 241.958C42.7725 242.474 43.4085 243.224 43.8645 244.208C44.3325 245.18 44.5665 246.344 44.5665 247.7C44.5665 249.056 44.3325 250.226 43.8645 251.21C43.4085 252.182 42.7725 252.926 41.9565 253.442C41.1405 253.958 40.2105 254.216 39.1665 254.216ZM39.1665 251.75C39.9345 251.75 40.5345 251.42 40.9665 250.76C41.4105 250.1 41.6325 249.08 41.6325 247.7C41.6325 246.32 41.4105 245.3 40.9665 244.64C40.5345 243.98 39.9345 243.65 39.1665 243.65C38.4105 243.65 37.8105 243.98 37.3665 244.64C36.9345 245.3 36.7185 246.32 36.7185 247.7C36.7185 249.08 36.9345 250.1 37.3665 250.76C37.8105 251.42 38.4105 251.75 39.1665 251.75Z" fill="#18DFE0"/>
<path d="M121.216 219.89C121.832 220.058 122.313 220.352 122.658 220.772C123.003 221.183 123.176 221.677 123.176 222.256C123.176 222.835 122.989 223.343 122.616 223.782C122.252 224.211 121.762 224.543 121.146 224.776C120.539 225 119.877 225.112 119.158 225.112C118.505 225.112 117.856 225.014 117.212 224.818C116.568 224.622 115.98 224.328 115.448 223.936L115.938 222.9C116.367 223.236 116.848 223.488 117.38 223.656C117.912 223.824 118.449 223.908 118.99 223.908C119.774 223.908 120.432 223.745 120.964 223.418C121.496 223.082 121.762 222.625 121.762 222.046C121.762 221.551 121.561 221.173 121.16 220.912C120.759 220.641 120.194 220.506 119.466 220.506H117.282V219.372H119.368C119.993 219.372 120.479 219.246 120.824 218.994C121.179 218.733 121.356 218.373 121.356 217.916C121.356 217.403 121.127 216.997 120.67 216.698C120.213 216.399 119.634 216.25 118.934 216.25C118.477 216.25 118.01 216.315 117.534 216.446C117.067 216.577 116.624 216.773 116.204 217.034L115.756 215.886C116.251 215.606 116.773 215.396 117.324 215.256C117.875 215.116 118.425 215.046 118.976 215.046C119.667 215.046 120.301 215.153 120.88 215.368C121.459 215.583 121.916 215.895 122.252 216.306C122.597 216.717 122.77 217.197 122.77 217.748C122.77 218.243 122.63 218.677 122.35 219.05C122.079 219.423 121.701 219.703 121.216 219.89ZM127.93 217.51C128.957 217.51 129.741 217.762 130.282 218.266C130.833 218.77 131.108 219.521 131.108 220.52V225H129.834V224.02C129.61 224.365 129.288 224.631 128.868 224.818C128.458 224.995 127.968 225.084 127.398 225.084C126.568 225.084 125.9 224.883 125.396 224.482C124.902 224.081 124.654 223.553 124.654 222.9C124.654 222.247 124.892 221.724 125.368 221.332C125.844 220.931 126.6 220.73 127.636 220.73H129.764V220.464C129.764 219.885 129.596 219.442 129.26 219.134C128.924 218.826 128.43 218.672 127.776 218.672C127.338 218.672 126.908 218.747 126.488 218.896C126.068 219.036 125.714 219.227 125.424 219.47L124.864 218.462C125.247 218.154 125.704 217.921 126.236 217.762C126.768 217.594 127.333 217.51 127.93 217.51ZM127.622 224.048C128.136 224.048 128.579 223.936 128.952 223.712C129.326 223.479 129.596 223.152 129.764 222.732V221.696H127.692C126.554 221.696 125.984 222.079 125.984 222.844C125.984 223.217 126.129 223.511 126.418 223.726C126.708 223.941 127.109 224.048 127.622 224.048ZM144.099 217.58V225H133.529V217.58H134.873V223.824H138.149V217.58H139.493V223.824H142.755V217.58H144.099ZM145.205 223.824V226.582H143.945V225H142.699V223.824H145.205ZM146.708 217.58H148.052V222.984L152.602 217.58H153.82V225H152.476V219.596L147.94 225H146.708V217.58ZM161.959 218.756H159.243V225H157.899V218.756H155.183V217.58H161.959V218.756ZM165.979 217.51C167.006 217.51 167.79 217.762 168.331 218.266C168.882 218.77 169.157 219.521 169.157 220.52V225H167.883V224.02C167.659 224.365 167.337 224.631 166.917 224.818C166.507 224.995 166.017 225.084 165.447 225.084C164.617 225.084 163.949 224.883 163.445 224.482C162.951 224.081 162.703 223.553 162.703 222.9C162.703 222.247 162.941 221.724 163.417 221.332C163.893 220.931 164.649 220.73 165.685 220.73H167.813V220.464C167.813 219.885 167.645 219.442 167.309 219.134C166.973 218.826 166.479 218.672 165.825 218.672C165.387 218.672 164.957 218.747 164.537 218.896C164.117 219.036 163.763 219.227 163.473 219.47L162.913 218.462C163.296 218.154 163.753 217.921 164.285 217.762C164.817 217.594 165.382 217.51 165.979 217.51ZM165.671 224.048C166.185 224.048 166.628 223.936 167.001 223.712C167.375 223.479 167.645 223.152 167.813 222.732V221.696H165.741C164.603 221.696 164.033 222.079 164.033 222.844C164.033 223.217 164.178 223.511 164.467 223.726C164.757 223.941 165.158 224.048 165.671 224.048ZM182.211 217.58V225H180.867V218.756H176.681V225H175.337V217.58H182.211ZM188.746 217.51C189.464 217.51 190.108 217.669 190.678 217.986C191.247 218.303 191.69 218.747 192.008 219.316C192.334 219.885 192.498 220.543 192.498 221.29C192.498 222.037 192.334 222.699 192.008 223.278C191.69 223.847 191.247 224.291 190.678 224.608C190.108 224.925 189.464 225.084 188.746 225.084C188.214 225.084 187.724 224.981 187.276 224.776C186.837 224.571 186.464 224.272 186.156 223.88V227.716H184.812V217.58H186.1V218.756C186.398 218.345 186.776 218.037 187.234 217.832C187.691 217.617 188.195 217.51 188.746 217.51ZM188.634 223.908C189.11 223.908 189.534 223.801 189.908 223.586C190.29 223.362 190.589 223.054 190.804 222.662C191.028 222.261 191.14 221.803 191.14 221.29C191.14 220.777 191.028 220.324 190.804 219.932C190.589 219.531 190.29 219.223 189.908 219.008C189.534 218.793 189.11 218.686 188.634 218.686C188.167 218.686 187.742 218.798 187.36 219.022C186.986 219.237 186.688 219.54 186.464 219.932C186.249 220.324 186.142 220.777 186.142 221.29C186.142 221.803 186.249 222.261 186.464 222.662C186.678 223.054 186.977 223.362 187.36 223.586C187.742 223.801 188.167 223.908 188.634 223.908ZM197.628 225.084C196.891 225.084 196.228 224.921 195.64 224.594C195.052 224.267 194.59 223.819 194.254 223.25C193.928 222.671 193.764 222.018 193.764 221.29C193.764 220.562 193.928 219.913 194.254 219.344C194.59 218.765 195.052 218.317 195.64 218C196.228 217.673 196.891 217.51 197.628 217.51C198.366 217.51 199.024 217.673 199.602 218C200.19 218.317 200.648 218.765 200.974 219.344C201.31 219.913 201.478 220.562 201.478 221.29C201.478 222.018 201.31 222.671 200.974 223.25C200.648 223.819 200.19 224.267 199.602 224.594C199.024 224.921 198.366 225.084 197.628 225.084ZM197.628 223.908C198.104 223.908 198.529 223.801 198.902 223.586C199.285 223.362 199.584 223.054 199.798 222.662C200.013 222.261 200.12 221.803 200.12 221.29C200.12 220.777 200.013 220.324 199.798 219.932C199.584 219.531 199.285 219.223 198.902 219.008C198.529 218.793 198.104 218.686 197.628 218.686C197.152 218.686 196.723 218.793 196.34 219.008C195.967 219.223 195.668 219.531 195.444 219.932C195.23 220.324 195.122 220.777 195.122 221.29C195.122 221.803 195.23 222.261 195.444 222.662C195.668 223.054 195.967 223.362 196.34 223.586C196.723 223.801 197.152 223.908 197.628 223.908ZM210.125 221.332C210.125 221.435 210.116 221.57 210.097 221.738H204.077C204.161 222.391 204.446 222.919 204.931 223.32C205.426 223.712 206.037 223.908 206.765 223.908C207.652 223.908 208.366 223.609 208.907 223.012L209.649 223.88C209.313 224.272 208.893 224.571 208.389 224.776C207.895 224.981 207.339 225.084 206.723 225.084C205.939 225.084 205.244 224.925 204.637 224.608C204.031 224.281 203.559 223.829 203.223 223.25C202.897 222.671 202.733 222.018 202.733 221.29C202.733 220.571 202.892 219.923 203.209 219.344C203.536 218.765 203.979 218.317 204.539 218C205.109 217.673 205.748 217.51 206.457 217.51C207.167 217.51 207.797 217.673 208.347 218C208.907 218.317 209.341 218.765 209.649 219.344C209.967 219.923 210.125 220.585 210.125 221.332ZM206.457 218.644C205.813 218.644 205.272 218.84 204.833 219.232C204.404 219.624 204.152 220.137 204.077 220.772H208.837C208.763 220.147 208.506 219.638 208.067 219.246C207.638 218.845 207.101 218.644 206.457 218.644ZM215.094 221.864H213.554V225H212.21V217.58H213.554V220.716H215.122L217.53 217.58H218.972L216.158 221.15L219.168 225H217.586L215.094 221.864ZM225.984 218.756H223.268V225H221.924V218.756H219.208V217.58H225.984V218.756ZM230.209 225.084C229.471 225.084 228.809 224.921 228.221 224.594C227.633 224.267 227.171 223.819 226.835 223.25C226.508 222.671 226.345 222.018 226.345 221.29C226.345 220.562 226.508 219.913 226.835 219.344C227.171 218.765 227.633 218.317 228.221 218C228.809 217.673 229.471 217.51 230.209 217.51C230.946 217.51 231.604 217.673 232.183 218C232.771 218.317 233.228 218.765 233.555 219.344C233.891 219.913 234.059 220.562 234.059 221.29C234.059 222.018 233.891 222.671 233.555 223.25C233.228 223.819 232.771 224.267 232.183 224.594C231.604 224.921 230.946 225.084 230.209 225.084ZM230.209 223.908C230.685 223.908 231.109 223.801 231.483 223.586C231.865 223.362 232.164 223.054 232.379 222.662C232.593 222.261 232.701 221.803 232.701 221.29C232.701 220.777 232.593 220.324 232.379 219.932C232.164 219.531 231.865 219.223 231.483 219.008C231.109 218.793 230.685 218.686 230.209 218.686C229.733 218.686 229.303 218.793 228.921 219.008C228.547 219.223 228.249 219.531 228.025 219.932C227.81 220.324 227.703 220.777 227.703 221.29C227.703 221.803 227.81 222.261 228.025 222.662C228.249 223.054 228.547 223.362 228.921 223.586C229.303 223.801 229.733 223.908 230.209 223.908ZM241.053 221.15C242.015 221.393 242.495 221.995 242.495 222.956C242.495 223.609 242.248 224.113 241.753 224.468C241.268 224.823 240.54 225 239.569 225H235.999V217.58H239.443C240.321 217.58 241.007 217.748 241.501 218.084C241.996 218.411 242.243 218.877 242.243 219.484C242.243 219.876 242.136 220.217 241.921 220.506C241.716 220.786 241.427 221.001 241.053 221.15ZM237.315 220.772H239.331C239.845 220.772 240.232 220.679 240.493 220.492C240.764 220.305 240.899 220.035 240.899 219.68C240.899 218.971 240.377 218.616 239.331 218.616H237.315V220.772ZM239.471 223.964C240.031 223.964 240.451 223.875 240.731 223.698C241.011 223.521 241.151 223.245 241.151 222.872C241.151 222.489 241.021 222.205 240.759 222.018C240.507 221.831 240.106 221.738 239.555 221.738H237.315V223.964H239.471Z" fill="white"/>
<circle cx="84" cy="220" r="6.5" stroke="#18DFE0" stroke-width="5"/>
<path d="M5.562 301.4V314H2.646V303.74H0.126V301.4H5.562ZM13.6368 306.53C14.7408 306.71 15.5868 307.124 16.1748 307.772C16.7628 308.408 17.0568 309.2 17.0568 310.148C17.0568 310.88 16.8648 311.558 16.4808 312.182C16.0968 312.794 15.5088 313.286 14.7168 313.658C13.9368 314.03 12.9768 314.216 11.8368 314.216C10.9488 314.216 10.0728 314.102 9.20883 313.874C8.35683 313.634 7.63083 313.298 7.03083 312.866L8.16483 310.634C8.64483 310.994 9.19683 311.276 9.82083 311.48C10.4568 311.672 11.1048 311.768 11.7648 311.768C12.4968 311.768 13.0728 311.63 13.4928 311.354C13.9128 311.066 14.1228 310.664 14.1228 310.148C14.1228 309.116 13.3368 308.6 11.7648 308.6H10.4328V306.674L13.0248 303.74H7.66083V301.4H16.4808V303.29L13.6368 306.53ZM20.0592 307.682C19.5672 307.682 19.1532 307.514 18.8172 307.178C18.4812 306.842 18.3132 306.422 18.3132 305.918C18.3132 305.402 18.4812 304.988 18.8172 304.676C19.1532 304.352 19.5672 304.19 20.0592 304.19C20.5512 304.19 20.9652 304.352 21.3012 304.676C21.6372 304.988 21.8052 305.402 21.8052 305.918C21.8052 306.422 21.6372 306.842 21.3012 307.178C20.9652 307.514 20.5512 307.682 20.0592 307.682ZM20.0592 314.144C19.5672 314.144 19.1532 313.976 18.8172 313.64C18.4812 313.304 18.3132 312.884 18.3132 312.38C18.3132 311.864 18.4812 311.45 18.8172 311.138C19.1532 310.814 19.5672 310.652 20.0592 310.652C20.5512 310.652 20.9652 310.814 21.3012 311.138C21.6372 311.45 21.8052 311.864 21.8052 312.38C21.8052 312.884 21.6372 313.304 21.3012 313.64C20.9652 313.976 20.5512 314.144 20.0592 314.144ZM29.0001 306.53C30.1041 306.71 30.9501 307.124 31.5381 307.772C32.1261 308.408 32.4201 309.2 32.4201 310.148C32.4201 310.88 32.2281 311.558 31.8441 312.182C31.4601 312.794 30.8721 313.286 30.0801 313.658C29.3001 314.03 28.3401 314.216 27.2001 314.216C26.3121 314.216 25.4361 314.102 24.5721 313.874C23.7201 313.634 22.9941 313.298 22.3941 312.866L23.5281 310.634C24.0081 310.994 24.5601 311.276 25.1841 311.48C25.8201 311.672 26.4681 311.768 27.1281 311.768C27.8601 311.768 28.4361 311.63 28.8561 311.354C29.2761 311.066 29.4861 310.664 29.4861 310.148C29.4861 309.116 28.7001 308.6 27.1281 308.6H25.7961V306.674L28.3881 303.74H23.0241V301.4H31.8441V303.29L29.0001 306.53ZM39.1665 314.216C38.1225 314.216 37.1925 313.958 36.3765 313.442C35.5605 312.926 34.9185 312.182 34.4505 311.21C33.9945 310.226 33.7665 309.056 33.7665 307.7C33.7665 306.344 33.9945 305.18 34.4505 304.208C34.9185 303.224 35.5605 302.474 36.3765 301.958C37.1925 301.442 38.1225 301.184 39.1665 301.184C40.2105 301.184 41.1405 301.442 41.9565 301.958C42.7725 302.474 43.4085 303.224 43.8645 304.208C44.3325 305.18 44.5665 306.344 44.5665 307.7C44.5665 309.056 44.3325 310.226 43.8645 311.21C43.4085 312.182 42.7725 312.926 41.9565 313.442C41.1405 313.958 40.2105 314.216 39.1665 314.216ZM39.1665 311.75C39.9345 311.75 40.5345 311.42 40.9665 310.76C41.4105 310.1 41.6325 309.08 41.6325 307.7C41.6325 306.32 41.4105 305.3 40.9665 304.64C40.5345 303.98 39.9345 303.65 39.1665 303.65C38.4105 303.65 37.8105 303.98 37.3665 304.64C36.9345 305.3 36.7185 306.32 36.7185 307.7C36.7185 309.08 36.9345 310.1 37.3665 310.76C37.8105 311.42 38.4105 311.75 39.1665 311.75ZM46.2876 307.808H51.3816V310.058H46.2876V307.808ZM5.562 328.4V341H2.646V330.74H0.126V328.4H5.562ZM19.2888 338.354H17.2368V341H14.3928V338.354H7.60683V336.392L13.5468 328.4H16.6068L11.0988 335.978H14.4828V333.62H17.2368V335.978H19.2888V338.354ZM21.9576 334.682C21.4656 334.682 21.0516 334.514 20.7156 334.178C20.3796 333.842 20.2116 333.422 20.2116 332.918C20.2116 332.402 20.3796 331.988 20.7156 331.676C21.0516 331.352 21.4656 331.19 21.9576 331.19C22.4496 331.19 22.8636 331.352 23.1996 331.676C23.5356 331.988 23.7036 332.402 23.7036 332.918C23.7036 333.422 23.5356 333.842 23.1996 334.178C22.8636 334.514 22.4496 334.682 21.9576 334.682ZM21.9576 341.144C21.4656 341.144 21.0516 340.976 20.7156 340.64C20.3796 340.304 20.2116 339.884 20.2116 339.38C20.2116 338.864 20.3796 338.45 20.7156 338.138C21.0516 337.814 21.4656 337.652 21.9576 337.652C22.4496 337.652 22.8636 337.814 23.1996 338.138C23.5356 338.45 23.7036 338.864 23.7036 339.38C23.7036 339.884 23.5356 340.304 23.1996 340.64C22.8636 340.976 22.4496 341.144 21.9576 341.144ZM30.4125 341.216C29.3685 341.216 28.4385 340.958 27.6225 340.442C26.8065 339.926 26.1645 339.182 25.6965 338.21C25.2405 337.226 25.0125 336.056 25.0125 334.7C25.0125 333.344 25.2405 332.18 25.6965 331.208C26.1645 330.224 26.8065 329.474 27.6225 328.958C28.4385 328.442 29.3685 328.184 30.4125 328.184C31.4565 328.184 32.3865 328.442 33.2025 328.958C34.0185 329.474 34.6545 330.224 35.1105 331.208C35.5785 332.18 35.8125 333.344 35.8125 334.7C35.8125 336.056 35.5785 337.226 35.1105 338.21C34.6545 339.182 34.0185 339.926 33.2025 340.442C32.3865 340.958 31.4565 341.216 30.4125 341.216ZM30.4125 338.75C31.1805 338.75 31.7805 338.42 32.2125 337.76C32.6565 337.1 32.8785 336.08 32.8785 334.7C32.8785 333.32 32.6565 332.3 32.2125 331.64C31.7805 330.98 31.1805 330.65 30.4125 330.65C29.6565 330.65 29.0565 330.98 28.6125 331.64C28.1805 332.3 27.9645 333.32 27.9645 334.7C27.9645 336.08 28.1805 337.1 28.6125 337.76C29.0565 338.42 29.6565 338.75 30.4125 338.75ZM42.6293 341.216C41.5853 341.216 40.6553 340.958 39.8393 340.442C39.0233 339.926 38.3813 339.182 37.9133 338.21C37.4573 337.226 37.2293 336.056 37.2293 334.7C37.2293 333.344 37.4573 332.18 37.9133 331.208C38.3813 330.224 39.0233 329.474 39.8393 328.958C40.6553 328.442 41.5853 328.184 42.6293 328.184C43.6733 328.184 44.6033 328.442 45.4193 328.958C46.2353 329.474 46.8713 330.224 47.3273 331.208C47.7953 332.18 48.0293 333.344 48.0293 334.7C48.0293 336.056 47.7953 337.226 47.3273 338.21C46.8713 339.182 46.2353 339.926 45.4193 340.442C44.6033 340.958 43.6733 341.216 42.6293 341.216ZM42.6293 338.75C43.3973 338.75 43.9973 338.42 44.4293 337.76C44.8733 337.1 45.0953 336.08 45.0953 334.7C45.0953 333.32 44.8733 332.3 44.4293 331.64C43.9973 330.98 43.3973 330.65 42.6293 330.65C41.8733 330.65 41.2733 330.98 40.8293 331.64C40.3973 332.3 40.1813 333.32 40.1813 334.7C40.1813 336.08 40.3973 337.1 40.8293 337.76C41.2733 338.42 41.8733 338.75 42.6293 338.75Z" fill="#18DFE0"/>
<path d="M120.936 312.112C119.947 312.112 119.055 311.897 118.262 311.468C117.469 311.029 116.843 310.427 116.386 309.662C115.938 308.897 115.714 308.043 115.714 307.1C115.714 306.157 115.938 305.303 116.386 304.538C116.843 303.773 117.469 303.175 118.262 302.746C119.055 302.307 119.947 302.088 120.936 302.088C121.916 302.088 122.803 302.307 123.596 302.746C124.389 303.175 125.01 303.773 125.458 304.538C125.906 305.294 126.13 306.148 126.13 307.1C126.13 308.052 125.906 308.911 125.458 309.676C125.01 310.432 124.389 311.029 123.596 311.468C122.803 311.897 121.916 312.112 120.936 312.112ZM120.936 310.866C121.655 310.866 122.299 310.703 122.868 310.376C123.447 310.049 123.899 309.601 124.226 309.032C124.562 308.453 124.73 307.809 124.73 307.1C124.73 306.391 124.562 305.751 124.226 305.182C123.899 304.603 123.447 304.151 122.868 303.824C122.299 303.497 121.655 303.334 120.936 303.334C120.217 303.334 119.564 303.497 118.976 303.824C118.397 304.151 117.94 304.603 117.604 305.182C117.277 305.751 117.114 306.391 117.114 307.1C117.114 307.809 117.277 308.453 117.604 309.032C117.94 309.601 118.397 310.049 118.976 310.376C119.564 310.703 120.217 310.866 120.936 310.866ZM136.093 310.824V313.778H134.819V312H128.169V304.58H129.513V310.824H133.573V304.58H134.917V310.824H136.093ZM144.541 308.332C144.541 308.435 144.532 308.57 144.513 308.738H138.493C138.577 309.391 138.862 309.919 139.347 310.32C139.842 310.712 140.453 310.908 141.181 310.908C142.068 310.908 142.782 310.609 143.323 310.012L144.065 310.88C143.729 311.272 143.309 311.571 142.805 311.776C142.311 311.981 141.755 312.084 141.139 312.084C140.355 312.084 139.66 311.925 139.053 311.608C138.447 311.281 137.975 310.829 137.639 310.25C137.313 309.671 137.149 309.018 137.149 308.29C137.149 307.571 137.308 306.923 137.625 306.344C137.952 305.765 138.395 305.317 138.955 305C139.525 304.673 140.164 304.51 140.873 304.51C141.583 304.51 142.213 304.673 142.763 305C143.323 305.317 143.757 305.765 144.065 306.344C144.383 306.923 144.541 307.585 144.541 308.332ZM140.873 305.644C140.229 305.644 139.688 305.84 139.249 306.232C138.82 306.624 138.568 307.137 138.493 307.772H143.253C143.179 307.147 142.922 306.638 142.483 306.246C142.054 305.845 141.517 305.644 140.873 305.644ZM146.626 304.58H147.97V307.73H152.198V304.58H153.542V312H152.198V308.892H147.97V312H146.626V304.58ZM159.04 308.864H157.5V312H156.156V304.58H157.5V307.716H159.068L161.476 304.58H162.918L160.104 308.15L163.114 312H161.532L159.04 308.864ZM164.523 304.58H165.867V309.984L170.417 304.58H171.635V312H170.291V306.596L165.755 312H164.523V304.58ZM180.145 304.496C180.901 304.496 181.583 304.659 182.189 304.986C182.805 305.313 183.286 305.765 183.631 306.344C183.977 306.923 184.149 307.571 184.149 308.29C184.149 309.018 183.977 309.671 183.631 310.25C183.286 310.829 182.805 311.281 182.189 311.608C181.583 311.935 180.901 312.098 180.145 312.098C179.492 312.098 178.899 311.995 178.367 311.79C177.845 311.585 177.401 311.286 177.037 310.894L177.821 310.11C178.419 310.698 179.175 310.992 180.089 310.992C180.817 310.992 181.438 310.787 181.951 310.376C182.465 309.956 182.773 309.41 182.875 308.738H179.151V307.744H182.847C182.726 307.1 182.413 306.582 181.909 306.19C181.405 305.789 180.799 305.588 180.089 305.588C179.184 305.588 178.428 305.887 177.821 306.484L177.037 305.714C177.401 305.313 177.849 305.009 178.381 304.804C178.913 304.599 179.501 304.496 180.145 304.496ZM188.94 308.864H187.4V312H186.056V304.58H187.4V307.716H188.968L191.376 304.58H192.818L190.004 308.15L193.014 312H191.432L188.94 308.864ZM197.411 312.084C196.655 312.084 195.978 311.921 195.381 311.594C194.793 311.267 194.331 310.819 193.995 310.25C193.659 309.671 193.491 309.018 193.491 308.29C193.491 307.562 193.659 306.913 193.995 306.344C194.331 305.765 194.793 305.317 195.381 305C195.978 304.673 196.655 304.51 197.411 304.51C198.083 304.51 198.68 304.645 199.203 304.916C199.735 305.187 200.146 305.579 200.435 306.092L199.413 306.75C199.18 306.395 198.89 306.129 198.545 305.952C198.2 305.775 197.817 305.686 197.397 305.686C196.912 305.686 196.473 305.793 196.081 306.008C195.698 306.223 195.395 306.531 195.171 306.932C194.956 307.324 194.849 307.777 194.849 308.29C194.849 308.813 194.956 309.275 195.171 309.676C195.395 310.068 195.698 310.371 196.081 310.586C196.473 310.801 196.912 310.908 197.397 310.908C197.817 310.908 198.2 310.819 198.545 310.642C198.89 310.465 199.18 310.199 199.413 309.844L200.435 310.488C200.146 311.001 199.735 311.398 199.203 311.678C198.68 311.949 198.083 312.084 197.411 312.084ZM209.049 304.58V312H207.705V305.756H203.519V312H202.175V304.58H209.049ZM218.356 308.332C218.356 308.435 218.346 308.57 218.328 308.738H212.308C212.392 309.391 212.676 309.919 213.162 310.32C213.656 310.712 214.268 310.908 214.996 310.908C215.882 310.908 216.596 310.609 217.138 310.012L217.88 310.88C217.544 311.272 217.124 311.571 216.62 311.776C216.125 311.981 215.57 312.084 214.954 312.084C214.17 312.084 213.474 311.925 212.868 311.608C212.261 311.281 211.79 310.829 211.454 310.25C211.127 309.671 210.964 309.018 210.964 308.29C210.964 307.571 211.122 306.923 211.44 306.344C211.766 305.765 212.21 305.317 212.77 305C213.339 304.673 213.978 304.51 214.688 304.51C215.397 304.51 216.027 304.673 216.578 305C217.138 305.317 217.572 305.765 217.88 306.344C218.197 306.923 218.356 307.585 218.356 308.332ZM214.688 305.644C214.044 305.644 213.502 305.84 213.064 306.232C212.634 306.624 212.382 307.137 212.308 307.772H217.068C216.993 307.147 216.736 306.638 216.298 306.246C215.868 305.845 215.332 305.644 214.688 305.644ZM224.375 304.51C225.093 304.51 225.737 304.669 226.307 304.986C226.876 305.303 227.319 305.747 227.637 306.316C227.963 306.885 228.127 307.543 228.127 308.29C228.127 309.037 227.963 309.699 227.637 310.278C227.319 310.847 226.876 311.291 226.307 311.608C225.737 311.925 225.093 312.084 224.375 312.084C223.843 312.084 223.353 311.981 222.905 311.776C222.466 311.571 222.093 311.272 221.785 310.88V314.716H220.441V304.58H221.729V305.756C222.027 305.345 222.405 305.037 222.863 304.832C223.32 304.617 223.824 304.51 224.375 304.51ZM224.263 310.908C224.739 310.908 225.163 310.801 225.537 310.586C225.919 310.362 226.218 310.054 226.433 309.662C226.657 309.261 226.769 308.803 226.769 308.29C226.769 307.777 226.657 307.324 226.433 306.932C226.218 306.531 225.919 306.223 225.537 306.008C225.163 305.793 224.739 305.686 224.263 305.686C223.796 305.686 223.371 305.798 222.989 306.022C222.615 306.237 222.317 306.54 222.093 306.932C221.878 307.324 221.771 307.777 221.771 308.29C221.771 308.803 221.878 309.261 222.093 309.662C222.307 310.054 222.606 310.362 222.989 310.586C223.371 310.801 223.796 310.908 224.263 310.908ZM235.336 305.756H232.62V312H231.276V305.756H228.56V304.58H235.336V305.756ZM239.56 312.084C238.823 312.084 238.16 311.921 237.572 311.594C236.984 311.267 236.522 310.819 236.186 310.25C235.859 309.671 235.696 309.018 235.696 308.29C235.696 307.562 235.859 306.913 236.186 306.344C236.522 305.765 236.984 305.317 237.572 305C238.16 304.673 238.823 304.51 239.56 304.51C240.297 304.51 240.955 304.673 241.534 305C242.122 305.317 242.579 305.765 242.906 306.344C243.242 306.913 243.41 307.562 243.41 308.29C243.41 309.018 243.242 309.671 242.906 310.25C242.579 310.819 242.122 311.267 241.534 311.594C240.955 311.921 240.297 312.084 239.56 312.084ZM239.56 310.908C240.036 310.908 240.461 310.801 240.834 310.586C241.217 310.362 241.515 310.054 241.73 309.662C241.945 309.261 242.052 308.803 242.052 308.29C242.052 307.777 241.945 307.324 241.73 306.932C241.515 306.531 241.217 306.223 240.834 306.008C240.461 305.793 240.036 305.686 239.56 305.686C239.084 305.686 238.655 305.793 238.272 306.008C237.899 306.223 237.6 306.531 237.376 306.932C237.161 307.324 237.054 307.777 237.054 308.29C237.054 308.803 237.161 309.261 237.376 309.662C237.6 310.054 237.899 310.362 238.272 310.586C238.655 310.801 239.084 310.908 239.56 310.908ZM250.405 308.15C251.366 308.393 251.847 308.995 251.847 309.956C251.847 310.609 251.599 311.113 251.105 311.468C250.619 311.823 249.891 312 248.921 312H245.351V304.58H248.795C249.672 304.58 250.358 304.748 250.853 305.084C251.347 305.411 251.595 305.877 251.595 306.484C251.595 306.876 251.487 307.217 251.273 307.506C251.067 307.786 250.778 308.001 250.405 308.15ZM246.667 307.772H248.683C249.196 307.772 249.583 307.679 249.845 307.492C250.115 307.305 250.251 307.035 250.251 306.68C250.251 305.971 249.728 305.616 248.683 305.616H246.667V307.772ZM248.823 310.964C249.383 310.964 249.803 310.875 250.083 310.698C250.363 310.521 250.503 310.245 250.503 309.872C250.503 309.489 250.372 309.205 250.111 309.018C249.859 308.831 249.457 308.738 248.907 308.738H246.667V310.964H248.823Z" fill="white"/>
<circle cx="84" cy="308" r="6.5" stroke="#18DFE0" stroke-width="5"/>
<path d="M5.562 389.4V402H2.646V391.74H0.126V389.4H5.562ZM19.2888 399.354H17.2368V402H14.3928V399.354H7.60683V397.392L13.5468 389.4H16.6068L11.0988 396.978H14.4828V394.62H17.2368V396.978H19.2888V399.354ZM21.9576 395.682C21.4656 395.682 21.0516 395.514 20.7156 395.178C20.3796 394.842 20.2116 394.422 20.2116 393.918C20.2116 393.402 20.3796 392.988 20.7156 392.676C21.0516 392.352 21.4656 392.19 21.9576 392.19C22.4496 392.19 22.8636 392.352 23.1996 392.676C23.5356 392.988 23.7036 393.402 23.7036 393.918C23.7036 394.422 23.5356 394.842 23.1996 395.178C22.8636 395.514 22.4496 395.682 21.9576 395.682ZM21.9576 402.144C21.4656 402.144 21.0516 401.976 20.7156 401.64C20.3796 401.304 20.2116 400.884 20.2116 400.38C20.2116 399.864 20.3796 399.45 20.7156 399.138C21.0516 398.814 21.4656 398.652 21.9576 398.652C22.4496 398.652 22.8636 398.814 23.1996 399.138C23.5356 399.45 23.7036 399.864 23.7036 400.38C23.7036 400.884 23.5356 401.304 23.1996 401.64C22.8636 401.976 22.4496 402.144 21.9576 402.144ZM30.4125 402.216C29.3685 402.216 28.4385 401.958 27.6225 401.442C26.8065 400.926 26.1645 400.182 25.6965 399.21C25.2405 398.226 25.0125 397.056 25.0125 395.7C25.0125 394.344 25.2405 393.18 25.6965 392.208C26.1645 391.224 26.8065 390.474 27.6225 389.958C28.4385 389.442 29.3685 389.184 30.4125 389.184C31.4565 389.184 32.3865 389.442 33.2025 389.958C34.0185 390.474 34.6545 391.224 35.1105 392.208C35.5785 393.18 35.8125 394.344 35.8125 395.7C35.8125 397.056 35.5785 398.226 35.1105 399.21C34.6545 400.182 34.0185 400.926 33.2025 401.442C32.3865 401.958 31.4565 402.216 30.4125 402.216ZM30.4125 399.75C31.1805 399.75 31.7805 399.42 32.2125 398.76C32.6565 398.1 32.8785 397.08 32.8785 395.7C32.8785 394.32 32.6565 393.3 32.2125 392.64C31.7805 391.98 31.1805 391.65 30.4125 391.65C29.6565 391.65 29.0565 391.98 28.6125 392.64C28.1805 393.3 27.9645 394.32 27.9645 395.7C27.9645 397.08 28.1805 398.1 28.6125 398.76C29.0565 399.42 29.6565 399.75 30.4125 399.75ZM42.6293 402.216C41.5853 402.216 40.6553 401.958 39.8393 401.442C39.0233 400.926 38.3813 400.182 37.9133 399.21C37.4573 398.226 37.2293 397.056 37.2293 395.7C37.2293 394.344 37.4573 393.18 37.9133 392.208C38.3813 391.224 39.0233 390.474 39.8393 389.958C40.6553 389.442 41.5853 389.184 42.6293 389.184C43.6733 389.184 44.6033 389.442 45.4193 389.958C46.2353 390.474 46.8713 391.224 47.3273 392.208C47.7953 393.18 48.0293 394.344 48.0293 395.7C48.0293 397.056 47.7953 398.226 47.3273 399.21C46.8713 400.182 46.2353 400.926 45.4193 401.442C44.6033 401.958 43.6733 402.216 42.6293 402.216ZM42.6293 399.75C43.3973 399.75 43.9973 399.42 44.4293 398.76C44.8733 398.1 45.0953 397.08 45.0953 395.7C45.0953 394.32 44.8733 393.3 44.4293 392.64C43.9973 391.98 43.3973 391.65 42.6293 391.65C41.8733 391.65 41.2733 391.98 40.8293 392.64C40.3973 393.3 40.1813 394.32 40.1813 395.7C40.1813 397.08 40.3973 398.1 40.8293 398.76C41.2733 399.42 41.8733 399.75 42.6293 399.75ZM49.7505 395.808H54.8445V398.058H49.7505V395.808ZM5.562 416.4V429H2.646V418.74H0.126V416.4H5.562ZM12.0708 421.134C13.8468 421.134 15.1548 421.488 15.9948 422.196C16.8468 422.904 17.2728 423.852 17.2728 425.04C17.2728 425.808 17.0808 426.51 16.6968 427.146C16.3128 427.77 15.7248 428.274 14.9328 428.658C14.1528 429.03 13.1868 429.216 12.0348 429.216C11.1468 429.216 10.2708 429.102 9.40683 428.874C8.55483 428.634 7.82883 428.298 7.22883 427.866L8.38083 425.634C8.86083 425.994 9.41283 426.276 10.0368 426.48C10.6608 426.672 11.3028 426.768 11.9628 426.768C12.6948 426.768 13.2708 426.624 13.6908 426.336C14.1108 426.048 14.3208 425.646 14.3208 425.13C14.3208 424.59 14.0988 424.182 13.6548 423.906C13.2228 423.63 12.4668 423.492 11.3868 423.492H8.16483L8.81283 416.4H16.4988V418.74H11.2428L11.0448 421.134H12.0708ZM20.1119 422.682C19.6199 422.682 19.2059 422.514 18.8699 422.178C18.5339 421.842 18.3659 421.422 18.3659 420.918C18.3659 420.402 18.5339 419.988 18.8699 419.676C19.2059 419.352 19.6199 419.19 20.1119 419.19C20.6039 419.19 21.0179 419.352 21.3539 419.676C21.6899 419.988 21.8579 420.402 21.8579 420.918C21.8579 421.422 21.6899 421.842 21.3539 422.178C21.0179 422.514 20.6039 422.682 20.1119 422.682ZM20.1119 429.144C19.6199 429.144 19.2059 428.976 18.8699 428.64C18.5339 428.304 18.3659 427.884 18.3659 427.38C18.3659 426.864 18.5339 426.45 18.8699 426.138C19.2059 425.814 19.6199 425.652 20.1119 425.652C20.6039 425.652 21.0179 425.814 21.3539 426.138C21.6899 426.45 21.8579 426.864 21.8579 427.38C21.8579 427.884 21.6899 428.304 21.3539 428.64C21.0179 428.976 20.6039 429.144 20.1119 429.144ZM28.5668 429.216C27.5228 429.216 26.5928 428.958 25.7768 428.442C24.9608 427.926 24.3188 427.182 23.8508 426.21C23.3948 425.226 23.1668 424.056 23.1668 422.7C23.1668 421.344 23.3948 420.18 23.8508 419.208C24.3188 418.224 24.9608 417.474 25.7768 416.958C26.5928 416.442 27.5228 416.184 28.5668 416.184C29.6108 416.184 30.5408 416.442 31.3568 416.958C32.1728 417.474 32.8088 418.224 33.2648 419.208C33.7328 420.18 33.9668 421.344 33.9668 422.7C33.9668 424.056 33.7328 425.226 33.2648 426.21C32.8088 427.182 32.1728 427.926 31.3568 428.442C30.5408 428.958 29.6108 429.216 28.5668 429.216ZM28.5668 426.75C29.3348 426.75 29.9348 426.42 30.3668 425.76C30.8108 425.1 31.0328 424.08 31.0328 422.7C31.0328 421.32 30.8108 420.3 30.3668 419.64C29.9348 418.98 29.3348 418.65 28.5668 418.65C27.8108 418.65 27.2108 418.98 26.7668 419.64C26.3348 420.3 26.1188 421.32 26.1188 422.7C26.1188 424.08 26.3348 425.1 26.7668 425.76C27.2108 426.42 27.8108 426.75 28.5668 426.75ZM40.7836 429.216C39.7396 429.216 38.8096 428.958 37.9936 428.442C37.1776 427.926 36.5356 427.182 36.0676 426.21C35.6116 425.226 35.3836 424.056 35.3836 422.7C35.3836 421.344 35.6116 420.18 36.0676 419.208C36.5356 418.224 37.1776 417.474 37.9936 416.958C38.8096 416.442 39.7396 416.184 40.7836 416.184C41.8276 416.184 42.7576 416.442 43.5736 416.958C44.3896 417.474 45.0256 418.224 45.4816 419.208C45.9496 420.18 46.1836 421.344 46.1836 422.7C46.1836 424.056 45.9496 425.226 45.4816 426.21C45.0256 427.182 44.3896 427.926 43.5736 428.442C42.7576 428.958 41.8276 429.216 40.7836 429.216ZM40.7836 426.75C41.5516 426.75 42.1516 426.42 42.5836 425.76C43.0276 425.1 43.2496 424.08 43.2496 422.7C43.2496 421.32 43.0276 420.3 42.5836 419.64C42.1516 418.98 41.5516 418.65 40.7836 418.65C40.0276 418.65 39.4276 418.98 38.9836 419.64C38.5516 420.3 38.3356 421.32 38.3356 422.7C38.3356 424.08 38.5516 425.1 38.9836 425.76C39.4276 426.42 40.0276 426.75 40.7836 426.75Z" fill="#18DFE0"/>
<path d="M124.954 390.2V400H123.554V395.632H117.926V400H116.526V390.2H117.926V394.414H123.554V390.2H124.954ZM130.432 392.51C131.459 392.51 132.243 392.762 132.784 393.266C133.335 393.77 133.61 394.521 133.61 395.52V400H132.336V399.02C132.112 399.365 131.79 399.631 131.37 399.818C130.96 399.995 130.47 400.084 129.9 400.084C129.07 400.084 128.402 399.883 127.898 399.482C127.404 399.081 127.156 398.553 127.156 397.9C127.156 397.247 127.394 396.724 127.87 396.332C128.346 395.931 129.102 395.73 130.138 395.73H132.266V395.464C132.266 394.885 132.098 394.442 131.762 394.134C131.426 393.826 130.932 393.672 130.278 393.672C129.84 393.672 129.41 393.747 128.99 393.896C128.57 394.036 128.216 394.227 127.926 394.47L127.366 393.462C127.749 393.154 128.206 392.921 128.738 392.762C129.27 392.594 129.835 392.51 130.432 392.51ZM130.124 399.048C130.638 399.048 131.081 398.936 131.454 398.712C131.828 398.479 132.098 398.152 132.266 397.732V396.696H130.194C129.056 396.696 128.486 397.079 128.486 397.844C128.486 398.217 128.631 398.511 128.92 398.726C129.21 398.941 129.611 399.048 130.124 399.048ZM141.491 393.756H137.375V400H136.031V392.58H141.491V393.756ZM146.8 392.51C147.519 392.51 148.163 392.669 148.732 392.986C149.302 393.303 149.745 393.747 150.062 394.316C150.389 394.885 150.552 395.543 150.552 396.29C150.552 397.037 150.389 397.699 150.062 398.278C149.745 398.847 149.302 399.291 148.732 399.608C148.163 399.925 147.519 400.084 146.8 400.084C146.268 400.084 145.778 399.981 145.33 399.776C144.892 399.571 144.518 399.272 144.21 398.88V402.716H142.866V392.58H144.154V393.756C144.453 393.345 144.831 393.037 145.288 392.832C145.746 392.617 146.25 392.51 146.8 392.51ZM146.688 398.908C147.164 398.908 147.589 398.801 147.962 398.586C148.345 398.362 148.644 398.054 148.858 397.662C149.082 397.261 149.194 396.803 149.194 396.29C149.194 395.777 149.082 395.324 148.858 394.932C148.644 394.531 148.345 394.223 147.962 394.008C147.589 393.793 147.164 393.686 146.688 393.686C146.222 393.686 145.797 393.798 145.414 394.022C145.041 394.237 144.742 394.54 144.518 394.932C144.304 395.324 144.196 395.777 144.196 396.29C144.196 396.803 144.304 397.261 144.518 397.662C144.733 398.054 145.032 398.362 145.414 398.586C145.797 398.801 146.222 398.908 146.688 398.908ZM155.083 392.51C156.109 392.51 156.893 392.762 157.435 393.266C157.985 393.77 158.261 394.521 158.261 395.52V400H156.987V399.02C156.763 399.365 156.441 399.631 156.021 399.818C155.61 399.995 155.12 400.084 154.551 400.084C153.72 400.084 153.053 399.883 152.549 399.482C152.054 399.081 151.807 398.553 151.807 397.9C151.807 397.247 152.045 396.724 152.521 396.332C152.997 395.931 153.753 395.73 154.789 395.73H156.917V395.464C156.917 394.885 156.749 394.442 156.413 394.134C156.077 393.826 155.582 393.672 154.929 393.672C154.49 393.672 154.061 393.747 153.641 393.896C153.221 394.036 152.866 394.227 152.577 394.47L152.017 393.462C152.399 393.154 152.857 392.921 153.389 392.762C153.921 392.594 154.485 392.51 155.083 392.51ZM154.775 399.048C155.288 399.048 155.731 398.936 156.105 398.712C156.478 398.479 156.749 398.152 156.917 397.732V396.696H154.845C153.706 396.696 153.137 397.079 153.137 397.844C153.137 398.217 153.281 398.511 153.571 398.726C153.86 398.941 154.261 399.048 154.775 399.048ZM167.429 396.864H165.987V400H164.643V396.864H163.201L161.157 400H159.561L162.109 396.164L159.757 392.58H161.185L163.187 395.716H164.643V392.58H165.987V395.716H167.443L169.445 392.58H170.887L168.535 396.178L171.083 400H169.487L167.429 396.864ZM180.108 398.824V401.722H178.848V400H172.646V401.722H171.372V398.824H171.764C172.24 398.796 172.566 398.46 172.744 397.816C172.921 397.172 173.042 396.262 173.108 395.086L173.22 392.58H178.974V398.824H180.108ZM174.34 395.184C174.302 396.117 174.223 396.892 174.102 397.508C173.99 398.115 173.78 398.553 173.472 398.824H177.63V393.756H174.41L174.34 395.184ZM188.565 396.332C188.565 396.435 188.555 396.57 188.537 396.738H182.517C182.601 397.391 182.885 397.919 183.371 398.32C183.865 398.712 184.477 398.908 185.205 398.908C186.091 398.908 186.805 398.609 187.347 398.012L188.089 398.88C187.753 399.272 187.333 399.571 186.829 399.776C186.334 399.981 185.779 400.084 185.163 400.084C184.379 400.084 183.683 399.925 183.077 399.608C182.47 399.281 181.999 398.829 181.663 398.25C181.336 397.671 181.173 397.018 181.173 396.29C181.173 395.571 181.331 394.923 181.649 394.344C181.975 393.765 182.419 393.317 182.979 393C183.548 392.673 184.187 392.51 184.897 392.51C185.606 392.51 186.236 392.673 186.787 393C187.347 393.317 187.781 393.765 188.089 394.344C188.406 394.923 188.565 395.585 188.565 396.332ZM184.897 393.644C184.253 393.644 183.711 393.84 183.273 394.232C182.843 394.624 182.591 395.137 182.517 395.772H187.277C187.202 395.147 186.945 394.638 186.507 394.246C186.077 393.845 185.541 393.644 184.897 393.644ZM190.65 392.58H191.994V395.73H196.222V392.58H197.566V400H196.222V396.892H191.994V400H190.65V392.58ZM200.179 392.58H201.523V397.984L206.073 392.58H207.291V400H205.947V394.596L201.411 400H200.179V392.58ZM216.606 396.332C216.606 396.435 216.596 396.57 216.578 396.738H210.558C210.642 397.391 210.926 397.919 211.412 398.32C211.906 398.712 212.518 398.908 213.246 398.908C214.132 398.908 214.846 398.609 215.388 398.012L216.13 398.88C215.794 399.272 215.374 399.571 214.87 399.776C214.375 399.981 213.82 400.084 213.204 400.084C212.42 400.084 211.724 399.925 211.118 399.608C210.511 399.281 210.04 398.829 209.704 398.25C209.377 397.671 209.214 397.018 209.214 396.29C209.214 395.571 209.372 394.923 209.69 394.344C210.016 393.765 210.46 393.317 211.02 393C211.589 392.673 212.228 392.51 212.938 392.51C213.647 392.51 214.277 392.673 214.828 393C215.388 393.317 215.822 393.765 216.13 394.344C216.447 394.923 216.606 395.585 216.606 396.332ZM212.938 393.644C212.294 393.644 211.752 393.84 211.314 394.232C210.884 394.624 210.632 395.137 210.558 395.772H215.318C215.243 395.147 214.986 394.638 214.548 394.246C214.118 393.845 213.582 393.644 212.938 393.644ZM229.324 392.58V400H227.98V393.756H223.794V400H222.45V392.58H229.324ZM235.103 400.084C234.366 400.084 233.703 399.921 233.115 399.594C232.527 399.267 232.065 398.819 231.729 398.25C231.402 397.671 231.239 397.018 231.239 396.29C231.239 395.562 231.402 394.913 231.729 394.344C232.065 393.765 232.527 393.317 233.115 393C233.703 392.673 234.366 392.51 235.103 392.51C235.84 392.51 236.498 392.673 237.077 393C237.665 393.317 238.122 393.765 238.449 394.344C238.785 394.913 238.953 395.562 238.953 396.29C238.953 397.018 238.785 397.671 238.449 398.25C238.122 398.819 237.665 399.267 237.077 399.594C236.498 399.921 235.84 400.084 235.103 400.084ZM235.103 398.908C235.579 398.908 236.004 398.801 236.377 398.586C236.76 398.362 237.058 398.054 237.273 397.662C237.488 397.261 237.595 396.803 237.595 396.29C237.595 395.777 237.488 395.324 237.273 394.932C237.058 394.531 236.76 394.223 236.377 394.008C236.004 393.793 235.579 393.686 235.103 393.686C234.627 393.686 234.198 393.793 233.815 394.008C233.442 394.223 233.143 394.531 232.919 394.932C232.704 395.324 232.597 395.777 232.597 396.29C232.597 396.803 232.704 397.261 232.919 397.662C233.143 398.054 233.442 398.362 233.815 398.586C234.198 398.801 234.627 398.908 235.103 398.908ZM244.674 392.832C245.364 392.832 245.98 392.986 246.522 393.294C247.063 393.602 247.483 394.031 247.782 394.582C248.09 395.123 248.244 395.744 248.244 396.444C248.244 397.163 248.08 397.802 247.754 398.362C247.436 398.913 246.984 399.342 246.396 399.65C245.817 399.958 245.154 400.112 244.408 400.112C243.148 400.112 242.172 399.683 241.482 398.824C240.8 397.956 240.46 396.738 240.46 395.17C240.46 393.649 240.772 392.459 241.398 391.6C242.023 390.732 242.98 390.158 244.268 389.878L247.656 389.122L247.852 390.354L244.73 391.026C243.759 391.241 243.036 391.605 242.56 392.118C242.084 392.631 241.813 393.369 241.748 394.33C242.065 393.854 242.476 393.485 242.98 393.224C243.484 392.963 244.048 392.832 244.674 392.832ZM244.436 398.992C244.912 398.992 245.332 398.885 245.696 398.67C246.069 398.455 246.358 398.161 246.564 397.788C246.769 397.405 246.872 396.971 246.872 396.486C246.872 395.749 246.648 395.156 246.2 394.708C245.752 394.26 245.164 394.036 244.436 394.036C243.708 394.036 243.115 394.26 242.658 394.708C242.21 395.156 241.986 395.749 241.986 396.486C241.986 396.971 242.088 397.405 242.294 397.788C242.508 398.161 242.802 398.455 243.176 398.67C243.549 398.885 243.969 398.992 244.436 398.992ZM256.869 396.332C256.869 396.435 256.86 396.57 256.841 396.738H250.821C250.905 397.391 251.19 397.919 251.675 398.32C252.17 398.712 252.781 398.908 253.509 398.908C254.396 398.908 255.11 398.609 255.651 398.012L256.393 398.88C256.057 399.272 255.637 399.571 255.133 399.776C254.639 399.981 254.083 400.084 253.467 400.084C252.683 400.084 251.988 399.925 251.381 399.608C250.775 399.281 250.303 398.829 249.967 398.25C249.641 397.671 249.477 397.018 249.477 396.29C249.477 395.571 249.636 394.923 249.953 394.344C250.28 393.765 250.723 393.317 251.283 393C251.853 392.673 252.492 392.51 253.201 392.51C253.911 392.51 254.541 392.673 255.091 393C255.651 393.317 256.085 393.765 256.393 394.344C256.711 394.923 256.869 395.585 256.869 396.332ZM253.201 393.644C252.557 393.644 252.016 393.84 251.577 394.232C251.148 394.624 250.896 395.137 250.821 395.772H255.581C255.507 395.147 255.25 394.638 254.811 394.246C254.382 393.845 253.845 393.644 253.201 393.644ZM266.377 398.824V401.722H265.117V400H258.915V401.722H257.641V398.824H258.033C258.509 398.796 258.836 398.46 259.013 397.816C259.191 397.172 259.312 396.262 259.377 395.086L259.489 392.58H265.243V398.824H266.377ZM260.609 395.184C260.572 396.117 260.493 396.892 260.371 397.508C260.259 398.115 260.049 398.553 259.741 398.824H263.899V393.756H260.679L260.609 395.184ZM268.128 392.58H269.472V397.984L274.022 392.58H275.24V400H273.896V394.596L269.36 400H268.128V392.58ZM283.379 393.756H280.663V400H279.319V393.756H276.603V392.58H283.379V393.756ZM291.131 396.332C291.131 396.435 291.122 396.57 291.103 396.738H285.083C285.167 397.391 285.452 397.919 285.937 398.32C286.432 398.712 287.043 398.908 287.771 398.908C288.658 398.908 289.372 398.609 289.913 398.012L290.655 398.88C290.319 399.272 289.899 399.571 289.395 399.776C288.9 399.981 288.345 400.084 287.729 400.084C286.945 400.084 286.25 399.925 285.643 399.608C285.036 399.281 284.565 398.829 284.229 398.25C283.902 397.671 283.739 397.018 283.739 396.29C283.739 395.571 283.898 394.923 284.215 394.344C284.542 393.765 284.985 393.317 285.545 393C286.114 392.673 286.754 392.51 287.463 392.51C288.172 392.51 288.802 392.673 289.353 393C289.913 393.317 290.347 393.765 290.655 394.344C290.972 394.923 291.131 395.585 291.131 396.332ZM287.463 393.644C286.819 393.644 286.278 393.84 285.839 394.232C285.41 394.624 285.158 395.137 285.083 395.772H289.843C289.768 395.147 289.512 394.638 289.073 394.246C288.644 393.845 288.107 393.644 287.463 393.644ZM299.463 392.58V400H298.119V393.756H294.927L294.843 395.408C294.796 396.407 294.708 397.242 294.577 397.914C294.446 398.577 294.232 399.109 293.933 399.51C293.634 399.911 293.219 400.112 292.687 400.112C292.444 400.112 292.169 400.07 291.861 399.986L291.945 398.852C292.066 398.88 292.178 398.894 292.281 398.894C292.654 398.894 292.934 398.731 293.121 398.404C293.308 398.077 293.429 397.69 293.485 397.242C293.541 396.794 293.592 396.155 293.639 395.324L293.765 392.58H299.463ZM308.768 396.332C308.768 396.435 308.758 396.57 308.74 396.738H302.72C302.804 397.391 303.088 397.919 303.574 398.32C304.068 398.712 304.68 398.908 305.408 398.908C306.294 398.908 307.008 398.609 307.55 398.012L308.292 398.88C307.956 399.272 307.536 399.571 307.032 399.776C306.537 399.981 305.982 400.084 305.366 400.084C304.582 400.084 303.886 399.925 303.28 399.608C302.673 399.281 302.202 398.829 301.866 398.25C301.539 397.671 301.376 397.018 301.376 396.29C301.376 395.571 301.534 394.923 301.852 394.344C302.178 393.765 302.622 393.317 303.182 393C303.751 392.673 304.39 392.51 305.1 392.51C305.809 392.51 306.439 392.673 306.99 393C307.55 393.317 307.984 393.765 308.292 394.344C308.609 394.923 308.768 395.585 308.768 396.332ZM305.1 393.644C304.456 393.644 303.914 393.84 303.476 394.232C303.046 394.624 302.794 395.137 302.72 395.772H307.48C307.405 395.147 307.148 394.638 306.71 394.246C306.28 393.845 305.744 393.644 305.1 393.644ZM310.853 392.58H312.197V397.984L316.747 392.58H317.965V400H316.621V394.596L312.085 400H310.853V392.58ZM314.325 391.614C313.634 391.614 313.097 391.451 312.715 391.124C312.332 390.788 312.136 390.307 312.127 389.682H313.037C313.046 390.027 313.163 390.307 313.387 390.522C313.62 390.727 313.928 390.83 314.311 390.83C314.693 390.83 315.001 390.727 315.235 390.522C315.468 390.307 315.589 390.027 315.599 389.682H316.537C316.527 390.307 316.327 390.788 315.935 391.124C315.543 391.451 315.006 391.614 314.325 391.614Z" fill="white"/>
<circle cx="84" cy="396" r="6.5" stroke="#18DFE0" stroke-width="5"/>
</svg>
