<svg width="41" height="50" viewBox="0 0 41 50" fill="none" xmlns="http://www.w3.org/2000/svg">
<path d="M5.1311 47.5531L10.8704 45.9266C22.7193 53.5167 25.1261 48.2759 27.9032 47.7338C28.6438 47.7338 28.0884 48.4566 31.0506 47.7338C35.1236 46.4688 36.7899 44.3001 35.3088 41.4087C38.8264 40.3244 39.1967 38.1558 38.0859 35.445C40.8629 33.8186 40.8629 30.7464 38.6413 28.5778C42.1589 21.8913 36.6047 16.4697 23.8302 19.9034C22.9045 13.3976 25.8667 9.24107 24.7558 5.44602C23.4599 0.566659 20.1274 -0.156209 15.4989 0.0245082C16.0543 12.3133 16.98 6.3496 10.8704 18.2769C5.87166 28.2163 10.315 26.9513 0.317484 29.6621C-0.793351 36.1679 1.05804 42.3123 5.1311 47.5531ZM5.87166 45.3845C2.90943 41.0472 1.61346 36.5293 1.98374 31.4692C10.8704 28.9392 8.09333 28.7585 12.5367 19.7227C18.6463 6.89175 18.276 13.5783 17.5354 2.19311C23.2747 2.37383 23.4599 6.89175 22.349 11.229C21.0531 16.1083 21.2382 18.4576 22.1639 22.4334C26.9775 21.1684 35.8642 18.6383 37.3453 23.5177C38.6413 28.3971 33.2722 30.7464 30.8654 30.9271L23.0896 29.6621C24.7558 24.602 29.7546 26.2285 31.2357 26.2285L33.0871 25.6863L34.3831 23.337C29.014 24.7827 32.5317 23.8791 28.6438 24.0599C24.2004 24.2406 21.2382 26.7706 20.6828 31.2885L22.1639 31.4692C20.6828 32.7343 19.7571 34.3607 19.572 36.5293L21.2382 36.71C20.3125 37.7943 19.3868 39.4208 19.0165 41.4087L21.6085 41.9508C20.6828 43.2158 19.9422 44.6616 19.572 46.6495L24.941 47.3723C19.572 49.1795 15.684 47.1916 11.2407 43.758L5.87166 45.3845ZM21.9788 34.9029C24.2004 29.4814 26.9775 33.0957 31.0506 32.7343C31.9763 32.7343 36.0493 31.4692 37.1602 30.2042C41.6035 33.8186 30.4952 35.9872 29.9397 36.1679L21.9788 34.9029ZM21.6085 39.7822L23.4599 37.0715C31.606 38.3365 28.6438 38.5172 36.4196 36.3486C38.271 39.7822 29.9397 41.0472 29.9397 41.0472L21.6085 39.7822ZM22.1639 45.2037L23.8302 42.1315C30.4952 43.0351 28.6438 43.3966 33.6425 42.1315C34.3831 45.023 30.4952 46.1073 29.3843 46.1073L22.1639 45.2037Z" fill="#1A76B5"/>
</svg>
