<?xml version="1.0" encoding="UTF-8" standalone="no"?>
<svg
   xmlns:dc="http://purl.org/dc/elements/1.1/"
   xmlns:cc="http://creativecommons.org/ns#"
   xmlns:rdf="http://www.w3.org/1999/02/22-rdf-syntax-ns#"
   xmlns:svg="http://www.w3.org/2000/svg"
   xmlns="http://www.w3.org/2000/svg"
   viewBox="0 0 1587.4 1122.52"
   height="1122.52"
   width="1587.4"
   xml:space="preserve"
   id="svg2"
   version="1.1"><metadata
     id="metadata8"><rdf:RDF><cc:Work
         rdf:about=""><dc:format>image/svg+xml</dc:format><dc:type
           rdf:resource="http://purl.org/dc/dcmitype/StillImage" /></cc:Work></rdf:RDF></metadata><defs
     id="defs6"><clipPath
       id="clipPath18"
       clipPathUnits="userSpaceOnUse"><path
         id="path16"
         d="M 0,841.89 H 1190.551 V 0 H 0 Z" /></clipPath></defs><g
     transform="matrix(1.3333333,0,0,-1.3333333,0,1122.52)"
     id="g10"><g
       id="g12"><g
         clip-path="url(#clipPath18)"
         id="g14"><g
           transform="translate(493,412.4473)"
           id="g20"><path
             id="path22"
             style="fill:#f47216;fill-opacity:1;fill-rule:nonzero;stroke:none"
             d="m 0,0 v -2.375 h 14.563 l -4.625,-8.313 7.507,-4.644 c 0,0 9.563,12.201 9.563,17.732 v 0.394 c 0,5.531 -9.563,17.731 -9.563,17.731 L 9.938,15.881 14.563,7.568 H 0 V 5.193 Z" /></g><g
           transform="translate(540.541,390.3584)"
           id="g24"><path
             id="path26"
             style="fill:#7b7979;fill-opacity:1;fill-rule:nonzero;stroke:none"
             d="m 0,0 2.057,1.188 -7.282,12.611 9.512,0.151 0.268,8.824 c 0,0 -15.348,2.181 -20.138,-0.585 l -0.341,-0.196 C -20.714,19.228 -26.498,4.846 -26.498,4.846 l 7.776,-4.18 4.886,8.161 7.281,-12.611 2.057,1.187 z" /></g><g
           transform="translate(535.9756,443.2627)"
           id="g28"><path
             id="path30"
             style="fill:#a7a5a6;fill-opacity:1;fill-rule:nonzero;stroke:none"
             d="m 0,0 -2.057,1.188 -7.281,-12.612 -4.887,8.161 -7.776,-4.179 c 0,0 5.786,-14.382 10.576,-17.148 l 0.34,-0.197 c 4.79,-2.766 20.137,-0.584 20.137,-0.584 l -0.268,8.824 -9.511,0.151 7.281,12.612 -2.056,1.187 z" /></g><g
           transform="translate(557.7466,427.166)"
           id="g32"><path
             id="path34"
             style="fill:#f47216;fill-opacity:1;fill-rule:nonzero;stroke:none"
             d="M 0,0 H 11.877 L 14.6,-12.813 h 0.15 L 17.353,0 H 29.201 V -23.419 H 22.02 V -5.018 H 21.84 L 17.712,-23.419 H 11.04 L 7.031,-5.018 H 6.821 V -23.419 H 0 Z" /></g><g
           transform="translate(557.7466,427.166)"
           id="g36"><path
             id="path38"
             style="fill:none;stroke:#f47216;stroke-width:2;stroke-linecap:butt;stroke-linejoin:miter;stroke-miterlimit:4;stroke-dasharray:none;stroke-opacity:1"
             d="M 0,0 H 11.877 L 14.6,-12.813 h 0.15 L 17.353,0 H 29.201 V -23.419 H 22.02 V -5.018 H 21.84 L 17.712,-23.419 H 11.04 L 7.031,-5.018 H 6.821 V -23.419 H 0 Z" /></g><g
           transform="translate(600.4707,415.457)"
           id="g40"><path
             id="path42"
             style="fill:#f47216;fill-opacity:1;fill-rule:nonzero;stroke:none"
             d="m 0,0 c 0,-2.442 0.209,-6.491 3.231,-6.491 3.022,0 3.231,4.049 3.231,6.491 0,2.441 -0.209,6.49 -3.231,6.49 C 0.209,6.49 0,2.441 0,0 m 14.899,0 c 0,-7.461 -4.278,-12.111 -11.668,-12.111 -7.39,0 -11.669,4.65 -11.669,12.111 0,7.46 4.279,12.111 11.669,12.111 7.39,0 11.668,-4.651 11.668,-12.111" /></g><g
           transform="translate(600.4707,415.457)"
           id="g44"><path
             id="path46"
             style="fill:none;stroke:#f47216;stroke-width:2;stroke-linecap:butt;stroke-linejoin:miter;stroke-miterlimit:4;stroke-dasharray:none;stroke-opacity:1"
             d="m 0,0 c 0,-2.442 0.209,-6.491 3.231,-6.491 3.022,0 3.231,4.049 3.231,6.491 0,2.441 -0.209,6.49 -3.231,6.49 C 0.209,6.49 0,2.441 0,0 Z m 14.899,0 c 0,-7.461 -4.278,-12.111 -11.668,-12.111 -7.39,0 -11.669,4.65 -11.669,12.111 0,7.46 4.279,12.111 11.669,12.111 7.39,0 11.668,-4.651 11.668,-12.111 z" /></g><g
           transform="translate(639.9902,427.166)"
           id="g48"><path
             id="path50"
             style="fill:#f47216;fill-opacity:1;fill-rule:nonzero;stroke:none"
             d="m 0,0 v -6.925 h -7.062 v -16.494 h -8.017 v 16.494 h -7.062 V 0 Z" /></g><g
           transform="translate(639.9902,427.166)"
           id="g52"><path
             id="path54"
             style="fill:none;stroke:#f47216;stroke-width:2;stroke-linecap:butt;stroke-linejoin:miter;stroke-miterlimit:4;stroke-dasharray:none;stroke-opacity:1"
             d="m 0,0 v -6.925 h -7.062 v -16.494 h -8.017 v 16.494 h -7.062 V 0 Z" /></g><g
           transform="translate(652.7939,427.166)"
           id="g56"><path
             id="path58"
             style="fill:#f47216;fill-opacity:1;fill-rule:nonzero;stroke:none"
             d="M 0,0 V -13.382 H 0.12 L 5.416,0 H 14.78 V -23.419 H 6.762 v 13.114 H 6.643 L 1.347,-23.419 H -8.018 V 0 Z" /></g><g
           transform="translate(652.7939,427.166)"
           id="g60"><path
             id="path62"
             style="fill:none;stroke:#f47216;stroke-width:2;stroke-linecap:butt;stroke-linejoin:miter;stroke-miterlimit:4;stroke-dasharray:none;stroke-opacity:1"
             d="M 0,0 V -13.382 H 0.12 L 5.416,0 H 14.78 V -23.419 H 6.762 v 13.114 H 6.643 L 1.347,-23.419 H -8.018 V 0 Z" /></g><g
           transform="translate(681.1582,408.498)"
           id="g64"><path
             id="path66"
             style="fill:#f47216;fill-opacity:1;fill-rule:nonzero;stroke:none"
             d="m 0,0 h 2.034 c 2.573,0 2.992,1.572 2.992,2.408 0,2.376 -2.483,2.376 -3.172,2.376 H 0 Z m 0,9.4 h 1.885 c 2.752,0 3.021,1.607 3.021,2.276 0,0.97 -0.628,2.241 -2.843,2.241 H 0 Z m 4.996,9.268 c 6.552,0 7.749,-3.914 7.749,-6.089 0,-2.677 -1.645,-4.85 -4.249,-5.387 V 7.059 c 2.095,-0.334 4.728,-1.873 4.728,-5.554 0,-5.921 -5.984,-6.256 -8.647,-6.256 H -7.6 v 23.419 z" /></g><g
           transform="translate(681.1582,408.498)"
           id="g68"><path
             id="path70"
             style="fill:none;stroke:#f47216;stroke-width:2;stroke-linecap:butt;stroke-linejoin:miter;stroke-miterlimit:4;stroke-dasharray:none;stroke-opacity:1"
             d="m 0,0 h 2.034 c 2.573,0 2.992,1.572 2.992,2.408 0,2.376 -2.483,2.376 -3.172,2.376 H 0 Z m 0,9.4 h 1.885 c 2.752,0 3.021,1.607 3.021,2.276 0,0.97 -0.628,2.241 -2.843,2.241 H 0 Z m 4.996,9.268 c 6.552,0 7.749,-3.914 7.749,-6.089 0,-2.677 -1.645,-4.85 -4.249,-5.387 V 7.059 c 2.095,-0.334 4.728,-1.873 4.728,-5.554 0,-5.921 -5.984,-6.256 -8.647,-6.256 H -7.6 v 23.419 z" /></g></g></g></g></svg>