<svg width="92" height="23" viewBox="0 0 92 23" fill="none" xmlns="http://www.w3.org/2000/svg">
<path fill-rule="evenodd" clip-rule="evenodd" d="M0 13.9278C0 18.4448 2.52451 23 8.17769 23C13.8258 23 16.3553 18.4448 16.3553 13.9278C16.3553 10.8425 15.318 7.28947 13.5866 4.41966C11.9028 1.64837 9.87975 0 8.17769 0C6.47079 0 4.44681 1.64837 2.77766 4.41966C1.03808 7.28947 0 10.8425 0 13.9278Z" fill="#FF4266"/>
<path fill-rule="evenodd" clip-rule="evenodd" d="M58.0601 6.77692H52.3358V1.23242H69.9178V6.77692H64.1935V21.768H58.0601V6.77692Z" fill="#FF4266"/>
<path fill-rule="evenodd" clip-rule="evenodd" d="M83.0016 6.77716H91.9976V1.23242H83.0024C74.7369 1.23242 70.3242 5.36013 70.3242 11.5004C70.3242 17.6406 74.7369 21.7682 83.0024 21.7682H91.9976V16.2235H83.0016C79.1772 16.2235 76.6619 14.8502 76.6619 11.5004C76.6619 8.15049 79.1772 6.77716 83.0016 6.77716Z" fill="#FF4266"/>
<path fill-rule="evenodd" clip-rule="evenodd" d="M36.5931 13.49L39.8628 1.23242H50.701V21.7682H44.5675V5.05393L40.1091 21.7682H33.0769L28.6214 5.06456L28.6211 21.7682H22.4881V1.23242H33.3232L36.5931 13.49Z" fill="#FF4266"/>
</svg>
