<svg width="135" height="44" viewBox="0 0 135 44" fill="none" xmlns="http://www.w3.org/2000/svg">
<path d="M81.9826 9.45948C81.9826 8.87284 82.4226 8.43286 83.0092 8.43286C83.5959 8.43286 84.0358 8.87284 84.0358 9.45948C84.0358 10.0461 83.5959 10.4861 83.0092 10.4861C82.4226 10.4861 81.9826 10.0461 81.9826 9.45948ZM82.1293 11.7327H83.8892V20.5323H82.1293V11.7327Z" fill="white"/>
<path d="M87.7756 20.5323H85.9424V8.79956H90.5622C92.982 8.79956 94.4486 10.1928 94.4486 12.3927C94.4486 14.006 93.642 15.2526 92.1754 15.7659L94.8153 20.5323H92.6887L90.2688 16.0592H87.7023V20.5323H87.7756ZM87.7756 14.5926H90.4155C91.8088 14.5926 92.6154 13.786 92.6154 12.466C92.6154 11.1461 91.7354 10.3395 90.3422 10.3395H87.7756V14.5926Z" fill="white"/>
<path d="M95.9152 9.45948C95.9152 8.87284 96.3552 8.43286 96.9418 8.43286C97.5285 8.43286 97.9685 8.87284 97.9685 9.45948C97.9685 10.0461 97.5285 10.4861 96.9418 10.4861C96.3552 10.4861 95.9152 10.0461 95.9152 9.45948ZM96.0619 11.7327H97.8218V20.5323H96.0619V11.7327Z" fill="white"/>
<path d="M99.2884 16.1324C99.2884 13.4192 100.828 11.6593 102.955 11.6593C104.201 11.6593 105.228 12.2459 105.741 13.1992H105.815V8.28613H107.575V20.5322H105.888V19.0656C105.375 20.0922 104.348 20.6789 103.102 20.6789C100.828 20.6055 99.2884 18.8456 99.2884 16.1324ZM101.122 16.1324C101.122 17.9657 102.075 19.1389 103.468 19.1389C104.861 19.1389 105.815 17.9657 105.815 16.1324C105.815 14.3725 104.861 13.1259 103.468 13.1259C102.002 13.1259 101.122 14.2992 101.122 16.1324Z" fill="white"/>
<path d="M109.335 9.45948C109.335 8.87284 109.775 8.43286 110.361 8.43286C110.948 8.43286 111.388 8.87284 111.388 9.45948C111.388 10.0461 110.948 10.4861 110.361 10.4861C109.775 10.4861 109.335 10.0461 109.335 9.45948ZM109.481 11.7327H111.241V20.5323H109.481V11.7327Z" fill="white"/>
<path d="M120.774 20.5322H119.087V18.9923C118.574 20.0189 117.621 20.6056 116.228 20.6056C114.321 20.6056 113.074 19.359 113.074 17.3791V11.7327H114.834V17.0124C114.834 18.3323 115.568 19.0656 116.814 19.0656C118.134 19.0656 119.014 18.1857 119.014 16.7191V11.7327H120.774V20.5322Z" fill="white"/>
<path d="M122.607 11.7326H124.294V13.1992C124.734 12.2459 125.614 11.5859 126.787 11.5859C128.034 11.5859 128.914 12.1726 129.28 13.2725H129.354C129.794 12.2459 130.82 11.5859 132.14 11.5859C133.9 11.5859 135 12.7592 135 14.5191V20.5322H133.24V14.9591C133.24 13.7858 132.58 13.1259 131.553 13.1259C130.454 13.1259 129.72 13.9325 129.72 15.0324V20.5322H127.96V14.8124C127.96 13.7858 127.3 13.1259 126.274 13.1259C125.174 13.1259 124.441 13.9325 124.441 15.1058V20.5322H122.681V11.7326H122.607Z" fill="white"/>
<path d="M82.1293 26.3986H83.8159V27.8652C84.2558 26.9119 85.1358 26.252 86.3091 26.252C87.5557 26.252 88.4356 26.8386 88.8023 27.9385H88.8756C89.3156 26.9119 90.3422 26.252 91.6621 26.252C93.422 26.252 94.522 27.4252 94.522 29.1851V35.1982H92.7621V29.6251C92.7621 28.4518 92.1021 27.7919 91.0755 27.7919C89.9755 27.7919 89.2423 28.5985 89.2423 29.6985V35.1982H87.4823V29.4785C87.4823 28.4518 86.8224 27.7919 85.7958 27.7919C84.6958 27.7919 83.9625 28.5985 83.9625 29.7718V35.1982H82.1293V26.3986Z" fill="white"/>
<path d="M95.8419 30.7984C95.8419 28.0119 97.4552 26.252 100.022 26.252C102.588 26.252 104.202 28.0119 104.202 30.7984C104.202 33.5849 102.588 35.2715 100.022 35.2715C97.4552 35.2715 95.8419 33.5849 95.8419 30.7984ZM102.368 30.7984C102.368 28.8918 101.488 27.7185 100.022 27.7185C98.5551 27.7185 97.6018 28.8918 97.6018 30.7984C97.6018 32.705 98.4818 33.8782 100.022 33.8782C101.562 33.8782 102.368 32.705 102.368 30.7984Z" fill="white"/>
<path d="M107.428 33.7316L107.355 35.1982H105.668V22.9521H107.428V27.8652C107.941 26.912 108.968 26.3253 110.215 26.3253C112.414 26.3253 113.881 28.0852 113.881 30.7984C113.881 33.5116 112.414 35.2715 110.215 35.2715C108.968 35.2715 107.941 34.6849 107.428 33.7316ZM107.428 30.7984C107.428 32.5583 108.381 33.8049 109.775 33.8049C111.168 33.8049 112.121 32.6317 112.121 30.7984C112.121 28.9652 111.168 27.7919 109.775 27.7919C108.381 27.7919 107.428 29.0385 107.428 30.7984Z" fill="white"/>
<path d="M115.274 24.1255C115.274 23.5389 115.714 23.0989 116.301 23.0989C116.888 23.0989 117.328 23.5389 117.328 24.1255C117.328 24.7121 116.888 25.1521 116.301 25.1521C115.714 25.1521 115.274 24.7121 115.274 24.1255ZM115.421 26.3987H117.181V35.1983H115.421V26.3987Z" fill="white"/>
<path d="M119.087 22.9521H120.847V35.1982H119.087V22.9521Z" fill="white"/>
<path d="M130.234 32.6318C130.014 34.245 128.4 35.345 126.42 35.345C123.854 35.345 122.314 33.6584 122.314 30.8719C122.314 28.0854 123.927 26.3254 126.347 26.3254C128.767 26.3254 130.307 28.012 130.307 30.6519V31.2385H124.074V31.3119C124.074 32.8518 125.027 33.8051 126.494 33.8051C127.52 33.8051 128.327 33.2918 128.547 32.5585H130.234V32.6318ZM124.074 29.9919H128.547C128.474 28.5987 127.667 27.7187 126.347 27.7187C125.1 27.7187 124.221 28.5987 124.074 29.9919Z" fill="white"/>
<path d="M24.9321 14.666C27.3621 14.666 29.3319 12.6962 29.3319 10.2662C29.3319 7.8363 27.3621 5.86646 24.9321 5.86646C22.5022 5.86646 20.5323 7.8363 20.5323 10.2662C20.5323 12.6962 22.5022 14.666 24.9321 14.666Z" fill="white"/>
<path d="M36.6649 14.666C39.0948 14.666 41.0646 12.6962 41.0646 10.2662C41.0646 7.8363 39.0948 5.86646 36.6649 5.86646C34.2349 5.86646 32.2651 7.8363 32.2651 10.2662C32.2651 12.6962 34.2349 14.666 36.6649 14.666Z" fill="white"/>
<path d="M48.3976 7.62637C49.8642 7.62637 51.0375 8.79964 51.0375 10.2662C51.0375 11.7328 49.8642 12.9061 48.3976 12.9061C46.931 12.9061 45.7577 11.7328 45.7577 10.2662C45.7577 8.79964 46.931 7.62637 48.3976 7.62637ZM48.3976 5.86646C45.9777 5.86646 43.9978 7.84636 43.9978 10.2662C43.9978 12.6861 45.9777 14.666 48.3976 14.666C50.8175 14.666 52.7974 12.6861 52.7974 10.2662C52.7974 7.84636 50.8175 5.86646 48.3976 5.86646Z" fill="white"/>
<path d="M24.9321 26.3987C27.3621 26.3987 29.3319 24.4288 29.3319 21.9989C29.3319 19.569 27.3621 17.5991 24.9321 17.5991C22.5022 17.5991 20.5323 19.569 20.5323 21.9989C20.5323 24.4288 22.5022 26.3987 24.9321 26.3987Z" fill="white"/>
<path d="M36.6649 19.359C38.1315 19.359 39.3047 20.5323 39.3047 21.9989C39.3047 23.4655 38.1315 24.6388 36.6649 24.6388C35.1983 24.6388 34.025 23.4655 34.025 21.9989C34.025 20.5323 35.1983 19.359 36.6649 19.359ZM36.6649 17.5991C34.245 17.5991 32.2651 19.579 32.2651 21.9989C32.2651 24.4188 34.245 26.3987 36.6649 26.3987C39.0847 26.3987 41.0646 24.4188 41.0646 21.9989C41.0646 19.579 39.0847 17.5991 36.6649 17.5991Z" fill="white"/>
<path d="M48.3976 26.3987C50.8275 26.3987 52.7974 24.4288 52.7974 21.9989C52.7974 19.569 50.8275 17.5991 48.3976 17.5991C45.9677 17.5991 43.9978 19.569 43.9978 21.9989C43.9978 24.4288 45.9677 26.3987 48.3976 26.3987Z" fill="white"/>
<path d="M24.9321 31.0919C26.3987 31.0919 27.572 32.2652 27.572 33.7318C27.572 35.1984 26.3987 36.3717 24.9321 36.3717C23.4655 36.3717 22.2923 35.1984 22.2923 33.7318C22.2923 32.2652 23.4655 31.0919 24.9321 31.0919ZM24.9321 29.332C22.5123 29.332 20.5323 31.3119 20.5323 33.7318C20.5323 36.1517 22.5123 38.1316 24.9321 38.1316C27.352 38.1316 29.3319 36.1517 29.3319 33.7318C29.3319 31.3119 27.352 29.332 24.9321 29.332Z" fill="white"/>
<path d="M36.6649 31.0919C38.1315 31.0919 39.3047 32.2652 39.3047 33.7318C39.3047 35.1984 38.1315 36.3717 36.6649 36.3717C35.1983 36.3717 34.025 35.1984 34.025 33.7318C34.025 32.2652 35.1983 31.0919 36.6649 31.0919ZM36.6649 29.332C34.245 29.332 32.2651 31.3119 32.2651 33.7318C32.2651 36.1517 34.245 38.1316 36.6649 38.1316C39.0847 38.1316 41.0646 36.1517 41.0646 33.7318C41.0646 31.3119 39.0847 29.332 36.6649 29.332Z" fill="white"/>
<path d="M48.3976 31.0919C49.8642 31.0919 51.0375 32.2652 51.0375 33.7318C51.0375 35.1984 49.8642 36.3717 48.3976 36.3717C46.931 36.3717 45.7577 35.1984 45.7577 33.7318C45.7577 32.2652 46.931 31.0919 48.3976 31.0919ZM48.3976 29.332C45.9777 29.332 43.9978 31.3119 43.9978 33.7318C43.9978 36.1517 45.9777 38.1316 48.3976 38.1316C50.8175 38.1316 52.7974 36.1517 52.7974 33.7318C52.7974 31.3119 50.8175 29.332 48.3976 29.332Z" fill="white"/>
<path d="M68.05 43.9978H5.27974C2.34655 43.9978 0 41.6513 0 38.7181V5.27974C0 2.34655 2.34655 0 5.27974 0H68.05C70.9832 0 73.3297 2.34655 73.3297 5.27974V38.7181C73.3297 41.6513 70.9832 43.9978 68.05 43.9978ZM5.27974 2.05323C3.51983 2.05323 2.05323 3.51983 2.05323 5.27974V38.7181C2.05323 40.478 3.51983 41.9446 5.27974 41.9446H68.05C69.8099 41.9446 71.2765 40.478 71.2765 38.7181V5.27974C71.2765 3.51983 69.8099 2.05323 68.05 2.05323H5.27974Z" fill="white"/>
</svg>
